<svg width="32" height="32" viewBox="0 0 32 32" fill="none" xmlns="http://www.w3.org/2000/svg">
<g clip-path="url(#clip0_339_1169)">
<path d="M31.4878 16.9938C31.4878 17.2404 31.2878 17.4404 31.0412 17.4404L25.8378 17.4404L25.8378 2.64352L31.0412 2.64352C31.2878 2.64352 31.4878 2.8435 31.4878 3.09015L31.4878 16.9938Z" stroke="#FF72BF"/>
<path d="M2.22876 15.3916L1.92478 15.8305C1.61186 16.2824 1.4286 16.8297 1.4286 17.4199C1.4286 18.9633 2.68512 20.2198 4.22854 20.2198L11.1947 20.2198L11.817 20.2198L11.6829 20.8276C11.4711 21.7875 11.1822 23.2244 10.9815 24.7253L10.4859 24.659L10.9814 24.7253C10.7193 26.6851 10.6847 28.1647 10.8602 29.2293C11.0358 30.2942 11.4051 30.8579 11.8739 31.1289L2.22876 15.3916ZM2.22876 15.3916L1.77082 15.117M2.22876 15.3916L1.77082 15.117M1.77082 15.117C0.952113 14.6262 0.405407 13.7315 0.405407 12.7133C0.405407 11.695 0.952112 10.8003 1.77092 10.3095L2.22888 10.035L1.92492 9.596C1.61197 9.14405 1.42872 8.59683 1.42872 8.00657C1.42872 6.90204 2.07239 5.94261 3.00759 5.48715L3.50608 5.24438L3.21324 4.77355C2.9469 4.34536 2.79304 3.8408 2.79304 3.29988C2.79304 1.75645 4.04956 0.499933 5.59298 0.499933L13.1834 0.499932C16.4867 0.499932 19.7261 1.03183 22.8379 2.08172L22.8379 18.5819C21.975 19.2428 20.8954 20.1326 19.9034 21.1317C18.8413 22.2014 17.8427 23.4328 17.341 24.6718L17.3409 24.6717L17.3373 24.681L15.5065 29.4748L15.5027 29.4846M1.77082 15.117L15.5027 29.4846M15.5027 29.4846L15.4994 29.4945M15.5027 29.4846L15.4994 29.4945M15.4994 29.4945C15.0862 30.7286 14.387 31.1842 13.9168 31.3633L15.4994 29.4945ZM13.9167 31.3634C13.2967 31.5994 12.5762 31.5345 11.874 31.1289L13.9167 31.3634Z" stroke="#FF72BF"/>
</g>
<defs>
<clipPath id="clip0_339_1169">
<rect width="32" height="32" fill="white" transform="translate(32 32) rotate(180)"/>
</clipPath>
</defs>
</svg>
