<svg width="32" height="32" viewBox="0 0 32 32" fill="none" xmlns="http://www.w3.org/2000/svg">
<g clip-path="url(#clip0_339_1162)">
<path d="M0.958834 14.0596C0.43602 14.0596 0.012207 14.4834 0.012207 15.0062V28.9099C0.012207 29.4327 0.436083 29.8565 0.958834 29.8565H6.66216V14.0596H0.958834Z" fill="#FF72BF"/>
<path d="M32.0946 19.2867C32.0946 18.085 31.4489 17.0313 30.4863 16.4542C30.8551 15.9216 31.0714 15.2755 31.0714 14.5801C31.0714 12.7605 29.591 11.2802 27.7715 11.2802H20.8053C21.0188 10.3127 21.3108 8.86084 21.5141 7.34102C22.0433 3.38595 21.6816 1.19251 20.3762 0.438193C19.5623 -0.0319957 18.6848 -0.127371 17.9053 0.16938C17.3031 0.398755 16.4899 0.962694 16.0264 2.34676L14.1956 7.14058C13.2674 9.4329 10.4249 11.8395 8.66211 13.1702V30.2751C11.9292 31.4198 15.3385 32.0001 18.8166 32.0001H26.407C28.2266 32.0001 29.707 30.5197 29.707 28.7001C29.707 28.0629 29.5254 27.4673 29.2113 26.9624C30.3114 26.4266 31.0713 25.297 31.0713 23.9934C31.0713 23.2979 30.855 22.652 30.4862 22.1194C31.4489 21.5422 32.0946 20.4884 32.0946 19.2867Z" fill="#FF72BF"/>
</g>
<defs>
<clipPath id="clip0_339_1162">
<rect width="32" height="32" fill="white"/>
</clipPath>
</defs>
</svg>
