<svg width="32" height="32" viewBox="0 0 32 32" fill="none" xmlns="http://www.w3.org/2000/svg">
<g clip-path="url(#clip0_335_1115)">
<path d="M20.6341 24.1163L16.0001 19.4824L11.3662 24.1163L13.1341 25.884L14.7501 24.2679V32.0002H17.2501V24.2679L18.8662 25.884L20.6341 24.1163Z" fill="#BC66FF"/>
<path d="M26 0H6C3.93225 0 2.25 1.68225 2.25 3.75V26.25C2.25 28.3177 3.93225 30 6 30H12.25V27.5H6C5.46475 27.5 5.00831 27.1612 4.8305 26.6873L16 15.5177L27.1695 26.6873C26.9917 27.1612 26.5352 27.5 26 27.5H19.75V30H26C28.0677 30 29.75 28.3177 29.75 26.25V3.75C29.75 1.68225 28.0677 0 26 0ZM4.75 23.2322V3.75C4.75 3.06075 5.31075 2.5 6 2.5H26C26.6893 2.5 27.25 3.06075 27.25 3.75V23.2322L16 11.9822L4.75 23.2322Z" fill="#BC66FF"/>
<path d="M11 5C8.93225 5 7.25 6.68225 7.25 8.75C7.25 10.8177 8.93225 12.5 11 12.5C13.0677 12.5 14.75 10.8177 14.75 8.75C14.75 6.68225 13.0677 5 11 5ZM11 10C10.3108 10 9.75 9.43925 9.75 8.75C9.75 8.06075 10.3108 7.5 11 7.5C11.6892 7.5 12.25 8.06075 12.25 8.75C12.25 9.43925 11.6892 10 11 10Z" fill="#BC66FF"/>
</g>
<defs>
<clipPath id="clip0_335_1115">
<rect width="32" height="32" fill="white"/>
</clipPath>
</defs>
</svg>
