<svg width="20" height="20" viewBox="0 0 20 20" fill="none" xmlns="http://www.w3.org/2000/svg">
<g clip-path="url(#clip0_1837_1043)">
<path d="M9.60402 0.00101471C14.8536 0.00101471 19.124 4.27148 19.124 9.52102C19.124 14.7706 14.8536 19.041 9.60402 19.041C4.35448 19.041 0.0840225 14.7706 0.0840225 9.52102C0.0840225 4.27148 4.35448 0.00101471 9.60402 0.00101471ZM9.60402 17.851C14.1974 17.851 17.934 14.1144 17.934 9.52102C17.934 4.92763 14.1974 1.19102 9.60402 1.19102C5.01064 1.19102 1.27402 4.92763 1.27402 9.52102C1.27402 14.1144 5.01064 17.851 9.60402 17.851Z" fill="#BC66FF"/>
<path d="M12.5487 5.98148C12.7011 5.98148 12.8535 6.03929 12.9692 6.15594C13.2017 6.38836 13.2017 6.76517 12.9692 6.9976L7.0788 12.8882C6.84623 13.1206 6.46942 13.1206 6.23699 12.8882C6.00457 12.6558 6.00457 12.2789 6.23699 12.0464L12.1276 6.15594C12.245 6.03929 12.3972 5.98148 12.5487 5.98148Z" fill="#BC66FF"/>
<path d="M6.65927 5.98029C6.81151 5.98029 6.96389 6.0381 7.07966 6.15475L12.9701 12.0445C13.2027 12.2769 13.2027 12.6537 12.9701 12.8861C12.7377 13.1187 12.3609 13.1187 12.1284 12.8861L6.23801 6.99568C6.00544 6.76326 6.00544 6.38644 6.23801 6.15402C6.35451 6.0381 6.50689 5.98029 6.65927 5.98029Z" fill="#BC66FF"/>
</g>
<defs>
<clipPath id="clip0_1837_1043">
<rect width="19.04" height="19.04" fill="white" transform="matrix(-1 0 0 -1 19.124 19.041)"/>
</clipPath>
</defs>
</svg>
