<svg width="32" height="32" viewBox="0 0 32 32" fill="none" xmlns="http://www.w3.org/2000/svg">
<path d="M28.25 2.5H27.25V0H24.75V2.5H17.25V0H14.75V2.5H7.25V0H4.75V2.5H3.75C1.68225 2.5 0 4.18225 0 6.25V28.25C0 30.3177 1.68225 32 3.75 32H28.25C30.3177 32 32 30.3177 32 28.25V6.25C32 4.18225 30.3177 2.5 28.25 2.5ZM3.75 5H4.75V7.5H7.25V5H14.75V7.5H17.25V5H24.75V7.5H27.25V5H28.25C28.9393 5 29.5 5.56075 29.5 6.25V9.75H2.5V6.25C2.5 5.56075 3.06075 5 3.75 5ZM28.25 29.5H3.75C3.06075 29.5 2.5 28.9393 2.5 28.25V12.25H29.5V28.25C29.5 28.9393 28.9393 29.5 28.25 29.5Z" fill="#BC66FF"/>
<path d="M14.75 27.25H27.25V14.75H14.75V27.25ZM17.25 17.25H19.75V19.75H22.25V17.25H24.75V24.75H17.25V17.25Z" fill="#BC66FF"/>
<path d="M7.25 17.25H12.25V19.75H7.25V17.25Z" fill="#BC66FF"/>
<path d="M4.75 22.25H12.25V24.75H4.75V22.25Z" fill="#BC66FF"/>
</svg>
