<svg width="18" height="30" viewBox="0 0 18 30" fill="none" xmlns="http://www.w3.org/2000/svg">
<path d="M5.49987 29.2463C4.83107 23.6093 4.59833 22.8057 4.28966 22.132C3.88298 21.6176 3.39792 21.2329 0 20.1232C3.39792 19.0134 3.88298 18.6288 4.28966 18.1143C4.60078 17.4406 4.83107 16.6371 5.49987 11C6.16867 16.6371 6.40141 17.4382 6.71254 18.1143C7.11921 18.6288 7.60428 19.0134 11.0022 20.1232C7.60428 21.2329 7.11921 21.6176 6.71254 22.132C6.40141 22.8057 6.17112 23.6093 5.49987 29.2463Z" fill="url(#paint0_linear_335_916)"/>
<path d="M12.4999 18.2463C11.8311 12.6093 11.5983 11.8057 11.2897 11.132C10.883 10.6176 10.3979 10.2329 7 9.12317C10.3979 8.0134 10.883 7.62877 11.2897 7.11431C11.6008 6.4406 11.8311 5.63706 12.4999 0C13.1687 5.63706 13.4014 6.43815 13.7125 7.11431C14.1192 7.62877 14.6043 8.0134 18.0022 9.12317C14.6043 10.2329 14.1192 10.6176 13.7125 11.132C13.4014 11.8057 13.1711 12.6093 12.4999 18.2463Z" fill="url(#paint1_linear_335_916)"/>
<defs>
<linearGradient id="paint0_linear_335_916" x1="0" y1="20.1232" x2="10.9997" y2="20.1232" gradientUnits="userSpaceOnUse">
<stop stop-color="#0000FF"/>
<stop offset="0.54" stop-color="#8F00FF"/>
<stop offset="1" stop-color="#FF1494"/>
</linearGradient>
<linearGradient id="paint1_linear_335_916" x1="7" y1="9.12317" x2="17.9997" y2="9.12317" gradientUnits="userSpaceOnUse">
<stop stop-color="#0000FF"/>
<stop offset="0.54" stop-color="#8F00FF"/>
<stop offset="1" stop-color="#FF1494"/>
</linearGradient>
</defs>
</svg>
