<svg width="32" height="32" viewBox="0 0 32 32" fill="none" xmlns="http://www.w3.org/2000/svg">
<g clip-path="url(#clip0_335_1153)">
<path d="M28.25 0H8.85725L0 8.85725V28.25C0 30.3177 1.68225 32 3.75 32H28.25C30.3177 32 32 30.3177 32 28.25V3.75C32 1.68225 30.3177 0 28.25 0ZM9.375 3.01775V8.125C9.375 8.81425 8.81425 9.375 8.125 9.375H3.01775L9.375 3.01775ZM29.5 28.25C29.5 28.9393 28.9393 29.5 28.25 29.5H3.75C3.06075 29.5 2.5 28.9393 2.5 28.25V11.875H8.125C10.1927 11.875 11.875 10.1927 11.875 8.125V2.5H28.25C28.9393 2.5 29.5 3.06075 29.5 3.75V28.25Z" fill="#BC66FF"/>
<path d="M25.8957 10.8434C25.1853 10.1346 24.2434 9.74512 23.2408 9.74512C23.2329 9.74512 23.2249 9.74512 23.2169 9.74518C22.2055 9.75143 21.259 10.1531 20.5525 10.8755L12.3079 19.2926C11.827 19.7749 11.4597 20.3712 11.2455 21.0177L9.87305 27.0271L15.9002 25.6714C16.549 25.4567 17.1475 25.0879 17.6308 24.6049L25.9284 16.1339C27.3634 14.6664 27.3487 12.2931 25.8957 10.8434ZM24.1417 14.3852L15.7049 22.9675L13.9234 21.1851L22.3393 12.6242C22.5762 12.3819 22.8934 12.2472 23.2324 12.2452C23.5705 12.2434 23.89 12.3738 24.13 12.6132C24.6169 13.0989 24.6218 13.8942 24.1417 14.3852Z" fill="#BC66FF"/>
</g>
<defs>
<clipPath id="clip0_335_1153">
<rect width="32" height="32" fill="white"/>
</clipPath>
</defs>
</svg>
