<svg width="473" height="601" viewBox="0 0 473 601" fill="none" xmlns="http://www.w3.org/2000/svg">
<g clip-path="url(#clip0_1474_3224)">
<rect y="0.600586" width="473" height="600" rx="20" fill="white"/>
<g filter="url(#filter0_f_1474_3224)">
<circle cx="633" cy="689.201" r="221" fill="#0000FF" fill-opacity="0.4"/>
</g>
<g filter="url(#filter1_f_1474_3224)">
<circle cx="-79" cy="-98.7988" r="221" fill="#FF43A9" fill-opacity="0.4"/>
</g>
<path d="M110.669 381.152C110.669 383.792 108.557 386.168 104.741 386.168C101.261 386.168 98.5728 384.344 98.5248 381.176H102.125C102.221 382.52 103.109 383.408 104.669 383.408C106.253 383.408 107.189 382.568 107.189 381.368C107.189 377.744 98.5488 379.928 98.5728 373.856C98.5728 370.832 101.021 369.008 104.477 369.008C107.909 369.008 110.261 370.76 110.477 373.784H106.781C106.709 372.68 105.821 371.816 104.381 371.792C103.061 371.744 102.077 372.392 102.077 373.76C102.077 377.12 110.669 375.248 110.669 381.152ZM126.422 379.352C126.422 383.528 123.35 386.216 119.486 386.216C115.646 386.216 112.742 383.528 112.742 379.352C112.742 375.152 115.742 372.488 119.582 372.488C123.422 372.488 126.422 375.152 126.422 379.352ZM116.15 379.352C116.15 381.992 117.686 383.288 119.486 383.288C121.262 383.288 122.966 381.992 122.966 379.352C122.966 376.688 121.31 375.416 119.534 375.416C117.758 375.416 116.15 376.688 116.15 379.352ZM128.022 379.352C128.022 375.176 130.758 372.488 134.598 372.488C137.91 372.488 140.142 374.216 140.862 377.192H137.238C136.854 376.064 135.966 375.344 134.574 375.344C132.702 375.344 131.454 376.76 131.454 379.352C131.454 381.944 132.702 383.336 134.574 383.336C135.966 383.336 136.83 382.712 137.238 381.512H140.862C140.142 384.344 137.91 386.216 134.598 386.216C130.758 386.216 128.022 383.528 128.022 379.352ZM143.324 386V372.704H146.684V386H143.324ZM145.028 371.12C143.828 371.12 142.964 370.256 142.964 369.152C142.964 368.048 143.828 367.184 145.028 367.184C146.204 367.184 147.092 368.048 147.092 369.152C147.092 370.256 146.204 371.12 145.028 371.12ZM149.14 379.304C149.14 375.152 151.828 372.488 155.212 372.488C157.348 372.488 158.812 373.496 159.604 374.6V372.704H162.988V386H159.604V384.056C158.812 385.208 157.3 386.216 155.188 386.216C151.828 386.216 149.14 383.456 149.14 379.304ZM159.604 379.352C159.604 376.832 157.924 375.44 156.076 375.44C154.276 375.44 152.572 376.784 152.572 379.304C152.572 381.824 154.276 383.264 156.076 383.264C157.924 383.264 159.604 381.872 159.604 379.352ZM166.269 386V368.24H169.629V386H166.269ZM178.668 386V369.248H182.484L187.812 381.704L193.14 369.248H196.932V386H193.572V375.104L189.084 386H186.54L182.028 375.104V386H178.668ZM205.966 375.248C204.358 375.248 203.086 376.28 202.822 378.104H209.134C209.086 376.352 207.694 375.248 205.966 375.248ZM212.278 381.824C211.558 384.272 209.35 386.216 206.062 386.216C202.198 386.216 199.39 383.528 199.39 379.352C199.39 375.152 202.126 372.488 206.062 372.488C209.902 372.488 212.614 375.104 212.614 379.064C212.614 379.496 212.59 379.928 212.518 380.36H202.798C202.966 382.328 204.31 383.432 205.99 383.432C207.43 383.432 208.222 382.712 208.654 381.824H212.278ZM214.202 379.304C214.202 375.152 216.89 372.488 220.298 372.488C222.05 372.488 223.73 373.304 224.642 374.552V368.24H228.05V386H224.642V384.032C223.85 385.256 222.362 386.216 220.274 386.216C216.89 386.216 214.202 383.456 214.202 379.304ZM224.666 379.352C224.666 376.832 222.986 375.44 221.138 375.44C219.338 375.44 217.634 376.784 217.634 379.304C217.634 381.824 219.338 383.264 221.138 383.264C222.986 383.264 224.666 381.872 224.666 379.352ZM231.332 386V372.704H234.692V386H231.332ZM233.036 371.12C231.836 371.12 230.972 370.256 230.972 369.152C230.972 368.048 231.836 367.184 233.036 367.184C234.212 367.184 235.1 368.048 235.1 369.152C235.1 370.256 234.212 371.12 233.036 371.12ZM237.147 379.304C237.147 375.152 239.835 372.488 243.219 372.488C245.355 372.488 246.819 373.496 247.611 374.6V372.704H250.995V386H247.611V384.056C246.819 385.208 245.307 386.216 243.195 386.216C239.835 386.216 237.147 383.456 237.147 379.304ZM247.611 379.352C247.611 376.832 245.931 375.44 244.083 375.44C242.283 375.44 240.579 376.784 240.579 379.304C240.579 381.824 242.283 383.264 244.083 383.264C245.931 383.264 247.611 381.872 247.611 379.352ZM263.356 376.856H266.02C267.916 376.856 268.756 375.92 268.756 374.432C268.756 372.896 267.916 371.984 266.02 371.984H263.356V376.856ZM272.212 374.432C272.212 376.976 270.484 379.568 266.164 379.568H263.356V386H259.996V369.248H266.164C270.196 369.248 272.212 371.528 272.212 374.432ZM274.597 386V368.24H277.957V386H274.597ZM280.413 379.304C280.413 375.152 283.101 372.488 286.485 372.488C288.621 372.488 290.085 373.496 290.877 374.6V372.704H294.261V386H290.877V384.056C290.085 385.208 288.573 386.216 286.461 386.216C283.101 386.216 280.413 383.456 280.413 379.304ZM290.877 379.352C290.877 376.832 289.197 375.44 287.349 375.44C285.549 375.44 283.845 376.784 283.845 379.304C283.845 381.824 285.549 383.264 287.349 383.264C289.197 383.264 290.877 381.872 290.877 379.352ZM298.071 381.872V375.464H296.487V372.704H298.071V369.416H301.455V372.704H304.431V375.464H301.455V381.896C301.455 382.784 301.815 383.168 302.871 383.168H304.431V386H302.319C299.775 386 298.071 384.92 298.071 381.872ZM307.207 386V375.464H305.695V372.704H307.207V372.032C307.207 368.768 309.055 367.256 312.799 367.352V370.184C311.167 370.136 310.615 370.664 310.615 372.152V372.704H312.943V375.464H310.615V386H307.207ZM327.961 379.352C327.961 383.528 324.889 386.216 321.025 386.216C317.185 386.216 314.281 383.528 314.281 379.352C314.281 375.152 317.281 372.488 321.121 372.488C324.961 372.488 327.961 375.152 327.961 379.352ZM317.689 379.352C317.689 381.992 319.225 383.288 321.025 383.288C322.801 383.288 324.505 381.992 324.505 379.352C324.505 376.688 322.849 375.416 321.073 375.416C319.297 375.416 317.689 376.688 317.689 379.352ZM333.786 379.376V386H330.426V372.704H333.786V374.768C334.626 373.4 336.018 372.512 337.866 372.512V376.04H336.978C334.986 376.04 333.786 376.808 333.786 379.376ZM358.729 386V378.656C358.729 376.544 357.553 375.44 355.777 375.44C353.977 375.44 352.801 376.544 352.801 378.656V386H349.441V378.656C349.441 376.544 348.265 375.44 346.489 375.44C344.665 375.44 343.489 376.544 343.489 378.656V386H340.129V372.704H343.489V374.312C344.329 373.208 345.745 372.512 347.401 372.512C349.465 372.512 351.169 373.4 352.081 375.056C352.945 373.544 354.697 372.512 356.641 372.512C359.833 372.512 362.089 374.528 362.089 378.2V386H358.729ZM375.597 382.208C375.597 384.488 373.605 386.216 370.365 386.216C367.029 386.216 364.701 384.272 364.557 381.8H367.941C368.061 382.808 368.997 383.576 370.341 383.576C371.661 383.576 372.381 382.976 372.381 382.208C372.381 379.832 364.869 381.344 364.869 376.472C364.869 374.264 366.837 372.488 370.125 372.488C373.341 372.488 375.285 374.24 375.477 376.88H372.261C372.165 375.848 371.349 375.152 370.029 375.152C368.781 375.152 368.133 375.656 368.133 376.424C368.133 378.848 375.501 377.336 375.597 382.208Z" fill="black"/>
<path d="M117.407 427V410.272H119.591V427H117.407ZM132.937 427V419.56C132.937 416.872 131.473 415.504 129.265 415.504C127.033 415.504 125.497 416.896 125.497 419.728V427H123.313V413.848H125.497V415.72C126.361 414.352 127.945 413.608 129.721 413.608C132.769 413.608 135.097 415.48 135.097 419.248V427H132.937ZM139.144 423.4V415.648H137.44V413.848H139.144V410.536H141.328V413.848H144.76V415.648H141.328V423.4C141.328 424.696 141.808 425.152 143.152 425.152H144.76V427H142.792C140.464 427 139.144 426.04 139.144 423.4ZM152.999 415.48C150.863 415.48 149.087 416.896 148.847 419.464H157.151C157.175 416.896 155.255 415.48 152.999 415.48ZM159.143 422.944C158.471 425.344 156.359 427.216 153.095 427.216C149.351 427.216 146.591 424.576 146.591 420.4C146.591 416.248 149.255 413.632 153.095 413.632C156.911 413.632 159.407 416.32 159.407 419.92C159.407 420.4 159.383 420.784 159.335 421.24H148.823C148.991 423.904 150.863 425.368 153.095 425.368C155.063 425.368 156.311 424.36 156.791 422.944H159.143ZM161.473 420.376C161.473 416.272 164.185 413.632 167.713 413.632C170.113 413.632 171.841 414.832 172.609 416.248V413.848H174.817V427.288C174.817 430.912 172.393 433.48 168.529 433.48C165.073 433.48 162.601 431.728 162.169 428.92H164.329C164.809 430.504 166.369 431.584 168.529 431.584C170.857 431.584 172.609 430.096 172.609 427.288V424.528C171.817 425.944 170.113 427.216 167.713 427.216C164.185 427.216 161.473 424.456 161.473 420.376ZM172.609 420.4C172.609 417.352 170.545 415.528 168.145 415.528C165.745 415.528 163.705 417.28 163.705 420.376C163.705 423.472 165.745 425.296 168.145 425.296C170.545 425.296 172.609 423.496 172.609 420.4ZM180.692 419.848V427H178.508V413.848H180.692V415.984C181.436 414.52 182.852 413.608 184.94 413.608V415.864H184.364C182.276 415.864 180.692 416.8 180.692 419.848ZM186.645 420.376C186.645 416.272 189.357 413.632 192.885 413.632C195.333 413.632 197.013 414.88 197.781 416.248V413.848H199.989V427H197.781V424.552C196.989 425.968 195.285 427.216 192.861 427.216C189.357 427.216 186.645 424.456 186.645 420.376ZM197.781 420.4C197.781 417.352 195.717 415.528 193.317 415.528C190.917 415.528 188.877 417.28 188.877 420.376C188.877 423.472 190.917 425.296 193.317 425.296C195.717 425.296 197.781 423.496 197.781 420.4ZM204.16 423.4V415.648H202.456V413.848H204.16V410.536H206.344V413.848H209.776V415.648H206.344V423.4C206.344 424.696 206.824 425.152 208.168 425.152H209.776V427H207.808C205.48 427 204.16 426.04 204.16 423.4ZM218.014 415.48C215.878 415.48 214.102 416.896 213.862 419.464H222.166C222.19 416.896 220.27 415.48 218.014 415.48ZM224.158 422.944C223.486 425.344 221.374 427.216 218.11 427.216C214.366 427.216 211.606 424.576 211.606 420.4C211.606 416.248 214.27 413.632 218.11 413.632C221.926 413.632 224.422 416.32 224.422 419.92C224.422 420.4 224.398 420.784 224.35 421.24H213.838C214.006 423.904 215.878 425.368 218.11 425.368C220.078 425.368 221.326 424.36 221.806 422.944H224.158ZM236.271 427L232.143 413.848H234.375L237.399 424.888L240.663 413.848H242.895L246.087 424.912L249.063 413.848H251.223L247.119 427H244.863L241.695 416.56L238.527 427H236.271ZM253.391 427V413.848H255.575V427H253.391ZM254.519 411.712C253.679 411.712 253.031 411.064 253.031 410.224C253.031 409.384 253.679 408.736 254.519 408.736C255.311 408.736 255.959 409.384 255.959 410.224C255.959 411.064 255.311 411.712 254.519 411.712ZM259.777 423.4V415.648H258.073V413.848H259.777V410.536H261.961V413.848H265.393V415.648H261.961V423.4C261.961 424.696 262.441 425.152 263.785 425.152H265.393V427H263.425C261.097 427 259.777 426.04 259.777 423.4ZM268.039 427V409.24H270.223V415.744C271.087 414.352 272.719 413.608 274.567 413.608C277.495 413.608 279.823 415.48 279.823 419.248V427H277.663V419.56C277.663 416.872 276.199 415.504 273.991 415.504C271.759 415.504 270.223 416.896 270.223 419.728V427H268.039ZM299.245 423.424C299.245 425.584 297.349 427.216 294.445 427.216C291.373 427.216 289.213 425.536 289.069 423.136H291.325C291.445 424.408 292.573 425.368 294.421 425.368C296.149 425.368 297.109 424.504 297.109 423.424C297.109 420.496 289.333 422.2 289.333 417.304C289.333 415.288 291.229 413.632 294.157 413.632C297.061 413.632 298.981 415.192 299.125 417.76H296.941C296.845 416.44 295.837 415.48 294.085 415.48C292.477 415.48 291.517 416.248 291.517 417.304C291.517 420.424 299.149 418.72 299.245 423.424ZM314.808 420.4C314.808 424.576 311.808 427.216 308.064 427.216C304.344 427.216 301.512 424.576 301.512 420.4C301.512 416.248 304.44 413.632 308.16 413.632C311.904 413.632 314.808 416.248 314.808 420.4ZM303.744 420.4C303.744 423.736 305.784 425.296 308.064 425.296C310.344 425.296 312.576 423.736 312.576 420.4C312.576 417.088 310.392 415.528 308.136 415.528C305.832 415.528 303.744 417.088 303.744 420.4ZM316.864 420.4C316.864 416.272 319.528 413.632 323.272 413.632C326.536 413.632 328.672 415.312 329.344 418.072H326.992C326.536 416.488 325.216 415.48 323.272 415.48C320.872 415.48 319.096 417.184 319.096 420.4C319.096 423.664 320.872 425.368 323.272 425.368C325.216 425.368 326.512 424.432 326.992 422.776H329.344C328.672 425.392 326.536 427.216 323.272 427.216C319.528 427.216 316.864 424.576 316.864 420.4ZM332.258 427V413.848H334.442V427H332.258ZM333.386 411.712C332.546 411.712 331.898 411.064 331.898 410.224C331.898 409.384 332.546 408.736 333.386 408.736C334.178 408.736 334.826 409.384 334.826 410.224C334.826 411.064 334.178 411.712 333.386 411.712ZM337.348 420.376C337.348 416.272 340.06 413.632 343.588 413.632C346.036 413.632 347.716 414.88 348.484 416.248V413.848H350.692V427H348.484V424.552C347.692 425.968 345.988 427.216 343.564 427.216C340.06 427.216 337.348 424.456 337.348 420.376ZM348.484 420.4C348.484 417.352 346.42 415.528 344.02 415.528C341.62 415.528 339.58 417.28 339.58 420.376C339.58 423.472 341.62 425.296 344.02 425.296C346.42 425.296 348.484 423.496 348.484 420.4ZM354.383 427V409.24H356.567V427H354.383ZM142.133 461V453.56C142.133 450.872 140.693 449.504 138.533 449.504C136.325 449.504 134.813 450.92 134.813 453.752V461H132.653V453.56C132.653 450.872 131.213 449.504 129.053 449.504C126.845 449.504 125.333 450.92 125.333 453.752V461H123.149V447.848H125.333V449.744C126.197 448.352 127.757 447.608 129.485 447.608C131.645 447.608 133.445 448.568 134.309 450.536C135.077 448.64 136.949 447.608 138.965 447.608C141.965 447.608 144.293 449.48 144.293 453.248V461H142.133ZM153.467 449.48C151.331 449.48 149.555 450.896 149.315 453.464H157.619C157.643 450.896 155.723 449.48 153.467 449.48ZM159.611 456.944C158.939 459.344 156.827 461.216 153.563 461.216C149.819 461.216 147.059 458.576 147.059 454.4C147.059 450.248 149.723 447.632 153.563 447.632C157.379 447.632 159.875 450.32 159.875 453.92C159.875 454.4 159.851 454.784 159.803 455.24H149.291C149.459 457.904 151.331 459.368 153.563 459.368C155.531 459.368 156.779 458.36 157.259 456.944H159.611ZM161.942 454.376C161.942 450.272 164.654 447.632 168.206 447.632C170.27 447.632 172.166 448.688 173.078 450.2V443.24H175.286V461H173.078V458.528C172.286 459.992 170.582 461.216 168.182 461.216C164.654 461.216 161.942 458.456 161.942 454.376ZM173.078 454.4C173.078 451.352 171.014 449.528 168.614 449.528C166.214 449.528 164.174 451.28 164.174 454.376C164.174 457.472 166.214 459.296 168.614 459.296C171.014 459.296 173.078 457.496 173.078 454.4ZM178.977 461V447.848H181.161V461H178.977ZM180.105 445.712C179.265 445.712 178.617 445.064 178.617 444.224C178.617 443.384 179.265 442.736 180.105 442.736C180.897 442.736 181.545 443.384 181.545 444.224C181.545 445.064 180.897 445.712 180.105 445.712ZM184.067 454.376C184.067 450.272 186.779 447.632 190.307 447.632C192.755 447.632 194.435 448.88 195.203 450.248V447.848H197.411V461H195.203V458.552C194.411 459.968 192.707 461.216 190.283 461.216C186.779 461.216 184.067 458.456 184.067 454.376ZM195.203 454.4C195.203 451.352 193.139 449.528 190.739 449.528C188.339 449.528 186.299 451.28 186.299 454.376C186.299 457.472 188.339 459.296 190.739 459.296C193.139 459.296 195.203 457.496 195.203 454.4ZM209.684 450.272C210.476 448.88 212.204 447.632 214.604 447.632C218.132 447.632 220.844 450.272 220.844 454.376C220.844 458.456 218.132 461.216 214.604 461.216C212.204 461.216 210.5 459.92 209.684 458.576V467.24H207.5V447.848H209.684V450.272ZM218.612 454.376C218.612 451.28 216.572 449.528 214.148 449.528C211.772 449.528 209.684 451.352 209.684 454.4C209.684 457.496 211.772 459.296 214.148 459.296C216.572 459.296 218.612 457.472 218.612 454.376ZM223.719 461V443.24H225.903V461H223.719ZM228.809 454.376C228.809 450.272 231.521 447.632 235.049 447.632C237.497 447.632 239.177 448.88 239.945 450.248V447.848H242.153V461H239.945V458.552C239.153 459.968 237.449 461.216 235.025 461.216C231.521 461.216 228.809 458.456 228.809 454.376ZM239.945 454.4C239.945 451.352 237.881 449.528 235.481 449.528C233.081 449.528 231.041 451.28 231.041 454.376C231.041 457.472 233.081 459.296 235.481 459.296C237.881 459.296 239.945 457.496 239.945 454.4ZM246.324 457.4V449.648H244.62V447.848H246.324V444.536H248.508V447.848H251.94V449.648H248.508V457.4C248.508 458.696 248.988 459.152 250.332 459.152H251.94V461H249.972C247.644 461 246.324 460.04 246.324 457.4ZM254.994 461V449.648H253.29V447.848H254.994V446.912C254.994 443.984 256.434 442.664 259.794 442.664V444.488C257.826 444.488 257.178 445.208 257.178 446.912V447.848H259.938V449.648H257.178V461H254.994ZM274.965 454.4C274.965 458.576 271.965 461.216 268.221 461.216C264.501 461.216 261.669 458.576 261.669 454.4C261.669 450.248 264.597 447.632 268.317 447.632C272.061 447.632 274.965 450.248 274.965 454.4ZM263.901 454.4C263.901 457.736 265.941 459.296 268.221 459.296C270.501 459.296 272.733 457.736 272.733 454.4C272.733 451.088 270.549 449.528 268.293 449.528C265.989 449.528 263.901 451.088 263.901 454.4ZM280.02 453.848V461H277.836V447.848H280.02V449.984C280.764 448.52 282.18 447.608 284.268 447.608V449.864H283.692C281.604 449.864 280.02 450.8 280.02 453.848ZM305.773 461V453.56C305.773 450.872 304.333 449.504 302.173 449.504C299.965 449.504 298.453 450.92 298.453 453.752V461H296.293V453.56C296.293 450.872 294.853 449.504 292.693 449.504C290.485 449.504 288.973 450.92 288.973 453.752V461H286.789V447.848H288.973V449.744C289.837 448.352 291.397 447.608 293.125 447.608C295.285 447.608 297.085 448.568 297.949 450.536C298.717 448.64 300.589 447.608 302.605 447.608C305.605 447.608 307.933 449.48 307.933 453.248V461H305.773ZM320.972 457.424C320.972 459.584 319.076 461.216 316.172 461.216C313.1 461.216 310.94 459.536 310.796 457.136H313.052C313.172 458.408 314.3 459.368 316.148 459.368C317.876 459.368 318.836 458.504 318.836 457.424C318.836 454.496 311.06 456.2 311.06 451.304C311.06 449.288 312.956 447.632 315.884 447.632C318.788 447.632 320.708 449.192 320.852 451.76H318.668C318.572 450.44 317.564 449.48 315.812 449.48C314.204 449.48 313.244 450.248 313.244 451.304C313.244 454.424 320.876 452.72 320.972 457.424ZM330.933 457.4V449.648H329.229V447.848H330.933V444.536H333.117V447.848H336.549V449.648H333.117V457.4C333.117 458.696 333.597 459.152 334.941 459.152H336.549V461H334.581C332.253 461 330.933 460.04 330.933 457.4ZM351.676 454.4C351.676 458.576 348.676 461.216 344.932 461.216C341.212 461.216 338.38 458.576 338.38 454.4C338.38 450.248 341.308 447.632 345.028 447.632C348.772 447.632 351.676 450.248 351.676 454.4ZM340.612 454.4C340.612 457.736 342.652 459.296 344.932 459.296C347.212 459.296 349.444 457.736 349.444 454.4C349.444 451.088 347.26 449.528 345.004 449.528C342.7 449.528 340.612 451.088 340.612 454.4ZM99.4297 495V487.56C99.4297 484.872 97.9897 483.504 95.8297 483.504C93.6217 483.504 92.1097 484.92 92.1097 487.752V495H89.9497V487.56C89.9497 484.872 88.5097 483.504 86.3497 483.504C84.1417 483.504 82.6297 484.92 82.6297 487.752V495H80.4457V481.848H82.6297V483.744C83.4937 482.352 85.0537 481.608 86.7817 481.608C88.9417 481.608 90.7417 482.568 91.6057 484.536C92.3737 482.64 94.2457 481.608 96.2617 481.608C99.2617 481.608 101.59 483.48 101.59 487.248V495H99.4297ZM104.356 488.376C104.356 484.272 107.068 481.632 110.596 481.632C113.044 481.632 114.724 482.88 115.492 484.248V481.848H117.7V495H115.492V492.552C114.7 493.968 112.996 495.216 110.572 495.216C107.068 495.216 104.356 492.456 104.356 488.376ZM115.492 488.4C115.492 485.352 113.428 483.528 111.028 483.528C108.628 483.528 106.588 485.28 106.588 488.376C106.588 491.472 108.628 493.296 111.028 493.296C113.428 493.296 115.492 491.496 115.492 488.4ZM131.015 495V487.56C131.015 484.872 129.551 483.504 127.343 483.504C125.111 483.504 123.575 484.896 123.575 487.728V495H121.391V481.848H123.575V483.72C124.439 482.352 126.023 481.608 127.799 481.608C130.847 481.608 133.175 483.48 133.175 487.248V495H131.015ZM135.927 488.376C135.927 484.272 138.639 481.632 142.167 481.632C144.615 481.632 146.295 482.88 147.063 484.248V481.848H149.271V495H147.063V492.552C146.271 493.968 144.567 495.216 142.143 495.216C138.639 495.216 135.927 492.456 135.927 488.376ZM147.063 488.4C147.063 485.352 144.999 483.528 142.599 483.528C140.199 483.528 138.159 485.28 138.159 488.376C138.159 491.472 140.199 493.296 142.599 493.296C144.999 493.296 147.063 491.496 147.063 488.4ZM152.145 488.376C152.145 484.272 154.857 481.632 158.385 481.632C160.785 481.632 162.513 482.832 163.281 484.248V481.848H165.489V495.288C165.489 498.912 163.065 501.48 159.201 501.48C155.745 501.48 153.273 499.728 152.841 496.92H155.001C155.481 498.504 157.041 499.584 159.201 499.584C161.529 499.584 163.281 498.096 163.281 495.288V492.528C162.489 493.944 160.785 495.216 158.385 495.216C154.857 495.216 152.145 492.456 152.145 488.376ZM163.281 488.4C163.281 485.352 161.217 483.528 158.817 483.528C156.417 483.528 154.377 485.28 154.377 488.376C154.377 491.472 156.417 493.296 158.817 493.296C161.217 493.296 163.281 491.496 163.281 488.4ZM174.772 483.48C172.636 483.48 170.86 484.896 170.62 487.464H178.924C178.948 484.896 177.028 483.48 174.772 483.48ZM180.916 490.944C180.244 493.344 178.132 495.216 174.868 495.216C171.124 495.216 168.364 492.576 168.364 488.4C168.364 484.248 171.028 481.632 174.868 481.632C178.684 481.632 181.18 484.32 181.18 487.92C181.18 488.4 181.156 488.784 181.108 489.24H170.596C170.764 491.904 172.636 493.368 174.868 493.368C176.836 493.368 178.084 492.36 178.564 490.944H180.916ZM189.645 488.376C189.645 484.272 192.357 481.632 195.885 481.632C198.333 481.632 200.013 482.88 200.781 484.248V481.848H202.989V495H200.781V492.552C199.989 493.968 198.285 495.216 195.861 495.216C192.357 495.216 189.645 492.456 189.645 488.376ZM200.781 488.4C200.781 485.352 198.717 483.528 196.317 483.528C193.917 483.528 191.877 485.28 191.877 488.376C191.877 491.472 193.917 493.296 196.317 493.296C198.717 493.296 200.781 491.496 200.781 488.4ZM216.304 495V487.56C216.304 484.872 214.84 483.504 212.632 483.504C210.4 483.504 208.864 484.896 208.864 487.728V495H206.68V481.848H208.864V483.72C209.728 482.352 211.312 481.608 213.088 481.608C216.136 481.608 218.464 483.48 218.464 487.248V495H216.304ZM221.216 488.376C221.216 484.272 223.928 481.632 227.48 481.632C229.544 481.632 231.44 482.688 232.352 484.2V477.24H234.56V495H232.352V492.528C231.56 493.992 229.856 495.216 227.456 495.216C223.928 495.216 221.216 492.456 221.216 488.376ZM232.352 488.4C232.352 485.352 230.288 483.528 227.888 483.528C225.488 483.528 223.448 485.28 223.448 488.376C223.448 491.472 225.488 493.296 227.888 493.296C230.288 493.296 232.352 491.496 232.352 488.4ZM243.833 488.376C243.833 484.272 246.545 481.632 250.073 481.632C252.521 481.632 254.201 482.88 254.969 484.248V481.848H257.177V495H254.969V492.552C254.177 493.968 252.473 495.216 250.049 495.216C246.545 495.216 243.833 492.456 243.833 488.376ZM254.969 488.4C254.969 485.352 252.905 483.528 250.505 483.528C248.105 483.528 246.065 485.28 246.065 488.376C246.065 491.472 248.105 493.296 250.505 493.296C252.905 493.296 254.969 491.496 254.969 488.4ZM270.492 495V487.56C270.492 484.872 269.028 483.504 266.82 483.504C264.588 483.504 263.052 484.896 263.052 487.728V495H260.868V481.848H263.052V483.72C263.916 482.352 265.5 481.608 267.276 481.608C270.324 481.608 272.652 483.48 272.652 487.248V495H270.492ZM275.403 488.376C275.403 484.272 278.115 481.632 281.643 481.632C284.091 481.632 285.771 482.88 286.539 484.248V481.848H288.747V495H286.539V492.552C285.747 493.968 284.043 495.216 281.619 495.216C278.115 495.216 275.403 492.456 275.403 488.376ZM286.539 488.4C286.539 485.352 284.475 483.528 282.075 483.528C279.675 483.528 277.635 485.28 277.635 488.376C277.635 491.472 279.675 493.296 282.075 493.296C284.475 493.296 286.539 491.496 286.539 488.4ZM292.438 495V477.24H294.622V495H292.438ZM303.336 492.504L307.416 481.848H309.672L301.752 501.192H299.496L302.088 494.856L296.784 481.848H299.208L303.336 492.504ZM319.908 481.848V483.624L313.5 493.2H319.956V495H311.004V493.2L317.388 483.624H311.052V481.848H319.908ZM328.381 483.48C326.245 483.48 324.469 484.896 324.229 487.464H332.533C332.557 484.896 330.637 483.48 328.381 483.48ZM334.525 490.944C333.853 493.344 331.741 495.216 328.477 495.216C324.733 495.216 321.973 492.576 321.973 488.4C321.973 484.248 324.637 481.632 328.477 481.632C332.293 481.632 334.789 484.32 334.789 487.92C334.789 488.4 334.765 488.784 334.717 489.24H324.205C324.373 491.904 326.245 493.368 328.477 493.368C330.445 493.368 331.693 492.36 332.173 490.944H334.525ZM349.063 492.504L353.143 481.848H355.399L347.479 501.192H345.223L347.815 494.856L342.511 481.848H344.935L349.063 492.504ZM370.074 488.4C370.074 492.576 367.074 495.216 363.33 495.216C359.61 495.216 356.778 492.576 356.778 488.4C356.778 484.248 359.706 481.632 363.426 481.632C367.17 481.632 370.074 484.248 370.074 488.4ZM359.01 488.4C359.01 491.736 361.05 493.296 363.33 493.296C365.61 493.296 367.842 491.736 367.842 488.4C367.842 485.088 365.658 483.528 363.402 483.528C361.098 483.528 359.01 485.088 359.01 488.4ZM384.61 481.848V495H382.426V493.056C381.586 494.424 379.978 495.192 378.226 495.192C375.202 495.192 372.826 493.32 372.826 489.552V481.848H374.986V489.264C374.986 491.928 376.45 493.296 378.658 493.296C380.914 493.296 382.426 491.904 382.426 489.072V481.848H384.61ZM390.481 487.848V495H388.297V481.848H390.481V483.984C391.225 482.52 392.641 481.608 394.729 481.608V483.864H394.153C392.065 483.864 390.481 484.8 390.481 487.848ZM89.7845 525.424C89.7845 527.584 87.8885 529.216 84.9845 529.216C81.9125 529.216 79.7525 527.536 79.6085 525.136H81.8645C81.9845 526.408 83.1125 527.368 84.9605 527.368C86.6885 527.368 87.6485 526.504 87.6485 525.424C87.6485 522.496 79.8725 524.2 79.8725 519.304C79.8725 517.288 81.7685 515.632 84.6965 515.632C87.6005 515.632 89.5205 517.192 89.6645 519.76H87.4805C87.3845 518.44 86.3765 517.48 84.6245 517.48C83.0165 517.48 82.0565 518.248 82.0565 519.304C82.0565 522.424 89.6885 520.72 89.7845 525.424ZM105.348 522.4C105.348 526.576 102.348 529.216 98.6035 529.216C94.8835 529.216 92.0515 526.576 92.0515 522.4C92.0515 518.248 94.9795 515.632 98.6995 515.632C102.444 515.632 105.348 518.248 105.348 522.4ZM94.2835 522.4C94.2835 525.736 96.3235 527.296 98.6035 527.296C100.884 527.296 103.116 525.736 103.116 522.4C103.116 519.088 100.932 517.528 98.6755 517.528C96.3715 517.528 94.2835 519.088 94.2835 522.4ZM107.403 522.4C107.403 518.272 110.067 515.632 113.811 515.632C117.075 515.632 119.211 517.312 119.883 520.072H117.531C117.075 518.488 115.755 517.48 113.811 517.48C111.411 517.48 109.635 519.184 109.635 522.4C109.635 525.664 111.411 527.368 113.811 527.368C115.755 527.368 117.051 526.432 117.531 524.776H119.883C119.211 527.392 117.075 529.216 113.811 529.216C110.067 529.216 107.403 526.576 107.403 522.4ZM122.797 529V515.848H124.981V529H122.797ZM123.925 513.712C123.085 513.712 122.437 513.064 122.437 512.224C122.437 511.384 123.085 510.736 123.925 510.736C124.717 510.736 125.365 511.384 125.365 512.224C125.365 513.064 124.717 513.712 123.925 513.712ZM127.887 522.376C127.887 518.272 130.599 515.632 134.127 515.632C136.575 515.632 138.255 516.88 139.023 518.248V515.848H141.231V529H139.023V526.552C138.231 527.968 136.527 529.216 134.103 529.216C130.599 529.216 127.887 526.456 127.887 522.376ZM139.023 522.4C139.023 519.352 136.959 517.528 134.559 517.528C132.159 517.528 130.119 519.28 130.119 522.376C130.119 525.472 132.159 527.296 134.559 527.296C136.959 527.296 139.023 525.496 139.023 522.4ZM144.922 529V511.24H147.106V529H144.922ZM156.411 522.376C156.411 518.272 159.123 515.632 162.651 515.632C165.099 515.632 166.779 516.88 167.547 518.248V515.848H169.755V529H167.547V526.552C166.755 527.968 165.051 529.216 162.627 529.216C159.123 529.216 156.411 526.456 156.411 522.376ZM167.547 522.4C167.547 519.352 165.483 517.528 163.083 517.528C160.683 517.528 158.643 519.28 158.643 522.376C158.643 525.472 160.683 527.296 163.083 527.296C165.483 527.296 167.547 525.496 167.547 522.4ZM172.63 522.376C172.63 518.272 175.342 515.632 178.894 515.632C180.958 515.632 182.854 516.688 183.766 518.2V511.24H185.974V529H183.766V526.528C182.974 527.992 181.27 529.216 178.87 529.216C175.342 529.216 172.63 526.456 172.63 522.376ZM183.766 522.4C183.766 519.352 181.702 517.528 179.302 517.528C176.902 517.528 174.862 519.28 174.862 522.376C174.862 525.472 176.902 527.296 179.302 527.296C181.702 527.296 183.766 525.496 183.766 522.4ZM195.247 522.4C195.247 518.272 197.911 515.632 201.655 515.632C204.919 515.632 207.055 517.312 207.727 520.072H205.375C204.919 518.488 203.599 517.48 201.655 517.48C199.255 517.48 197.479 519.184 197.479 522.4C197.479 525.664 199.255 527.368 201.655 527.368C203.599 527.368 204.895 526.432 205.375 524.776H207.727C207.055 527.392 204.919 529.216 201.655 529.216C197.911 529.216 195.247 526.576 195.247 522.4ZM209.825 522.376C209.825 518.272 212.537 515.632 216.065 515.632C218.513 515.632 220.193 516.88 220.961 518.248V515.848H223.169V529H220.961V526.552C220.169 527.968 218.465 529.216 216.041 529.216C212.537 529.216 209.825 526.456 209.825 522.376ZM220.961 522.4C220.961 519.352 218.897 517.528 216.497 517.528C214.097 517.528 212.057 519.28 212.057 522.376C212.057 525.472 214.097 527.296 216.497 527.296C218.897 527.296 220.961 525.496 220.961 522.4ZM245.844 529V521.56C245.844 518.872 244.404 517.504 242.244 517.504C240.036 517.504 238.524 518.92 238.524 521.752V529H236.364V521.56C236.364 518.872 234.924 517.504 232.764 517.504C230.556 517.504 229.044 518.92 229.044 521.752V529H226.86V515.848H229.044V517.744C229.908 516.352 231.468 515.608 233.196 515.608C235.356 515.608 237.156 516.568 238.02 518.536C238.788 516.64 240.66 515.608 242.676 515.608C245.676 515.608 248.004 517.48 248.004 521.248V529H245.844ZM253.77 518.272C254.562 516.88 256.29 515.632 258.69 515.632C262.218 515.632 264.93 518.272 264.93 522.376C264.93 526.456 262.218 529.216 258.69 529.216C256.29 529.216 254.586 527.92 253.77 526.576V535.24H251.586V515.848H253.77V518.272ZM262.698 522.376C262.698 519.28 260.658 517.528 258.234 517.528C255.858 517.528 253.77 519.352 253.77 522.4C253.77 525.496 255.858 527.296 258.234 527.296C260.658 527.296 262.698 525.472 262.698 522.376ZM266.989 522.376C266.989 518.272 269.701 515.632 273.229 515.632C275.677 515.632 277.357 516.88 278.125 518.248V515.848H280.333V529H278.125V526.552C277.333 527.968 275.629 529.216 273.205 529.216C269.701 529.216 266.989 526.456 266.989 522.376ZM278.125 522.4C278.125 519.352 276.061 517.528 273.661 517.528C271.261 517.528 269.221 519.28 269.221 522.376C269.221 525.472 271.261 527.296 273.661 527.296C276.061 527.296 278.125 525.496 278.125 522.4ZM284.024 529V515.848H286.208V529H284.024ZM285.152 513.712C284.312 513.712 283.664 513.064 283.664 512.224C283.664 511.384 284.312 510.736 285.152 510.736C285.944 510.736 286.592 511.384 286.592 512.224C286.592 513.064 285.944 513.712 285.152 513.712ZM289.114 522.376C289.114 518.272 291.826 515.632 295.354 515.632C297.754 515.632 299.482 516.832 300.25 518.248V515.848H302.458V529.288C302.458 532.912 300.034 535.48 296.17 535.48C292.714 535.48 290.242 533.728 289.81 530.92H291.97C292.45 532.504 294.01 533.584 296.17 533.584C298.498 533.584 300.25 532.096 300.25 529.288V526.528C299.458 527.944 297.754 529.216 295.354 529.216C291.826 529.216 289.114 526.456 289.114 522.376ZM300.25 522.4C300.25 519.352 298.186 517.528 295.786 517.528C293.386 517.528 291.346 519.28 291.346 522.376C291.346 525.472 293.386 527.296 295.786 527.296C298.186 527.296 300.25 525.496 300.25 522.4ZM315.773 529V521.56C315.773 518.872 314.309 517.504 312.101 517.504C309.869 517.504 308.333 518.896 308.333 521.728V529H306.149V515.848H308.333V517.72C309.197 516.352 310.781 515.608 312.557 515.608C315.605 515.608 317.933 517.48 317.933 521.248V529H315.773ZM330.956 525.424C330.956 527.584 329.06 529.216 326.156 529.216C323.084 529.216 320.924 527.536 320.78 525.136H323.036C323.156 526.408 324.284 527.368 326.132 527.368C327.86 527.368 328.82 526.504 328.82 525.424C328.82 522.496 321.044 524.2 321.044 519.304C321.044 517.288 322.94 515.632 325.868 515.632C328.772 515.632 330.692 517.192 330.836 519.76H328.652C328.556 518.44 327.548 517.48 325.796 517.48C324.188 517.48 323.228 518.248 323.228 519.304C323.228 522.424 330.86 520.72 330.956 525.424ZM340.846 529V517.648H339.142V515.848H340.846V514.912C340.846 511.984 342.286 510.664 345.646 510.664V512.488C343.678 512.488 343.03 513.208 343.03 514.912V515.848H345.79V517.648H343.03V529H340.846ZM350.52 521.848V529H348.336V515.848H350.52V517.984C351.264 516.52 352.68 515.608 354.768 515.608V517.864H354.192C352.104 517.864 350.52 518.8 350.52 521.848ZM369.769 522.4C369.769 526.576 366.769 529.216 363.025 529.216C359.305 529.216 356.473 526.576 356.473 522.4C356.473 518.248 359.401 515.632 363.121 515.632C366.865 515.632 369.769 518.248 369.769 522.4ZM358.705 522.4C358.705 525.736 360.745 527.296 363.025 527.296C365.305 527.296 367.537 525.736 367.537 522.4C367.537 519.088 365.353 517.528 363.097 517.528C360.793 517.528 358.705 519.088 358.705 522.4ZM391.625 529V521.56C391.625 518.872 390.185 517.504 388.025 517.504C385.817 517.504 384.305 518.92 384.305 521.752V529H382.145V521.56C382.145 518.872 380.705 517.504 378.545 517.504C376.337 517.504 374.825 518.92 374.825 521.752V529H372.641V515.848H374.825V517.744C375.689 516.352 377.249 515.608 378.977 515.608C381.137 515.608 382.937 516.568 383.801 518.536C384.569 516.64 386.441 515.608 388.457 515.608C391.457 515.608 393.785 517.48 393.785 521.248V529H391.625ZM188.914 556.4C188.914 560.576 185.914 563.216 182.17 563.216C178.45 563.216 175.618 560.576 175.618 556.4C175.618 552.248 178.546 549.632 182.266 549.632C186.01 549.632 188.914 552.248 188.914 556.4ZM177.85 556.4C177.85 559.736 179.89 561.296 182.17 561.296C184.45 561.296 186.682 559.736 186.682 556.4C186.682 553.088 184.498 551.528 182.242 551.528C179.938 551.528 177.85 553.088 177.85 556.4ZM201.41 563V555.56C201.41 552.872 199.946 551.504 197.738 551.504C195.506 551.504 193.97 552.896 193.97 555.728V563H191.786V549.848H193.97V551.72C194.834 550.352 196.418 549.608 198.194 549.608C201.242 549.608 203.57 551.48 203.57 555.248V563H201.41ZM212.729 551.48C210.593 551.48 208.817 552.896 208.577 555.464H216.881C216.905 552.896 214.985 551.48 212.729 551.48ZM218.873 558.944C218.201 561.344 216.089 563.216 212.825 563.216C209.081 563.216 206.321 560.576 206.321 556.4C206.321 552.248 208.985 549.632 212.825 549.632C216.641 549.632 219.137 552.32 219.137 555.92C219.137 556.4 219.113 556.784 219.065 557.24H208.553C208.721 559.904 210.593 561.368 212.825 561.368C214.793 561.368 216.041 560.36 216.521 558.944H218.873ZM230.602 552.272C231.394 550.88 233.122 549.632 235.522 549.632C239.05 549.632 241.762 552.272 241.762 556.376C241.762 560.456 239.05 563.216 235.522 563.216C233.122 563.216 231.418 561.92 230.602 560.576V569.24H228.418V549.848H230.602V552.272ZM239.53 556.376C239.53 553.28 237.49 551.528 235.066 551.528C232.69 551.528 230.602 553.352 230.602 556.4C230.602 559.496 232.69 561.296 235.066 561.296C237.49 561.296 239.53 559.472 239.53 556.376ZM244.637 563V545.24H246.821V563H244.637ZM249.727 556.376C249.727 552.272 252.439 549.632 255.967 549.632C258.415 549.632 260.095 550.88 260.863 552.248V549.848H263.071V563H260.863V560.552C260.071 561.968 258.367 563.216 255.943 563.216C252.439 563.216 249.727 560.456 249.727 556.376ZM260.863 556.4C260.863 553.352 258.799 551.528 256.399 551.528C253.999 551.528 251.959 553.28 251.959 556.376C251.959 559.472 253.999 561.296 256.399 561.296C258.799 561.296 260.863 559.496 260.863 556.4ZM265.946 556.4C265.946 552.272 268.61 549.632 272.354 549.632C275.618 549.632 277.754 551.312 278.426 554.072H276.074C275.618 552.488 274.298 551.48 272.354 551.48C269.954 551.48 268.178 553.184 268.178 556.4C268.178 559.664 269.954 561.368 272.354 561.368C274.298 561.368 275.594 560.432 276.074 558.776H278.426C277.754 561.392 275.618 563.216 272.354 563.216C268.61 563.216 265.946 560.576 265.946 556.4ZM286.932 551.48C284.796 551.48 283.02 552.896 282.78 555.464H291.084C291.108 552.896 289.188 551.48 286.932 551.48ZM293.076 558.944C292.404 561.344 290.292 563.216 287.028 563.216C283.284 563.216 280.524 560.576 280.524 556.4C280.524 552.248 283.188 549.632 287.028 549.632C290.844 549.632 293.34 552.32 293.34 555.92C293.34 556.4 293.316 556.784 293.268 557.24H282.756C282.924 559.904 284.796 561.368 287.028 561.368C288.996 561.368 290.244 560.36 290.724 558.944H293.076ZM298.359 561.656C298.359 562.496 297.711 563.144 296.919 563.144C296.079 563.144 295.431 562.496 295.431 561.656C295.431 560.816 296.079 560.168 296.919 560.168C297.711 560.168 298.359 560.816 298.359 561.656Z" fill="#595959"/>
<g filter="url(#filter2_d_1474_3224)">
<g clip-path="url(#clip1_1474_3224)">
<rect x="4" y="18" width="455" height="305" rx="8.17476" fill="white"/>
<g opacity="0.2" filter="url(#filter3_f_1474_3224)">
<circle cx="366.274" cy="2.3467" r="92.5791" fill="#FF1494"/>
</g>
<g filter="url(#filter4_f_1474_3224)">
<circle cx="111.222" cy="263.283" r="92.5791" fill="#0000FF" fill-opacity="0.15"/>
</g>
<g clip-path="url(#clip2_1474_3224)">
<path d="M345.283 281.962L349.91 288.579H348.011L344.236 283.18V283.179L343.682 282.387L339.271 276.078H341.17L344.729 281.169L345.283 281.962Z" fill="black"/>
<path d="M352.654 272.035H336.538C335.311 272.035 334.316 273.03 334.316 274.257V290.373C334.316 291.599 335.311 292.594 336.538 292.594H352.654C353.881 292.594 354.875 291.599 354.875 290.373V274.257C354.875 273.03 353.881 272.035 352.654 272.035ZM347.43 289.469L343.609 283.909L338.826 289.469H337.59L343.06 283.111L337.59 275.149H341.762L345.38 280.414L349.909 275.149H351.145L345.929 281.213H345.929L351.602 289.469H347.43Z" fill="black"/>
</g>
<g clip-path="url(#clip3_1474_3224)">
<path d="M209.165 273.436C207.55 275.114 207.88 276.896 207.88 282.312C207.88 286.809 207.096 291.318 211.202 292.379C212.485 292.709 223.847 292.709 225.127 292.377C226.837 291.936 228.228 290.549 228.419 288.131C228.445 287.793 228.445 276.836 228.418 276.492C228.216 273.916 226.63 272.432 224.541 272.131C224.062 272.062 223.966 272.041 221.509 272.037C212.795 272.041 210.884 271.653 209.165 273.436Z" fill="url(#paint0_linear_1474_3224)"/>
<path d="M218.156 274.728C215.046 274.728 212.092 274.451 210.964 277.347C210.498 278.543 210.566 280.096 210.566 282.319C210.566 284.271 210.503 286.105 210.964 287.291C212.09 290.188 215.067 289.911 218.155 289.911C221.133 289.911 224.204 290.221 225.346 287.291C225.813 286.083 225.744 284.553 225.744 282.319C225.744 279.354 225.908 277.439 224.47 276.002C223.013 274.546 221.044 274.728 218.153 274.728H218.156ZM217.476 276.096C223.964 276.086 224.79 275.364 224.334 285.384C224.172 288.928 221.474 288.539 218.157 288.539C212.11 288.539 211.936 288.366 211.936 282.316C211.936 276.195 212.415 276.099 217.476 276.094V276.096ZM222.208 277.356C221.705 277.356 221.298 277.764 221.298 278.267C221.298 278.77 221.705 279.177 222.208 279.177C222.711 279.177 223.119 278.77 223.119 278.267C223.119 277.764 222.711 277.356 222.208 277.356ZM218.156 278.421C216.004 278.421 214.259 280.167 214.259 282.319C214.259 284.472 216.004 286.217 218.156 286.217C220.309 286.217 222.053 284.472 222.053 282.319C222.053 280.167 220.309 278.421 218.156 278.421ZM218.156 279.789C221.502 279.789 221.506 284.85 218.156 284.85C214.812 284.85 214.807 279.789 218.156 279.789Z" fill="white"/>
</g>
<g clip-path="url(#clip4_1474_3224)">
<path d="M287.31 272.037H272.358C270.81 272.037 269.555 273.292 269.555 274.841V289.793C269.555 291.341 270.81 292.596 272.358 292.596H287.31C288.858 292.596 290.114 291.341 290.114 289.793V274.841C290.114 273.292 288.858 272.037 287.31 272.037Z" fill="#0077B5"/>
<path d="M276.959 277.645C276.959 277.991 276.857 278.33 276.664 278.618C276.472 278.906 276.198 279.131 275.878 279.264C275.558 279.396 275.205 279.431 274.865 279.363C274.526 279.296 274.213 279.129 273.968 278.884C273.723 278.639 273.556 278.326 273.489 277.987C273.421 277.647 273.456 277.294 273.588 276.974C273.721 276.654 273.946 276.38 274.234 276.188C274.522 275.995 274.861 275.893 275.207 275.893C275.672 275.893 276.118 276.077 276.446 276.406C276.775 276.734 276.959 277.18 276.959 277.645Z" fill="white"/>
<path d="M276.564 280.563V288.305C276.565 288.362 276.554 288.418 276.532 288.471C276.51 288.524 276.478 288.572 276.438 288.613C276.398 288.653 276.35 288.685 276.297 288.707C276.245 288.729 276.188 288.74 276.131 288.74H274.284C274.227 288.74 274.17 288.729 274.118 288.708C274.065 288.686 274.017 288.654 273.977 288.613C273.936 288.573 273.904 288.525 273.882 288.472C273.861 288.419 273.849 288.363 273.85 288.306V280.563C273.85 280.448 273.895 280.338 273.977 280.256C274.058 280.175 274.169 280.129 274.284 280.129H276.131C276.246 280.129 276.356 280.175 276.437 280.257C276.519 280.338 276.564 280.448 276.564 280.563Z" fill="white"/>
<path d="M286.217 284.595V288.342C286.218 288.395 286.207 288.447 286.187 288.495C286.167 288.544 286.138 288.588 286.101 288.625C286.064 288.662 286.02 288.692 285.971 288.712C285.922 288.732 285.87 288.742 285.818 288.742H283.832C283.78 288.742 283.728 288.732 283.679 288.712C283.631 288.692 283.586 288.662 283.549 288.625C283.512 288.588 283.483 288.544 283.463 288.495C283.443 288.447 283.432 288.395 283.433 288.342V284.711C283.433 284.169 283.591 282.337 282.016 282.337C280.795 282.337 280.546 283.59 280.497 284.153V288.342C280.497 288.447 280.456 288.548 280.382 288.623C280.309 288.698 280.208 288.74 280.103 288.742H278.185C278.133 288.742 278.081 288.731 278.033 288.711C277.984 288.691 277.94 288.662 277.903 288.625C277.866 288.588 277.837 288.544 277.817 288.495C277.797 288.447 277.787 288.395 277.787 288.342V280.531C277.787 280.479 277.797 280.427 277.817 280.378C277.837 280.33 277.866 280.286 277.903 280.249C277.94 280.212 277.984 280.182 278.033 280.162C278.081 280.142 278.133 280.132 278.185 280.132H280.103C280.209 280.132 280.311 280.174 280.386 280.249C280.461 280.324 280.503 280.425 280.503 280.531V281.206C280.956 280.526 281.628 280.002 283.061 280.002C286.236 280.002 286.217 282.967 286.217 284.595Z" fill="white"/>
</g>
<path d="M155.264 272.48C153.68 271.564 151.655 272.108 150.741 273.694L142.534 287.936C141.62 289.523 142.162 291.552 143.746 292.468C145.329 293.384 147.354 292.84 148.269 291.254L156.476 277.011C157.39 275.425 156.847 273.396 155.264 272.48Z" fill="#FFC107"/>
<path d="M155.264 272.48C154.524 272.052 153.688 271.943 152.914 272.109C153.243 272.18 153.566 272.302 153.873 272.48C155.457 273.396 155.999 275.425 155.085 277.011L146.878 291.253C146.391 292.099 145.588 292.648 144.705 292.838C146.073 293.133 147.532 292.532 148.269 291.253L156.476 277.011C157.39 275.425 156.847 273.396 155.264 272.48Z" fill="#FFB300"/>
<path d="M145.397 292.912C147.224 292.912 148.705 291.429 148.705 289.599C148.705 287.769 147.224 286.285 145.397 286.285C143.571 286.285 142.09 287.769 142.09 289.599C142.09 291.429 143.571 292.912 145.397 292.912Z" fill="#4CAF50"/>
<path d="M144.704 292.838C144.703 292.839 144.703 292.839 144.703 292.839C144.927 292.887 145.158 292.913 145.396 292.913C147.222 292.913 148.703 291.429 148.703 289.599C148.703 289.193 148.63 288.803 148.496 288.443L146.877 291.254C146.389 292.099 145.587 292.648 144.704 292.838Z" fill="#43A047"/>
<path d="M164.683 287.936L156.476 273.694C155.561 272.108 153.536 271.564 151.953 272.48C150.369 273.396 149.827 275.425 150.741 277.011L158.948 291.254C159.862 292.84 161.887 293.384 163.471 292.468C165.054 291.552 165.597 289.523 164.683 287.936Z" fill="#2196F3"/>
<path d="M164.683 287.936L156.476 273.694C155.739 272.415 154.28 271.814 152.912 272.109C153.795 272.299 154.598 272.848 155.085 273.694L163.292 287.936C164.207 289.522 163.664 291.551 162.08 292.467C161.773 292.645 161.45 292.767 161.121 292.838C161.895 293.004 162.731 292.895 163.471 292.467C165.054 291.551 165.597 289.522 164.683 287.936Z" fill="#1E88E5"/>
<g clip-path="url(#clip5_1474_3224)">
<path d="M104.412 261.391V253.521L102.74 254.526V253.508L104.412 252.509H105.331V261.391H104.412ZM107.67 261.391V252.509H108.577V256.703L112.629 252.509H113.788L109.65 256.796L114.127 261.391H112.943L108.577 256.95V261.391H107.67Z" fill="#6B6B6B"/>
<path d="M102.617 214.1L102.623 213.274L106.638 209.647C106.983 209.335 107.212 209.039 107.323 208.759C107.438 208.475 107.495 208.179 107.495 207.871C107.495 207.505 107.409 207.174 107.236 206.878C107.064 206.582 106.831 206.348 106.539 206.175C106.247 205.998 105.921 205.91 105.559 205.91C105.18 205.91 104.843 206 104.547 206.181C104.251 206.362 104.017 206.6 103.844 206.896C103.676 207.192 103.593 207.515 103.597 207.865H102.672C102.672 207.326 102.8 206.843 103.055 206.415C103.31 205.988 103.655 205.653 104.091 205.41C104.527 205.163 105.02 205.04 105.571 205.04C106.11 205.04 106.593 205.167 107.02 205.422C107.452 205.673 107.791 206.014 108.038 206.446C108.289 206.874 108.414 207.351 108.414 207.877C108.414 208.247 108.369 208.574 108.279 208.858C108.192 209.137 108.055 209.398 107.865 209.641C107.68 209.88 107.444 210.126 107.156 210.381L103.591 213.601L103.449 213.231H108.414V214.1H102.617ZM109.898 214.106V205.225H110.805V209.419L114.857 205.225H116.017L111.878 209.512L116.356 214.106H115.172L110.805 209.666V214.106H109.898Z" fill="#6B6B6B"/>
<path d="M105.25 167.002C104.81 167.002 104.405 166.924 104.035 166.768C103.665 166.611 103.347 166.389 103.079 166.102C102.812 165.81 102.617 165.462 102.493 165.059L103.357 164.8C103.505 165.24 103.748 165.573 104.085 165.799C104.426 166.026 104.81 166.135 105.238 166.126C105.633 166.118 105.972 166.03 106.256 165.861C106.544 165.693 106.763 165.458 106.916 165.158C107.068 164.858 107.144 164.51 107.144 164.116C107.144 163.511 106.967 163.026 106.613 162.66C106.264 162.29 105.801 162.105 105.226 162.105C105.065 162.105 104.897 162.128 104.72 162.173C104.543 162.214 104.379 162.274 104.227 162.352L103.77 161.63L107.224 158.441L107.372 158.811H102.845V157.942H107.976V158.824L104.967 161.698L104.954 161.34C105.571 161.262 106.114 161.332 106.583 161.55C107.051 161.768 107.417 162.101 107.68 162.549C107.948 162.993 108.081 163.515 108.081 164.116C108.081 164.683 107.958 165.185 107.711 165.621C107.469 166.052 107.134 166.392 106.706 166.638C106.278 166.881 105.793 167.002 105.25 167.002ZM109.682 166.823V157.942H110.588V162.136L114.64 157.942H115.8L111.661 162.228L116.139 166.823H114.955L110.588 162.383V166.823H109.682Z" fill="#6B6B6B"/>
<path d="M106.774 119.537V117.816H102.617V116.953L105.59 110.656H106.607L103.634 116.953H106.774V114.362H107.687V116.953H108.655V117.816H107.687V119.537H106.774ZM110.139 119.537V110.656H111.046V114.85L115.098 110.656H116.258L112.119 114.942L116.597 119.537H115.413L111.046 115.096V119.537H110.139Z" fill="#6B6B6B"/>
<path d="M105.485 72.437C105.024 72.437 104.599 72.3424 104.208 72.1533C103.817 71.9641 103.484 71.703 103.209 71.37C102.933 71.0369 102.736 70.6545 102.617 70.2228L103.486 69.9884C103.565 70.3091 103.706 70.5867 103.912 70.8211C104.118 71.0513 104.358 71.2302 104.634 71.3576C104.913 71.4851 105.205 71.5488 105.509 71.5488C105.904 71.5488 106.258 71.4543 106.57 71.2651C106.887 71.0719 107.138 70.8169 107.323 70.5003C107.508 70.1837 107.6 69.8363 107.6 69.458C107.6 69.0674 107.504 68.7158 107.31 68.4033C107.117 68.0867 106.862 67.8359 106.546 67.6509C106.229 67.4658 105.884 67.3733 105.509 67.3733C105.09 67.3733 104.728 67.4658 104.424 67.6509C104.12 67.8318 103.877 68.06 103.696 68.3355L102.87 67.9901L103.141 63.3705H107.884V64.2402H103.542L103.992 63.8146L103.752 67.7557L103.523 67.4535C103.778 67.1616 104.087 66.9334 104.449 66.7689C104.81 66.6044 105.191 66.5222 105.59 66.5222C106.136 66.5222 106.63 66.6538 107.07 66.9169C107.51 67.176 107.859 67.5275 108.118 67.9716C108.377 68.4157 108.507 68.9111 108.507 69.458C108.507 70.0008 108.369 70.4983 108.094 70.9506C107.818 71.3988 107.452 71.7585 106.996 72.0299C106.539 72.3013 106.036 72.437 105.485 72.437ZM109.983 72.252V63.3705H110.889V67.5645L114.942 63.3705H116.101L111.963 67.657L116.44 72.252H115.256L110.889 67.8112V72.252H109.983Z" fill="#6B6B6B"/>
</g>
<g clip-path="url(#clip6_1474_3224)">
<path d="M134.895 117.329H360.014" stroke="#DFDFDF" stroke-width="0.513972" stroke-dasharray="7.37"/>
<path d="M134.895 70.0442H360.014" stroke="#DFDFDF" stroke-width="0.513972" stroke-dasharray="7.37"/>
<path d="M134.895 164.616H360.014" stroke="#DFDFDF" stroke-width="0.513972" stroke-dasharray="7.37"/>
<path d="M134.895 211.9H360.014" stroke="#DFDFDF" stroke-width="0.513972" stroke-dasharray="7.37"/>
<path d="M134.895 260.729H232.429H349.735" stroke="#DFDFDF" stroke-width="0.513972" stroke-dasharray="7.37"/>
</g>
<path d="M161.62 82.8945C166.162 82.8945 169.844 86.5763 169.844 91.1181V253.533C169.844 258.075 166.162 261.757 161.62 261.757H147.229C142.687 261.757 139.005 258.075 139.005 253.533L139.005 91.1181C139.005 86.5763 142.687 82.8945 147.229 82.8945L161.62 82.8945Z" fill="#FF72BF"/>
<path d="M225.353 147.654C229.894 147.654 233.576 151.336 233.576 155.878V253.533C233.576 258.074 229.894 261.756 225.353 261.756H210.961C206.42 261.756 202.738 258.074 202.738 253.533L202.738 155.878C202.738 151.336 206.42 147.654 210.961 147.654L225.353 147.654Z" fill="#E5E5FF"/>
<path d="M289.087 110.649C293.629 110.649 297.311 114.331 297.311 118.873V253.534C297.311 258.075 293.629 261.757 289.087 261.757H274.696C270.154 261.757 266.472 258.075 266.472 253.534V118.873C266.472 114.331 270.154 110.649 274.696 110.649L289.087 110.649Z" fill="#DDB2FF"/>
<path d="M351.788 176.436C356.33 176.436 360.012 180.117 360.012 184.659L360.012 253.531C360.012 258.073 356.33 261.755 351.788 261.755H337.397C332.855 261.755 329.173 258.073 329.173 253.531V184.659C329.173 180.117 332.855 176.436 337.397 176.436H351.788Z" fill="#FFD0EA"/>
<path fill-rule="evenodd" clip-rule="evenodd" d="M258.694 75.3027C254.473 75.3027 251.051 78.7249 251.051 82.9464V90.5901C251.051 94.8116 254.473 98.2338 258.694 98.2338H278.563L280.559 102.252C280.84 102.818 281.647 102.818 281.928 102.252L283.924 98.2338H303.028C307.249 98.2338 310.672 94.8116 310.672 90.5901V82.9464C310.672 78.7249 307.249 75.3027 303.028 75.3027H258.694Z" fill="#A533FF"/>
<path d="M265.675 92.5061V91.1646H266.873V92.5061H265.675ZM265.675 83.3164V81.9692H266.873V83.3164H265.675ZM266.334 91.5372C265.761 91.5372 265.249 91.434 264.798 91.2276C264.347 91.0213 263.976 90.7289 263.685 90.3505C263.399 89.9684 263.211 89.5174 263.124 88.9976L264.31 88.8084C264.425 89.2976 264.67 89.6874 265.044 89.9779C265.419 90.2645 265.868 90.4079 266.391 90.4079C266.911 90.4079 267.333 90.2837 267.658 90.0352C267.987 89.7868 268.151 89.4696 268.151 89.0836C268.151 88.8084 268.067 88.5848 267.899 88.4129C267.735 88.2409 267.465 88.0956 267.091 87.9772L265.153 87.381C264.006 87.0255 263.433 86.3376 263.433 85.3172C263.433 84.8356 263.548 84.4171 263.777 84.0617C264.01 83.7063 264.337 83.4311 264.757 83.2362C265.178 83.0413 265.669 82.9438 266.231 82.9438C266.77 82.9514 267.247 83.0508 267.664 83.2419C268.084 83.433 268.432 83.7082 268.707 84.0674C268.986 84.4267 269.179 84.8585 269.286 85.363L268.065 85.5809C268.012 85.2866 267.899 85.0267 267.727 84.8012C267.559 84.5757 267.345 84.3999 267.085 84.2738C266.829 84.1477 266.54 84.0827 266.219 84.0789C265.917 84.0712 265.646 84.119 265.405 84.2222C265.168 84.3216 264.979 84.463 264.838 84.6464C264.7 84.8261 264.631 85.0305 264.631 85.2598C264.631 85.5121 264.729 85.7261 264.924 85.9019C265.119 86.0777 265.426 86.2287 265.847 86.3548L267.366 86.7962C268.061 87.0026 268.564 87.2797 268.874 87.6275C269.183 87.9753 269.338 88.4377 269.338 89.0148C269.338 89.5193 269.212 89.9607 268.96 90.3391C268.711 90.7136 268.361 91.0079 267.91 91.2219C267.459 91.4321 266.934 91.5372 266.334 91.5372ZM274.059 91.3652V89.9263H270.332V88.7912L273.015 83.1101H274.385L271.702 88.7912H274.059V86.5554H275.274V88.7912H276.094V89.9263H275.274V91.3652H274.059ZM277.241 91.3595L277.247 90.2932L280.841 87.0714C281.131 86.8153 281.328 86.5707 281.431 86.3376C281.538 86.1045 281.592 85.8713 281.592 85.6382C281.592 85.3439 281.527 85.0802 281.397 84.8471C281.267 84.6101 281.087 84.4229 280.858 84.2853C280.629 84.1477 280.365 84.0789 280.067 84.0789C279.761 84.0789 279.488 84.1515 279.247 84.2967C279.01 84.4381 278.825 84.6273 278.691 84.8643C278.557 85.1012 278.492 85.3573 278.496 85.6325H277.269C277.269 85.0974 277.39 84.6292 277.631 84.2279C277.875 83.8228 278.21 83.5075 278.634 83.282C279.058 83.0527 279.543 82.9381 280.09 82.9381C280.61 82.9381 281.076 83.0565 281.489 83.2935C281.902 83.5266 282.226 83.8477 282.463 84.2566C282.704 84.6655 282.824 85.1318 282.824 85.6554C282.824 86.0338 282.775 86.3548 282.675 86.6185C282.576 86.8822 282.427 87.1268 282.228 87.3523C282.03 87.5778 281.781 87.8224 281.483 88.0861L278.708 90.5626L278.577 90.2187H282.824V91.3595H277.241ZM287.037 91.5372C286.502 91.5372 286.02 91.4111 285.592 91.1589C285.164 90.9028 284.824 90.5531 284.572 90.1098C284.324 89.6664 284.199 89.1619 284.199 88.5963V85.965C284.199 85.3649 284.324 84.8375 284.572 84.3827C284.824 83.9279 285.172 83.5744 285.615 83.3222C286.063 83.0699 286.577 82.9438 287.157 82.9438C287.593 82.9438 288.002 83.026 288.384 83.1903C288.766 83.3547 289.097 83.5992 289.376 83.9241L288.499 84.7439C288.342 84.5413 288.145 84.3808 287.908 84.2623C287.675 84.14 287.425 84.0789 287.157 84.0789C286.814 84.0789 286.512 84.1611 286.252 84.3254C285.992 84.4859 285.787 84.698 285.638 84.9617C285.493 85.2254 285.42 85.5083 285.42 85.8102V87.3236L285.185 87.0599C285.422 86.7504 285.717 86.5058 286.068 86.3261C286.42 86.1465 286.796 86.0567 287.198 86.0567C287.71 86.0567 288.166 86.1771 288.568 86.4179C288.973 86.6548 289.29 86.9778 289.519 87.3867C289.752 87.7956 289.869 88.2562 289.869 88.7683C289.869 89.2842 289.739 89.7524 289.479 90.1728C289.223 90.5894 288.879 90.9219 288.447 91.1703C288.019 91.4149 287.549 91.5372 287.037 91.5372ZM287.037 90.3849C287.335 90.3849 287.607 90.3123 287.851 90.1671C288.096 90.0219 288.291 89.8269 288.436 89.5823C288.581 89.3377 288.654 89.0664 288.654 88.7683C288.654 88.4702 288.581 88.1988 288.436 87.9542C288.294 87.7096 288.101 87.5147 287.857 87.3695C287.612 87.2243 287.341 87.1517 287.043 87.1517C286.745 87.1517 286.471 87.2243 286.223 87.3695C285.978 87.5147 285.784 87.7096 285.638 87.9542C285.493 88.1988 285.42 88.4702 285.42 88.7683C285.42 89.0626 285.493 89.332 285.638 89.5766C285.784 89.8212 285.978 90.018 286.223 90.1671C286.468 90.3123 286.739 90.3849 287.037 90.3849ZM294.198 91.5372C293.637 91.5372 293.14 91.4149 292.708 91.1703C292.276 90.9219 291.936 90.5818 291.687 90.1499C291.443 89.718 291.321 89.2212 291.321 88.6594V85.8159C291.321 85.2541 291.443 84.7573 291.687 84.3254C291.936 83.8935 292.276 83.5553 292.708 83.3107C293.14 83.0623 293.637 82.9381 294.198 82.9381C294.76 82.9381 295.257 83.0623 295.689 83.3107C296.121 83.5553 296.459 83.8935 296.704 84.3254C296.952 84.7573 297.076 85.2541 297.076 85.8159V88.6594C297.076 89.2212 296.952 89.718 296.704 90.1499C296.459 90.5818 296.121 90.9219 295.689 91.1703C295.257 91.4149 294.76 91.5372 294.198 91.5372ZM294.198 90.3907C294.504 90.3907 294.781 90.318 295.03 90.1728C295.282 90.0238 295.483 89.825 295.632 89.5766C295.781 89.3244 295.855 89.0435 295.855 88.7339V85.7299C295.855 85.4242 295.781 85.1471 295.632 84.8987C295.483 84.6464 295.282 84.4477 295.03 84.3025C294.781 84.1534 294.504 84.0789 294.198 84.0789C293.893 84.0789 293.614 84.1534 293.361 84.3025C293.113 84.4477 292.914 84.6464 292.765 84.8987C292.616 85.1471 292.542 85.4242 292.542 85.7299V88.7339C292.542 89.0435 292.616 89.3244 292.765 89.5766C292.914 89.825 293.113 90.0238 293.361 90.1728C293.614 90.318 293.893 90.3907 294.198 90.3907Z" fill="white"/>
<path fill-rule="evenodd" clip-rule="evenodd" d="M318.316 142.516C314.094 142.516 310.672 145.938 310.672 150.159V157.803C310.672 162.024 314.094 165.447 318.316 165.447H338.184L340.18 169.465C340.461 170.03 341.268 170.03 341.549 169.465L343.545 165.447H362.649C366.87 165.447 370.293 162.024 370.293 157.803V150.159C370.293 145.938 366.87 142.516 362.649 142.516H318.316Z" fill="#A533FF"/>
<path d="M325.296 159.719V158.377H326.494V159.719H325.296ZM325.296 150.529V149.182H326.494V150.529H325.296ZM325.955 158.75C325.382 158.75 324.87 158.647 324.419 158.441C323.968 158.234 323.597 157.942 323.306 157.563C323.02 157.181 322.833 156.73 322.745 156.21L323.931 156.021C324.046 156.511 324.291 156.9 324.665 157.191C325.04 157.477 325.489 157.621 326.012 157.621C326.532 157.621 326.954 157.497 327.279 157.248C327.608 157 327.772 156.682 327.772 156.296C327.772 156.021 327.688 155.798 327.52 155.626C327.356 155.454 327.086 155.309 326.712 155.19L324.774 154.594C323.628 154.238 323.054 153.55 323.054 152.53C323.054 152.049 323.169 151.63 323.398 151.275C323.631 150.919 323.958 150.644 324.379 150.449C324.799 150.254 325.29 150.157 325.852 150.157C326.391 150.164 326.868 150.264 327.285 150.455C327.705 150.646 328.053 150.921 328.328 151.28C328.607 151.64 328.8 152.071 328.907 152.576L327.686 152.794C327.633 152.499 327.52 152.24 327.348 152.014C327.18 151.789 326.966 151.613 326.706 151.487C326.45 151.361 326.161 151.296 325.84 151.292C325.538 151.284 325.267 151.332 325.026 151.435C324.789 151.534 324.6 151.676 324.459 151.859C324.321 152.039 324.252 152.243 324.252 152.473C324.252 152.725 324.35 152.939 324.545 153.115C324.74 153.291 325.047 153.442 325.468 153.568L326.987 154.009C327.682 154.215 328.185 154.493 328.495 154.84C328.804 155.188 328.959 155.651 328.959 156.228C328.959 156.732 328.833 157.174 328.581 157.552C328.332 157.927 327.982 158.221 327.532 158.435C327.081 158.645 326.555 158.75 325.955 158.75ZM333.68 158.578V157.139H329.953V156.004L332.636 150.323H334.006L331.324 156.004H333.68V153.768H334.895V156.004H335.715V157.139H334.895V158.578H333.68ZM336.862 158.572L336.868 157.506L340.462 154.284C340.753 154.028 340.949 153.784 341.053 153.55C341.16 153.317 341.213 153.084 341.213 152.851C341.213 152.557 341.148 152.293 341.018 152.06C340.888 151.823 340.709 151.636 340.479 151.498C340.25 151.361 339.986 151.292 339.688 151.292C339.382 151.292 339.109 151.364 338.868 151.51C338.631 151.651 338.446 151.84 338.312 152.077C338.178 152.314 338.114 152.57 338.117 152.845H336.891C336.891 152.31 337.011 151.842 337.252 151.441C337.496 151.036 337.831 150.72 338.255 150.495C338.679 150.266 339.165 150.151 339.711 150.151C340.231 150.151 340.697 150.269 341.11 150.506C341.523 150.74 341.847 151.061 342.084 151.469C342.325 151.878 342.446 152.345 342.446 152.868C342.446 153.247 342.396 153.568 342.297 153.831C342.197 154.095 342.048 154.34 341.849 154.565C341.651 154.791 341.402 155.035 341.104 155.299L338.329 157.776L338.198 157.432H342.446V158.572H336.862ZM346.658 158.75C346.123 158.75 345.642 158.624 345.214 158.372C344.785 158.116 344.445 157.766 344.193 157.323C343.945 156.879 343.82 156.375 343.82 155.809V153.178C343.82 152.578 343.945 152.05 344.193 151.596C344.445 151.141 344.793 150.787 345.236 150.535C345.684 150.283 346.198 150.157 346.779 150.157C347.214 150.157 347.623 150.239 348.005 150.403C348.388 150.568 348.718 150.812 348.997 151.137L348.12 151.957C347.963 151.754 347.767 151.594 347.53 151.475C347.296 151.353 347.046 151.292 346.779 151.292C346.435 151.292 346.133 151.374 345.873 151.538C345.613 151.699 345.408 151.911 345.259 152.175C345.114 152.438 345.042 152.721 345.042 153.023V154.537L344.806 154.273C345.043 153.963 345.338 153.719 345.689 153.539C346.041 153.359 346.417 153.27 346.819 153.27C347.331 153.27 347.788 153.39 348.189 153.631C348.594 153.868 348.911 154.191 349.14 154.6C349.374 155.009 349.49 155.469 349.49 155.981C349.49 156.497 349.36 156.965 349.1 157.386C348.844 157.802 348.5 158.135 348.068 158.383C347.64 158.628 347.17 158.75 346.658 158.75ZM346.658 157.598C346.956 157.598 347.228 157.525 347.472 157.38C347.717 157.235 347.912 157.04 348.057 156.795C348.202 156.551 348.275 156.279 348.275 155.981C348.275 155.683 348.202 155.412 348.057 155.167C347.916 154.923 347.723 154.728 347.478 154.582C347.233 154.437 346.962 154.365 346.664 154.365C346.366 154.365 346.093 154.437 345.844 154.582C345.6 154.728 345.405 154.923 345.259 155.167C345.114 155.412 345.042 155.683 345.042 155.981C345.042 156.275 345.114 156.545 345.259 156.79C345.405 157.034 345.6 157.231 345.844 157.38C346.089 157.525 346.36 157.598 346.658 157.598ZM353.819 158.75C353.258 158.75 352.761 158.628 352.329 158.383C351.897 158.135 351.557 157.795 351.309 157.363C351.064 156.931 350.942 156.434 350.942 155.872V153.029C350.942 152.467 351.064 151.97 351.309 151.538C351.557 151.106 351.897 150.768 352.329 150.524C352.761 150.275 353.258 150.151 353.819 150.151C354.381 150.151 354.878 150.275 355.31 150.524C355.742 150.768 356.08 151.106 356.325 151.538C356.573 151.97 356.697 152.467 356.697 153.029V155.872C356.697 156.434 356.573 156.931 356.325 157.363C356.08 157.795 355.742 158.135 355.31 158.383C354.878 158.628 354.381 158.75 353.819 158.75ZM353.819 157.604C354.125 157.604 354.402 157.531 354.651 157.386C354.903 157.237 355.104 157.038 355.253 156.79C355.402 156.537 355.476 156.256 355.476 155.947V152.943C355.476 152.637 355.402 152.36 355.253 152.112C355.104 151.859 354.903 151.661 354.651 151.515C354.402 151.366 354.125 151.292 353.819 151.292C353.514 151.292 353.235 151.366 352.982 151.515C352.734 151.661 352.535 151.859 352.386 152.112C352.237 152.36 352.163 152.637 352.163 152.943V155.947C352.163 156.256 352.237 156.537 352.386 156.79C352.535 157.038 352.734 157.237 352.982 157.386C353.235 157.531 353.514 157.604 353.819 157.604Z" fill="white"/>
<path fill-rule="evenodd" clip-rule="evenodd" d="M194.964 114.761C190.743 114.761 187.32 118.183 187.32 122.404V130.048C187.32 134.27 190.743 137.692 194.964 137.692H214.832L216.828 141.71C217.109 142.276 217.916 142.276 218.197 141.71L220.193 137.692H239.297C243.519 137.692 246.941 134.27 246.941 130.048V122.404C246.941 118.183 243.519 114.761 239.297 114.761H194.964Z" fill="#A533FF"/>
<path d="M201.944 131.964V130.623H203.142V131.964H201.944ZM201.944 122.774V121.427H203.142V122.774H201.944ZM202.603 130.995C202.03 130.995 201.518 130.892 201.067 130.686C200.616 130.479 200.245 130.187 199.955 129.809C199.668 129.426 199.481 128.975 199.393 128.456L200.58 128.266C200.694 128.756 200.939 129.145 201.314 129.436C201.688 129.723 202.137 129.866 202.661 129.866C203.181 129.866 203.603 129.742 203.928 129.493C204.256 129.245 204.421 128.928 204.421 128.542C204.421 128.266 204.337 128.043 204.168 127.871C204.004 127.699 203.735 127.554 203.36 127.435L201.422 126.839C200.276 126.484 199.703 125.796 199.703 124.775C199.703 124.294 199.817 123.875 200.047 123.52C200.28 123.164 200.607 122.889 201.027 122.694C201.447 122.499 201.938 122.402 202.5 122.402C203.039 122.409 203.517 122.509 203.933 122.7C204.354 122.891 204.702 123.166 204.977 123.525C205.256 123.885 205.449 124.317 205.556 124.821L204.335 125.039C204.281 124.745 204.168 124.485 203.997 124.259C203.828 124.034 203.614 123.858 203.354 123.732C203.098 123.606 202.81 123.541 202.489 123.537C202.187 123.529 201.916 123.577 201.675 123.68C201.438 123.78 201.249 123.921 201.107 124.104C200.97 124.284 200.901 124.489 200.901 124.718C200.901 124.97 200.998 125.184 201.193 125.36C201.388 125.536 201.696 125.687 202.116 125.813L203.635 126.254C204.331 126.461 204.833 126.738 205.143 127.085C205.453 127.433 205.607 127.896 205.607 128.473C205.607 128.977 205.481 129.419 205.229 129.797C204.981 130.172 204.631 130.466 204.18 130.68C203.729 130.89 203.203 130.995 202.603 130.995ZM210.328 130.823V129.384H206.602V128.249L209.285 122.568H210.655L207.972 128.249H210.328V126.013H211.544V128.249H212.363V129.384H211.544V130.823H210.328ZM213.51 130.818L213.516 129.751L217.11 126.529C217.401 126.273 217.598 126.029 217.701 125.796C217.808 125.562 217.861 125.329 217.861 125.096C217.861 124.802 217.796 124.538 217.667 124.305C217.537 124.068 217.357 123.881 217.128 123.743C216.898 123.606 216.635 123.537 216.337 123.537C216.031 123.537 215.758 123.61 215.517 123.755C215.28 123.896 215.094 124.085 214.961 124.322C214.827 124.559 214.762 124.815 214.766 125.09H213.539C213.539 124.555 213.659 124.087 213.9 123.686C214.145 123.281 214.479 122.966 214.903 122.74C215.328 122.511 215.813 122.396 216.359 122.396C216.879 122.396 217.346 122.515 217.758 122.752C218.171 122.985 218.496 123.306 218.733 123.715C218.974 124.124 219.094 124.59 219.094 125.113C219.094 125.492 219.044 125.813 218.945 126.077C218.846 126.34 218.697 126.585 218.498 126.81C218.299 127.036 218.051 127.28 217.753 127.544L214.978 130.021L214.846 129.677H219.094V130.818H213.51ZM223.307 130.995C222.772 130.995 222.29 130.869 221.862 130.617C221.434 130.361 221.094 130.011 220.842 129.568C220.593 129.124 220.469 128.62 220.469 128.054V125.423C220.469 124.823 220.593 124.296 220.842 123.841C221.094 123.386 221.442 123.032 221.885 122.78C222.332 122.528 222.846 122.402 223.427 122.402C223.863 122.402 224.272 122.484 224.654 122.648C225.036 122.813 225.367 123.057 225.646 123.382L224.768 124.202C224.612 123.999 224.415 123.839 224.178 123.72C223.945 123.598 223.695 123.537 223.427 123.537C223.083 123.537 222.781 123.619 222.521 123.783C222.261 123.944 222.057 124.156 221.908 124.42C221.763 124.683 221.69 124.966 221.69 125.268V126.782L221.455 126.518C221.692 126.208 221.986 125.964 222.338 125.784C222.689 125.605 223.066 125.515 223.467 125.515C223.979 125.515 224.436 125.635 224.837 125.876C225.242 126.113 225.56 126.436 225.789 126.845C226.022 127.254 226.139 127.714 226.139 128.226C226.139 128.742 226.009 129.21 225.749 129.631C225.493 130.047 225.149 130.38 224.717 130.628C224.289 130.873 223.819 130.995 223.307 130.995ZM223.307 129.843C223.605 129.843 223.876 129.77 224.121 129.625C224.365 129.48 224.56 129.285 224.705 129.04C224.851 128.796 224.923 128.524 224.923 128.226C224.923 127.928 224.851 127.657 224.705 127.412C224.564 127.168 224.371 126.973 224.126 126.828C223.882 126.682 223.61 126.61 223.312 126.61C223.014 126.61 222.741 126.682 222.493 126.828C222.248 126.973 222.053 127.168 221.908 127.412C221.763 127.657 221.69 127.928 221.69 128.226C221.69 128.521 221.763 128.79 221.908 129.035C222.053 129.279 222.248 129.476 222.493 129.625C222.737 129.77 223.009 129.843 223.307 129.843ZM230.468 130.995C229.906 130.995 229.409 130.873 228.977 130.628C228.546 130.38 228.205 130.04 227.957 129.608C227.712 129.176 227.59 128.679 227.59 128.117V125.274C227.59 124.712 227.712 124.215 227.957 123.783C228.205 123.352 228.546 123.013 228.977 122.769C229.409 122.52 229.906 122.396 230.468 122.396C231.03 122.396 231.527 122.52 231.958 122.769C232.39 123.013 232.729 123.352 232.973 123.783C233.222 124.215 233.346 124.712 233.346 125.274V128.117C233.346 128.679 233.222 129.176 232.973 129.608C232.729 130.04 232.39 130.38 231.958 130.628C231.527 130.873 231.03 130.995 230.468 130.995ZM230.468 129.849C230.774 129.849 231.051 129.776 231.299 129.631C231.551 129.482 231.752 129.283 231.901 129.035C232.05 128.782 232.125 128.501 232.125 128.192V125.188C232.125 124.882 232.05 124.605 231.901 124.357C231.752 124.104 231.551 123.906 231.299 123.76C231.051 123.611 230.774 123.537 230.468 123.537C230.162 123.537 229.883 123.611 229.631 123.76C229.383 123.906 229.184 124.104 229.035 124.357C228.886 124.605 228.811 124.882 228.811 125.188V128.192C228.811 128.501 228.886 128.782 229.035 129.035C229.184 129.283 229.383 129.482 229.631 129.631C229.883 129.776 230.162 129.849 230.468 129.849Z" fill="white"/>
<path fill-rule="evenodd" clip-rule="evenodd" d="M131.23 50C127.008 50 123.586 53.4222 123.586 57.6437V65.2874C123.586 69.5089 127.008 72.9311 131.23 72.9311H151.098L153.094 76.949C153.375 77.5148 154.182 77.5148 154.463 76.949L156.459 72.9311H175.563C179.784 72.9311 183.207 69.5089 183.207 65.2874V57.6437C183.207 53.4222 179.784 50 175.563 50H131.23Z" fill="#A533FF"/>
<path d="M138.21 67.2033V65.8619H139.408V67.2033H138.21ZM138.21 58.0137V56.6665H139.408V58.0137H138.21ZM138.869 66.2345C138.296 66.2345 137.784 66.1313 137.333 65.9249C136.882 65.7185 136.511 65.4262 136.221 65.0478C135.934 64.6656 135.747 64.2146 135.659 63.6949L136.845 63.5057C136.96 63.9949 137.205 64.3847 137.579 64.6752C137.954 64.9618 138.403 65.1051 138.926 65.1051C139.446 65.1051 139.868 64.9809 140.193 64.7325C140.522 64.4841 140.686 64.1669 140.686 63.7809C140.686 63.5057 140.602 63.2821 140.434 63.1101C140.27 62.9381 140 62.7929 139.626 62.6744L137.688 62.0782C136.542 61.7228 135.968 61.0349 135.968 60.0144C135.968 59.5329 136.083 59.1144 136.312 58.759C136.545 58.4035 136.872 58.1284 137.293 57.9334C137.713 57.7385 138.204 57.6411 138.766 57.6411C139.305 57.6487 139.782 57.7481 140.199 57.9392C140.619 58.1303 140.967 58.4054 141.242 58.7647C141.521 59.1239 141.714 59.5558 141.821 60.0603L140.6 60.2781C140.547 59.9839 140.434 59.724 140.262 59.4985C140.094 59.273 139.88 59.0972 139.62 58.9711C139.364 58.8449 139.075 58.78 138.754 58.7762C138.452 58.7685 138.181 58.8163 137.94 58.9195C137.703 59.0188 137.514 59.1603 137.373 59.3437C137.235 59.5233 137.166 59.7278 137.166 59.9571C137.166 60.2093 137.264 60.4234 137.459 60.5992C137.654 60.775 137.961 60.9259 138.382 61.0521L139.901 61.4935C140.597 61.6999 141.099 61.9769 141.409 62.3247C141.718 62.6725 141.873 63.135 141.873 63.7121C141.873 64.2165 141.747 64.658 141.495 65.0363C141.246 65.4109 140.897 65.7052 140.446 65.9192C139.995 66.1294 139.469 66.2345 138.869 66.2345ZM146.594 66.0625V64.6236H142.867V63.4885L145.55 57.8073H146.921L144.238 63.4885H146.594V61.2527H147.809V63.4885H148.629V64.6236H147.809V66.0625H146.594ZM149.776 66.0568L149.782 64.9905L153.376 61.7687C153.667 61.5126 153.863 61.268 153.967 61.0349C154.074 60.8017 154.127 60.5686 154.127 60.3355C154.127 60.0412 154.062 59.7775 153.932 59.5443C153.802 59.3074 153.623 59.1201 153.393 58.9825C153.164 58.8449 152.9 58.7762 152.602 58.7762C152.296 58.7762 152.023 58.8488 151.782 58.994C151.545 59.1354 151.36 59.3246 151.226 59.5615C151.093 59.7985 151.028 60.0546 151.031 60.3297H149.805C149.805 59.7947 149.925 59.3265 150.166 58.9252C150.41 58.5201 150.745 58.2048 151.169 57.9793C151.593 57.75 152.079 57.6353 152.625 57.6353C153.145 57.6353 153.611 57.7538 154.024 57.9908C154.437 58.2239 154.762 58.5449 154.998 58.9539C155.239 59.3628 155.36 59.8291 155.36 60.3527C155.36 60.731 155.31 61.0521 155.211 61.3158C155.111 61.5795 154.962 61.8241 154.763 62.0496C154.565 62.2751 154.316 62.5197 154.018 62.7834L151.244 65.2599L151.112 64.9159H155.36V66.0568H149.776ZM159.572 66.2345C159.037 66.2345 158.556 66.1084 158.128 65.8561C157.7 65.6001 157.359 65.2504 157.107 64.807C156.859 64.3637 156.735 63.8592 156.735 63.2936V60.6622C156.735 60.0622 156.859 59.5348 157.107 59.08C157.359 58.6252 157.707 58.2717 158.151 58.0194C158.598 57.7672 159.112 57.6411 159.693 57.6411C160.128 57.6411 160.537 57.7232 160.919 57.8876C161.302 58.0519 161.632 58.2965 161.911 58.6214L161.034 59.4412C160.877 59.2386 160.681 59.0781 160.444 58.9596C160.21 58.8373 159.96 58.7762 159.693 58.7762C159.349 58.7762 159.047 58.8583 158.787 59.0227C158.527 59.1832 158.322 59.3953 158.173 59.659C158.028 59.9227 157.956 60.2055 157.956 60.5075V62.0209L157.721 61.7572C157.958 61.4476 158.252 61.203 158.603 61.0234C158.955 60.8438 159.331 60.754 159.733 60.754C160.245 60.754 160.702 60.8743 161.103 61.1151C161.508 61.3521 161.825 61.675 162.055 62.084C162.288 62.4929 162.404 62.9534 162.404 63.4656C162.404 63.9815 162.274 64.4497 162.014 64.8701C161.758 65.2867 161.414 65.6192 160.982 65.8676C160.554 66.1122 160.084 66.2345 159.572 66.2345ZM159.572 65.0822C159.87 65.0822 160.142 65.0096 160.386 64.8644C160.631 64.7191 160.826 64.5242 160.971 64.2796C161.116 64.035 161.189 63.7637 161.189 63.4656C161.189 63.1675 161.116 62.8961 160.971 62.6515C160.83 62.4069 160.637 62.212 160.392 62.0668C160.147 61.9215 159.876 61.8489 159.578 61.8489C159.28 61.8489 159.007 61.9215 158.758 62.0668C158.514 62.212 158.319 62.4069 158.173 62.6515C158.028 62.8961 157.956 63.1675 157.956 63.4656C157.956 63.7598 158.028 64.0293 158.173 64.2739C158.319 64.5185 158.514 64.7153 158.758 64.8644C159.003 65.0096 159.274 65.0822 159.572 65.0822ZM166.734 66.2345C166.172 66.2345 165.675 66.1122 165.243 65.8676C164.811 65.6192 164.471 65.279 164.223 64.8472C163.978 64.4153 163.856 63.9184 163.856 63.3566V60.5132C163.856 59.9514 163.978 59.4545 164.223 59.0227C164.471 58.5908 164.811 58.2526 165.243 58.008C165.675 57.7595 166.172 57.6353 166.734 57.6353C167.295 57.6353 167.792 57.7595 168.224 58.008C168.656 58.2526 168.994 58.5908 169.239 59.0227C169.487 59.4545 169.611 59.9514 169.611 60.5132V63.3566C169.611 63.9184 169.487 64.4153 169.239 64.8472C168.994 65.279 168.656 65.6192 168.224 65.8676C167.792 66.1122 167.295 66.2345 166.734 66.2345ZM166.734 65.0879C167.039 65.0879 167.316 65.0153 167.565 64.8701C167.817 64.721 168.018 64.5223 168.167 64.2739C168.316 64.0216 168.39 63.7407 168.39 63.4312V60.4272C168.39 60.1214 168.316 59.8444 168.167 59.5959C168.018 59.3437 167.817 59.145 167.565 58.9997C167.316 58.8507 167.039 58.7762 166.734 58.7762C166.428 58.7762 166.149 58.8507 165.897 58.9997C165.648 59.145 165.449 59.3437 165.3 59.5959C165.151 59.8444 165.077 60.1214 165.077 60.4272V63.4312C165.077 63.7407 165.151 64.0216 165.3 64.2739C165.449 64.5223 165.648 64.721 165.897 64.8701C166.149 65.0153 166.428 65.0879 166.734 65.0879Z" fill="white"/>
</g>
<rect x="26.2044" y="21.2044" width="420.591" height="302.591" rx="19.7956" stroke="#EAEAEA" stroke-width="0.408738" shape-rendering="crispEdges"/>
</g>
</g>
<defs>
<filter id="filter0_f_1474_3224" x="-125.6" y="-69.3988" width="1517.2" height="1517.2" filterUnits="userSpaceOnUse" color-interpolation-filters="sRGB">
<feFlood flood-opacity="0" result="BackgroundImageFix"/>
<feBlend mode="normal" in="SourceGraphic" in2="BackgroundImageFix" result="shape"/>
<feGaussianBlur stdDeviation="268.8" result="effect1_foregroundBlur_1474_3224"/>
</filter>
<filter id="filter1_f_1474_3224" x="-837.6" y="-857.399" width="1517.2" height="1517.2" filterUnits="userSpaceOnUse" color-interpolation-filters="sRGB">
<feFlood flood-opacity="0" result="BackgroundImageFix"/>
<feBlend mode="normal" in="SourceGraphic" in2="BackgroundImageFix" result="shape"/>
<feGaussianBlur stdDeviation="268.8" result="effect1_foregroundBlur_1474_3224"/>
</filter>
<filter id="filter2_d_1474_3224" x="-14" y="-14" width="501" height="383" filterUnits="userSpaceOnUse" color-interpolation-filters="sRGB">
<feFlood flood-opacity="0" result="BackgroundImageFix"/>
<feColorMatrix in="SourceAlpha" type="matrix" values="0 0 0 0 0 0 0 0 0 0 0 0 0 0 0 0 0 0 127 0" result="hardAlpha"/>
<feOffset dy="5"/>
<feGaussianBlur stdDeviation="20"/>
<feComposite in2="hardAlpha" operator="out"/>
<feColorMatrix type="matrix" values="0 0 0 0 0 0 0 0 0 0.105882 0 0 0 0 0.419608 0 0 0 0.08 0"/>
<feBlend mode="normal" in2="BackgroundImageFix" result="effect1_dropShadow_1474_3224"/>
<feBlend mode="normal" in="SourceGraphic" in2="effect1_dropShadow_1474_3224" result="shape"/>
</filter>
<filter id="filter3_f_1474_3224" x="28.4526" y="-335.475" width="675.644" height="675.644" filterUnits="userSpaceOnUse" color-interpolation-filters="sRGB">
<feFlood flood-opacity="0" result="BackgroundImageFix"/>
<feBlend mode="normal" in="SourceGraphic" in2="BackgroundImageFix" result="shape"/>
<feGaussianBlur stdDeviation="122.621" result="effect1_foregroundBlur_1474_3224"/>
</filter>
<filter id="filter4_f_1474_3224" x="-226.6" y="-74.5386" width="675.644" height="675.644" filterUnits="userSpaceOnUse" color-interpolation-filters="sRGB">
<feFlood flood-opacity="0" result="BackgroundImageFix"/>
<feBlend mode="normal" in="SourceGraphic" in2="BackgroundImageFix" result="shape"/>
<feGaussianBlur stdDeviation="122.621" result="effect1_foregroundBlur_1474_3224"/>
</filter>
<linearGradient id="paint0_linear_1474_3224" x1="209.205" y1="291.283" x2="228.312" y2="274.745" gradientUnits="userSpaceOnUse">
<stop stop-color="#FFDD55"/>
<stop offset="0.5" stop-color="#FF543E"/>
<stop offset="1" stop-color="#C837AB"/>
</linearGradient>
<clipPath id="clip0_1474_3224">
<rect y="0.600586" width="473" height="600" rx="20" fill="white"/>
</clipPath>
<clipPath id="clip1_1474_3224">
<rect x="26" y="21" width="421" height="303" rx="20" fill="white"/>
</clipPath>
<clipPath id="clip2_1474_3224">
<rect width="20.5589" height="20.5589" fill="white" transform="translate(334.316 272.035)"/>
</clipPath>
<clipPath id="clip3_1474_3224">
<rect width="20.5589" height="20.5589" fill="white" transform="translate(207.879 272.039)"/>
</clipPath>
<clipPath id="clip4_1474_3224">
<rect width="20.5589" height="20.5589" fill="white" transform="translate(269.557 272.039)"/>
</clipPath>
<clipPath id="clip5_1474_3224">
<rect width="15.4192" height="205.589" fill="white" transform="translate(102 59.252)"/>
</clipPath>
<clipPath id="clip6_1474_3224">
<rect width="235.39" height="191.516" fill="white" transform="translate(135.133 69.7754)"/>
</clipPath>
</defs>
</svg>
