<svg width="473" height="601" viewBox="0 0 473 601" fill="none" xmlns="http://www.w3.org/2000/svg">
<g clip-path="url(#clip0_1455_1900)">
<rect y="0.600586" width="473" height="600" rx="20" fill="white"/>
<g filter="url(#filter0_f_1455_1900)">
<circle cx="633" cy="689.201" r="221" fill="#0000FF" fill-opacity="0.4"/>
</g>
<g filter="url(#filter1_f_1455_1900)">
<circle cx="-79" cy="-98.7988" r="221" fill="#FF43A9" fill-opacity="0.4"/>
</g>
<path d="M121.313 376.856H123.977C125.873 376.856 126.713 375.92 126.713 374.432C126.713 372.896 125.873 371.984 123.977 371.984H121.313V376.856ZM130.169 374.432C130.169 376.976 128.441 379.568 124.121 379.568H121.313V386H117.953V369.248H124.121C128.153 369.248 130.169 371.528 130.169 374.432ZM135.914 379.376V386H132.554V372.704H135.914V374.768C136.754 373.4 138.146 372.512 139.994 372.512V376.04H139.106C137.114 376.04 135.914 376.808 135.914 379.376ZM147.97 375.248C146.362 375.248 145.09 376.28 144.826 378.104H151.138C151.09 376.352 149.698 375.248 147.97 375.248ZM154.282 381.824C153.562 384.272 151.354 386.216 148.066 386.216C144.202 386.216 141.394 383.528 141.394 379.352C141.394 375.152 144.13 372.488 148.066 372.488C151.906 372.488 154.618 375.104 154.618 379.064C154.618 379.496 154.594 379.928 154.522 380.36H144.802C144.97 382.328 146.314 383.432 147.994 383.432C149.434 383.432 150.226 382.712 150.658 381.824H154.282ZM156.206 379.304C156.206 375.152 158.894 372.488 162.302 372.488C164.054 372.488 165.734 373.304 166.646 374.552V368.24H170.054V386H166.646V384.032C165.854 385.256 164.366 386.216 162.278 386.216C158.894 386.216 156.206 383.456 156.206 379.304ZM166.67 379.352C166.67 376.832 164.99 375.44 163.142 375.44C161.342 375.44 159.638 376.784 159.638 379.304C159.638 381.824 161.342 383.264 163.142 383.264C164.99 383.264 166.67 381.872 166.67 379.352ZM173.336 386V372.704H176.696V386H173.336ZM175.04 371.12C173.84 371.12 172.976 370.256 172.976 369.152C172.976 368.048 173.84 367.184 175.04 367.184C176.216 367.184 177.104 368.048 177.104 369.152C177.104 370.256 176.216 371.12 175.04 371.12ZM179.151 379.352C179.151 375.176 181.887 372.488 185.727 372.488C189.039 372.488 191.271 374.216 191.991 377.192H188.367C187.983 376.064 187.095 375.344 185.703 375.344C183.831 375.344 182.583 376.76 182.583 379.352C182.583 381.944 183.831 383.336 185.703 383.336C187.095 383.336 187.959 382.712 188.367 381.512H191.991C191.271 384.344 189.039 386.216 185.727 386.216C181.887 386.216 179.151 383.528 179.151 379.352ZM194.981 381.872V375.464H193.397V372.704H194.981V369.416H198.365V372.704H201.341V375.464H198.365V381.896C198.365 382.784 198.725 383.168 199.781 383.168H201.341V386H199.229C196.685 386 194.981 384.92 194.981 381.872ZM203.758 386V372.704H207.118V386H203.758ZM205.462 371.12C204.262 371.12 203.398 370.256 203.398 369.152C203.398 368.048 204.262 367.184 205.462 367.184C206.638 367.184 207.526 368.048 207.526 369.152C207.526 370.256 206.638 371.12 205.462 371.12ZM209.021 372.704H212.621L215.981 382.904L219.341 372.704H222.917L217.997 386H213.917L209.021 372.704ZM230.516 375.248C228.908 375.248 227.636 376.28 227.372 378.104H233.684C233.636 376.352 232.244 375.248 230.516 375.248ZM236.828 381.824C236.108 384.272 233.9 386.216 230.612 386.216C226.748 386.216 223.94 383.528 223.94 379.352C223.94 375.152 226.676 372.488 230.612 372.488C234.452 372.488 237.164 375.104 237.164 379.064C237.164 379.496 237.14 379.928 237.068 380.36H227.348C227.516 382.328 228.86 383.432 230.54 383.432C231.98 383.432 232.772 382.712 233.204 381.824H236.828ZM256.712 386L255.608 382.808H248.936L247.832 386H244.304L250.328 369.224H254.24L260.264 386H256.712ZM254.696 380.12L252.272 373.112L249.848 380.12H254.696ZM271.827 386V378.656C271.827 376.52 270.651 375.368 268.875 375.368C267.051 375.368 265.875 376.52 265.875 378.656V386H262.515V372.704H265.875V374.36C266.739 373.232 268.179 372.512 269.883 372.512C272.979 372.512 275.187 374.528 275.187 378.2V386H271.827ZM277.519 379.304C277.519 375.152 280.207 372.488 283.591 372.488C285.727 372.488 287.191 373.496 287.983 374.6V372.704H291.367V386H287.983V384.056C287.191 385.208 285.679 386.216 283.567 386.216C280.207 386.216 277.519 383.456 277.519 379.304ZM287.983 379.352C287.983 376.832 286.303 375.44 284.455 375.44C282.655 375.44 280.951 376.784 280.951 379.304C280.951 381.824 282.655 383.264 284.455 383.264C286.303 383.264 287.983 381.872 287.983 379.352ZM294.648 386V368.24H298.008V386H294.648ZM306.992 381.992L310.472 372.704H314.048L305.816 392.288H302.24L305.12 385.664L299.792 372.704H303.56L306.992 381.992ZM316.387 381.872V375.464H314.803V372.704H316.387V369.416H319.771V372.704H322.747V375.464H319.771V381.896C319.771 382.784 320.131 383.168 321.187 383.168H322.747V386H320.635C318.091 386 316.387 384.92 316.387 381.872ZM325.164 386V372.704H328.524V386H325.164ZM326.868 371.12C325.668 371.12 324.804 370.256 324.804 369.152C324.804 368.048 325.668 367.184 326.868 367.184C328.044 367.184 328.932 368.048 328.932 369.152C328.932 370.256 328.044 371.12 326.868 371.12ZM330.979 379.352C330.979 375.176 333.715 372.488 337.556 372.488C340.868 372.488 343.1 374.216 343.82 377.192H340.196C339.812 376.064 338.924 375.344 337.532 375.344C335.66 375.344 334.412 376.76 334.412 379.352C334.412 381.944 335.66 383.336 337.532 383.336C338.924 383.336 339.788 382.712 340.196 381.512H343.82C343.1 384.344 340.868 386.216 337.556 386.216C333.715 386.216 330.979 383.528 330.979 379.352ZM356.601 382.208C356.601 384.488 354.609 386.216 351.369 386.216C348.033 386.216 345.705 384.272 345.561 381.8H348.945C349.065 382.808 350.001 383.576 351.345 383.576C352.665 383.576 353.385 382.976 353.385 382.208C353.385 379.832 345.873 381.344 345.873 376.472C345.873 374.264 347.841 372.488 351.129 372.488C354.345 372.488 356.289 374.24 356.481 376.88H353.265C353.169 375.848 352.353 375.152 351.033 375.152C349.785 375.152 349.137 375.656 349.137 376.424C349.137 378.848 356.505 377.336 356.601 382.208Z" fill="black"/>
<path d="M81.382 420.832V410.272H83.566V420.856C83.566 423.928 85.222 425.248 87.694 425.248C90.166 425.248 91.798 423.928 91.798 420.856V410.272H93.982V420.832C93.982 425.176 91.126 427.168 87.67 427.168C84.214 427.168 81.382 425.176 81.382 420.832ZM98.1053 423.4V415.648H96.4013V413.848H98.1053V410.536H100.289V413.848H103.721V415.648H100.289V423.4C100.289 424.696 100.769 425.152 102.113 425.152H103.721V427H101.753C99.4253 427 98.1053 426.04 98.1053 423.4ZM106.368 427V413.848H108.552V427H106.368ZM107.496 411.712C106.656 411.712 106.008 411.064 106.008 410.224C106.008 409.384 106.656 408.736 107.496 408.736C108.288 408.736 108.936 409.384 108.936 410.224C108.936 411.064 108.288 411.712 107.496 411.712ZM112.274 427V409.24H114.458V427H112.274ZM118.18 427V413.848H120.364V427H118.18ZM119.308 411.712C118.468 411.712 117.82 411.064 117.82 410.224C117.82 409.384 118.468 408.736 119.308 408.736C120.1 408.736 120.748 409.384 120.748 410.224C120.748 411.064 120.1 411.712 119.308 411.712ZM132.126 413.848V415.624L125.718 425.2H132.174V427H123.222V425.2L129.606 415.624H123.27V413.848H132.126ZM140.6 415.48C138.464 415.48 136.688 416.896 136.448 419.464H144.752C144.776 416.896 142.856 415.48 140.6 415.48ZM146.744 422.944C146.072 425.344 143.96 427.216 140.696 427.216C136.952 427.216 134.192 424.576 134.192 420.4C134.192 416.248 136.856 413.632 140.696 413.632C144.512 413.632 147.008 416.32 147.008 419.92C147.008 420.4 146.984 420.784 146.936 421.24H136.424C136.592 423.904 138.464 425.368 140.696 425.368C142.664 425.368 143.912 424.36 144.392 422.944H146.744ZM159.347 423.424C159.347 425.584 157.451 427.216 154.547 427.216C151.475 427.216 149.315 425.536 149.171 423.136H151.427C151.547 424.408 152.675 425.368 154.523 425.368C156.251 425.368 157.211 424.504 157.211 423.424C157.211 420.496 149.435 422.2 149.435 417.304C149.435 415.288 151.331 413.632 154.259 413.632C157.163 413.632 159.083 415.192 159.227 417.76H157.043C156.947 416.44 155.939 415.48 154.187 415.48C152.579 415.48 151.619 416.248 151.619 417.304C151.619 420.424 159.251 418.72 159.347 423.424ZM168.828 427V409.24H171.012V415.744C171.876 414.352 173.508 413.608 175.356 413.608C178.284 413.608 180.612 415.48 180.612 419.248V427H178.452V419.56C178.452 416.872 176.988 415.504 174.78 415.504C172.548 415.504 171.012 416.896 171.012 419.728V427H168.828ZM184.18 427V413.848H186.364V427H184.18ZM185.308 411.712C184.468 411.712 183.82 411.064 183.82 410.224C183.82 409.384 184.468 408.736 185.308 408.736C186.1 408.736 186.748 409.384 186.748 410.224C186.748 411.064 186.1 411.712 185.308 411.712ZM199.542 423.424C199.542 425.584 197.646 427.216 194.742 427.216C191.67 427.216 189.51 425.536 189.366 423.136H191.622C191.742 424.408 192.87 425.368 194.718 425.368C196.446 425.368 197.406 424.504 197.406 423.424C197.406 420.496 189.63 422.2 189.63 417.304C189.63 415.288 191.526 413.632 194.454 413.632C197.358 413.632 199.278 415.192 199.422 417.76H197.238C197.142 416.44 196.134 415.48 194.382 415.48C192.774 415.48 191.814 416.248 191.814 417.304C191.814 420.424 199.446 418.72 199.542 423.424ZM203.105 423.4V415.648H201.401V413.848H203.105V410.536H205.289V413.848H208.721V415.648H205.289V423.4C205.289 424.696 205.769 425.152 207.113 425.152H208.721V427H206.753C204.425 427 203.105 426.04 203.105 423.4ZM223.848 420.4C223.848 424.576 220.848 427.216 217.104 427.216C213.384 427.216 210.552 424.576 210.552 420.4C210.552 416.248 213.48 413.632 217.2 413.632C220.944 413.632 223.848 416.248 223.848 420.4ZM212.784 420.4C212.784 423.736 214.824 425.296 217.104 425.296C219.384 425.296 221.616 423.736 221.616 420.4C221.616 417.088 219.432 415.528 217.176 415.528C214.872 415.528 212.784 417.088 212.784 420.4ZM228.903 419.848V427H226.719V413.848H228.903V415.984C229.647 414.52 231.063 413.608 233.151 413.608V415.864H232.575C230.487 415.864 228.903 416.8 228.903 419.848ZM235.672 427V413.848H237.856V427H235.672ZM236.8 411.712C235.96 411.712 235.312 411.064 235.312 410.224C235.312 409.384 235.96 408.736 236.8 408.736C237.592 408.736 238.24 409.384 238.24 410.224C238.24 411.064 237.592 411.712 236.8 411.712ZM240.762 420.4C240.762 416.272 243.426 413.632 247.17 413.632C250.434 413.632 252.57 415.312 253.242 418.072H250.89C250.434 416.488 249.114 415.48 247.17 415.48C244.77 415.48 242.994 417.184 242.994 420.4C242.994 423.664 244.77 425.368 247.17 425.368C249.114 425.368 250.41 424.432 250.89 422.776H253.242C252.57 425.392 250.434 427.216 247.17 427.216C243.426 427.216 240.762 424.576 240.762 420.4ZM255.341 420.376C255.341 416.272 258.053 413.632 261.581 413.632C264.029 413.632 265.709 414.88 266.477 416.248V413.848H268.685V427H266.477V424.552C265.685 425.968 263.981 427.216 261.557 427.216C258.053 427.216 255.341 424.456 255.341 420.376ZM266.477 420.4C266.477 417.352 264.413 415.528 262.013 415.528C259.613 415.528 257.573 417.28 257.573 420.376C257.573 423.472 259.613 425.296 262.013 425.296C264.413 425.296 266.477 423.496 266.477 420.4ZM272.375 427V409.24H274.559V427H272.375ZM283.864 420.376C283.864 416.272 286.576 413.632 290.128 413.632C292.192 413.632 294.088 414.688 295 416.2V409.24H297.208V427H295V424.528C294.208 425.992 292.504 427.216 290.104 427.216C286.576 427.216 283.864 424.456 283.864 420.376ZM295 420.4C295 417.352 292.936 415.528 290.536 415.528C288.136 415.528 286.096 417.28 286.096 420.376C286.096 423.472 288.136 425.296 290.536 425.296C292.936 425.296 295 423.496 295 420.4ZM300.083 420.376C300.083 416.272 302.795 413.632 306.323 413.632C308.771 413.632 310.451 414.88 311.219 416.248V413.848H313.427V427H311.219V424.552C310.427 425.968 308.723 427.216 306.299 427.216C302.795 427.216 300.083 424.456 300.083 420.376ZM311.219 420.4C311.219 417.352 309.155 415.528 306.755 415.528C304.355 415.528 302.315 417.28 302.315 420.376C302.315 423.472 304.355 425.296 306.755 425.296C309.155 425.296 311.219 423.496 311.219 420.4ZM317.598 423.4V415.648H315.894V413.848H317.598V410.536H319.782V413.848H323.214V415.648H319.782V423.4C319.782 424.696 320.262 425.152 321.606 425.152H323.214V427H321.246C318.918 427 317.598 426.04 317.598 423.4ZM325.044 420.376C325.044 416.272 327.756 413.632 331.284 413.632C333.732 413.632 335.412 414.88 336.18 416.248V413.848H338.388V427H336.18V424.552C335.388 425.968 333.684 427.216 331.26 427.216C327.756 427.216 325.044 424.456 325.044 420.376ZM336.18 420.4C336.18 417.352 334.116 415.528 331.716 415.528C329.316 415.528 327.276 417.28 327.276 420.376C327.276 423.472 329.316 425.296 331.716 425.296C334.116 425.296 336.18 423.496 336.18 420.4ZM347.661 420.376C347.661 416.272 350.373 413.632 353.901 413.632C356.349 413.632 358.029 414.88 358.797 416.248V413.848H361.005V427H358.797V424.552C358.005 425.968 356.301 427.216 353.877 427.216C350.373 427.216 347.661 424.456 347.661 420.376ZM358.797 420.4C358.797 417.352 356.733 415.528 354.333 415.528C351.933 415.528 349.893 417.28 349.893 420.376C349.893 423.472 351.933 425.296 354.333 425.296C356.733 425.296 358.797 423.496 358.797 420.4ZM374.32 427V419.56C374.32 416.872 372.856 415.504 370.648 415.504C368.416 415.504 366.88 416.896 366.88 419.728V427H364.696V413.848H366.88V415.72C367.744 414.352 369.328 413.608 371.104 413.608C374.152 413.608 376.48 415.48 376.48 419.248V427H374.32ZM379.231 420.376C379.231 416.272 381.943 413.632 385.495 413.632C387.559 413.632 389.455 414.688 390.367 416.2V409.24H392.575V427H390.367V424.528C389.575 425.992 387.871 427.216 385.471 427.216C381.943 427.216 379.231 424.456 379.231 420.376ZM390.367 420.4C390.367 417.352 388.303 415.528 385.903 415.528C383.503 415.528 381.463 417.28 381.463 420.376C381.463 423.472 383.503 425.296 385.903 425.296C388.303 425.296 390.367 423.496 390.367 420.4ZM105.434 450.272C106.226 448.88 107.954 447.632 110.354 447.632C113.882 447.632 116.594 450.272 116.594 454.376C116.594 458.456 113.882 461.216 110.354 461.216C107.954 461.216 106.25 459.92 105.434 458.576V467.24H103.25V447.848H105.434V450.272ZM114.362 454.376C114.362 451.28 112.322 449.528 109.898 449.528C107.522 449.528 105.434 451.352 105.434 454.4C105.434 457.496 107.522 459.296 109.898 459.296C112.322 459.296 114.362 457.472 114.362 454.376ZM121.653 453.848V461H119.469V447.848H121.653V449.984C122.397 448.52 123.813 447.608 125.901 447.608V449.864H125.325C123.237 449.864 121.653 450.8 121.653 453.848ZM134.014 449.48C131.878 449.48 130.102 450.896 129.862 453.464H138.166C138.19 450.896 136.27 449.48 134.014 449.48ZM140.158 456.944C139.486 459.344 137.374 461.216 134.11 461.216C130.366 461.216 127.606 458.576 127.606 454.4C127.606 450.248 130.27 447.632 134.11 447.632C137.926 447.632 140.422 450.32 140.422 453.92C140.422 454.4 140.398 454.784 140.35 455.24H129.838C130.006 457.904 131.878 459.368 134.11 459.368C136.078 459.368 137.326 458.36 137.806 456.944H140.158ZM142.489 454.376C142.489 450.272 145.201 447.632 148.753 447.632C150.817 447.632 152.713 448.688 153.625 450.2V443.24H155.833V461H153.625V458.528C152.833 459.992 151.129 461.216 148.729 461.216C145.201 461.216 142.489 458.456 142.489 454.376ZM153.625 454.4C153.625 451.352 151.561 449.528 149.161 449.528C146.761 449.528 144.721 451.28 144.721 454.376C144.721 457.472 146.761 459.296 149.161 459.296C151.561 459.296 153.625 457.496 153.625 454.4ZM159.524 461V447.848H161.708V461H159.524ZM160.652 445.712C159.812 445.712 159.164 445.064 159.164 444.224C159.164 443.384 159.812 442.736 160.652 442.736C161.444 442.736 162.092 443.384 162.092 444.224C162.092 445.064 161.444 445.712 160.652 445.712ZM164.614 454.4C164.614 450.272 167.278 447.632 171.022 447.632C174.286 447.632 176.422 449.312 177.094 452.072H174.742C174.286 450.488 172.966 449.48 171.022 449.48C168.622 449.48 166.846 451.184 166.846 454.4C166.846 457.664 168.622 459.368 171.022 459.368C172.966 459.368 174.262 458.432 174.742 456.776H177.094C176.422 459.392 174.286 461.216 171.022 461.216C167.278 461.216 164.614 458.576 164.614 454.4ZM180.488 457.4V449.648H178.784V447.848H180.488V444.536H182.672V447.848H186.104V449.648H182.672V457.4C182.672 458.696 183.152 459.152 184.496 459.152H186.104V461H184.136C181.808 461 180.488 460.04 180.488 457.4ZM188.75 461V447.848H190.934V461H188.75ZM189.878 445.712C189.038 445.712 188.39 445.064 188.39 444.224C188.39 443.384 189.038 442.736 189.878 442.736C190.67 442.736 191.318 443.384 191.318 444.224C191.318 445.064 190.67 445.712 189.878 445.712ZM193.097 447.848H195.449L199.553 458.984L203.633 447.848H205.961L200.801 461H198.257L193.097 447.848ZM213.702 449.48C211.566 449.48 209.79 450.896 209.55 453.464H217.854C217.878 450.896 215.958 449.48 213.702 449.48ZM219.846 456.944C219.174 459.344 217.062 461.216 213.798 461.216C210.054 461.216 207.294 458.576 207.294 454.4C207.294 450.248 209.958 447.632 213.798 447.632C217.614 447.632 220.11 450.32 220.11 453.92C220.11 454.4 220.086 454.784 220.038 455.24H209.526C209.694 457.904 211.566 459.368 213.798 459.368C215.766 459.368 217.014 458.36 217.494 456.944H219.846ZM248.375 461V453.56C248.375 450.872 246.935 449.504 244.775 449.504C242.567 449.504 241.055 450.92 241.055 453.752V461H238.895V453.56C238.895 450.872 237.455 449.504 235.295 449.504C233.087 449.504 231.575 450.92 231.575 453.752V461H229.391V447.848H231.575V449.744C232.439 448.352 233.999 447.608 235.727 447.608C237.887 447.608 239.687 448.568 240.551 450.536C241.319 448.64 243.191 447.608 245.207 447.608C248.207 447.608 250.535 449.48 250.535 453.248V461H248.375ZM266.598 454.4C266.598 458.576 263.598 461.216 259.854 461.216C256.134 461.216 253.302 458.576 253.302 454.4C253.302 450.248 256.23 447.632 259.95 447.632C263.694 447.632 266.598 450.248 266.598 454.4ZM255.534 454.4C255.534 457.736 257.574 459.296 259.854 459.296C262.134 459.296 264.366 457.736 264.366 454.4C264.366 451.088 262.182 449.528 259.926 449.528C257.622 449.528 255.534 451.088 255.534 454.4ZM268.653 454.376C268.653 450.272 271.365 447.632 274.917 447.632C276.981 447.632 278.877 448.688 279.789 450.2V443.24H281.997V461H279.789V458.528C278.997 459.992 277.293 461.216 274.893 461.216C271.365 461.216 268.653 458.456 268.653 454.376ZM279.789 454.4C279.789 451.352 277.725 449.528 275.325 449.528C272.925 449.528 270.885 451.28 270.885 454.376C270.885 457.472 272.925 459.296 275.325 459.296C277.725 459.296 279.789 457.496 279.789 454.4ZM291.28 449.48C289.144 449.48 287.368 450.896 287.128 453.464H295.432C295.456 450.896 293.536 449.48 291.28 449.48ZM297.424 456.944C296.752 459.344 294.64 461.216 291.376 461.216C287.632 461.216 284.872 458.576 284.872 454.4C284.872 450.248 287.536 447.632 291.376 447.632C295.192 447.632 297.688 450.32 297.688 453.92C297.688 454.4 297.664 454.784 297.616 455.24H287.104C287.272 457.904 289.144 459.368 291.376 459.368C293.344 459.368 294.592 458.36 295.072 456.944H297.424ZM300.571 461V443.24H302.755V461H300.571ZM306.477 461V447.848H308.661V461H306.477ZM307.605 445.712C306.765 445.712 306.117 445.064 306.117 444.224C306.117 443.384 306.765 442.736 307.605 442.736C308.397 442.736 309.045 443.384 309.045 444.224C309.045 445.064 308.397 445.712 307.605 445.712ZM322.007 461V453.56C322.007 450.872 320.543 449.504 318.335 449.504C316.103 449.504 314.567 450.896 314.567 453.728V461H312.383V447.848H314.567V449.72C315.431 448.352 317.015 447.608 318.791 447.608C321.839 447.608 324.167 449.48 324.167 453.248V461H322.007ZM326.919 454.376C326.919 450.272 329.631 447.632 333.159 447.632C335.559 447.632 337.287 448.832 338.055 450.248V447.848H340.263V461.288C340.263 464.912 337.839 467.48 333.975 467.48C330.519 467.48 328.047 465.728 327.615 462.92H329.775C330.255 464.504 331.815 465.584 333.975 465.584C336.303 465.584 338.055 464.096 338.055 461.288V458.528C337.263 459.944 335.559 461.216 333.159 461.216C329.631 461.216 326.919 458.456 326.919 454.376ZM338.055 454.4C338.055 451.352 335.991 449.528 333.591 449.528C331.191 449.528 329.151 451.28 329.151 454.376C329.151 457.472 331.191 459.296 333.591 459.296C335.991 459.296 338.055 457.496 338.055 454.4ZM350.832 457.4V449.648H349.128V447.848H350.832V444.536H353.016V447.848H356.448V449.648H353.016V457.4C353.016 458.696 353.496 459.152 354.84 459.152H356.448V461H354.48C352.152 461 350.832 460.04 350.832 457.4ZM371.574 454.4C371.574 458.576 368.574 461.216 364.83 461.216C361.11 461.216 358.278 458.576 358.278 454.4C358.278 450.248 361.206 447.632 364.926 447.632C368.67 447.632 371.574 450.248 371.574 454.4ZM360.51 454.4C360.51 457.736 362.55 459.296 364.83 459.296C367.11 459.296 369.342 457.736 369.342 454.4C369.342 451.088 367.158 449.528 364.902 449.528C362.598 449.528 360.51 451.088 360.51 454.4ZM76.4005 495V483.648H74.6965V481.848H76.4005V480.912C76.4005 477.984 77.8405 476.664 81.2005 476.664V478.488C79.2325 478.488 78.5845 479.208 78.5845 480.912V481.848H81.3445V483.648H78.5845V495H76.4005ZM96.371 488.4C96.371 492.576 93.371 495.216 89.627 495.216C85.907 495.216 83.075 492.576 83.075 488.4C83.075 484.248 86.003 481.632 89.723 481.632C93.467 481.632 96.371 484.248 96.371 488.4ZM85.307 488.4C85.307 491.736 87.347 493.296 89.627 493.296C91.907 493.296 94.139 491.736 94.139 488.4C94.139 485.088 91.955 483.528 89.699 483.528C87.395 483.528 85.307 485.088 85.307 488.4ZM101.427 487.848V495H99.2425V481.848H101.427V483.984C102.171 482.52 103.587 481.608 105.675 481.608V483.864H105.099C103.011 483.864 101.427 484.8 101.427 487.848ZM113.788 483.48C111.652 483.48 109.876 484.896 109.636 487.464H117.94C117.964 484.896 116.044 483.48 113.788 483.48ZM119.932 490.944C119.26 493.344 117.148 495.216 113.884 495.216C110.14 495.216 107.38 492.576 107.38 488.4C107.38 484.248 110.044 481.632 113.884 481.632C117.7 481.632 120.196 484.32 120.196 487.92C120.196 488.4 120.172 488.784 120.124 489.24H109.612C109.78 491.904 111.652 493.368 113.884 493.368C115.852 493.368 117.1 492.36 117.58 490.944H119.932ZM122.262 488.4C122.262 484.272 124.926 481.632 128.67 481.632C131.934 481.632 134.07 483.312 134.742 486.072H132.39C131.934 484.488 130.614 483.48 128.67 483.48C126.27 483.48 124.494 485.184 124.494 488.4C124.494 491.664 126.27 493.368 128.67 493.368C130.614 493.368 131.91 492.432 132.39 490.776H134.742C134.07 493.392 131.934 495.216 128.67 495.216C124.926 495.216 122.262 492.576 122.262 488.4ZM136.841 488.376C136.841 484.272 139.553 481.632 143.081 481.632C145.529 481.632 147.209 482.88 147.977 484.248V481.848H150.185V495H147.977V492.552C147.185 493.968 145.481 495.216 143.057 495.216C139.553 495.216 136.841 492.456 136.841 488.376ZM147.977 488.4C147.977 485.352 145.913 483.528 143.513 483.528C141.113 483.528 139.073 485.28 139.073 488.376C139.073 491.472 141.113 493.296 143.513 493.296C145.913 493.296 147.977 491.496 147.977 488.4ZM163.331 491.424C163.331 493.584 161.435 495.216 158.531 495.216C155.459 495.216 153.299 493.536 153.155 491.136H155.411C155.531 492.408 156.659 493.368 158.507 493.368C160.235 493.368 161.195 492.504 161.195 491.424C161.195 488.496 153.419 490.2 153.419 485.304C153.419 483.288 155.315 481.632 158.243 481.632C161.147 481.632 163.067 483.192 163.211 485.76H161.027C160.931 484.44 159.923 483.48 158.171 483.48C156.563 483.48 155.603 484.248 155.603 485.304C155.603 488.424 163.235 486.72 163.331 491.424ZM166.894 491.4V483.648H165.19V481.848H166.894V478.536H169.078V481.848H172.51V483.648H169.078V491.4C169.078 492.696 169.558 493.152 170.902 493.152H172.51V495H170.542C168.214 495 166.894 494.04 166.894 491.4ZM181.555 495V477.24H183.739V495H181.555ZM193.053 483.48C190.917 483.48 189.141 484.896 188.901 487.464H197.205C197.229 484.896 195.309 483.48 193.053 483.48ZM199.197 490.944C198.525 493.344 196.413 495.216 193.149 495.216C189.405 495.216 186.645 492.576 186.645 488.4C186.645 484.248 189.309 481.632 193.149 481.632C196.965 481.632 199.461 484.32 199.461 487.92C199.461 488.4 199.437 488.784 199.389 489.24H188.877C189.045 491.904 190.917 493.368 193.149 493.368C195.117 493.368 196.365 492.36 196.845 490.944H199.197ZM201.528 488.376C201.528 484.272 204.24 481.632 207.768 481.632C210.216 481.632 211.896 482.88 212.664 484.248V481.848H214.872V495H212.664V492.552C211.872 493.968 210.168 495.216 207.744 495.216C204.24 495.216 201.528 492.456 201.528 488.376ZM212.664 488.4C212.664 485.352 210.6 483.528 208.2 483.528C205.8 483.528 203.76 485.28 203.76 488.376C203.76 491.472 205.8 493.296 208.2 493.296C210.6 493.296 212.664 491.496 212.664 488.4ZM217.747 488.376C217.747 484.272 220.459 481.632 224.011 481.632C226.075 481.632 227.971 482.688 228.883 484.2V477.24H231.091V495H228.883V492.528C228.091 493.992 226.387 495.216 223.987 495.216C220.459 495.216 217.747 492.456 217.747 488.376ZM228.883 488.4C228.883 485.352 226.819 483.528 224.419 483.528C222.019 483.528 219.979 485.28 219.979 488.376C219.979 491.472 222.019 493.296 224.419 493.296C226.819 493.296 228.883 491.496 228.883 488.4ZM243.364 484.296C244.204 482.832 245.956 481.632 248.284 481.632C251.836 481.632 254.524 484.272 254.524 488.376C254.524 492.456 251.812 495.216 248.284 495.216C245.884 495.216 244.18 494.016 243.364 492.576V495H241.18V477.24H243.364V484.296ZM252.292 488.376C252.292 485.28 250.252 483.528 247.828 483.528C245.452 483.528 243.364 485.352 243.364 488.4C243.364 491.496 245.452 493.296 247.828 493.296C250.252 493.296 252.292 491.472 252.292 488.376ZM262.991 483.48C260.855 483.48 259.079 484.896 258.839 487.464H267.143C267.167 484.896 265.247 483.48 262.991 483.48ZM269.135 490.944C268.463 493.344 266.351 495.216 263.087 495.216C259.343 495.216 256.583 492.576 256.583 488.4C256.583 484.248 259.247 481.632 263.087 481.632C266.903 481.632 269.399 484.32 269.399 487.92C269.399 488.4 269.375 488.784 269.327 489.24H258.815C258.983 491.904 260.855 493.368 263.087 493.368C265.055 493.368 266.303 492.36 266.783 490.944H269.135ZM272.282 495V477.24H274.466V483.744C275.33 482.352 276.962 481.608 278.81 481.608C281.738 481.608 284.066 483.48 284.066 487.248V495H281.906V487.56C281.906 484.872 280.442 483.504 278.234 483.504C276.002 483.504 274.466 484.896 274.466 487.728V495H272.282ZM286.817 488.376C286.817 484.272 289.529 481.632 293.057 481.632C295.505 481.632 297.185 482.88 297.953 484.248V481.848H300.161V495H297.953V492.552C297.161 493.968 295.457 495.216 293.033 495.216C289.529 495.216 286.817 492.456 286.817 488.376ZM297.953 488.4C297.953 485.352 295.889 483.528 293.489 483.528C291.089 483.528 289.049 485.28 289.049 488.376C289.049 491.472 291.089 493.296 293.489 493.296C295.889 493.296 297.953 491.496 297.953 488.4ZM302.292 481.848H304.644L308.748 492.984L312.828 481.848H315.156L309.996 495H307.452L302.292 481.848ZM317.305 495V481.848H319.489V495H317.305ZM318.433 479.712C317.593 479.712 316.945 479.064 316.945 478.224C316.945 477.384 317.593 476.736 318.433 476.736C319.225 476.736 319.873 477.384 319.873 478.224C319.873 479.064 319.225 479.712 318.433 479.712ZM335.691 488.4C335.691 492.576 332.691 495.216 328.947 495.216C325.227 495.216 322.395 492.576 322.395 488.4C322.395 484.248 325.323 481.632 329.043 481.632C332.787 481.632 335.691 484.248 335.691 488.4ZM324.627 488.4C324.627 491.736 326.667 493.296 328.947 493.296C331.227 493.296 333.459 491.736 333.459 488.4C333.459 485.088 331.275 483.528 329.019 483.528C326.715 483.528 324.627 485.088 324.627 488.4ZM340.747 487.848V495H338.563V481.848H340.747V483.984C341.491 482.52 342.907 481.608 344.995 481.608V483.864H344.419C342.331 483.864 340.747 484.8 340.747 487.848ZM353.098 488.376C353.098 484.272 355.81 481.632 359.338 481.632C361.786 481.632 363.466 482.88 364.234 484.248V481.848H366.442V495H364.234V492.552C363.442 493.968 361.738 495.216 359.314 495.216C355.81 495.216 353.098 492.456 353.098 488.376ZM364.234 488.4C364.234 485.352 362.17 483.528 359.77 483.528C357.37 483.528 355.33 485.28 355.33 488.376C355.33 491.472 357.37 493.296 359.77 493.296C362.17 493.296 364.234 491.496 364.234 488.4ZM379.757 495V487.56C379.757 484.872 378.293 483.504 376.085 483.504C373.853 483.504 372.317 484.896 372.317 487.728V495H370.133V481.848H372.317V483.72C373.181 482.352 374.765 481.608 376.541 481.608C379.589 481.608 381.917 483.48 381.917 487.248V495H379.757ZM384.669 488.376C384.669 484.272 387.381 481.632 390.933 481.632C392.997 481.632 394.893 482.688 395.805 484.2V477.24H398.013V495H395.805V492.528C395.013 493.992 393.309 495.216 390.909 495.216C387.381 495.216 384.669 492.456 384.669 488.376ZM395.805 488.4C395.805 485.352 393.741 483.528 391.341 483.528C388.941 483.528 386.901 485.28 386.901 488.376C386.901 491.472 388.941 493.296 391.341 493.296C393.741 493.296 395.805 491.496 395.805 488.4ZM112.297 522.4C112.297 526.576 109.297 529.216 105.553 529.216C101.833 529.216 99.0008 526.576 99.0008 522.4C99.0008 518.248 101.929 515.632 105.649 515.632C109.393 515.632 112.297 518.248 112.297 522.4ZM101.233 522.4C101.233 525.736 103.273 527.296 105.553 527.296C107.833 527.296 110.065 525.736 110.065 522.4C110.065 519.088 107.881 517.528 105.625 517.528C103.321 517.528 101.233 519.088 101.233 522.4ZM117.352 518.272C118.144 516.88 119.872 515.632 122.272 515.632C125.8 515.632 128.512 518.272 128.512 522.376C128.512 526.456 125.8 529.216 122.272 529.216C119.872 529.216 118.168 527.92 117.352 526.576V535.24H115.168V515.848H117.352V518.272ZM126.28 522.376C126.28 519.28 124.24 517.528 121.816 517.528C119.44 517.528 117.352 519.352 117.352 522.4C117.352 525.496 119.44 527.296 121.816 527.296C124.24 527.296 126.28 525.472 126.28 522.376ZM131.867 525.4V517.648H130.163V515.848H131.867V512.536H134.051V515.848H137.483V517.648H134.051V525.4C134.051 526.696 134.531 527.152 135.875 527.152H137.483V529H135.515C133.187 529 131.867 528.04 131.867 525.4ZM140.129 529V515.848H142.313V529H140.129ZM141.257 513.712C140.417 513.712 139.769 513.064 139.769 512.224C139.769 511.384 140.417 510.736 141.257 510.736C142.049 510.736 142.697 511.384 142.697 512.224C142.697 513.064 142.049 513.712 141.257 513.712ZM165.02 529V521.56C165.02 518.872 163.58 517.504 161.42 517.504C159.212 517.504 157.7 518.92 157.7 521.752V529H155.54V521.56C155.54 518.872 154.1 517.504 151.94 517.504C149.732 517.504 148.22 518.92 148.22 521.752V529H146.036V515.848H148.22V517.744C149.084 516.352 150.644 515.608 152.372 515.608C154.532 515.608 156.332 516.568 157.196 518.536C157.964 516.64 159.836 515.608 161.852 515.608C164.852 515.608 167.18 517.48 167.18 521.248V529H165.02ZM170.762 529V515.848H172.946V529H170.762ZM171.89 513.712C171.05 513.712 170.402 513.064 170.402 512.224C170.402 511.384 171.05 510.736 171.89 510.736C172.682 510.736 173.33 511.384 173.33 512.224C173.33 513.064 172.682 513.712 171.89 513.712ZM184.708 515.848V517.624L178.3 527.2H184.756V529H175.804V527.2L182.188 517.624H175.852V515.848H184.708ZM193.182 517.48C191.046 517.48 189.27 518.896 189.03 521.464H197.334C197.358 518.896 195.438 517.48 193.182 517.48ZM199.326 524.944C198.654 527.344 196.542 529.216 193.278 529.216C189.534 529.216 186.774 526.576 186.774 522.4C186.774 518.248 189.438 515.632 193.278 515.632C197.094 515.632 199.59 518.32 199.59 521.92C199.59 522.4 199.566 522.784 199.518 523.24H189.006C189.174 525.904 191.046 527.368 193.278 527.368C195.246 527.368 196.494 526.36 196.974 524.944H199.326ZM213.863 526.504L217.943 515.848H220.199L212.279 535.192H210.023L212.615 528.856L207.311 515.848H209.735L213.863 526.504ZM234.875 522.4C234.875 526.576 231.875 529.216 228.131 529.216C224.411 529.216 221.579 526.576 221.579 522.4C221.579 518.248 224.507 515.632 228.227 515.632C231.971 515.632 234.875 518.248 234.875 522.4ZM223.811 522.4C223.811 525.736 225.851 527.296 228.131 527.296C230.411 527.296 232.643 525.736 232.643 522.4C232.643 519.088 230.459 517.528 228.203 517.528C225.899 517.528 223.811 519.088 223.811 522.4ZM249.41 515.848V529H247.226V527.056C246.386 528.424 244.778 529.192 243.026 529.192C240.002 529.192 237.626 527.32 237.626 523.552V515.848H239.786V523.264C239.786 525.928 241.25 527.296 243.458 527.296C245.714 527.296 247.226 525.904 247.226 523.072V515.848H249.41ZM255.282 521.848V529H253.098V515.848H255.282V517.984C256.026 516.52 257.442 515.608 259.53 515.608V517.864H258.954C256.866 517.864 255.282 518.8 255.282 521.848ZM280.93 522.4C280.93 526.576 277.93 529.216 274.186 529.216C270.466 529.216 267.634 526.576 267.634 522.4C267.634 518.248 270.562 515.632 274.282 515.632C278.026 515.632 280.93 518.248 280.93 522.4ZM269.866 522.4C269.866 525.736 271.906 527.296 274.186 527.296C276.466 527.296 278.698 525.736 278.698 522.4C278.698 519.088 276.514 517.528 274.258 517.528C271.954 517.528 269.866 519.088 269.866 522.4ZM295.465 515.848V529H293.281V527.056C292.441 528.424 290.833 529.192 289.081 529.192C286.057 529.192 283.681 527.32 283.681 523.552V515.848H285.841V523.264C285.841 525.928 287.305 527.296 289.513 527.296C291.769 527.296 293.281 525.904 293.281 523.072V515.848H295.465ZM299.633 525.4V517.648H297.929V515.848H299.633V512.536H301.817V515.848H305.249V517.648H301.817V525.4C301.817 526.696 302.297 527.152 303.641 527.152H305.249V529H303.281C300.953 529 299.633 528.04 299.633 525.4ZM310.079 521.848V529H307.895V515.848H310.079V517.984C310.823 516.52 312.239 515.608 314.327 515.608V517.864H313.751C311.663 517.864 310.079 518.8 310.079 521.848ZM322.44 517.48C320.304 517.48 318.528 518.896 318.288 521.464H326.592C326.616 518.896 324.696 517.48 322.44 517.48ZM328.584 524.944C327.912 527.344 325.8 529.216 322.536 529.216C318.792 529.216 316.032 526.576 316.032 522.4C316.032 518.248 318.696 515.632 322.536 515.632C326.352 515.632 328.848 518.32 328.848 521.92C328.848 522.4 328.824 522.784 328.776 523.24H318.264C318.432 525.904 320.304 527.368 322.536 527.368C324.504 527.368 325.752 526.36 326.232 524.944H328.584ZM330.915 522.376C330.915 518.272 333.627 515.632 337.155 515.632C339.603 515.632 341.283 516.88 342.051 518.248V515.848H344.259V529H342.051V526.552C341.259 527.968 339.555 529.216 337.131 529.216C333.627 529.216 330.915 526.456 330.915 522.376ZM342.051 522.4C342.051 519.352 339.987 517.528 337.587 517.528C335.187 517.528 333.147 519.28 333.147 522.376C333.147 525.472 335.187 527.296 337.587 527.296C339.987 527.296 342.051 525.496 342.051 522.4ZM347.134 522.4C347.134 518.272 349.798 515.632 353.542 515.632C356.806 515.632 358.942 517.312 359.614 520.072H357.262C356.806 518.488 355.486 517.48 353.542 517.48C351.142 517.48 349.366 519.184 349.366 522.4C349.366 525.664 351.142 527.368 353.542 527.368C355.486 527.368 356.782 526.432 357.262 524.776H359.614C358.942 527.392 356.806 529.216 353.542 529.216C349.798 529.216 347.134 526.576 347.134 522.4ZM362.528 529V511.24H364.712V517.744C365.576 516.352 367.208 515.608 369.056 515.608C371.984 515.608 374.312 517.48 374.312 521.248V529H372.152V521.56C372.152 518.872 370.688 517.504 368.48 517.504C366.248 517.504 364.712 518.896 364.712 521.728V529H362.528ZM195.874 559.424C195.874 561.584 193.978 563.216 191.074 563.216C188.002 563.216 185.842 561.536 185.698 559.136H187.954C188.074 560.408 189.202 561.368 191.05 561.368C192.778 561.368 193.738 560.504 193.738 559.424C193.738 556.496 185.962 558.2 185.962 553.304C185.962 551.288 187.858 549.632 190.786 549.632C193.69 549.632 195.61 551.192 195.754 553.76H193.57C193.474 552.44 192.466 551.48 190.714 551.48C189.106 551.48 188.146 552.248 188.146 553.304C188.146 556.424 195.778 554.72 195.874 559.424ZM199.437 559.4V551.648H197.733V549.848H199.437V546.536H201.621V549.848H205.053V551.648H201.621V559.4C201.621 560.696 202.101 561.152 203.445 561.152H205.053V563H203.085C200.757 563 199.437 562.04 199.437 559.4ZM209.884 555.848V563H207.7V549.848H209.884V551.984C210.628 550.52 212.044 549.608 214.132 549.608V551.864H213.556C211.468 551.864 209.884 552.8 209.884 555.848ZM215.837 556.376C215.837 552.272 218.549 549.632 222.077 549.632C224.525 549.632 226.205 550.88 226.973 552.248V549.848H229.181V563H226.973V560.552C226.181 561.968 224.477 563.216 222.053 563.216C218.549 563.216 215.837 560.456 215.837 556.376ZM226.973 556.4C226.973 553.352 224.909 551.528 222.509 551.528C220.109 551.528 218.069 553.28 218.069 556.376C218.069 559.472 220.109 561.296 222.509 561.296C224.909 561.296 226.973 559.496 226.973 556.4ZM233.351 559.4V551.648H231.647V549.848H233.351V546.536H235.535V549.848H238.967V551.648H235.535V559.4C235.535 560.696 236.015 561.152 237.359 561.152H238.967V563H236.999C234.671 563 233.351 562.04 233.351 559.4ZM247.206 551.48C245.07 551.48 243.294 552.896 243.054 555.464H251.358C251.382 552.896 249.462 551.48 247.206 551.48ZM253.35 558.944C252.678 561.344 250.566 563.216 247.302 563.216C243.558 563.216 240.798 560.576 240.798 556.4C240.798 552.248 243.462 549.632 247.302 549.632C251.118 549.632 253.614 552.32 253.614 555.92C253.614 556.4 253.59 556.784 253.542 557.24H243.03C243.198 559.904 245.07 561.368 247.302 561.368C249.27 561.368 250.518 560.36 250.998 558.944H253.35ZM255.68 556.376C255.68 552.272 258.392 549.632 261.92 549.632C264.32 549.632 266.048 550.832 266.816 552.248V549.848H269.024V563.288C269.024 566.912 266.6 569.48 262.736 569.48C259.28 569.48 256.808 567.728 256.376 564.92H258.536C259.016 566.504 260.576 567.584 262.736 567.584C265.064 567.584 266.816 566.096 266.816 563.288V560.528C266.024 561.944 264.32 563.216 261.92 563.216C258.392 563.216 255.68 560.456 255.68 556.376ZM266.816 556.4C266.816 553.352 264.752 551.528 262.352 551.528C259.952 551.528 257.912 553.28 257.912 556.376C257.912 559.472 259.952 561.296 262.352 561.296C264.752 561.296 266.816 559.496 266.816 556.4ZM277.707 560.504L281.787 549.848H284.043L276.123 569.192H273.867L276.459 562.856L271.155 549.848H273.579L277.707 560.504ZM288.375 561.656C288.375 562.496 287.727 563.144 286.935 563.144C286.095 563.144 285.447 562.496 285.447 561.656C285.447 560.816 286.095 560.168 286.935 560.168C287.727 560.168 288.375 560.816 288.375 561.656Z" fill="#595959"/>
<g filter="url(#filter2_d_1455_1900)">
<g clip-path="url(#clip1_1455_1900)">
<rect x="4" y="18" width="455" height="305" rx="8.17476" fill="white"/>
<rect x="71" y="21.0859" width="331.568" height="302.914" rx="6.82239" fill="white"/>
<path d="M196.449 55.2288C199.574 55.2288 201.498 57.0572 201.498 60.0045C201.498 62.9518 199.574 64.7393 196.449 64.7393H193.488V55.2288H196.449ZM194.73 63.7159H196.449C198.932 63.7159 200.229 62.3241 200.229 60.0045C200.229 57.6849 198.932 56.2386 196.449 56.2386H194.73V63.7159ZM206.997 58.1898C205.783 58.1898 204.773 58.9948 204.636 60.4548H209.357C209.371 58.9948 208.28 58.1898 206.997 58.1898ZM210.49 62.4333C210.108 63.7978 208.907 64.8621 207.051 64.8621C204.923 64.8621 203.354 63.3611 203.354 60.9869C203.354 58.6264 204.868 57.1391 207.051 57.1391C209.221 57.1391 210.64 58.6673 210.64 60.714C210.64 60.9869 210.626 61.2053 210.599 61.4645H204.623C204.718 62.9791 205.783 63.8114 207.051 63.8114C208.17 63.8114 208.88 63.2383 209.153 62.4333H210.49ZM212.074 57.2619H213.412L215.745 63.5931L218.064 57.2619H219.388L216.454 64.7393H215.008L212.074 57.2619ZM221.292 64.7393V57.2619H222.534V64.7393H221.292ZM221.933 56.0475C221.456 56.0475 221.087 55.6791 221.087 55.2016C221.087 54.724 221.456 54.3556 221.933 54.3556C222.384 54.3556 222.752 54.724 222.752 55.2016C222.752 55.6791 222.384 56.0475 221.933 56.0475ZM224.868 60.9869C224.868 58.64 226.383 57.1391 228.511 57.1391C230.367 57.1391 231.581 58.0943 231.964 59.6634H230.626C230.367 58.7628 229.617 58.1898 228.511 58.1898C227.147 58.1898 226.137 59.1585 226.137 60.9869C226.137 62.8426 227.147 63.8114 228.511 63.8114C229.617 63.8114 230.353 63.2793 230.626 62.3378H231.964C231.581 63.8251 230.367 64.8621 228.511 64.8621C226.383 64.8621 224.868 63.3611 224.868 60.9869ZM237.482 58.1898C236.267 58.1898 235.258 58.9948 235.121 60.4548H239.842C239.856 58.9948 238.764 58.1898 237.482 58.1898ZM240.975 62.4333C240.593 63.7978 239.392 64.8621 237.536 64.8621C235.408 64.8621 233.839 63.3611 233.839 60.9869C233.839 58.6264 235.353 57.1391 237.536 57.1391C239.706 57.1391 241.125 58.6673 241.125 60.714C241.125 60.9869 241.111 61.2053 241.084 61.4645H235.108C235.203 62.9791 236.267 63.8114 237.536 63.8114C238.655 63.8114 239.365 63.2383 239.638 62.4333H240.975ZM247.179 56.2386V55.2288H253.62V56.2386H251.027V64.7393H249.786V56.2386H247.179ZM258.669 63.3202L260.988 57.2619H262.271L257.768 68.2596H256.485L257.959 64.6574L254.943 57.2619H256.322L258.669 63.3202ZM265.443 58.64C265.893 57.8486 266.876 57.1391 268.24 57.1391C270.246 57.1391 271.788 58.64 271.788 60.9733C271.788 63.2929 270.246 64.8621 268.24 64.8621C266.876 64.8621 265.907 64.1252 265.443 63.3611V68.2869H264.201V57.2619H265.443V58.64ZM270.519 60.9733C270.519 59.2131 269.359 58.2171 267.981 58.2171C266.63 58.2171 265.443 59.2541 265.443 60.9869C265.443 62.7471 266.63 63.7705 267.981 63.7705C269.359 63.7705 270.519 62.7335 270.519 60.9733ZM277.284 58.1898C276.069 58.1898 275.059 58.9948 274.923 60.4548H279.644C279.658 58.9948 278.566 58.1898 277.284 58.1898ZM280.777 62.4333C280.395 63.7978 279.194 64.8621 277.338 64.8621C275.209 64.8621 273.64 63.3611 273.64 60.9869C273.64 58.6264 275.155 57.1391 277.338 57.1391C279.508 57.1391 280.927 58.6673 280.927 60.714C280.927 60.9869 280.913 61.2053 280.886 61.4645H274.909C275.005 62.9791 276.069 63.8114 277.338 63.8114C278.457 63.8114 279.166 63.2383 279.439 62.4333H280.777Z" fill="#282636"/>
<path d="M114.428 205.011L106.489 205.011L106.489 202.329C106.489 201.706 106.601 201.197 106.826 200.802C107.048 200.404 107.35 200.109 107.729 199.918C108.109 199.727 108.533 199.631 109.001 199.631C109.469 199.631 109.894 199.727 110.276 199.918C110.659 200.106 110.964 200.398 111.191 200.794C111.416 201.189 111.528 201.696 111.528 202.313L111.528 204.236L110.675 204.236L110.675 202.344C110.675 201.918 110.602 201.576 110.454 201.317C110.307 201.059 110.108 200.871 109.858 200.755C109.604 200.636 109.319 200.577 109.001 200.577C108.683 200.577 108.399 200.636 108.148 200.755C107.897 200.871 107.701 201.06 107.559 201.321C107.414 201.582 107.342 201.928 107.342 202.36L107.342 204.05L114.428 204.05L114.428 205.011ZM114.552 195.774C114.552 196.348 114.425 196.843 114.172 197.259C113.916 197.672 113.559 197.991 113.102 198.216C112.642 198.438 112.107 198.549 111.497 198.549C110.887 198.549 110.35 198.438 109.885 198.216C109.417 197.991 109.053 197.679 108.792 197.278C108.528 196.875 108.396 196.405 108.396 195.867C108.396 195.557 108.448 195.251 108.551 194.948C108.655 194.646 108.823 194.371 109.055 194.123C109.285 193.875 109.59 193.677 109.97 193.53C110.35 193.382 110.818 193.309 111.373 193.309L111.761 193.309L111.761 197.898L110.97 197.898L110.97 194.239C110.634 194.239 110.334 194.306 110.071 194.44C109.807 194.572 109.599 194.761 109.447 195.006C109.294 195.249 109.218 195.536 109.218 195.867C109.218 196.231 109.308 196.547 109.489 196.813C109.668 197.076 109.9 197.279 110.187 197.421C110.474 197.564 110.781 197.635 111.11 197.635L111.637 197.635C112.086 197.635 112.468 197.557 112.78 197.402C113.09 197.244 113.327 197.026 113.49 196.747C113.65 196.468 113.73 196.144 113.73 195.774C113.73 195.534 113.696 195.317 113.629 195.123C113.559 194.926 113.456 194.757 113.319 194.615C113.18 194.473 113.006 194.363 112.8 194.285L113.048 193.402C113.348 193.495 113.611 193.651 113.839 193.871C114.063 194.09 114.239 194.362 114.366 194.685C114.49 195.008 114.552 195.371 114.552 195.774ZM114.428 191.917L108.474 191.917L108.474 191.033L109.373 191.033L109.373 190.971C109.078 190.863 108.839 190.666 108.656 190.382C108.472 190.098 108.381 189.777 108.381 189.421C108.381 189.353 108.382 189.269 108.384 189.169C108.387 189.068 108.391 188.992 108.396 188.94L109.326 188.94C109.319 188.971 109.307 189.042 109.292 189.153C109.273 189.262 109.264 189.377 109.264 189.498C109.264 189.788 109.325 190.046 109.447 190.273C109.565 190.498 109.731 190.677 109.943 190.808C110.152 190.938 110.391 191.002 110.66 191.002L114.428 191.002L114.428 191.917ZM114.552 185.618C114.552 186.176 114.42 186.657 114.156 187.06C113.893 187.463 113.53 187.773 113.067 187.99C112.605 188.207 112.076 188.316 111.482 188.316C110.877 188.316 110.343 188.205 109.881 187.982C109.416 187.758 109.053 187.445 108.792 187.044C108.528 186.641 108.396 186.171 108.396 185.633C108.396 185.215 108.474 184.837 108.629 184.502C108.784 184.166 109.001 183.89 109.28 183.676C109.559 183.461 109.885 183.328 110.257 183.277L110.257 184.191C109.985 184.261 109.745 184.416 109.536 184.657C109.324 184.894 109.218 185.215 109.218 185.618C109.218 185.975 109.311 186.287 109.497 186.556C109.68 186.822 109.94 187.03 110.276 187.18C110.61 187.327 111.001 187.401 111.451 187.401C111.911 187.401 112.311 187.329 112.652 187.184C112.993 187.037 113.258 186.83 113.447 186.564C113.636 186.295 113.73 185.98 113.73 185.618C113.73 185.38 113.689 185.164 113.606 184.971C113.523 184.777 113.404 184.613 113.249 184.478C113.094 184.344 112.908 184.248 112.691 184.191L112.691 183.277C113.043 183.328 113.359 183.456 113.641 183.66C113.92 183.862 114.142 184.129 114.308 184.463C114.47 184.794 114.552 185.179 114.552 185.618ZM114.552 179.443C114.552 180.017 114.425 180.511 114.172 180.928C113.916 181.341 113.559 181.66 113.102 181.885C112.642 182.107 112.107 182.218 111.497 182.218C110.887 182.218 110.35 182.107 109.885 181.885C109.417 181.66 109.053 181.347 108.792 180.947C108.528 180.544 108.396 180.073 108.396 179.536C108.396 179.226 108.448 178.92 108.551 178.617C108.655 178.315 108.823 178.04 109.055 177.792C109.285 177.543 109.59 177.346 109.97 177.198C110.35 177.051 110.818 176.978 111.373 176.978L111.761 176.978L111.761 181.567L110.97 181.567L110.97 177.908C110.634 177.908 110.334 177.975 110.071 178.109C109.807 178.241 109.599 178.43 109.447 178.675C109.294 178.918 109.218 179.205 109.218 179.536C109.218 179.9 109.308 180.216 109.489 180.482C109.668 180.745 109.9 180.948 110.187 181.09C110.474 181.232 110.781 181.304 111.11 181.304L111.637 181.304C112.086 181.304 112.468 181.226 112.78 181.071C113.09 180.913 113.327 180.695 113.49 180.416C113.65 180.137 113.73 179.812 113.73 179.443C113.73 179.203 113.696 178.985 113.629 178.792C113.559 178.595 113.456 178.426 113.319 178.284C113.18 178.142 113.006 178.032 112.8 177.954L113.048 177.071C113.348 177.164 113.611 177.32 113.839 177.54C114.063 177.759 114.239 178.031 114.366 178.354C114.49 178.677 114.552 179.04 114.552 179.443ZM110.846 174.671L114.428 174.671L114.428 175.586L108.474 175.586L108.474 174.702L109.404 174.702L109.404 174.625C109.102 174.485 108.859 174.273 108.675 173.989C108.489 173.705 108.396 173.338 108.396 172.888C108.396 172.485 108.479 172.132 108.644 171.83C108.807 171.527 109.055 171.292 109.388 171.124C109.719 170.956 110.138 170.872 110.644 170.872L114.428 170.872L114.428 171.787L110.706 171.787C110.239 171.787 109.874 171.909 109.613 172.151C109.35 172.394 109.218 172.728 109.218 173.152C109.218 173.444 109.281 173.705 109.408 173.935C109.534 174.162 109.719 174.342 109.962 174.473C110.205 174.605 110.5 174.671 110.846 174.671ZM108.474 166.611L109.249 166.611L109.249 169.697L108.474 169.697L108.474 166.611ZM107.047 168.797L107.047 167.883L112.722 167.883C112.981 167.883 113.174 167.845 113.304 167.77C113.43 167.693 113.515 167.594 113.559 167.476C113.601 167.354 113.621 167.226 113.621 167.092C113.621 166.991 113.616 166.908 113.606 166.844C113.593 166.779 113.583 166.727 113.575 166.689L114.397 166.503C114.42 166.565 114.443 166.651 114.466 166.762C114.492 166.873 114.505 167.014 114.505 167.185C114.505 167.443 114.45 167.697 114.339 167.945C114.227 168.19 114.058 168.394 113.831 168.557C113.603 168.717 113.317 168.797 112.97 168.797L107.047 168.797ZM114.567 163.483C114.567 163.86 114.496 164.203 114.354 164.51C114.209 164.818 114.001 165.062 113.73 165.243C113.456 165.424 113.125 165.514 112.738 165.514C112.397 165.514 112.12 165.447 111.908 165.313C111.694 165.178 111.526 164.999 111.404 164.774C111.283 164.549 111.192 164.301 111.133 164.029C111.071 163.756 111.022 163.48 110.986 163.204C110.939 162.842 110.904 162.549 110.881 162.324C110.855 162.096 110.812 161.931 110.753 161.828C110.694 161.722 110.59 161.669 110.443 161.669L110.412 161.669C110.029 161.669 109.732 161.773 109.52 161.983C109.308 162.19 109.202 162.504 109.202 162.925C109.202 163.361 109.298 163.704 109.489 163.952C109.68 164.2 109.885 164.374 110.102 164.475L109.792 165.344C109.43 165.189 109.148 164.982 108.947 164.723C108.742 164.462 108.6 164.178 108.52 163.871C108.437 163.56 108.396 163.256 108.396 162.956C108.396 162.765 108.419 162.545 108.466 162.297C108.51 162.046 108.602 161.804 108.741 161.572C108.881 161.337 109.091 161.142 109.373 160.987C109.655 160.832 110.032 160.754 110.505 160.754L114.428 160.754L114.428 161.669L113.621 161.669L113.621 161.715C113.751 161.777 113.889 161.881 114.036 162.025C114.184 162.17 114.309 162.363 114.412 162.603C114.516 162.843 114.567 163.137 114.567 163.483ZM113.745 163.343C113.745 162.982 113.674 162.677 113.532 162.429C113.39 162.178 113.207 161.989 112.982 161.863C112.757 161.733 112.521 161.669 112.272 161.669L111.435 161.669C111.482 161.708 111.524 161.793 111.563 161.925C111.599 162.054 111.632 162.204 111.66 162.374C111.686 162.542 111.709 162.706 111.73 162.867C111.748 163.024 111.763 163.152 111.776 163.25C111.807 163.488 111.858 163.71 111.927 163.917C111.995 164.121 112.097 164.287 112.234 164.413C112.368 164.537 112.552 164.599 112.784 164.599C113.102 164.599 113.342 164.482 113.505 164.247C113.665 164.009 113.745 163.708 113.745 163.343ZM116.785 156.681C116.785 157.123 116.728 157.503 116.614 157.821C116.503 158.138 116.356 158.403 116.172 158.615C115.991 158.825 115.797 158.991 115.591 159.115L115.079 158.386C115.187 158.304 115.312 158.199 115.451 158.073C115.593 157.946 115.716 157.773 115.819 157.553C115.925 157.331 115.978 157.04 115.978 156.681C115.978 156.2 115.862 155.804 115.629 155.491C115.397 155.178 115.032 155.022 114.536 155.022L113.327 155.022L113.327 155.099C113.435 155.167 113.57 155.262 113.73 155.386C113.888 155.508 114.028 155.683 114.153 155.913C114.274 156.141 114.335 156.448 114.335 156.836C114.335 157.317 114.221 157.748 113.994 158.131C113.766 158.511 113.435 158.812 113.001 159.034C112.567 159.254 112.04 159.363 111.42 159.363C110.81 159.363 110.279 159.256 109.826 159.042C109.372 158.827 109.02 158.529 108.772 158.146C108.521 157.764 108.396 157.322 108.396 156.82C108.396 156.433 108.461 156.125 108.59 155.898C108.717 155.668 108.861 155.492 109.024 155.371C109.184 155.247 109.316 155.151 109.419 155.084L109.419 154.991L108.474 154.991L108.474 154.107L114.598 154.107C115.11 154.107 115.526 154.223 115.846 154.456C116.17 154.686 116.406 154.996 116.556 155.386C116.708 155.774 116.785 156.205 116.785 156.681ZM113.513 156.712C113.513 156.345 113.429 156.035 113.261 155.782C113.093 155.528 112.851 155.336 112.536 155.204C112.221 155.072 111.843 155.006 111.404 155.006C110.975 155.006 110.597 155.071 110.268 155.2C109.94 155.329 109.683 155.521 109.497 155.774C109.311 156.027 109.218 156.34 109.218 156.712C109.218 157.1 109.316 157.423 109.513 157.681C109.709 157.937 109.973 158.129 110.303 158.259C110.634 158.385 111.001 158.449 111.404 158.449C111.818 158.449 112.183 158.384 112.501 158.255C112.816 158.123 113.065 157.929 113.245 157.673C113.424 157.415 113.513 157.094 113.513 156.712ZM114.552 149.936C114.552 150.51 114.425 151.005 114.172 151.421C113.916 151.834 113.559 152.153 113.102 152.378C112.642 152.6 112.107 152.712 111.497 152.712C110.887 152.712 110.35 152.6 109.885 152.378C109.417 152.153 109.053 151.841 108.792 151.44C108.528 151.037 108.396 150.567 108.396 150.029C108.396 149.719 108.448 149.413 108.551 149.11C108.655 148.808 108.823 148.533 109.055 148.285C109.285 148.037 109.59 147.839 109.97 147.692C110.35 147.544 110.818 147.471 111.373 147.471L111.761 147.471L111.761 152.06L110.97 152.06L110.97 148.401C110.634 148.401 110.334 148.468 110.071 148.603C109.807 148.734 109.599 148.923 109.447 149.169C109.294 149.411 109.218 149.698 109.218 150.029C109.218 150.393 109.308 150.709 109.489 150.975C109.668 151.238 109.9 151.441 110.187 151.583C110.474 151.726 110.781 151.797 111.11 151.797L111.637 151.797C112.086 151.797 112.468 151.719 112.78 151.564C113.09 151.406 113.327 151.188 113.49 150.909C113.65 150.63 113.73 150.306 113.73 149.936C113.73 149.696 113.696 149.479 113.629 149.285C113.559 149.088 113.456 148.919 113.319 148.777C113.18 148.635 113.006 148.525 112.8 148.448L113.048 147.564C113.348 147.657 113.611 147.813 113.839 148.033C114.063 148.252 114.239 148.524 114.366 148.847C114.49 149.17 114.552 149.533 114.552 149.936Z" fill="black"/>
<path d="M227.232 293.065H224.782V285.127H227.34C228.11 285.127 228.769 285.286 229.317 285.603C229.865 285.919 230.285 286.372 230.577 286.964C230.869 287.553 231.015 288.259 231.015 289.081C231.015 289.907 230.868 290.619 230.573 291.216C230.278 291.811 229.849 292.268 229.286 292.589C228.723 292.906 228.038 293.065 227.232 293.065ZM225.743 292.213H227.169C227.826 292.213 228.37 292.086 228.801 291.833C229.233 291.579 229.555 291.219 229.767 290.751C229.979 290.283 230.085 289.727 230.085 289.081C230.085 288.44 229.98 287.888 229.771 287.425C229.561 286.96 229.249 286.604 228.832 286.355C228.416 286.105 227.898 285.979 227.278 285.979H225.743V292.213ZM235 293.189C234.426 293.189 233.931 293.063 233.515 292.81C233.102 292.554 232.782 292.197 232.558 291.74C232.335 291.28 232.224 290.745 232.224 290.135C232.224 289.525 232.335 288.988 232.558 288.522C232.782 288.055 233.095 287.69 233.496 287.429C233.899 287.166 234.369 287.034 234.907 287.034C235.217 287.034 235.523 287.086 235.825 287.189C236.128 287.292 236.403 287.46 236.651 287.693C236.899 287.923 237.097 288.228 237.244 288.608C237.391 288.988 237.465 289.455 237.465 290.011V290.398H232.875V289.608H236.535C236.535 289.272 236.468 288.972 236.333 288.708C236.201 288.445 236.013 288.237 235.767 288.084C235.524 287.932 235.237 287.856 234.907 287.856C234.542 287.856 234.227 287.946 233.961 288.127C233.697 288.305 233.494 288.538 233.352 288.825C233.21 289.112 233.139 289.419 233.139 289.747V290.274C233.139 290.724 233.217 291.105 233.372 291.418C233.529 291.728 233.748 291.965 234.027 292.127C234.306 292.288 234.63 292.368 235 292.368C235.24 292.368 235.457 292.334 235.651 292.267C235.847 292.197 236.017 292.094 236.159 291.957C236.301 291.817 236.411 291.644 236.488 291.437L237.372 291.685C237.279 291.985 237.123 292.249 236.903 292.476C236.683 292.701 236.412 292.877 236.089 293.003C235.766 293.127 235.403 293.189 235 293.189ZM243.544 287.111L241.342 293.065H240.412L238.21 287.111H239.203L240.846 291.856H240.908L242.552 287.111H243.544ZM244.752 293.065V287.111H245.666V293.065H244.752ZM245.217 286.119C245.039 286.119 244.885 286.058 244.756 285.937C244.629 285.815 244.566 285.669 244.566 285.499C244.566 285.328 244.629 285.182 244.756 285.061C244.885 284.939 245.039 284.879 245.217 284.879C245.395 284.879 245.548 284.939 245.674 285.061C245.803 285.182 245.868 285.328 245.868 285.499C245.868 285.669 245.803 285.815 245.674 285.937C245.548 286.058 245.395 286.119 245.217 286.119ZM249.761 293.189C249.203 293.189 248.722 293.058 248.319 292.794C247.916 292.53 247.606 292.167 247.389 291.705C247.171 291.242 247.063 290.714 247.063 290.119C247.063 289.515 247.174 288.981 247.396 288.518C247.621 288.053 247.934 287.69 248.334 287.429C248.738 287.166 249.208 287.034 249.745 287.034C250.164 287.034 250.541 287.111 250.877 287.266C251.213 287.421 251.488 287.639 251.703 287.918C251.917 288.197 252.051 288.522 252.102 288.894H251.187C251.118 288.623 250.963 288.383 250.722 288.173C250.484 287.962 250.164 287.856 249.761 287.856C249.404 287.856 249.092 287.949 248.823 288.135C248.557 288.318 248.349 288.578 248.199 288.914C248.051 289.247 247.978 289.639 247.978 290.088C247.978 290.548 248.05 290.949 248.195 291.29C248.342 291.631 248.549 291.896 248.815 292.085C249.084 292.273 249.399 292.368 249.761 292.368C249.999 292.368 250.214 292.326 250.408 292.244C250.602 292.161 250.766 292.042 250.901 291.887C251.035 291.732 251.131 291.546 251.187 291.329H252.102C252.051 291.68 251.923 291.997 251.718 292.279C251.517 292.558 251.249 292.78 250.916 292.945C250.585 293.108 250.2 293.189 249.761 293.189ZM255.936 293.189C255.362 293.189 254.867 293.063 254.451 292.81C254.038 292.554 253.719 292.197 253.494 291.74C253.272 291.28 253.16 290.745 253.16 290.135C253.16 289.525 253.272 288.988 253.494 288.522C253.719 288.055 254.031 287.69 254.432 287.429C254.835 287.166 255.305 287.034 255.843 287.034C256.153 287.034 256.459 287.086 256.762 287.189C257.064 287.292 257.339 287.46 257.587 287.693C257.835 287.923 258.033 288.228 258.18 288.608C258.328 288.988 258.401 289.455 258.401 290.011V290.398H253.812V289.608H257.471C257.471 289.272 257.404 288.972 257.269 288.708C257.138 288.445 256.949 288.237 256.703 288.084C256.461 287.932 256.174 287.856 255.843 287.856C255.479 287.856 255.163 287.946 254.897 288.127C254.633 288.305 254.431 288.538 254.288 288.825C254.146 289.112 254.075 289.419 254.075 289.747V290.274C254.075 290.724 254.153 291.105 254.308 291.418C254.466 291.728 254.684 291.965 254.963 292.127C255.242 292.288 255.566 292.368 255.936 292.368C256.176 292.368 256.393 292.334 256.587 292.267C256.784 292.197 256.953 292.094 257.095 291.957C257.237 291.817 257.347 291.644 257.424 291.437L258.308 291.685C258.215 291.985 258.059 292.249 257.839 292.476C257.62 292.701 257.348 292.877 257.025 293.003C256.702 293.127 256.339 293.189 255.936 293.189ZM262.553 285.979V285.127H268.507V285.979H266.011V293.065H265.049V285.979H262.553ZM269.774 295.298C269.619 295.298 269.48 295.285 269.359 295.259C269.237 295.236 269.153 295.213 269.107 295.19L269.339 294.383C269.562 294.44 269.758 294.461 269.929 294.445C270.099 294.43 270.25 294.354 270.382 294.217C270.517 294.082 270.639 293.864 270.75 293.562L270.921 293.096L268.719 287.111H269.712L271.355 291.856H271.417L273.061 287.111H274.053L271.526 293.934C271.412 294.241 271.271 294.496 271.103 294.697C270.935 294.902 270.74 295.053 270.518 295.151C270.298 295.249 270.05 295.298 269.774 295.298ZM275.261 295.298V287.111H276.144V288.057H276.253C276.32 287.954 276.413 287.822 276.532 287.662C276.653 287.499 276.827 287.354 277.051 287.228C277.279 287.098 277.586 287.034 277.974 287.034C278.475 287.034 278.917 287.159 279.3 287.41C279.682 287.66 279.981 288.016 280.195 288.476C280.41 288.936 280.517 289.479 280.517 290.104C280.517 290.734 280.41 291.281 280.195 291.744C279.981 292.204 279.683 292.56 279.304 292.813C278.924 293.064 278.486 293.189 277.99 293.189C277.607 293.189 277.301 293.126 277.071 293C276.841 292.87 276.664 292.724 276.54 292.562C276.416 292.396 276.32 292.259 276.253 292.151H276.175V295.298H275.261ZM276.16 290.088C276.16 290.538 276.226 290.935 276.358 291.278C276.489 291.62 276.682 291.887 276.935 292.081C277.188 292.272 277.498 292.368 277.865 292.368C278.248 292.368 278.567 292.267 278.823 292.065C279.081 291.861 279.275 291.587 279.404 291.244C279.536 290.897 279.602 290.512 279.602 290.088C279.602 289.67 279.537 289.292 279.408 288.956C279.282 288.618 279.089 288.35 278.831 288.154C278.575 287.955 278.253 287.856 277.865 287.856C277.493 287.856 277.181 287.95 276.927 288.139C276.674 288.325 276.483 288.586 276.354 288.922C276.224 289.255 276.16 289.644 276.16 290.088ZM284.409 293.189C283.835 293.189 283.34 293.063 282.924 292.81C282.511 292.554 282.191 292.197 281.967 291.74C281.744 291.28 281.633 290.745 281.633 290.135C281.633 289.525 281.744 288.988 281.967 288.522C282.191 288.055 282.504 287.69 282.905 287.429C283.308 287.166 283.778 287.034 284.316 287.034C284.626 287.034 284.932 287.086 285.234 287.189C285.537 287.292 285.812 287.46 286.06 287.693C286.308 287.923 286.506 288.228 286.653 288.608C286.8 288.988 286.874 289.455 286.874 290.011V290.398H282.285V289.608H285.944C285.944 289.272 285.877 288.972 285.742 288.708C285.61 288.445 285.422 288.237 285.176 288.084C284.933 287.932 284.647 287.856 284.316 287.856C283.951 287.856 283.636 287.946 283.37 288.127C283.106 288.305 282.903 288.538 282.761 288.825C282.619 289.112 282.548 289.419 282.548 289.747V290.274C282.548 290.724 282.626 291.105 282.781 291.418C282.938 291.728 283.157 291.965 283.436 292.127C283.715 292.288 284.039 292.368 284.409 292.368C284.649 292.368 284.866 292.334 285.06 292.267C285.256 292.197 285.426 292.094 285.568 291.957C285.71 291.817 285.82 291.644 285.897 291.437L286.781 291.685C286.688 291.985 286.532 292.249 286.312 292.476C286.092 292.701 285.821 292.877 285.498 293.003C285.175 293.127 284.812 293.189 284.409 293.189Z" fill="black"/>
<path d="M127.125 119.256C126.782 119.256 126.477 119.193 126.209 119.067C125.942 118.941 125.731 118.768 125.574 118.546C125.417 118.325 125.336 118.072 125.329 117.786H126.347C126.358 117.978 126.439 118.134 126.589 118.253C126.739 118.373 126.918 118.433 127.125 118.433C127.289 118.433 127.435 118.396 127.561 118.324C127.688 118.249 127.788 118.147 127.859 118.016C127.931 117.883 127.968 117.732 127.968 117.56C127.968 117.386 127.93 117.233 127.856 117.1C127.784 116.968 127.683 116.864 127.553 116.79C127.424 116.716 127.276 116.678 127.11 116.676C126.965 116.676 126.823 116.706 126.686 116.766C126.55 116.826 126.445 116.907 126.369 117.01L125.436 116.843L125.671 114.227H128.704V115.084H126.536L126.407 116.327H126.436C126.524 116.204 126.655 116.103 126.831 116.022C127.007 115.941 127.204 115.901 127.423 115.901C127.721 115.901 127.988 115.971 128.222 116.112C128.456 116.252 128.641 116.445 128.777 116.691C128.912 116.935 128.98 117.216 128.978 117.534C128.98 117.868 128.902 118.165 128.745 118.425C128.59 118.684 128.373 118.887 128.094 119.036C127.816 119.183 127.493 119.256 127.125 119.256ZM131.655 119.297C131.238 119.296 130.88 119.193 130.579 118.99C130.281 118.786 130.05 118.492 129.889 118.106C129.729 117.719 129.65 117.255 129.651 116.712C129.651 116.171 129.731 115.71 129.891 115.329C130.053 114.948 130.283 114.658 130.582 114.459C130.882 114.259 131.24 114.159 131.655 114.159C132.07 114.159 132.427 114.259 132.726 114.459C133.026 114.66 133.257 114.95 133.419 115.332C133.58 115.711 133.66 116.171 133.659 116.712C133.659 117.257 133.578 117.722 133.416 118.108C133.256 118.494 133.027 118.789 132.728 118.992C132.429 119.196 132.072 119.297 131.655 119.297ZM131.655 118.428C131.939 118.428 132.166 118.285 132.336 117.999C132.505 117.713 132.589 117.284 132.588 116.712C132.588 116.336 132.549 116.023 132.471 115.772C132.396 115.522 132.287 115.334 132.147 115.208C132.008 115.082 131.844 115.019 131.655 115.019C131.372 115.019 131.146 115.16 130.977 115.443C130.807 115.726 130.721 116.149 130.72 116.712C130.72 117.094 130.758 117.412 130.834 117.667C130.911 117.921 131.02 118.111 131.161 118.239C131.301 118.365 131.466 118.428 131.655 118.428Z" fill="#767676"/>
<path d="M125.237 146.783V145.957L127.309 142.694H128.021V143.837H127.599L126.294 145.904V145.942H129.237V146.783H125.237ZM127.619 147.655V146.531L127.638 146.165V142.694H128.622V147.655H127.619ZM131.882 147.764C131.465 147.763 131.106 147.66 130.806 147.457C130.507 147.253 130.277 146.958 130.115 146.572C129.955 146.186 129.876 145.722 129.878 145.179C129.878 144.638 129.958 144.177 130.118 143.796C130.279 143.415 130.509 143.125 130.808 142.926C131.109 142.726 131.466 142.626 131.882 142.626C132.297 142.626 132.654 142.726 132.952 142.926C133.253 143.126 133.484 143.417 133.645 143.798C133.807 144.178 133.887 144.638 133.885 145.179C133.885 145.724 133.804 146.189 133.643 146.575C133.483 146.961 133.254 147.256 132.955 147.459C132.656 147.663 132.298 147.764 131.882 147.764ZM131.882 146.895C132.166 146.895 132.393 146.752 132.562 146.466C132.732 146.18 132.816 145.751 132.814 145.179C132.814 144.803 132.776 144.49 132.698 144.239C132.622 143.989 132.514 143.801 132.373 143.675C132.234 143.549 132.071 143.486 131.882 143.486C131.599 143.486 131.373 143.627 131.203 143.91C131.034 144.192 130.948 144.616 130.946 145.179C130.946 145.56 130.984 145.879 131.06 146.134C131.138 146.387 131.247 146.578 131.387 146.706C131.528 146.832 131.693 146.895 131.882 146.895Z" fill="#767676"/>
<path d="M127.146 176.191C126.785 176.191 126.462 176.129 126.18 176.004C125.899 175.878 125.677 175.706 125.513 175.486C125.352 175.265 125.269 175.009 125.264 174.72H126.32C126.327 174.841 126.366 174.948 126.439 175.04C126.513 175.131 126.612 175.201 126.734 175.251C126.857 175.301 126.995 175.326 127.149 175.326C127.309 175.326 127.45 175.298 127.573 175.241C127.695 175.185 127.792 175.106 127.861 175.006C127.93 174.906 127.965 174.791 127.965 174.66C127.965 174.527 127.928 174.41 127.854 174.308C127.781 174.205 127.676 174.124 127.539 174.066C127.403 174.008 127.242 173.979 127.054 173.979H126.592V173.209H127.054C127.213 173.209 127.352 173.181 127.473 173.126C127.596 173.071 127.691 172.995 127.759 172.898C127.827 172.8 127.861 172.685 127.861 172.554C127.861 172.43 127.831 172.321 127.771 172.227C127.713 172.132 127.631 172.058 127.524 172.004C127.419 171.951 127.297 171.924 127.156 171.924C127.014 171.924 126.884 171.95 126.766 172.002C126.648 172.052 126.554 172.124 126.483 172.218C126.411 172.311 126.373 172.421 126.369 172.547H125.363C125.368 172.261 125.45 172.009 125.608 171.791C125.766 171.573 125.979 171.403 126.247 171.28C126.517 171.156 126.822 171.093 127.161 171.093C127.503 171.093 127.803 171.156 128.06 171.28C128.317 171.404 128.516 171.572 128.658 171.784C128.802 171.994 128.873 172.23 128.871 172.491C128.873 172.769 128.787 173.001 128.612 173.187C128.439 173.372 128.214 173.49 127.936 173.54V173.579C128.301 173.626 128.579 173.753 128.77 173.96C128.962 174.165 129.057 174.421 129.055 174.73C129.057 175.013 128.975 175.264 128.811 175.483C128.648 175.703 128.422 175.876 128.135 176.002C127.847 176.128 127.518 176.191 127.146 176.191ZM131.755 176.232C131.338 176.23 130.98 176.128 130.679 175.924C130.38 175.721 130.15 175.426 129.989 175.04C129.829 174.654 129.75 174.19 129.751 173.647C129.751 173.106 129.831 172.645 129.991 172.264C130.153 171.882 130.383 171.593 130.682 171.394C130.982 171.194 131.34 171.093 131.755 171.093C132.17 171.093 132.527 171.194 132.826 171.394C133.126 171.594 133.357 171.885 133.519 172.266C133.68 172.646 133.76 173.106 133.759 173.647C133.759 174.191 133.678 174.656 133.516 175.043C133.356 175.429 133.127 175.723 132.828 175.927C132.529 176.13 132.172 176.232 131.755 176.232ZM131.755 175.362C132.039 175.362 132.266 175.219 132.436 174.933C132.605 174.648 132.689 174.219 132.688 173.647C132.688 173.271 132.649 172.957 132.571 172.707C132.496 172.457 132.387 172.268 132.247 172.143C132.108 172.017 131.944 171.954 131.755 171.954C131.472 171.954 131.246 172.095 131.077 172.378C130.907 172.66 130.821 173.083 130.82 173.647C130.82 174.028 130.858 174.346 130.934 174.602C131.011 174.855 131.12 175.046 131.261 175.173C131.401 175.299 131.566 175.362 131.755 175.362Z" fill="#767676"/>
<path d="M126.312 204.59V203.834L128.078 202.199C128.229 202.053 128.355 201.922 128.456 201.806C128.56 201.69 128.638 201.576 128.691 201.465C128.745 201.351 128.771 201.23 128.771 201.099C128.771 200.953 128.738 200.828 128.672 200.723C128.606 200.617 128.515 200.535 128.401 200.478C128.286 200.42 128.156 200.391 128.011 200.391C127.859 200.391 127.726 200.422 127.613 200.483C127.5 200.545 127.413 200.633 127.352 200.747C127.29 200.862 127.26 200.999 127.26 201.157H126.264C126.264 200.832 126.337 200.55 126.484 200.311C126.631 200.072 126.837 199.887 127.102 199.757C127.367 199.626 127.672 199.56 128.018 199.56C128.373 199.56 128.683 199.623 128.946 199.749C129.211 199.874 129.417 200.046 129.564 200.268C129.711 200.489 129.784 200.743 129.784 201.028C129.784 201.216 129.747 201.401 129.673 201.583C129.6 201.766 129.47 201.968 129.283 202.191C129.095 202.413 128.831 202.678 128.49 202.988L127.766 203.698V203.732H129.85V204.59H126.312ZM132.555 204.699C132.138 204.697 131.78 204.595 131.479 204.391C131.181 204.188 130.95 203.893 130.789 203.507C130.629 203.121 130.55 202.657 130.551 202.114C130.551 201.573 130.631 201.112 130.791 200.73C130.953 200.349 131.183 200.059 131.482 199.861C131.782 199.66 132.14 199.56 132.555 199.56C132.97 199.56 133.327 199.66 133.626 199.861C133.926 200.061 134.157 200.352 134.319 200.733C134.48 201.112 134.56 201.573 134.559 202.114C134.559 202.658 134.478 203.123 134.316 203.509C134.157 203.895 133.927 204.19 133.628 204.394C133.33 204.597 132.972 204.699 132.555 204.699ZM132.555 203.829C132.839 203.829 133.066 203.686 133.236 203.4C133.405 203.114 133.489 202.686 133.488 202.114C133.488 201.737 133.449 201.424 133.372 201.174C133.296 200.923 133.187 200.735 133.047 200.609C132.908 200.483 132.744 200.42 132.555 200.42C132.272 200.42 132.046 200.562 131.877 200.844C131.707 201.127 131.622 201.55 131.62 202.114C131.62 202.495 131.658 202.813 131.734 203.068C131.811 203.322 131.92 203.513 132.061 203.64C132.201 203.766 132.366 203.829 132.555 203.829Z" fill="#767676"/>
<path d="M128.471 228.096V233.058H127.422V229.092H127.393L126.257 229.804V228.874L127.485 228.096H128.471ZM131.596 233.167C131.179 233.165 130.82 233.062 130.52 232.859C130.221 232.655 129.991 232.361 129.83 231.975C129.67 231.589 129.59 231.124 129.592 230.582C129.592 230.041 129.672 229.579 129.832 229.198C129.993 228.817 130.224 228.527 130.522 228.328C130.823 228.128 131.181 228.028 131.596 228.028C132.011 228.028 132.368 228.128 132.667 228.328C132.967 228.529 133.198 228.819 133.359 229.201C133.521 229.58 133.601 230.041 133.599 230.582C133.599 231.126 133.519 231.591 133.357 231.977C133.197 232.363 132.968 232.658 132.669 232.861C132.37 233.065 132.012 233.167 131.596 233.167ZM131.596 232.297C131.88 232.297 132.107 232.154 132.276 231.868C132.446 231.582 132.53 231.153 132.528 230.582C132.528 230.205 132.49 229.892 132.412 229.642C132.336 229.391 132.228 229.203 132.087 229.077C131.949 228.951 131.785 228.888 131.596 228.888C131.313 228.888 131.087 229.029 130.917 229.312C130.748 229.595 130.662 230.018 130.661 230.582C130.661 230.963 130.698 231.281 130.774 231.536C130.852 231.79 130.961 231.98 131.101 232.108C131.242 232.234 131.407 232.297 131.596 232.297Z" fill="#767676"/>
<path d="M132.258 261.633C131.841 261.632 131.483 261.529 131.182 261.326C130.883 261.122 130.653 260.827 130.492 260.441C130.332 260.055 130.253 259.591 130.254 259.048C130.254 258.507 130.334 258.046 130.494 257.665C130.656 257.284 130.886 256.994 131.185 256.795C131.485 256.595 131.843 256.495 132.258 256.495C132.673 256.495 133.03 256.595 133.329 256.795C133.629 256.996 133.86 257.286 134.022 257.667C134.183 258.047 134.263 258.507 134.261 259.048C134.261 259.593 134.181 260.058 134.019 260.444C133.859 260.83 133.63 261.125 133.331 261.328C133.032 261.532 132.674 261.633 132.258 261.633ZM132.258 260.764C132.542 260.764 132.769 260.621 132.939 260.335C133.108 260.049 133.192 259.62 133.191 259.048C133.191 258.672 133.152 258.359 133.074 258.108C132.998 257.858 132.89 257.67 132.75 257.544C132.611 257.418 132.447 257.355 132.258 257.355C131.975 257.355 131.749 257.496 131.579 257.779C131.41 258.062 131.324 258.485 131.323 259.048C131.323 259.43 131.361 259.748 131.436 260.003C131.514 260.257 131.623 260.447 131.764 260.575C131.904 260.701 132.069 260.764 132.258 260.764Z" fill="#767676"/>
<line opacity="0.5" x1="144.338" y1="118.354" x2="369.8" y2="118.354" stroke="#B1B1B1" stroke-width="0.584099" stroke-dasharray="1.17 1.17"/>
<line opacity="0.5" x1="144.338" y1="147.009" x2="369.8" y2="147.009" stroke="#B1B1B1" stroke-width="0.584099" stroke-dasharray="1.17 1.17"/>
<line opacity="0.5" x1="144.338" y1="175.662" x2="369.8" y2="175.662" stroke="#B1B1B1" stroke-width="0.584099" stroke-dasharray="1.17 1.17"/>
<line opacity="0.5" x1="144.338" y1="204.316" x2="369.8" y2="204.316" stroke="#B1B1B1" stroke-width="0.584099" stroke-dasharray="1.17 1.17"/>
<line opacity="0.5" x1="144.338" y1="232.971" x2="369.8" y2="232.971" stroke="#B1B1B1" stroke-width="0.584099" stroke-dasharray="1.17 1.17"/>
<line opacity="0.5" x1="144.338" y1="261.695" x2="366.748" y2="261.695" stroke="#B1B1B1" stroke-width="0.44334"/>
<rect x="154.229" y="116.601" width="54.5791" height="145.317" rx="3.22345" fill="#D299FF"/>
<rect x="228.592" y="175.273" width="54.5791" height="86.6443" rx="3.22345" fill="#D299FF"/>
<rect x="302.957" y="204.609" width="54.5791" height="57.3081" rx="3.22345" fill="#D299FF"/>
<path d="M170.697 267.731H171.991L173.357 271.064H173.415L174.782 267.731H176.075V272.692H175.058V269.463H175.017L173.733 272.668H173.04L171.756 269.451H171.714V272.692H170.697V267.731ZM178.602 272.765C178.225 272.765 177.9 272.685 177.625 272.525C177.352 272.364 177.142 272.139 176.993 271.852C176.844 271.563 176.77 271.227 176.77 270.846C176.77 270.462 176.844 270.126 176.993 269.838C177.142 269.549 177.352 269.325 177.625 269.165C177.9 269.003 178.225 268.923 178.602 268.923C178.978 268.923 179.303 269.003 179.576 269.165C179.85 269.325 180.062 269.549 180.21 269.838C180.359 270.126 180.433 270.462 180.433 270.846C180.433 271.227 180.359 271.563 180.21 271.852C180.062 272.139 179.85 272.364 179.576 272.525C179.303 272.685 178.978 272.765 178.602 272.765ZM178.606 271.966C178.778 271.966 178.921 271.917 179.035 271.82C179.15 271.722 179.236 271.588 179.295 271.418C179.354 271.248 179.384 271.055 179.384 270.839C179.384 270.623 179.354 270.43 179.295 270.26C179.236 270.09 179.15 269.956 179.035 269.858C178.921 269.759 178.778 269.71 178.606 269.71C178.434 269.71 178.288 269.759 178.17 269.858C178.054 269.956 177.966 270.09 177.906 270.26C177.848 270.43 177.819 270.623 177.819 270.839C177.819 271.055 177.848 271.248 177.906 271.418C177.966 271.588 178.054 271.722 178.17 271.82C178.288 271.917 178.434 271.966 178.606 271.966ZM181.124 272.692V267.731H182.156V269.596H182.187C182.232 269.496 182.298 269.394 182.383 269.291C182.471 269.186 182.584 269.099 182.723 269.029C182.863 268.958 183.038 268.923 183.246 268.923C183.517 268.923 183.768 268.994 183.997 269.136C184.226 269.276 184.41 269.489 184.547 269.773C184.684 270.056 184.753 270.41 184.753 270.837C184.753 271.252 184.686 271.602 184.552 271.888C184.419 272.172 184.238 272.388 184.009 272.535C183.781 272.68 183.526 272.753 183.244 272.753C183.043 272.753 182.873 272.72 182.732 272.654C182.593 272.587 182.48 272.504 182.391 272.404C182.302 272.302 182.234 272.2 182.187 272.096H182.141V272.692H181.124ZM182.134 270.832C182.134 271.053 182.165 271.246 182.226 271.411C182.287 271.576 182.376 271.704 182.493 271.796C182.609 271.886 182.75 271.932 182.916 271.932C183.084 271.932 183.227 271.886 183.343 271.794C183.459 271.7 183.547 271.571 183.607 271.406C183.668 271.24 183.699 271.048 183.699 270.832C183.699 270.617 183.669 270.428 183.609 270.265C183.55 270.102 183.462 269.974 183.345 269.882C183.229 269.79 183.086 269.744 182.916 269.744C182.749 269.744 182.606 269.788 182.49 269.877C182.375 269.966 182.287 270.092 182.226 270.255C182.165 270.418 182.134 270.61 182.134 270.832ZM185.442 272.692V268.971H186.474V272.692H185.442ZM185.96 268.491C185.807 268.491 185.675 268.441 185.565 268.339C185.457 268.235 185.403 268.112 185.403 267.968C185.403 267.826 185.457 267.704 185.565 267.602C185.675 267.499 185.807 267.447 185.96 267.447C186.113 267.447 186.244 267.499 186.353 267.602C186.462 267.704 186.517 267.826 186.517 267.968C186.517 268.112 186.462 268.235 186.353 268.339C186.244 268.441 186.113 268.491 185.96 268.491ZM188.332 267.731V272.692H187.3V267.731H188.332ZM190.855 272.765C190.472 272.765 190.143 272.688 189.867 272.532C189.592 272.376 189.381 272.155 189.232 271.869C189.083 271.581 189.009 271.241 189.009 270.849C189.009 270.466 189.083 270.13 189.232 269.841C189.381 269.552 189.59 269.326 189.859 269.165C190.131 269.003 190.449 268.923 190.814 268.923C191.059 268.923 191.288 268.962 191.5 269.041C191.713 269.119 191.899 269.236 192.057 269.393C192.217 269.549 192.341 269.746 192.43 269.984C192.519 270.22 192.563 270.496 192.563 270.812V271.096H189.421V270.456H191.592C191.592 270.308 191.559 270.176 191.495 270.061C191.43 269.947 191.34 269.857 191.226 269.792C191.113 269.726 190.981 269.693 190.831 269.693C190.674 269.693 190.535 269.729 190.414 269.802C190.295 269.873 190.201 269.969 190.133 270.09C190.065 270.21 190.031 270.343 190.029 270.49V271.098C190.029 271.282 190.063 271.441 190.131 271.576C190.2 271.71 190.298 271.813 190.424 271.886C190.55 271.958 190.699 271.995 190.872 271.995C190.987 271.995 191.092 271.978 191.187 271.946C191.282 271.914 191.364 271.865 191.432 271.801C191.5 271.736 191.551 271.657 191.587 271.563L192.541 271.626C192.493 271.856 192.394 272.056 192.243 272.227C192.095 272.397 191.903 272.529 191.667 272.625C191.433 272.718 191.162 272.765 190.855 272.765Z" fill="#767676"/>
<path d="M243.212 272.692H241.453V267.731H243.226C243.725 267.731 244.155 267.83 244.515 268.029C244.875 268.226 245.152 268.509 245.346 268.879C245.541 269.249 245.639 269.691 245.639 270.207C245.639 270.724 245.541 271.168 245.346 271.539C245.152 271.911 244.874 272.196 244.51 272.394C244.148 272.593 243.716 272.692 243.212 272.692ZM242.502 271.794H243.168C243.478 271.794 243.739 271.739 243.951 271.629C244.164 271.517 244.324 271.345 244.43 271.113C244.538 270.879 244.593 270.577 244.593 270.207C244.593 269.84 244.538 269.54 244.43 269.308C244.324 269.075 244.165 268.904 243.953 268.794C243.741 268.684 243.481 268.629 243.17 268.629H242.502V271.794ZM248.093 272.765C247.71 272.765 247.381 272.688 247.104 272.532C246.83 272.376 246.618 272.155 246.47 271.869C246.321 271.581 246.247 271.241 246.247 270.849C246.247 270.466 246.321 270.13 246.47 269.841C246.618 269.552 246.827 269.326 247.097 269.165C247.368 269.003 247.687 268.923 248.052 268.923C248.297 268.923 248.526 268.962 248.737 269.041C248.95 269.119 249.136 269.236 249.294 269.393C249.454 269.549 249.579 269.746 249.668 269.984C249.756 270.22 249.801 270.496 249.801 270.812V271.096H246.659V270.456H248.829C248.829 270.308 248.797 270.176 248.732 270.061C248.668 269.947 248.578 269.857 248.463 269.792C248.35 269.726 248.219 269.693 248.069 269.693C247.912 269.693 247.773 269.729 247.652 269.802C247.532 269.873 247.439 269.969 247.371 270.09C247.303 270.21 247.268 270.343 247.267 270.49V271.098C247.267 271.282 247.301 271.441 247.368 271.576C247.438 271.71 247.536 271.813 247.662 271.886C247.788 271.958 247.937 271.995 248.11 271.995C248.224 271.995 248.329 271.978 248.425 271.946C248.52 271.914 248.602 271.865 248.669 271.801C248.737 271.736 248.789 271.657 248.824 271.563L249.779 271.626C249.731 271.856 249.631 272.056 249.481 272.227C249.332 272.397 249.14 272.529 248.904 272.625C248.67 272.718 248.4 272.765 248.093 272.765ZM253.571 270.032L252.626 270.09C252.61 270.01 252.575 269.937 252.522 269.872C252.468 269.806 252.398 269.754 252.311 269.715C252.225 269.674 252.123 269.654 252.003 269.654C251.843 269.654 251.708 269.688 251.598 269.756C251.489 269.822 251.434 269.911 251.434 270.023C251.434 270.111 251.469 270.186 251.54 270.248C251.611 270.309 251.733 270.358 251.906 270.396L252.58 270.531C252.941 270.606 253.211 270.725 253.389 270.89C253.567 271.055 253.655 271.271 253.655 271.539C253.655 271.783 253.584 271.997 253.44 272.181C253.298 272.365 253.102 272.509 252.853 272.612C252.606 272.714 252.321 272.765 251.998 272.765C251.506 272.765 251.113 272.663 250.821 272.457C250.53 272.251 250.36 271.97 250.31 271.614L251.325 271.561C251.355 271.711 251.43 271.826 251.548 271.905C251.666 271.983 251.817 272.021 252.001 272.021C252.182 272.021 252.327 271.987 252.437 271.917C252.548 271.846 252.605 271.755 252.606 271.643C252.605 271.55 252.565 271.473 252.488 271.413C252.41 271.352 252.291 271.305 252.129 271.273L251.485 271.144C251.121 271.072 250.851 270.946 250.673 270.766C250.497 270.587 250.409 270.358 250.409 270.081C250.409 269.842 250.474 269.636 250.603 269.463C250.734 269.29 250.917 269.157 251.153 269.063C251.39 268.969 251.668 268.923 251.986 268.923C252.456 268.923 252.826 269.022 253.096 269.221C253.367 269.419 253.525 269.69 253.571 270.032ZM255.24 271.622L255.243 270.384H255.393L256.585 268.971H257.77L256.168 270.841H255.924L255.24 271.622ZM254.305 272.692V267.731H255.337V272.692H254.305ZM256.631 272.692L255.536 271.072L256.224 270.342L257.84 272.692H256.631ZM260.255 268.971V269.746H258.014V268.971H260.255ZM258.523 268.08H259.555V271.549C259.555 271.644 259.57 271.718 259.599 271.772C259.628 271.823 259.668 271.86 259.72 271.881C259.773 271.902 259.835 271.912 259.904 271.912C259.953 271.912 260.001 271.908 260.05 271.9C260.098 271.89 260.135 271.883 260.161 271.878L260.323 272.646C260.272 272.663 260.199 272.681 260.105 272.702C260.012 272.725 259.898 272.738 259.764 272.743C259.515 272.753 259.297 272.72 259.11 272.644C258.924 272.568 258.779 272.45 258.676 272.29C258.573 272.13 258.522 271.928 258.523 271.685V268.08ZM262.569 272.765C262.193 272.765 261.867 272.685 261.593 272.525C261.32 272.364 261.109 272.139 260.96 271.852C260.812 271.563 260.738 271.227 260.738 270.846C260.738 270.462 260.812 270.126 260.96 269.838C261.109 269.549 261.32 269.325 261.593 269.165C261.867 269.003 262.193 268.923 262.569 268.923C262.946 268.923 263.27 269.003 263.543 269.165C263.818 269.325 264.029 269.549 264.178 269.838C264.326 270.126 264.401 270.462 264.401 270.846C264.401 271.227 264.326 271.563 264.178 271.852C264.029 272.139 263.818 272.364 263.543 272.525C263.27 272.685 262.946 272.765 262.569 272.765ZM262.574 271.966C262.745 271.966 262.888 271.917 263.003 271.82C263.118 271.722 263.204 271.588 263.262 271.418C263.322 271.248 263.352 271.055 263.352 270.839C263.352 270.623 263.322 270.43 263.262 270.26C263.204 270.09 263.118 269.956 263.003 269.858C262.888 269.759 262.745 269.71 262.574 269.71C262.401 269.71 262.256 269.759 262.138 269.858C262.022 269.956 261.934 270.09 261.874 270.26C261.816 270.43 261.787 270.623 261.787 270.839C261.787 271.055 261.816 271.248 261.874 271.418C261.934 271.588 262.022 271.722 262.138 271.82C262.256 271.917 262.401 271.966 262.574 271.966ZM265.072 274.088V268.971H266.089V269.596H266.135C266.181 269.496 266.246 269.394 266.332 269.291C266.419 269.186 266.532 269.099 266.671 269.029C266.811 268.958 266.986 268.923 267.194 268.923C267.466 268.923 267.716 268.994 267.945 269.136C268.175 269.276 268.358 269.489 268.495 269.773C268.632 270.056 268.701 270.41 268.701 270.837C268.701 271.252 268.634 271.602 268.5 271.888C268.368 272.172 268.187 272.388 267.957 272.535C267.73 272.68 267.474 272.753 267.192 272.753C266.991 272.753 266.821 272.72 266.681 272.654C266.542 272.587 266.428 272.504 266.339 272.404C266.25 272.302 266.182 272.2 266.135 272.096H266.104V274.088H265.072ZM266.082 270.832C266.082 271.053 266.113 271.246 266.174 271.411C266.236 271.576 266.324 271.704 266.441 271.796C266.557 271.886 266.698 271.932 266.865 271.932C267.033 271.932 267.175 271.886 267.291 271.794C267.407 271.7 267.495 271.571 267.555 271.406C267.617 271.24 267.647 271.048 267.647 270.832C267.647 270.617 267.617 270.428 267.558 270.265C267.498 270.102 267.41 269.974 267.293 269.882C267.177 269.79 267.034 269.744 266.865 269.744C266.697 269.744 266.555 269.788 266.438 269.877C266.324 269.966 266.236 270.092 266.174 270.255C266.113 270.418 266.082 270.61 266.082 270.832Z" fill="#767676"/>
<path d="M317.022 268.596V267.731H321.097V268.596H319.578V272.692H318.541V268.596H317.022ZM322.303 272.763C322.066 272.763 321.854 272.721 321.668 272.639C321.483 272.555 321.336 272.432 321.227 272.268C321.121 272.104 321.068 271.899 321.068 271.653C321.068 271.446 321.105 271.273 321.181 271.132C321.257 270.992 321.361 270.879 321.491 270.793C321.622 270.707 321.771 270.643 321.937 270.599C322.105 270.556 322.281 270.525 322.465 270.507C322.682 270.484 322.856 270.463 322.989 270.444C323.121 270.423 323.217 270.392 323.277 270.352C323.337 270.312 323.367 270.252 323.367 270.173V270.158C323.367 270.005 323.318 269.886 323.221 269.802C323.126 269.718 322.99 269.676 322.814 269.676C322.629 269.676 322.481 269.717 322.371 269.8C322.261 269.88 322.188 269.982 322.153 270.105L321.198 270.027C321.247 269.801 321.342 269.606 321.484 269.441C321.626 269.275 321.81 269.147 322.034 269.058C322.26 268.968 322.522 268.923 322.819 268.923C323.026 268.923 323.224 268.947 323.413 268.995C323.603 269.044 323.772 269.119 323.919 269.221C324.068 269.322 324.185 269.453 324.27 269.613C324.356 269.771 324.399 269.961 324.399 270.182V272.692H323.42V272.176H323.391C323.331 272.293 323.251 272.395 323.151 272.484C323.051 272.571 322.931 272.64 322.79 272.69C322.65 272.738 322.487 272.763 322.303 272.763ZM322.599 272.05C322.751 272.05 322.885 272.02 323.001 271.961C323.117 271.899 323.208 271.817 323.275 271.714C323.341 271.61 323.374 271.493 323.374 271.362V270.967C323.342 270.988 323.297 271.008 323.241 271.026C323.186 271.042 323.124 271.057 323.054 271.072C322.985 271.085 322.915 271.097 322.846 271.108C322.776 271.118 322.713 271.126 322.657 271.135C322.536 271.152 322.43 271.181 322.339 271.219C322.249 271.258 322.179 271.311 322.129 271.377C322.079 271.441 322.054 271.522 322.054 271.619C322.054 271.76 322.104 271.867 322.206 271.941C322.31 272.014 322.44 272.05 322.599 272.05ZM325.219 272.692V267.731H326.251V269.596H326.282C326.328 269.496 326.393 269.394 326.479 269.291C326.566 269.186 326.679 269.099 326.818 269.029C326.958 268.958 327.133 268.923 327.341 268.923C327.613 268.923 327.863 268.994 328.092 269.136C328.322 269.276 328.505 269.489 328.642 269.773C328.779 270.056 328.848 270.41 328.848 270.837C328.848 271.252 328.781 271.602 328.647 271.888C328.515 272.172 328.334 272.388 328.104 272.535C327.877 272.68 327.621 272.753 327.339 272.753C327.138 272.753 326.968 272.72 326.828 272.654C326.689 272.587 326.575 272.504 326.486 272.404C326.397 272.302 326.329 272.2 326.282 272.096H326.236V272.692H325.219ZM326.229 270.832C326.229 271.053 326.26 271.246 326.321 271.411C326.383 271.576 326.471 271.704 326.588 271.796C326.704 271.886 326.845 271.932 327.012 271.932C327.18 271.932 327.322 271.886 327.438 271.794C327.554 271.7 327.642 271.571 327.702 271.406C327.764 271.24 327.794 271.048 327.794 270.832C327.794 270.617 327.764 270.428 327.705 270.265C327.645 270.102 327.557 269.974 327.44 269.882C327.324 269.79 327.181 269.744 327.012 269.744C326.844 269.744 326.702 269.788 326.585 269.877C326.471 269.966 326.383 270.092 326.321 270.255C326.26 270.418 326.229 270.61 326.229 270.832ZM330.569 267.731V272.692H329.537V267.731H330.569ZM333.091 272.765C332.709 272.765 332.379 272.688 332.103 272.532C331.828 272.376 331.617 272.155 331.468 271.869C331.32 271.581 331.245 271.241 331.245 270.849C331.245 270.466 331.32 270.13 331.468 269.841C331.617 269.552 331.826 269.326 332.096 269.165C332.367 269.003 332.685 268.923 333.05 268.923C333.296 268.923 333.524 268.962 333.736 269.041C333.949 269.119 334.135 269.236 334.293 269.393C334.453 269.549 334.577 269.746 334.666 269.984C334.755 270.22 334.8 270.496 334.8 270.812V271.096H331.657V270.456H333.828C333.828 270.308 333.796 270.176 333.731 270.061C333.666 269.947 333.577 269.857 333.462 269.792C333.349 269.726 333.217 269.693 333.067 269.693C332.911 269.693 332.772 269.729 332.651 269.802C332.531 269.873 332.437 269.969 332.37 270.09C332.302 270.21 332.267 270.343 332.265 270.49V271.098C332.265 271.282 332.299 271.441 332.367 271.576C332.437 271.71 332.534 271.813 332.66 271.886C332.786 271.958 332.936 271.995 333.108 271.995C333.223 271.995 333.328 271.978 333.423 271.946C333.519 271.914 333.6 271.865 333.668 271.801C333.736 271.736 333.788 271.657 333.823 271.563L334.778 271.626C334.729 271.856 334.63 272.056 334.48 272.227C334.331 272.397 334.139 272.529 333.903 272.625C333.669 272.718 333.398 272.765 333.091 272.765ZM337.452 268.971V269.746H335.211V268.971H337.452ZM335.72 268.08H336.752V271.549C336.752 271.644 336.767 271.718 336.796 271.772C336.825 271.823 336.865 271.86 336.917 271.881C336.97 271.902 337.032 271.912 337.101 271.912C337.15 271.912 337.198 271.908 337.246 271.9C337.295 271.89 337.332 271.883 337.358 271.878L337.52 272.646C337.469 272.663 337.396 272.681 337.302 272.702C337.209 272.725 337.095 272.738 336.961 272.743C336.712 272.753 336.494 272.72 336.306 272.644C336.121 272.568 335.976 272.45 335.873 272.29C335.769 272.13 335.719 271.928 335.72 271.685V268.08Z" fill="#767676"/>
<line opacity="0.5" x1="143.776" y1="261.234" x2="143.776" y2="114.553" stroke="#B1B1B1" stroke-width="0.44334"/>
<path d="M96.099 240.599C96.1877 240.599 96.2766 240.565 96.3443 240.497L99.8143 237.027C99.9499 236.891 99.9499 236.672 99.8143 236.536C99.6787 236.401 99.4592 236.401 99.3237 236.536L96.099 239.761L92.8743 236.536C92.7387 236.401 92.5192 236.401 92.3837 236.536C92.2482 236.672 92.2481 236.891 92.3837 237.027L95.8537 240.497C95.9214 240.565 96.0103 240.599 96.099 240.599Z" fill="#8F00FF"/>
</g>
<rect x="26.2044" y="21.2044" width="420.591" height="302.591" rx="19.7956" stroke="#EAEAEA" stroke-width="0.408738" shape-rendering="crispEdges"/>
</g>
</g>
<defs>
<filter id="filter0_f_1455_1900" x="-125.6" y="-69.3988" width="1517.2" height="1517.2" filterUnits="userSpaceOnUse" color-interpolation-filters="sRGB">
<feFlood flood-opacity="0" result="BackgroundImageFix"/>
<feBlend mode="normal" in="SourceGraphic" in2="BackgroundImageFix" result="shape"/>
<feGaussianBlur stdDeviation="268.8" result="effect1_foregroundBlur_1455_1900"/>
</filter>
<filter id="filter1_f_1455_1900" x="-837.6" y="-857.399" width="1517.2" height="1517.2" filterUnits="userSpaceOnUse" color-interpolation-filters="sRGB">
<feFlood flood-opacity="0" result="BackgroundImageFix"/>
<feBlend mode="normal" in="SourceGraphic" in2="BackgroundImageFix" result="shape"/>
<feGaussianBlur stdDeviation="268.8" result="effect1_foregroundBlur_1455_1900"/>
</filter>
<filter id="filter2_d_1455_1900" x="-14" y="-14" width="501" height="383" filterUnits="userSpaceOnUse" color-interpolation-filters="sRGB">
<feFlood flood-opacity="0" result="BackgroundImageFix"/>
<feColorMatrix in="SourceAlpha" type="matrix" values="0 0 0 0 0 0 0 0 0 0 0 0 0 0 0 0 0 0 127 0" result="hardAlpha"/>
<feOffset dy="5"/>
<feGaussianBlur stdDeviation="20"/>
<feComposite in2="hardAlpha" operator="out"/>
<feColorMatrix type="matrix" values="0 0 0 0 0 0 0 0 0 0.105882 0 0 0 0 0.419608 0 0 0 0.08 0"/>
<feBlend mode="normal" in2="BackgroundImageFix" result="effect1_dropShadow_1455_1900"/>
<feBlend mode="normal" in="SourceGraphic" in2="effect1_dropShadow_1455_1900" result="shape"/>
</filter>
<clipPath id="clip0_1455_1900">
<rect y="0.600586" width="473" height="600" rx="20" fill="white"/>
</clipPath>
<clipPath id="clip1_1455_1900">
<rect x="26" y="21" width="421" height="303" rx="20" fill="white"/>
</clipPath>
</defs>
</svg>
