<svg width="473" height="601" viewBox="0 0 473 601" fill="none" xmlns="http://www.w3.org/2000/svg">
<g clip-path="url(#clip0_1455_1942)">
<rect y="0.600586" width="473" height="600" rx="20" fill="white"/>
<rect y="0.201172" width="473" height="504" fill="white"/>
<g filter="url(#filter0_f_1455_1942)">
<circle cx="493" cy="669.201" r="221" fill="#BC66FF" fill-opacity="0.4"/>
</g>
<g filter="url(#filter1_f_1455_1942)">
<circle cx="-29" cy="-178.799" r="221" fill="#0000FF" fill-opacity="0.4"/>
</g>
<path d="M125.431 369.224V371.96H119.071V376.16H124.711V378.824H119.071V383.264H125.431V386H115.711V369.224H125.431ZM137.796 386V378.656C137.796 376.52 136.62 375.368 134.844 375.368C133.02 375.368 131.844 376.52 131.844 378.656V386H128.484V372.704H131.844V374.36C132.708 373.232 134.148 372.512 135.852 372.512C138.948 372.512 141.156 374.528 141.156 378.2V386H137.796ZM144.351 386V368.24H147.711V374.36C148.575 373.232 150.063 372.512 151.839 372.512C154.839 372.512 157.023 374.528 157.023 378.2V386H153.663V378.656C153.663 376.52 152.487 375.368 150.711 375.368C148.887 375.368 147.711 376.52 147.711 378.656V386H144.351ZM159.354 379.304C159.354 375.152 162.043 372.488 165.427 372.488C167.563 372.488 169.027 373.496 169.819 374.6V372.704H173.203V386H169.819V384.056C169.027 385.208 167.515 386.216 165.403 386.216C162.043 386.216 159.354 383.456 159.354 379.304ZM169.819 379.352C169.819 376.832 168.139 375.44 166.291 375.44C164.491 375.44 162.787 376.784 162.787 379.304C162.787 381.824 164.491 383.264 166.291 383.264C168.139 383.264 169.819 381.872 169.819 379.352ZM185.796 386V378.656C185.796 376.52 184.62 375.368 182.844 375.368C181.02 375.368 179.844 376.52 179.844 378.656V386H176.484V372.704H179.844V374.36C180.708 373.232 182.148 372.512 183.852 372.512C186.948 372.512 189.156 374.528 189.156 378.2V386H185.796ZM191.487 379.352C191.487 375.176 194.223 372.488 198.063 372.488C201.375 372.488 203.607 374.216 204.327 377.192H200.703C200.319 376.064 199.431 375.344 198.039 375.344C196.167 375.344 194.919 376.76 194.919 379.352C194.919 381.944 196.167 383.336 198.039 383.336C199.431 383.336 200.295 382.712 200.703 381.512H204.327C203.607 384.344 201.375 386.216 198.063 386.216C194.223 386.216 191.487 383.528 191.487 379.352ZM212.501 375.248C210.893 375.248 209.621 376.28 209.357 378.104H215.669C215.621 376.352 214.229 375.248 212.501 375.248ZM218.813 381.824C218.093 384.272 215.885 386.216 212.597 386.216C208.733 386.216 205.925 383.528 205.925 379.352C205.925 375.152 208.661 372.488 212.597 372.488C216.437 372.488 219.149 375.104 219.149 379.064C219.149 379.496 219.125 379.928 219.053 380.36H209.333C209.501 382.328 210.845 383.432 212.525 383.432C213.965 383.432 214.757 382.712 215.189 381.824H218.813ZM220.737 379.304C220.737 375.152 223.425 372.488 226.833 372.488C228.585 372.488 230.265 373.304 231.177 374.552V368.24H234.585V386H231.177V384.032C230.385 385.256 228.897 386.216 226.809 386.216C223.425 386.216 220.737 383.456 220.737 379.304ZM231.201 379.352C231.201 376.832 229.521 375.44 227.673 375.44C225.873 375.44 224.169 376.784 224.169 379.304C224.169 381.824 225.873 383.264 227.673 383.264C229.521 383.264 231.201 381.872 231.201 379.352ZM242.698 371.96V369.248H254.986V371.96H250.522V386H247.162V371.96H242.698ZM256.573 379.304C256.573 375.152 259.261 372.488 262.645 372.488C264.781 372.488 266.245 373.496 267.037 374.6V372.704H270.421V386H267.037V384.056C266.245 385.208 264.733 386.216 262.621 386.216C259.261 386.216 256.573 383.456 256.573 379.304ZM267.037 379.352C267.037 376.832 265.357 375.44 263.509 375.44C261.709 375.44 260.005 376.784 260.005 379.304C260.005 381.824 261.709 383.264 263.509 383.264C265.357 383.264 267.037 381.872 267.037 379.352ZM277.063 379.376V386H273.703V372.704H277.063V374.768C277.903 373.4 279.295 372.512 281.143 372.512V376.04H280.255C278.263 376.04 277.063 376.808 277.063 379.376ZM282.542 379.304C282.542 375.152 285.23 372.488 288.614 372.488C290.702 372.488 292.214 373.448 293.006 374.6V372.704H296.39V386.096C296.39 389.696 294.182 392.552 289.814 392.552C286.07 392.552 283.454 390.68 283.118 387.632H286.454C286.79 388.832 288.038 389.624 289.718 389.624C291.566 389.624 293.006 388.568 293.006 386.096V384.032C292.214 385.184 290.702 386.216 288.614 386.216C285.23 386.216 282.542 383.456 282.542 379.304ZM293.006 379.352C293.006 376.832 291.326 375.44 289.478 375.44C287.678 375.44 285.974 376.784 285.974 379.304C285.974 381.824 287.678 383.264 289.478 383.264C291.326 383.264 293.006 381.872 293.006 379.352ZM305.384 375.248C303.776 375.248 302.504 376.28 302.24 378.104H308.552C308.504 376.352 307.112 375.248 305.384 375.248ZM311.696 381.824C310.976 384.272 308.768 386.216 305.48 386.216C301.616 386.216 298.808 383.528 298.808 379.352C298.808 375.152 301.544 372.488 305.48 372.488C309.32 372.488 312.032 375.104 312.032 379.064C312.032 379.496 312.008 379.928 311.936 380.36H302.216C302.384 382.328 303.728 383.432 305.408 383.432C306.848 383.432 307.64 382.712 308.072 381.824H311.696ZM315.012 381.872V375.464H313.428V372.704H315.012V369.416H318.396V372.704H321.372V375.464H318.396V381.896C318.396 382.784 318.756 383.168 319.812 383.168H321.372V386H319.26C316.716 386 315.012 384.92 315.012 381.872ZM323.789 386V372.704H327.149V386H323.789ZM325.493 371.12C324.293 371.12 323.429 370.256 323.429 369.152C323.429 368.048 324.293 367.184 325.493 367.184C326.669 367.184 327.557 368.048 327.557 369.152C327.557 370.256 326.669 371.12 325.493 371.12ZM339.781 386V378.656C339.781 376.52 338.605 375.368 336.829 375.368C335.005 375.368 333.829 376.52 333.829 378.656V386H330.469V372.704H333.829V374.36C334.693 373.232 336.133 372.512 337.837 372.512C340.932 372.512 343.141 374.528 343.141 378.2V386H339.781ZM345.472 379.304C345.472 375.152 348.16 372.488 351.544 372.488C353.632 372.488 355.144 373.448 355.936 374.6V372.704H359.32V386.096C359.32 389.696 357.112 392.552 352.744 392.552C349 392.552 346.384 390.68 346.048 387.632H349.384C349.72 388.832 350.968 389.624 352.648 389.624C354.496 389.624 355.936 388.568 355.936 386.096V384.032C355.144 385.184 353.632 386.216 351.544 386.216C348.16 386.216 345.472 383.456 345.472 379.304ZM355.936 379.352C355.936 376.832 354.256 375.44 352.408 375.44C350.608 375.44 348.904 376.784 348.904 379.304C348.904 381.824 350.608 383.264 352.408 383.264C354.256 383.264 355.936 381.872 355.936 379.352Z" fill="black"/>
<path d="M105.591 421.44C105.591 423.816 103.647 426.168 100.023 426.168C96.6631 426.168 94.2871 424.296 94.2391 421.536H96.5671C96.7111 422.928 97.6951 424.32 100.023 424.32C102.135 424.32 103.383 423.12 103.383 421.536C103.383 417.024 94.3351 419.904 94.3351 413.688C94.3351 410.928 96.5671 409.056 99.8791 409.056C103.071 409.056 105.159 410.808 105.423 413.352H103.023C102.879 412.224 101.823 410.952 99.7831 410.928C97.9831 410.88 96.5671 411.816 96.5671 413.616C96.5671 417.936 105.591 415.248 105.591 421.44ZM114.397 414.48C112.261 414.48 110.485 415.896 110.245 418.464H118.549C118.573 415.896 116.653 414.48 114.397 414.48ZM120.541 421.944C119.869 424.344 117.757 426.216 114.493 426.216C110.749 426.216 107.989 423.576 107.989 419.4C107.989 415.248 110.653 412.632 114.493 412.632C118.309 412.632 120.805 415.32 120.805 418.92C120.805 419.4 120.781 419.784 120.733 420.24H110.221C110.389 422.904 112.261 424.368 114.493 424.368C116.461 424.368 117.709 423.36 118.189 421.944H120.541ZM122.872 419.376C122.872 415.272 125.584 412.632 129.112 412.632C131.512 412.632 133.24 413.832 134.008 415.248V412.848H136.216V426.288C136.216 429.912 133.792 432.48 129.928 432.48C126.472 432.48 124 430.728 123.568 427.92H125.728C126.208 429.504 127.768 430.584 129.928 430.584C132.256 430.584 134.008 429.096 134.008 426.288V423.528C133.216 424.944 131.512 426.216 129.112 426.216C125.584 426.216 122.872 423.456 122.872 419.376ZM134.008 419.4C134.008 416.352 131.944 414.528 129.544 414.528C127.144 414.528 125.104 416.28 125.104 419.376C125.104 422.472 127.144 424.296 129.544 424.296C131.944 424.296 134.008 422.496 134.008 419.4ZM158.891 426V418.56C158.891 415.872 157.451 414.504 155.291 414.504C153.083 414.504 151.571 415.92 151.571 418.752V426H149.411V418.56C149.411 415.872 147.971 414.504 145.811 414.504C143.603 414.504 142.091 415.92 142.091 418.752V426H139.907V412.848H142.091V414.744C142.955 413.352 144.515 412.608 146.243 412.608C148.403 412.608 150.203 413.568 151.067 415.536C151.835 413.64 153.707 412.608 155.723 412.608C158.723 412.608 161.051 414.48 161.051 418.248V426H158.891ZM170.225 414.48C168.089 414.48 166.313 415.896 166.073 418.464H174.377C174.401 415.896 172.481 414.48 170.225 414.48ZM176.369 421.944C175.697 424.344 173.585 426.216 170.321 426.216C166.577 426.216 163.817 423.576 163.817 419.4C163.817 415.248 166.481 412.632 170.321 412.632C174.137 412.632 176.633 415.32 176.633 418.92C176.633 419.4 176.609 419.784 176.561 420.24H166.049C166.217 422.904 168.089 424.368 170.321 424.368C172.289 424.368 173.537 423.36 174.017 421.944H176.369ZM189.14 426V418.56C189.14 415.872 187.676 414.504 185.468 414.504C183.236 414.504 181.7 415.896 181.7 418.728V426H179.516V412.848H181.7V414.72C182.564 413.352 184.148 412.608 185.924 412.608C188.972 412.608 191.3 414.48 191.3 418.248V426H189.14ZM195.348 422.4V414.648H193.644V412.848H195.348V409.536H197.532V412.848H200.964V414.648H197.532V422.4C197.532 423.696 198.012 424.152 199.356 424.152H200.964V426H198.996C196.668 426 195.348 425.04 195.348 422.4ZM215 423.504L219.08 412.848H221.336L213.416 432.192H211.16L213.752 425.856L208.448 412.848H210.872L215 423.504ZM236.012 419.4C236.012 423.576 233.012 426.216 229.268 426.216C225.548 426.216 222.716 423.576 222.716 419.4C222.716 415.248 225.644 412.632 229.364 412.632C233.108 412.632 236.012 415.248 236.012 419.4ZM224.948 419.4C224.948 422.736 226.988 424.296 229.268 424.296C231.548 424.296 233.78 422.736 233.78 419.4C233.78 416.088 231.596 414.528 229.34 414.528C227.036 414.528 224.948 416.088 224.948 419.4ZM250.547 412.848V426H248.363V424.056C247.523 425.424 245.915 426.192 244.163 426.192C241.139 426.192 238.763 424.32 238.763 420.552V412.848H240.923V420.264C240.923 422.928 242.387 424.296 244.595 424.296C246.851 424.296 248.363 422.904 248.363 420.072V412.848H250.547ZM256.419 418.848V426H254.235V412.848H256.419V414.984C257.163 413.52 258.579 412.608 260.667 412.608V414.864H260.091C258.003 414.864 256.419 415.8 256.419 418.848ZM268.77 419.376C268.77 415.272 271.482 412.632 275.01 412.632C277.458 412.632 279.138 413.88 279.906 415.248V412.848H282.114V426H279.906V423.552C279.114 424.968 277.41 426.216 274.986 426.216C271.482 426.216 268.77 423.456 268.77 419.376ZM279.906 419.4C279.906 416.352 277.842 414.528 275.442 414.528C273.042 414.528 271.002 416.28 271.002 419.376C271.002 422.472 273.042 424.296 275.442 424.296C277.842 424.296 279.906 422.496 279.906 419.4ZM297.469 412.848V426H295.285V424.056C294.445 425.424 292.837 426.192 291.085 426.192C288.061 426.192 285.685 424.32 285.685 420.552V412.848H287.845V420.264C287.845 422.928 289.309 424.296 291.517 424.296C293.773 424.296 295.285 422.904 295.285 420.072V412.848H297.469ZM300.341 419.376C300.341 415.272 303.053 412.632 306.605 412.632C308.669 412.632 310.565 413.688 311.477 415.2V408.24H313.685V426H311.477V423.528C310.685 424.992 308.981 426.216 306.581 426.216C303.053 426.216 300.341 423.456 300.341 419.376ZM311.477 419.4C311.477 416.352 309.413 414.528 307.013 414.528C304.613 414.528 302.573 416.28 302.573 419.376C302.573 422.472 304.613 424.296 307.013 424.296C309.413 424.296 311.477 422.496 311.477 419.4ZM317.375 426V412.848H319.559V426H317.375ZM318.503 410.712C317.663 410.712 317.015 410.064 317.015 409.224C317.015 408.384 317.663 407.736 318.503 407.736C319.295 407.736 319.943 408.384 319.943 409.224C319.943 410.064 319.295 410.712 318.503 410.712ZM328.874 414.48C326.738 414.48 324.962 415.896 324.722 418.464H333.026C333.05 415.896 331.13 414.48 328.874 414.48ZM335.018 421.944C334.346 424.344 332.234 426.216 328.97 426.216C325.226 426.216 322.466 423.576 322.466 419.4C322.466 415.248 325.13 412.632 328.97 412.632C332.786 412.632 335.282 415.32 335.282 418.92C335.282 419.4 335.258 419.784 335.21 420.24H324.698C324.866 422.904 326.738 424.368 328.97 424.368C330.938 424.368 332.186 423.36 332.666 421.944H335.018ZM347.788 426V418.56C347.788 415.872 346.324 414.504 344.116 414.504C341.884 414.504 340.348 415.896 340.348 418.728V426H338.164V412.848H340.348V414.72C341.212 413.352 342.796 412.608 344.572 412.608C347.62 412.608 349.948 414.48 349.948 418.248V426H347.788ZM352.7 419.4C352.7 415.272 355.364 412.632 359.108 412.632C362.372 412.632 364.508 414.312 365.18 417.072H362.828C362.372 415.488 361.052 414.48 359.108 414.48C356.708 414.48 354.932 416.184 354.932 419.4C354.932 422.664 356.708 424.368 359.108 424.368C361.052 424.368 362.348 423.432 362.828 421.776H365.18C364.508 424.392 362.372 426.216 359.108 426.216C355.364 426.216 352.7 423.576 352.7 419.4ZM373.686 414.48C371.55 414.48 369.774 415.896 369.534 418.464H377.838C377.862 415.896 375.942 414.48 373.686 414.48ZM379.83 421.944C379.158 424.344 377.046 426.216 373.782 426.216C370.038 426.216 367.278 423.576 367.278 419.4C367.278 415.248 369.942 412.632 373.782 412.632C377.598 412.632 380.094 415.32 380.094 418.92C380.094 419.4 380.07 419.784 380.022 420.24H369.51C369.678 422.904 371.55 424.368 373.782 424.368C375.75 424.368 376.998 423.36 377.478 421.944H379.83ZM100.674 458L96.5458 444.848H98.7778L101.802 455.888L105.066 444.848H107.298L110.49 455.912L113.466 444.848H115.626L111.522 458H109.266L106.098 447.56L102.93 458H100.674ZM117.793 458V444.848H119.977V458H117.793ZM118.921 442.712C118.081 442.712 117.433 442.064 117.433 441.224C117.433 440.384 118.081 439.736 118.921 439.736C119.713 439.736 120.361 440.384 120.361 441.224C120.361 442.064 119.713 442.712 118.921 442.712ZM124.18 454.4V446.648H122.476V444.848H124.18V441.536H126.364V444.848H129.796V446.648H126.364V454.4C126.364 455.696 126.844 456.152 128.188 456.152H129.796V458H127.828C125.5 458 124.18 457.04 124.18 454.4ZM132.442 458V440.24H134.626V446.744C135.49 445.352 137.122 444.608 138.97 444.608C141.898 444.608 144.226 446.48 144.226 450.248V458H142.066V450.56C142.066 447.872 140.602 446.504 138.394 446.504C136.162 446.504 134.626 447.896 134.626 450.728V458H132.442ZM156.376 447.272C157.168 445.88 158.896 444.632 161.296 444.632C164.824 444.632 167.536 447.272 167.536 451.376C167.536 455.456 164.824 458.216 161.296 458.216C158.896 458.216 157.192 456.92 156.376 455.576V464.24H154.192V444.848H156.376V447.272ZM165.304 451.376C165.304 448.28 163.264 446.528 160.84 446.528C158.464 446.528 156.376 448.352 156.376 451.4C156.376 454.496 158.464 456.296 160.84 456.296C163.264 456.296 165.304 454.472 165.304 451.376ZM172.595 450.848V458H170.411V444.848H172.595V446.984C173.339 445.52 174.755 444.608 176.843 444.608V446.864H176.267C174.179 446.864 172.595 447.8 172.595 450.848ZM184.956 446.48C182.82 446.48 181.044 447.896 180.804 450.464H189.108C189.132 447.896 187.212 446.48 184.956 446.48ZM191.1 453.944C190.428 456.344 188.316 458.216 185.052 458.216C181.308 458.216 178.548 455.576 178.548 451.4C178.548 447.248 181.212 444.632 185.052 444.632C188.868 444.632 191.364 447.32 191.364 450.92C191.364 451.4 191.34 451.784 191.292 452.24H180.78C180.948 454.904 182.82 456.368 185.052 456.368C187.02 456.368 188.268 455.36 188.748 453.944H191.1ZM193.43 451.4C193.43 447.272 196.094 444.632 199.838 444.632C203.102 444.632 205.238 446.312 205.91 449.072H203.558C203.102 447.488 201.782 446.48 199.838 446.48C197.438 446.48 195.662 448.184 195.662 451.4C195.662 454.664 197.438 456.368 199.838 456.368C201.782 456.368 203.078 455.432 203.558 453.776H205.91C205.238 456.392 203.102 458.216 199.838 458.216C196.094 458.216 193.43 455.576 193.43 451.4ZM208.825 458V444.848H211.009V458H208.825ZM209.953 442.712C209.113 442.712 208.465 442.064 208.465 441.224C208.465 440.384 209.113 439.736 209.953 439.736C210.745 439.736 211.393 440.384 211.393 441.224C211.393 442.064 210.745 442.712 209.953 442.712ZM224.187 454.424C224.187 456.584 222.291 458.216 219.387 458.216C216.315 458.216 214.155 456.536 214.011 454.136H216.267C216.387 455.408 217.515 456.368 219.363 456.368C221.091 456.368 222.051 455.504 222.051 454.424C222.051 451.496 214.275 453.2 214.275 448.304C214.275 446.288 216.171 444.632 219.099 444.632C222.003 444.632 223.923 446.192 224.067 448.76H221.883C221.787 447.44 220.779 446.48 219.027 446.48C217.419 446.48 216.459 447.248 216.459 448.304C216.459 451.424 224.091 449.72 224.187 454.424ZM227.27 458V444.848H229.454V458H227.27ZM228.398 442.712C227.558 442.712 226.91 442.064 226.91 441.224C226.91 440.384 227.558 439.736 228.398 439.736C229.19 439.736 229.838 440.384 229.838 441.224C229.838 442.064 229.19 442.712 228.398 442.712ZM245.656 451.4C245.656 455.576 242.656 458.216 238.912 458.216C235.192 458.216 232.36 455.576 232.36 451.4C232.36 447.248 235.288 444.632 239.008 444.632C242.752 444.632 245.656 447.248 245.656 451.4ZM234.592 451.4C234.592 454.736 236.632 456.296 238.912 456.296C241.192 456.296 243.424 454.736 243.424 451.4C243.424 448.088 241.24 446.528 238.984 446.528C236.68 446.528 234.592 448.088 234.592 451.4ZM258.152 458V450.56C258.152 447.872 256.688 446.504 254.48 446.504C252.248 446.504 250.712 447.896 250.712 450.728V458H248.528V444.848H250.712V446.72C251.576 445.352 253.16 444.608 254.936 444.608C257.984 444.608 260.312 446.48 260.312 450.248V458H258.152ZM261.983 461.432L263.735 454.976H266.135L263.447 461.432H261.983ZM280.628 446.48C278.492 446.48 276.715 447.896 276.476 450.464H284.78C284.804 447.896 282.884 446.48 280.628 446.48ZM286.772 453.944C286.1 456.344 283.988 458.216 280.724 458.216C276.98 458.216 274.22 455.576 274.22 451.4C274.22 447.248 276.884 444.632 280.724 444.632C284.54 444.632 287.036 447.32 287.036 450.92C287.036 451.4 287.012 451.784 286.964 452.24H276.452C276.62 454.904 278.492 456.368 280.724 456.368C282.692 456.368 283.94 455.36 284.42 453.944H286.772ZM299.542 458V450.56C299.542 447.872 298.078 446.504 295.87 446.504C293.638 446.504 292.102 447.896 292.102 450.728V458H289.918V444.848H292.102V446.72C292.966 445.352 294.55 444.608 296.326 444.608C299.374 444.608 301.702 446.48 301.702 450.248V458H299.542ZM314.726 454.424C314.726 456.584 312.83 458.216 309.926 458.216C306.854 458.216 304.694 456.536 304.55 454.136H306.806C306.926 455.408 308.054 456.368 309.902 456.368C311.63 456.368 312.59 455.504 312.59 454.424C312.59 451.496 304.814 453.2 304.814 448.304C304.814 446.288 306.71 444.632 309.638 444.632C312.542 444.632 314.462 446.192 314.606 448.76H312.422C312.326 447.44 311.318 446.48 309.566 446.48C307.958 446.48 306.998 447.248 306.998 448.304C306.998 451.424 314.63 449.72 314.726 454.424ZM329.473 444.848V458H327.289V456.056C326.449 457.424 324.841 458.192 323.089 458.192C320.065 458.192 317.689 456.32 317.689 452.552V444.848H319.849V452.264C319.849 454.928 321.313 456.296 323.521 456.296C325.777 456.296 327.289 454.904 327.289 452.072V444.848H329.473ZM335.345 450.848V458H333.161V444.848H335.345V446.984C336.089 445.52 337.505 444.608 339.593 444.608V446.864H339.017C336.929 446.864 335.345 447.8 335.345 450.848ZM342.114 458V444.848H344.298V458H342.114ZM343.242 442.712C342.402 442.712 341.754 442.064 341.754 441.224C341.754 440.384 342.402 439.736 343.242 439.736C344.034 439.736 344.682 440.384 344.682 441.224C344.682 442.064 344.034 442.712 343.242 442.712ZM357.644 458V450.56C357.644 447.872 356.18 446.504 353.972 446.504C351.74 446.504 350.204 447.896 350.204 450.728V458H348.02V444.848H350.204V446.72C351.068 445.352 352.652 444.608 354.428 444.608C357.476 444.608 359.804 446.48 359.804 450.248V458H357.644ZM362.555 451.376C362.555 447.272 365.267 444.632 368.795 444.632C371.195 444.632 372.923 445.832 373.691 447.248V444.848H375.899V458.288C375.899 461.912 373.475 464.48 369.611 464.48C366.155 464.48 363.683 462.728 363.251 459.92H365.411C365.891 461.504 367.451 462.584 369.611 462.584C371.939 462.584 373.691 461.096 373.691 458.288V455.528C372.899 456.944 371.195 458.216 368.795 458.216C365.267 458.216 362.555 455.456 362.555 451.376ZM373.691 451.4C373.691 448.352 371.627 446.528 369.227 446.528C366.827 446.528 364.787 448.28 364.787 451.376C364.787 454.472 366.827 456.296 369.227 456.296C371.627 456.296 373.691 454.496 373.691 451.4ZM120.137 486.4V478.648H118.433V476.848H120.137V473.536H122.321V476.848H125.753V478.648H122.321V486.4C122.321 487.696 122.801 488.152 124.145 488.152H125.753V490H123.785C121.457 490 120.137 489.04 120.137 486.4ZM128.399 490V472.24H130.583V478.744C131.447 477.352 133.079 476.608 134.927 476.608C137.855 476.608 140.183 478.48 140.183 482.248V490H138.023V482.56C138.023 479.872 136.559 478.504 134.351 478.504C132.119 478.504 130.583 479.896 130.583 482.728V490H128.399ZM142.934 483.376C142.934 479.272 145.646 476.632 149.174 476.632C151.622 476.632 153.302 477.88 154.07 479.248V476.848H156.278V490H154.07V487.552C153.278 488.968 151.574 490.216 149.15 490.216C145.646 490.216 142.934 487.456 142.934 483.376ZM154.07 483.4C154.07 480.352 152.006 478.528 149.606 478.528C147.206 478.528 145.166 480.28 145.166 483.376C145.166 486.472 147.206 488.296 149.606 488.296C152.006 488.296 154.07 486.496 154.07 483.4ZM160.449 486.4V478.648H158.745V476.848H160.449V473.536H162.633V476.848H166.065V478.648H162.633V486.4C162.633 487.696 163.113 488.152 164.457 488.152H166.065V490H164.097C161.769 490 160.449 489.04 160.449 486.4ZM180.102 487.504L184.182 476.848H186.438L178.518 496.192H176.262L178.854 489.856L173.55 476.848H175.974L180.102 487.504ZM201.113 483.4C201.113 487.576 198.113 490.216 194.369 490.216C190.649 490.216 187.817 487.576 187.817 483.4C187.817 479.248 190.745 476.632 194.465 476.632C198.209 476.632 201.113 479.248 201.113 483.4ZM190.049 483.4C190.049 486.736 192.089 488.296 194.369 488.296C196.649 488.296 198.881 486.736 198.881 483.4C198.881 480.088 196.697 478.528 194.441 478.528C192.137 478.528 190.049 480.088 190.049 483.4ZM215.649 476.848V490H213.465V488.056C212.625 489.424 211.017 490.192 209.265 490.192C206.241 490.192 203.865 488.32 203.865 484.552V476.848H206.025V484.264C206.025 486.928 207.489 488.296 209.697 488.296C211.953 488.296 213.465 486.904 213.465 484.072V476.848H215.649ZM221.52 482.848V490H219.336V476.848H221.52V478.984C222.264 477.52 223.68 476.608 225.768 476.608V478.864H225.192C223.104 478.864 221.52 479.8 221.52 482.848ZM253.672 490V482.56C253.672 479.872 252.232 478.504 250.072 478.504C247.864 478.504 246.352 479.92 246.352 482.752V490H244.192V482.56C244.192 479.872 242.752 478.504 240.592 478.504C238.384 478.504 236.872 479.92 236.872 482.752V490H234.688V476.848H236.872V478.744C237.736 477.352 239.296 476.608 241.024 476.608C243.184 476.608 244.984 477.568 245.848 479.536C246.616 477.64 248.488 476.608 250.504 476.608C253.504 476.608 255.832 478.48 255.832 482.248V490H253.672ZM258.598 483.376C258.598 479.272 261.31 476.632 264.838 476.632C267.286 476.632 268.966 477.88 269.734 479.248V476.848H271.942V490H269.734V487.552C268.942 488.968 267.238 490.216 264.814 490.216C261.31 490.216 258.598 487.456 258.598 483.376ZM269.734 483.4C269.734 480.352 267.67 478.528 265.27 478.528C262.87 478.528 260.83 480.28 260.83 483.376C260.83 486.472 262.87 488.296 265.27 488.296C267.67 488.296 269.734 486.496 269.734 483.4ZM277.817 482.848V490H275.633V476.848H277.817V478.984C278.561 477.52 279.977 476.608 282.065 476.608V478.864H281.489C279.401 478.864 277.817 479.8 277.817 482.848ZM284.586 490V472.24H286.77V482.68L291.834 476.848H294.882L288.69 483.4L294.906 490H291.93L286.77 484.192V490H284.586ZM302.53 478.48C300.394 478.48 298.618 479.896 298.378 482.464H306.682C306.706 479.896 304.786 478.48 302.53 478.48ZM308.674 485.944C308.002 488.344 305.89 490.216 302.626 490.216C298.882 490.216 296.122 487.576 296.122 483.4C296.122 479.248 298.786 476.632 302.626 476.632C306.442 476.632 308.938 479.32 308.938 482.92C308.938 483.4 308.914 483.784 308.866 484.24H298.354C298.522 486.904 300.394 488.368 302.626 488.368C304.594 488.368 305.842 487.36 306.322 485.944H308.674ZM312.301 486.4V478.648H310.597V476.848H312.301V473.536H314.485V476.848H317.917V478.648H314.485V486.4C314.485 487.696 314.965 488.152 316.309 488.152H317.917V490H315.949C313.621 490 312.301 489.04 312.301 486.4ZM320.563 490V476.848H322.747V490H320.563ZM321.691 474.712C320.851 474.712 320.203 474.064 320.203 473.224C320.203 472.384 320.851 471.736 321.691 471.736C322.483 471.736 323.131 472.384 323.131 473.224C323.131 474.064 322.483 474.712 321.691 474.712ZM336.093 490V482.56C336.093 479.872 334.629 478.504 332.421 478.504C330.189 478.504 328.653 479.896 328.653 482.728V490H326.469V476.848H328.653V478.72C329.517 477.352 331.101 476.608 332.877 476.608C335.925 476.608 338.253 478.48 338.253 482.248V490H336.093ZM341.005 483.376C341.005 479.272 343.717 476.632 347.245 476.632C349.645 476.632 351.373 477.832 352.141 479.248V476.848H354.349V490.288C354.349 493.912 351.925 496.48 348.061 496.48C344.605 496.48 342.133 494.728 341.701 491.92H343.861C344.341 493.504 345.901 494.584 348.061 494.584C350.389 494.584 352.141 493.096 352.141 490.288V487.528C351.349 488.944 349.645 490.216 347.245 490.216C343.717 490.216 341.005 487.456 341.005 483.376ZM352.141 483.4C352.141 480.352 350.077 478.528 347.677 478.528C345.277 478.528 343.237 480.28 343.237 483.376C343.237 486.472 345.277 488.296 347.677 488.296C350.077 488.296 352.141 486.496 352.141 483.4ZM114.643 510.48C112.507 510.48 110.731 511.896 110.491 514.464H118.795C118.819 511.896 116.899 510.48 114.643 510.48ZM120.787 517.944C120.115 520.344 118.003 522.216 114.739 522.216C110.995 522.216 108.235 519.576 108.235 515.4C108.235 511.248 110.899 508.632 114.739 508.632C118.555 508.632 121.051 511.32 121.051 514.92C121.051 515.4 121.027 515.784 120.979 516.24H110.467C110.635 518.904 112.507 520.368 114.739 520.368C116.707 520.368 117.955 519.36 118.435 517.944H120.787ZM124.342 522V510.648H122.638V508.848H124.342V507.912C124.342 504.984 125.782 503.664 129.142 503.664V505.488C127.174 505.488 126.526 506.208 126.526 507.912V508.848H129.286V510.648H126.526V522H124.342ZM132.24 522V510.648H130.536V508.848H132.24V507.912C132.24 504.984 133.68 503.664 137.04 503.664V505.488C135.072 505.488 134.424 506.208 134.424 507.912V508.848H137.184V510.648H134.424V522H132.24ZM152.211 515.4C152.211 519.576 149.211 522.216 145.467 522.216C141.747 522.216 138.915 519.576 138.915 515.4C138.915 511.248 141.843 508.632 145.563 508.632C149.307 508.632 152.211 511.248 152.211 515.4ZM141.147 515.4C141.147 518.736 143.187 520.296 145.467 520.296C147.747 520.296 149.979 518.736 149.979 515.4C149.979 512.088 147.795 510.528 145.539 510.528C143.235 510.528 141.147 512.088 141.147 515.4ZM157.266 514.848V522H155.082V508.848H157.266V510.984C158.01 509.52 159.426 508.608 161.514 508.608V510.864H160.938C158.85 510.864 157.266 511.8 157.266 514.848ZM164.516 518.4V510.648H162.812V508.848H164.516V505.536H166.7V508.848H170.132V510.648H166.7V518.4C166.7 519.696 167.18 520.152 168.523 520.152H170.132V522H168.164C165.836 522 164.516 521.04 164.516 518.4ZM182.234 518.424C182.234 520.584 180.338 522.216 177.434 522.216C174.362 522.216 172.202 520.536 172.058 518.136H174.314C174.434 519.408 175.562 520.368 177.41 520.368C179.138 520.368 180.098 519.504 180.098 518.424C180.098 515.496 172.322 517.2 172.322 512.304C172.322 510.288 174.218 508.632 177.146 508.632C180.05 508.632 181.97 510.192 182.114 512.76H179.93C179.834 511.44 178.826 510.48 177.074 510.48C175.466 510.48 174.506 511.248 174.506 512.304C174.506 515.424 182.138 513.72 182.234 518.424ZM193.899 514.848V522H191.715V508.848H193.899V510.984C194.643 509.52 196.059 508.608 198.147 508.608V510.864H197.571C195.483 510.864 193.899 511.8 193.899 514.848ZM206.26 510.48C204.124 510.48 202.348 511.896 202.108 514.464H210.412C210.436 511.896 208.516 510.48 206.26 510.48ZM212.404 517.944C211.732 520.344 209.62 522.216 206.356 522.216C202.612 522.216 199.852 519.576 199.852 515.4C199.852 511.248 202.516 508.632 206.356 508.632C210.172 508.632 212.668 511.32 212.668 514.92C212.668 515.4 212.644 515.784 212.596 516.24H202.084C202.252 518.904 204.124 520.368 206.356 520.368C208.324 520.368 209.572 519.36 210.052 517.944H212.404ZM214.735 515.376C214.735 511.272 217.447 508.632 220.975 508.632C223.423 508.632 225.103 509.88 225.871 511.248V508.848H228.079V522H225.871V519.552C225.079 520.968 223.375 522.216 220.951 522.216C217.447 522.216 214.735 519.456 214.735 515.376ZM225.871 515.4C225.871 512.352 223.807 510.528 221.407 510.528C219.007 510.528 216.967 512.28 216.967 515.376C216.967 518.472 219.007 520.296 221.407 520.296C223.807 520.296 225.871 518.496 225.871 515.4ZM230.954 515.4C230.954 511.272 233.618 508.632 237.362 508.632C240.626 508.632 242.762 510.312 243.434 513.072H241.082C240.626 511.488 239.306 510.48 237.362 510.48C234.962 510.48 233.186 512.184 233.186 515.4C233.186 518.664 234.962 520.368 237.362 520.368C239.306 520.368 240.602 519.432 241.082 517.776H243.434C242.762 520.392 240.626 522.216 237.362 522.216C233.618 522.216 230.954 519.576 230.954 515.4ZM246.348 522V504.24H248.532V510.744C249.396 509.352 251.028 508.608 252.876 508.608C255.804 508.608 258.132 510.48 258.132 514.248V522H255.972V514.56C255.972 511.872 254.508 510.504 252.3 510.504C250.068 510.504 248.532 511.896 248.532 514.728V522H246.348ZM268.578 518.4V510.648H266.874V508.848H268.578V505.536H270.762V508.848H274.194V510.648H270.762V518.4C270.762 519.696 271.242 520.152 272.586 520.152H274.194V522H272.226C269.898 522 268.578 521.04 268.578 518.4ZM276.84 522V504.24H279.024V510.744C279.888 509.352 281.52 508.608 283.368 508.608C286.296 508.608 288.624 510.48 288.624 514.248V522H286.464V514.56C286.464 511.872 285 510.504 282.792 510.504C280.56 510.504 279.024 511.896 279.024 514.728V522H276.84ZM297.784 510.48C295.648 510.48 293.872 511.896 293.632 514.464H301.936C301.96 511.896 300.04 510.48 297.784 510.48ZM303.928 517.944C303.256 520.344 301.144 522.216 297.88 522.216C294.136 522.216 291.376 519.576 291.376 515.4C291.376 511.248 294.04 508.632 297.88 508.632C301.696 508.632 304.192 511.32 304.192 514.92C304.192 515.4 304.168 515.784 304.12 516.24H293.608C293.776 518.904 295.648 520.368 297.88 520.368C299.848 520.368 301.096 519.36 301.576 517.944H303.928ZM315.657 514.848V522H313.473V508.848H315.657V510.984C316.401 509.52 317.817 508.608 319.905 508.608V510.864H319.329C317.241 510.864 315.657 511.8 315.657 514.848ZM322.426 522V508.848H324.61V522H322.426ZM323.554 506.712C322.714 506.712 322.066 506.064 322.066 505.224C322.066 504.384 322.714 503.736 323.554 503.736C324.346 503.736 324.994 504.384 324.994 505.224C324.994 506.064 324.346 506.712 323.554 506.712ZM327.516 515.376C327.516 511.272 330.228 508.632 333.756 508.632C336.156 508.632 337.884 509.832 338.652 511.248V508.848H340.86V522.288C340.86 525.912 338.436 528.48 334.572 528.48C331.116 528.48 328.644 526.728 328.212 523.92H330.372C330.852 525.504 332.412 526.584 334.572 526.584C336.9 526.584 338.652 525.096 338.652 522.288V519.528C337.86 520.944 336.156 522.216 333.756 522.216C330.228 522.216 327.516 519.456 327.516 515.376ZM338.652 515.4C338.652 512.352 336.588 510.528 334.188 510.528C331.788 510.528 329.748 512.28 329.748 515.376C329.748 518.472 331.788 520.296 334.188 520.296C336.588 520.296 338.652 518.496 338.652 515.4ZM344.551 522V504.24H346.735V510.744C347.599 509.352 349.231 508.608 351.079 508.608C354.007 508.608 356.335 510.48 356.335 514.248V522H354.175V514.56C354.175 511.872 352.711 510.504 350.503 510.504C348.271 510.504 346.735 511.896 346.735 514.728V522H344.551ZM360.383 518.4V510.648H358.679V508.848H360.383V505.536H362.567V508.848H365.999V510.648H362.567V518.4C362.567 519.696 363.047 520.152 364.391 520.152H365.999V522H364.031C361.703 522 360.383 521.04 360.383 518.4ZM97.3015 543.272C98.0935 541.88 99.8215 540.632 102.222 540.632C105.75 540.632 108.462 543.272 108.462 547.376C108.462 551.456 105.75 554.216 102.222 554.216C99.8215 554.216 98.1175 552.92 97.3015 551.576V560.24H95.1175V540.848H97.3015V543.272ZM106.23 547.376C106.23 544.28 104.19 542.528 101.766 542.528C99.3895 542.528 97.3015 544.352 97.3015 547.4C97.3015 550.496 99.3895 552.296 101.766 552.296C104.19 552.296 106.23 550.472 106.23 547.376ZM116.928 542.48C114.792 542.48 113.016 543.896 112.776 546.464H121.08C121.104 543.896 119.184 542.48 116.928 542.48ZM123.072 549.944C122.4 552.344 120.288 554.216 117.024 554.216C113.28 554.216 110.52 551.576 110.52 547.4C110.52 543.248 113.184 540.632 117.024 540.632C120.84 540.632 123.336 543.32 123.336 546.92C123.336 547.4 123.312 547.784 123.264 548.24H112.752C112.92 550.904 114.792 552.368 117.024 552.368C118.992 552.368 120.24 551.36 120.72 549.944H123.072ZM138.699 547.4C138.699 551.576 135.699 554.216 131.955 554.216C128.235 554.216 125.403 551.576 125.403 547.4C125.403 543.248 128.331 540.632 132.051 540.632C135.795 540.632 138.699 543.248 138.699 547.4ZM127.635 547.4C127.635 550.736 129.675 552.296 131.955 552.296C134.235 552.296 136.467 550.736 136.467 547.4C136.467 544.088 134.283 542.528 132.027 542.528C129.723 542.528 127.635 544.088 127.635 547.4ZM143.755 543.272C144.547 541.88 146.275 540.632 148.675 540.632C152.203 540.632 154.915 543.272 154.915 547.376C154.915 551.456 152.203 554.216 148.675 554.216C146.275 554.216 144.571 552.92 143.755 551.576V560.24H141.571V540.848H143.755V543.272ZM152.683 547.376C152.683 544.28 150.643 542.528 148.219 542.528C145.843 542.528 143.755 544.352 143.755 547.4C143.755 550.496 145.843 552.296 148.219 552.296C150.643 552.296 152.683 550.472 152.683 547.376ZM157.789 554V536.24H159.973V554H157.789ZM169.288 542.48C167.152 542.48 165.376 543.896 165.136 546.464H173.44C173.464 543.896 171.544 542.48 169.288 542.48ZM175.432 549.944C174.76 552.344 172.648 554.216 169.384 554.216C165.64 554.216 162.88 551.576 162.88 547.4C162.88 543.248 165.544 540.632 169.384 540.632C173.2 540.632 175.696 543.32 175.696 546.92C175.696 547.4 175.672 547.784 175.624 548.24H165.112C165.28 550.904 167.152 552.368 169.384 552.368C171.352 552.368 172.6 551.36 173.08 549.944H175.432ZM184.161 547.376C184.161 543.272 186.873 540.632 190.401 540.632C192.849 540.632 194.529 541.88 195.297 543.248V540.848H197.505V554H195.297V551.552C194.505 552.968 192.801 554.216 190.377 554.216C186.873 554.216 184.161 551.456 184.161 547.376ZM195.297 547.4C195.297 544.352 193.233 542.528 190.833 542.528C188.433 542.528 186.393 544.28 186.393 547.376C186.393 550.472 188.433 552.296 190.833 552.296C193.233 552.296 195.297 550.496 195.297 547.4ZM201.676 550.4V542.648H199.972V540.848H201.676V537.536H203.86V540.848H207.292V542.648H203.86V550.4C203.86 551.696 204.34 552.152 205.684 552.152H207.292V554H205.324C202.996 554 201.676 553.04 201.676 550.4ZM216.816 550.4V542.648H215.112V540.848H216.816V537.536H219V540.848H222.432V542.648H219V550.4C219 551.696 219.48 552.152 220.824 552.152H222.432V554H220.464C218.136 554 216.816 553.04 216.816 550.4ZM225.078 554V536.24H227.262V542.744C228.126 541.352 229.758 540.608 231.606 540.608C234.534 540.608 236.862 542.48 236.862 546.248V554H234.702V546.56C234.702 543.872 233.238 542.504 231.03 542.504C228.798 542.504 227.262 543.896 227.262 546.728V554H225.078ZM246.022 542.48C243.886 542.48 242.11 543.896 241.87 546.464H250.174C250.198 543.896 248.278 542.48 246.022 542.48ZM252.166 549.944C251.494 552.344 249.382 554.216 246.118 554.216C242.374 554.216 239.614 551.576 239.614 547.4C239.614 543.248 242.278 540.632 246.118 540.632C249.934 540.632 252.43 543.32 252.43 546.92C252.43 547.4 252.406 547.784 252.358 548.24H241.846C242.014 550.904 243.886 552.368 246.118 552.368C248.086 552.368 249.334 551.36 249.814 549.944H252.166ZM263.895 546.848V554H261.711V540.848H263.895V542.984C264.639 541.52 266.055 540.608 268.143 540.608V542.864H267.567C265.479 542.864 263.895 543.8 263.895 546.848ZM270.664 554V540.848H272.848V554H270.664ZM271.792 538.712C270.952 538.712 270.304 538.064 270.304 537.224C270.304 536.384 270.952 535.736 271.792 535.736C272.584 535.736 273.232 536.384 273.232 537.224C273.232 538.064 272.584 538.712 271.792 538.712ZM275.755 547.376C275.755 543.272 278.467 540.632 281.995 540.632C284.395 540.632 286.123 541.832 286.891 543.248V540.848H289.099V554.288C289.099 557.912 286.675 560.48 282.811 560.48C279.355 560.48 276.883 558.728 276.451 555.92H278.611C279.091 557.504 280.651 558.584 282.811 558.584C285.139 558.584 286.891 557.096 286.891 554.288V551.528C286.099 552.944 284.395 554.216 281.995 554.216C278.467 554.216 275.755 551.456 275.755 547.376ZM286.891 547.4C286.891 544.352 284.827 542.528 282.427 542.528C280.027 542.528 277.987 544.28 277.987 547.376C277.987 550.472 280.027 552.296 282.427 552.296C284.827 552.296 286.891 550.496 286.891 547.4ZM292.789 554V536.24H294.973V542.744C295.837 541.352 297.469 540.608 299.317 540.608C302.245 540.608 304.573 542.48 304.573 546.248V554H302.413V546.56C302.413 543.872 300.949 542.504 298.741 542.504C296.509 542.504 294.973 543.896 294.973 546.728V554H292.789ZM308.621 550.4V542.648H306.917V540.848H308.621V537.536H310.805V540.848H314.237V542.648H310.805V550.4C310.805 551.696 311.285 552.152 312.629 552.152H314.237V554H312.269C309.941 554 308.621 553.04 308.621 550.4ZM323.762 550.4V542.648H322.058V540.848H323.762V537.536H325.946V540.848H329.378V542.648H325.946V550.4C325.946 551.696 326.426 552.152 327.77 552.152H329.378V554H327.41C325.082 554 323.762 553.04 323.762 550.4ZM332.024 554V540.848H334.208V554H332.024ZM333.152 538.712C332.312 538.712 331.664 538.064 331.664 537.224C331.664 536.384 332.312 535.736 333.152 535.736C333.944 535.736 334.592 536.384 334.592 537.224C334.592 538.064 333.944 538.712 333.152 538.712ZM356.914 554V546.56C356.914 543.872 355.474 542.504 353.314 542.504C351.106 542.504 349.594 543.92 349.594 546.752V554H347.434V546.56C347.434 543.872 345.994 542.504 343.834 542.504C341.626 542.504 340.114 543.92 340.114 546.752V554H337.93V540.848H340.114V542.744C340.978 541.352 342.538 540.608 344.266 540.608C346.426 540.608 348.226 541.568 349.09 543.536C349.858 541.64 351.73 540.608 353.746 540.608C356.746 540.608 359.074 542.48 359.074 546.248V554H356.914ZM368.249 542.48C366.113 542.48 364.337 543.896 364.097 546.464H372.401C372.425 543.896 370.505 542.48 368.249 542.48ZM374.393 549.944C373.721 552.344 371.609 554.216 368.345 554.216C364.601 554.216 361.841 551.576 361.841 547.4C361.841 543.248 364.505 540.632 368.345 540.632C372.161 540.632 374.657 543.32 374.657 546.92C374.657 547.4 374.633 547.784 374.585 548.24H364.073C364.241 550.904 366.113 552.368 368.345 552.368C370.313 552.368 371.561 551.36 372.041 549.944H374.393ZM379.675 552.656C379.675 553.496 379.027 554.144 378.235 554.144C377.395 554.144 376.747 553.496 376.747 552.656C376.747 551.816 377.395 551.168 378.235 551.168C379.027 551.168 379.675 551.816 379.675 552.656Z" fill="#595959"/>
<g filter="url(#filter2_d_1455_1942)">
<rect x="22" y="21.2012" width="425" height="302" rx="20" fill="white"/>
<path d="M166.448 50L165.584 47.6091H160.895L160.031 50H158.55L162.437 39.3103H164.057L167.929 50H166.448ZM165.183 46.4676L163.239 41.038L161.296 46.4676H165.183ZM169.869 45.7426C169.869 43.1049 171.613 41.4082 173.88 41.4082C175.423 41.4082 176.533 42.1794 177.027 43.0895V41.547H178.446V50.1851C178.446 52.5143 176.888 54.1648 174.405 54.1648C172.183 54.1648 170.594 53.0388 170.317 51.234H171.705C172.014 52.2521 173.016 52.9462 174.405 52.9462C175.901 52.9462 177.027 51.9899 177.027 50.1851V48.4112C176.518 49.3213 175.423 50.1388 173.88 50.1388C171.613 50.1388 169.869 48.3649 169.869 45.7426ZM177.027 45.7581C177.027 43.7991 175.7 42.6268 174.158 42.6268C172.615 42.6268 171.304 43.7528 171.304 45.7426C171.304 47.7325 172.615 48.9048 174.158 48.9048C175.7 48.9048 177.027 47.7479 177.027 45.7581ZM185.183 42.5959C183.811 42.5959 182.669 43.506 182.515 45.1565H187.852C187.867 43.506 186.633 42.5959 185.183 42.5959ZM189.132 47.3931C188.7 48.9357 187.343 50.1388 185.245 50.1388C182.839 50.1388 181.065 48.4421 181.065 45.7581C181.065 43.0895 182.777 41.4082 185.245 41.4082C187.698 41.4082 189.302 43.1358 189.302 45.4496C189.302 45.7581 189.286 46.0049 189.256 46.298H182.499C182.607 48.0101 183.811 48.9511 185.245 48.9511C186.51 48.9511 187.312 48.3032 187.621 47.3931H189.132ZM200.157 39.2486C203.689 39.2486 205.864 41.3156 205.864 44.6475C205.864 47.9793 203.689 50 200.157 50H196.81V39.2486H200.157ZM198.213 48.8431H200.157C202.964 48.8431 204.43 47.2697 204.43 44.6475C204.43 42.0252 202.964 40.3901 200.157 40.3901H198.213V48.8431ZM212.081 42.5959C210.708 42.5959 209.567 43.506 209.412 45.1565H214.75C214.765 43.506 213.531 42.5959 212.081 42.5959ZM216.03 47.3931C215.598 48.9357 214.241 50.1388 212.143 50.1388C209.736 50.1388 207.963 48.4421 207.963 45.7581C207.963 43.0895 209.675 41.4082 212.143 41.4082C214.595 41.4082 216.2 43.1358 216.2 45.4496C216.2 45.7581 216.184 46.0049 216.153 46.298H209.397C209.505 48.0101 210.708 48.9511 212.143 48.9511C213.408 48.9511 214.21 48.3032 214.518 47.3931H216.03ZM231.025 50V45.2182C231.025 43.4906 230.099 42.6113 228.711 42.6113C227.292 42.6113 226.32 43.5214 226.32 45.3416V50H224.932V45.2182C224.932 43.4906 224.007 42.6113 222.618 42.6113C221.199 42.6113 220.227 43.5214 220.227 45.3416V50H218.824V41.547H220.227V42.7656C220.783 41.8709 221.785 41.3927 222.896 41.3927C224.284 41.3927 225.441 42.0097 225.996 43.2746C226.49 42.056 227.693 41.3927 228.989 41.3927C230.917 41.3927 232.413 42.5959 232.413 45.0177V50H231.025ZM243.508 45.7581C243.508 48.4421 241.58 50.1388 239.174 50.1388C236.783 50.1388 234.963 48.4421 234.963 45.7581C234.963 43.0895 236.845 41.4082 239.235 41.4082C241.642 41.4082 243.508 43.0895 243.508 45.7581ZM236.397 45.7581C236.397 47.9022 237.708 48.9048 239.174 48.9048C240.639 48.9048 242.074 47.9022 242.074 45.7581C242.074 43.6294 240.67 42.6268 239.22 42.6268C237.739 42.6268 236.397 43.6294 236.397 45.7581ZM245.601 45.7426C245.601 43.1049 247.344 41.4082 249.611 41.4082C251.154 41.4082 252.264 42.1794 252.758 43.0895V41.547H254.177V50.1851C254.177 52.5143 252.619 54.1648 250.136 54.1648C247.914 54.1648 246.326 53.0388 246.048 51.234H247.436C247.745 52.2521 248.747 52.9462 250.136 52.9462C251.632 52.9462 252.758 51.9899 252.758 50.1851V48.4112C252.249 49.3213 251.154 50.1388 249.611 50.1388C247.344 50.1388 245.601 48.3649 245.601 45.7426ZM252.758 45.7581C252.758 43.7991 251.431 42.6268 249.889 42.6268C248.346 42.6268 247.035 43.7528 247.035 45.7426C247.035 47.7325 248.346 48.9048 249.889 48.9048C251.431 48.9048 252.758 47.7479 252.758 45.7581ZM258.724 45.4033V50H257.32V41.547H258.724V42.9198C259.202 41.9789 260.112 41.3927 261.454 41.3927V42.8427H261.084C259.742 42.8427 258.724 43.4443 258.724 45.4033ZM263.322 45.7426C263.322 43.1049 265.065 41.4082 267.332 41.4082C268.905 41.4082 269.985 42.2103 270.479 43.0895V41.547H271.898V50H270.479V48.4266C269.97 49.3367 268.875 50.1388 267.317 50.1388C265.065 50.1388 263.322 48.3649 263.322 45.7426ZM270.479 45.7581C270.479 43.7991 269.152 42.6268 267.61 42.6268C266.067 42.6268 264.756 43.7528 264.756 45.7426C264.756 47.7325 266.067 48.9048 267.61 48.9048C269.152 48.9048 270.479 47.7479 270.479 45.7581ZM276.445 43.1049C276.954 42.2103 278.065 41.4082 279.607 41.4082C281.875 41.4082 283.618 43.1049 283.618 45.7426C283.618 48.3649 281.875 50.1388 279.607 50.1388C278.065 50.1388 276.969 49.3059 276.445 48.4421V54.0106H275.041V41.547H276.445V43.1049ZM282.183 45.7426C282.183 43.7528 280.872 42.6268 279.314 42.6268C277.787 42.6268 276.445 43.7991 276.445 45.7581C276.445 47.7479 277.787 48.9048 279.314 48.9048C280.872 48.9048 282.183 47.7325 282.183 45.7426ZM286.237 50V38.5854H287.64V42.7656C288.196 41.8709 289.245 41.3927 290.432 41.3927C292.314 41.3927 293.81 42.5959 293.81 45.0177V50H292.422V45.2182C292.422 43.4906 291.481 42.6113 290.062 42.6113C288.628 42.6113 287.64 43.506 287.64 45.3262V50H286.237ZM296.875 50V41.547H298.278V50H296.875ZM297.6 40.1741C297.06 40.1741 296.643 39.7577 296.643 39.2178C296.643 38.6779 297.06 38.2614 297.6 38.2614C298.109 38.2614 298.525 38.6779 298.525 39.2178C298.525 39.7577 298.109 40.1741 297.6 40.1741ZM300.917 45.7581C300.917 43.1049 302.63 41.4082 305.036 41.4082C307.134 41.4082 308.507 42.4879 308.939 44.2618H307.427C307.134 43.2438 306.285 42.5959 305.036 42.5959C303.493 42.5959 302.352 43.6911 302.352 45.7581C302.352 47.8559 303.493 48.9511 305.036 48.9511C306.285 48.9511 307.118 48.3495 307.427 47.2852H308.939C308.507 48.9665 307.134 50.1388 305.036 50.1388C302.63 50.1388 300.917 48.4421 300.917 45.7581Z" fill="#282636"/>
<path d="M96 208.531L87.0253 208.531L87.0253 205.499C87.0253 204.795 87.1524 204.219 87.4066 203.772C87.6578 203.322 87.9982 202.989 88.4276 202.773C88.8571 202.557 89.3362 202.449 89.865 202.449C90.3938 202.449 90.8743 202.557 91.3067 202.773C91.7391 202.986 92.0838 203.317 92.3409 203.764C92.5951 204.211 92.7221 204.783 92.7221 205.481L92.7221 207.655L91.7581 207.655L91.7581 205.516C91.7581 205.034 91.6748 204.647 91.5083 204.355C91.3418 204.063 91.1168 203.851 90.8334 203.72C90.5471 203.585 90.2243 203.518 89.865 203.518C89.5056 203.518 89.1843 203.585 88.9009 203.72C88.6175 203.851 88.3955 204.065 88.2348 204.36C88.0712 204.655 87.9894 205.046 87.9894 205.534L87.9894 207.445L96 207.445L96 208.531ZM96.1402 198.089C96.1402 198.737 95.9971 199.297 95.7108 199.767C95.4216 200.234 95.0184 200.595 94.5013 200.849C93.9813 201.101 93.3765 201.226 92.6871 201.226C91.9976 201.226 91.39 201.101 90.8641 200.849C90.3353 200.595 89.9234 200.242 89.6283 199.789C89.3304 199.333 89.1814 198.802 89.1814 198.194C89.1814 197.843 89.2398 197.497 89.3566 197.155C89.4735 196.813 89.6634 196.502 89.9263 196.222C90.1863 195.941 90.5311 195.718 90.9605 195.551C91.39 195.385 91.9187 195.302 92.5469 195.302L92.9851 195.302L92.9851 200.49L92.0911 200.49L92.0911 196.353C91.7113 196.353 91.3724 196.429 91.0745 196.581C90.7765 196.73 90.5413 196.943 90.3689 197.221C90.1966 197.496 90.1104 197.82 90.1104 198.194C90.1104 198.606 90.2126 198.962 90.4171 199.263C90.6187 199.561 90.8816 199.79 91.2059 199.951C91.5302 200.112 91.8778 200.192 92.2489 200.192L92.8448 200.192C93.3532 200.192 93.7841 200.104 94.1376 199.929C94.4882 199.751 94.7555 199.504 94.9395 199.189C95.1206 198.873 95.2112 198.506 95.2112 198.089C95.2112 197.817 95.1732 197.572 95.0973 197.352C95.0184 197.13 94.9015 196.939 94.7467 196.778C94.5889 196.618 94.3932 196.494 94.1595 196.406L94.44 195.407C94.7788 195.512 95.0768 195.689 95.3339 195.937C95.5881 196.185 95.7867 196.492 95.9299 196.857C96.0701 197.222 96.1402 197.633 96.1402 198.089ZM96 193.728L89.269 193.728L89.269 192.729L90.2857 192.729L90.2857 192.659C89.9526 192.537 89.6824 192.314 89.475 191.993C89.2675 191.672 89.1638 191.31 89.1638 190.906C89.1638 190.83 89.1653 190.735 89.1682 190.622C89.1711 190.508 89.1755 190.421 89.1814 190.363L90.2331 190.363C90.2243 190.398 90.2112 190.478 90.1936 190.604C90.1732 190.727 90.163 190.857 90.163 190.994C90.163 191.321 90.2316 191.613 90.3689 191.87C90.5033 192.125 90.6903 192.326 90.9298 192.475C91.1665 192.621 91.4367 192.694 91.7405 192.694L96 192.694L96 193.728ZM96.1402 186.607C96.1402 187.238 95.9912 187.782 95.6932 188.238C95.3953 188.693 94.9848 189.044 94.4619 189.289C93.9389 189.535 93.3415 189.657 92.6696 189.657C91.9859 189.657 91.3827 189.532 90.8597 189.281C90.3339 189.026 89.9234 188.673 89.6283 188.22C89.3304 187.764 89.1814 187.233 89.1814 186.625C89.1814 186.152 89.269 185.725 89.4443 185.345C89.6196 184.966 89.865 184.654 90.1805 184.412C90.496 184.17 90.8641 184.019 91.2848 183.961L91.2848 184.995C90.978 185.074 90.7063 185.249 90.4697 185.521C90.2302 185.789 90.1104 186.152 90.1104 186.607C90.1104 187.011 90.2155 187.364 90.4259 187.668C90.6333 187.969 90.9269 188.204 91.3067 188.373C91.6836 188.54 92.1262 188.623 92.6345 188.623C93.1545 188.623 93.6073 188.541 93.993 188.378C94.3786 188.211 94.678 187.978 94.8913 187.677C95.1046 187.373 95.2112 187.016 95.2112 186.607C95.2112 186.339 95.1645 186.095 95.071 185.876C94.9775 185.657 94.8431 185.471 94.6678 185.319C94.4925 185.167 94.2822 185.059 94.0368 184.995L94.0368 183.961C94.4341 184.019 94.792 184.164 95.1104 184.394C95.4259 184.622 95.6772 184.925 95.8642 185.302C96.0482 185.676 96.1402 186.111 96.1402 186.607ZM96.1402 179.627C96.1402 180.275 95.9971 180.835 95.7108 181.305C95.4216 181.772 95.0184 182.133 94.5013 182.387C93.9813 182.639 93.3765 182.764 92.6871 182.764C91.9976 182.764 91.39 182.639 90.8641 182.387C90.3353 182.133 89.9234 181.78 89.6283 181.327C89.3304 180.871 89.1814 180.339 89.1814 179.732C89.1814 179.381 89.2398 179.035 89.3566 178.693C89.4735 178.351 89.6634 178.04 89.9263 177.76C90.1863 177.479 90.5311 177.256 90.9605 177.089C91.39 176.923 91.9187 176.84 92.5469 176.84L92.9851 176.84L92.9851 182.028L92.0911 182.028L92.0911 177.891C91.7113 177.891 91.3724 177.967 91.0745 178.119C90.7765 178.268 90.5413 178.481 90.3689 178.759C90.1966 179.034 90.1104 179.358 90.1104 179.732C90.1104 180.144 90.2126 180.5 90.4171 180.801C90.6187 181.099 90.8816 181.328 91.2059 181.489C91.5302 181.65 91.8778 181.73 92.2489 181.73L92.8448 181.73C93.3532 181.73 93.7841 181.642 94.1376 181.467C94.4882 181.289 94.7555 181.042 94.9395 180.727C95.1206 180.411 95.2112 180.044 95.2112 179.627C95.2112 179.355 95.1732 179.11 95.0973 178.89C95.0184 178.668 94.9015 178.477 94.7467 178.316C94.5889 178.156 94.3932 178.032 94.1595 177.944L94.4399 176.945C94.7788 177.05 95.0768 177.227 95.3339 177.475C95.5881 177.723 95.7867 178.03 95.9299 178.395C96.0701 178.76 96.1402 179.171 96.1402 179.627ZM91.9509 174.232L96 174.232L96 175.266L89.269 175.266L89.269 174.267L90.3207 174.267L90.3207 174.18C89.9789 174.022 89.7043 173.782 89.4969 173.461C89.2865 173.14 89.1814 172.725 89.1814 172.216C89.1814 171.761 89.2748 171.362 89.4618 171.02C89.6459 170.678 89.9263 170.412 90.3032 170.223C90.6771 170.033 91.1504 169.938 91.723 169.938L96 169.938L96 170.972L91.7931 170.972C91.2643 170.972 90.8524 171.109 90.5574 171.384C90.2594 171.658 90.1104 172.035 90.1104 172.514C90.1104 172.845 90.182 173.14 90.3251 173.4C90.4683 173.657 90.6771 173.86 90.9518 174.009C91.2264 174.158 91.5594 174.232 91.9509 174.232ZM89.269 165.121L90.1454 165.121L90.1454 168.609L89.269 168.609L89.269 165.121ZM87.6564 167.592L87.6564 166.558L94.0718 166.558C94.364 166.558 94.5831 166.516 94.7292 166.431C94.8723 166.343 94.9687 166.232 95.0184 166.098C95.0651 165.961 95.0885 165.816 95.0885 165.664C95.0885 165.55 95.0827 165.457 95.071 165.384C95.0564 165.311 95.0447 165.252 95.0359 165.208L95.9649 164.998C95.9912 165.068 96.0175 165.166 96.0438 165.292C96.073 165.417 96.0876 165.576 96.0876 165.769C96.0876 166.061 96.0248 166.348 95.8992 166.628C95.7736 166.906 95.5822 167.136 95.3251 167.32C95.0681 167.502 94.7438 167.592 94.3523 167.592L87.6564 167.592ZM96.1578 161.584C96.1578 162.011 96.0774 162.398 95.9167 162.745C95.7531 163.093 95.518 163.369 95.2112 163.574C94.9015 163.778 94.5276 163.88 94.0894 163.88C93.7037 163.88 93.3912 163.805 93.1516 163.653C92.9091 163.501 92.7192 163.298 92.5819 163.043C92.4446 162.789 92.3424 162.509 92.2752 162.202C92.205 161.892 92.1495 161.581 92.1086 161.269C92.0561 160.86 92.0166 160.528 91.9903 160.274C91.9611 160.017 91.9129 159.83 91.8457 159.713C91.7785 159.593 91.6617 159.533 91.4951 159.533L91.4601 159.533C91.0277 159.533 90.6917 159.652 90.4522 159.888C90.2126 160.122 90.0928 160.477 90.0928 160.953C90.0928 161.447 90.2009 161.834 90.4171 162.114C90.6333 162.395 90.8641 162.592 91.1095 162.706L90.7589 163.688C90.3499 163.512 90.0315 163.279 89.8036 162.987C89.5728 162.691 89.4122 162.37 89.3216 162.022C89.2281 161.672 89.1814 161.327 89.1814 160.988C89.1814 160.772 89.2077 160.524 89.2602 160.243C89.3099 159.96 89.4136 159.687 89.5714 159.424C89.7291 159.158 89.9672 158.937 90.2857 158.762C90.6041 158.587 91.0306 158.499 91.5653 158.499L96 158.499L96 159.533L95.0885 159.533L95.0885 159.586C95.2346 159.656 95.3909 159.773 95.5574 159.937C95.7239 160.1 95.8656 160.318 95.9825 160.589C96.0993 160.861 96.1578 161.193 96.1578 161.584ZM95.2287 161.426C95.2287 161.017 95.1484 160.673 94.9877 160.392C94.827 160.109 94.6196 159.896 94.3655 159.752C94.1113 159.606 93.844 159.533 93.5635 159.533L92.617 159.533C92.6696 159.577 92.7178 159.674 92.7616 159.823C92.8025 159.969 92.839 160.138 92.8711 160.331C92.9004 160.521 92.9266 160.706 92.95 160.887C92.9705 161.066 92.988 161.21 93.0026 161.321C93.0377 161.59 93.0946 161.841 93.1735 162.075C93.2495 162.306 93.3649 162.493 93.5197 162.636C93.6716 162.776 93.879 162.846 94.142 162.846C94.5013 162.846 94.773 162.713 94.957 162.447C95.1382 162.179 95.2287 161.838 95.2287 161.426ZM98.6644 153.895C98.6644 154.394 98.6001 154.824 98.4715 155.183C98.3459 155.542 98.1794 155.842 97.972 156.081C97.7675 156.318 97.5484 156.506 97.3146 156.647L96.7362 155.823C96.8589 155.729 96.9991 155.611 97.1569 155.468C97.3176 155.325 97.4563 155.129 97.5732 154.881C97.693 154.629 97.7529 154.301 97.7529 153.895C97.7529 153.351 97.6214 152.903 97.3585 152.549C97.0955 152.196 96.6836 152.019 96.1227 152.019L94.7555 152.019L94.7555 152.107C94.8782 152.183 95.0301 152.291 95.2112 152.431C95.3894 152.568 95.5486 152.767 95.6889 153.027C95.8262 153.284 95.8948 153.632 95.8948 154.07C95.8948 154.613 95.7663 155.101 95.5092 155.534C95.2521 155.963 94.8782 156.303 94.3874 156.555C93.8966 156.803 93.3006 156.927 92.5994 156.927C91.91 156.927 91.3096 156.806 90.7984 156.563C90.2842 156.321 89.8869 155.983 89.6064 155.551C89.323 155.119 89.1814 154.619 89.1814 154.052C89.1814 153.614 89.2544 153.267 89.4005 153.009C89.5436 152.749 89.7072 152.551 89.8913 152.413C90.0724 152.273 90.2214 152.165 90.3382 152.089L90.3382 151.984L89.269 151.984L89.269 150.985L96.1928 150.985C96.7713 150.985 97.2416 151.116 97.6039 151.379C97.969 151.639 98.2364 151.99 98.4058 152.431C98.5782 152.869 98.6644 153.357 98.6644 153.895ZM94.9658 153.93C94.9658 153.515 94.8709 153.164 94.681 152.878C94.4911 152.592 94.2179 152.374 93.8615 152.225C93.5051 152.076 93.0786 152.002 92.5819 152.002C92.097 152.002 91.669 152.075 91.2979 152.221C90.9269 152.367 90.6362 152.583 90.4259 152.869C90.2155 153.155 90.1104 153.509 90.1104 153.93C90.1104 154.368 90.2214 154.733 90.4434 155.025C90.6654 155.314 90.9634 155.532 91.3374 155.678C91.7113 155.821 92.1262 155.893 92.5819 155.893C93.0493 155.893 93.4627 155.82 93.8221 155.674C94.1785 155.525 94.4589 155.306 94.6634 155.016C94.865 154.724 94.9658 154.362 94.9658 153.93ZM96.1402 146.27C96.1402 146.918 95.9971 147.478 95.7108 147.948C95.4216 148.415 95.0184 148.776 94.5013 149.03C93.9813 149.282 93.3765 149.407 92.6871 149.407C91.9976 149.407 91.39 149.282 90.8641 149.03C90.3353 148.776 89.9234 148.423 89.6283 147.97C89.3304 147.514 89.1814 146.982 89.1814 146.375C89.1814 146.024 89.2398 145.678 89.3566 145.336C89.4735 144.994 89.6634 144.683 89.9263 144.403C90.1863 144.122 90.5311 143.899 90.9605 143.732C91.39 143.566 91.9187 143.483 92.5469 143.483L92.9851 143.483L92.9851 148.671L92.0911 148.671L92.0911 144.534C91.7113 144.534 91.3724 144.61 91.0744 144.762C90.7765 144.911 90.5413 145.124 90.3689 145.402C90.1966 145.677 90.1104 146.001 90.1104 146.375C90.1104 146.787 90.2126 147.143 90.4171 147.444C90.6187 147.742 90.8816 147.971 91.2059 148.132C91.5302 148.293 91.8778 148.373 92.2489 148.373L92.8448 148.373C93.3532 148.373 93.7841 148.285 94.1376 148.11C94.4882 147.932 94.7555 147.685 94.9395 147.37C95.1206 147.054 95.2112 146.687 95.2112 146.27C95.2112 145.998 95.1732 145.753 95.0973 145.533C95.0184 145.311 94.9015 145.12 94.7467 144.959C94.5889 144.799 94.3932 144.675 94.1595 144.587L94.4399 143.588C94.7788 143.693 95.0768 143.87 95.3339 144.118C95.5881 144.366 95.7867 144.673 95.9299 145.038C96.0701 145.403 96.1402 145.814 96.1402 146.27Z" fill="black"/>
<path d="M225.053 308.771H223.913L227.209 299.796H228.33L231.626 308.771H230.486L227.805 301.216H227.734L225.053 308.771ZM225.473 305.265H230.066V306.229H225.473V305.265ZM235.6 311.435C235.101 311.435 234.671 311.371 234.312 311.242C233.953 311.116 233.653 310.95 233.414 310.742C233.177 310.538 232.989 310.319 232.848 310.085L233.672 309.507C233.766 309.629 233.884 309.77 234.027 309.927C234.17 310.088 234.366 310.227 234.614 310.344C234.866 310.463 235.194 310.523 235.6 310.523C236.144 310.523 236.592 310.392 236.946 310.129C237.299 309.866 237.476 309.454 237.476 308.893V307.526H237.388C237.312 307.649 237.204 307.801 237.064 307.982C236.927 308.16 236.728 308.319 236.468 308.459C236.211 308.597 235.863 308.665 235.425 308.665C234.882 308.665 234.394 308.537 233.961 308.28C233.532 308.023 233.192 307.649 232.94 307.158C232.692 306.667 232.568 306.071 232.568 305.37C232.568 304.68 232.689 304.08 232.932 303.569C233.174 303.055 233.512 302.657 233.944 302.377C234.376 302.094 234.876 301.952 235.443 301.952C235.881 301.952 236.229 302.025 236.486 302.171C236.746 302.314 236.944 302.478 237.082 302.662C237.222 302.843 237.33 302.992 237.406 303.109H237.511V302.04H238.51V308.963C238.51 309.542 238.379 310.012 238.116 310.374C237.856 310.74 237.505 311.007 237.064 311.176C236.626 311.349 236.138 311.435 235.6 311.435ZM235.565 307.736C235.98 307.736 236.331 307.641 236.617 307.451C236.903 307.262 237.121 306.988 237.27 306.632C237.419 306.276 237.493 305.849 237.493 305.352C237.493 304.867 237.42 304.439 237.274 304.068C237.128 303.697 236.912 303.407 236.626 303.196C236.34 302.986 235.986 302.881 235.565 302.881C235.127 302.881 234.762 302.992 234.47 303.214C234.181 303.436 233.963 303.734 233.817 304.108C233.674 304.482 233.602 304.897 233.602 305.352C233.602 305.82 233.675 306.233 233.821 306.593C233.97 306.949 234.189 307.229 234.479 307.434C234.771 307.636 235.133 307.736 235.565 307.736ZM243.225 308.911C242.577 308.911 242.017 308.768 241.547 308.481C241.08 308.192 240.719 307.789 240.465 307.272C240.213 306.752 240.088 306.147 240.088 305.458C240.088 304.768 240.213 304.16 240.465 303.635C240.719 303.106 241.072 302.694 241.525 302.399C241.981 302.101 242.513 301.952 243.12 301.952C243.471 301.952 243.817 302.01 244.159 302.127C244.501 302.244 244.812 302.434 245.092 302.697C245.373 302.957 245.596 303.302 245.763 303.731C245.929 304.16 246.012 304.689 246.012 305.317V305.756H240.824V304.862H244.961C244.961 304.482 244.885 304.143 244.733 303.845C244.584 303.547 244.371 303.312 244.093 303.139C243.818 302.967 243.494 302.881 243.12 302.881C242.708 302.881 242.352 302.983 242.051 303.188C241.753 303.389 241.524 303.652 241.363 303.976C241.202 304.301 241.122 304.648 241.122 305.019V305.615C241.122 306.124 241.21 306.555 241.385 306.908C241.563 307.259 241.81 307.526 242.125 307.71C242.441 307.891 242.808 307.982 243.225 307.982C243.497 307.982 243.742 307.944 243.962 307.868C244.184 307.789 244.375 307.672 244.536 307.517C244.696 307.359 244.82 307.164 244.908 306.93L245.907 307.21C245.802 307.549 245.625 307.847 245.377 308.104C245.129 308.359 244.822 308.557 244.457 308.7C244.092 308.841 243.681 308.911 243.225 308.911ZM253.773 311.435C253.274 311.435 252.844 311.371 252.485 311.242C252.126 311.116 251.826 310.95 251.587 310.742C251.35 310.538 251.161 310.319 251.021 310.085L251.845 309.507C251.939 309.629 252.057 309.77 252.2 309.927C252.343 310.088 252.539 310.227 252.787 310.344C253.038 310.463 253.367 310.523 253.773 310.523C254.317 310.523 254.765 310.392 255.119 310.129C255.472 309.866 255.649 309.454 255.649 308.893V307.526H255.561C255.485 307.649 255.377 307.801 255.237 307.982C255.1 308.16 254.901 308.319 254.641 308.459C254.384 308.597 254.036 308.665 253.598 308.665C253.055 308.665 252.567 308.537 252.134 308.28C251.705 308.023 251.364 307.649 251.113 307.158C250.865 306.667 250.741 306.071 250.741 305.37C250.741 304.68 250.862 304.08 251.104 303.569C251.347 303.055 251.684 302.657 252.117 302.377C252.549 302.094 253.049 301.952 253.615 301.952C254.054 301.952 254.401 302.025 254.658 302.171C254.918 302.314 255.117 302.478 255.254 302.662C255.395 302.843 255.503 302.992 255.579 303.109H255.684V302.04H256.683V308.963C256.683 309.542 256.551 310.012 256.289 310.374C256.029 310.74 255.678 311.007 255.237 311.176C254.799 311.349 254.311 311.435 253.773 311.435ZM253.738 307.736C254.153 307.736 254.504 307.641 254.79 307.451C255.076 307.262 255.294 306.988 255.443 306.632C255.592 306.276 255.666 305.849 255.666 305.352C255.666 304.867 255.593 304.439 255.447 304.068C255.301 303.697 255.085 303.407 254.799 303.196C254.512 302.986 254.159 302.881 253.738 302.881C253.3 302.881 252.935 302.992 252.643 303.214C252.353 303.436 252.136 303.734 251.99 304.108C251.847 304.482 251.775 304.897 251.775 305.352C251.775 305.82 251.848 306.233 251.994 306.593C252.143 306.949 252.362 307.229 252.651 307.434C252.944 307.636 253.306 307.736 253.738 307.736ZM258.576 308.771V302.04H259.575V303.056H259.645C259.768 302.723 259.99 302.453 260.311 302.245C260.633 302.038 260.995 301.934 261.398 301.934C261.474 301.934 261.569 301.936 261.683 301.939C261.797 301.942 261.883 301.946 261.942 301.952V303.004C261.906 302.995 261.826 302.982 261.701 302.964C261.578 302.944 261.448 302.933 261.311 302.933C260.983 302.933 260.691 303.002 260.434 303.139C260.18 303.274 259.978 303.461 259.829 303.7C259.683 303.937 259.61 304.207 259.61 304.511V308.771H258.576ZM265.697 308.911C265.089 308.911 264.556 308.766 264.098 308.477C263.642 308.188 263.285 307.783 263.028 307.263C262.774 306.743 262.647 306.135 262.647 305.44C262.647 304.739 262.774 304.127 263.028 303.604C263.285 303.081 263.642 302.675 264.098 302.386C264.556 302.096 265.089 301.952 265.697 301.952C266.305 301.952 266.836 302.096 267.292 302.386C267.751 302.675 268.107 303.081 268.361 303.604C268.619 304.127 268.747 304.739 268.747 305.44C268.747 306.135 268.619 306.743 268.361 307.263C268.107 307.783 267.751 308.188 267.292 308.477C266.836 308.766 266.305 308.911 265.697 308.911ZM265.697 307.982C266.159 307.982 266.538 307.863 266.836 307.627C267.134 307.39 267.355 307.079 267.498 306.693C267.641 306.308 267.713 305.89 267.713 305.44C267.713 304.99 267.641 304.571 267.498 304.182C267.355 303.794 267.134 303.48 266.836 303.24C266.538 303.001 266.159 302.881 265.697 302.881C265.235 302.881 264.856 303.001 264.558 303.24C264.26 303.48 264.039 303.794 263.896 304.182C263.753 304.571 263.681 304.99 263.681 305.44C263.681 305.89 263.753 306.308 263.896 306.693C264.039 307.079 264.26 307.39 264.558 307.627C264.856 307.863 265.235 307.982 265.697 307.982ZM274.568 306.019V302.04H275.602V308.771H274.568V307.631H274.498C274.34 307.973 274.094 308.264 273.761 308.503C273.428 308.74 273.008 308.858 272.499 308.858C272.079 308.858 271.705 308.766 271.377 308.582C271.05 308.395 270.793 308.115 270.606 307.741C270.419 307.364 270.326 306.889 270.326 306.316V302.04H271.36V306.246C271.36 306.737 271.497 307.129 271.772 307.421C272.049 307.713 272.403 307.859 272.832 307.859C273.089 307.859 273.351 307.793 273.617 307.662C273.885 307.53 274.11 307.329 274.292 307.057C274.476 306.785 274.568 306.439 274.568 306.019ZM277.496 311.295V302.04H278.495V303.109H278.618C278.694 302.992 278.799 302.843 278.933 302.662C279.071 302.478 279.266 302.314 279.521 302.171C279.778 302.025 280.125 301.952 280.564 301.952C281.13 301.952 281.63 302.094 282.062 302.377C282.495 302.66 282.832 303.062 283.075 303.582C283.317 304.102 283.438 304.716 283.438 305.423C283.438 306.135 283.317 306.753 283.075 307.276C282.832 307.796 282.496 308.199 282.067 308.486C281.637 308.769 281.142 308.911 280.581 308.911C280.149 308.911 279.803 308.839 279.542 308.696C279.282 308.55 279.082 308.385 278.942 308.201C278.802 308.014 278.694 307.859 278.618 307.736H278.53V311.295H277.496ZM278.513 305.405C278.513 305.913 278.587 306.362 278.736 306.75C278.885 307.136 279.103 307.438 279.389 307.657C279.675 307.874 280.026 307.982 280.441 307.982C280.873 307.982 281.234 307.868 281.523 307.64C281.815 307.409 282.034 307.099 282.181 306.711C282.33 306.319 282.404 305.884 282.404 305.405C282.404 304.932 282.331 304.505 282.185 304.125C282.042 303.743 281.824 303.44 281.532 303.218C281.243 302.993 280.879 302.881 280.441 302.881C280.02 302.881 279.667 302.988 279.38 303.201C279.094 303.411 278.878 303.706 278.732 304.086C278.586 304.463 278.513 304.903 278.513 305.405Z" fill="black"/>
<path d="M109.682 80.9536C109.273 80.9536 108.909 80.8833 108.589 80.7427C108.272 80.6003 108.021 80.405 107.836 80.1566C107.654 79.9065 107.56 79.618 107.554 79.2912H108.748C108.756 79.4281 108.8 79.5486 108.883 79.6527C108.967 79.7549 109.078 79.8344 109.217 79.891C109.355 79.9476 109.512 79.9759 109.685 79.9759C109.866 79.9759 110.026 79.9439 110.164 79.88C110.303 79.8161 110.412 79.7275 110.49 79.6143C110.569 79.5011 110.608 79.3706 110.608 79.2227C110.608 79.073 110.566 78.9406 110.482 78.8256C110.4 78.7087 110.281 78.6174 110.126 78.5517C109.973 78.4859 109.79 78.4531 109.578 78.4531H109.055V77.5821H109.578C109.757 77.5821 109.915 77.5511 110.052 77.489C110.191 77.4269 110.298 77.3411 110.375 77.2315C110.452 77.1202 110.49 76.9905 110.49 76.8426C110.49 76.702 110.456 76.5788 110.389 76.4729C110.323 76.3652 110.23 76.2812 110.11 76.2209C109.991 76.1607 109.852 76.1305 109.693 76.1305C109.533 76.1305 109.386 76.1597 109.252 76.2182C109.119 76.2748 109.012 76.356 108.932 76.4619C108.851 76.5678 108.809 76.692 108.803 76.8344H107.666C107.672 76.5112 107.764 76.2264 107.943 75.9799C108.122 75.7334 108.363 75.5408 108.666 75.402C108.971 75.2614 109.315 75.1911 109.699 75.1911C110.086 75.1911 110.424 75.2614 110.715 75.402C111.005 75.5426 111.231 75.7325 111.391 75.9717C111.554 76.209 111.634 76.4756 111.632 76.7714C111.634 77.0855 111.536 77.3475 111.339 77.5575C111.144 77.7674 110.889 77.9007 110.575 77.9573V78.0012C110.988 78.0541 111.302 78.1974 111.517 78.4312C111.735 78.663 111.842 78.9534 111.84 79.3021C111.842 79.6216 111.75 79.9056 111.564 80.1539C111.379 80.4022 111.125 80.5976 110.8 80.74C110.475 80.8824 110.102 80.9536 109.682 80.9536ZM114.892 81.0002C114.421 80.9984 114.016 80.8824 113.676 80.6524C113.338 80.4223 113.078 80.0891 112.896 79.6527C112.715 79.2163 112.625 78.6914 112.627 78.0778C112.627 77.4662 112.718 76.9449 112.898 76.514C113.081 76.0831 113.341 75.7553 113.679 75.5307C114.019 75.3043 114.423 75.1911 114.892 75.1911C115.361 75.1911 115.765 75.3043 116.103 75.5307C116.442 75.7571 116.704 76.0858 116.886 76.5167C117.069 76.9458 117.159 77.4662 117.157 78.0778C117.157 78.6932 117.066 79.219 116.883 79.6554C116.703 80.0918 116.443 80.425 116.106 80.6551C115.768 80.8852 115.363 81.0002 114.892 81.0002ZM114.892 80.017C115.214 80.017 115.47 79.8554 115.662 79.5322C115.854 79.209 115.949 78.7242 115.947 78.0778C115.947 77.6524 115.903 77.2982 115.815 77.0152C115.729 76.7322 115.607 76.5194 115.448 76.377C115.291 76.2346 115.106 76.1634 114.892 76.1634C114.573 76.1634 114.317 76.3232 114.125 76.6427C113.934 76.9622 113.837 77.4406 113.835 78.0778C113.835 78.5088 113.878 78.8685 113.964 79.157C114.051 79.4436 114.175 79.6591 114.334 79.8033C114.492 79.9457 114.679 80.017 114.892 80.017Z" fill="#767676"/>
<path d="M108.609 113.015V112.16L110.606 110.311C110.775 110.147 110.918 109.999 111.033 109.868C111.15 109.736 111.238 109.608 111.298 109.482C111.359 109.354 111.389 109.216 111.389 109.068C111.389 108.904 111.351 108.762 111.277 108.643C111.202 108.523 111.099 108.431 110.97 108.367C110.84 108.301 110.693 108.268 110.529 108.268C110.357 108.268 110.208 108.303 110.08 108.372C109.952 108.442 109.853 108.541 109.784 108.671C109.715 108.8 109.68 108.955 109.68 109.134H108.554C108.554 108.767 108.637 108.448 108.803 108.178C108.97 107.908 109.202 107.699 109.502 107.551C109.801 107.403 110.146 107.329 110.537 107.329C110.939 107.329 111.288 107.4 111.586 107.542C111.886 107.683 112.118 107.878 112.284 108.129C112.451 108.379 112.534 108.665 112.534 108.989C112.534 109.2 112.492 109.409 112.408 109.616C112.326 109.822 112.179 110.051 111.967 110.303C111.755 110.553 111.456 110.854 111.071 111.204L110.252 112.007V112.045H112.608V113.015H108.609ZM115.516 113.091C115.129 113.091 114.783 113.02 114.48 112.878C114.179 112.735 113.94 112.539 113.763 112.289C113.586 112.039 113.493 111.752 113.486 111.429H114.636C114.649 111.646 114.741 111.822 114.91 111.957C115.08 112.093 115.282 112.16 115.516 112.16C115.702 112.16 115.866 112.119 116.009 112.037C116.153 111.953 116.265 111.837 116.346 111.689C116.428 111.539 116.469 111.368 116.469 111.174C116.469 110.977 116.427 110.803 116.343 110.654C116.261 110.504 116.146 110.387 116 110.303C115.854 110.219 115.687 110.176 115.499 110.174C115.335 110.174 115.175 110.208 115.02 110.276C114.867 110.343 114.747 110.436 114.661 110.552L113.607 110.363L113.872 107.405H117.301V108.375H114.85L114.705 109.78H114.738C114.836 109.641 114.985 109.526 115.184 109.435C115.383 109.344 115.606 109.298 115.853 109.298C116.19 109.298 116.492 109.377 116.756 109.536C117.021 109.695 117.23 109.913 117.384 110.191C117.537 110.467 117.613 110.784 117.611 111.144C117.613 111.522 117.525 111.858 117.348 112.152C117.173 112.444 116.927 112.674 116.611 112.842C116.297 113.008 115.932 113.091 115.516 113.091Z" fill="#767676"/>
<path d="M107.609 145.152V144.298L109.606 142.449C109.775 142.285 109.918 142.137 110.033 142.005C110.15 141.874 110.238 141.745 110.298 141.619C110.359 141.491 110.389 141.354 110.389 141.206C110.389 141.041 110.351 140.9 110.277 140.781C110.202 140.661 110.099 140.568 109.97 140.505C109.84 140.439 109.693 140.406 109.529 140.406C109.357 140.406 109.208 140.441 109.08 140.51C108.952 140.579 108.853 140.679 108.784 140.809C108.715 140.938 108.68 141.092 108.68 141.271H107.554C107.554 140.904 107.637 140.586 107.803 140.316C107.97 140.045 108.202 139.836 108.502 139.688C108.801 139.54 109.146 139.466 109.537 139.466C109.939 139.466 110.288 139.538 110.586 139.68C110.886 139.821 111.118 140.016 111.284 140.266C111.451 140.516 111.534 140.803 111.534 141.126C111.534 141.338 111.492 141.547 111.408 141.753C111.326 141.96 111.179 142.189 110.967 142.441C110.755 142.691 110.456 142.991 110.071 143.342L109.252 144.144V144.183H111.608V145.152H107.609ZM114.666 145.276C114.195 145.274 113.79 145.158 113.45 144.928C113.112 144.698 112.852 144.364 112.67 143.928C112.489 143.492 112.399 142.967 112.401 142.353C112.401 141.742 112.492 141.22 112.672 140.789C112.855 140.358 113.115 140.031 113.453 139.806C113.793 139.58 114.197 139.466 114.666 139.466C115.136 139.466 115.539 139.58 115.877 139.806C116.216 140.033 116.478 140.361 116.66 140.792C116.843 141.221 116.933 141.742 116.931 142.353C116.931 142.969 116.84 143.494 116.657 143.931C116.477 144.367 116.217 144.7 115.88 144.93C115.542 145.161 115.137 145.276 114.666 145.276ZM114.666 144.292C114.988 144.292 115.244 144.131 115.436 143.808C115.628 143.484 115.723 143 115.721 142.353C115.721 141.928 115.677 141.574 115.589 141.291C115.503 141.008 115.381 140.795 115.222 140.652C115.065 140.51 114.88 140.439 114.666 140.439C114.347 140.439 114.091 140.599 113.899 140.918C113.708 141.238 113.611 141.716 113.609 142.353C113.609 142.784 113.652 143.144 113.738 143.432C113.825 143.719 113.949 143.934 114.108 144.079C114.266 144.221 114.453 144.292 114.666 144.292Z" fill="#767676"/>
<path d="M112.049 171.681V177.29H110.863V172.807H110.83L109.546 173.612V172.56L110.935 171.681H112.049ZM115.431 177.367C115.044 177.367 114.699 177.296 114.396 177.153C114.094 177.011 113.855 176.814 113.678 176.564C113.501 176.314 113.409 176.027 113.402 175.704H114.552C114.565 175.922 114.656 176.098 114.826 176.233C114.996 176.368 115.197 176.436 115.431 176.436C115.617 176.436 115.782 176.394 115.924 176.312C116.068 176.228 116.181 176.112 116.261 175.964C116.343 175.815 116.384 175.643 116.384 175.45C116.384 175.252 116.342 175.079 116.258 174.929C116.176 174.779 116.062 174.663 115.916 174.579C115.77 174.495 115.603 174.452 115.415 174.45C115.25 174.45 115.091 174.484 114.935 174.551C114.782 174.619 114.662 174.711 114.577 174.828L113.522 174.639L113.788 171.681H117.217V172.65H114.766L114.62 174.055H114.653C114.752 173.917 114.901 173.802 115.1 173.71C115.299 173.619 115.521 173.573 115.768 173.573C116.106 173.573 116.407 173.653 116.672 173.812C116.937 173.971 117.146 174.189 117.299 174.466C117.452 174.742 117.528 175.06 117.526 175.419C117.528 175.797 117.44 176.133 117.263 176.427C117.088 176.719 116.842 176.95 116.527 177.117C116.213 177.284 115.847 177.367 115.431 177.367Z" fill="#767676"/>
<path d="M111.049 203.819V209.428H109.863V204.944H109.83L108.546 205.749V204.698L109.935 203.819H111.049ZM114.582 209.551C114.111 209.549 113.705 209.433 113.366 209.203C113.028 208.973 112.768 208.64 112.585 208.203C112.404 207.767 112.315 207.242 112.317 206.629C112.317 206.017 112.407 205.496 112.588 205.065C112.77 204.634 113.031 204.306 113.368 204.081C113.708 203.855 114.112 203.742 114.582 203.742C115.051 203.742 115.454 203.855 115.792 204.081C116.132 204.308 116.393 204.637 116.576 205.067C116.758 205.497 116.849 206.017 116.847 206.629C116.847 207.244 116.755 207.77 116.573 208.206C116.392 208.643 116.133 208.976 115.795 209.206C115.457 209.436 115.053 209.551 114.582 209.551ZM114.582 208.568C114.903 208.568 115.16 208.406 115.351 208.083C115.543 207.76 115.638 207.275 115.636 206.629C115.636 206.203 115.592 205.849 115.505 205.566C115.419 205.283 115.297 205.07 115.138 204.928C114.981 204.785 114.795 204.714 114.582 204.714C114.262 204.714 114.007 204.874 113.815 205.193C113.623 205.513 113.526 205.991 113.524 206.629C113.524 207.06 113.567 207.419 113.653 207.708C113.741 207.994 113.864 208.21 114.023 208.354C114.182 208.497 114.368 208.568 114.582 208.568Z" fill="#767676"/>
<path d="M115.658 241.643C115.271 241.643 114.925 241.572 114.622 241.429C114.321 241.287 114.082 241.091 113.905 240.841C113.728 240.59 113.635 240.304 113.628 239.981H114.778C114.791 240.198 114.883 240.374 115.052 240.509C115.222 240.644 115.424 240.712 115.658 240.712C115.844 240.712 116.008 240.671 116.151 240.589C116.295 240.505 116.407 240.389 116.487 240.241C116.57 240.091 116.611 239.919 116.611 239.726C116.611 239.529 116.569 239.355 116.485 239.206C116.403 239.056 116.288 238.939 116.142 238.855C115.996 238.771 115.829 238.728 115.641 238.726C115.477 238.726 115.317 238.76 115.162 238.828C115.008 238.895 114.889 238.987 114.803 239.104L113.749 238.915L114.014 235.957H117.443V236.927H114.992L114.847 238.332H114.88C114.978 238.193 115.127 238.078 115.326 237.987C115.525 237.895 115.748 237.85 115.994 237.85C116.332 237.85 116.634 237.929 116.898 238.088C117.163 238.247 117.372 238.465 117.526 238.743C117.679 239.018 117.755 239.336 117.753 239.696C117.755 240.074 117.667 240.41 117.49 240.704C117.315 240.996 117.069 241.226 116.753 241.394C116.439 241.56 116.074 241.643 115.658 241.643Z" fill="#767676"/>
<path d="M114.808 273.827C114.337 273.826 113.932 273.71 113.592 273.48C113.254 273.249 112.994 272.916 112.812 272.48C112.631 272.043 112.541 271.518 112.543 270.905C112.543 270.293 112.634 269.772 112.814 269.341C112.997 268.91 113.257 268.582 113.595 268.358C113.935 268.131 114.339 268.018 114.808 268.018C115.277 268.018 115.681 268.131 116.019 268.358C116.358 268.584 116.62 268.913 116.802 269.344C116.985 269.773 117.075 270.293 117.073 270.905C117.073 271.52 116.982 272.046 116.799 272.483C116.619 272.919 116.359 273.252 116.022 273.482C115.684 273.712 115.279 273.827 114.808 273.827ZM114.808 272.844C115.13 272.844 115.386 272.683 115.578 272.359C115.77 272.036 115.865 271.551 115.863 270.905C115.863 270.48 115.819 270.125 115.731 269.842C115.645 269.559 115.523 269.347 115.364 269.204C115.207 269.062 115.022 268.991 114.808 268.991C114.489 268.991 114.233 269.15 114.041 269.47C113.85 269.789 113.753 270.268 113.751 270.905C113.751 271.336 113.794 271.696 113.88 271.984C113.967 272.271 114.091 272.486 114.25 272.63C114.408 272.773 114.595 272.844 114.808 272.844Z" fill="#767676"/>
<line opacity="0.5" x1="129.119" y1="77.7968" x2="384" y2="77.7968" stroke="#B1B1B1" stroke-width="0.660314" stroke-dasharray="1.32 1.32"/>
<line opacity="0.5" x1="129.119" y1="110.189" x2="384" y2="110.189" stroke="#B1B1B1" stroke-width="0.660314" stroke-dasharray="1.32 1.32"/>
<line opacity="0.5" x1="129.119" y1="142.583" x2="384" y2="142.583" stroke="#B1B1B1" stroke-width="0.660314" stroke-dasharray="1.32 1.32"/>
<line opacity="0.5" x1="129.119" y1="174.976" x2="384" y2="174.976" stroke="#B1B1B1" stroke-width="0.660314" stroke-dasharray="1.32 1.32"/>
<line opacity="0.5" x1="129.119" y1="207.369" x2="384" y2="207.369" stroke="#B1B1B1" stroke-width="0.660314" stroke-dasharray="1.32 1.32"/>
<line opacity="0.5" x1="129.119" y1="239.762" x2="384" y2="239.762" stroke="#B1B1B1" stroke-width="0.660314" stroke-dasharray="1.32 1.32"/>
<line opacity="0.5" x1="129.119" y1="272.234" x2="380.55" y2="272.234" stroke="#B1B1B1" stroke-width="0.501188"/>
<rect x="140.525" y="189.393" width="18.4888" height="82.8629" rx="3.64406" fill="#344BFD"/>
<rect x="291.559" y="157.178" width="18.4888" height="115.078" rx="3.64406" fill="#344BFD"/>
<rect x="190.869" y="123.627" width="18.4888" height="148.629" rx="3.64406" fill="#344BFD"/>
<rect x="341.904" y="139.387" width="18.4888" height="132.869" rx="3.64406" fill="#344BFD"/>
<rect x="241.213" y="177.998" width="18.4888" height="94.2566" rx="3.64406" fill="#344BFD"/>
<path d="M143.695 284.516V283.552L147.551 281.854V282.963L144.911 284.023L144.947 283.965V284.102L144.911 284.045L147.551 285.105V286.214L143.695 284.516ZM151.139 281.194V286.803H149.953V282.319H149.92L148.636 283.124V282.073L150.024 281.194H151.139ZM154.565 286.879C154.143 286.879 153.768 286.811 153.439 286.674C153.112 286.535 152.856 286.346 152.669 286.107C152.483 285.868 152.39 285.597 152.39 285.294C152.39 285.06 152.443 284.845 152.549 284.65C152.657 284.453 152.803 284.289 152.987 284.16C153.172 284.028 153.378 283.944 153.606 283.908V283.869C153.307 283.809 153.064 283.664 152.878 283.434C152.691 283.202 152.598 282.933 152.598 282.626C152.598 282.336 152.683 282.077 152.853 281.851C153.023 281.623 153.256 281.444 153.551 281.314C153.849 281.183 154.187 281.117 154.565 281.117C154.943 281.117 155.28 281.183 155.575 281.314C155.873 281.446 156.107 281.625 156.276 281.854C156.446 282.08 156.532 282.337 156.534 282.626C156.532 282.935 156.437 283.204 156.249 283.434C156.061 283.664 155.82 283.809 155.526 283.869V283.908C155.751 283.944 155.954 284.028 156.137 284.16C156.321 284.289 156.467 284.453 156.575 284.65C156.685 284.845 156.74 285.06 156.742 285.294C156.74 285.597 156.646 285.868 156.46 286.107C156.274 286.346 156.016 286.535 155.688 286.674C155.361 286.811 154.986 286.879 154.565 286.879ZM154.565 286.008C154.753 286.008 154.917 285.975 155.058 285.907C155.198 285.838 155.308 285.743 155.386 285.622C155.467 285.5 155.507 285.359 155.507 285.201C155.507 285.038 155.466 284.895 155.384 284.771C155.301 284.645 155.19 284.546 155.049 284.475C154.909 284.402 154.747 284.365 154.565 284.365C154.384 284.365 154.222 284.402 154.08 284.475C153.937 284.546 153.825 284.645 153.743 284.771C153.663 284.895 153.623 285.038 153.623 285.201C153.623 285.359 153.662 285.5 153.74 285.622C153.819 285.743 153.929 285.838 154.072 285.907C154.214 285.975 154.378 286.008 154.565 286.008ZM154.565 283.502C154.722 283.502 154.861 283.47 154.984 283.407C155.106 283.343 155.202 283.254 155.271 283.141C155.341 283.028 155.375 282.897 155.375 282.749C155.375 282.603 155.341 282.475 155.271 282.366C155.202 282.254 155.107 282.168 154.986 282.106C154.866 282.042 154.725 282.01 154.565 282.01C154.406 282.01 154.265 282.042 154.143 282.106C154.021 282.168 153.925 282.254 153.855 282.366C153.788 282.475 153.754 282.603 153.754 282.749C153.754 282.897 153.789 283.028 153.858 283.141C153.927 283.254 154.023 283.343 154.146 283.407C154.268 283.47 154.408 283.502 154.565 283.502Z" fill="#767676"/>
<path d="M190.206 281.194V286.803H189.02V282.319H188.987L187.702 283.124V282.073L189.091 281.194H190.206ZM193.631 286.879C193.209 286.879 192.834 286.811 192.505 286.674C192.179 286.535 191.922 286.346 191.736 286.107C191.55 285.868 191.456 285.597 191.456 285.294C191.456 285.06 191.509 284.845 191.615 284.65C191.723 284.453 191.869 284.289 192.054 284.16C192.238 284.028 192.444 283.944 192.673 283.908V283.869C192.373 283.809 192.13 283.664 191.944 283.434C191.758 283.202 191.665 282.933 191.665 282.626C191.665 282.336 191.75 282.077 191.919 281.851C192.089 281.623 192.322 281.444 192.618 281.314C192.915 281.183 193.253 281.117 193.631 281.117C194.009 281.117 194.346 281.183 194.642 281.314C194.939 281.446 195.173 281.625 195.343 281.854C195.513 282.08 195.599 282.337 195.6 282.626C195.599 282.935 195.504 283.204 195.316 283.434C195.127 283.664 194.886 283.809 194.592 283.869V283.908C194.817 283.944 195.021 284.028 195.203 284.16C195.388 284.289 195.534 284.453 195.641 284.65C195.751 284.845 195.807 285.06 195.809 285.294C195.807 285.597 195.713 285.868 195.526 286.107C195.34 286.346 195.083 286.535 194.754 286.674C194.427 286.811 194.053 286.879 193.631 286.879ZM193.631 286.008C193.819 286.008 193.984 285.975 194.124 285.907C194.265 285.838 194.374 285.743 194.453 285.622C194.533 285.5 194.573 285.359 194.573 285.201C194.573 285.038 194.532 284.895 194.45 284.771C194.368 284.645 194.256 284.546 194.116 284.475C193.975 284.402 193.814 284.365 193.631 284.365C193.45 284.365 193.289 284.402 193.146 284.475C193.004 284.546 192.892 284.645 192.809 284.771C192.729 284.895 192.689 285.038 192.689 285.201C192.689 285.359 192.728 285.5 192.807 285.622C192.885 285.743 192.996 285.838 193.138 285.907C193.281 285.975 193.445 286.008 193.631 286.008ZM193.631 283.502C193.788 283.502 193.928 283.47 194.05 283.407C194.173 283.343 194.268 283.254 194.338 283.141C194.407 283.028 194.442 282.897 194.442 282.749C194.442 282.603 194.407 282.475 194.338 282.366C194.268 282.254 194.173 282.168 194.053 282.106C193.932 282.042 193.792 282.01 193.631 282.01C193.472 282.01 193.332 282.042 193.209 282.106C193.087 282.168 192.991 282.254 192.922 282.366C192.854 282.475 192.82 282.603 192.82 282.749C192.82 282.897 192.855 283.028 192.925 283.141C192.994 283.254 193.09 283.343 193.212 283.407C193.334 283.47 193.474 283.502 193.631 283.502ZM199.27 283.535V284.461H196.712V283.535H199.27ZM200.095 286.803V285.948L202.091 284.099C202.261 283.935 202.404 283.787 202.519 283.656C202.636 283.524 202.724 283.396 202.784 283.27C202.845 283.142 202.875 283.004 202.875 282.856C202.875 282.692 202.837 282.55 202.762 282.432C202.688 282.311 202.585 282.219 202.456 282.155C202.326 282.089 202.179 282.056 202.015 282.056C201.843 282.056 201.693 282.091 201.566 282.16C201.438 282.23 201.339 282.329 201.27 282.459C201.2 282.589 201.166 282.743 201.166 282.922H200.04C200.04 282.555 200.123 282.236 200.289 281.966C200.455 281.696 200.688 281.487 200.988 281.339C201.287 281.191 201.632 281.117 202.023 281.117C202.425 281.117 202.774 281.188 203.072 281.331C203.371 281.471 203.604 281.666 203.77 281.917C203.937 282.167 204.02 282.453 204.02 282.777C204.02 282.988 203.978 283.197 203.894 283.404C203.811 283.61 203.664 283.839 203.453 284.091C203.241 284.341 202.942 284.642 202.557 284.992L201.738 285.795V285.833H204.094V286.803H200.095ZM204.747 285.817V284.883L207.089 281.194H207.894V282.486H207.418L205.942 284.823V284.866H209.269V285.817H204.747ZM207.44 286.803V285.532L207.462 285.118V281.194H208.574V286.803H207.44Z" fill="#767676"/>
<path d="M240.072 286.803V285.948L242.068 284.099C242.238 283.935 242.381 283.787 242.496 283.656C242.613 283.524 242.701 283.396 242.761 283.27C242.822 283.142 242.852 283.004 242.852 282.856C242.852 282.692 242.814 282.55 242.739 282.432C242.665 282.311 242.562 282.219 242.433 282.155C242.303 282.089 242.156 282.056 241.992 282.056C241.82 282.056 241.67 282.091 241.543 282.16C241.415 282.23 241.316 282.329 241.247 282.459C241.177 282.589 241.143 282.743 241.143 282.922H240.017C240.017 282.555 240.1 282.236 240.266 281.966C240.432 281.696 240.665 281.487 240.965 281.339C241.264 281.191 241.609 281.117 242 281.117C242.402 281.117 242.751 281.188 243.049 281.331C243.348 281.471 243.581 281.666 243.747 281.917C243.914 282.167 243.997 282.453 243.997 282.777C243.997 282.988 243.955 283.197 243.871 283.404C243.788 283.61 243.641 283.839 243.43 284.091C243.218 284.341 242.919 284.642 242.534 284.992L241.715 285.795V285.833H244.071V286.803H240.072ZM246.979 286.879C246.591 286.879 246.246 286.808 245.943 286.666C245.642 286.523 245.403 286.327 245.226 286.077C245.049 285.827 244.956 285.54 244.949 285.217H246.099C246.112 285.434 246.203 285.61 246.373 285.746C246.543 285.881 246.745 285.948 246.979 285.948C247.165 285.948 247.329 285.907 247.472 285.825C247.616 285.741 247.728 285.625 247.808 285.477C247.891 285.327 247.932 285.156 247.932 284.962C247.932 284.765 247.89 284.592 247.806 284.442C247.723 284.292 247.609 284.175 247.463 284.091C247.317 284.007 247.15 283.964 246.962 283.963C246.798 283.963 246.638 283.996 246.483 284.064C246.329 284.131 246.21 284.224 246.124 284.341L245.07 284.152L245.335 281.194H248.764V282.163H246.313L246.168 283.568H246.201C246.299 283.429 246.448 283.314 246.647 283.223C246.846 283.132 247.069 283.086 247.315 283.086C247.653 283.086 247.954 283.166 248.219 283.324C248.484 283.483 248.693 283.701 248.846 283.979C249 284.255 249.076 284.572 249.074 284.932C249.076 285.31 248.988 285.646 248.811 285.94C248.636 286.232 248.39 286.462 248.074 286.63C247.76 286.796 247.395 286.879 246.979 286.879ZM252.533 283.535V284.461H249.975V283.535H252.533ZM255.552 286.879C255.143 286.879 254.779 286.809 254.459 286.669C254.141 286.526 253.89 286.331 253.706 286.082C253.523 285.832 253.429 285.544 253.424 285.217H254.618C254.625 285.354 254.67 285.474 254.752 285.578C254.836 285.681 254.947 285.76 255.086 285.817C255.225 285.873 255.381 285.902 255.555 285.902C255.735 285.902 255.895 285.87 256.034 285.806C256.173 285.742 256.281 285.653 256.36 285.54C256.438 285.427 256.478 285.296 256.478 285.148C256.478 284.999 256.436 284.866 256.352 284.751C256.269 284.634 256.151 284.543 255.996 284.477C255.842 284.412 255.66 284.379 255.448 284.379H254.925V283.508H255.448C255.627 283.508 255.785 283.477 255.922 283.415C256.06 283.353 256.168 283.267 256.245 283.157C256.321 283.046 256.36 282.916 256.36 282.768C256.36 282.628 256.326 282.505 256.258 282.399C256.193 282.291 256.1 282.207 255.979 282.147C255.86 282.086 255.722 282.056 255.563 282.056C255.402 282.056 255.255 282.086 255.122 282.144C254.989 282.201 254.882 282.282 254.801 282.388C254.721 282.494 254.678 282.618 254.673 282.76H253.536C253.542 282.437 253.634 282.152 253.813 281.906C253.992 281.659 254.233 281.467 254.536 281.328C254.841 281.187 255.185 281.117 255.568 281.117C255.955 281.117 256.294 281.187 256.584 281.328C256.875 281.468 257.1 281.658 257.261 281.897C257.423 282.135 257.504 282.401 257.502 282.697C257.504 283.011 257.406 283.273 257.209 283.483C257.013 283.693 256.759 283.827 256.445 283.883V283.927C256.857 283.98 257.171 284.123 257.387 284.357C257.604 284.589 257.712 284.879 257.71 285.228C257.712 285.547 257.62 285.831 257.433 286.08C257.249 286.328 256.994 286.523 256.669 286.666C256.344 286.808 255.972 286.879 255.552 286.879ZM258.478 285.817V284.883L260.819 281.194H261.625V282.486H261.148L259.672 284.823V284.866H262.999V285.817H258.478ZM261.17 286.803V285.532L261.192 285.118V281.194H262.304V286.803H261.17Z" fill="#767676"/>
<path d="M295.454 286.879C295.045 286.879 294.68 286.809 294.361 286.669C294.043 286.526 293.792 286.331 293.608 286.082C293.425 285.832 293.331 285.544 293.326 285.217H294.52C294.527 285.354 294.572 285.474 294.654 285.578C294.738 285.681 294.849 285.76 294.988 285.817C295.127 285.873 295.283 285.902 295.456 285.902C295.637 285.902 295.797 285.87 295.936 285.806C296.075 285.742 296.183 285.653 296.262 285.54C296.34 285.427 296.379 285.296 296.379 285.148C296.379 284.999 296.337 284.866 296.253 284.751C296.171 284.634 296.053 284.543 295.897 284.477C295.744 284.412 295.561 284.379 295.35 284.379H294.827V283.508H295.35C295.529 283.508 295.687 283.477 295.823 283.415C295.962 283.353 296.07 283.267 296.147 283.157C296.223 283.046 296.262 282.916 296.262 282.768C296.262 282.628 296.228 282.505 296.16 282.399C296.095 282.291 296.002 282.207 295.881 282.147C295.762 282.086 295.624 282.056 295.465 282.056C295.304 282.056 295.157 282.086 295.024 282.144C294.89 282.201 294.784 282.282 294.703 282.388C294.623 282.494 294.58 282.618 294.575 282.76H293.438C293.443 282.437 293.536 282.152 293.715 281.906C293.894 281.659 294.135 281.467 294.438 281.328C294.743 281.187 295.087 281.117 295.47 281.117C295.857 281.117 296.196 281.187 296.486 281.328C296.777 281.468 297.002 281.658 297.163 281.897C297.325 282.135 297.406 282.401 297.404 282.697C297.406 283.011 297.308 283.273 297.111 283.483C296.915 283.693 296.661 283.827 296.347 283.883V283.927C296.759 283.98 297.073 284.123 297.289 284.357C297.506 284.589 297.614 284.879 297.612 285.228C297.614 285.547 297.522 285.831 297.335 286.08C297.151 286.328 296.896 286.523 296.571 286.666C296.246 286.808 295.874 286.879 295.454 286.879ZM300.513 286.879C300.126 286.879 299.781 286.808 299.478 286.666C299.177 286.523 298.937 286.327 298.76 286.077C298.583 285.827 298.491 285.54 298.484 285.217H299.634C299.647 285.434 299.738 285.61 299.908 285.746C300.078 285.881 300.279 285.948 300.513 285.948C300.699 285.948 300.864 285.907 301.006 285.825C301.15 285.741 301.263 285.625 301.343 285.477C301.425 285.327 301.466 285.156 301.466 284.962C301.466 284.765 301.424 284.592 301.34 284.442C301.258 284.292 301.144 284.175 300.998 284.091C300.852 284.007 300.685 283.964 300.497 283.963C300.332 283.963 300.173 283.996 300.017 284.064C299.864 284.131 299.744 284.224 299.659 284.341L298.604 284.152L298.87 281.194H302.299V282.163H299.848L299.702 283.568H299.735C299.834 283.429 299.983 283.314 300.182 283.223C300.381 283.132 300.603 283.086 300.85 283.086C301.188 283.086 301.489 283.166 301.754 283.324C302.019 283.483 302.228 283.701 302.381 283.979C302.534 284.255 302.61 284.572 302.608 284.932C302.61 285.31 302.522 285.646 302.345 285.94C302.17 286.232 301.925 286.462 301.609 286.63C301.295 286.796 300.929 286.879 300.513 286.879ZM306.067 283.535V284.461H303.509V283.535H306.067ZM306.966 285.817V284.883L309.308 281.194H310.113V282.486H309.636L308.16 284.823V284.866H311.488V285.817H306.966ZM309.658 286.803V285.532L309.68 285.118V281.194H310.792V286.803H309.658ZM312.193 285.817V284.883L314.535 281.194H315.34V282.486H314.863L313.387 284.823V284.866H316.715V285.817H312.193ZM314.885 286.803V285.532L314.907 285.118V281.194H316.019V286.803H314.885Z" fill="#767676"/>
<path d="M347.604 285.817V284.883L349.946 281.194H350.751V282.486H350.274L348.798 284.823V284.866H352.126V285.817H347.604ZM350.296 286.803V285.532L350.318 285.118V281.194H351.43V286.803H350.296ZM354.965 286.879C354.578 286.879 354.233 286.808 353.929 286.666C353.628 286.523 353.389 286.327 353.212 286.077C353.035 285.827 352.943 285.54 352.935 285.217H354.086C354.098 285.434 354.19 285.61 354.359 285.746C354.529 285.881 354.731 285.948 354.965 285.948C355.151 285.948 355.315 285.907 355.458 285.825C355.602 285.741 355.714 285.625 355.795 285.477C355.877 285.327 355.918 285.156 355.918 284.962C355.918 284.765 355.876 284.592 355.792 284.442C355.71 284.292 355.596 284.175 355.45 284.091C355.303 284.007 355.136 283.964 354.948 283.963C354.784 283.963 354.624 283.996 354.469 284.064C354.316 284.131 354.196 284.224 354.11 284.341L353.056 284.152L353.321 281.194H356.751V282.163H354.299L354.154 283.568H354.187C354.286 283.429 354.434 283.314 354.633 283.223C354.832 283.132 355.055 283.086 355.302 283.086C355.639 283.086 355.941 283.166 356.205 283.324C356.47 283.483 356.679 283.701 356.833 283.979C356.986 284.255 357.062 284.572 357.06 284.932C357.062 285.31 356.974 285.646 356.797 285.94C356.622 286.232 356.376 286.462 356.06 286.63C355.746 286.796 355.381 286.879 354.965 286.879ZM359.563 285.948V282.07H360.544V285.948H359.563ZM358.114 284.499V283.519H361.993V284.499H358.114Z" fill="#767676"/>
<line opacity="0.5" x1="128.869" y1="272.091" x2="128.869" y2="66.1644" stroke="#B1B1B1" stroke-width="0.501188"/>
</g>
</g>
<defs>
<filter id="filter0_f_1455_1942" x="-265.6" y="-89.3988" width="1517.2" height="1517.2" filterUnits="userSpaceOnUse" color-interpolation-filters="sRGB">
<feFlood flood-opacity="0" result="BackgroundImageFix"/>
<feBlend mode="normal" in="SourceGraphic" in2="BackgroundImageFix" result="shape"/>
<feGaussianBlur stdDeviation="268.8" result="effect1_foregroundBlur_1455_1942"/>
</filter>
<filter id="filter1_f_1455_1942" x="-787.6" y="-937.399" width="1517.2" height="1517.2" filterUnits="userSpaceOnUse" color-interpolation-filters="sRGB">
<feFlood flood-opacity="0" result="BackgroundImageFix"/>
<feBlend mode="normal" in="SourceGraphic" in2="BackgroundImageFix" result="shape"/>
<feGaussianBlur stdDeviation="268.8" result="effect1_foregroundBlur_1455_1942"/>
</filter>
<filter id="filter2_d_1455_1942" x="-19" y="-14.7988" width="507" height="384" filterUnits="userSpaceOnUse" color-interpolation-filters="sRGB">
<feFlood flood-opacity="0" result="BackgroundImageFix"/>
<feColorMatrix in="SourceAlpha" type="matrix" values="0 0 0 0 0 0 0 0 0 0 0 0 0 0 0 0 0 0 127 0" result="hardAlpha"/>
<feMorphology radius="1" operator="dilate" in="SourceAlpha" result="effect1_dropShadow_1455_1942"/>
<feOffset dy="5"/>
<feGaussianBlur stdDeviation="20"/>
<feComposite in2="hardAlpha" operator="out"/>
<feColorMatrix type="matrix" values="0 0 0 0 0 0 0 0 0 0.105882 0 0 0 0 0.419608 0 0 0 0.08 0"/>
<feBlend mode="normal" in2="BackgroundImageFix" result="effect1_dropShadow_1455_1942"/>
<feBlend mode="normal" in="SourceGraphic" in2="effect1_dropShadow_1455_1942" result="shape"/>
</filter>
<clipPath id="clip0_1455_1942">
<rect y="0.600586" width="473" height="600" rx="20" fill="white"/>
</clipPath>
</defs>
</svg>
