<svg width="828" height="779" viewBox="0 0 828 779" fill="none" xmlns="http://www.w3.org/2000/svg">
<g filter="url(#filter0_d_1483_4593)">
<rect x="81" y="71" width="666" height="616.885" rx="39.292" fill="white"/>
<g clip-path="url(#clip0_1483_4593)">
<path d="M411.64 429.136C439.567 429.136 462.207 406.497 462.207 378.57C462.207 350.643 439.567 328.004 411.64 328.004C383.713 328.004 361.074 350.643 361.074 378.57C361.074 406.497 383.713 429.136 411.64 429.136Z" fill="#DEEDFF"/>
<path fill-rule="evenodd" clip-rule="evenodd" d="M409.256 394.7L392.958 394.379L392.878 371.819L392.754 364.463L387.525 360.191L387.739 399.736L409.201 399.946L409.256 394.7Z" fill="url(#paint0_linear_1483_4593)"/>
<path fill-rule="evenodd" clip-rule="evenodd" d="M397.826 375.811L411.81 387.089L430.45 371.977L430.238 399.949L435.563 400.056L435.777 360.081L411.916 380.123L397.894 368.662L397.826 375.811Z" fill="url(#paint1_linear_1483_4593)"/>
<path d="M412.457 376.037C411.77 370.214 411.531 369.384 411.215 368.688C410.797 368.157 410.299 367.759 406.811 366.613C410.299 365.467 410.797 365.069 411.215 364.538C411.534 363.842 411.77 363.012 412.457 357.189C413.144 363.012 413.383 363.84 413.702 364.538C414.119 365.069 414.617 365.467 418.106 366.613C414.617 367.759 414.119 368.157 413.702 368.688C413.383 369.384 413.146 370.214 412.457 376.037Z" fill="url(#paint2_linear_1483_4593)"/>
<path d="M411.298 464.009C409.735 464.009 408.172 463.967 406.598 463.881C394.579 463.225 383.099 460.132 372.471 454.691L373.282 453.105C383.687 458.429 394.927 461.457 406.696 462.098C434.853 463.638 461.665 450.983 478.416 428.251L479.852 429.309C463.677 451.257 438.318 464.009 411.295 464.009H411.298Z" fill="#C7DDFF"/>
<path d="M358.754 314.062L357.631 312.677C374.061 299.358 394.747 292.658 415.886 293.814C431.913 294.69 447.28 300.023 460.323 309.24L459.295 310.696C446.525 301.672 431.479 296.449 415.788 295.593C395.094 294.461 374.84 301.022 358.754 314.062Z" fill="#C7DDFF"/>
<path d="M463.137 508.605L462.475 506.95C487.771 496.825 509.351 479.568 524.878 457.047C540.771 433.996 549.173 406.953 549.173 378.846H550.956C550.956 407.318 542.446 434.71 526.346 458.06C510.619 480.869 488.76 498.349 463.137 508.605Z" fill="#C7DDFF"/>
<path d="M272.603 396.275C271.887 390.534 271.527 384.669 271.527 378.846C271.527 341.525 286.059 306.442 312.449 280.052C338.839 253.662 373.923 239.13 411.243 239.13V240.913C374.401 240.913 339.763 255.26 313.709 281.312C287.658 307.363 273.31 342.001 273.31 378.846C273.31 384.595 273.667 390.386 274.374 396.055L272.606 396.275H272.603Z" fill="#C7DDFF"/>
<path d="M412.496 479.771C395.145 479.771 378.197 475.329 363.006 466.734C345.586 456.878 331.609 442.272 322.586 424.493L324.176 423.688C333.038 441.155 346.771 455.503 363.885 465.186C381.403 475.095 401.298 479.388 421.425 477.593L421.582 479.37C418.549 479.64 415.515 479.774 412.499 479.774L412.496 479.771Z" fill="#BC66FF"/>
<path d="M511.379 370.04C509.029 343.662 496.55 319.777 476.233 302.785C455.919 285.793 430.21 277.726 403.826 280.079C399.708 280.445 395.587 281.072 391.573 281.936L391.195 280.192C395.281 279.31 399.476 278.674 403.665 278.3C430.519 275.908 456.695 284.117 477.374 301.412C498.053 318.707 510.758 343.023 513.15 369.877L511.373 370.034L511.379 370.04Z" fill="#BC66FF"/>
<path d="M373.165 584.343C346.954 579.517 322.222 569.828 299.65 555.543C277.529 541.546 258.437 523.752 242.895 502.656L244.33 501.599C259.738 522.516 278.67 540.158 300.603 554.037C322.982 568.197 347.503 577.806 373.489 582.59L373.165 584.343Z" fill="#C7DDFF"/>
<path d="M563.211 522.264L561.916 521.04C592.151 489.014 611.095 449.102 616.704 405.613L618.472 405.842C612.815 449.705 593.704 489.965 563.211 522.264Z" fill="#C7DDFF"/>
<path d="M578.104 256.03C561.947 234.118 541.978 215.842 518.749 201.714C494.989 187.262 469.006 177.894 441.52 173.868L441.778 172.104C469.499 176.162 495.708 185.613 519.673 200.19C543.101 214.44 563.242 232.873 579.536 254.972L578.101 256.03H578.104Z" fill="#C7DDFF"/>
<path d="M208.263 337.149L206.516 336.792C212.027 309.823 222.679 284.562 238.176 261.711C253.398 239.264 272.541 220.23 295.068 205.134L296.061 206.613C273.723 221.582 254.744 240.455 239.65 262.709C224.286 285.367 213.724 310.411 208.26 337.149H208.263Z" fill="#C7DDFF"/>
<path d="M241.779 533.574C221.908 512.021 206.55 487.162 196.127 459.69C185.912 432.769 180.867 404.507 181.129 375.687L182.912 375.701C182.653 404.299 187.659 432.344 197.794 459.057C208.134 486.315 223.376 510.979 243.089 532.365L241.779 533.574Z" fill="#BC66FF"/>
<path d="M449.953 604.467L449.65 602.711C497.433 594.499 540.491 571.882 574.172 537.304L575.449 538.549C541.504 573.397 498.11 596.192 449.953 604.47V604.467Z" fill="#BC66FF"/>
<path d="M640.834 380.121L639.051 380.106C639.31 350.139 633.807 320.852 622.695 293.06C611.327 264.634 594.644 239.213 573.109 217.506L574.375 216.249C596.082 238.129 612.896 263.749 624.35 292.397C635.548 320.403 641.096 349.919 640.834 380.121Z" fill="#BC66FF"/>
<path d="M259.847 207.089L258.664 205.755C281.322 185.67 307.373 170.484 336.099 160.617C364.313 150.925 393.724 146.822 423.507 148.417L423.412 150.197C393.855 148.61 364.672 152.684 336.678 162.302C308.176 172.092 282.326 187.161 259.847 207.089Z" fill="#BC66FF"/>
<g opacity="0.7">
<path d="M156.074 277.918L154.41 277.279C167.02 244.418 185.587 214.653 209.594 188.807C233.122 163.478 260.846 142.995 291.996 127.925L292.771 129.529C261.821 144.501 234.275 164.853 210.901 190.019C187.048 215.699 168.6 245.271 156.074 277.918Z" fill="#BC66FF"/>
</g>
<g opacity="0.7">
<path d="M326.777 638.962C298.886 629.948 272.764 616.61 249.14 599.321C226.111 582.469 205.877 562.185 189.004 539.036L190.445 537.984C207.208 560.984 227.311 581.138 250.192 597.88C273.664 615.056 299.614 628.305 327.323 637.263L326.774 638.959L326.777 638.962Z" fill="#BC66FF"/>
</g>
<g opacity="0.7">
<path d="M532.068 624.94L531.293 623.335C563.72 607.633 592.339 586.086 616.357 559.292C640.923 531.886 659.416 500.353 671.318 465.572L673.006 466.149C661.026 501.158 642.412 532.896 617.686 560.48C593.512 587.446 564.71 609.136 532.071 624.94H532.068Z" fill="#BC66FF"/>
</g>
<g opacity="0.7">
<path d="M663.999 268.391C649.946 235.699 629.994 206.43 604.701 181.395C578.953 155.908 548.929 136.094 515.471 122.501L516.142 120.849C549.82 134.531 580.037 154.476 605.955 180.129C631.411 205.325 651.491 234.784 665.636 267.687L663.999 268.391Z" fill="#BC66FF"/>
</g>
<path d="M273.724 466.704C251.078 431.686 242.735 389.679 250.234 348.419L251.987 348.737C244.571 389.549 252.822 431.101 275.221 465.735L273.724 466.704Z" fill="#BC66FF"/>
<path d="M411.498 541.735H411.406V539.952H411.498C445.925 539.952 478.783 529.312 506.525 509.174L507.571 510.618C479.523 530.976 446.3 541.735 411.495 541.735H411.498Z" fill="#BC66FF"/>
<path d="M572.705 407.22L570.952 406.902C574.752 385.943 574.434 364.765 570.007 343.955C565.479 322.672 556.862 302.852 544.398 285.046L545.857 284.023C558.458 302.026 567.169 322.066 571.748 343.583C576.223 364.619 576.546 386.029 572.702 407.22H572.705Z" fill="#BC66FF"/>
<path d="M326.24 239.924L325.301 238.409C343.654 227.041 363.801 219.527 385.179 216.072C406.176 212.679 427.339 213.356 448.075 218.089L447.677 219.827C427.167 215.148 406.232 214.476 385.464 217.831C364.318 221.247 344.393 228.681 326.24 239.924Z" fill="#BC66FF"/>
<path d="M369.454 323.009C374.725 317.738 374.725 309.192 369.454 303.92C364.183 298.649 355.636 298.649 350.365 303.92C345.094 309.192 345.094 317.738 350.365 323.009C355.636 328.281 364.183 328.281 369.454 323.009Z" fill="#C7DDFF"/>
<path d="M363.588 318.082C366.126 316.05 366.536 312.346 364.505 309.808C362.474 307.27 358.77 306.86 356.232 308.891C353.694 310.922 353.283 314.626 355.314 317.164C357.346 319.702 361.05 320.113 363.588 318.082Z" fill="white"/>
<path d="M377.023 584.963C378.199 577.822 373.364 571.081 366.223 569.905C359.083 568.729 352.342 573.565 351.166 580.705C349.99 587.845 354.826 594.587 361.966 595.763C369.106 596.938 375.848 592.103 377.023 584.963Z" fill="#C7DDFF"/>
<path d="M366.139 587.808C368.905 586.677 370.23 583.518 369.099 580.752C367.968 577.986 364.809 576.661 362.043 577.792C359.277 578.923 357.952 582.082 359.083 584.848C360.214 587.614 363.373 588.939 366.139 587.808Z" fill="white"/>
<path d="M208.901 344.208C215.358 344.208 220.592 338.974 220.592 332.517C220.592 326.06 215.358 320.825 208.901 320.825C202.443 320.825 197.209 326.06 197.209 332.517C197.209 338.974 202.443 344.208 208.901 344.208Z" fill="#C7DDFF"/>
<path d="M208.903 337.92C211.887 337.92 214.307 335.501 214.307 332.516C214.307 329.531 211.887 327.111 208.903 327.111C205.918 327.111 203.498 329.531 203.498 332.516C203.498 335.501 205.918 337.92 208.903 337.92Z" fill="white"/>
<path d="M453.747 316.371C459.524 316.371 464.208 311.687 464.208 305.91C464.208 300.132 459.524 295.448 453.747 295.448C447.969 295.448 443.285 300.132 443.285 305.91C443.285 311.687 447.969 316.371 453.747 316.371Z" fill="#C7DDFF"/>
<path d="M458.085 307.249C458.819 304.859 457.477 302.325 455.087 301.59C452.697 300.856 450.163 302.198 449.428 304.588C448.693 306.978 450.035 309.512 452.426 310.247C454.816 310.982 457.35 309.64 458.085 307.249Z" fill="white"/>
<path d="M407.874 268.387C423.539 268.387 436.239 255.687 436.239 240.021C436.239 224.355 423.539 211.655 407.874 211.655C392.208 211.655 379.508 224.355 379.508 240.021C379.508 255.687 392.208 268.387 407.874 268.387Z" fill="#BC66FF"/>
<path d="M550.067 405.73C564.914 405.73 576.95 393.694 576.95 378.847C576.95 364 564.914 351.964 550.067 351.964C535.22 351.964 523.184 364 523.184 378.847C523.184 393.694 535.22 405.73 550.067 405.73Z" fill="#356CB5"/>
<path d="M455.98 542.059C473.581 542.059 487.849 527.791 487.849 510.19C487.849 492.589 473.581 478.321 455.98 478.321C438.379 478.321 424.111 492.589 424.111 510.19C424.111 527.791 438.379 542.059 455.98 542.059Z" fill="#BC66FF"/>
<path d="M275.03 436.403C291.971 436.403 305.704 422.67 305.704 405.729C305.704 388.788 291.971 375.055 275.03 375.055C258.089 375.055 244.355 388.788 244.355 405.729C244.355 422.67 258.089 436.403 275.03 436.403Z" fill="#356CB5"/>
<path d="M307.734 238.248C321.6 224.382 321.6 201.901 307.734 188.035C293.869 174.17 271.388 174.17 257.522 188.035C243.656 201.901 243.656 224.382 257.522 238.248C271.388 252.113 293.869 252.113 307.734 238.248Z" fill="#FFA1D4"/>
<path d="M566.751 278.245C587.862 278.245 604.975 261.131 604.975 240.021C604.975 218.91 587.862 201.797 566.751 201.797C545.641 201.797 528.527 218.91 528.527 240.021C528.527 261.131 545.641 278.245 566.751 278.245Z" fill="#6666FF"/>
<path d="M572.757 545.254C592.123 545.254 607.823 529.555 607.823 510.189C607.823 490.822 592.123 475.123 572.757 475.123C553.391 475.123 537.691 490.822 537.691 510.189C537.691 529.555 553.391 545.254 572.757 545.254Z" fill="#FFA1D4"/>
<path d="M278.22 538.968C291.583 525.605 291.583 503.938 278.22 490.575C264.857 477.212 243.191 477.212 229.827 490.575C216.464 503.938 216.464 525.605 229.827 538.968C243.191 552.331 264.857 552.331 278.22 538.968Z" fill="#6666FF"/>
<path d="M487.823 433.359C488.158 426.354 482.751 420.403 475.746 420.068C468.741 419.732 462.79 425.14 462.455 432.145C462.119 439.15 467.527 445.101 474.532 445.436C481.537 445.771 487.488 440.364 487.823 433.359Z" fill="#C7DDFF"/>
<path d="M477.391 438.321C480.439 437.077 481.902 433.598 480.658 430.55C479.414 427.503 475.935 426.04 472.887 427.284C469.84 428.528 468.377 432.007 469.621 435.054C470.865 438.102 474.344 439.565 477.391 438.321Z" fill="white"/>
<path d="M615.872 425.048C621.683 425.048 626.393 420.337 626.393 414.527C626.393 408.716 621.683 404.006 615.872 404.006C610.062 404.006 605.352 408.716 605.352 414.527C605.352 420.337 610.062 425.048 615.872 425.048Z" fill="#C7DDFF"/>
<path d="M620.341 415.569C620.926 413.092 619.392 410.61 616.915 410.025C614.438 409.44 611.956 410.974 611.371 413.451C610.786 415.928 612.321 418.41 614.798 418.995C617.275 419.58 619.757 418.046 620.341 415.569Z" fill="white"/>
<path d="M386.531 463.966C390.638 460.588 391.229 454.519 387.85 450.412C384.472 446.305 378.403 445.714 374.296 449.093C370.189 452.471 369.598 458.54 372.977 462.647C376.355 466.754 382.424 467.345 386.531 463.966Z" fill="#C7DDFF"/>
<path d="M384.481 456.773C384.36 459.023 382.434 460.749 380.185 460.624C377.936 460.502 376.21 458.577 376.334 456.328C376.456 454.079 378.382 452.352 380.631 452.477C382.88 452.599 384.606 454.524 384.481 456.773Z" fill="white"/>
<path d="M449.703 183.585C455.146 183.585 459.558 179.172 459.558 173.729C459.558 168.286 455.146 163.874 449.703 163.874C444.26 163.874 439.848 168.286 439.848 173.729C439.848 179.172 444.26 183.585 449.703 183.585Z" fill="#C7DDFF"/>
<path d="M449.706 178.206C452.179 178.206 454.184 176.201 454.184 173.729C454.184 171.256 452.179 169.251 449.706 169.251C447.233 169.251 445.229 171.256 445.229 173.729C445.229 176.201 447.233 178.206 449.706 178.206Z" fill="white"/>
<path d="M340.371 509.987C344.457 509.987 347.769 506.675 347.769 502.589C347.769 498.503 344.457 495.19 340.371 495.19C336.285 495.19 332.973 498.503 332.973 502.589C332.973 506.675 336.285 509.987 340.371 509.987Z" fill="#553EF2"/>
<path d="M362.101 189.073C366.187 189.073 369.5 185.76 369.5 181.675C369.5 177.589 366.187 174.276 362.101 174.276C358.015 174.276 354.703 177.589 354.703 181.675C354.703 185.76 358.015 189.073 362.101 189.073Z" fill="#553EF2"/>
<path d="M336.734 376.239C337.952 372.338 335.778 368.189 331.878 366.971C327.978 365.752 323.829 367.926 322.611 371.826C321.392 375.726 323.566 379.875 327.466 381.094C331.366 382.312 335.515 380.139 336.734 376.239Z" fill="#553EF2"/>
<path d="M515.469 293.553C518.359 290.663 518.359 285.979 515.469 283.09C512.58 280.201 507.896 280.201 505.007 283.09C502.118 285.979 502.118 290.663 505.007 293.553C507.896 296.442 512.58 296.442 515.469 293.553Z" fill="#553EF2"/>
<path d="M211.879 408.632C215.965 408.632 219.277 405.32 219.277 401.234C219.277 397.148 215.965 393.836 211.879 393.836C207.793 393.836 204.48 397.148 204.48 401.234C204.48 405.32 207.793 408.632 211.879 408.632Z" fill="#553EF2"/>
<path d="M608.59 345.88C612.676 345.88 615.988 342.568 615.988 338.482C615.988 334.396 612.676 331.084 608.59 331.084C604.504 331.084 601.191 334.396 601.191 338.482C601.191 342.568 604.504 345.88 608.59 345.88Z" fill="#553EF2"/>
<path d="M479.247 574.775C480.185 570.798 477.722 566.813 473.746 565.875C469.769 564.936 465.785 567.399 464.846 571.376C463.907 575.352 466.37 579.337 470.347 580.276C474.324 581.214 478.308 578.751 479.247 574.775Z" fill="#553EF2"/>
<path d="M455.59 498.807C464.148 498.807 471.085 496.912 471.085 494.576C471.085 492.239 464.148 490.345 455.59 490.345C447.033 490.345 440.096 492.239 440.096 494.576C440.096 496.912 447.033 498.807 455.59 498.807Z" fill="white"/>
<path d="M466.878 498.776C463.847 499.605 459.839 500.06 455.59 500.06C451.342 500.06 447.333 499.605 444.303 498.776C442.41 498.259 441.005 497.627 440.096 496.884V501.112C440.096 503.447 447.033 505.343 455.59 505.343C464.147 505.343 471.085 503.447 471.085 501.112V496.884C470.173 497.627 468.77 498.259 466.878 498.776ZM452.141 503.777C451.642 503.777 451.238 503.373 451.238 502.874C451.238 502.375 451.642 501.97 452.141 501.97C452.64 501.97 453.044 502.375 453.044 502.874C453.044 503.373 452.64 503.777 452.141 503.777ZM455.59 503.777C455.091 503.777 454.687 503.373 454.687 502.874C454.687 502.375 455.091 501.97 455.59 501.97C456.089 501.97 456.494 502.375 456.494 502.874C456.494 503.373 456.089 503.777 455.59 503.777ZM459.04 503.777C458.541 503.777 458.137 503.373 458.137 502.874C458.137 502.375 458.541 501.97 459.04 501.97C459.539 501.97 459.943 502.375 459.943 502.874C459.943 503.373 459.539 503.777 459.04 503.777Z" fill="white"/>
<path d="M466.878 505.245C463.847 506.074 459.839 506.529 455.59 506.529C451.342 506.529 447.333 506.074 444.303 505.245C442.41 504.728 441.005 504.095 440.096 503.353V507.58C440.096 509.916 447.033 511.811 455.59 511.811C464.147 511.811 471.085 509.916 471.085 507.58V503.353C470.173 504.095 468.77 504.728 466.878 505.245ZM452.141 510.148C451.642 510.148 451.238 509.743 451.238 509.244C451.238 508.745 451.642 508.341 452.141 508.341C452.64 508.341 453.044 508.745 453.044 509.244C453.044 509.743 452.64 510.148 452.141 510.148ZM455.59 510.148C455.091 510.148 454.687 509.743 454.687 509.244C454.687 508.745 455.091 508.341 455.59 508.341C456.089 508.341 456.494 508.745 456.494 509.244C456.494 509.743 456.089 510.148 455.59 510.148ZM459.04 510.148C458.541 510.148 458.137 509.743 458.137 509.244C458.137 508.745 458.541 508.341 459.04 508.341C459.539 508.341 459.943 508.745 459.943 509.244C459.943 509.743 459.539 510.148 459.04 510.148Z" fill="white"/>
<path d="M466.878 511.71C463.847 512.539 459.839 512.994 455.59 512.994C451.342 512.994 447.333 512.539 444.303 511.71C442.41 511.193 441.005 510.56 440.096 509.817V514.045C440.096 516.381 447.033 518.276 455.59 518.276C464.147 518.276 471.085 516.381 471.085 514.045V509.817C470.173 510.56 468.77 511.193 466.878 511.71ZM452.141 516.511C451.642 516.511 451.238 516.107 451.238 515.608C451.238 515.109 451.642 514.705 452.141 514.705C452.64 514.705 453.044 515.109 453.044 515.608C453.044 516.107 452.64 516.511 452.141 516.511ZM455.59 516.511C455.091 516.511 454.687 516.107 454.687 515.608C454.687 515.109 455.091 514.705 455.59 514.705C456.089 514.705 456.494 515.109 456.494 515.608C456.494 516.107 456.089 516.511 455.59 516.511ZM459.04 516.511C458.541 516.511 458.137 516.107 458.137 515.608C458.137 515.109 458.541 514.705 459.04 514.705C459.539 514.705 459.943 515.109 459.943 515.608C459.943 516.107 459.539 516.511 459.04 516.511Z" fill="white"/>
<path d="M471.085 526.438H440.096V527.832H471.085V526.438Z" fill="white"/>
<path d="M456.286 519.721H454.893V527.134H456.286V519.721Z" fill="white"/>
<path d="M458.136 524.591H453.043V529.683H458.136V524.591Z" fill="white"/>
<path d="M572.084 504.457V506.584H578.748V504.457H572.084ZM577.925 505.874H576.036V505.164H577.925V505.874Z" fill="white"/>
<path d="M572.084 501.416V503.543H578.748V501.416H572.084ZM577.925 502.833H576.036V502.123H577.925V502.833Z" fill="white"/>
<path d="M572.084 498.373V500.5H578.748V498.373H572.084ZM577.925 499.79H576.036V499.08H577.925V499.79Z" fill="white"/>
<path d="M583.637 499.09L583.063 497.702L584.492 496.627C583.663 495.346 582.576 494.253 581.298 493.421L580.217 494.847L578.829 494.271L577.442 493.694L577.694 491.918C576.958 491.76 576.197 491.671 575.415 491.671C574.634 491.671 573.894 491.754 573.169 491.909L573.416 493.688L572.028 494.262L570.641 494.835L569.565 493.406C568.285 494.235 567.191 495.322 566.359 496.6L567.786 497.682L567.209 499.069L566.633 500.457L564.856 500.204C564.698 500.941 564.609 501.702 564.609 502.483C564.609 503.264 564.693 504.004 564.847 504.729L566.627 504.483L567.2 505.87L567.774 507.258L566.345 508.333C567.173 509.614 568.261 510.707 569.539 511.539L570.62 510.113L572.008 510.689L573.395 511.266L573.143 513.042C573.879 513.2 574.64 513.289 575.421 513.289C576.203 513.289 576.943 513.206 577.668 513.051L577.421 511.272L578.809 510.698L580.196 510.125L581.272 511.554C582.552 510.725 583.646 509.638 584.478 508.36L583.051 507.278L583.628 505.891L584.204 504.503L585.981 504.756C586.138 504.019 586.228 503.258 586.228 502.477C586.228 501.696 586.144 500.956 585.99 500.231L584.21 500.477L583.637 499.09ZM575.418 509.168C571.725 509.168 568.73 506.173 568.73 502.48C568.73 498.787 571.725 495.792 575.418 495.792C579.112 495.792 582.107 498.787 582.107 502.48C582.107 506.173 579.112 509.168 575.418 509.168Z" fill="white"/>
<path d="M584.036 494.508L583.275 493.747L585.744 491.278H590.896V492.354H586.19L584.036 494.508Z" fill="white"/>
<path d="M591.992 493.536C591.044 493.536 590.271 492.764 590.271 491.816C590.271 490.868 591.044 490.096 591.992 490.096C592.94 490.096 593.712 490.868 593.712 491.816C593.712 492.764 592.94 493.536 591.992 493.536ZM591.992 491.174C591.638 491.174 591.35 491.462 591.35 491.816C591.35 492.17 591.638 492.461 591.992 492.461C592.345 492.461 592.637 492.173 592.637 491.816C592.637 491.459 592.348 491.174 591.992 491.174Z" fill="white"/>
<path d="M566.692 494.508L564.541 492.354H559.832V491.278H564.987L567.456 493.747L566.692 494.508Z" fill="white"/>
<path d="M558.736 493.536C557.788 493.536 557.016 492.764 557.016 491.816C557.016 490.868 557.788 490.096 558.736 490.096C559.684 490.096 560.456 490.868 560.456 491.816C560.456 492.764 559.684 493.536 558.736 493.536ZM558.736 491.174C558.382 491.174 558.094 491.462 558.094 491.816C558.094 492.17 558.382 492.461 558.736 492.461C559.089 492.461 559.381 492.173 559.381 491.816C559.381 491.459 559.092 491.174 558.736 491.174Z" fill="white"/>
<path d="M590.896 513.681H585.744L583.275 511.212L584.036 510.451L586.19 512.602H590.896V513.681Z" fill="white"/>
<path d="M591.992 514.861C591.044 514.861 590.271 514.088 590.271 513.14C590.271 512.192 591.044 511.42 591.992 511.42C592.94 511.42 593.712 512.192 593.712 513.14C593.712 514.088 592.94 514.861 591.992 514.861ZM591.992 512.498C591.638 512.498 591.35 512.787 591.35 513.143C591.35 513.5 591.638 513.785 591.992 513.785C592.345 513.785 592.637 513.497 592.637 513.143C592.637 512.79 592.348 512.498 591.992 512.498Z" fill="white"/>
<path d="M564.987 513.681H559.832V512.602H564.541L566.692 510.451L567.456 511.212L564.987 513.681Z" fill="white"/>
<path d="M558.736 514.861C557.788 514.861 557.016 514.088 557.016 513.14C557.016 512.192 557.788 511.42 558.736 511.42C559.684 511.42 560.456 512.192 560.456 513.14C560.456 514.088 559.684 514.861 558.736 514.861ZM558.736 512.498C558.382 512.498 558.094 512.787 558.094 513.143C558.094 513.5 558.382 513.785 558.736 513.785C559.089 513.785 559.381 513.497 559.381 513.143C559.381 512.79 559.092 512.498 558.736 512.498Z" fill="white"/>
<path d="M591.992 504.197C591.044 504.197 590.271 503.425 590.271 502.477C590.271 501.529 591.044 500.757 591.992 500.757C592.94 500.757 593.712 501.529 593.712 502.477C593.712 503.425 592.94 504.197 591.992 504.197ZM591.992 501.835C591.638 501.835 591.35 502.124 591.35 502.477C591.35 502.831 591.638 503.122 591.992 503.122C592.345 503.122 592.637 502.834 592.637 502.477C592.637 502.121 592.348 501.835 591.992 501.835Z" fill="white"/>
<path d="M590.811 501.941H587.1V503.017H590.811V501.941Z" fill="white"/>
<path d="M575.365 487.571C574.417 487.571 573.645 486.798 573.645 485.85C573.645 484.902 574.417 484.13 575.365 484.13C576.313 484.13 577.085 484.902 577.085 485.85C577.085 486.798 576.313 487.571 575.365 487.571ZM575.365 485.208C575.011 485.208 574.72 485.497 574.72 485.853C574.72 486.21 575.008 486.495 575.365 486.495C575.721 486.495 576.007 486.207 576.007 485.853C576.007 485.5 575.718 485.208 575.365 485.208Z" fill="white"/>
<path d="M575.904 487.032H574.828V490.743H575.904V487.032Z" fill="white"/>
<path d="M558.736 504.197C557.788 504.197 557.016 503.425 557.016 502.477C557.016 501.529 557.788 500.757 558.736 500.757C559.684 500.757 560.456 501.529 560.456 502.477C560.456 503.425 559.684 504.197 558.736 504.197ZM558.736 501.835C558.382 501.835 558.094 502.124 558.094 502.477C558.094 502.831 558.382 503.119 558.736 503.119C559.089 503.119 559.381 502.831 559.381 502.477C559.381 502.124 559.092 501.835 558.736 501.835Z" fill="white"/>
<path d="M563.631 501.941H559.92V503.017H563.631V501.941Z" fill="white"/>
<path d="M588.1 517.992C584.21 516.248 579.902 515.279 575.365 515.279C570.828 515.279 566.517 516.248 562.631 517.992V532.542H588.103V517.992H588.1Z" fill="white"/>
<path d="M267.979 397.339V402.319H282.083V397.339H267.979ZM271.972 400.604C271.544 400.604 271.196 400.257 271.196 399.829C271.196 399.401 271.544 399.053 271.972 399.053C272.4 399.053 272.747 399.401 272.747 399.829C272.747 400.257 272.4 400.604 271.972 400.604ZM275.029 400.604C274.601 400.604 274.254 400.257 274.254 399.829C274.254 399.401 274.601 399.053 275.029 399.053C275.457 399.053 275.805 399.401 275.805 399.829C275.805 400.257 275.457 400.604 275.029 400.604ZM278.086 400.604C277.659 400.604 277.311 400.257 277.311 399.829C277.311 399.401 277.659 399.053 278.086 399.053C278.514 399.053 278.862 399.401 278.862 399.829C278.862 400.257 278.514 400.604 278.086 400.604Z" fill="white"/>
<path d="M267.979 403.239V408.219H282.083V403.239H267.979ZM271.972 406.505C271.544 406.505 271.196 406.157 271.196 405.729C271.196 405.301 271.544 404.954 271.972 404.954C272.4 404.954 272.747 405.301 272.747 405.729C272.747 406.157 272.4 406.505 271.972 406.505ZM275.029 406.505C274.601 406.505 274.254 406.157 274.254 405.729C274.254 405.301 274.601 404.954 275.029 404.954C275.457 404.954 275.805 405.301 275.805 405.729C275.805 406.157 275.457 406.505 275.029 406.505ZM278.086 406.505C277.659 406.505 277.311 406.157 277.311 405.729C277.311 405.301 277.659 404.954 278.086 404.954C278.514 404.954 278.862 405.301 278.862 405.729C278.862 406.157 278.514 406.505 278.086 406.505Z" fill="white"/>
<path d="M267.979 409.137V414.116H282.083V409.137H267.979ZM271.972 412.402C271.544 412.402 271.196 412.054 271.196 411.627C271.196 411.199 271.544 410.851 271.972 410.851C272.4 410.851 272.747 411.199 272.747 411.627C272.747 412.054 272.4 412.402 271.972 412.402ZM275.029 412.402C274.601 412.402 274.254 412.054 274.254 411.627C274.254 411.199 274.601 410.851 275.029 410.851C275.457 410.851 275.805 411.199 275.805 411.627C275.805 412.054 275.457 412.402 275.029 412.402ZM278.086 412.402C277.659 412.402 277.311 412.054 277.311 411.627C277.311 411.199 277.659 410.851 278.086 410.851C278.514 410.851 278.862 411.199 278.862 411.627C278.862 412.054 278.514 412.402 278.086 412.402Z" fill="white"/>
<path d="M266.896 396.787L263.096 392.987H259.641V391.92H263.539L267.651 396.032L266.896 396.787Z" fill="white"/>
<path d="M266.486 405.194H259.641V406.264H266.486V405.194Z" fill="white"/>
<path d="M258.272 394.359C257.22 394.359 256.367 393.503 256.367 392.454C256.367 391.406 257.223 390.55 258.272 390.55C259.321 390.55 260.176 391.406 260.176 392.454C260.176 393.503 259.321 394.359 258.272 394.359ZM258.272 391.616C257.811 391.616 257.434 391.991 257.434 392.454C257.434 392.918 257.808 393.292 258.272 393.292C258.735 393.292 259.11 392.918 259.11 392.454C259.11 391.991 258.735 391.616 258.272 391.616Z" fill="white"/>
<path d="M275.031 394.359C273.98 394.359 273.127 393.503 273.127 392.454C273.127 391.406 273.983 390.55 275.031 390.55C276.08 390.55 276.936 391.406 276.936 392.454C276.936 393.503 276.08 394.359 275.031 394.359ZM275.031 391.616C274.571 391.616 274.194 391.991 274.194 392.454C274.194 392.918 274.568 393.292 275.031 393.292C275.495 393.292 275.869 392.918 275.869 392.454C275.869 391.991 275.495 391.616 275.031 391.616Z" fill="white"/>
<path d="M263.539 419.54H259.641V418.47H263.096L266.896 414.673L267.651 415.428L263.539 419.54Z" fill="white"/>
<path d="M258.272 420.91C257.22 420.91 256.367 420.054 256.367 419.005C256.367 417.956 257.223 417.101 258.272 417.101C259.321 417.101 260.176 417.956 260.176 419.005C260.176 420.054 259.321 420.91 258.272 420.91ZM258.272 418.167C257.811 418.167 257.434 418.542 257.434 419.005C257.434 419.469 257.808 419.843 258.272 419.843C258.735 419.843 259.11 419.469 259.11 419.005C259.11 418.542 258.735 418.167 258.272 418.167Z" fill="white"/>
<path d="M258.272 407.634C257.22 407.634 256.367 406.779 256.367 405.73C256.367 404.681 257.223 403.825 258.272 403.825C259.321 403.825 260.176 404.681 260.176 405.73C260.176 406.779 259.321 407.634 258.272 407.634ZM258.272 404.892C257.811 404.892 257.434 405.266 257.434 405.73C257.434 406.193 257.808 406.568 258.272 406.568C258.735 406.568 259.11 406.193 259.11 405.73C259.11 405.266 258.735 404.892 258.272 404.892Z" fill="white"/>
<path d="M283.17 396.787L282.412 396.032L286.524 391.92H290.422V392.987H286.967L283.17 396.787Z" fill="white"/>
<path d="M290.424 405.194H283.578V406.264H290.424V405.194Z" fill="white"/>
<path d="M291.793 394.359C290.741 394.359 289.889 393.503 289.889 392.454C289.889 391.406 290.744 390.55 291.793 390.55C292.842 390.55 293.698 391.406 293.698 392.454C293.698 393.503 292.842 394.359 291.793 394.359ZM291.793 391.616C291.333 391.616 290.955 391.991 290.955 392.454C290.955 392.918 291.33 393.292 291.793 393.292C292.257 393.292 292.631 392.918 292.631 392.454C292.631 391.991 292.257 391.616 291.793 391.616Z" fill="white"/>
<path d="M290.422 419.54H286.524L282.412 415.428L283.17 414.673L286.967 418.47H290.422V419.54Z" fill="white"/>
<path d="M291.793 420.91C290.741 420.91 289.889 420.054 289.889 419.005C289.889 417.956 290.744 417.101 291.793 417.101C292.842 417.101 293.698 417.956 293.698 419.005C293.698 420.054 292.842 420.91 291.793 420.91ZM291.793 418.167C291.333 418.167 290.955 418.542 290.955 419.005C290.955 419.469 291.33 419.843 291.793 419.843C292.257 419.843 292.631 419.469 292.631 419.005C292.631 418.542 292.257 418.167 291.793 418.167Z" fill="white"/>
<path d="M291.793 407.634C290.741 407.634 289.889 406.779 289.889 405.73C289.889 404.681 290.744 403.825 291.793 403.825C292.842 403.825 293.698 404.681 293.698 405.73C293.698 406.779 292.842 407.634 291.793 407.634ZM291.793 404.892C291.333 404.892 290.955 405.266 290.955 405.73C290.955 406.193 291.33 406.568 291.793 406.568C292.257 406.568 292.631 406.193 292.631 405.73C292.631 405.266 292.257 404.892 291.793 404.892Z" fill="white"/>
<path d="M275.566 393.824H274.496V396.409H275.566V393.824Z" fill="white"/>
<path d="M275.031 420.91C273.98 420.91 273.127 420.054 273.127 419.005C273.127 417.956 273.983 417.101 275.031 417.101C276.08 417.101 276.936 417.956 276.936 419.005C276.936 420.054 276.08 420.91 275.031 420.91ZM275.031 418.167C274.571 418.167 274.194 418.542 274.194 419.005C274.194 419.469 274.568 419.843 275.031 419.843C275.495 419.843 275.869 419.469 275.869 419.005C275.869 418.542 275.495 418.167 275.031 418.167Z" fill="white"/>
<path d="M275.566 415.05H274.496V417.635H275.566V415.05Z" fill="white"/>
<path d="M561.316 374.398L564.041 371.674H565.482C565.729 372.47 566.471 373.053 567.348 373.053C568.423 373.053 569.3 372.176 569.3 371.1C569.3 370.025 568.423 369.148 567.348 369.148C566.471 369.148 565.729 369.728 565.482 370.527H563.566L561.316 372.776V374.398ZM567.348 370.295C567.791 370.295 568.15 370.655 568.15 371.098C568.15 371.54 567.791 371.9 567.348 371.9C566.905 371.9 566.546 371.54 566.546 371.098C566.546 370.655 566.905 370.295 567.348 370.295Z" fill="white"/>
<path d="M569.528 375.707C568.651 375.707 567.908 376.286 567.662 377.086H561.312V378.233H567.662C567.908 379.029 568.651 379.611 569.528 379.611C570.603 379.611 571.48 378.735 571.48 377.659C571.48 376.584 570.603 375.707 569.528 375.707ZM569.528 378.461C569.085 378.461 568.726 378.102 568.726 377.659C568.726 377.216 569.085 376.857 569.528 376.857C569.97 376.857 570.33 377.216 570.33 377.659C570.33 378.102 569.97 378.461 569.528 378.461Z" fill="white"/>
<path d="M567.348 382.263C566.471 382.263 565.729 382.842 565.482 383.642H564.041L561.316 380.917V382.542L563.566 384.791H565.482C565.729 385.588 566.471 386.17 567.348 386.17C568.423 386.17 569.3 385.294 569.3 384.218C569.3 383.142 568.423 382.266 567.348 382.266V382.263ZM567.348 385.017C566.905 385.017 566.546 384.658 566.546 384.215C566.546 383.772 566.905 383.413 567.348 383.413C567.791 383.413 568.15 383.772 568.15 384.215C568.15 384.658 567.791 385.017 567.348 385.017Z" fill="white"/>
<path d="M538.816 372.776L536.566 370.527H534.65C534.403 369.731 533.661 369.148 532.784 369.148C531.709 369.148 530.832 370.025 530.832 371.1C530.832 372.176 531.709 373.053 532.784 373.053C533.661 373.053 534.403 372.473 534.65 371.674H536.091L538.816 374.398V372.776ZM533.586 371.1C533.586 371.543 533.227 371.903 532.784 371.903C532.341 371.903 531.982 371.543 531.982 371.1C531.982 370.658 532.341 370.298 532.784 370.298C533.227 370.298 533.586 370.658 533.586 371.1Z" fill="white"/>
<path d="M528.652 377.659C528.652 378.735 529.529 379.611 530.604 379.611C531.481 379.611 532.224 379.032 532.47 378.233H538.82V377.086H532.47C532.224 376.289 531.481 375.707 530.604 375.707C529.529 375.707 528.652 376.584 528.652 377.659ZM529.799 377.659C529.799 377.216 530.159 376.857 530.601 376.857C531.044 376.857 531.404 377.216 531.404 377.659C531.404 378.102 531.044 378.461 530.601 378.461C530.159 378.461 529.799 378.102 529.799 377.659Z" fill="white"/>
<path d="M530.832 384.215C530.832 385.291 531.709 386.167 532.784 386.167C533.661 386.167 534.403 385.588 534.65 384.788H536.566L538.816 382.539V380.914L536.091 383.639H534.65C534.403 382.842 533.661 382.26 532.784 382.26C531.709 382.26 530.832 383.137 530.832 384.212V384.215ZM531.979 384.215C531.979 383.772 532.338 383.413 532.781 383.413C533.224 383.413 533.583 383.772 533.583 384.215C533.583 384.658 533.224 385.017 532.781 385.017C532.338 385.017 531.979 384.658 531.979 384.215Z" fill="white"/>
<path d="M550.063 373.025C555.745 373.025 560.352 371.766 560.352 370.214C560.352 368.662 555.745 367.403 550.063 367.403C544.38 367.403 539.773 368.662 539.773 370.214C539.773 371.766 544.38 373.025 550.063 373.025Z" fill="white"/>
<path d="M543.506 384.677L542.163 384.861L542.056 384.356C541.937 383.794 541.878 383.221 541.878 382.653C541.878 382.243 541.911 381.827 541.976 381.414C541.016 381.105 540.282 380.746 539.777 380.336V383.144C539.777 384.05 541.352 384.858 543.794 385.372L543.509 384.68L543.506 384.677Z" fill="white"/>
<path d="M556.458 377.558C556.627 377.769 556.787 377.992 556.936 378.221L557.215 378.655L556.137 379.466L556.618 380.63L557.961 380.446L558 380.633C559.467 380.149 560.35 379.525 560.35 378.848V376.04C559.744 376.533 558.814 376.952 557.557 377.297C557.209 377.392 556.844 377.478 556.461 377.558H556.458Z" fill="white"/>
<path d="M550.064 373.857C547.244 373.857 544.582 373.554 542.57 373.004C541.313 372.662 540.38 372.24 539.777 371.747V374.555C539.777 375.52 541.56 376.37 544.276 376.878C544.686 376.468 545.137 376.103 545.633 375.782L546.067 375.503L546.878 376.581L547.58 376.293C547.345 376.213 547.176 375.99 547.176 375.725C547.176 375.393 547.443 375.125 547.776 375.125C547.823 375.125 547.868 375.131 547.912 375.14L547.859 374.757L548.364 374.65C548.929 374.531 549.499 374.472 550.066 374.472C550.634 374.472 551.219 374.534 551.793 374.659L552.298 374.769L552.244 375.137C552.28 375.131 552.319 375.125 552.357 375.125C552.69 375.125 552.957 375.396 552.957 375.725C552.957 375.987 552.788 376.21 552.553 376.293L553.272 376.593L554.086 375.515L554.52 375.797C555.008 376.112 555.453 376.474 555.857 376.878C558.573 376.373 560.356 375.52 560.356 374.555V371.747C559.75 372.24 558.82 372.659 557.563 373.004C555.551 373.554 552.889 373.857 550.069 373.857H550.064Z" fill="white"/>
<path d="M558.248 382.656C558.248 383.227 558.186 383.809 558.061 384.383L557.951 384.888L556.611 384.698L556.332 385.369C558.774 384.855 560.349 384.05 560.349 383.141V380.333C559.844 380.746 559.11 381.106 558.15 381.412C558.213 381.825 558.245 382.241 558.245 382.651L558.248 382.656Z" fill="white"/>
<path d="M543.667 377.558C543.283 377.478 542.918 377.392 542.57 377.297C541.313 376.955 540.38 376.533 539.777 376.04V378.848C539.777 379.528 540.66 380.149 542.13 380.636L542.175 380.423L543.515 380.613L543.999 379.448L542.921 378.631L543.203 378.197C543.349 377.974 543.503 377.76 543.667 377.555V377.558Z" fill="white"/>
<path d="M555.866 380.263L555.462 379.282L556.472 378.521C555.887 377.618 555.12 376.846 554.217 376.257L553.454 377.265L552.476 376.858L551.499 376.451L551.677 375.197C551.157 375.084 550.619 375.024 550.067 375.024C549.514 375.024 548.991 375.084 548.48 375.191L548.652 376.448L547.672 376.852L546.691 377.256L545.931 376.246C545.027 376.831 544.255 377.597 543.667 378.501L544.674 379.264L544.267 380.242L543.86 381.219L542.606 381.041C542.493 381.561 542.434 382.099 542.434 382.651C542.434 383.204 542.493 383.727 542.6 384.238L543.857 384.066L544.261 385.046L544.665 386.027L543.655 386.787C544.24 387.69 545.007 388.463 545.91 389.051L546.673 388.044L547.651 388.451L548.628 388.858L548.45 390.112C548.97 390.225 549.508 390.284 550.061 390.284C550.613 390.284 551.136 390.225 551.647 390.118L551.475 388.861L552.455 388.457L553.436 388.053L554.196 389.063C555.1 388.478 555.872 387.711 556.46 386.808L555.453 386.044L555.86 385.067L556.267 384.089L557.521 384.268C557.634 383.748 557.693 383.21 557.693 382.657C557.693 382.105 557.634 381.582 557.527 381.071L556.27 381.243L555.866 380.263ZM550.064 387.379C547.455 387.379 545.342 385.263 545.342 382.657C545.342 380.052 547.458 377.936 550.064 377.936C552.669 377.936 554.785 380.049 554.785 382.657C554.785 385.266 552.672 387.379 550.064 387.379Z" fill="white"/>
<path d="M552.708 383.27L553.745 383.415C553.846 382.928 553.849 382.417 553.745 381.912L552.705 382.054L552.533 381.635L552.361 381.217L553.199 380.587C552.916 380.156 552.551 379.796 552.138 379.523L551.505 380.358L551.086 380.186L550.667 380.013L550.813 378.976C550.325 378.875 549.814 378.872 549.309 378.976L549.452 380.016L549.033 380.189L548.614 380.361L547.984 379.523C547.553 379.805 547.194 380.171 546.92 380.584L547.755 381.217L547.583 381.635L547.411 382.054L546.374 381.909C546.273 382.396 546.27 382.907 546.374 383.412L547.414 383.27L547.586 383.689L547.758 384.107L546.92 384.737C547.203 385.168 547.568 385.528 547.981 385.801L548.614 384.966L549.03 385.138L549.449 385.311L549.303 386.348C549.791 386.449 550.302 386.452 550.807 386.348L550.664 385.308L551.083 385.136L551.502 384.963L552.132 385.801C552.563 385.519 552.922 385.153 553.196 384.74L552.361 384.107L552.533 383.692L552.705 383.273L552.708 383.27ZM550.064 384.185C549.223 384.185 548.54 383.501 548.54 382.661C548.54 381.82 549.223 381.136 550.064 381.136C550.905 381.136 551.588 381.82 551.588 382.661C551.588 383.501 550.905 384.185 550.064 384.185Z" fill="white"/>
<path d="M248.948 521.479C248.544 522.263 248.312 523.148 248.312 524.09C248.312 525.032 248.541 525.917 248.948 526.702V521.479Z" fill="white"/>
<path d="M262.96 516.127V503.88H259.104V513.248C260.577 513.94 261.887 514.927 262.96 516.127Z" fill="white"/>
<path d="M259.102 521.479V526.702C259.506 525.917 259.737 525.032 259.737 524.09C259.737 523.148 259.509 522.263 259.102 521.479Z" fill="white"/>
<path d="M252.098 518.716V528.963H255.954V518.716C255.351 518.499 254.703 518.38 254.026 518.38C253.349 518.38 252.701 518.499 252.098 518.716Z" fill="white"/>
<path d="M241.943 516.366H238.086V528.964H241.943V516.366Z" fill="white"/>
<path d="M269.964 494.869H266.107V528.963H269.964V494.869Z" fill="white"/>
<path d="M254.026 512.117C254.683 512.117 255.327 512.17 255.954 512.274V499.834H252.098V512.274C252.725 512.173 253.369 512.117 254.026 512.117Z" fill="white"/>
<path d="M248.948 513.249V508.353H245.092V516.131C246.164 514.928 247.475 513.944 248.948 513.252V513.249Z" fill="white"/>
<path d="M254.024 534.671C248.188 534.671 243.443 529.923 243.443 524.091C243.443 518.259 248.191 513.511 254.024 513.511C259.856 513.511 264.604 518.259 264.604 524.091C264.604 529.923 259.856 534.671 254.024 534.671ZM254.024 516.987C250.108 516.987 246.92 520.172 246.92 524.091C246.92 528.01 250.105 531.195 254.024 531.195C257.943 531.195 261.128 528.01 261.128 524.091C261.128 520.172 257.943 516.987 254.024 516.987Z" fill="white"/>
<path d="M562.354 242.682V245.537H571.297V242.682H562.354ZM570.191 244.583H567.654V243.632H570.191V244.583Z" fill="white"/>
<path d="M562.354 238.596V241.451H571.297V238.596H562.354ZM570.191 240.497H567.654V239.546H570.191V240.497Z" fill="white"/>
<path d="M562.354 234.514V237.369H571.297V234.514H562.354ZM570.191 236.415H567.654V235.464H570.191V236.415Z" fill="white"/>
<path d="M577.852 235.473L577.082 233.61L579.001 232.166C577.89 230.446 576.428 228.981 574.714 227.864L573.264 229.78L571.404 229.008L569.544 228.235L569.883 225.852C568.896 225.641 567.874 225.522 566.823 225.522C565.771 225.522 564.778 225.635 563.807 225.84L564.137 228.226L562.274 228.996L560.411 229.765L558.967 227.846C557.247 228.957 555.782 230.419 554.665 232.133L556.581 233.583L555.808 235.443L555.033 237.303L552.65 236.967C552.439 237.954 552.32 238.976 552.32 240.028C552.32 241.079 552.433 242.072 552.638 243.043L555.024 242.714L555.794 244.577L556.563 246.439L554.644 247.883C555.755 249.604 557.217 251.069 558.931 252.186L560.381 250.269L562.241 251.042L564.101 251.817L563.762 254.2C564.749 254.411 565.771 254.53 566.823 254.53C567.874 254.53 568.867 254.417 569.838 254.212L569.508 251.826L571.371 251.057L573.234 250.287L574.678 252.206C576.399 251.095 577.863 249.633 578.981 247.919L577.064 246.469L577.837 244.609L578.612 242.749L580.995 243.088C581.206 242.102 581.325 241.079 581.325 240.028C581.325 238.976 581.212 237.984 581.007 237.012L578.621 237.342L577.852 235.479V235.473ZM566.823 248.998C561.867 248.998 557.847 244.981 557.847 240.022C557.847 235.063 561.864 231.046 566.823 231.046C571.781 231.046 575.798 235.063 575.798 240.022C575.798 244.981 571.781 248.998 566.823 248.998Z" fill="white"/>
<path d="M578.386 229.326L577.367 228.304L580.677 224.994H587.594V226.438H581.277L578.386 229.326Z" fill="white"/>
<path d="M589.067 228.02C587.796 228.02 586.762 226.986 586.762 225.715C586.762 224.443 587.796 223.409 589.067 223.409C590.339 223.409 591.373 224.443 591.373 225.715C591.373 226.986 590.339 228.02 589.067 228.02ZM589.067 224.85C588.592 224.85 588.203 225.236 588.203 225.715C588.203 226.193 588.589 226.579 589.067 226.579C589.546 226.579 589.932 226.193 589.932 225.715C589.932 225.236 589.546 224.85 589.067 224.85Z" fill="white"/>
<path d="M555.118 229.326L552.23 226.438H545.91V224.994H552.827L556.137 228.304L555.118 229.326Z" fill="white"/>
<path d="M544.438 228.02C543.167 228.02 542.133 226.986 542.133 225.715C542.133 224.443 543.167 223.409 544.438 223.409C545.71 223.409 546.744 224.443 546.744 225.715C546.744 226.986 545.71 228.02 544.438 228.02ZM544.438 224.85C543.963 224.85 543.574 225.236 543.574 225.715C543.574 226.193 543.96 226.579 544.438 226.579C544.917 226.579 545.303 226.193 545.303 225.715C545.303 225.236 544.917 224.85 544.438 224.85Z" fill="white"/>
<path d="M587.594 255.053H580.677L577.367 251.743L578.386 250.721L581.277 253.609H587.594V255.053Z" fill="white"/>
<path d="M589.067 256.64C587.796 256.64 586.762 255.606 586.762 254.334C586.762 253.062 587.796 252.028 589.067 252.028C590.339 252.028 591.373 253.062 591.373 254.334C591.373 255.606 590.339 256.64 589.067 256.64ZM589.067 253.469C588.592 253.469 588.203 253.856 588.203 254.334C588.203 254.812 588.589 255.199 589.067 255.199C589.546 255.199 589.932 254.812 589.932 254.334C589.932 253.856 589.546 253.469 589.067 253.469Z" fill="white"/>
<path d="M552.827 255.053H545.91V253.609H552.23L555.118 250.721L556.137 251.743L552.827 255.053Z" fill="white"/>
<path d="M544.438 256.64C543.167 256.64 542.133 255.606 542.133 254.334C542.133 253.062 543.167 252.028 544.438 252.028C545.71 252.028 546.744 253.062 546.744 254.334C546.744 255.606 545.71 256.64 544.438 256.64ZM544.438 253.469C543.963 253.469 543.574 253.856 543.574 254.334C543.574 254.812 543.96 255.199 544.438 255.199C544.917 255.199 545.303 254.812 545.303 254.334C545.303 253.856 544.917 253.469 544.438 253.469Z" fill="white"/>
<path d="M589.067 242.331C587.796 242.331 586.762 241.297 586.762 240.025C586.762 238.754 587.796 237.72 589.067 237.72C590.339 237.72 591.373 238.754 591.373 240.025C591.373 241.297 590.339 242.331 589.067 242.331ZM589.067 239.161C588.592 239.161 588.203 239.547 588.203 240.025C588.203 240.504 588.589 240.89 589.067 240.89C589.546 240.89 589.932 240.504 589.932 240.025C589.932 239.547 589.546 239.161 589.067 239.161Z" fill="white"/>
<path d="M587.485 239.303H582.502V240.747H587.485V239.303Z" fill="white"/>
<path d="M566.753 220.014C565.481 220.014 564.447 218.98 564.447 217.708C564.447 216.436 565.481 215.402 566.753 215.402C568.025 215.402 569.058 216.436 569.058 217.708C569.058 218.98 568.025 220.014 566.753 220.014ZM566.753 216.843C566.278 216.843 565.888 217.23 565.888 217.708C565.888 218.186 566.275 218.573 566.753 218.573C567.231 218.573 567.617 218.186 567.617 217.708C567.617 217.23 567.231 216.843 566.753 216.843Z" fill="white"/>
<path d="M567.473 219.294H566.029V224.277H567.473V219.294Z" fill="white"/>
<path d="M544.438 242.331C543.167 242.331 542.133 241.297 542.133 240.025C542.133 238.754 543.167 237.72 544.438 237.72C545.71 237.72 546.744 238.754 546.744 240.025C546.744 241.297 545.71 242.331 544.438 242.331ZM544.438 239.161C543.963 239.161 543.574 239.547 543.574 240.025C543.574 240.504 543.96 240.89 544.438 240.89C544.917 240.89 545.303 240.504 545.303 240.025C545.303 239.547 544.917 239.161 544.438 239.161Z" fill="white"/>
<path d="M551.001 239.303H546.021V240.747H551.001V239.303Z" fill="white"/>
<path d="M566.753 264.643C565.481 264.643 564.447 263.61 564.447 262.338C564.447 261.066 565.481 260.032 566.753 260.032C568.025 260.032 569.058 261.066 569.058 262.338C569.058 263.61 568.025 264.643 566.753 264.643ZM566.753 261.473C566.278 261.473 565.888 261.859 565.888 262.338C565.888 262.816 566.275 263.202 566.753 263.202C567.231 263.202 567.617 262.816 567.617 262.338C567.617 261.859 567.231 261.473 566.753 261.473Z" fill="white"/>
<path d="M567.473 255.771H566.029V260.754H567.473V255.771Z" fill="white"/>
<path d="M268.102 211.715C268.102 219.695 274.573 226.166 282.556 226.166C285.753 226.166 288.701 225.117 291.092 223.356L298.191 229.868C299.64 231.199 301.893 231.101 303.224 229.651C303.854 228.968 304.166 228.104 304.166 227.242C304.166 226.276 303.776 225.317 303.013 224.615L295.635 217.841C296.512 215.975 297.014 213.904 297.014 211.709C297.014 203.725 290.543 197.254 282.559 197.254C274.576 197.254 268.105 203.722 268.105 211.709L268.102 211.715ZM293.05 211.715C293.05 217.508 288.35 222.206 282.553 222.206C276.757 222.206 272.059 217.508 272.059 211.715C272.059 205.921 276.76 201.217 282.553 201.217C288.347 201.217 293.05 205.918 293.05 211.715Z" fill="white"/>
<path d="M287.457 211.714C287.457 214.418 285.264 216.61 282.558 216.61C279.851 216.61 277.658 214.418 277.658 211.714C277.658 209.01 279.851 206.814 282.558 206.814C285.264 206.814 287.457 209.007 287.457 211.714Z" fill="white"/>
<path d="M280.322 233.074C278.967 232.934 277.619 232.664 276.32 232.269L277.018 229.963C278.171 230.314 279.366 230.555 280.569 230.676L280.322 233.074ZM285.213 233.027L284.919 230.635C286.119 230.486 287.307 230.222 288.454 229.85L289.2 232.144C287.908 232.563 286.568 232.86 285.216 233.03L285.213 233.027ZM271.825 230.32C270.648 229.639 269.531 228.843 268.5 227.952L270.078 226.131C270.993 226.924 271.985 227.631 273.031 228.234L271.825 230.32ZM265.187 224.351C264.385 223.248 263.684 222.069 263.107 220.839L265.288 219.814C265.802 220.904 266.423 221.953 267.136 222.931L265.187 224.351ZM261.547 216.198C261.265 214.873 261.111 213.509 261.084 212.142L263.494 212.095C263.517 213.307 263.657 214.519 263.907 215.696L261.547 216.198ZM303.649 215.782L301.281 215.327C301.507 214.148 301.623 212.933 301.623 211.72V211.676H304.032V211.72C304.032 213.087 303.904 214.451 303.649 215.782ZM263.901 207.769L261.542 207.273C261.821 205.941 262.234 204.628 262.763 203.374L264.985 204.313C264.516 205.424 264.15 206.589 263.904 207.769H263.901ZM301.12 207.359C300.847 206.182 300.455 205.029 299.962 203.927L302.16 202.941C302.716 204.183 303.156 205.484 303.468 206.809L301.12 207.359ZM267.118 200.528L265.169 199.111C265.969 198.011 266.878 196.98 267.87 196.05L269.519 197.809C268.637 198.635 267.831 199.55 267.121 200.528H267.118ZM297.742 200.192C297.011 199.23 296.185 198.332 295.285 197.527L296.895 195.733C297.909 196.642 298.839 197.652 299.662 198.733L297.742 200.192ZM273.001 195.213L271.792 193.127C272.969 192.443 274.219 191.87 275.503 191.424L276.293 193.7C275.155 194.095 274.047 194.603 273.001 195.213ZM291.743 195.008C290.686 194.425 289.566 193.941 288.419 193.57L289.159 191.276C290.454 191.695 291.714 192.238 292.905 192.898L291.74 195.011L291.743 195.008ZM280.533 192.755L280.281 190.358C281.627 190.215 283.011 190.2 284.36 190.313L284.161 192.717C282.964 192.616 281.731 192.631 280.536 192.755H280.533Z" fill="white"/>
<path d="M399.213 223.602V229.716H416.532V223.602H399.213ZM404.115 227.613C403.589 227.613 403.162 227.185 403.162 226.659C403.162 226.133 403.589 225.705 404.115 225.705C404.641 225.705 405.069 226.133 405.069 226.659C405.069 227.185 404.641 227.613 404.115 227.613ZM407.871 227.613C407.345 227.613 406.917 227.185 406.917 226.659C406.917 226.133 407.345 225.705 407.871 225.705C408.397 225.705 408.825 226.133 408.825 226.659C408.825 227.185 408.397 227.613 407.871 227.613ZM411.626 227.613C411.101 227.613 410.673 227.185 410.673 226.659C410.673 226.133 411.101 225.705 411.626 225.705C412.152 225.705 412.58 226.133 412.58 226.659C412.58 227.185 412.152 227.613 411.626 227.613Z" fill="white"/>
<path d="M399.213 230.845V236.959H416.532V230.845H399.213ZM404.115 234.856C403.589 234.856 403.162 234.428 403.162 233.902C403.162 233.376 403.589 232.948 404.115 232.948C404.641 232.948 405.069 233.376 405.069 233.902C405.069 234.428 404.641 234.856 404.115 234.856ZM407.871 234.856C407.345 234.856 406.917 234.428 406.917 233.902C406.917 233.376 407.345 232.948 407.871 232.948C408.397 232.948 408.825 233.376 408.825 233.902C408.825 234.428 408.397 234.856 407.871 234.856ZM411.626 234.856C411.101 234.856 410.673 234.428 410.673 233.902C410.673 233.376 411.101 232.948 411.626 232.948C412.152 232.948 412.58 233.376 412.58 233.902C412.58 234.428 412.152 234.856 411.626 234.856Z" fill="white"/>
<path d="M399.213 238.089V244.204H416.532V238.089H399.213ZM404.115 242.1C403.589 242.1 403.162 241.672 403.162 241.146C403.162 240.62 403.589 240.192 404.115 240.192C404.641 240.192 405.069 240.62 405.069 241.146C405.069 241.672 404.641 242.1 404.115 242.1ZM407.871 242.1C407.345 242.1 406.917 241.672 406.917 241.146C406.917 240.62 407.345 240.192 407.871 240.192C408.397 240.192 408.825 240.62 408.825 241.146C408.825 241.672 408.397 242.1 407.871 242.1ZM411.626 242.1C411.101 242.1 410.673 241.672 410.673 241.146C410.673 240.62 411.101 240.192 411.626 240.192C412.152 240.192 412.58 240.62 412.58 241.146C412.58 241.672 412.152 242.1 411.626 242.1Z" fill="white"/>
<path d="M417.707 245.272H398.041V247.471H417.707V245.272Z" fill="white"/>
<path d="M417.611 234.746C418.054 234.746 418.414 235.106 418.414 235.549C418.414 235.991 418.054 236.351 417.611 236.351V238.119H424.891V232.979H417.611V234.746ZM420.77 234.746C421.212 234.746 421.572 235.106 421.572 235.549C421.572 235.991 421.212 236.351 420.77 236.351C420.327 236.351 419.967 235.991 419.967 235.549C419.967 235.106 420.327 234.746 420.77 234.746Z" fill="white"/>
<path d="M417.611 240.834C418.054 240.834 418.414 241.194 418.414 241.636C418.414 242.079 418.054 242.439 417.611 242.439V244.207H424.891V239.066H417.611V240.834ZM420.77 240.834C421.212 240.834 421.572 241.194 421.572 241.636C421.572 242.079 421.212 242.439 420.77 242.439C420.327 242.439 419.967 242.079 419.967 241.636C419.967 241.194 420.327 240.834 420.77 240.834Z" fill="white"/>
<path d="M417.611 226.888V228.656C418.054 228.656 418.414 229.015 418.414 229.458C418.414 229.9 418.054 230.26 417.611 230.26V232.028H424.891V226.888H417.611ZM420.77 230.26C420.327 230.26 419.967 229.9 419.967 229.458C419.967 229.015 420.327 228.656 420.77 228.656C421.212 228.656 421.572 229.015 421.572 229.458C421.572 229.9 421.212 230.26 420.77 230.26Z" fill="white"/>
<path d="M426.063 245.273H415.602V247.472H426.063V245.273Z" fill="white"/>
<path d="M398.135 232.976H390.855V238.116H398.135V236.348C397.692 236.348 397.333 235.988 397.333 235.546C397.333 235.103 397.692 234.743 398.135 234.743V232.976ZM395.779 235.546C395.779 235.988 395.419 236.348 394.976 236.348C394.534 236.348 394.174 235.988 394.174 235.546C394.174 235.103 394.534 234.743 394.976 234.743C395.419 234.743 395.779 235.103 395.779 235.546Z" fill="white"/>
<path d="M398.135 239.066H390.855V244.207H398.135V242.439C397.692 242.439 397.333 242.079 397.333 241.636C397.333 241.194 397.692 240.834 398.135 240.834V239.066ZM395.779 241.636C395.779 242.079 395.419 242.439 394.976 242.439C394.534 242.439 394.174 242.079 394.174 241.636C394.174 241.194 394.534 240.834 394.976 240.834C395.419 240.834 395.779 241.194 395.779 241.636Z" fill="white"/>
<path d="M390.855 226.888V232.028H398.135V230.26C397.692 230.26 397.333 229.9 397.333 229.458C397.333 229.015 397.692 228.656 398.135 228.656V226.888H390.855ZM394.177 229.458C394.177 229.015 394.537 228.656 394.979 228.656C395.422 228.656 395.782 229.015 395.782 229.458C395.782 229.9 395.422 230.26 394.979 230.26C394.537 230.26 394.177 229.9 394.177 229.458Z" fill="white"/>
<path d="M400.143 245.273H389.682V247.472H400.143V245.273Z" fill="white"/>
<path d="M410.677 253.676C410.677 255.203 409.438 256.439 407.914 256.439C406.389 256.439 405.15 255.2 405.15 253.676C405.15 252.152 406.389 250.913 407.914 250.913C409.438 250.913 410.677 252.152 410.677 253.676Z" fill="white"/>
<path d="M413.587 254.38H407.912V252.972H413.587C415.42 252.972 416.909 251.481 416.909 249.65V246.37H418.317V249.65C418.317 252.259 416.196 254.38 413.587 254.38Z" fill="white"/>
<path d="M408.615 254.38H402.236C399.627 254.38 397.506 252.259 397.506 249.65V246.37H398.914V249.65C398.914 251.483 400.406 252.972 402.236 252.972H407.207V246.37H408.615V254.38Z" fill="white"/>
</g>
</g>
<defs>
<filter id="filter0_d_1483_4593" x="0.45133" y="0.274338" width="827.097" height="777.982" filterUnits="userSpaceOnUse" color-interpolation-filters="sRGB">
<feFlood flood-opacity="0" result="BackgroundImageFix"/>
<feColorMatrix in="SourceAlpha" type="matrix" values="0 0 0 0 0 0 0 0 0 0 0 0 0 0 0 0 0 0 127 0" result="hardAlpha"/>
<feMorphology radius="1.9646" operator="dilate" in="SourceAlpha" result="effect1_dropShadow_1483_4593"/>
<feOffset dy="9.82301"/>
<feGaussianBlur stdDeviation="39.292"/>
<feComposite in2="hardAlpha" operator="out"/>
<feColorMatrix type="matrix" values="0 0 0 0 0 0 0 0 0 0.105882 0 0 0 0 0.419608 0 0 0 0.08 0"/>
<feBlend mode="normal" in2="BackgroundImageFix" result="effect1_dropShadow_1483_4593"/>
<feBlend mode="normal" in="SourceGraphic" in2="effect1_dropShadow_1483_4593" result="shape"/>
</filter>
<linearGradient id="paint0_linear_1483_4593" x1="387.525" y1="380.069" x2="409.256" y2="380.069" gradientUnits="userSpaceOnUse">
<stop stop-color="#0000FF"/>
<stop offset="0.54" stop-color="#8F00FF"/>
<stop offset="1" stop-color="#FF1494"/>
</linearGradient>
<linearGradient id="paint1_linear_1483_4593" x1="397.826" y1="380.07" x2="435.777" y2="380.07" gradientUnits="userSpaceOnUse">
<stop stop-color="#0000FF"/>
<stop offset="0.54" stop-color="#8F00FF"/>
<stop offset="1" stop-color="#FF1494"/>
</linearGradient>
<linearGradient id="paint2_linear_1483_4593" x1="406.811" y1="366.613" x2="418.106" y2="366.613" gradientUnits="userSpaceOnUse">
<stop stop-color="#0000FF"/>
<stop offset="0.54" stop-color="#8F00FF"/>
<stop offset="1" stop-color="#FF1494"/>
</linearGradient>
<clipPath id="clip0_1483_4593">
<rect width="518.59" height="518.115" fill="white" transform="translate(154.41 120.848)"/>
</clipPath>
</defs>
</svg>
