<svg width="941" height="486" viewBox="0 0 941 486" fill="none" xmlns="http://www.w3.org/2000/svg">
<path d="M60.688 80.416C60.688 79.328 60.9333 78.352 61.424 77.488C61.9147 76.6133 62.5813 75.9307 63.424 75.44C64.2773 74.9493 65.2213 74.704 66.256 74.704C67.472 74.704 68.5333 74.9973 69.44 75.584C70.3467 76.1707 71.008 77.0027 71.424 78.08H69.68C69.3707 77.408 68.9227 76.8907 68.336 76.528C67.76 76.1653 67.0667 75.984 66.256 75.984C65.4773 75.984 64.7787 76.1653 64.16 76.528C63.5413 76.8907 63.056 77.408 62.704 78.08C62.352 78.7413 62.176 79.52 62.176 80.416C62.176 81.3013 62.352 82.08 62.704 82.752C63.056 83.4133 63.5413 83.9253 64.16 84.288C64.7787 84.6507 65.4773 84.832 66.256 84.832C67.0667 84.832 67.76 84.656 68.336 84.304C68.9227 83.9413 69.3707 83.424 69.68 82.752H71.424C71.008 83.8187 70.3467 84.6453 69.44 85.232C68.5333 85.808 67.472 86.096 66.256 86.096C65.2213 86.096 64.2773 85.856 63.424 85.376C62.5813 84.8853 61.9147 84.208 61.424 83.344C60.9333 82.48 60.688 81.504 60.688 80.416ZM78.4154 86.144C77.594 86.144 76.8474 85.9573 76.1754 85.584C75.514 85.2107 74.9914 84.6827 74.6074 84C74.234 83.3067 74.0474 82.5067 74.0474 81.6C74.0474 80.704 74.2394 79.9147 74.6234 79.232C75.018 78.5387 75.5514 78.0107 76.2234 77.648C76.8954 77.2747 77.6474 77.088 78.4794 77.088C79.3114 77.088 80.0634 77.2747 80.7354 77.648C81.4074 78.0107 81.9354 78.5333 82.3194 79.216C82.714 79.8987 82.9114 80.6933 82.9114 81.6C82.9114 82.5067 82.7087 83.3067 82.3034 84C81.9087 84.6827 81.37 85.2107 80.6874 85.584C80.0047 85.9573 79.2474 86.144 78.4154 86.144ZM78.4154 84.864C78.938 84.864 79.4287 84.7413 79.8874 84.496C80.346 84.2507 80.714 83.8827 80.9914 83.392C81.2794 82.9013 81.4234 82.304 81.4234 81.6C81.4234 80.896 81.2847 80.2987 81.0074 79.808C80.73 79.3173 80.3674 78.9547 79.9194 78.72C79.4714 78.4747 78.986 78.352 78.4634 78.352C77.93 78.352 77.4394 78.4747 76.9914 78.72C76.554 78.9547 76.202 79.3173 75.9354 79.808C75.6687 80.2987 75.5354 80.896 75.5354 81.6C75.5354 82.3147 75.6634 82.9173 75.9194 83.408C76.186 83.8987 76.538 84.2667 76.9754 84.512C77.4127 84.7467 77.8927 84.864 78.4154 84.864ZM90.0978 77.072C91.1644 77.072 92.0284 77.3973 92.6898 78.048C93.3511 78.688 93.6818 79.616 93.6818 80.832V86H92.2418V81.04C92.2418 80.1653 92.0231 79.4987 91.5858 79.04C91.1484 78.5707 90.5511 78.336 89.7938 78.336C89.0258 78.336 88.4124 78.576 87.9538 79.056C87.5058 79.536 87.2818 80.2347 87.2818 81.152V86H85.8258V77.232H87.2818V78.48C87.5698 78.032 87.9591 77.6853 88.4498 77.44C88.9511 77.1947 89.5004 77.072 90.0978 77.072ZM100.324 84.656L103.044 77.232H104.596L101.156 86H99.4601L96.0201 77.232H97.5881L100.324 84.656ZM115.029 81.28C115.029 81.5573 115.013 81.8507 114.981 82.16H107.973C108.026 83.024 108.32 83.7013 108.853 84.192C109.397 84.672 110.053 84.912 110.821 84.912C111.45 84.912 111.973 84.768 112.389 84.48C112.816 84.1813 113.114 83.7867 113.285 83.296H114.853C114.618 84.1387 114.149 84.8267 113.445 85.36C112.741 85.8827 111.866 86.144 110.821 86.144C109.989 86.144 109.242 85.9573 108.581 85.584C107.93 85.2107 107.418 84.6827 107.045 84C106.672 83.3067 106.485 82.5067 106.485 81.6C106.485 80.6933 106.666 79.8987 107.029 79.216C107.392 78.5333 107.898 78.0107 108.549 77.648C109.21 77.2747 109.968 77.088 110.821 77.088C111.653 77.088 112.389 77.2693 113.029 77.632C113.669 77.9947 114.16 78.496 114.501 79.136C114.853 79.7653 115.029 80.48 115.029 81.28ZM113.525 80.976C113.525 80.4213 113.402 79.9467 113.157 79.552C112.912 79.1467 112.576 78.8427 112.149 78.64C111.733 78.4267 111.269 78.32 110.757 78.32C110.021 78.32 109.392 78.5547 108.869 79.024C108.357 79.4933 108.064 80.144 107.989 80.976H113.525ZM119.407 78.656C119.663 78.1547 120.025 77.7653 120.495 77.488C120.975 77.2107 121.556 77.072 122.239 77.072V78.576H121.855C120.223 78.576 119.407 79.4613 119.407 81.232V86H117.951V77.232H119.407V78.656ZM128.024 86.144C127.352 86.144 126.749 86.032 126.216 85.808C125.682 85.5733 125.261 85.2533 124.952 84.848C124.642 84.432 124.472 83.9573 124.44 83.424H125.944C125.986 83.8613 126.189 84.2187 126.552 84.496C126.925 84.7733 127.41 84.912 128.008 84.912C128.562 84.912 129 84.7893 129.32 84.544C129.64 84.2987 129.8 83.9893 129.8 83.616C129.8 83.232 129.629 82.9493 129.288 82.768C128.946 82.576 128.418 82.3893 127.704 82.208C127.053 82.0373 126.52 81.8667 126.104 81.696C125.698 81.5147 125.346 81.2533 125.048 80.912C124.76 80.56 124.616 80.1013 124.616 79.536C124.616 79.088 124.749 78.6773 125.016 78.304C125.282 77.9307 125.661 77.6373 126.152 77.424C126.642 77.2 127.202 77.088 127.832 77.088C128.802 77.088 129.586 77.3333 130.184 77.824C130.781 78.3147 131.101 78.9867 131.144 79.84H129.688C129.656 79.3813 129.469 79.0133 129.128 78.736C128.797 78.4587 128.349 78.32 127.784 78.32C127.261 78.32 126.845 78.432 126.536 78.656C126.226 78.88 126.072 79.1733 126.072 79.536C126.072 79.824 126.162 80.064 126.344 80.256C126.536 80.4373 126.77 80.5867 127.048 80.704C127.336 80.8107 127.73 80.9333 128.232 81.072C128.861 81.2427 129.373 81.4133 129.768 81.584C130.162 81.744 130.498 81.9893 130.776 82.32C131.064 82.6507 131.213 83.0827 131.224 83.616C131.224 84.096 131.09 84.528 130.824 84.912C130.557 85.296 130.178 85.6 129.688 85.824C129.208 86.0373 128.653 86.144 128.024 86.144ZM135.031 75.808C134.754 75.808 134.519 75.712 134.327 75.52C134.135 75.328 134.039 75.0933 134.039 74.816C134.039 74.5387 134.135 74.304 134.327 74.112C134.519 73.92 134.754 73.824 135.031 73.824C135.298 73.824 135.522 73.92 135.703 74.112C135.895 74.304 135.991 74.5387 135.991 74.816C135.991 75.0933 135.895 75.328 135.703 75.52C135.522 75.712 135.298 75.808 135.031 75.808ZM135.735 77.232V86H134.279V77.232H135.735ZM143.04 86.144C142.219 86.144 141.472 85.9573 140.8 85.584C140.139 85.2107 139.616 84.6827 139.232 84C138.859 83.3067 138.672 82.5067 138.672 81.6C138.672 80.704 138.864 79.9147 139.248 79.232C139.643 78.5387 140.176 78.0107 140.848 77.648C141.52 77.2747 142.272 77.088 143.104 77.088C143.936 77.088 144.688 77.2747 145.36 77.648C146.032 78.0107 146.56 78.5333 146.944 79.216C147.339 79.8987 147.536 80.6933 147.536 81.6C147.536 82.5067 147.334 83.3067 146.928 84C146.534 84.6827 145.995 85.2107 145.312 85.584C144.63 85.9573 143.872 86.144 143.04 86.144ZM143.04 84.864C143.563 84.864 144.054 84.7413 144.512 84.496C144.971 84.2507 145.339 83.8827 145.616 83.392C145.904 82.9013 146.048 82.304 146.048 81.6C146.048 80.896 145.91 80.2987 145.632 79.808C145.355 79.3173 144.992 78.9547 144.544 78.72C144.096 78.4747 143.611 78.352 143.088 78.352C142.555 78.352 142.064 78.4747 141.616 78.72C141.179 78.9547 140.827 79.3173 140.56 79.808C140.294 80.2987 140.16 80.896 140.16 81.6C140.16 82.3147 140.288 82.9173 140.544 83.408C140.811 83.8987 141.163 84.2667 141.6 84.512C142.038 84.7467 142.518 84.864 143.04 84.864ZM154.723 77.072C155.789 77.072 156.653 77.3973 157.315 78.048C157.976 78.688 158.307 79.616 158.307 80.832V86H156.867V81.04C156.867 80.1653 156.648 79.4987 156.211 79.04C155.773 78.5707 155.176 78.336 154.419 78.336C153.651 78.336 153.037 78.576 152.579 79.056C152.131 79.536 151.907 80.2347 151.907 81.152V86H150.451V77.232H151.907V78.48C152.195 78.032 152.584 77.6853 153.075 77.44C153.576 77.1947 154.125 77.072 154.723 77.072ZM168.407 78.656C168.663 78.1547 169.025 77.7653 169.495 77.488C169.975 77.2107 170.556 77.072 171.239 77.072V78.576H170.855C169.223 78.576 168.407 79.4613 168.407 81.232V86H166.951V77.232H168.407V78.656ZM173.376 81.584C173.376 80.688 173.557 79.904 173.92 79.232C174.282 78.5493 174.778 78.0213 175.408 77.648C176.048 77.2747 176.757 77.088 177.536 77.088C178.304 77.088 178.97 77.2533 179.536 77.584C180.101 77.9147 180.522 78.3307 180.8 78.832V77.232H182.272V86H180.8V84.368C180.512 84.88 180.08 85.3067 179.504 85.648C178.938 85.9787 178.277 86.144 177.52 86.144C176.741 86.144 176.037 85.952 175.408 85.568C174.778 85.184 174.282 84.6453 173.92 83.952C173.557 83.2587 173.376 82.4693 173.376 81.584ZM180.8 81.6C180.8 80.9387 180.666 80.3627 180.4 79.872C180.133 79.3813 179.77 79.008 179.312 78.752C178.864 78.4853 178.368 78.352 177.824 78.352C177.28 78.352 176.784 78.48 176.336 78.736C175.888 78.992 175.53 79.3653 175.264 79.856C174.997 80.3467 174.864 80.9227 174.864 81.584C174.864 82.256 174.997 82.8427 175.264 83.344C175.53 83.8347 175.888 84.2133 176.336 84.48C176.784 84.736 177.28 84.864 177.824 84.864C178.368 84.864 178.864 84.736 179.312 84.48C179.77 84.2133 180.133 83.8347 180.4 83.344C180.666 82.8427 180.8 82.2613 180.8 81.6ZM187.508 78.432V83.6C187.508 84.0267 187.599 84.3307 187.78 84.512C187.961 84.6827 188.276 84.768 188.724 84.768H189.796V86H188.484C187.673 86 187.065 85.8133 186.66 85.44C186.255 85.0667 186.052 84.4533 186.052 83.6V78.432H184.916V77.232H186.052V75.024H187.508V77.232H189.796V78.432H187.508ZM200.56 81.28C200.56 81.5573 200.544 81.8507 200.512 82.16H193.504C193.557 83.024 193.851 83.7013 194.384 84.192C194.928 84.672 195.584 84.912 196.352 84.912C196.981 84.912 197.504 84.768 197.92 84.48C198.347 84.1813 198.645 83.7867 198.816 83.296H200.384C200.149 84.1387 199.68 84.8267 198.976 85.36C198.272 85.8827 197.397 86.144 196.352 86.144C195.52 86.144 194.773 85.9573 194.112 85.584C193.461 85.2107 192.949 84.6827 192.576 84C192.203 83.3067 192.016 82.5067 192.016 81.6C192.016 80.6933 192.197 79.8987 192.56 79.216C192.923 78.5333 193.429 78.0107 194.08 77.648C194.741 77.2747 195.499 77.088 196.352 77.088C197.184 77.088 197.92 77.2693 198.56 77.632C199.2 77.9947 199.691 78.496 200.032 79.136C200.384 79.7653 200.56 80.48 200.56 81.28ZM199.056 80.976C199.056 80.4213 198.933 79.9467 198.688 79.552C198.443 79.1467 198.107 78.8427 197.68 78.64C197.264 78.4267 196.8 78.32 196.288 78.32C195.552 78.32 194.923 78.5547 194.4 79.024C193.888 79.4933 193.595 80.144 193.52 80.976H199.056ZM215.628 75.568L211.18 86H209.708L214.22 75.712H208.044V74.464H215.628V75.568ZM218.946 86.096C218.669 86.096 218.434 86 218.242 85.808C218.05 85.616 217.954 85.3813 217.954 85.104C217.954 84.8267 218.05 84.592 218.242 84.4C218.434 84.208 218.669 84.112 218.946 84.112C219.213 84.112 219.437 84.208 219.618 84.4C219.81 84.592 219.906 84.8267 219.906 85.104C219.906 85.3813 219.81 85.616 219.618 85.808C219.437 86 219.213 86.096 218.946 86.096ZM229.721 75.568L225.273 86H223.801L228.313 75.712H222.137V74.464H229.721V75.568ZM234.448 79.984C233.85 79.7493 233.392 79.408 233.072 78.96C232.752 78.512 232.592 77.968 232.592 77.328C232.592 76.752 232.736 76.2347 233.024 75.776C233.312 75.3067 233.738 74.9387 234.304 74.672C234.88 74.3947 235.573 74.256 236.384 74.256C237.194 74.256 237.882 74.3947 238.448 74.672C239.024 74.9387 239.456 75.3067 239.744 75.776C240.042 76.2347 240.192 76.752 240.192 77.328C240.192 77.9467 240.026 78.4907 239.696 78.96C239.365 79.4187 238.912 79.76 238.336 79.984C238.997 80.1867 239.52 80.544 239.904 81.056C240.298 81.5573 240.496 82.1653 240.496 82.88C240.496 83.5733 240.325 84.1813 239.984 84.704C239.642 85.216 239.157 85.616 238.528 85.904C237.909 86.1813 237.194 86.32 236.384 86.32C235.573 86.32 234.858 86.1813 234.24 85.904C233.632 85.616 233.157 85.216 232.816 84.704C232.474 84.1813 232.304 83.5733 232.304 82.88C232.304 82.1653 232.496 81.552 232.88 81.04C233.264 80.528 233.786 80.176 234.448 79.984ZM238.784 77.504C238.784 76.8533 238.57 76.352 238.144 76C237.717 75.648 237.13 75.472 236.384 75.472C235.648 75.472 235.066 75.648 234.64 76C234.213 76.352 234 76.8587 234 77.52C234 78.1173 234.218 78.5973 234.656 78.96C235.104 79.3227 235.68 79.504 236.384 79.504C237.098 79.504 237.674 79.3227 238.112 78.96C238.56 78.5867 238.784 78.1013 238.784 77.504ZM236.384 80.624C235.594 80.624 234.949 80.8107 234.448 81.184C233.946 81.5467 233.696 82.096 233.696 82.832C233.696 83.5147 233.936 84.064 234.416 84.48C234.906 84.896 235.562 85.104 236.384 85.104C237.205 85.104 237.856 84.896 238.336 84.48C238.816 84.064 239.056 83.5147 239.056 82.832C239.056 82.1173 238.81 81.5733 238.32 81.2C237.829 80.816 237.184 80.624 236.384 80.624ZM243.11 77.04C243.11 76.3147 243.328 75.7387 243.766 75.312C244.203 74.8747 244.763 74.656 245.446 74.656C246.128 74.656 246.688 74.8747 247.126 75.312C247.563 75.7387 247.782 76.3147 247.782 77.04C247.782 77.776 247.563 78.3627 247.126 78.8C246.688 79.2267 246.128 79.44 245.446 79.44C244.763 79.44 244.203 79.2267 243.766 78.8C243.328 78.3627 243.11 77.776 243.11 77.04ZM252.454 74.832L245.974 86H244.534L251.014 74.832H252.454ZM245.446 75.552C245.083 75.552 244.795 75.68 244.582 75.936C244.379 76.1813 244.278 76.5493 244.278 77.04C244.278 77.5307 244.379 77.904 244.582 78.16C244.795 78.416 245.083 78.544 245.446 78.544C245.808 78.544 246.096 78.416 246.31 78.16C246.523 77.8933 246.63 77.52 246.63 77.04C246.63 76.5493 246.523 76.1813 246.31 75.936C246.096 75.68 245.808 75.552 245.446 75.552ZM249.238 83.792C249.238 83.056 249.456 82.4747 249.894 82.048C250.331 81.6107 250.891 81.392 251.574 81.392C252.256 81.392 252.811 81.6107 253.238 82.048C253.675 82.4747 253.894 83.056 253.894 83.792C253.894 84.5173 253.675 85.0987 253.238 85.536C252.811 85.9733 252.256 86.192 251.574 86.192C250.891 86.192 250.331 85.9787 249.894 85.552C249.456 85.1147 249.238 84.528 249.238 83.792ZM251.558 82.304C251.195 82.304 250.907 82.432 250.694 82.688C250.48 82.9333 250.374 83.3013 250.374 83.792C250.374 84.272 250.48 84.64 250.694 84.896C250.907 85.1413 251.195 85.264 251.558 85.264C251.92 85.264 252.208 85.1413 252.422 84.896C252.635 84.64 252.742 84.272 252.742 83.792C252.742 83.3013 252.635 82.9333 252.422 82.688C252.208 82.432 251.92 82.304 251.558 82.304Z" fill="#282636"/>
<path d="M266.688 249.416C266.688 248.328 266.933 247.352 267.424 246.488C267.915 245.613 268.581 244.931 269.424 244.44C270.277 243.949 271.221 243.704 272.256 243.704C273.472 243.704 274.533 243.997 275.44 244.584C276.347 245.171 277.008 246.003 277.424 247.08H275.68C275.371 246.408 274.923 245.891 274.336 245.528C273.76 245.165 273.067 244.984 272.256 244.984C271.477 244.984 270.779 245.165 270.16 245.528C269.541 245.891 269.056 246.408 268.704 247.08C268.352 247.741 268.176 248.52 268.176 249.416C268.176 250.301 268.352 251.08 268.704 251.752C269.056 252.413 269.541 252.925 270.16 253.288C270.779 253.651 271.477 253.832 272.256 253.832C273.067 253.832 273.76 253.656 274.336 253.304C274.923 252.941 275.371 252.424 275.68 251.752H277.424C277.008 252.819 276.347 253.645 275.44 254.232C274.533 254.808 273.472 255.096 272.256 255.096C271.221 255.096 270.277 254.856 269.424 254.376C268.581 253.885 267.915 253.208 267.424 252.344C266.933 251.48 266.688 250.504 266.688 249.416ZM282.047 243.16V255H280.591V243.16H282.047ZM286.281 244.808C286.004 244.808 285.769 244.712 285.577 244.52C285.385 244.328 285.289 244.093 285.289 243.816C285.289 243.539 285.385 243.304 285.577 243.112C285.769 242.92 286.004 242.824 286.281 242.824C286.548 242.824 286.772 242.92 286.953 243.112C287.145 243.304 287.241 243.539 287.241 243.816C287.241 244.093 287.145 244.328 286.953 244.52C286.772 244.712 286.548 244.808 286.281 244.808ZM286.985 246.232V255H285.529V246.232H286.985ZM289.922 250.6C289.922 249.693 290.104 248.904 290.466 248.232C290.829 247.549 291.33 247.021 291.97 246.648C292.621 246.275 293.362 246.088 294.194 246.088C295.272 246.088 296.157 246.349 296.85 246.872C297.554 247.395 298.018 248.12 298.242 249.048H296.674C296.525 248.515 296.232 248.093 295.794 247.784C295.368 247.475 294.834 247.32 294.194 247.32C293.362 247.32 292.69 247.608 292.178 248.184C291.666 248.749 291.41 249.555 291.41 250.6C291.41 251.656 291.666 252.472 292.178 253.048C292.69 253.624 293.362 253.912 294.194 253.912C294.834 253.912 295.368 253.763 295.794 253.464C296.221 253.165 296.514 252.739 296.674 252.184H298.242C298.008 253.08 297.538 253.8 296.834 254.344C296.13 254.877 295.25 255.144 294.194 255.144C293.362 255.144 292.621 254.957 291.97 254.584C291.33 254.211 290.829 253.683 290.466 253C290.104 252.317 289.922 251.517 289.922 250.6ZM306.081 255L302.641 251.128V255H301.185V243.16H302.641V250.12L306.017 246.232H308.049L303.921 250.6L308.065 255H306.081ZM317.141 247.656C317.397 247.155 317.76 246.765 318.229 246.488C318.709 246.211 319.29 246.072 319.973 246.072V247.576H319.589C317.957 247.576 317.141 248.461 317.141 250.232V255H315.685V246.232H317.141V247.656ZM322.11 250.584C322.11 249.688 322.291 248.904 322.654 248.232C323.017 247.549 323.513 247.021 324.142 246.648C324.782 246.275 325.491 246.088 326.27 246.088C327.038 246.088 327.705 246.253 328.27 246.584C328.835 246.915 329.257 247.331 329.534 247.832V246.232H331.006V255H329.534V253.368C329.246 253.88 328.814 254.307 328.238 254.648C327.673 254.979 327.011 255.144 326.254 255.144C325.475 255.144 324.771 254.952 324.142 254.568C323.513 254.184 323.017 253.645 322.654 252.952C322.291 252.259 322.11 251.469 322.11 250.584ZM329.534 250.6C329.534 249.939 329.401 249.363 329.134 248.872C328.867 248.381 328.505 248.008 328.046 247.752C327.598 247.485 327.102 247.352 326.558 247.352C326.014 247.352 325.518 247.48 325.07 247.736C324.622 247.992 324.265 248.365 323.998 248.856C323.731 249.347 323.598 249.923 323.598 250.584C323.598 251.256 323.731 251.843 323.998 252.344C324.265 252.835 324.622 253.213 325.07 253.48C325.518 253.736 326.014 253.864 326.558 253.864C327.102 253.864 327.598 253.736 328.046 253.48C328.505 253.213 328.867 252.835 329.134 252.344C329.401 251.843 329.534 251.261 329.534 250.6ZM336.242 247.432V252.6C336.242 253.027 336.333 253.331 336.514 253.512C336.696 253.683 337.01 253.768 337.458 253.768H338.53V255H337.218C336.408 255 335.8 254.813 335.394 254.44C334.989 254.067 334.786 253.453 334.786 252.6V247.432H333.65V246.232H334.786V244.024H336.242V246.232H338.53V247.432H336.242ZM349.295 250.28C349.295 250.557 349.279 250.851 349.247 251.16H342.239C342.292 252.024 342.585 252.701 343.119 253.192C343.663 253.672 344.319 253.912 345.087 253.912C345.716 253.912 346.239 253.768 346.655 253.48C347.081 253.181 347.38 252.787 347.551 252.296H349.119C348.884 253.139 348.415 253.827 347.711 254.36C347.007 254.883 346.132 255.144 345.087 255.144C344.255 255.144 343.508 254.957 342.847 254.584C342.196 254.211 341.684 253.683 341.311 253C340.937 252.307 340.751 251.507 340.751 250.6C340.751 249.693 340.932 248.899 341.295 248.216C341.657 247.533 342.164 247.011 342.815 246.648C343.476 246.275 344.233 246.088 345.087 246.088C345.919 246.088 346.655 246.269 347.295 246.632C347.935 246.995 348.425 247.496 348.767 248.136C349.119 248.765 349.295 249.48 349.295 250.28ZM347.791 249.976C347.791 249.421 347.668 248.947 347.423 248.552C347.177 248.147 346.841 247.843 346.415 247.64C345.999 247.427 345.535 247.32 345.023 247.32C344.287 247.32 343.657 247.555 343.135 248.024C342.623 248.493 342.329 249.144 342.255 249.976H347.791ZM357.21 246.344C357.285 245.363 357.663 244.595 358.346 244.04C359.029 243.485 359.914 243.208 361.002 243.208C361.727 243.208 362.351 243.341 362.874 243.608C363.407 243.864 363.807 244.216 364.074 244.664C364.351 245.112 364.49 245.619 364.49 246.184C364.49 246.845 364.298 247.416 363.914 247.896C363.541 248.376 363.05 248.685 362.442 248.824V248.904C363.135 249.075 363.685 249.411 364.09 249.912C364.495 250.413 364.698 251.069 364.698 251.88C364.698 252.488 364.559 253.037 364.282 253.528C364.005 254.008 363.589 254.387 363.034 254.664C362.479 254.941 361.813 255.08 361.034 255.08C359.903 255.08 358.975 254.787 358.25 254.2C357.525 253.603 357.119 252.76 357.034 251.672H358.442C358.517 252.312 358.778 252.835 359.226 253.24C359.674 253.645 360.271 253.848 361.018 253.848C361.765 253.848 362.33 253.656 362.714 253.272C363.109 252.877 363.306 252.371 363.306 251.752C363.306 250.952 363.039 250.376 362.506 250.024C361.973 249.672 361.167 249.496 360.09 249.496H359.722V248.28H360.106C361.087 248.269 361.829 248.109 362.33 247.8C362.831 247.48 363.082 246.989 363.082 246.328C363.082 245.763 362.895 245.309 362.522 244.968C362.159 244.627 361.637 244.456 360.954 244.456C360.293 244.456 359.759 244.627 359.354 244.968C358.949 245.309 358.709 245.768 358.634 246.344H357.21ZM367.664 249.096C367.664 247.261 367.963 245.832 368.56 244.808C369.157 243.773 370.203 243.256 371.696 243.256C373.179 243.256 374.219 243.773 374.816 244.808C375.413 245.832 375.712 247.261 375.712 249.096C375.712 250.963 375.413 252.413 374.816 253.448C374.219 254.483 373.179 255 371.696 255C370.203 255 369.157 254.483 368.56 253.448C367.963 252.413 367.664 250.963 367.664 249.096ZM374.272 249.096C374.272 248.168 374.208 247.384 374.08 246.744C373.963 246.093 373.712 245.571 373.328 245.176C372.955 244.781 372.411 244.584 371.696 244.584C370.971 244.584 370.416 244.781 370.032 245.176C369.659 245.571 369.408 246.093 369.28 246.744C369.163 247.384 369.104 248.168 369.104 249.096C369.104 250.056 369.163 250.861 369.28 251.512C369.408 252.163 369.659 252.685 370.032 253.08C370.416 253.475 370.971 253.672 371.696 253.672C372.411 253.672 372.955 253.475 373.328 253.08C373.712 252.685 373.963 252.163 374.08 251.512C374.208 250.861 374.272 250.056 374.272 249.096ZM379.415 255.096C379.137 255.096 378.903 255 378.711 254.808C378.519 254.616 378.423 254.381 378.423 254.104C378.423 253.827 378.519 253.592 378.711 253.4C378.903 253.208 379.137 253.112 379.415 253.112C379.681 253.112 379.905 253.208 380.087 253.4C380.279 253.592 380.375 253.827 380.375 254.104C380.375 254.381 380.279 254.616 380.087 254.808C379.905 255 379.681 255.096 379.415 255.096ZM383.07 249.096C383.07 247.261 383.369 245.832 383.966 244.808C384.563 243.773 385.609 243.256 387.102 243.256C388.585 243.256 389.625 243.773 390.222 244.808C390.819 245.832 391.118 247.261 391.118 249.096C391.118 250.963 390.819 252.413 390.222 253.448C389.625 254.483 388.585 255 387.102 255C385.609 255 384.563 254.483 383.966 253.448C383.369 252.413 383.07 250.963 383.07 249.096ZM389.678 249.096C389.678 248.168 389.614 247.384 389.486 246.744C389.369 246.093 389.118 245.571 388.734 245.176C388.361 244.781 387.817 244.584 387.102 244.584C386.377 244.584 385.822 244.781 385.438 245.176C385.065 245.571 384.814 246.093 384.686 246.744C384.569 247.384 384.51 248.168 384.51 249.096C384.51 250.056 384.569 250.861 384.686 251.512C384.814 252.163 385.065 252.685 385.438 253.08C385.822 253.475 386.377 253.672 387.102 253.672C387.817 253.672 388.361 253.475 388.734 253.08C389.118 252.685 389.369 252.163 389.486 251.512C389.614 250.861 389.678 250.056 389.678 249.096ZM394.117 249.096C394.117 247.261 394.416 245.832 395.013 244.808C395.61 243.773 396.656 243.256 398.149 243.256C399.632 243.256 400.672 243.773 401.269 244.808C401.866 245.832 402.165 247.261 402.165 249.096C402.165 250.963 401.866 252.413 401.269 253.448C400.672 254.483 399.632 255 398.149 255C396.656 255 395.61 254.483 395.013 253.448C394.416 252.413 394.117 250.963 394.117 249.096ZM400.725 249.096C400.725 248.168 400.661 247.384 400.533 246.744C400.416 246.093 400.165 245.571 399.781 245.176C399.408 244.781 398.864 244.584 398.149 244.584C397.424 244.584 396.869 244.781 396.485 245.176C396.112 245.571 395.861 246.093 395.733 246.744C395.616 247.384 395.557 248.168 395.557 249.096C395.557 250.056 395.616 250.861 395.733 251.512C395.861 252.163 396.112 252.685 396.485 253.08C396.869 253.475 397.424 253.672 398.149 253.672C398.864 253.672 399.408 253.475 399.781 253.08C400.165 252.685 400.416 252.163 400.533 251.512C400.661 250.861 400.725 250.056 400.725 249.096ZM404.844 246.04C404.844 245.315 405.063 244.739 405.5 244.312C405.937 243.875 406.497 243.656 407.18 243.656C407.863 243.656 408.423 243.875 408.86 244.312C409.297 244.739 409.516 245.315 409.516 246.04C409.516 246.776 409.297 247.363 408.86 247.8C408.423 248.227 407.863 248.44 407.18 248.44C406.497 248.44 405.937 248.227 405.5 247.8C405.063 247.363 404.844 246.776 404.844 246.04ZM414.188 243.832L407.708 255H406.268L412.748 243.832H414.188ZM407.18 244.552C406.817 244.552 406.529 244.68 406.316 244.936C406.113 245.181 406.012 245.549 406.012 246.04C406.012 246.531 406.113 246.904 406.316 247.16C406.529 247.416 406.817 247.544 407.18 247.544C407.543 247.544 407.831 247.416 408.044 247.16C408.257 246.893 408.364 246.52 408.364 246.04C408.364 245.549 408.257 245.181 408.044 244.936C407.831 244.68 407.543 244.552 407.18 244.552ZM410.972 252.792C410.972 252.056 411.191 251.475 411.628 251.048C412.065 250.611 412.625 250.392 413.308 250.392C413.991 250.392 414.545 250.611 414.972 251.048C415.409 251.475 415.628 252.056 415.628 252.792C415.628 253.517 415.409 254.099 414.972 254.536C414.545 254.973 413.991 255.192 413.308 255.192C412.625 255.192 412.065 254.979 411.628 254.552C411.191 254.115 410.972 253.528 410.972 252.792ZM413.292 251.304C412.929 251.304 412.641 251.432 412.428 251.688C412.215 251.933 412.108 252.301 412.108 252.792C412.108 253.272 412.215 253.64 412.428 253.896C412.641 254.141 412.929 254.264 413.292 254.264C413.655 254.264 413.943 254.141 414.156 253.896C414.369 253.64 414.476 253.272 414.476 252.792C414.476 252.301 414.369 251.933 414.156 251.688C413.943 251.432 413.655 251.304 413.292 251.304Z" fill="#282636"/>
<path d="M779.688 401.848V413H778.232V401.848H779.688ZM793.714 404.072C794.396 404.072 795.004 404.216 795.538 404.504C796.071 404.781 796.492 405.203 796.802 405.768C797.111 406.333 797.266 407.021 797.266 407.832V413H795.826V408.04C795.826 407.165 795.607 406.499 795.17 406.04C794.743 405.571 794.162 405.336 793.426 405.336C792.668 405.336 792.066 405.581 791.618 406.072C791.17 406.552 790.946 407.251 790.946 408.168V413H789.506V408.04C789.506 407.165 789.287 406.499 788.85 406.04C788.423 405.571 787.842 405.336 787.106 405.336C786.348 405.336 785.746 405.581 785.298 406.072C784.85 406.552 784.626 407.251 784.626 408.168V413H783.17V404.232H784.626V405.496C784.914 405.037 785.298 404.685 785.778 404.44C786.268 404.195 786.807 404.072 787.394 404.072C788.13 404.072 788.78 404.237 789.346 404.568C789.911 404.899 790.332 405.384 790.61 406.024C790.855 405.405 791.26 404.925 791.826 404.584C792.391 404.243 793.02 404.072 793.714 404.072ZM802.11 405.848C802.398 405.347 802.825 404.931 803.39 404.6C803.966 404.259 804.633 404.088 805.39 404.088C806.169 404.088 806.873 404.275 807.502 404.648C808.142 405.021 808.643 405.549 809.006 406.232C809.369 406.904 809.55 407.688 809.55 408.584C809.55 409.469 809.369 410.259 809.006 410.952C808.643 411.645 808.142 412.184 807.502 412.568C806.873 412.952 806.169 413.144 805.39 413.144C804.643 413.144 803.982 412.979 803.406 412.648C802.841 412.307 802.409 411.885 802.11 411.384V417.16H800.654V404.232H802.11V405.848ZM808.062 408.584C808.062 407.923 807.929 407.347 807.662 406.856C807.395 406.365 807.033 405.992 806.574 405.736C806.126 405.48 805.63 405.352 805.086 405.352C804.553 405.352 804.057 405.485 803.598 405.752C803.15 406.008 802.787 406.387 802.51 406.888C802.243 407.379 802.11 407.949 802.11 408.6C802.11 409.261 802.243 409.843 802.51 410.344C802.787 410.835 803.15 411.213 803.598 411.48C804.057 411.736 804.553 411.864 805.086 411.864C805.63 411.864 806.126 411.736 806.574 411.48C807.033 411.213 807.395 410.835 807.662 410.344C807.929 409.843 808.062 409.256 808.062 408.584ZM813.922 405.656C814.178 405.155 814.541 404.765 815.01 404.488C815.49 404.211 816.072 404.072 816.754 404.072V405.576H816.37C814.738 405.576 813.922 406.461 813.922 408.232V413H812.466V404.232H813.922V405.656ZM827.435 408.28C827.435 408.557 827.419 408.851 827.387 409.16H820.379C820.432 410.024 820.726 410.701 821.259 411.192C821.803 411.672 822.459 411.912 823.227 411.912C823.856 411.912 824.379 411.768 824.795 411.48C825.222 411.181 825.52 410.787 825.691 410.296H827.259C827.024 411.139 826.555 411.827 825.851 412.36C825.147 412.883 824.272 413.144 823.227 413.144C822.395 413.144 821.648 412.957 820.987 412.584C820.336 412.211 819.824 411.683 819.451 411C819.078 410.307 818.891 409.507 818.891 408.6C818.891 407.693 819.072 406.899 819.435 406.216C819.798 405.533 820.304 405.011 820.955 404.648C821.616 404.275 822.374 404.088 823.227 404.088C824.059 404.088 824.795 404.269 825.435 404.632C826.075 404.995 826.566 405.496 826.907 406.136C827.259 406.765 827.435 407.48 827.435 408.28ZM825.931 407.976C825.931 407.421 825.808 406.947 825.563 406.552C825.318 406.147 824.982 405.843 824.555 405.64C824.139 405.427 823.675 405.32 823.163 405.32C822.427 405.32 821.798 405.555 821.275 406.024C820.763 406.493 820.47 407.144 820.395 407.976H825.931ZM833.461 413.144C832.789 413.144 832.186 413.032 831.653 412.808C831.12 412.573 830.698 412.253 830.389 411.848C830.08 411.432 829.909 410.957 829.877 410.424H831.381C831.424 410.861 831.626 411.219 831.989 411.496C832.362 411.773 832.848 411.912 833.445 411.912C834 411.912 834.437 411.789 834.757 411.544C835.077 411.299 835.237 410.989 835.237 410.616C835.237 410.232 835.066 409.949 834.725 409.768C834.384 409.576 833.856 409.389 833.141 409.208C832.49 409.037 831.957 408.867 831.541 408.696C831.136 408.515 830.784 408.253 830.485 407.912C830.197 407.56 830.053 407.101 830.053 406.536C830.053 406.088 830.186 405.677 830.453 405.304C830.72 404.931 831.098 404.637 831.589 404.424C832.08 404.2 832.64 404.088 833.269 404.088C834.24 404.088 835.024 404.333 835.621 404.824C836.218 405.315 836.538 405.987 836.581 406.84H835.125C835.093 406.381 834.906 406.013 834.565 405.736C834.234 405.459 833.786 405.32 833.221 405.32C832.698 405.32 832.282 405.432 831.973 405.656C831.664 405.88 831.509 406.173 831.509 406.536C831.509 406.824 831.6 407.064 831.781 407.256C831.973 407.437 832.208 407.587 832.485 407.704C832.773 407.811 833.168 407.933 833.669 408.072C834.298 408.243 834.81 408.413 835.205 408.584C835.6 408.744 835.936 408.989 836.213 409.32C836.501 409.651 836.65 410.083 836.661 410.616C836.661 411.096 836.528 411.528 836.261 411.912C835.994 412.296 835.616 412.6 835.125 412.824C834.645 413.037 834.09 413.144 833.461 413.144ZM842.82 413.144C842.148 413.144 841.546 413.032 841.012 412.808C840.479 412.573 840.058 412.253 839.748 411.848C839.439 411.432 839.268 410.957 839.236 410.424H840.74C840.783 410.861 840.986 411.219 841.348 411.496C841.722 411.773 842.207 411.912 842.804 411.912C843.359 411.912 843.796 411.789 844.116 411.544C844.436 411.299 844.596 410.989 844.596 410.616C844.596 410.232 844.426 409.949 844.084 409.768C843.743 409.576 843.215 409.389 842.5 409.208C841.85 409.037 841.316 408.867 840.9 408.696C840.495 408.515 840.143 408.253 839.844 407.912C839.556 407.56 839.412 407.101 839.412 406.536C839.412 406.088 839.546 405.677 839.812 405.304C840.079 404.931 840.458 404.637 840.948 404.424C841.439 404.2 841.999 404.088 842.628 404.088C843.599 404.088 844.383 404.333 844.98 404.824C845.578 405.315 845.898 405.987 845.94 406.84H844.484C844.452 406.381 844.266 406.013 843.924 405.736C843.594 405.459 843.146 405.32 842.58 405.32C842.058 405.32 841.642 405.432 841.332 405.656C841.023 405.88 840.868 406.173 840.868 406.536C840.868 406.824 840.959 407.064 841.14 407.256C841.332 407.437 841.567 407.587 841.844 407.704C842.132 407.811 842.527 407.933 843.028 408.072C843.658 408.243 844.17 408.413 844.564 408.584C844.959 408.744 845.295 408.989 845.572 409.32C845.86 409.651 846.01 410.083 846.02 410.616C846.02 411.096 845.887 411.528 845.62 411.912C845.354 412.296 844.975 412.6 844.484 412.824C844.004 413.037 843.45 413.144 842.82 413.144ZM849.828 402.808C849.55 402.808 849.316 402.712 849.124 402.52C848.932 402.328 848.836 402.093 848.836 401.816C848.836 401.539 848.932 401.304 849.124 401.112C849.316 400.92 849.55 400.824 849.828 400.824C850.094 400.824 850.318 400.92 850.5 401.112C850.692 401.304 850.788 401.539 850.788 401.816C850.788 402.093 850.692 402.328 850.5 402.52C850.318 402.712 850.094 402.808 849.828 402.808ZM850.532 404.232V413H849.076V404.232H850.532ZM857.837 413.144C857.016 413.144 856.269 412.957 855.597 412.584C854.936 412.211 854.413 411.683 854.029 411C853.656 410.307 853.469 409.507 853.469 408.6C853.469 407.704 853.661 406.915 854.045 406.232C854.44 405.539 854.973 405.011 855.645 404.648C856.317 404.275 857.069 404.088 857.901 404.088C858.733 404.088 859.485 404.275 860.157 404.648C860.829 405.011 861.357 405.533 861.741 406.216C862.136 406.899 862.333 407.693 862.333 408.6C862.333 409.507 862.131 410.307 861.725 411C861.331 411.683 860.792 412.211 860.109 412.584C859.427 412.957 858.669 413.144 857.837 413.144ZM857.837 411.864C858.36 411.864 858.851 411.741 859.309 411.496C859.768 411.251 860.136 410.883 860.413 410.392C860.701 409.901 860.845 409.304 860.845 408.6C860.845 407.896 860.707 407.299 860.429 406.808C860.152 406.317 859.789 405.955 859.341 405.72C858.893 405.475 858.408 405.352 857.885 405.352C857.352 405.352 856.861 405.475 856.413 405.72C855.976 405.955 855.624 406.317 855.357 406.808C855.091 407.299 854.957 407.896 854.957 408.6C854.957 409.315 855.085 409.917 855.341 410.408C855.608 410.899 855.96 411.267 856.397 411.512C856.835 411.747 857.315 411.864 857.837 411.864ZM869.52 404.072C870.586 404.072 871.45 404.397 872.112 405.048C872.773 405.688 873.104 406.616 873.104 407.832V413H871.664V408.04C871.664 407.165 871.445 406.499 871.008 406.04C870.57 405.571 869.973 405.336 869.216 405.336C868.448 405.336 867.834 405.576 867.376 406.056C866.928 406.536 866.704 407.235 866.704 408.152V413H865.248V404.232H866.704V405.48C866.992 405.032 867.381 404.685 867.872 404.44C868.373 404.195 868.922 404.072 869.52 404.072ZM881.124 402.76V401.432H884.132V413H882.66V402.76H881.124ZM895.009 402.696H889.393V406.344C889.638 406.003 890.001 405.725 890.481 405.512C890.961 405.288 891.478 405.176 892.033 405.176C892.918 405.176 893.638 405.363 894.193 405.736C894.747 406.099 895.142 406.573 895.377 407.16C895.622 407.736 895.745 408.349 895.745 409C895.745 409.768 895.601 410.456 895.313 411.064C895.025 411.672 894.582 412.152 893.985 412.504C893.398 412.856 892.667 413.032 891.793 413.032C890.673 413.032 889.766 412.744 889.073 412.168C888.379 411.592 887.958 410.824 887.809 409.864H889.233C889.371 410.472 889.665 410.947 890.113 411.288C890.561 411.629 891.126 411.8 891.809 411.8C892.651 411.8 893.286 411.549 893.713 411.048C894.139 410.536 894.353 409.864 894.353 409.032C894.353 408.2 894.139 407.56 893.713 407.112C893.286 406.653 892.657 406.424 891.825 406.424C891.259 406.424 890.763 406.563 890.337 406.84C889.921 407.107 889.617 407.475 889.425 407.944H888.049V401.416H895.009V402.696ZM898.68 407.096C898.68 405.261 898.978 403.832 899.576 402.808C900.173 401.773 901.218 401.256 902.712 401.256C904.194 401.256 905.234 401.773 905.832 402.808C906.429 403.832 906.727 405.261 906.727 407.096C906.727 408.963 906.429 410.413 905.832 411.448C905.234 412.483 904.194 413 902.712 413C901.218 413 900.173 412.483 899.576 411.448C898.978 410.413 898.68 408.963 898.68 407.096ZM905.288 407.096C905.288 406.168 905.224 405.384 905.096 404.744C904.978 404.093 904.728 403.571 904.344 403.176C903.97 402.781 903.426 402.584 902.712 402.584C901.986 402.584 901.432 402.781 901.048 403.176C900.674 403.571 900.424 404.093 900.296 404.744C900.178 405.384 900.12 406.168 900.12 407.096C900.12 408.056 900.178 408.861 900.296 409.512C900.424 410.163 900.674 410.685 901.048 411.08C901.432 411.475 901.986 411.672 902.712 411.672C903.426 411.672 903.97 411.475 904.344 411.08C904.728 410.685 904.978 410.163 905.096 409.512C905.224 408.861 905.288 408.056 905.288 407.096ZM909.726 407.096C909.726 405.261 910.025 403.832 910.622 402.808C911.22 401.773 912.265 401.256 913.758 401.256C915.241 401.256 916.281 401.773 916.878 402.808C917.476 403.832 917.774 405.261 917.774 407.096C917.774 408.963 917.476 410.413 916.878 411.448C916.281 412.483 915.241 413 913.758 413C912.265 413 911.22 412.483 910.622 411.448C910.025 410.413 909.726 408.963 909.726 407.096ZM916.334 407.096C916.334 406.168 916.27 405.384 916.142 404.744C916.025 404.093 915.774 403.571 915.39 403.176C915.017 402.781 914.473 402.584 913.758 402.584C913.033 402.584 912.478 402.781 912.094 403.176C911.721 403.571 911.47 404.093 911.342 404.744C911.225 405.384 911.166 406.168 911.166 407.096C911.166 408.056 911.225 408.861 911.342 409.512C911.47 410.163 911.721 410.685 912.094 411.08C912.478 411.475 913.033 411.672 913.758 411.672C914.473 411.672 915.017 411.475 915.39 411.08C915.774 410.685 916.025 410.163 916.142 409.512C916.27 408.861 916.334 408.056 916.334 407.096ZM920.773 407.096C920.773 405.261 921.072 403.832 921.669 402.808C922.267 401.773 923.312 401.256 924.805 401.256C926.288 401.256 927.328 401.773 927.925 402.808C928.523 403.832 928.821 405.261 928.821 407.096C928.821 408.963 928.523 410.413 927.925 411.448C927.328 412.483 926.288 413 924.805 413C923.312 413 922.267 412.483 921.669 411.448C921.072 410.413 920.773 408.963 920.773 407.096ZM927.381 407.096C927.381 406.168 927.317 405.384 927.189 404.744C927.072 404.093 926.821 403.571 926.437 403.176C926.064 402.781 925.52 402.584 924.805 402.584C924.08 402.584 923.525 402.781 923.141 403.176C922.768 403.571 922.517 404.093 922.389 404.744C922.272 405.384 922.213 406.168 922.213 407.096C922.213 408.056 922.272 408.861 922.389 409.512C922.517 410.163 922.768 410.685 923.141 411.08C923.525 411.475 924.08 411.672 924.805 411.672C925.52 411.672 926.064 411.475 926.437 411.08C926.821 410.685 927.072 410.163 927.189 409.512C927.317 408.861 927.381 408.056 927.381 407.096ZM931.82 407.096C931.82 405.261 932.119 403.832 932.716 402.808C933.313 401.773 934.359 401.256 935.852 401.256C937.335 401.256 938.375 401.773 938.972 402.808C939.569 403.832 939.868 405.261 939.868 407.096C939.868 408.963 939.569 410.413 938.972 411.448C938.375 412.483 937.335 413 935.852 413C934.359 413 933.313 412.483 932.716 411.448C932.119 410.413 931.82 408.963 931.82 407.096ZM938.428 407.096C938.428 406.168 938.364 405.384 938.236 404.744C938.119 404.093 937.868 403.571 937.484 403.176C937.111 402.781 936.567 402.584 935.852 402.584C935.127 402.584 934.572 402.781 934.188 403.176C933.815 403.571 933.564 404.093 933.436 404.744C933.319 405.384 933.26 406.168 933.26 407.096C933.26 408.056 933.319 408.861 933.436 409.512C933.564 410.163 933.815 410.685 934.188 411.08C934.572 411.475 935.127 411.672 935.852 411.672C936.567 411.672 937.111 411.475 937.484 411.08C937.868 410.685 938.119 410.163 938.236 409.512C938.364 408.861 938.428 408.056 938.428 407.096Z" fill="#282636"/>
<rect width="25" height="162" transform="matrix(-1 0 0 1 25 0)" fill="#E5E5FF"/>
<rect width="231" height="162" transform="matrix(-1 0 0 1 231 162)" fill="#B2B2FF"/>
<rect width="758" height="162" transform="matrix(-1 0 0 1 758 324)" fill="#6666FF"/>
</svg>
