<svg width="1060" height="473" viewBox="0 0 1060 473" fill="none" xmlns="http://www.w3.org/2000/svg">
<path d="M8.77993 33.9147H3.16393V37.5627C3.40926 37.2214 3.77193 36.9441 4.25193 36.7307C4.73193 36.5067 5.24926 36.3947 5.80393 36.3947C6.68926 36.3947 7.40926 36.5814 7.96393 36.9547C8.5186 37.3174 8.91326 37.7921 9.14793 38.3787C9.39326 38.9547 9.51593 39.5681 9.51593 40.2188C9.51593 40.9867 9.37193 41.6747 9.08393 42.2827C8.79593 42.8907 8.35326 43.3707 7.75593 43.7227C7.16926 44.0747 6.4386 44.2508 5.56393 44.2508C4.44393 44.2508 3.53726 43.9627 2.84393 43.3867C2.1506 42.8107 1.72926 42.0427 1.57993 41.0827H3.00393C3.1426 41.6907 3.43593 42.1654 3.88393 42.5067C4.33193 42.8481 4.89726 43.0187 5.57993 43.0187C6.4226 43.0187 7.05726 42.7681 7.48393 42.2667C7.9106 41.7547 8.12393 41.0827 8.12393 40.2507C8.12393 39.4187 7.9106 38.7787 7.48393 38.3307C7.05726 37.8721 6.42793 37.6427 5.59593 37.6427C5.0306 37.6427 4.5346 37.7814 4.10793 38.0587C3.69193 38.3254 3.38793 38.6934 3.19593 39.1627H1.81993V32.6347H8.77993V33.9147ZM11.4508 38.3147C11.4508 36.4801 11.7495 35.0507 12.3468 34.0267C12.9441 32.9921 13.9895 32.4747 15.4828 32.4747C16.9655 32.4747 18.0055 32.9921 18.6028 34.0267C19.2001 35.0507 19.4988 36.4801 19.4988 38.3147C19.4988 40.1814 19.2001 41.6321 18.6028 42.6667C18.0055 43.7014 16.9655 44.2188 15.4828 44.2188C13.9895 44.2188 12.9441 43.7014 12.3468 42.6667C11.7495 41.6321 11.4508 40.1814 11.4508 38.3147ZM18.0588 38.3147C18.0588 37.3867 17.9948 36.6027 17.8668 35.9627C17.7495 35.3121 17.4988 34.7894 17.1148 34.3947C16.7415 34.0001 16.1975 33.8027 15.4828 33.8027C14.7575 33.8027 14.2028 34.0001 13.8188 34.3947C13.4455 34.7894 13.1948 35.3121 13.0668 35.9627C12.9495 36.6027 12.8908 37.3867 12.8908 38.3147C12.8908 39.2747 12.9495 40.0801 13.0668 40.7307C13.1948 41.3814 13.4455 41.9041 13.8188 42.2987C14.2028 42.6934 14.7575 42.8907 15.4828 42.8907C16.1975 42.8907 16.7415 42.6934 17.1148 42.2987C17.4988 41.9041 17.7495 41.3814 17.8668 40.7307C17.9948 40.0801 18.0588 39.2747 18.0588 38.3147ZM23.2417 42.2027L21.4497 46.5068H20.4737L21.6417 42.2027H23.2417ZM24.6696 38.3147C24.6696 36.4801 24.9682 35.0507 25.5656 34.0267C26.1629 32.9921 27.2082 32.4747 28.7016 32.4747C30.1842 32.4747 31.2242 32.9921 31.8216 34.0267C32.4189 35.0507 32.7176 36.4801 32.7176 38.3147C32.7176 40.1814 32.4189 41.6321 31.8216 42.6667C31.2242 43.7014 30.1842 44.2188 28.7016 44.2188C27.2082 44.2188 26.1629 43.7014 25.5656 42.6667C24.9682 41.6321 24.6696 40.1814 24.6696 38.3147ZM31.2776 38.3147C31.2776 37.3867 31.2136 36.6027 31.0856 35.9627C30.9682 35.3121 30.7176 34.7894 30.3336 34.3947C29.9602 34.0001 29.4162 33.8027 28.7016 33.8027C27.9762 33.8027 27.4216 34.0001 27.0376 34.3947C26.6642 34.7894 26.4136 35.3121 26.2856 35.9627C26.1682 36.6027 26.1096 37.3867 26.1096 38.3147C26.1096 39.2747 26.1682 40.0801 26.2856 40.7307C26.4136 41.3814 26.6642 41.9041 27.0376 42.2987C27.4216 42.6934 27.9762 42.8907 28.7016 42.8907C29.4162 42.8907 29.9602 42.6934 30.3336 42.2987C30.7176 41.9041 30.9682 41.3814 31.0856 40.7307C31.2136 40.0801 31.2776 39.2747 31.2776 38.3147ZM34.7164 38.3147C34.7164 36.4801 35.0151 35.0507 35.6124 34.0267C36.2098 32.9921 37.2551 32.4747 38.7484 32.4747C40.2311 32.4747 41.2711 32.9921 41.8684 34.0267C42.4658 35.0507 42.7644 36.4801 42.7644 38.3147C42.7644 40.1814 42.4658 41.6321 41.8684 42.6667C41.2711 43.7014 40.2311 44.2188 38.7484 44.2188C37.2551 44.2188 36.2098 43.7014 35.6124 42.6667C35.0151 41.6321 34.7164 40.1814 34.7164 38.3147ZM41.3244 38.3147C41.3244 37.3867 41.2604 36.6027 41.1324 35.9627C41.0151 35.3121 40.7644 34.7894 40.3804 34.3947C40.0071 34.0001 39.4631 33.8027 38.7484 33.8027C38.0231 33.8027 37.4684 34.0001 37.0844 34.3947C36.7111 34.7894 36.4604 35.3121 36.3324 35.9627C36.2151 36.6027 36.1564 37.3867 36.1564 38.3147C36.1564 39.2747 36.2151 40.0801 36.3324 40.7307C36.4604 41.3814 36.7111 41.9041 37.0844 42.2987C37.4684 42.6934 38.0231 42.8907 38.7484 42.8907C39.4631 42.8907 40.0071 42.6934 40.3804 42.2987C40.7644 41.9041 41.0151 41.3814 41.1324 40.7307C41.2604 40.0801 41.3244 39.2747 41.3244 38.3147ZM44.7633 38.3147C44.7633 36.4801 45.062 35.0507 45.6593 34.0267C46.2566 32.9921 47.302 32.4747 48.7953 32.4747C50.278 32.4747 51.318 32.9921 51.9153 34.0267C52.5126 35.0507 52.8113 36.4801 52.8113 38.3147C52.8113 40.1814 52.5126 41.6321 51.9153 42.6667C51.318 43.7014 50.278 44.2188 48.7953 44.2188C47.302 44.2188 46.2566 43.7014 45.6593 42.6667C45.062 41.6321 44.7633 40.1814 44.7633 38.3147ZM51.3713 38.3147C51.3713 37.3867 51.3073 36.6027 51.1793 35.9627C51.062 35.3121 50.8113 34.7894 50.4273 34.3947C50.054 34.0001 49.51 33.8027 48.7953 33.8027C48.07 33.8027 47.5153 34.0001 47.1313 34.3947C46.758 34.7894 46.5073 35.3121 46.3793 35.9627C46.262 36.6027 46.2033 37.3867 46.2033 38.3147C46.2033 39.2747 46.262 40.0801 46.3793 40.7307C46.5073 41.3814 46.758 41.9041 47.1313 42.2987C47.5153 42.6934 48.07 42.8907 48.7953 42.8907C49.51 42.8907 50.054 42.6934 50.4273 42.2987C50.8113 41.9041 51.062 41.3814 51.1793 40.7307C51.3073 40.0801 51.3713 39.2747 51.3713 38.3147Z" fill="#808080" fill-opacity="0.69"/>
<path d="M1.99693 202.399C2.0716 201.417 2.45026 200.649 3.13293 200.095C3.8156 199.54 4.70093 199.263 5.78893 199.263C6.51426 199.263 7.13826 199.396 7.66093 199.663C8.19426 199.919 8.59426 200.271 8.86093 200.719C9.13826 201.167 9.27693 201.673 9.27693 202.239C9.27693 202.9 9.08493 203.471 8.70093 203.951C8.3276 204.431 7.83693 204.74 7.22893 204.879V204.959C7.92226 205.129 8.4716 205.465 8.87693 205.967C9.28226 206.468 9.48493 207.124 9.48493 207.935C9.48493 208.543 9.34626 209.092 9.06893 209.583C8.7916 210.063 8.3756 210.441 7.82093 210.719C7.26626 210.996 6.5996 211.135 5.82093 211.135C4.69026 211.135 3.76226 210.841 3.03693 210.255C2.3116 209.657 1.90626 208.815 1.82093 207.727H3.22893C3.3036 208.367 3.56493 208.889 4.01293 209.295C4.46093 209.7 5.05826 209.903 5.80493 209.903C6.5516 209.903 7.11693 209.711 7.50093 209.327C7.8956 208.932 8.09293 208.425 8.09293 207.807C8.09293 207.007 7.82626 206.431 7.29293 206.079C6.7596 205.727 5.95426 205.551 4.87693 205.551H4.50893V204.335H4.89293C5.87426 204.324 6.6156 204.164 7.11693 203.855C7.61826 203.535 7.86893 203.044 7.86893 202.383C7.86893 201.817 7.68226 201.364 7.30893 201.023C6.94626 200.681 6.4236 200.511 5.74093 200.511C5.0796 200.511 4.54626 200.681 4.14093 201.023C3.7356 201.364 3.4956 201.823 3.42093 202.399H1.99693ZM11.4508 205.151C11.4508 203.316 11.7495 201.887 12.3468 200.863C12.9441 199.828 13.9895 199.311 15.4828 199.311C16.9655 199.311 18.0055 199.828 18.6028 200.863C19.2001 201.887 19.4988 203.316 19.4988 205.151C19.4988 207.017 19.2001 208.468 18.6028 209.503C18.0055 210.537 16.9655 211.055 15.4828 211.055C13.9895 211.055 12.9441 210.537 12.3468 209.503C11.7495 208.468 11.4508 207.017 11.4508 205.151ZM18.0588 205.151C18.0588 204.223 17.9948 203.439 17.8668 202.799C17.7495 202.148 17.4988 201.625 17.1148 201.231C16.7415 200.836 16.1975 200.639 15.4828 200.639C14.7575 200.639 14.2028 200.836 13.8188 201.231C13.4455 201.625 13.1948 202.148 13.0668 202.799C12.9495 203.439 12.8908 204.223 12.8908 205.151C12.8908 206.111 12.9495 206.916 13.0668 207.567C13.1948 208.217 13.4455 208.74 13.8188 209.135C14.2028 209.529 14.7575 209.727 15.4828 209.727C16.1975 209.727 16.7415 209.529 17.1148 209.135C17.4988 208.74 17.7495 208.217 17.8668 207.567C17.9948 206.916 18.0588 206.111 18.0588 205.151ZM23.2417 209.039L21.4497 213.343H20.4737L21.6417 209.039H23.2417ZM24.6696 205.151C24.6696 203.316 24.9682 201.887 25.5656 200.863C26.1629 199.828 27.2082 199.311 28.7016 199.311C30.1842 199.311 31.2242 199.828 31.8216 200.863C32.4189 201.887 32.7176 203.316 32.7176 205.151C32.7176 207.017 32.4189 208.468 31.8216 209.503C31.2242 210.537 30.1842 211.055 28.7016 211.055C27.2082 211.055 26.1629 210.537 25.5656 209.503C24.9682 208.468 24.6696 207.017 24.6696 205.151ZM31.2776 205.151C31.2776 204.223 31.2136 203.439 31.0856 202.799C30.9682 202.148 30.7176 201.625 30.3336 201.231C29.9602 200.836 29.4162 200.639 28.7016 200.639C27.9762 200.639 27.4216 200.836 27.0376 201.231C26.6642 201.625 26.4136 202.148 26.2856 202.799C26.1682 203.439 26.1096 204.223 26.1096 205.151C26.1096 206.111 26.1682 206.916 26.2856 207.567C26.4136 208.217 26.6642 208.74 27.0376 209.135C27.4216 209.529 27.9762 209.727 28.7016 209.727C29.4162 209.727 29.9602 209.529 30.3336 209.135C30.7176 208.74 30.9682 208.217 31.0856 207.567C31.2136 206.916 31.2776 206.111 31.2776 205.151ZM34.7164 205.151C34.7164 203.316 35.0151 201.887 35.6124 200.863C36.2098 199.828 37.2551 199.311 38.7484 199.311C40.2311 199.311 41.2711 199.828 41.8684 200.863C42.4658 201.887 42.7644 203.316 42.7644 205.151C42.7644 207.017 42.4658 208.468 41.8684 209.503C41.2711 210.537 40.2311 211.055 38.7484 211.055C37.2551 211.055 36.2098 210.537 35.6124 209.503C35.0151 208.468 34.7164 207.017 34.7164 205.151ZM41.3244 205.151C41.3244 204.223 41.2604 203.439 41.1324 202.799C41.0151 202.148 40.7644 201.625 40.3804 201.231C40.0071 200.836 39.4631 200.639 38.7484 200.639C38.0231 200.639 37.4684 200.836 37.0844 201.231C36.7111 201.625 36.4604 202.148 36.3324 202.799C36.2151 203.439 36.1564 204.223 36.1564 205.151C36.1564 206.111 36.2151 206.916 36.3324 207.567C36.4604 208.217 36.7111 208.74 37.0844 209.135C37.4684 209.529 38.0231 209.727 38.7484 209.727C39.4631 209.727 40.0071 209.529 40.3804 209.135C40.7644 208.74 41.0151 208.217 41.1324 207.567C41.2604 206.916 41.3244 206.111 41.3244 205.151ZM44.7633 205.151C44.7633 203.316 45.062 201.887 45.6593 200.863C46.2566 199.828 47.302 199.311 48.7953 199.311C50.278 199.311 51.318 199.828 51.9153 200.863C52.5126 201.887 52.8113 203.316 52.8113 205.151C52.8113 207.017 52.5126 208.468 51.9153 209.503C51.318 210.537 50.278 211.055 48.7953 211.055C47.302 211.055 46.2566 210.537 45.6593 209.503C45.062 208.468 44.7633 207.017 44.7633 205.151ZM51.3713 205.151C51.3713 204.223 51.3073 203.439 51.1793 202.799C51.062 202.148 50.8113 201.625 50.4273 201.231C50.054 200.836 49.51 200.639 48.7953 200.639C48.07 200.639 47.5153 200.836 47.1313 201.231C46.758 201.625 46.5073 202.148 46.3793 202.799C46.262 203.439 46.2033 204.223 46.2033 205.151C46.2033 206.111 46.262 206.916 46.3793 207.567C46.5073 208.217 46.758 208.74 47.1313 209.135C47.5153 209.529 48.07 209.727 48.7953 209.727C49.51 209.727 50.054 209.529 50.4273 209.135C50.8113 208.74 51.062 208.217 51.1793 207.567C51.3073 206.916 51.3713 206.111 51.3713 205.151Z" fill="#808080" fill-opacity="0.69"/>
<path d="M1.03631 125.061V123.957L6.65231 116.181H8.39631V123.797H9.99631V125.061H8.39631V127.637H6.95631V125.061H1.03631ZM7.02031 117.701L2.71631 123.797H7.02031V117.701ZM11.4508 121.733C11.4508 119.898 11.7495 118.469 12.3468 117.445C12.9441 116.41 13.9895 115.893 15.4828 115.893C16.9655 115.893 18.0055 116.41 18.6028 117.445C19.2001 118.469 19.4988 119.898 19.4988 121.733C19.4988 123.599 19.2001 125.05 18.6028 126.085C18.0055 127.119 16.9655 127.637 15.4828 127.637C13.9895 127.637 12.9441 127.119 12.3468 126.085C11.7495 125.05 11.4508 123.599 11.4508 121.733ZM18.0588 121.733C18.0588 120.805 17.9948 120.021 17.8668 119.381C17.7495 118.73 17.4988 118.207 17.1148 117.813C16.7415 117.418 16.1975 117.221 15.4828 117.221C14.7575 117.221 14.2028 117.418 13.8188 117.813C13.4455 118.207 13.1948 118.73 13.0668 119.381C12.9495 120.021 12.8908 120.805 12.8908 121.733C12.8908 122.693 12.9495 123.498 13.0668 124.149C13.1948 124.799 13.4455 125.322 13.8188 125.717C14.2028 126.111 14.7575 126.309 15.4828 126.309C16.1975 126.309 16.7415 126.111 17.1148 125.717C17.4988 125.322 17.7495 124.799 17.8668 124.149C17.9948 123.498 18.0588 122.693 18.0588 121.733ZM23.2417 125.621L21.4497 129.925H20.4737L21.6417 125.621H23.2417ZM24.6696 121.733C24.6696 119.898 24.9682 118.469 25.5656 117.445C26.1629 116.41 27.2082 115.893 28.7016 115.893C30.1842 115.893 31.2242 116.41 31.8216 117.445C32.4189 118.469 32.7176 119.898 32.7176 121.733C32.7176 123.599 32.4189 125.05 31.8216 126.085C31.2242 127.119 30.1842 127.637 28.7016 127.637C27.2082 127.637 26.1629 127.119 25.5656 126.085C24.9682 125.05 24.6696 123.599 24.6696 121.733ZM31.2776 121.733C31.2776 120.805 31.2136 120.021 31.0856 119.381C30.9682 118.73 30.7176 118.207 30.3336 117.813C29.9602 117.418 29.4162 117.221 28.7016 117.221C27.9762 117.221 27.4216 117.418 27.0376 117.813C26.6642 118.207 26.4136 118.73 26.2856 119.381C26.1682 120.021 26.1096 120.805 26.1096 121.733C26.1096 122.693 26.1682 123.498 26.2856 124.149C26.4136 124.799 26.6642 125.322 27.0376 125.717C27.4216 126.111 27.9762 126.309 28.7016 126.309C29.4162 126.309 29.9602 126.111 30.3336 125.717C30.7176 125.322 30.9682 124.799 31.0856 124.149C31.2136 123.498 31.2776 122.693 31.2776 121.733ZM34.7164 121.733C34.7164 119.898 35.0151 118.469 35.6124 117.445C36.2098 116.41 37.2551 115.893 38.7484 115.893C40.2311 115.893 41.2711 116.41 41.8684 117.445C42.4658 118.469 42.7644 119.898 42.7644 121.733C42.7644 123.599 42.4658 125.05 41.8684 126.085C41.2711 127.119 40.2311 127.637 38.7484 127.637C37.2551 127.637 36.2098 127.119 35.6124 126.085C35.0151 125.05 34.7164 123.599 34.7164 121.733ZM41.3244 121.733C41.3244 120.805 41.2604 120.021 41.1324 119.381C41.0151 118.73 40.7644 118.207 40.3804 117.813C40.0071 117.418 39.4631 117.221 38.7484 117.221C38.0231 117.221 37.4684 117.418 37.0844 117.813C36.7111 118.207 36.4604 118.73 36.3324 119.381C36.2151 120.021 36.1564 120.805 36.1564 121.733C36.1564 122.693 36.2151 123.498 36.3324 124.149C36.4604 124.799 36.7111 125.322 37.0844 125.717C37.4684 126.111 38.0231 126.309 38.7484 126.309C39.4631 126.309 40.0071 126.111 40.3804 125.717C40.7644 125.322 41.0151 124.799 41.1324 124.149C41.2604 123.498 41.3244 122.693 41.3244 121.733ZM44.7633 121.733C44.7633 119.898 45.062 118.469 45.6593 117.445C46.2566 116.41 47.302 115.893 48.7953 115.893C50.278 115.893 51.318 116.41 51.9153 117.445C52.5126 118.469 52.8113 119.898 52.8113 121.733C52.8113 123.599 52.5126 125.05 51.9153 126.085C51.318 127.119 50.278 127.637 48.7953 127.637C47.302 127.637 46.2566 127.119 45.6593 126.085C45.062 125.05 44.7633 123.599 44.7633 121.733ZM51.3713 121.733C51.3713 120.805 51.3073 120.021 51.1793 119.381C51.062 118.73 50.8113 118.207 50.4273 117.813C50.054 117.418 49.51 117.221 48.7953 117.221C48.07 117.221 47.5153 117.418 47.1313 117.813C46.758 118.207 46.5073 118.73 46.3793 119.381C46.262 120.021 46.2033 120.805 46.2033 121.733C46.2033 122.693 46.262 123.498 46.3793 124.149C46.5073 124.799 46.758 125.322 47.1313 125.717C47.5153 126.111 48.07 126.309 48.7953 126.309C49.51 126.309 50.054 126.111 50.4273 125.717C50.8113 125.322 51.062 124.799 51.1793 124.149C51.3073 123.498 51.3713 122.693 51.3713 121.733Z" fill="#808080" fill-opacity="0.69"/>
<path d="M5.94181 284.234V282.906H8.94981V294.474H7.47781V284.234H5.94181ZM18.8268 284.17H13.2108V287.818C13.4561 287.476 13.8188 287.199 14.2988 286.986C14.7788 286.762 15.2961 286.65 15.8508 286.65C16.7361 286.65 17.4561 286.836 18.0108 287.21C18.5655 287.572 18.9601 288.047 19.1948 288.634C19.4401 289.21 19.5628 289.823 19.5628 290.474C19.5628 291.242 19.4188 291.93 19.1308 292.538C18.8428 293.146 18.4001 293.626 17.8028 293.978C17.2161 294.33 16.4855 294.506 15.6108 294.506C14.4908 294.506 13.5841 294.218 12.8908 293.642C12.1975 293.066 11.7761 292.298 11.6268 291.338H13.0508C13.1895 291.946 13.4828 292.42 13.9308 292.762C14.3788 293.103 14.9441 293.274 15.6268 293.274C16.4695 293.274 17.1041 293.023 17.5308 292.522C17.9575 292.01 18.1708 291.338 18.1708 290.506C18.1708 289.674 17.9575 289.034 17.5308 288.586C17.1041 288.127 16.4748 287.898 15.6428 287.898C15.0775 287.898 14.5815 288.036 14.1548 288.314C13.7388 288.58 13.4348 288.948 13.2428 289.418H11.8668V282.89H18.8268V284.17ZM23.2417 292.458L21.4497 296.762H20.4737L21.6417 292.458H23.2417ZM24.6696 288.57C24.6696 286.735 24.9682 285.306 25.5656 284.282C26.1629 283.247 27.2082 282.73 28.7016 282.73C30.1842 282.73 31.2242 283.247 31.8216 284.282C32.4189 285.306 32.7176 286.735 32.7176 288.57C32.7176 290.436 32.4189 291.887 31.8216 292.922C31.2242 293.956 30.1842 294.474 28.7016 294.474C27.2082 294.474 26.1629 293.956 25.5656 292.922C24.9682 291.887 24.6696 290.436 24.6696 288.57ZM31.2776 288.57C31.2776 287.642 31.2136 286.858 31.0856 286.218C30.9682 285.567 30.7176 285.044 30.3336 284.65C29.9602 284.255 29.4162 284.058 28.7016 284.058C27.9762 284.058 27.4216 284.255 27.0376 284.65C26.6642 285.044 26.4136 285.567 26.2856 286.218C26.1682 286.858 26.1096 287.642 26.1096 288.57C26.1096 289.53 26.1682 290.335 26.2856 290.986C26.4136 291.636 26.6642 292.159 27.0376 292.554C27.4216 292.948 27.9762 293.146 28.7016 293.146C29.4162 293.146 29.9602 292.948 30.3336 292.554C30.7176 292.159 30.9682 291.636 31.0856 290.986C31.2136 290.335 31.2776 289.53 31.2776 288.57ZM34.7164 288.57C34.7164 286.735 35.0151 285.306 35.6124 284.282C36.2098 283.247 37.2551 282.73 38.7484 282.73C40.2311 282.73 41.2711 283.247 41.8684 284.282C42.4658 285.306 42.7644 286.735 42.7644 288.57C42.7644 290.436 42.4658 291.887 41.8684 292.922C41.2711 293.956 40.2311 294.474 38.7484 294.474C37.2551 294.474 36.2098 293.956 35.6124 292.922C35.0151 291.887 34.7164 290.436 34.7164 288.57ZM41.3244 288.57C41.3244 287.642 41.2604 286.858 41.1324 286.218C41.0151 285.567 40.7644 285.044 40.3804 284.65C40.0071 284.255 39.4631 284.058 38.7484 284.058C38.0231 284.058 37.4684 284.255 37.0844 284.65C36.7111 285.044 36.4604 285.567 36.3324 286.218C36.2151 286.858 36.1564 287.642 36.1564 288.57C36.1564 289.53 36.2151 290.335 36.3324 290.986C36.4604 291.636 36.7111 292.159 37.0844 292.554C37.4684 292.948 38.0231 293.146 38.7484 293.146C39.4631 293.146 40.0071 292.948 40.3804 292.554C40.7644 292.159 41.0151 291.636 41.1324 290.986C41.2604 290.335 41.3244 289.53 41.3244 288.57ZM44.7633 288.57C44.7633 286.735 45.062 285.306 45.6593 284.282C46.2566 283.247 47.302 282.73 48.7953 282.73C50.278 282.73 51.318 283.247 51.9153 284.282C52.5126 285.306 52.8113 286.735 52.8113 288.57C52.8113 290.436 52.5126 291.887 51.9153 292.922C51.318 293.956 50.278 294.474 48.7953 294.474C47.302 294.474 46.2566 293.956 45.6593 292.922C45.062 291.887 44.7633 290.436 44.7633 288.57ZM51.3713 288.57C51.3713 287.642 51.3073 286.858 51.1793 286.218C51.062 285.567 50.8113 285.044 50.4273 284.65C50.054 284.255 49.51 284.058 48.7953 284.058C48.07 284.058 47.5153 284.255 47.1313 284.65C46.758 285.044 46.5073 285.567 46.3793 286.218C46.262 286.858 46.2033 287.642 46.2033 288.57C46.2033 289.53 46.262 290.335 46.3793 290.986C46.5073 291.636 46.758 292.159 47.1313 292.554C47.5153 292.948 48.07 293.146 48.7953 293.146C49.51 293.146 50.054 292.948 50.4273 292.554C50.8113 292.159 51.062 291.636 51.1793 290.986C51.3073 290.335 51.3713 289.53 51.3713 288.57Z" fill="#808080" fill-opacity="0.69"/>
<path d="M18.8268 367.588H13.2108V371.236C13.4561 370.894 13.8188 370.617 14.2988 370.404C14.7788 370.18 15.2961 370.068 15.8508 370.068C16.7361 370.068 17.4561 370.254 18.0108 370.628C18.5655 370.99 18.9601 371.465 19.1948 372.052C19.4401 372.628 19.5628 373.241 19.5628 373.892C19.5628 374.66 19.4188 375.348 19.1308 375.956C18.8428 376.564 18.4001 377.044 17.8028 377.396C17.2161 377.748 16.4855 377.924 15.6108 377.924C14.4908 377.924 13.5841 377.636 12.8908 377.06C12.1975 376.484 11.7761 375.716 11.6268 374.756H13.0508C13.1895 375.364 13.4828 375.838 13.9308 376.18C14.3788 376.521 14.9441 376.692 15.6268 376.692C16.4695 376.692 17.1041 376.441 17.5308 375.94C17.9575 375.428 18.1708 374.756 18.1708 373.924C18.1708 373.092 17.9575 372.452 17.5308 372.004C17.1041 371.545 16.4748 371.316 15.6428 371.316C15.0775 371.316 14.5815 371.454 14.1548 371.732C13.7388 371.998 13.4348 372.366 13.2428 372.836H11.8668V366.308H18.8268V367.588ZM23.2417 375.876L21.4497 380.18H20.4737L21.6417 375.876H23.2417ZM24.6696 371.988C24.6696 370.153 24.9682 368.724 25.5656 367.7C26.1629 366.665 27.2082 366.148 28.7016 366.148C30.1842 366.148 31.2242 366.665 31.8216 367.7C32.4189 368.724 32.7176 370.153 32.7176 371.988C32.7176 373.854 32.4189 375.305 31.8216 376.34C31.2242 377.374 30.1842 377.892 28.7016 377.892C27.2082 377.892 26.1629 377.374 25.5656 376.34C24.9682 375.305 24.6696 373.854 24.6696 371.988ZM31.2776 371.988C31.2776 371.06 31.2136 370.276 31.0856 369.636C30.9682 368.985 30.7176 368.462 30.3336 368.068C29.9602 367.673 29.4162 367.476 28.7016 367.476C27.9762 367.476 27.4216 367.673 27.0376 368.068C26.6642 368.462 26.4136 368.985 26.2856 369.636C26.1682 370.276 26.1096 371.06 26.1096 371.988C26.1096 372.948 26.1682 373.753 26.2856 374.404C26.4136 375.054 26.6642 375.577 27.0376 375.972C27.4216 376.366 27.9762 376.564 28.7016 376.564C29.4162 376.564 29.9602 376.366 30.3336 375.972C30.7176 375.577 30.9682 375.054 31.0856 374.404C31.2136 373.753 31.2776 372.948 31.2776 371.988ZM34.7164 371.988C34.7164 370.153 35.0151 368.724 35.6124 367.7C36.2098 366.665 37.2551 366.148 38.7484 366.148C40.2311 366.148 41.2711 366.665 41.8684 367.7C42.4658 368.724 42.7644 370.153 42.7644 371.988C42.7644 373.854 42.4658 375.305 41.8684 376.34C41.2711 377.374 40.2311 377.892 38.7484 377.892C37.2551 377.892 36.2098 377.374 35.6124 376.34C35.0151 375.305 34.7164 373.854 34.7164 371.988ZM41.3244 371.988C41.3244 371.06 41.2604 370.276 41.1324 369.636C41.0151 368.985 40.7644 368.462 40.3804 368.068C40.0071 367.673 39.4631 367.476 38.7484 367.476C38.0231 367.476 37.4684 367.673 37.0844 368.068C36.7111 368.462 36.4604 368.985 36.3324 369.636C36.2151 370.276 36.1564 371.06 36.1564 371.988C36.1564 372.948 36.2151 373.753 36.3324 374.404C36.4604 375.054 36.7111 375.577 37.0844 375.972C37.4684 376.366 38.0231 376.564 38.7484 376.564C39.4631 376.564 40.0071 376.366 40.3804 375.972C40.7644 375.577 41.0151 375.054 41.1324 374.404C41.2604 373.753 41.3244 372.948 41.3244 371.988ZM44.7633 371.988C44.7633 370.153 45.062 368.724 45.6593 367.7C46.2566 366.665 47.302 366.148 48.7953 366.148C50.278 366.148 51.318 366.665 51.9153 367.7C52.5126 368.724 52.8113 370.153 52.8113 371.988C52.8113 373.854 52.5126 375.305 51.9153 376.34C51.318 377.374 50.278 377.892 48.7953 377.892C47.302 377.892 46.2566 377.374 45.6593 376.34C45.062 375.305 44.7633 373.854 44.7633 371.988ZM51.3713 371.988C51.3713 371.06 51.3073 370.276 51.1793 369.636C51.062 368.985 50.8113 368.462 50.4273 368.068C50.054 367.673 49.51 367.476 48.7953 367.476C48.07 367.476 47.5153 367.673 47.1313 368.068C46.758 368.462 46.5073 368.985 46.3793 369.636C46.262 370.276 46.2033 371.06 46.2033 371.988C46.2033 372.948 46.262 373.753 46.3793 374.404C46.5073 375.054 46.758 375.577 47.1313 375.972C47.5153 376.366 48.07 376.564 48.7953 376.564C49.51 376.564 50.054 376.366 50.4273 375.972C50.8113 375.577 51.062 375.054 51.1793 374.404C51.3073 373.753 51.3713 372.948 51.3713 371.988Z" fill="#808080" fill-opacity="0.69"/>
<path d="M1.03631 83.3517V82.2477L6.65231 74.4717H8.39631V82.0877H9.99631V83.3517H8.39631V85.9277H6.95631V83.3517H1.03631ZM7.02031 75.9917L2.71631 82.0877H7.02031V75.9917ZM18.8268 75.6237H13.2108V79.2717C13.4561 78.9304 13.8188 78.6531 14.2988 78.4397C14.7788 78.2157 15.2961 78.1037 15.8508 78.1037C16.7361 78.1037 17.4561 78.2904 18.0108 78.6637C18.5655 79.0264 18.9601 79.5011 19.1948 80.0877C19.4401 80.6637 19.5628 81.2771 19.5628 81.9277C19.5628 82.6957 19.4188 83.3837 19.1308 83.9917C18.8428 84.5997 18.4001 85.0797 17.8028 85.4317C17.2161 85.7837 16.4855 85.9597 15.6108 85.9597C14.4908 85.9597 13.5841 85.6717 12.8908 85.0957C12.1975 84.5197 11.7761 83.7517 11.6268 82.7917H13.0508C13.1895 83.3997 13.4828 83.8744 13.9308 84.2157C14.3788 84.5571 14.9441 84.7277 15.6268 84.7277C16.4695 84.7277 17.1041 84.4771 17.5308 83.9757C17.9575 83.4637 18.1708 82.7917 18.1708 81.9597C18.1708 81.1277 17.9575 80.4877 17.5308 80.0397C17.1041 79.5811 16.4748 79.3517 15.6428 79.3517C15.0775 79.3517 14.5815 79.4904 14.1548 79.7677C13.7388 80.0344 13.4348 80.4024 13.2428 80.8717H11.8668V74.3437H18.8268V75.6237ZM23.2417 83.9117L21.4497 88.2157H20.4737L21.6417 83.9117H23.2417ZM24.6696 80.0237C24.6696 78.1891 24.9682 76.7597 25.5656 75.7357C26.1629 74.7011 27.2082 74.1837 28.7016 74.1837C30.1842 74.1837 31.2242 74.7011 31.8216 75.7357C32.4189 76.7597 32.7176 78.1891 32.7176 80.0237C32.7176 81.8904 32.4189 83.3411 31.8216 84.3757C31.2242 85.4104 30.1842 85.9277 28.7016 85.9277C27.2082 85.9277 26.1629 85.4104 25.5656 84.3757C24.9682 83.3411 24.6696 81.8904 24.6696 80.0237ZM31.2776 80.0237C31.2776 79.0957 31.2136 78.3117 31.0856 77.6717C30.9682 77.0211 30.7176 76.4984 30.3336 76.1037C29.9602 75.7091 29.4162 75.5117 28.7016 75.5117C27.9762 75.5117 27.4216 75.7091 27.0376 76.1037C26.6642 76.4984 26.4136 77.0211 26.2856 77.6717C26.1682 78.3117 26.1096 79.0957 26.1096 80.0237C26.1096 80.9837 26.1682 81.7891 26.2856 82.4397C26.4136 83.0904 26.6642 83.6131 27.0376 84.0077C27.4216 84.4024 27.9762 84.5997 28.7016 84.5997C29.4162 84.5997 29.9602 84.4024 30.3336 84.0077C30.7176 83.6131 30.9682 83.0904 31.0856 82.4397C31.2136 81.7891 31.2776 80.9837 31.2776 80.0237ZM34.7164 80.0237C34.7164 78.1891 35.0151 76.7597 35.6124 75.7357C36.2098 74.7011 37.2551 74.1837 38.7484 74.1837C40.2311 74.1837 41.2711 74.7011 41.8684 75.7357C42.4658 76.7597 42.7644 78.1891 42.7644 80.0237C42.7644 81.8904 42.4658 83.3411 41.8684 84.3757C41.2711 85.4104 40.2311 85.9277 38.7484 85.9277C37.2551 85.9277 36.2098 85.4104 35.6124 84.3757C35.0151 83.3411 34.7164 81.8904 34.7164 80.0237ZM41.3244 80.0237C41.3244 79.0957 41.2604 78.3117 41.1324 77.6717C41.0151 77.0211 40.7644 76.4984 40.3804 76.1037C40.0071 75.7091 39.4631 75.5117 38.7484 75.5117C38.0231 75.5117 37.4684 75.7091 37.0844 76.1037C36.7111 76.4984 36.4604 77.0211 36.3324 77.6717C36.2151 78.3117 36.1564 79.0957 36.1564 80.0237C36.1564 80.9837 36.2151 81.7891 36.3324 82.4397C36.4604 83.0904 36.7111 83.6131 37.0844 84.0077C37.4684 84.4024 38.0231 84.5997 38.7484 84.5997C39.4631 84.5997 40.0071 84.4024 40.3804 84.0077C40.7644 83.6131 41.0151 83.0904 41.1324 82.4397C41.2604 81.7891 41.3244 80.9837 41.3244 80.0237ZM44.7633 80.0237C44.7633 78.1891 45.062 76.7597 45.6593 75.7357C46.2566 74.7011 47.302 74.1837 48.7953 74.1837C50.278 74.1837 51.318 74.7011 51.9153 75.7357C52.5126 76.7597 52.8113 78.1891 52.8113 80.0237C52.8113 81.8904 52.5126 83.3411 51.9153 84.3757C51.318 85.4104 50.278 85.9277 48.7953 85.9277C47.302 85.9277 46.2566 85.4104 45.6593 84.3757C45.062 83.3411 44.7633 81.8904 44.7633 80.0237ZM51.3713 80.0237C51.3713 79.0957 51.3073 78.3117 51.1793 77.6717C51.062 77.0211 50.8113 76.4984 50.4273 76.1037C50.054 75.7091 49.51 75.5117 48.7953 75.5117C48.07 75.5117 47.5153 75.7091 47.1313 76.1037C46.758 76.4984 46.5073 77.0211 46.3793 77.6717C46.262 78.3117 46.2033 79.0957 46.2033 80.0237C46.2033 80.9837 46.262 81.7891 46.3793 82.4397C46.5073 83.0904 46.758 83.6131 47.1313 84.0077C47.5153 84.4024 48.07 84.5997 48.7953 84.5997C49.51 84.5997 50.054 84.4024 50.4273 84.0077C50.8113 83.6131 51.062 83.0904 51.1793 82.4397C51.3073 81.7891 51.3713 80.9837 51.3713 80.0237Z" fill="#808080" fill-opacity="0.69"/>
<path d="M2.07168 251.596C3.42635 250.508 4.48768 249.617 5.25568 248.924C6.02368 248.22 6.66901 247.489 7.19168 246.732C7.72501 245.964 7.99168 245.212 7.99168 244.476C7.99168 243.782 7.82101 243.238 7.47968 242.844C7.14901 242.438 6.61035 242.236 5.86368 242.236C5.13835 242.236 4.57301 242.465 4.16768 242.924C3.77301 243.372 3.55968 243.974 3.52768 244.732H2.11968C2.16235 243.537 2.52501 242.614 3.20768 241.964C3.89035 241.313 4.77035 240.988 5.84768 240.988C6.94635 240.988 7.81568 241.292 8.45568 241.9C9.10635 242.508 9.43168 243.345 9.43168 244.412C9.43168 245.297 9.16501 246.161 8.63168 247.004C8.10901 247.836 7.51168 248.572 6.83968 249.212C6.16768 249.841 5.30901 250.577 4.26368 251.42H9.76768V252.636H2.07168V251.596ZM18.8268 242.46H13.2108V246.108C13.4561 245.766 13.8188 245.489 14.2988 245.276C14.7788 245.052 15.2961 244.94 15.8508 244.94C16.7361 244.94 17.4561 245.126 18.0108 245.5C18.5655 245.862 18.9601 246.337 19.1948 246.924C19.4401 247.5 19.5628 248.113 19.5628 248.764C19.5628 249.532 19.4188 250.22 19.1308 250.828C18.8428 251.436 18.4001 251.916 17.8028 252.268C17.2161 252.62 16.4855 252.796 15.6108 252.796C14.4908 252.796 13.5841 252.508 12.8908 251.932C12.1975 251.356 11.7761 250.588 11.6268 249.628H13.0508C13.1895 250.236 13.4828 250.71 13.9308 251.052C14.3788 251.393 14.9441 251.564 15.6268 251.564C16.4695 251.564 17.1041 251.313 17.5308 250.812C17.9575 250.3 18.1708 249.628 18.1708 248.796C18.1708 247.964 17.9575 247.324 17.5308 246.876C17.1041 246.417 16.4748 246.188 15.6428 246.188C15.0775 246.188 14.5815 246.326 14.1548 246.604C13.7388 246.87 13.4348 247.238 13.2428 247.708H11.8668V241.18H18.8268V242.46ZM23.2417 250.748L21.4497 255.052H20.4737L21.6417 250.748H23.2417ZM24.6696 246.86C24.6696 245.025 24.9682 243.596 25.5656 242.572C26.1629 241.537 27.2082 241.02 28.7016 241.02C30.1842 241.02 31.2242 241.537 31.8216 242.572C32.4189 243.596 32.7176 245.025 32.7176 246.86C32.7176 248.726 32.4189 250.177 31.8216 251.212C31.2242 252.246 30.1842 252.764 28.7016 252.764C27.2082 252.764 26.1629 252.246 25.5656 251.212C24.9682 250.177 24.6696 248.726 24.6696 246.86ZM31.2776 246.86C31.2776 245.932 31.2136 245.148 31.0856 244.508C30.9682 243.857 30.7176 243.334 30.3336 242.94C29.9602 242.545 29.4162 242.348 28.7016 242.348C27.9762 242.348 27.4216 242.545 27.0376 242.94C26.6642 243.334 26.4136 243.857 26.2856 244.508C26.1682 245.148 26.1096 245.932 26.1096 246.86C26.1096 247.82 26.1682 248.625 26.2856 249.276C26.4136 249.926 26.6642 250.449 27.0376 250.844C27.4216 251.238 27.9762 251.436 28.7016 251.436C29.4162 251.436 29.9602 251.238 30.3336 250.844C30.7176 250.449 30.9682 249.926 31.0856 249.276C31.2136 248.625 31.2776 247.82 31.2776 246.86ZM34.7164 246.86C34.7164 245.025 35.0151 243.596 35.6124 242.572C36.2098 241.537 37.2551 241.02 38.7484 241.02C40.2311 241.02 41.2711 241.537 41.8684 242.572C42.4658 243.596 42.7644 245.025 42.7644 246.86C42.7644 248.726 42.4658 250.177 41.8684 251.212C41.2711 252.246 40.2311 252.764 38.7484 252.764C37.2551 252.764 36.2098 252.246 35.6124 251.212C35.0151 250.177 34.7164 248.726 34.7164 246.86ZM41.3244 246.86C41.3244 245.932 41.2604 245.148 41.1324 244.508C41.0151 243.857 40.7644 243.334 40.3804 242.94C40.0071 242.545 39.4631 242.348 38.7484 242.348C38.0231 242.348 37.4684 242.545 37.0844 242.94C36.7111 243.334 36.4604 243.857 36.3324 244.508C36.2151 245.148 36.1564 245.932 36.1564 246.86C36.1564 247.82 36.2151 248.625 36.3324 249.276C36.4604 249.926 36.7111 250.449 37.0844 250.844C37.4684 251.238 38.0231 251.436 38.7484 251.436C39.4631 251.436 40.0071 251.238 40.3804 250.844C40.7644 250.449 41.0151 249.926 41.1324 249.276C41.2604 248.625 41.3244 247.82 41.3244 246.86ZM44.7633 246.86C44.7633 245.025 45.062 243.596 45.6593 242.572C46.2566 241.537 47.302 241.02 48.7953 241.02C50.278 241.02 51.318 241.537 51.9153 242.572C52.5126 243.596 52.8113 245.025 52.8113 246.86C52.8113 248.726 52.5126 250.177 51.9153 251.212C51.318 252.246 50.278 252.764 48.7953 252.764C47.302 252.764 46.2566 252.246 45.6593 251.212C45.062 250.177 44.7633 248.726 44.7633 246.86ZM51.3713 246.86C51.3713 245.932 51.3073 245.148 51.1793 244.508C51.062 243.857 50.8113 243.334 50.4273 242.94C50.054 242.545 49.51 242.348 48.7953 242.348C48.07 242.348 47.5153 242.545 47.1313 242.94C46.758 243.334 46.5073 243.857 46.3793 244.508C46.262 245.148 46.2033 245.932 46.2033 246.86C46.2033 247.82 46.262 248.625 46.3793 249.276C46.5073 249.926 46.758 250.449 47.1313 250.844C47.5153 251.238 48.07 251.436 48.7953 251.436C49.51 251.436 50.054 251.238 50.4273 250.844C50.8113 250.449 51.062 249.926 51.1793 249.276C51.3073 248.625 51.3713 247.82 51.3713 246.86Z" fill="#808080" fill-opacity="0.69"/>
<path d="M1.99693 160.69C2.0716 159.709 2.45026 158.941 3.13293 158.386C3.8156 157.831 4.70093 157.554 5.78893 157.554C6.51426 157.554 7.13826 157.687 7.66093 157.954C8.19426 158.21 8.59426 158.562 8.86093 159.01C9.13826 159.458 9.27693 159.965 9.27693 160.53C9.27693 161.191 9.08493 161.762 8.70093 162.242C8.3276 162.722 7.83693 163.031 7.22893 163.17V163.25C7.92226 163.421 8.4716 163.757 8.87693 164.258C9.28226 164.759 9.48493 165.415 9.48493 166.226C9.48493 166.834 9.34626 167.383 9.06893 167.874C8.7916 168.354 8.3756 168.733 7.82093 169.01C7.26626 169.287 6.5996 169.426 5.82093 169.426C4.69026 169.426 3.76226 169.133 3.03693 168.546C2.3116 167.949 1.90626 167.106 1.82093 166.018H3.22893C3.3036 166.658 3.56493 167.181 4.01293 167.586C4.46093 167.991 5.05826 168.194 5.80493 168.194C6.5516 168.194 7.11693 168.002 7.50093 167.618C7.8956 167.223 8.09293 166.717 8.09293 166.098C8.09293 165.298 7.82626 164.722 7.29293 164.37C6.7596 164.018 5.95426 163.842 4.87693 163.842H4.50893V162.626H4.89293C5.87426 162.615 6.6156 162.455 7.11693 162.146C7.61826 161.826 7.86893 161.335 7.86893 160.674C7.86893 160.109 7.68226 159.655 7.30893 159.314C6.94626 158.973 6.4236 158.802 5.74093 158.802C5.0796 158.802 4.54626 158.973 4.14093 159.314C3.7356 159.655 3.4956 160.114 3.42093 160.69H1.99693ZM18.8268 159.042H13.2108V162.69C13.4561 162.349 13.8188 162.071 14.2988 161.858C14.7788 161.634 15.2961 161.522 15.8508 161.522C16.7361 161.522 17.4561 161.709 18.0108 162.082C18.5655 162.445 18.9601 162.919 19.1948 163.506C19.4401 164.082 19.5628 164.695 19.5628 165.346C19.5628 166.114 19.4188 166.802 19.1308 167.41C18.8428 168.018 18.4001 168.498 17.8028 168.85C17.2161 169.202 16.4855 169.378 15.6108 169.378C14.4908 169.378 13.5841 169.09 12.8908 168.514C12.1975 167.938 11.7761 167.17 11.6268 166.21H13.0508C13.1895 166.818 13.4828 167.293 13.9308 167.634C14.3788 167.975 14.9441 168.146 15.6268 168.146C16.4695 168.146 17.1041 167.895 17.5308 167.394C17.9575 166.882 18.1708 166.21 18.1708 165.378C18.1708 164.546 17.9575 163.906 17.5308 163.458C17.1041 162.999 16.4748 162.77 15.6428 162.77C15.0775 162.77 14.5815 162.909 14.1548 163.186C13.7388 163.453 13.4348 163.821 13.2428 164.29H11.8668V157.762H18.8268V159.042ZM23.2417 167.33L21.4497 171.634H20.4737L21.6417 167.33H23.2417ZM24.6696 163.442C24.6696 161.607 24.9682 160.178 25.5656 159.154C26.1629 158.119 27.2082 157.602 28.7016 157.602C30.1842 157.602 31.2242 158.119 31.8216 159.154C32.4189 160.178 32.7176 161.607 32.7176 163.442C32.7176 165.309 32.4189 166.759 31.8216 167.794C31.2242 168.829 30.1842 169.346 28.7016 169.346C27.2082 169.346 26.1629 168.829 25.5656 167.794C24.9682 166.759 24.6696 165.309 24.6696 163.442ZM31.2776 163.442C31.2776 162.514 31.2136 161.73 31.0856 161.09C30.9682 160.439 30.7176 159.917 30.3336 159.522C29.9602 159.127 29.4162 158.93 28.7016 158.93C27.9762 158.93 27.4216 159.127 27.0376 159.522C26.6642 159.917 26.4136 160.439 26.2856 161.09C26.1682 161.73 26.1096 162.514 26.1096 163.442C26.1096 164.402 26.1682 165.207 26.2856 165.858C26.4136 166.509 26.6642 167.031 27.0376 167.426C27.4216 167.821 27.9762 168.018 28.7016 168.018C29.4162 168.018 29.9602 167.821 30.3336 167.426C30.7176 167.031 30.9682 166.509 31.0856 165.858C31.2136 165.207 31.2776 164.402 31.2776 163.442ZM34.7164 163.442C34.7164 161.607 35.0151 160.178 35.6124 159.154C36.2098 158.119 37.2551 157.602 38.7484 157.602C40.2311 157.602 41.2711 158.119 41.8684 159.154C42.4658 160.178 42.7644 161.607 42.7644 163.442C42.7644 165.309 42.4658 166.759 41.8684 167.794C41.2711 168.829 40.2311 169.346 38.7484 169.346C37.2551 169.346 36.2098 168.829 35.6124 167.794C35.0151 166.759 34.7164 165.309 34.7164 163.442ZM41.3244 163.442C41.3244 162.514 41.2604 161.73 41.1324 161.09C41.0151 160.439 40.7644 159.917 40.3804 159.522C40.0071 159.127 39.4631 158.93 38.7484 158.93C38.0231 158.93 37.4684 159.127 37.0844 159.522C36.7111 159.917 36.4604 160.439 36.3324 161.09C36.2151 161.73 36.1564 162.514 36.1564 163.442C36.1564 164.402 36.2151 165.207 36.3324 165.858C36.4604 166.509 36.7111 167.031 37.0844 167.426C37.4684 167.821 38.0231 168.018 38.7484 168.018C39.4631 168.018 40.0071 167.821 40.3804 167.426C40.7644 167.031 41.0151 166.509 41.1324 165.858C41.2604 165.207 41.3244 164.402 41.3244 163.442ZM44.7633 163.442C44.7633 161.607 45.062 160.178 45.6593 159.154C46.2566 158.119 47.302 157.602 48.7953 157.602C50.278 157.602 51.318 158.119 51.9153 159.154C52.5126 160.178 52.8113 161.607 52.8113 163.442C52.8113 165.309 52.5126 166.759 51.9153 167.794C51.318 168.829 50.278 169.346 48.7953 169.346C47.302 169.346 46.2566 168.829 45.6593 167.794C45.062 166.759 44.7633 165.309 44.7633 163.442ZM51.3713 163.442C51.3713 162.514 51.3073 161.73 51.1793 161.09C51.062 160.439 50.8113 159.917 50.4273 159.522C50.054 159.127 49.51 158.93 48.7953 158.93C48.07 158.93 47.5153 159.127 47.1313 159.522C46.758 159.917 46.5073 160.439 46.3793 161.09C46.262 161.73 46.2033 162.514 46.2033 163.442C46.2033 164.402 46.262 165.207 46.3793 165.858C46.5073 166.509 46.758 167.031 47.1313 167.426C47.5153 167.821 48.07 168.018 48.7953 168.018C49.51 168.018 50.054 167.821 50.4273 167.426C50.8113 167.031 51.062 166.509 51.1793 165.858C51.3073 165.207 51.3713 164.402 51.3713 163.442Z" fill="#808080" fill-opacity="0.69"/>
<path d="M5.94181 325.943V324.615H8.94981V336.183H7.47781V325.943H5.94181ZM11.4508 330.279C11.4508 328.444 11.7495 327.015 12.3468 325.991C12.9441 324.956 13.9895 324.439 15.4828 324.439C16.9655 324.439 18.0055 324.956 18.6028 325.991C19.2001 327.015 19.4988 328.444 19.4988 330.279C19.4988 332.145 19.2001 333.596 18.6028 334.631C18.0055 335.665 16.9655 336.183 15.4828 336.183C13.9895 336.183 12.9441 335.665 12.3468 334.631C11.7495 333.596 11.4508 332.145 11.4508 330.279ZM18.0588 330.279C18.0588 329.351 17.9948 328.567 17.8668 327.927C17.7495 327.276 17.4988 326.753 17.1148 326.359C16.7415 325.964 16.1975 325.767 15.4828 325.767C14.7575 325.767 14.2028 325.964 13.8188 326.359C13.4455 326.753 13.1948 327.276 13.0668 327.927C12.9495 328.567 12.8908 329.351 12.8908 330.279C12.8908 331.239 12.9495 332.044 13.0668 332.695C13.1948 333.345 13.4455 333.868 13.8188 334.263C14.2028 334.657 14.7575 334.855 15.4828 334.855C16.1975 334.855 16.7415 334.657 17.1148 334.263C17.4988 333.868 17.7495 333.345 17.8668 332.695C17.9948 332.044 18.0588 331.239 18.0588 330.279ZM23.2417 334.167L21.4497 338.471H20.4737L21.6417 334.167H23.2417ZM24.6696 330.279C24.6696 328.444 24.9682 327.015 25.5656 325.991C26.1629 324.956 27.2082 324.439 28.7016 324.439C30.1842 324.439 31.2242 324.956 31.8216 325.991C32.4189 327.015 32.7176 328.444 32.7176 330.279C32.7176 332.145 32.4189 333.596 31.8216 334.631C31.2242 335.665 30.1842 336.183 28.7016 336.183C27.2082 336.183 26.1629 335.665 25.5656 334.631C24.9682 333.596 24.6696 332.145 24.6696 330.279ZM31.2776 330.279C31.2776 329.351 31.2136 328.567 31.0856 327.927C30.9682 327.276 30.7176 326.753 30.3336 326.359C29.9602 325.964 29.4162 325.767 28.7016 325.767C27.9762 325.767 27.4216 325.964 27.0376 326.359C26.6642 326.753 26.4136 327.276 26.2856 327.927C26.1682 328.567 26.1096 329.351 26.1096 330.279C26.1096 331.239 26.1682 332.044 26.2856 332.695C26.4136 333.345 26.6642 333.868 27.0376 334.263C27.4216 334.657 27.9762 334.855 28.7016 334.855C29.4162 334.855 29.9602 334.657 30.3336 334.263C30.7176 333.868 30.9682 333.345 31.0856 332.695C31.2136 332.044 31.2776 331.239 31.2776 330.279ZM34.7164 330.279C34.7164 328.444 35.0151 327.015 35.6124 325.991C36.2098 324.956 37.2551 324.439 38.7484 324.439C40.2311 324.439 41.2711 324.956 41.8684 325.991C42.4658 327.015 42.7644 328.444 42.7644 330.279C42.7644 332.145 42.4658 333.596 41.8684 334.631C41.2711 335.665 40.2311 336.183 38.7484 336.183C37.2551 336.183 36.2098 335.665 35.6124 334.631C35.0151 333.596 34.7164 332.145 34.7164 330.279ZM41.3244 330.279C41.3244 329.351 41.2604 328.567 41.1324 327.927C41.0151 327.276 40.7644 326.753 40.3804 326.359C40.0071 325.964 39.4631 325.767 38.7484 325.767C38.0231 325.767 37.4684 325.964 37.0844 326.359C36.7111 326.753 36.4604 327.276 36.3324 327.927C36.2151 328.567 36.1564 329.351 36.1564 330.279C36.1564 331.239 36.2151 332.044 36.3324 332.695C36.4604 333.345 36.7111 333.868 37.0844 334.263C37.4684 334.657 38.0231 334.855 38.7484 334.855C39.4631 334.855 40.0071 334.657 40.3804 334.263C40.7644 333.868 41.0151 333.345 41.1324 332.695C41.2604 332.044 41.3244 331.239 41.3244 330.279ZM44.7633 330.279C44.7633 328.444 45.062 327.015 45.6593 325.991C46.2566 324.956 47.302 324.439 48.7953 324.439C50.278 324.439 51.318 324.956 51.9153 325.991C52.5126 327.015 52.8113 328.444 52.8113 330.279C52.8113 332.145 52.5126 333.596 51.9153 334.631C51.318 335.665 50.278 336.183 48.7953 336.183C47.302 336.183 46.2566 335.665 45.6593 334.631C45.062 333.596 44.7633 332.145 44.7633 330.279ZM51.3713 330.279C51.3713 329.351 51.3073 328.567 51.1793 327.927C51.062 327.276 50.8113 326.753 50.4273 326.359C50.054 325.964 49.51 325.767 48.7953 325.767C48.07 325.767 47.5153 325.964 47.1313 326.359C46.758 326.753 46.5073 327.276 46.3793 327.927C46.262 328.567 46.2033 329.351 46.2033 330.279C46.2033 331.239 46.262 332.044 46.3793 332.695C46.5073 333.345 46.758 333.868 47.1313 334.263C47.5153 334.657 48.07 334.855 48.7953 334.855C49.51 334.855 50.054 334.657 50.4273 334.263C50.8113 333.868 51.062 333.345 51.1793 332.695C51.3073 332.044 51.3713 331.239 51.3713 330.279Z" fill="#808080" fill-opacity="0.69"/>
<path d="M34.7164 413.697C34.7164 411.862 35.0151 410.433 35.6124 409.409C36.2098 408.374 37.2551 407.857 38.7484 407.857C40.2311 407.857 41.2711 408.374 41.8684 409.409C42.4658 410.433 42.7644 411.862 42.7644 413.697C42.7644 415.563 42.4658 417.014 41.8684 418.049C41.2711 419.083 40.2311 419.601 38.7484 419.601C37.2551 419.601 36.2098 419.083 35.6124 418.049C35.0151 417.014 34.7164 415.563 34.7164 413.697ZM41.3244 413.697C41.3244 412.769 41.2604 411.985 41.1324 411.345C41.0151 410.694 40.7644 410.171 40.3804 409.777C40.0071 409.382 39.4631 409.185 38.7484 409.185C38.0231 409.185 37.4684 409.382 37.0844 409.777C36.7111 410.171 36.4604 410.694 36.3324 411.345C36.2151 411.985 36.1564 412.769 36.1564 413.697C36.1564 414.657 36.2151 415.462 36.3324 416.113C36.4604 416.763 36.7111 417.286 37.0844 417.681C37.4684 418.075 38.0231 418.273 38.7484 418.273C39.4631 418.273 40.0071 418.075 40.3804 417.681C40.7644 417.286 41.0151 416.763 41.1324 416.113C41.2604 415.462 41.3244 414.657 41.3244 413.697ZM44.7633 413.697C44.7633 411.862 45.062 410.433 45.6593 409.409C46.2566 408.374 47.302 407.857 48.7953 407.857C50.278 407.857 51.318 408.374 51.9153 409.409C52.5126 410.433 52.8113 411.862 52.8113 413.697C52.8113 415.563 52.5126 417.014 51.9153 418.049C51.318 419.083 50.278 419.601 48.7953 419.601C47.302 419.601 46.2566 419.083 45.6593 418.049C45.062 417.014 44.7633 415.563 44.7633 413.697ZM51.3713 413.697C51.3713 412.769 51.3073 411.985 51.1793 411.345C51.062 410.694 50.8113 410.171 50.4273 409.777C50.054 409.382 49.51 409.185 48.7953 409.185C48.07 409.185 47.5153 409.382 47.1313 409.777C46.758 410.171 46.5073 410.694 46.3793 411.345C46.262 411.985 46.2033 412.769 46.2033 413.697C46.2033 414.657 46.262 415.462 46.3793 416.113C46.5073 416.763 46.758 417.286 47.1313 417.681C47.5153 418.075 48.07 418.273 48.7953 418.273C49.51 418.273 50.054 418.075 50.4273 417.681C50.8113 417.286 51.062 416.763 51.1793 416.113C51.3073 415.462 51.3713 414.657 51.3713 413.697Z" fill="#808080" fill-opacity="0.69"/>
<line x1="977.473" y1="-1.55702e-10" x2="977.473" y2="414.4" stroke="black" stroke-opacity="0.09" stroke-width="1.34545"/>
<line x1="899.436" y1="-1.55702e-10" x2="899.436" y2="414.4" stroke="black" stroke-opacity="0.09" stroke-width="1.34545"/>
<line x1="821.4" y1="-1.55702e-10" x2="821.4" y2="414.4" stroke="black" stroke-opacity="0.09" stroke-width="1.34545"/>
<line x1="743.364" y1="-1.55702e-10" x2="743.364" y2="414.4" stroke="black" stroke-opacity="0.09" stroke-width="1.34545"/>
<line x1="665.328" y1="-1.55702e-10" x2="665.328" y2="414.4" stroke="black" stroke-opacity="0.09" stroke-width="1.34545"/>
<line x1="587.291" y1="-1.55702e-10" x2="587.291" y2="414.4" stroke="black" stroke-opacity="0.09" stroke-width="1.34545"/>
<line x1="509.255" y1="-1.55702e-10" x2="509.255" y2="414.4" stroke="black" stroke-opacity="0.09" stroke-width="1.34545"/>
<line x1="431.219" y1="-1.55702e-10" x2="431.219" y2="414.4" stroke="black" stroke-opacity="0.09" stroke-width="1.34545"/>
<line x1="353.182" y1="-1.55702e-10" x2="353.182" y2="414.4" stroke="black" stroke-opacity="0.09" stroke-width="1.34545"/>
<line x1="275.145" y1="-1.55702e-10" x2="275.145" y2="414.4" stroke="black" stroke-opacity="0.09" stroke-width="1.34545"/>
<line x1="197.109" y1="-1.55702e-10" x2="197.109" y2="414.4" stroke="black" stroke-opacity="0.09" stroke-width="1.34545"/>
<line x1="119.073" y1="-1.55702e-10" x2="119.073" y2="414.4" stroke="black" stroke-opacity="0.09" stroke-width="1.34545"/>
<line x1="80.7275" y1="38.3458" x2="1002.36" y2="38.3458" stroke="black" stroke-opacity="0.06" stroke-width="1.34545"/>
<line x1="80.7275" y1="81.3995" x2="1002.36" y2="81.3995" stroke="black" stroke-opacity="0.06" stroke-width="1.34545"/>
<line x1="80.7275" y1="123.109" x2="1002.36" y2="123.109" stroke="black" stroke-opacity="0.06" stroke-width="1.34545"/>
<line x1="80.7275" y1="164.818" x2="1002.36" y2="164.818" stroke="black" stroke-opacity="0.06" stroke-width="1.34545"/>
<line x1="80.7275" y1="206.527" x2="1002.36" y2="206.527" stroke="black" stroke-opacity="0.06" stroke-width="1.34545"/>
<line x1="80.7275" y1="248.236" x2="1002.36" y2="248.236" stroke="black" stroke-opacity="0.06" stroke-width="1.34545"/>
<path d="M81.873 287.356C124.522 268.074 224.33 215.686 282.371 160.39C340.413 105.094 382.212 54.9938 418.161 119.702C425.514 132.938 445.123 165.39 470.614 189.313C474.536 198.137 488.164 216.765 511.302 220.687C540.225 225.589 559.833 187.352 582.383 181.469C604.933 175.587 606.404 176.077 627.483 189.313C648.562 202.549 693.662 220.687 729.938 181.469C766.214 142.252 776.999 41.2677 823.57 56.4644C870.14 71.6611 883.866 168.234 920.142 189.313C956.418 210.392 984.851 221.177 1005.93 211.863C1022.79 204.412 1048.25 180.652 1058.87 169.704" stroke="#FFA1D4" stroke-width="2.94129"/>
<path d="M81.873 415.601C124.522 410.208 224.33 395.558 282.371 380.095C340.413 364.632 382.212 350.621 418.161 368.717C425.514 372.418 445.123 381.493 470.614 388.183C474.536 390.651 488.164 395.86 511.302 396.957C540.225 398.328 559.833 387.635 582.383 385.99C604.933 384.345 606.404 384.482 627.483 388.183C648.562 391.885 693.662 396.957 729.938 385.99C766.214 375.023 776.999 346.783 823.569 351.033C870.14 355.282 883.866 382.288 920.142 388.183C956.418 394.078 984.85 397.094 1005.93 394.489C1022.79 392.405 1048.25 385.761 1058.87 382.7" stroke="#CC1076" stroke-width="2.94129"/>
<path d="M81.873 415.601C124.522 404.982 224.33 376.133 282.371 345.682C340.413 315.231 382.212 287.641 418.161 323.276C425.514 330.564 445.123 348.436 470.614 361.609C474.536 366.469 488.164 376.727 511.302 378.887C540.225 381.586 559.833 360.53 582.383 357.29C604.933 354.051 606.404 354.321 627.483 361.609C648.562 368.898 693.662 378.887 729.938 357.29C766.214 335.694 776.999 280.083 823.569 288.451C870.14 296.82 883.866 350.001 920.142 361.609C956.418 373.217 984.85 379.157 1005.93 374.027C1022.79 369.924 1048.25 356.84 1058.87 350.811" stroke="#E9CCFF" stroke-width="2.94129"/>
<path d="M81.873 412.6C124.522 401.982 224.33 373.133 282.371 342.682C340.413 312.231 382.212 234.641 418.161 270.275C425.514 277.564 445.123 295.435 470.614 308.609C474.536 313.468 488.164 323.727 511.302 325.886C540.225 328.586 559.833 307.529 582.383 304.29C604.933 301.051 606.404 301.32 627.483 308.609C648.562 315.898 710.857 341.95 729.938 304.29C766.214 232.693 776.999 227.083 823.569 235.451C870.14 243.82 883.866 297.001 920.142 308.609C956.418 320.217 984.85 326.156 1005.93 321.027C1022.79 316.924 1048.25 303.84 1058.87 297.811" stroke="#6666FF" stroke-width="2.94129"/>
<line x1="80.7275" y1="289.945" x2="1002.36" y2="289.945" stroke="black" stroke-opacity="0.06" stroke-width="1.34545"/>
<line x1="80.7275" y1="331.654" x2="1002.36" y2="331.654" stroke="black" stroke-opacity="0.06" stroke-width="1.34545"/>
<line x1="80.7275" y1="373.364" x2="1002.36" y2="373.364" stroke="black" stroke-opacity="0.06" stroke-width="1.34545"/>
<path d="M110.483 452.848V461.088C110.483 462.005 110.2 462.741 109.635 463.296C109.069 463.84 108.323 464.112 107.395 464.112C106.456 464.112 105.704 463.835 105.139 463.28C104.573 462.715 104.291 461.947 104.291 460.976H105.747C105.757 461.52 105.896 461.963 106.163 462.304C106.44 462.645 106.851 462.816 107.395 462.816C107.939 462.816 108.344 462.656 108.611 462.336C108.877 462.005 109.011 461.589 109.011 461.088V452.848H110.483ZM112.807 459.584C112.807 458.688 112.988 457.904 113.351 457.232C113.714 456.549 114.21 456.021 114.839 455.648C115.479 455.275 116.188 455.088 116.967 455.088C117.735 455.088 118.402 455.253 118.967 455.584C119.532 455.915 119.954 456.331 120.231 456.832V455.232H121.703V464H120.231V462.368C119.943 462.88 119.511 463.307 118.935 463.648C118.37 463.979 117.708 464.144 116.951 464.144C116.172 464.144 115.468 463.952 114.839 463.568C114.21 463.184 113.714 462.645 113.351 461.952C112.988 461.259 112.807 460.469 112.807 459.584ZM120.231 459.6C120.231 458.939 120.098 458.363 119.831 457.872C119.564 457.381 119.202 457.008 118.743 456.752C118.295 456.485 117.799 456.352 117.255 456.352C116.711 456.352 116.215 456.48 115.767 456.736C115.319 456.992 114.962 457.365 114.695 457.856C114.428 458.347 114.295 458.923 114.295 459.584C114.295 460.256 114.428 460.843 114.695 461.344C114.962 461.835 115.319 462.213 115.767 462.48C116.215 462.736 116.711 462.864 117.255 462.864C117.799 462.864 118.295 462.736 118.743 462.48C119.202 462.213 119.564 461.835 119.831 461.344C120.098 460.843 120.231 460.261 120.231 459.6ZM128.436 455.072C129.502 455.072 130.366 455.397 131.028 456.048C131.689 456.688 132.02 457.616 132.02 458.832V464H130.58V459.04C130.58 458.165 130.361 457.499 129.924 457.04C129.486 456.571 128.889 456.336 128.132 456.336C127.364 456.336 126.75 456.576 126.292 457.056C125.844 457.536 125.62 458.235 125.62 459.152V464H124.164V455.232H125.62V456.48C125.908 456.032 126.297 455.685 126.788 455.44C127.289 455.195 127.838 455.072 128.436 455.072Z" fill="#808080" fill-opacity="0.69"/>
<path d="M426.285 452.928V464H424.829V455.744L421.149 464H420.125L416.429 455.728V464H414.973V452.928H416.541L420.637 462.08L424.733 452.928H426.285ZM428.21 459.584C428.21 458.688 428.392 457.904 428.754 457.232C429.117 456.549 429.613 456.021 430.242 455.648C430.882 455.275 431.592 455.088 432.37 455.088C433.138 455.088 433.805 455.253 434.37 455.584C434.936 455.915 435.357 456.331 435.634 456.832V455.232H437.106V464H435.634V462.368C435.346 462.88 434.914 463.307 434.338 463.648C433.773 463.979 433.112 464.144 432.354 464.144C431.576 464.144 430.872 463.952 430.242 463.568C429.613 463.184 429.117 462.645 428.754 461.952C428.392 461.259 428.21 460.469 428.21 459.584ZM435.634 459.6C435.634 458.939 435.501 458.363 435.234 457.872C434.968 457.381 434.605 457.008 434.146 456.752C433.698 456.485 433.202 456.352 432.658 456.352C432.114 456.352 431.618 456.48 431.17 456.736C430.722 456.992 430.365 457.365 430.098 457.856C429.832 458.347 429.698 458.923 429.698 459.584C429.698 460.256 429.832 460.843 430.098 461.344C430.365 461.835 430.722 462.213 431.17 462.48C431.618 462.736 432.114 462.864 432.658 462.864C433.202 462.864 433.698 462.736 434.146 462.48C434.605 462.213 434.968 461.835 435.234 461.344C435.501 460.843 435.634 460.261 435.634 459.6ZM447.119 455.232L441.839 468.128H440.335L442.063 463.904L438.527 455.232H440.143L442.895 462.336L445.615 455.232H447.119Z" fill="#808080" fill-opacity="0.69"/>
<path d="M732.397 464.112C731.661 464.112 730.999 463.984 730.413 463.728C729.837 463.461 729.383 463.099 729.053 462.64C728.722 462.171 728.551 461.632 728.541 461.024H730.093C730.146 461.547 730.359 461.989 730.733 462.352C731.117 462.704 731.671 462.88 732.397 462.88C733.09 462.88 733.634 462.709 734.029 462.368C734.434 462.016 734.637 461.568 734.637 461.024C734.637 460.597 734.519 460.251 734.285 459.984C734.05 459.717 733.757 459.515 733.405 459.376C733.053 459.237 732.578 459.088 731.981 458.928C731.245 458.736 730.653 458.544 730.205 458.352C729.767 458.16 729.389 457.861 729.069 457.456C728.759 457.04 728.605 456.485 728.605 455.792C728.605 455.184 728.759 454.645 729.069 454.176C729.378 453.707 729.81 453.344 730.365 453.088C730.93 452.832 731.575 452.704 732.301 452.704C733.346 452.704 734.199 452.965 734.861 453.488C735.533 454.011 735.911 454.704 735.997 455.568H734.397C734.343 455.141 734.119 454.768 733.725 454.448C733.33 454.117 732.807 453.952 732.157 453.952C731.549 453.952 731.053 454.112 730.669 454.432C730.285 454.741 730.093 455.179 730.093 455.744C730.093 456.149 730.205 456.48 730.429 456.736C730.663 456.992 730.946 457.189 731.277 457.328C731.618 457.456 732.093 457.605 732.701 457.776C733.437 457.979 734.029 458.181 734.477 458.384C734.925 458.576 735.309 458.88 735.629 459.296C735.949 459.701 736.109 460.256 736.109 460.96C736.109 461.504 735.965 462.016 735.677 462.496C735.389 462.976 734.962 463.365 734.397 463.664C733.831 463.963 733.165 464.112 732.397 464.112ZM746.251 459.28C746.251 459.557 746.235 459.851 746.203 460.16H739.195C739.249 461.024 739.542 461.701 740.075 462.192C740.619 462.672 741.275 462.912 742.043 462.912C742.673 462.912 743.195 462.768 743.611 462.48C744.038 462.181 744.337 461.787 744.507 461.296H746.075C745.841 462.139 745.371 462.827 744.667 463.36C743.963 463.883 743.089 464.144 742.043 464.144C741.211 464.144 740.465 463.957 739.803 463.584C739.153 463.211 738.641 462.683 738.267 462C737.894 461.307 737.707 460.507 737.707 459.6C737.707 458.693 737.889 457.899 738.251 457.216C738.614 456.533 739.121 456.011 739.771 455.648C740.433 455.275 741.19 455.088 742.043 455.088C742.875 455.088 743.611 455.269 744.251 455.632C744.891 455.995 745.382 456.496 745.723 457.136C746.075 457.765 746.251 458.48 746.251 459.28ZM744.747 458.976C744.747 458.421 744.625 457.947 744.379 457.552C744.134 457.147 743.798 456.843 743.371 456.64C742.955 456.427 742.491 456.32 741.979 456.32C741.243 456.32 740.614 456.555 740.091 457.024C739.579 457.493 739.286 458.144 739.211 458.976H744.747ZM749.629 456.848C749.917 456.347 750.344 455.931 750.909 455.6C751.485 455.259 752.152 455.088 752.909 455.088C753.688 455.088 754.392 455.275 755.021 455.648C755.661 456.021 756.163 456.549 756.525 457.232C756.888 457.904 757.069 458.688 757.069 459.584C757.069 460.469 756.888 461.259 756.525 461.952C756.163 462.645 755.661 463.184 755.021 463.568C754.392 463.952 753.688 464.144 752.909 464.144C752.163 464.144 751.501 463.979 750.925 463.648C750.36 463.307 749.928 462.885 749.629 462.384V468.16H748.173V455.232H749.629V456.848ZM755.581 459.584C755.581 458.923 755.448 458.347 755.181 457.856C754.915 457.365 754.552 456.992 754.093 456.736C753.645 456.48 753.149 456.352 752.605 456.352C752.072 456.352 751.576 456.485 751.117 456.752C750.669 457.008 750.307 457.387 750.029 457.888C749.763 458.379 749.629 458.949 749.629 459.6C749.629 460.261 749.763 460.843 750.029 461.344C750.307 461.835 750.669 462.213 751.117 462.48C751.576 462.736 752.072 462.864 752.605 462.864C753.149 462.864 753.645 462.736 754.093 462.48C754.552 462.213 754.915 461.835 755.181 461.344C755.448 460.843 755.581 460.256 755.581 459.584Z" fill="#808080" fill-opacity="0.69"/>
<path d="M271.736 452.928V464H270.28V455.744L266.6 464H265.576L261.88 455.728V464H260.424V452.928H261.992L266.088 462.08L270.184 452.928H271.736ZM273.662 459.584C273.662 458.688 273.843 457.904 274.206 457.232C274.568 456.549 275.064 456.021 275.694 455.648C276.334 455.275 277.043 455.088 277.822 455.088C278.59 455.088 279.256 455.253 279.822 455.584C280.387 455.915 280.808 456.331 281.086 456.832V455.232H282.558V464H281.086V462.368C280.798 462.88 280.366 463.307 279.79 463.648C279.224 463.979 278.563 464.144 277.806 464.144C277.027 464.144 276.323 463.952 275.694 463.568C275.064 463.184 274.568 462.645 274.206 461.952C273.843 461.259 273.662 460.469 273.662 459.584ZM281.086 459.6C281.086 458.939 280.952 458.363 280.686 457.872C280.419 457.381 280.056 457.008 279.598 456.752C279.15 456.485 278.654 456.352 278.11 456.352C277.566 456.352 277.07 456.48 276.622 456.736C276.174 456.992 275.816 457.365 275.55 457.856C275.283 458.347 275.15 458.923 275.15 459.584C275.15 460.256 275.283 460.843 275.55 461.344C275.816 461.835 276.174 462.213 276.622 462.48C277.07 462.736 277.566 462.864 278.11 462.864C278.654 462.864 279.15 462.736 279.598 462.48C280.056 462.213 280.419 461.835 280.686 461.344C280.952 460.843 281.086 460.261 281.086 459.6ZM286.474 456.656C286.73 456.155 287.093 455.765 287.562 455.488C288.042 455.211 288.623 455.072 289.306 455.072V456.576H288.922C287.29 456.576 286.474 457.461 286.474 459.232V464H285.018V455.232H286.474V456.656Z" fill="#808080" fill-opacity="0.69"/>
<path d="M582.138 452.848V461.088C582.138 462.005 581.856 462.741 581.29 463.296C580.725 463.84 579.978 464.112 579.05 464.112C578.112 464.112 577.36 463.835 576.794 463.28C576.229 462.715 575.946 461.947 575.946 460.976H577.402C577.413 461.52 577.552 461.963 577.818 462.304C578.096 462.645 578.506 462.816 579.05 462.816C579.594 462.816 580 462.656 580.266 462.336C580.533 462.005 580.666 461.589 580.666 461.088V452.848H582.138ZM592.783 455.232V464H591.327V462.704C591.049 463.152 590.66 463.504 590.159 463.76C589.668 464.005 589.124 464.128 588.527 464.128C587.844 464.128 587.231 463.989 586.687 463.712C586.143 463.424 585.711 462.997 585.391 462.432C585.081 461.867 584.927 461.179 584.927 460.368V455.232H586.367V460.176C586.367 461.04 586.585 461.707 587.023 462.176C587.46 462.635 588.057 462.864 588.815 462.864C589.593 462.864 590.207 462.624 590.655 462.144C591.103 461.664 591.327 460.965 591.327 460.048V455.232H592.783ZM596.697 452.16V464H595.241V452.16H596.697Z" fill="#808080" fill-opacity="0.69"/>
<path d="M893.537 464H892.081L886.225 455.12V464H884.769V452.832H886.225L892.081 461.696V452.832H893.537V464ZM899.843 464.144C899.022 464.144 898.275 463.957 897.603 463.584C896.942 463.211 896.419 462.683 896.035 462C895.662 461.307 895.475 460.507 895.475 459.6C895.475 458.704 895.667 457.915 896.051 457.232C896.446 456.539 896.979 456.011 897.651 455.648C898.323 455.275 899.075 455.088 899.907 455.088C900.739 455.088 901.491 455.275 902.163 455.648C902.835 456.011 903.363 456.533 903.747 457.216C904.142 457.899 904.339 458.693 904.339 459.6C904.339 460.507 904.136 461.307 903.731 462C903.336 462.683 902.798 463.211 902.115 463.584C901.432 463.957 900.675 464.144 899.843 464.144ZM899.843 462.864C900.366 462.864 900.856 462.741 901.315 462.496C901.774 462.251 902.142 461.883 902.419 461.392C902.707 460.901 902.851 460.304 902.851 459.6C902.851 458.896 902.712 458.299 902.435 457.808C902.158 457.317 901.795 456.955 901.347 456.72C900.899 456.475 900.414 456.352 899.891 456.352C899.358 456.352 898.867 456.475 898.419 456.72C897.982 456.955 897.63 457.317 897.363 457.808C897.096 458.299 896.963 458.896 896.963 459.6C896.963 460.315 897.091 460.917 897.347 461.408C897.614 461.899 897.966 462.267 898.403 462.512C898.84 462.747 899.32 462.864 899.843 462.864ZM909.517 462.656L912.237 455.232H913.789L910.349 464H908.653L905.213 455.232H906.781L909.517 462.656Z" fill="#808080" fill-opacity="0.69"/>
<path d="M189.574 452.848V454.032H184.726V457.792H188.662V458.976H184.726V464H183.27V452.848H189.574ZM199.332 459.28C199.332 459.557 199.316 459.851 199.284 460.16H192.276C192.33 461.024 192.623 461.701 193.156 462.192C193.7 462.672 194.356 462.912 195.124 462.912C195.754 462.912 196.276 462.768 196.692 462.48C197.119 462.181 197.418 461.787 197.588 461.296H199.156C198.922 462.139 198.452 462.827 197.748 463.36C197.044 463.883 196.17 464.144 195.124 464.144C194.292 464.144 193.546 463.957 192.884 463.584C192.234 463.211 191.722 462.683 191.348 462C190.975 461.307 190.788 460.507 190.788 459.6C190.788 458.693 190.97 457.899 191.332 457.216C191.695 456.533 192.202 456.011 192.852 455.648C193.514 455.275 194.271 455.088 195.124 455.088C195.956 455.088 196.692 455.269 197.332 455.632C197.972 455.995 198.463 456.496 198.804 457.136C199.156 457.765 199.332 458.48 199.332 459.28ZM197.828 458.976C197.828 458.421 197.706 457.947 197.46 457.552C197.215 457.147 196.879 456.843 196.452 456.64C196.036 456.427 195.572 456.32 195.06 456.32C194.324 456.32 193.695 456.555 193.172 457.024C192.66 457.493 192.367 458.144 192.292 458.976H197.828ZM202.71 456.864C203.009 456.341 203.446 455.915 204.022 455.584C204.598 455.253 205.254 455.088 205.99 455.088C206.78 455.088 207.489 455.275 208.118 455.648C208.748 456.021 209.244 456.549 209.606 457.232C209.969 457.904 210.15 458.688 210.15 459.584C210.15 460.469 209.969 461.259 209.606 461.952C209.244 462.645 208.742 463.184 208.102 463.568C207.473 463.952 206.769 464.144 205.99 464.144C205.233 464.144 204.566 463.979 203.99 463.648C203.425 463.317 202.998 462.896 202.71 462.384V464H201.254V452.16H202.71V456.864ZM208.662 459.584C208.662 458.923 208.529 458.347 208.262 457.856C207.996 457.365 207.633 456.992 207.174 456.736C206.726 456.48 206.23 456.352 205.686 456.352C205.153 456.352 204.657 456.485 204.198 456.752C203.75 457.008 203.388 457.387 203.11 457.888C202.844 458.379 202.71 458.949 202.71 459.6C202.71 460.261 202.844 460.843 203.11 461.344C203.388 461.835 203.75 462.213 204.198 462.48C204.657 462.736 205.153 462.864 205.686 462.864C206.23 462.864 206.726 462.736 207.174 462.48C207.633 462.213 207.996 461.835 208.262 461.344C208.529 460.843 208.662 460.256 208.662 459.584Z" fill="#808080" fill-opacity="0.69"/>
<path d="M500.953 452.848V461.088C500.953 462.005 500.671 462.741 500.105 463.296C499.54 463.84 498.793 464.112 497.865 464.112C496.927 464.112 496.175 463.835 495.609 463.28C495.044 462.715 494.761 461.947 494.761 460.976H496.217C496.228 461.52 496.367 461.963 496.633 462.304C496.911 462.645 497.321 462.816 497.865 462.816C498.409 462.816 498.815 462.656 499.081 462.336C499.348 462.005 499.481 461.589 499.481 461.088V452.848H500.953ZM511.598 455.232V464H510.142V462.704C509.864 463.152 509.475 463.504 508.974 463.76C508.483 464.005 507.939 464.128 507.342 464.128C506.659 464.128 506.046 463.989 505.502 463.712C504.958 463.424 504.526 462.997 504.206 462.432C503.896 461.867 503.742 461.179 503.742 460.368V455.232H505.182V460.176C505.182 461.04 505.4 461.707 505.838 462.176C506.275 462.635 506.872 462.864 507.63 462.864C508.408 462.864 509.022 462.624 509.47 462.144C509.918 461.664 510.142 460.965 510.142 460.048V455.232H511.598ZM518.328 455.072C519.395 455.072 520.259 455.397 520.92 456.048C521.581 456.688 521.912 457.616 521.912 458.832V464H520.472V459.04C520.472 458.165 520.253 457.499 519.816 457.04C519.379 456.571 518.781 456.336 518.024 456.336C517.256 456.336 516.643 456.576 516.184 457.056C515.736 457.536 515.512 458.235 515.512 459.152V464H514.056V455.232H515.512V456.48C515.8 456.032 516.189 455.685 516.68 455.44C517.181 455.195 517.731 455.072 518.328 455.072Z" fill="#808080" fill-opacity="0.69"/>
<path d="M812.953 464.112C811.918 464.112 810.974 463.872 810.121 463.392C809.268 462.901 808.59 462.224 808.089 461.36C807.598 460.485 807.353 459.504 807.353 458.416C807.353 457.328 807.598 456.352 808.089 455.488C808.59 454.613 809.268 453.936 810.121 453.456C810.974 452.965 811.918 452.72 812.953 452.72C813.998 452.72 814.948 452.965 815.801 453.456C816.654 453.936 817.326 454.608 817.817 455.472C818.308 456.336 818.553 457.317 818.553 458.416C818.553 459.515 818.308 460.496 817.817 461.36C817.326 462.224 816.654 462.901 815.801 463.392C814.948 463.872 813.998 464.112 812.953 464.112ZM812.953 462.848C813.732 462.848 814.43 462.667 815.049 462.304C815.678 461.941 816.169 461.424 816.521 460.752C816.884 460.08 817.065 459.301 817.065 458.416C817.065 457.52 816.884 456.741 816.521 456.08C816.169 455.408 815.684 454.891 815.065 454.528C814.446 454.165 813.742 453.984 812.953 453.984C812.164 453.984 811.46 454.165 810.841 454.528C810.222 454.891 809.732 455.408 809.369 456.08C809.017 456.741 808.841 457.52 808.841 458.416C808.841 459.301 809.017 460.08 809.369 460.752C809.732 461.424 810.222 461.941 810.841 462.304C811.47 462.667 812.174 462.848 812.953 462.848ZM819.931 459.6C819.931 458.693 820.112 457.904 820.475 457.232C820.838 456.549 821.339 456.021 821.979 455.648C822.63 455.275 823.371 455.088 824.203 455.088C825.28 455.088 826.166 455.349 826.859 455.872C827.563 456.395 828.027 457.12 828.251 458.048H826.683C826.534 457.515 826.24 457.093 825.803 456.784C825.376 456.475 824.843 456.32 824.203 456.32C823.371 456.32 822.699 456.608 822.187 457.184C821.675 457.749 821.419 458.555 821.419 459.6C821.419 460.656 821.675 461.472 822.187 462.048C822.699 462.624 823.371 462.912 824.203 462.912C824.843 462.912 825.376 462.763 825.803 462.464C826.23 462.165 826.523 461.739 826.683 461.184H828.251C828.016 462.08 827.547 462.8 826.843 463.344C826.139 463.877 825.259 464.144 824.203 464.144C823.371 464.144 822.63 463.957 821.979 463.584C821.339 463.211 820.838 462.683 820.475 462C820.112 461.317 819.931 460.517 819.931 459.6ZM831.97 456.432V461.6C831.97 462.027 832.06 462.331 832.242 462.512C832.423 462.683 832.738 462.768 833.186 462.768H834.258V464H832.946C832.135 464 831.527 463.813 831.122 463.44C830.716 463.067 830.514 462.453 830.514 461.6V456.432H829.378V455.232H830.514V453.024H831.97V455.232H834.258V456.432H831.97Z" fill="#808080" fill-opacity="0.69"/>
<path d="M346.552 461.52H341.688L340.792 464H339.256L343.288 452.912H344.968L348.984 464H347.448L346.552 461.52ZM346.136 460.336L344.12 454.704L342.104 460.336H346.136ZM352.198 456.848C352.486 456.347 352.912 455.931 353.478 455.6C354.054 455.259 354.72 455.088 355.478 455.088C356.256 455.088 356.96 455.275 357.59 455.648C358.23 456.021 358.731 456.549 359.094 457.232C359.456 457.904 359.638 458.688 359.638 459.584C359.638 460.469 359.456 461.259 359.094 461.952C358.731 462.645 358.23 463.184 357.59 463.568C356.96 463.952 356.256 464.144 355.478 464.144C354.731 464.144 354.07 463.979 353.494 463.648C352.928 463.307 352.496 462.885 352.198 462.384V468.16H350.742V455.232H352.198V456.848ZM358.15 459.584C358.15 458.923 358.016 458.347 357.75 457.856C357.483 457.365 357.12 456.992 356.662 456.736C356.214 456.48 355.718 456.352 355.174 456.352C354.64 456.352 354.144 456.485 353.686 456.752C353.238 457.008 352.875 457.387 352.598 457.888C352.331 458.379 352.198 458.949 352.198 459.6C352.198 460.261 352.331 460.843 352.598 461.344C352.875 461.835 353.238 462.213 353.686 462.48C354.144 462.736 354.64 462.864 355.174 462.864C355.718 462.864 356.214 462.736 356.662 462.48C357.12 462.213 357.483 461.835 357.75 461.344C358.016 460.843 358.15 460.256 358.15 459.584ZM363.01 456.656C363.266 456.155 363.629 455.765 364.098 455.488C364.578 455.211 365.16 455.072 365.842 455.072V456.576H365.458C363.826 456.576 363.01 457.461 363.01 459.232V464H361.554V455.232H363.01V456.656Z" fill="#808080" fill-opacity="0.69"/>
<path d="M655.92 462.016H651.728L651.056 464H648.192L652.256 452.768H655.424L659.488 464H656.592L655.92 462.016ZM655.216 459.904L653.824 455.792L652.448 459.904H655.216ZM669.541 455.072V464H666.805V462.784C666.527 463.179 666.149 463.499 665.669 463.744C665.199 463.979 664.677 464.096 664.101 464.096C663.418 464.096 662.815 463.947 662.293 463.648C661.77 463.339 661.365 462.896 661.077 462.32C660.789 461.744 660.645 461.067 660.645 460.288V455.072H663.365V459.92C663.365 460.517 663.519 460.981 663.829 461.312C664.138 461.643 664.554 461.808 665.077 461.808C665.61 461.808 666.031 461.643 666.341 461.312C666.65 460.981 666.805 460.517 666.805 459.92V455.072H669.541ZM674.898 454.944C675.527 454.944 676.077 455.072 676.546 455.328C677.026 455.584 677.394 455.92 677.65 456.336V455.072H680.386V463.984C680.386 464.805 680.221 465.547 679.89 466.208C679.57 466.88 679.074 467.413 678.402 467.808C677.741 468.203 676.914 468.4 675.922 468.4C674.599 468.4 673.527 468.085 672.706 467.456C671.885 466.837 671.415 465.995 671.298 464.928H674.002C674.087 465.269 674.29 465.536 674.61 465.728C674.93 465.931 675.325 466.032 675.794 466.032C676.359 466.032 676.807 465.867 677.138 465.536C677.479 465.216 677.65 464.699 677.65 463.984V462.72C677.383 463.136 677.015 463.477 676.546 463.744C676.077 464 675.527 464.128 674.898 464.128C674.162 464.128 673.495 463.941 672.898 463.568C672.301 463.184 671.826 462.645 671.474 461.952C671.133 461.248 670.962 460.437 670.962 459.52C670.962 458.603 671.133 457.797 671.474 457.104C671.826 456.411 672.301 455.877 672.898 455.504C673.495 455.131 674.162 454.944 674.898 454.944ZM677.65 459.536C677.65 458.853 677.458 458.315 677.074 457.92C676.701 457.525 676.242 457.328 675.698 457.328C675.154 457.328 674.69 457.525 674.306 457.92C673.933 458.304 673.746 458.837 673.746 459.52C673.746 460.203 673.933 460.747 674.306 461.152C674.69 461.547 675.154 461.744 675.698 461.744C676.242 461.744 676.701 461.547 677.074 461.152C677.458 460.757 677.65 460.219 677.65 459.536Z" fill="#483EB7"/>
<path d="M966.028 452.848C967.244 452.848 968.294 453.077 969.18 453.536C970.076 453.984 970.758 454.629 971.228 455.472C971.708 456.315 971.948 457.307 971.948 458.448C971.948 459.589 971.708 460.581 971.228 461.424C970.758 462.256 970.076 462.896 969.18 463.344C968.294 463.781 967.244 464 966.028 464H962.556V452.848H966.028ZM966.028 462.8C967.468 462.8 968.566 462.421 969.324 461.664C970.081 460.896 970.46 459.824 970.46 458.448C970.46 457.061 970.076 455.979 969.308 455.2C968.55 454.421 967.457 454.032 966.028 454.032H964.012V462.8H966.028ZM981.868 459.28C981.868 459.557 981.852 459.851 981.82 460.16H974.812C974.865 461.024 975.159 461.701 975.692 462.192C976.236 462.672 976.892 462.912 977.66 462.912C978.289 462.912 978.812 462.768 979.228 462.48C979.655 462.181 979.953 461.787 980.124 461.296H981.692C981.457 462.139 980.988 462.827 980.284 463.36C979.58 463.883 978.705 464.144 977.66 464.144C976.828 464.144 976.081 463.957 975.42 463.584C974.769 463.211 974.257 462.683 973.884 462C973.511 461.307 973.324 460.507 973.324 459.6C973.324 458.693 973.505 457.899 973.868 457.216C974.231 456.533 974.737 456.011 975.388 455.648C976.049 455.275 976.807 455.088 977.66 455.088C978.492 455.088 979.228 455.269 979.868 455.632C980.508 455.995 980.999 456.496 981.34 457.136C981.692 457.765 981.868 458.48 981.868 459.28ZM980.364 458.976C980.364 458.421 980.241 457.947 979.996 457.552C979.751 457.147 979.415 456.843 978.988 456.64C978.572 456.427 978.108 456.32 977.596 456.32C976.86 456.32 976.231 456.555 975.708 457.024C975.196 457.493 974.903 458.144 974.828 458.976H980.364ZM983.246 459.6C983.246 458.693 983.427 457.904 983.79 457.232C984.153 456.549 984.654 456.021 985.294 455.648C985.945 455.275 986.686 455.088 987.518 455.088C988.595 455.088 989.481 455.349 990.174 455.872C990.878 456.395 991.342 457.12 991.566 458.048H989.998C989.849 457.515 989.555 457.093 989.118 456.784C988.691 456.475 988.158 456.32 987.518 456.32C986.686 456.32 986.014 456.608 985.502 457.184C984.99 457.749 984.734 458.555 984.734 459.6C984.734 460.656 984.99 461.472 985.502 462.048C986.014 462.624 986.686 462.912 987.518 462.912C988.158 462.912 988.691 462.763 989.118 462.464C989.545 462.165 989.838 461.739 989.998 461.184H991.566C991.331 462.08 990.862 462.8 990.158 463.344C989.454 463.877 988.574 464.144 987.518 464.144C986.686 464.144 985.945 463.957 985.294 463.584C984.654 463.211 984.153 462.683 983.79 462C983.427 461.317 983.246 460.517 983.246 459.6Z" fill="#808080" fill-opacity="0.69"/>
<line x1="80.7275" y1="415.073" x2="1002.36" y2="415.073" stroke="black" stroke-opacity="0.06" stroke-width="1.34545"/>
</svg>
