<svg width="983" height="387" viewBox="0 0 983 387" fill="none" xmlns="http://www.w3.org/2000/svg">
<path d="M82.544 8.032V6.848H90.096V8.032H87.056V18H85.6V8.032H82.544ZM101.208 13.6C101.208 16.384 99.2083 18.144 96.7123 18.144C94.2323 18.144 92.3443 16.384 92.3443 13.6C92.3443 10.832 94.2963 9.088 96.7763 9.088C99.2723 9.088 101.208 10.832 101.208 13.6ZM93.8323 13.6C93.8323 15.824 95.1923 16.864 96.7123 16.864C98.2323 16.864 99.7203 15.824 99.7203 13.6C99.7203 11.392 98.2643 10.352 96.7603 10.352C95.2243 10.352 93.8323 11.392 93.8323 13.6ZM105.579 10.848C106.107 9.92 107.259 9.088 108.859 9.088C111.211 9.088 113.019 10.848 113.019 13.584C113.019 16.304 111.211 18.144 108.859 18.144C107.259 18.144 106.123 17.28 105.579 16.384V22.16H104.123V9.232H105.579V10.848ZM111.531 13.584C111.531 11.52 110.171 10.352 108.555 10.352C106.971 10.352 105.579 11.568 105.579 13.6C105.579 15.664 106.971 16.864 108.555 16.864C110.171 16.864 111.531 15.648 111.531 13.584ZM128.449 14.96C128.449 16.544 127.153 18.112 124.737 18.112C122.497 18.112 120.913 16.864 120.881 15.024H122.433C122.529 15.952 123.185 16.88 124.737 16.88C126.145 16.88 126.977 16.08 126.977 15.024C126.977 12.016 120.945 13.936 120.945 9.792C120.945 7.952 122.433 6.704 124.641 6.704C126.769 6.704 128.161 7.872 128.337 9.568H126.737C126.641 8.816 125.937 7.968 124.577 7.952C123.377 7.92 122.433 8.544 122.433 9.744C122.433 12.624 128.449 10.832 128.449 14.96ZM133.047 10.848C133.575 9.92 134.727 9.088 136.327 9.088C138.679 9.088 140.487 10.848 140.487 13.584C140.487 16.304 138.679 18.144 136.327 18.144C134.727 18.144 133.591 17.28 133.047 16.384V22.16H131.591V9.232H133.047V10.848ZM138.999 13.584C138.999 11.52 137.639 10.352 136.023 10.352C134.439 10.352 133.047 11.568 133.047 13.6C133.047 15.664 134.439 16.864 136.023 16.864C137.639 16.864 138.999 15.648 138.999 13.584ZM147.132 10.32C145.708 10.32 144.524 11.264 144.364 12.976H149.9C149.916 11.264 148.636 10.32 147.132 10.32ZM151.228 15.296C150.78 16.896 149.372 18.144 147.196 18.144C144.7 18.144 142.86 16.384 142.86 13.6C142.86 10.832 144.636 9.088 147.196 9.088C149.74 9.088 151.404 10.88 151.404 13.28C151.404 13.6 151.388 13.856 151.356 14.16H144.348C144.46 15.936 145.708 16.912 147.196 16.912C148.508 16.912 149.34 16.24 149.66 15.296H151.228ZM160.742 18V13.04C160.742 11.248 159.766 10.336 158.294 10.336C156.806 10.336 155.782 11.264 155.782 13.152V18H154.326V9.232H155.782V10.48C156.358 9.568 157.414 9.072 158.598 9.072C160.63 9.072 162.182 10.32 162.182 12.832V18H160.742ZM165.016 13.584C165.016 10.848 166.824 9.088 169.192 9.088C170.568 9.088 171.832 9.792 172.44 10.8V6.16H173.912V18H172.44V16.352C171.912 17.328 170.776 18.144 169.176 18.144C166.824 18.144 165.016 16.304 165.016 13.584ZM172.44 13.6C172.44 11.568 171.064 10.352 169.464 10.352C167.864 10.352 166.504 11.52 166.504 13.584C166.504 15.648 167.864 16.864 169.464 16.864C171.064 16.864 172.44 15.664 172.44 13.6ZM177.373 18V9.232H178.829V18H177.373ZM178.125 7.808C177.565 7.808 177.133 7.376 177.133 6.816C177.133 6.256 177.565 5.824 178.125 5.824C178.653 5.824 179.085 6.256 179.085 6.816C179.085 7.376 178.653 7.808 178.125 7.808ZM188.726 18V13.04C188.726 11.248 187.75 10.336 186.278 10.336C184.79 10.336 183.766 11.264 183.766 13.152V18H182.31V9.232H183.766V10.48C184.342 9.568 185.398 9.072 186.582 9.072C188.614 9.072 190.166 10.32 190.166 12.832V18H188.726ZM193.001 13.584C193.001 10.848 194.809 9.088 197.161 9.088C198.761 9.088 199.913 9.888 200.425 10.832V9.232H201.897V18.192C201.897 20.608 200.281 22.32 197.705 22.32C195.401 22.32 193.753 21.152 193.465 19.28H194.905C195.225 20.336 196.265 21.056 197.705 21.056C199.257 21.056 200.425 20.064 200.425 18.192V16.352C199.897 17.296 198.761 18.144 197.161 18.144C194.809 18.144 193.001 16.304 193.001 13.584ZM200.425 13.6C200.425 11.568 199.049 10.352 197.449 10.352C195.849 10.352 194.489 11.52 194.489 13.584C194.489 15.648 195.849 16.864 197.449 16.864C199.049 16.864 200.425 15.664 200.425 13.6ZM210.079 12.416C210.079 9.072 212.527 6.704 215.647 6.704C218.063 6.704 219.983 7.92 220.815 10.08H219.071C218.463 8.736 217.279 7.984 215.647 7.984C213.311 7.984 211.567 9.68 211.567 12.416C211.567 15.136 213.311 16.832 215.647 16.832C217.279 16.832 218.463 16.08 219.071 14.752H220.815C219.983 16.896 218.063 18.096 215.647 18.096C212.527 18.096 210.079 15.76 210.079 12.416ZM223.438 13.584C223.438 10.848 225.246 9.088 227.598 9.088C229.23 9.088 230.35 9.92 230.862 10.832V9.232H232.334V18H230.862V16.368C230.334 17.312 229.198 18.144 227.582 18.144C225.246 18.144 223.438 16.304 223.438 13.584ZM230.862 13.6C230.862 11.568 229.486 10.352 227.886 10.352C226.286 10.352 224.926 11.52 224.926 13.584C224.926 15.648 226.286 16.864 227.886 16.864C229.486 16.864 230.862 15.664 230.862 13.6ZM236.115 15.6V10.432H234.979V9.232H236.115V7.024H237.571V9.232H239.859V10.432H237.571V15.6C237.571 16.464 237.891 16.768 238.786 16.768H239.859V18H238.547C236.995 18 236.115 17.36 236.115 15.6ZM246.351 10.32C244.927 10.32 243.743 11.264 243.583 12.976H249.119C249.135 11.264 247.855 10.32 246.351 10.32ZM250.447 15.296C249.999 16.896 248.591 18.144 246.415 18.144C243.919 18.144 242.079 16.384 242.079 13.6C242.079 10.832 243.855 9.088 246.415 9.088C248.959 9.088 250.623 10.88 250.623 13.28C250.623 13.6 250.607 13.856 250.575 14.16H243.567C243.679 15.936 244.927 16.912 246.415 16.912C247.727 16.912 248.559 16.24 248.879 15.296H250.447ZM253.001 13.584C253.001 10.848 254.809 9.088 257.161 9.088C258.761 9.088 259.913 9.888 260.425 10.832V9.232H261.897V18.192C261.897 20.608 260.281 22.32 257.705 22.32C255.401 22.32 253.753 21.152 253.465 19.28H254.905C255.225 20.336 256.265 21.056 257.705 21.056C259.257 21.056 260.425 20.064 260.425 18.192V16.352C259.897 17.296 258.761 18.144 257.161 18.144C254.809 18.144 253.001 16.304 253.001 13.584ZM260.425 13.6C260.425 11.568 259.049 10.352 257.449 10.352C255.849 10.352 254.489 11.52 254.489 13.584C254.489 15.648 255.849 16.864 257.449 16.864C259.049 16.864 260.425 15.664 260.425 13.6ZM273.677 13.6C273.677 16.384 271.677 18.144 269.181 18.144C266.701 18.144 264.813 16.384 264.813 13.6C264.813 10.832 266.765 9.088 269.245 9.088C271.741 9.088 273.677 10.832 273.677 13.6ZM266.301 13.6C266.301 15.824 267.661 16.864 269.181 16.864C270.701 16.864 272.189 15.824 272.189 13.6C272.189 11.392 270.733 10.352 269.229 10.352C267.693 10.352 266.301 11.392 266.301 13.6ZM278.047 13.232V18H276.591V9.232H278.047V10.656C278.543 9.68 279.487 9.072 280.879 9.072V10.576H280.495C279.103 10.576 278.047 11.2 278.047 13.232ZM283.56 18V9.232H285.016V18H283.56ZM284.312 7.808C283.752 7.808 283.32 7.376 283.32 6.816C283.32 6.256 283.752 5.824 284.312 5.824C284.84 5.824 285.272 6.256 285.272 6.816C285.272 7.376 284.84 7.808 284.312 7.808ZM292.226 10.32C290.802 10.32 289.618 11.264 289.458 12.976H294.994C295.01 11.264 293.73 10.32 292.226 10.32ZM296.322 15.296C295.874 16.896 294.466 18.144 292.29 18.144C289.794 18.144 287.954 16.384 287.954 13.6C287.954 10.832 289.73 9.088 292.29 9.088C294.834 9.088 296.498 10.88 296.498 13.28C296.498 13.6 296.482 13.856 296.45 14.16H289.442C289.554 15.936 290.802 16.912 292.29 16.912C293.602 16.912 294.434 16.24 294.754 15.296H296.322ZM305.724 15.616C305.724 17.056 304.46 18.144 302.524 18.144C300.476 18.144 299.036 17.024 298.94 15.424H300.444C300.524 16.272 301.276 16.912 302.508 16.912C303.66 16.912 304.3 16.336 304.3 15.616C304.3 13.664 299.116 14.8 299.116 11.536C299.116 10.192 300.38 9.088 302.332 9.088C304.268 9.088 305.548 10.128 305.644 11.84H304.188C304.124 10.96 303.452 10.32 302.284 10.32C301.212 10.32 300.572 10.832 300.572 11.536C300.572 13.616 305.66 12.48 305.724 15.616Z" fill="#282636"/>
<circle cx="238.5" cy="226.5" r="102" stroke="#FFD0EA" stroke-width="61"/>
<mask id="path-3-inside-1_741_1657" fill="white">
<path d="M342.842 308.164C329.967 324.614 313.386 337.787 294.45 346.608C275.515 355.428 254.762 359.647 233.886 358.92C213.01 358.192 192.601 352.539 174.326 342.422C156.05 332.305 140.426 318.01 128.727 300.704L179.256 266.547C185.57 275.887 194.002 283.602 203.865 289.062C213.729 294.523 224.743 297.574 236.01 297.966C247.277 298.359 258.477 296.082 268.696 291.321C278.915 286.561 287.864 279.452 294.813 270.574L342.842 308.164Z"/>
</mask>
<path d="M342.842 308.164C329.967 324.614 313.386 337.787 294.45 346.608C275.515 355.428 254.762 359.647 233.886 358.92C213.01 358.192 192.601 352.539 174.326 342.422C156.05 332.305 140.426 318.01 128.727 300.704L179.256 266.547C185.57 275.887 194.002 283.602 203.865 289.062C213.729 294.523 224.743 297.574 236.01 297.966C247.277 298.359 258.477 296.082 268.696 291.321C278.915 286.561 287.864 279.452 294.813 270.574L342.842 308.164Z" stroke="#9999FF" stroke-width="122" mask="url(#path-3-inside-1_741_1657)"/>
<mask id="path-4-inside-2_741_1657" fill="white">
<path d="M235.032 94.0454C252.426 93.59 269.74 96.5651 285.984 102.801C302.229 109.037 317.086 118.411 329.707 130.388C342.329 142.366 352.468 156.712 359.545 172.608C366.622 188.504 370.499 205.638 370.955 223.032L309.985 224.628C309.739 215.241 307.647 205.994 303.827 197.415C300.008 188.836 294.536 181.093 287.724 174.629C280.912 168.165 272.894 163.106 264.127 159.74C255.36 156.375 246.016 154.769 236.628 155.015L235.032 94.0454Z"/>
</mask>
<path d="M235.032 94.0454C252.426 93.59 269.74 96.5651 285.984 102.801C302.229 109.037 317.086 118.411 329.707 130.388C342.329 142.366 352.468 156.712 359.545 172.608C366.622 188.504 370.499 205.638 370.955 223.032L309.985 224.628C309.739 215.241 307.647 205.994 303.827 197.415C300.008 188.836 294.536 181.093 287.724 174.629C280.912 168.165 272.894 163.106 264.127 159.74C255.36 156.375 246.016 154.769 236.628 155.015L235.032 94.0454Z" stroke="#DDB2FF" stroke-width="122" mask="url(#path-4-inside-2_741_1657)"/>
<mask id="path-5-inside-3_741_1657" fill="white">
<path d="M197.256 352.417C167.369 342.628 141.939 322.528 125.513 295.71C109.086 268.893 102.733 237.107 107.59 206.036C112.447 174.965 128.197 146.634 152.025 126.109C175.853 105.584 206.204 94.204 237.652 94.0027L238.042 154.992C221.07 155.101 204.69 161.243 191.83 172.32C178.97 183.397 170.47 198.687 167.849 215.456C165.227 232.225 168.656 249.379 177.521 263.852C186.387 278.326 200.111 289.174 216.241 294.457L197.256 352.417Z"/>
</mask>
<path d="M197.256 352.417C167.369 342.628 141.939 322.528 125.513 295.71C109.086 268.893 102.733 237.107 107.59 206.036C112.447 174.965 128.197 146.634 152.025 126.109C175.853 105.584 206.204 94.204 237.652 94.0027L238.042 154.992C221.07 155.101 204.69 161.243 191.83 172.32C178.97 183.397 170.47 198.687 167.849 215.456C165.227 232.225 168.656 249.379 177.521 263.852C186.387 278.326 200.111 289.174 216.241 294.457L197.256 352.417Z" stroke="#FF1494" stroke-width="122" mask="url(#path-5-inside-3_741_1657)"/>
<path d="M121.56 218V215.424H115.64V214.32L121.256 206.544H123V214.16H124.6V215.424H123V218H121.56ZM117.32 214.16H121.624V208.064L117.32 214.16ZM127.471 206.416H134.431V207.696H128.815V211.344C129.295 210.688 130.319 210.176 131.455 210.176C134.271 210.176 135.167 212.208 135.167 214C135.167 216.24 133.919 218.032 131.215 218.032C128.911 218.032 127.519 216.736 127.231 214.864H128.655C128.927 216.08 129.871 216.8 131.231 216.8C132.991 216.8 133.775 215.616 133.775 214.032C133.775 212.384 132.927 211.424 131.247 211.424C130.079 211.424 129.231 212.032 128.847 212.944H127.471V206.416ZM139.765 217.104C139.765 217.664 139.333 218.096 138.805 218.096C138.245 218.096 137.813 217.664 137.813 217.104C137.813 216.544 138.245 216.112 138.805 216.112C139.333 216.112 139.765 216.544 139.765 217.104ZM142.461 212.096C142.461 208.784 143.293 206.256 146.493 206.256C149.677 206.256 150.509 208.784 150.509 212.096C150.509 215.456 149.677 218 146.493 218C143.293 218 142.461 215.456 142.461 212.096ZM149.069 212.096C149.069 209.696 148.765 207.584 146.493 207.584C144.205 207.584 143.901 209.696 143.901 212.096C143.901 214.592 144.205 216.672 146.493 216.672C148.765 216.672 149.069 214.592 149.069 212.096ZM153.188 209.04C153.188 207.552 154.196 206.656 155.524 206.656C156.868 206.656 157.86 207.552 157.86 209.04C157.86 210.544 156.868 211.44 155.524 211.44C154.196 211.44 153.188 210.544 153.188 209.04ZM155.524 207.552C154.82 207.552 154.356 208.032 154.356 209.04C154.356 210.032 154.82 210.544 155.524 210.544C156.228 210.544 156.708 210.032 156.708 209.04C156.708 208.032 156.228 207.552 155.524 207.552ZM154.612 218L161.092 206.832H162.532L156.052 218H154.612ZM159.316 215.792C159.316 214.288 160.308 213.392 161.652 213.392C162.98 213.392 163.972 214.288 163.972 215.792C163.972 217.28 162.98 218.192 161.652 218.192C160.308 218.192 159.316 217.28 159.316 215.792ZM161.636 214.304C160.932 214.304 160.452 214.784 160.452 215.792C160.452 216.784 160.932 217.264 161.636 217.264C162.34 217.264 162.82 216.784 162.82 215.792C162.82 214.784 162.34 214.304 161.636 214.304Z" fill="white"/>
<path d="M290.96 156.344C291.104 154.36 292.608 153.208 294.752 153.208C297.008 153.208 298.24 154.52 298.24 156.184C298.24 157.512 297.408 158.552 296.192 158.824V158.904C297.536 159.224 298.448 160.216 298.448 161.88C298.448 163.672 297.2 165.08 294.784 165.08C292.592 165.08 290.96 163.912 290.784 161.672H292.192C292.336 162.904 293.232 163.848 294.768 163.848C296.32 163.848 297.056 162.936 297.056 161.752C297.056 160.12 295.92 159.496 293.84 159.496H293.472V158.28H293.856C295.792 158.264 296.832 157.672 296.832 156.328C296.832 155.224 296.096 154.456 294.704 154.456C293.344 154.456 292.528 155.224 292.384 156.344H290.96ZM301.414 159.096C301.414 155.784 302.246 153.256 305.446 153.256C308.63 153.256 309.462 155.784 309.462 159.096C309.462 162.456 308.63 165 305.446 165C302.246 165 301.414 162.456 301.414 159.096ZM308.022 159.096C308.022 156.696 307.718 154.584 305.446 154.584C303.158 154.584 302.854 156.696 302.854 159.096C302.854 161.592 303.158 163.672 305.446 163.672C307.718 163.672 308.022 161.592 308.022 159.096ZM314.125 164.104C314.125 164.664 313.693 165.096 313.165 165.096C312.605 165.096 312.173 164.664 312.173 164.104C312.173 163.544 312.605 163.112 313.165 163.112C313.693 163.112 314.125 163.544 314.125 164.104ZM316.82 159.096C316.82 155.784 317.652 153.256 320.852 153.256C324.036 153.256 324.868 155.784 324.868 159.096C324.868 162.456 324.036 165 320.852 165C317.652 165 316.82 162.456 316.82 159.096ZM323.428 159.096C323.428 156.696 323.124 154.584 320.852 154.584C318.564 154.584 318.26 156.696 318.26 159.096C318.26 161.592 318.564 163.672 320.852 163.672C323.124 163.672 323.428 161.592 323.428 159.096ZM327.547 156.04C327.547 154.552 328.555 153.656 329.883 153.656C331.227 153.656 332.219 154.552 332.219 156.04C332.219 157.544 331.227 158.44 329.883 158.44C328.555 158.44 327.547 157.544 327.547 156.04ZM329.883 154.552C329.179 154.552 328.715 155.032 328.715 156.04C328.715 157.032 329.179 157.544 329.883 157.544C330.587 157.544 331.067 157.032 331.067 156.04C331.067 155.032 330.587 154.552 329.883 154.552ZM328.971 165L335.451 153.832H336.891L330.411 165H328.971ZM333.675 162.792C333.675 161.288 334.667 160.392 336.011 160.392C337.339 160.392 338.331 161.288 338.331 162.792C338.331 164.28 337.339 165.192 336.011 165.192C334.667 165.192 333.675 164.28 333.675 162.792ZM335.995 161.304C335.291 161.304 334.811 161.784 334.811 162.792C334.811 163.784 335.291 164.264 335.995 164.264C336.699 164.264 337.179 163.784 337.179 162.792C337.179 161.784 336.699 161.304 335.995 161.304Z" fill="white"/>
<path d="M319.408 251.416H326.368V252.696H320.752V256.344C321.232 255.688 322.256 255.176 323.392 255.176C326.208 255.176 327.104 257.208 327.104 259C327.104 261.24 325.856 263.032 323.152 263.032C320.848 263.032 319.456 261.736 319.168 259.864H320.592C320.864 261.08 321.808 261.8 323.168 261.8C324.928 261.8 325.712 260.616 325.712 259.032C325.712 257.384 324.864 256.424 323.184 256.424C322.016 256.424 321.168 257.032 320.784 257.944H319.408V251.416ZM331.703 262.104C331.703 262.664 331.271 263.096 330.743 263.096C330.183 263.096 329.751 262.664 329.751 262.104C329.751 261.544 330.183 261.112 330.743 261.112C331.271 261.112 331.703 261.544 331.703 262.104ZM334.398 257.096C334.398 253.784 335.23 251.256 338.43 251.256C341.614 251.256 342.446 253.784 342.446 257.096C342.446 260.456 341.614 263 338.43 263C335.23 263 334.398 260.456 334.398 257.096ZM341.006 257.096C341.006 254.696 340.702 252.584 338.43 252.584C336.142 252.584 335.838 254.696 335.838 257.096C335.838 259.592 336.142 261.672 338.43 261.672C340.702 261.672 341.006 259.592 341.006 257.096ZM345.125 254.04C345.125 252.552 346.133 251.656 347.461 251.656C348.805 251.656 349.797 252.552 349.797 254.04C349.797 255.544 348.805 256.44 347.461 256.44C346.133 256.44 345.125 255.544 345.125 254.04ZM347.461 252.552C346.757 252.552 346.293 253.032 346.293 254.04C346.293 255.032 346.757 255.544 347.461 255.544C348.165 255.544 348.645 255.032 348.645 254.04C348.645 253.032 348.165 252.552 347.461 252.552ZM346.549 263L353.029 251.832H354.469L347.989 263H346.549ZM351.253 260.792C351.253 259.288 352.245 258.392 353.589 258.392C354.917 258.392 355.909 259.288 355.909 260.792C355.909 262.28 354.917 263.192 353.589 263.192C352.245 263.192 351.253 262.28 351.253 260.792ZM353.573 259.304C352.869 259.304 352.389 259.784 352.389 260.792C352.389 261.784 352.869 262.264 353.573 262.264C354.277 262.264 354.757 261.784 354.757 260.792C354.757 259.784 354.277 259.304 353.573 259.304Z" fill="white"/>
<path d="M249.816 323.872V322.832C252.856 320.384 255.736 318.08 255.736 315.712C255.736 314.432 255.176 313.472 253.608 313.472C252.104 313.472 251.336 314.512 251.272 315.968H249.864C249.96 313.504 251.512 312.224 253.592 312.224C255.768 312.224 257.176 313.504 257.176 315.648C257.176 318.528 254.072 320.976 252.008 322.656H257.512V323.872H249.816ZM260.195 318.096C260.195 314.784 261.027 312.256 264.227 312.256C267.411 312.256 268.243 314.784 268.243 318.096C268.243 321.456 267.411 324 264.227 324C261.027 324 260.195 321.456 260.195 318.096ZM266.803 318.096C266.803 315.696 266.499 313.584 264.227 313.584C261.939 313.584 261.635 315.696 261.635 318.096C261.635 320.592 261.939 322.672 264.227 322.672C266.499 322.672 266.803 320.592 266.803 318.096ZM272.906 323.104C272.906 323.664 272.474 324.096 271.946 324.096C271.386 324.096 270.954 323.664 270.954 323.104C270.954 322.544 271.386 322.112 271.946 322.112C272.474 322.112 272.906 322.544 272.906 323.104ZM275.601 318.096C275.601 314.784 276.433 312.256 279.633 312.256C282.817 312.256 283.649 314.784 283.649 318.096C283.649 321.456 282.817 324 279.633 324C276.433 324 275.601 321.456 275.601 318.096ZM282.209 318.096C282.209 315.696 281.905 313.584 279.633 313.584C277.345 313.584 277.041 315.696 277.041 318.096C277.041 320.592 277.345 322.672 279.633 322.672C281.905 322.672 282.209 320.592 282.209 318.096ZM286.328 315.04C286.328 313.552 287.336 312.656 288.664 312.656C290.008 312.656 291 313.552 291 315.04C291 316.544 290.008 317.44 288.664 317.44C287.336 317.44 286.328 316.544 286.328 315.04ZM288.664 313.552C287.96 313.552 287.496 314.032 287.496 315.04C287.496 316.032 287.96 316.544 288.664 316.544C289.368 316.544 289.848 316.032 289.848 315.04C289.848 314.032 289.368 313.552 288.664 313.552ZM287.752 324L294.232 312.832H295.672L289.192 324H287.752ZM292.456 321.792C292.456 320.288 293.448 319.392 294.792 319.392C296.12 319.392 297.112 320.288 297.112 321.792C297.112 323.28 296.12 324.192 294.792 324.192C293.448 324.192 292.456 323.28 292.456 321.792ZM294.776 320.304C294.072 320.304 293.592 320.784 293.592 321.792C293.592 322.784 294.072 323.264 294.776 323.264C295.48 323.264 295.96 322.784 295.96 321.792C295.96 320.784 295.48 320.304 294.776 320.304Z" fill="white"/>
<path d="M365.688 135.416C365.688 132.072 368.136 129.704 371.256 129.704C373.672 129.704 375.592 130.92 376.424 133.08H374.68C374.072 131.736 372.888 130.984 371.256 130.984C368.92 130.984 367.176 132.68 367.176 135.416C367.176 138.136 368.92 139.832 371.256 139.832C372.888 139.832 374.072 139.08 374.68 137.752H376.424C375.592 139.896 373.672 141.096 371.256 141.096C368.136 141.096 365.688 138.76 365.688 135.416ZM379.047 136.584C379.047 133.848 380.855 132.088 383.207 132.088C384.839 132.088 385.959 132.92 386.471 133.832V132.232H387.943V141H386.471V139.368C385.943 140.312 384.807 141.144 383.191 141.144C380.855 141.144 379.047 139.304 379.047 136.584ZM386.471 136.6C386.471 134.568 385.095 133.352 383.495 133.352C381.895 133.352 380.535 134.52 380.535 136.584C380.535 138.648 381.895 139.864 383.495 139.864C385.095 139.864 386.471 138.664 386.471 136.6ZM404.06 141V136.04C404.06 134.248 403.1 133.336 401.66 133.336C400.188 133.336 399.18 134.28 399.18 136.168V141H397.74V136.04C397.74 134.248 396.78 133.336 395.34 133.336C393.868 133.336 392.86 134.28 392.86 136.168V141H391.404V132.232H392.86V133.496C393.436 132.568 394.476 132.072 395.628 132.072C397.068 132.072 398.268 132.712 398.844 134.024C399.356 132.76 400.604 132.072 401.948 132.072C403.948 132.072 405.5 133.32 405.5 135.832V141H404.06ZM410.344 133.848C410.872 132.92 412.024 132.088 413.624 132.088C415.976 132.088 417.784 133.848 417.784 136.584C417.784 139.304 415.976 141.144 413.624 141.144C412.024 141.144 410.888 140.28 410.344 139.384V145.16H408.888V132.232H410.344V133.848ZM416.296 136.584C416.296 134.52 414.936 133.352 413.32 133.352C411.736 133.352 410.344 134.568 410.344 136.6C410.344 138.664 411.736 139.864 413.32 139.864C414.936 139.864 416.296 138.648 416.296 136.584ZM420.157 136.584C420.157 133.848 421.965 132.088 424.317 132.088C425.949 132.088 427.069 132.92 427.581 133.832V132.232H429.053V141H427.581V139.368C427.053 140.312 425.917 141.144 424.301 141.144C421.965 141.144 420.157 139.304 420.157 136.584ZM427.581 136.6C427.581 134.568 426.205 133.352 424.605 133.352C423.005 133.352 421.645 134.52 421.645 136.584C421.645 138.648 423.005 139.864 424.605 139.864C426.205 139.864 427.581 138.664 427.581 136.6ZM432.513 141V132.232H433.969V141H432.513ZM433.265 130.808C432.705 130.808 432.273 130.376 432.273 129.816C432.273 129.256 432.705 128.824 433.265 128.824C433.793 128.824 434.225 129.256 434.225 129.816C434.225 130.376 433.793 130.808 433.265 130.808ZM436.907 136.584C436.907 133.848 438.715 132.088 441.067 132.088C442.667 132.088 443.819 132.888 444.331 133.832V132.232H445.803V141.192C445.803 143.608 444.187 145.32 441.611 145.32C439.307 145.32 437.659 144.152 437.371 142.28H438.811C439.131 143.336 440.171 144.056 441.611 144.056C443.163 144.056 444.331 143.064 444.331 141.192V139.352C443.803 140.296 442.667 141.144 441.067 141.144C438.715 141.144 436.907 139.304 436.907 136.584ZM444.331 136.6C444.331 134.568 442.955 133.352 441.355 133.352C439.755 133.352 438.395 134.52 438.395 136.584C438.395 138.648 439.755 139.864 441.355 139.864C442.955 139.864 444.331 138.664 444.331 136.6ZM455.679 141V136.04C455.679 134.248 454.703 133.336 453.231 133.336C451.743 133.336 450.719 134.264 450.719 136.152V141H449.263V132.232H450.719V133.48C451.295 132.568 452.351 132.072 453.535 132.072C455.567 132.072 457.119 133.32 457.119 135.832V141H455.679ZM473.251 141L472.355 138.52H467.491L466.595 141H465.059L469.091 129.912H470.771L474.787 141H473.251ZM471.939 137.336L469.923 131.704L467.907 137.336H471.939Z" fill="#282636"/>
<path d="M0.688 143.416C0.688 140.072 3.136 137.704 6.256 137.704C8.672 137.704 10.592 138.92 11.424 141.08H9.68C9.072 139.736 7.888 138.984 6.256 138.984C3.92 138.984 2.176 140.68 2.176 143.416C2.176 146.136 3.92 147.832 6.256 147.832C7.888 147.832 9.072 147.08 9.68 145.752H11.424C10.592 147.896 8.672 149.096 6.256 149.096C3.136 149.096 0.688 146.76 0.688 143.416ZM14.0474 144.584C14.0474 141.848 15.8554 140.088 18.2074 140.088C19.8394 140.088 20.9594 140.92 21.4714 141.832V140.232H22.9434V149H21.4714V147.368C20.9434 148.312 19.8074 149.144 18.1914 149.144C15.8554 149.144 14.0474 147.304 14.0474 144.584ZM21.4714 144.6C21.4714 142.568 20.0954 141.352 18.4954 141.352C16.8954 141.352 15.5354 142.52 15.5354 144.584C15.5354 146.648 16.8954 147.864 18.4954 147.864C20.0954 147.864 21.4714 146.664 21.4714 144.6ZM39.0599 149V144.04C39.0599 142.248 38.0999 141.336 36.6599 141.336C35.1879 141.336 34.1799 142.28 34.1799 144.168V149H32.7399V144.04C32.7399 142.248 31.7799 141.336 30.3399 141.336C28.8679 141.336 27.8599 142.28 27.8599 144.168V149H26.4039V140.232H27.8599V141.496C28.4359 140.568 29.4759 140.072 30.6279 140.072C32.0679 140.072 33.2679 140.712 33.8439 142.024C34.3559 140.76 35.6039 140.072 36.9479 140.072C38.9479 140.072 40.4999 141.32 40.4999 143.832V149H39.0599ZM45.3443 141.848C45.8723 140.92 47.0243 140.088 48.6243 140.088C50.9763 140.088 52.7843 141.848 52.7843 144.584C52.7843 147.304 50.9763 149.144 48.6243 149.144C47.0243 149.144 45.8883 148.28 45.3443 147.384V153.16H43.8883V140.232H45.3443V141.848ZM51.2963 144.584C51.2963 142.52 49.9363 141.352 48.3203 141.352C46.7363 141.352 45.3443 142.568 45.3443 144.6C45.3443 146.664 46.7363 147.864 48.3203 147.864C49.9363 147.864 51.2963 146.648 51.2963 144.584ZM55.1568 144.584C55.1568 141.848 56.9648 140.088 59.3168 140.088C60.9488 140.088 62.0688 140.92 62.5808 141.832V140.232H64.0528V149H62.5808V147.368C62.0528 148.312 60.9168 149.144 59.3008 149.144C56.9648 149.144 55.1568 147.304 55.1568 144.584ZM62.5808 144.6C62.5808 142.568 61.2048 141.352 59.6048 141.352C58.0048 141.352 56.6448 142.52 56.6448 144.584C56.6448 146.648 58.0048 147.864 59.6048 147.864C61.2048 147.864 62.5808 146.664 62.5808 144.6ZM67.5133 149V140.232H68.9693V149H67.5133ZM68.2653 138.808C67.7053 138.808 67.2733 138.376 67.2733 137.816C67.2733 137.256 67.7053 136.824 68.2653 136.824C68.7933 136.824 69.2253 137.256 69.2253 137.816C69.2253 138.376 68.7933 138.808 68.2653 138.808ZM71.9068 144.584C71.9068 141.848 73.7148 140.088 76.0668 140.088C77.6668 140.088 78.8188 140.888 79.3308 141.832V140.232H80.8028V149.192C80.8028 151.608 79.1868 153.32 76.6108 153.32C74.3068 153.32 72.6588 152.152 72.3708 150.28H73.8108C74.1308 151.336 75.1708 152.056 76.6108 152.056C78.1628 152.056 79.3308 151.064 79.3308 149.192V147.352C78.8028 148.296 77.6668 149.144 76.0668 149.144C73.7148 149.144 71.9068 147.304 71.9068 144.584ZM79.3308 144.6C79.3308 142.568 77.9548 141.352 76.3548 141.352C74.7548 141.352 73.3948 142.52 73.3948 144.584C73.3948 146.648 74.7548 147.864 76.3548 147.864C77.9548 147.864 79.3308 146.664 79.3308 144.6ZM90.6793 149V144.04C90.6793 142.248 89.7033 141.336 88.2313 141.336C86.7433 141.336 85.7193 142.264 85.7193 144.152V149H84.2633V140.232H85.7193V141.48C86.2953 140.568 87.3513 140.072 88.5353 140.072C90.5673 140.072 92.1193 141.32 92.1193 143.832V149H90.6793ZM107.099 145.864C107.099 144.632 106.171 143.864 104.747 143.864H102.219V147.8H104.795C106.235 147.8 107.099 147.08 107.099 145.864ZM106.811 140.856C106.811 139.752 106.059 139.048 104.635 139.048H102.219V142.664H104.667C106.027 142.664 106.811 141.992 106.811 140.856ZM108.555 146.008C108.555 147.688 107.227 149 104.923 149H100.763V137.848H104.763C107.115 137.848 108.299 139.128 108.299 140.68C108.299 142.088 107.419 142.904 106.347 143.256C107.563 143.464 108.555 144.632 108.555 146.008Z" fill="#282636"/>
<path d="M285.688 374.416C285.688 371.072 288.136 368.704 291.256 368.704C293.672 368.704 295.592 369.92 296.424 372.08H294.68C294.072 370.736 292.888 369.984 291.256 369.984C288.92 369.984 287.176 371.68 287.176 374.416C287.176 377.136 288.92 378.832 291.256 378.832C292.888 378.832 294.072 378.08 294.68 376.752H296.424C295.592 378.896 293.672 380.096 291.256 380.096C288.136 380.096 285.688 377.76 285.688 374.416ZM299.047 375.584C299.047 372.848 300.855 371.088 303.207 371.088C304.839 371.088 305.959 371.92 306.471 372.832V371.232H307.943V380H306.471V378.368C305.943 379.312 304.807 380.144 303.191 380.144C300.855 380.144 299.047 378.304 299.047 375.584ZM306.471 375.6C306.471 373.568 305.095 372.352 303.495 372.352C301.895 372.352 300.535 373.52 300.535 375.584C300.535 377.648 301.895 378.864 303.495 378.864C305.095 378.864 306.471 377.664 306.471 375.6ZM324.06 380V375.04C324.06 373.248 323.1 372.336 321.66 372.336C320.188 372.336 319.18 373.28 319.18 375.168V380H317.74V375.04C317.74 373.248 316.78 372.336 315.34 372.336C313.868 372.336 312.86 373.28 312.86 375.168V380H311.404V371.232H312.86V372.496C313.436 371.568 314.476 371.072 315.628 371.072C317.068 371.072 318.268 371.712 318.844 373.024C319.356 371.76 320.604 371.072 321.948 371.072C323.948 371.072 325.5 372.32 325.5 374.832V380H324.06ZM330.344 372.848C330.872 371.92 332.024 371.088 333.624 371.088C335.976 371.088 337.784 372.848 337.784 375.584C337.784 378.304 335.976 380.144 333.624 380.144C332.024 380.144 330.888 379.28 330.344 378.384V384.16H328.888V371.232H330.344V372.848ZM336.296 375.584C336.296 373.52 334.936 372.352 333.32 372.352C331.736 372.352 330.344 373.568 330.344 375.6C330.344 377.664 331.736 378.864 333.32 378.864C334.936 378.864 336.296 377.648 336.296 375.584ZM340.157 375.584C340.157 372.848 341.965 371.088 344.317 371.088C345.949 371.088 347.069 371.92 347.581 372.832V371.232H349.053V380H347.581V378.368C347.053 379.312 345.917 380.144 344.301 380.144C341.965 380.144 340.157 378.304 340.157 375.584ZM347.581 375.6C347.581 373.568 346.205 372.352 344.605 372.352C343.005 372.352 341.645 373.52 341.645 375.584C341.645 377.648 343.005 378.864 344.605 378.864C346.205 378.864 347.581 377.664 347.581 375.6ZM352.513 380V371.232H353.969V380H352.513ZM353.265 369.808C352.705 369.808 352.273 369.376 352.273 368.816C352.273 368.256 352.705 367.824 353.265 367.824C353.793 367.824 354.225 368.256 354.225 368.816C354.225 369.376 353.793 369.808 353.265 369.808ZM356.907 375.584C356.907 372.848 358.715 371.088 361.067 371.088C362.667 371.088 363.819 371.888 364.331 372.832V371.232H365.803V380.192C365.803 382.608 364.187 384.32 361.611 384.32C359.307 384.32 357.659 383.152 357.371 381.28H358.811C359.131 382.336 360.171 383.056 361.611 383.056C363.163 383.056 364.331 382.064 364.331 380.192V378.352C363.803 379.296 362.667 380.144 361.067 380.144C358.715 380.144 356.907 378.304 356.907 375.584ZM364.331 375.6C364.331 373.568 362.955 372.352 361.355 372.352C359.755 372.352 358.395 373.52 358.395 375.584C358.395 377.648 359.755 378.864 361.355 378.864C362.955 378.864 364.331 377.664 364.331 375.6ZM375.679 380V375.04C375.679 373.248 374.703 372.336 373.231 372.336C371.743 372.336 370.719 373.264 370.719 375.152V380H369.263V371.232H370.719V372.48C371.295 371.568 372.351 371.072 373.535 371.072C375.567 371.072 377.119 372.32 377.119 374.832V380H375.679ZM385.219 374.416C385.219 371.072 387.667 368.704 390.787 368.704C393.203 368.704 395.123 369.92 395.955 372.08H394.211C393.603 370.736 392.419 369.984 390.787 369.984C388.451 369.984 386.707 371.68 386.707 374.416C386.707 377.136 388.451 378.832 390.787 378.832C392.419 378.832 393.603 378.08 394.211 376.752H395.955C395.123 378.896 393.203 380.096 390.787 380.096C387.667 380.096 385.219 377.76 385.219 374.416Z" fill="#282636"/>
<path d="M376.688 276.416C376.688 273.072 379.136 270.704 382.256 270.704C384.672 270.704 386.592 271.92 387.424 274.08H385.68C385.072 272.736 383.888 271.984 382.256 271.984C379.92 271.984 378.176 273.68 378.176 276.416C378.176 279.136 379.92 280.832 382.256 280.832C383.888 280.832 385.072 280.08 385.68 278.752H387.424C386.592 280.896 384.672 282.096 382.256 282.096C379.136 282.096 376.688 279.76 376.688 276.416ZM390.047 277.584C390.047 274.848 391.855 273.088 394.207 273.088C395.839 273.088 396.959 273.92 397.471 274.832V273.232H398.943V282H397.471V280.368C396.943 281.312 395.807 282.144 394.191 282.144C391.855 282.144 390.047 280.304 390.047 277.584ZM397.471 277.6C397.471 275.568 396.095 274.352 394.495 274.352C392.895 274.352 391.535 275.52 391.535 277.584C391.535 279.648 392.895 280.864 394.495 280.864C396.095 280.864 397.471 279.664 397.471 277.6ZM415.06 282V277.04C415.06 275.248 414.1 274.336 412.66 274.336C411.188 274.336 410.18 275.28 410.18 277.168V282H408.74V277.04C408.74 275.248 407.78 274.336 406.34 274.336C404.868 274.336 403.86 275.28 403.86 277.168V282H402.404V273.232H403.86V274.496C404.436 273.568 405.476 273.072 406.628 273.072C408.068 273.072 409.268 273.712 409.844 275.024C410.356 273.76 411.604 273.072 412.948 273.072C414.948 273.072 416.5 274.32 416.5 276.832V282H415.06ZM421.344 274.848C421.872 273.92 423.024 273.088 424.624 273.088C426.976 273.088 428.784 274.848 428.784 277.584C428.784 280.304 426.976 282.144 424.624 282.144C423.024 282.144 421.888 281.28 421.344 280.384V286.16H419.888V273.232H421.344V274.848ZM427.296 277.584C427.296 275.52 425.936 274.352 424.32 274.352C422.736 274.352 421.344 275.568 421.344 277.6C421.344 279.664 422.736 280.864 424.32 280.864C425.936 280.864 427.296 279.648 427.296 277.584ZM431.157 277.584C431.157 274.848 432.965 273.088 435.317 273.088C436.949 273.088 438.069 273.92 438.581 274.832V273.232H440.053V282H438.581V280.368C438.053 281.312 436.917 282.144 435.301 282.144C432.965 282.144 431.157 280.304 431.157 277.584ZM438.581 277.6C438.581 275.568 437.205 274.352 435.605 274.352C434.005 274.352 432.645 275.52 432.645 277.584C432.645 279.648 434.005 280.864 435.605 280.864C437.205 280.864 438.581 279.664 438.581 277.6ZM443.513 282V273.232H444.969V282H443.513ZM444.265 271.808C443.705 271.808 443.273 271.376 443.273 270.816C443.273 270.256 443.705 269.824 444.265 269.824C444.793 269.824 445.225 270.256 445.225 270.816C445.225 271.376 444.793 271.808 444.265 271.808ZM447.907 277.584C447.907 274.848 449.715 273.088 452.067 273.088C453.667 273.088 454.819 273.888 455.331 274.832V273.232H456.803V282.192C456.803 284.608 455.187 286.32 452.611 286.32C450.307 286.32 448.659 285.152 448.371 283.28H449.811C450.131 284.336 451.171 285.056 452.611 285.056C454.163 285.056 455.331 284.064 455.331 282.192V280.352C454.803 281.296 453.667 282.144 452.067 282.144C449.715 282.144 447.907 280.304 447.907 277.584ZM455.331 277.6C455.331 275.568 453.955 274.352 452.355 274.352C450.755 274.352 449.395 275.52 449.395 277.584C449.395 279.648 450.755 280.864 452.355 280.864C453.955 280.864 455.331 279.664 455.331 277.6ZM466.679 282V277.04C466.679 275.248 465.703 274.336 464.231 274.336C462.743 274.336 461.719 275.264 461.719 277.152V282H460.263V273.232H461.719V274.48C462.295 273.568 463.351 273.072 464.535 273.072C466.567 273.072 468.119 274.32 468.119 276.832V282H466.679ZM480.235 270.848C483.899 270.848 486.155 272.992 486.155 276.448C486.155 279.904 483.899 282 480.235 282H476.763V270.848H480.235ZM478.219 280.8H480.235C483.147 280.8 484.667 279.168 484.667 276.448C484.667 273.728 483.147 272.032 480.235 272.032H478.219V280.8Z" fill="#282636"/>
<g clip-path="url(#clip0_741_1657)">
<path d="M946.332 368.08L952.975 377.582H950.249L944.828 369.829V369.828L944.032 368.69L937.699 359.632H940.426L945.536 366.942L946.332 368.08Z" fill="black"/>
<path d="M956.915 353.824H933.774C932.013 353.824 930.584 355.252 930.584 357.014V380.155C930.584 381.917 932.013 383.345 933.774 383.345H956.915C958.677 383.345 960.105 381.917 960.105 380.155V357.014C960.105 355.252 958.677 353.824 956.915 353.824ZM949.414 378.858L943.928 370.875L937.06 378.858H935.285L943.14 369.728L935.285 358.296H941.276L946.471 365.856L952.974 358.296H954.749L947.259 367.003H947.259L955.405 378.858H949.414Z" fill="black"/>
</g>
<g clip-path="url(#clip1_741_1657)">
<path d="M750.877 355.832C748.558 358.242 749.032 360.802 749.032 368.578C749.032 375.036 747.906 381.509 753.802 383.033C755.644 383.507 771.959 383.507 773.798 383.031C776.253 382.397 778.251 380.406 778.524 376.934C778.562 376.449 778.562 360.716 778.522 360.221C778.232 356.523 775.955 354.391 772.955 353.959C772.268 353.859 772.13 353.83 768.602 353.824C756.089 353.83 753.346 353.273 750.877 355.832Z" fill="url(#paint0_linear_741_1657)"/>
<path d="M763.79 357.686C759.324 357.686 755.083 357.288 753.463 361.446C752.793 363.163 752.891 365.393 752.891 368.586C752.891 371.388 752.801 374.022 753.463 375.725C755.079 379.885 759.354 379.487 763.788 379.487C768.064 379.487 772.474 379.932 774.114 375.725C774.784 373.991 774.686 371.794 774.686 368.586C774.686 364.328 774.921 361.579 772.855 359.515C770.764 357.424 767.936 357.686 763.785 357.686H763.79ZM762.813 359.65C772.13 359.635 773.315 358.599 772.661 372.987C772.428 378.076 768.554 377.517 763.791 377.517C755.107 377.517 754.857 377.269 754.857 368.581C754.857 359.793 755.546 359.655 762.813 359.647V359.65ZM769.608 361.459C768.886 361.459 768.301 362.045 768.301 362.767C768.301 363.489 768.886 364.074 769.608 364.074C770.33 364.074 770.916 363.489 770.916 362.767C770.916 362.045 770.33 361.459 769.608 361.459ZM763.79 362.988C760.699 362.988 758.193 365.495 758.193 368.586C758.193 371.677 760.699 374.183 763.79 374.183C766.881 374.183 769.385 371.677 769.385 368.586C769.385 365.495 766.881 362.988 763.79 362.988ZM763.79 364.953C768.593 364.953 768.599 372.22 763.79 372.22C758.988 372.22 758.981 364.953 763.79 364.953Z" fill="white"/>
</g>
<g clip-path="url(#clip2_741_1657)">
<path d="M863.089 353.824H841.62C839.397 353.824 837.594 355.627 837.594 357.85V379.319C837.594 381.543 839.397 383.345 841.62 383.345H863.089C865.313 383.345 867.115 381.543 867.115 379.319V357.85C867.115 355.627 865.313 353.824 863.089 353.824Z" fill="#0077B5"/>
<path d="M848.228 361.875C848.228 362.373 848.081 362.859 847.804 363.273C847.528 363.687 847.135 364.009 846.675 364.2C846.215 364.39 845.709 364.44 845.221 364.343C844.733 364.246 844.285 364.006 843.933 363.654C843.581 363.303 843.342 362.854 843.245 362.366C843.148 361.878 843.197 361.372 843.388 360.913C843.578 360.453 843.901 360.06 844.314 359.783C844.728 359.507 845.215 359.359 845.712 359.359C846.38 359.359 847.019 359.624 847.491 360.096C847.963 360.568 848.228 361.208 848.228 361.875Z" fill="white"/>
<path d="M847.658 366.068V377.184C847.658 377.266 847.643 377.347 847.611 377.423C847.58 377.499 847.535 377.568 847.477 377.626C847.419 377.684 847.35 377.73 847.274 377.762C847.199 377.793 847.118 377.81 847.036 377.81H844.384C844.302 377.81 844.22 377.794 844.145 377.762C844.069 377.731 844 377.685 843.942 377.627C843.884 377.569 843.838 377.5 843.807 377.425C843.776 377.349 843.76 377.268 843.76 377.186V366.068C843.76 365.903 843.826 365.744 843.943 365.627C844.06 365.51 844.218 365.444 844.384 365.444H847.036C847.201 365.445 847.359 365.511 847.476 365.628C847.592 365.745 847.658 365.903 847.658 366.068Z" fill="white"/>
<path d="M861.519 371.855V377.236C861.519 377.311 861.505 377.386 861.476 377.456C861.447 377.525 861.405 377.589 861.352 377.642C861.298 377.695 861.235 377.737 861.165 377.766C861.096 377.795 861.021 377.81 860.946 377.809H858.094C858.019 377.81 857.944 377.795 857.874 377.766C857.805 377.737 857.741 377.695 857.688 377.642C857.635 377.589 857.592 377.525 857.564 377.456C857.535 377.386 857.52 377.311 857.521 377.236V372.021C857.521 371.243 857.749 368.613 855.486 368.613C853.733 368.613 853.376 370.412 853.305 371.221V377.236C853.305 377.387 853.246 377.531 853.14 377.638C853.035 377.746 852.891 377.807 852.74 377.809H849.986C849.911 377.809 849.836 377.795 849.767 377.766C849.697 377.737 849.634 377.695 849.581 377.641C849.528 377.588 849.486 377.525 849.457 377.455C849.428 377.386 849.414 377.311 849.414 377.236V366.02C849.414 365.944 849.428 365.87 849.457 365.8C849.486 365.731 849.528 365.667 849.581 365.614C849.634 365.561 849.697 365.518 849.767 365.49C849.836 365.461 849.911 365.446 849.986 365.446H852.74C852.892 365.446 853.038 365.506 853.146 365.614C853.253 365.722 853.314 365.867 853.314 366.02V366.989C853.965 366.013 854.929 365.26 856.987 365.26C861.546 365.26 861.519 369.517 861.519 371.855Z" fill="white"/>
</g>
<path d="M673.482 354.463C671.208 353.148 668.301 353.928 666.988 356.207L655.203 376.657C653.89 378.935 654.669 381.848 656.943 383.164C659.217 384.479 662.125 383.698 663.437 381.42L675.222 360.97C676.535 358.692 675.756 355.778 673.482 354.463Z" fill="#FFC107"/>
<path d="M673.482 354.463C672.42 353.849 671.22 353.692 670.108 353.931C670.58 354.033 671.045 354.208 671.486 354.463C673.759 355.778 674.539 358.691 673.226 360.969L661.441 381.42C660.741 382.634 659.589 383.422 658.321 383.695C660.285 384.119 662.379 383.257 663.438 381.42L675.222 360.969C676.535 358.691 675.756 355.778 673.482 354.463Z" fill="#FFB300"/>
<path d="M659.315 383.802C661.937 383.802 664.064 381.672 664.064 379.044C664.064 376.416 661.937 374.286 659.315 374.286C656.692 374.286 654.565 376.416 654.565 379.044C654.565 381.672 656.692 383.802 659.315 383.802Z" fill="#4CAF50"/>
<path d="M658.321 383.696C658.321 383.696 658.321 383.697 658.32 383.697C658.641 383.766 658.974 383.802 659.315 383.802C661.938 383.802 664.064 381.672 664.064 379.044C664.064 378.461 663.959 377.902 663.767 377.385L661.441 381.42C660.742 382.634 659.589 383.423 658.321 383.696Z" fill="#43A047"/>
<path d="M687.007 376.657L675.223 356.207C673.91 353.928 671.002 353.148 668.728 354.463C666.455 355.778 665.675 358.692 666.988 360.97L678.773 381.42C680.086 383.698 682.993 384.479 685.267 383.164C687.541 381.848 688.32 378.935 687.007 376.657Z" fill="#2196F3"/>
<path d="M687.007 376.657L675.222 356.207C674.164 354.37 672.069 353.508 670.105 353.931C671.374 354.204 672.526 354.993 673.226 356.207L685.01 376.657C686.323 378.935 685.544 381.848 683.27 383.164C682.83 383.419 682.365 383.594 681.893 383.696C683.005 383.935 684.205 383.778 685.267 383.164C687.541 381.848 688.32 378.935 687.007 376.657Z" fill="#1E88E5"/>
<g clip-path="url(#clip3_741_1657)">
<path d="M597.673 326.539V325.069H601.003V337.875H599.373V326.539H597.673ZM610.733 337.875L605.649 332.242V337.875H604.037V325.529H605.649V331.251L610.75 325.529H612.787L607.19 331.711L612.84 337.875H610.733Z" fill="#6B6B6B"/>
<path d="M597.903 268.685C599.403 267.48 600.578 266.494 601.428 265.727C602.278 264.947 602.993 264.138 603.571 263.3C604.162 262.45 604.457 261.617 604.457 260.802C604.457 260.035 604.268 259.433 603.89 258.996C603.524 258.547 602.928 258.323 602.101 258.323C601.298 258.323 600.672 258.577 600.224 259.084C599.787 259.58 599.551 260.247 599.515 261.086H597.956C598.004 259.763 598.405 258.742 599.161 258.022C599.917 257.301 600.891 256.941 602.083 256.941C603.3 256.941 604.262 257.278 604.971 257.951C605.691 258.624 606.051 259.551 606.051 260.732C606.051 261.712 605.756 262.668 605.165 263.601C604.587 264.522 603.926 265.337 603.182 266.045C602.438 266.742 601.487 267.557 600.33 268.49H606.423V269.836H597.903V268.685ZM615.247 269.978L610.164 264.345V269.978H608.552V257.632H610.164V263.353L615.265 257.632H617.302L611.705 263.814L617.355 269.978H615.247Z" fill="#6B6B6B"/>
<path d="M598.063 192.498C598.145 191.411 598.565 190.561 599.32 189.947C600.076 189.333 601.056 189.026 602.261 189.026C603.064 189.026 603.754 189.174 604.333 189.469C604.923 189.752 605.366 190.142 605.661 190.638C605.968 191.134 606.122 191.695 606.122 192.321C606.122 193.053 605.909 193.684 605.484 194.216C605.071 194.747 604.528 195.09 603.855 195.243V195.332C604.622 195.521 605.23 195.893 605.679 196.448C606.128 197.003 606.352 197.729 606.352 198.626C606.352 199.299 606.199 199.907 605.892 200.451C605.585 200.982 605.124 201.401 604.51 201.708C603.896 202.015 603.158 202.169 602.296 202.169C601.044 202.169 600.017 201.844 599.214 201.194C598.411 200.533 597.962 199.6 597.868 198.396H599.427C599.509 199.104 599.799 199.683 600.295 200.132C600.79 200.58 601.452 200.805 602.278 200.805C603.105 200.805 603.731 200.592 604.156 200.167C604.593 199.73 604.811 199.169 604.811 198.484C604.811 197.599 604.516 196.961 603.926 196.572C603.335 196.182 602.444 195.987 601.251 195.987H600.844V194.641H601.269C602.355 194.629 603.176 194.452 603.731 194.109C604.286 193.755 604.563 193.212 604.563 192.48C604.563 191.854 604.357 191.352 603.943 190.974C603.542 190.596 602.963 190.408 602.207 190.408C601.475 190.408 600.885 190.596 600.436 190.974C599.988 191.352 599.722 191.86 599.639 192.498H598.063ZM615.489 202.08L610.406 196.448V202.08H608.794V189.734H610.406V195.456L615.507 189.734H617.544L611.947 195.916L617.597 202.08H615.489Z" fill="#6B6B6B"/>
<path d="M597.708 131.33V130.108L603.926 121.5H605.856V129.931H607.627V131.33H605.856V134.182H604.262V131.33H597.708ZM604.333 123.182L599.568 129.931H604.333V123.182ZM616.199 134.182L611.115 128.549V134.182H609.503V121.836H611.115V127.557L616.216 121.836H618.253L612.656 128.018L618.306 134.182H616.199Z" fill="#6B6B6B"/>
<path d="M606.264 54.8774H600.047V58.9158C600.318 58.5379 600.72 58.2309 601.251 57.9947C601.782 57.7468 602.355 57.6228 602.969 57.6228C603.949 57.6228 604.746 57.8294 605.36 58.2427C605.974 58.6442 606.411 59.1697 606.671 59.8191C606.943 60.4568 607.078 61.1358 607.078 61.8561C607.078 62.7063 606.919 63.4679 606.6 64.141C606.281 64.814 605.791 65.3454 605.13 65.7351C604.481 66.1248 603.672 66.3196 602.703 66.3196C601.464 66.3196 600.46 66.0008 599.692 65.3631C598.925 64.7255 598.458 63.8753 598.293 62.8125H599.869C600.023 63.4856 600.348 64.0111 600.844 64.3889C601.34 64.7668 601.965 64.9557 602.721 64.9557C603.654 64.9557 604.357 64.6782 604.829 64.1233C605.301 63.5565 605.537 62.8125 605.537 61.8915C605.537 60.9704 605.301 60.2619 604.829 59.766C604.357 59.2582 603.66 59.0044 602.739 59.0044C602.113 59.0044 601.564 59.1579 601.092 59.4649C600.631 59.7601 600.295 60.1675 600.082 60.687H598.559V53.4604H606.264V54.8774ZM616.181 66.2842L611.098 60.6516V66.2842H609.486V53.9386H611.098V59.6597L616.199 53.9386H618.236L612.639 60.1202L618.289 66.2842H616.181Z" fill="#6B6B6B"/>
</g>
<g clip-path="url(#clip4_741_1657)">
<path d="M644.233 131.681H967.486" stroke="#DFDFDF" stroke-width="0.738019" stroke-dasharray="10.58"/>
<path d="M644.233 63.7829H967.486" stroke="#DFDFDF" stroke-width="0.738019" stroke-dasharray="10.58"/>
<path d="M644.233 199.579H967.486" stroke="#DFDFDF" stroke-width="0.738019" stroke-dasharray="10.58"/>
<path d="M644.233 267.476H967.486" stroke="#DFDFDF" stroke-width="0.738019" stroke-dasharray="10.58"/>
<path d="M644.233 337.588H784.285H952.725" stroke="#DFDFDF" stroke-width="0.738019" stroke-dasharray="10.58"/>
</g>
<path d="M682.61 82.2327C689.132 82.2327 694.418 87.5194 694.418 94.041V327.255C694.418 333.777 689.132 339.063 682.61 339.063H661.946C655.424 339.063 650.137 333.777 650.137 327.255V94.041C650.137 87.5194 655.424 82.2327 661.946 82.2327L682.61 82.2327Z" fill="#FF72BF"/>
<path d="M774.124 175.223C780.646 175.223 785.933 180.509 785.933 187.031V327.255C785.933 333.776 780.646 339.063 774.124 339.063H753.46C746.938 339.063 741.651 333.776 741.651 327.255V187.031C741.651 180.509 746.938 175.223 753.46 175.223L774.124 175.223Z" fill="#E5E5FF"/>
<path d="M865.639 122.086C872.161 122.086 877.447 127.373 877.447 133.894V327.255C877.447 333.777 872.161 339.064 865.639 339.064H844.974C838.453 339.064 833.166 333.777 833.166 327.255V133.894C833.166 127.373 838.453 122.086 844.974 122.086L865.639 122.086Z" fill="#DDB2FF"/>
<path d="M955.677 216.552C962.199 216.552 967.485 221.839 967.485 228.36L967.485 327.255C967.485 333.776 962.199 339.063 955.677 339.063H935.013C928.491 339.063 923.204 333.776 923.204 327.255V228.36C923.204 221.839 928.491 216.552 935.013 216.552H955.677Z" fill="#FFD0EA"/>
<path fill-rule="evenodd" clip-rule="evenodd" d="M822.001 71.333C815.939 71.333 811.025 76.247 811.025 82.3087V93.2843C811.025 99.346 815.939 104.26 822.001 104.26H850.531L853.396 110.029C853.8 110.842 854.959 110.842 855.362 110.029L858.228 104.26H885.66C891.722 104.26 896.636 99.346 896.636 93.2843V82.3087C896.636 76.247 891.722 71.333 885.66 71.333H822.001Z" fill="#A533FF"/>
<path d="M837.019 90.7555C837.019 91.3263 836.871 91.8641 836.574 92.369C836.289 92.8629 835.861 93.2744 835.29 93.6037C834.73 93.922 834.066 94.1086 833.298 94.1635V95.497H832.244V94.147C831.147 94.0482 830.263 93.719 829.594 93.1592C828.924 92.5885 828.579 91.8202 828.557 90.8543H831.026C831.092 91.6446 831.498 92.122 832.244 92.2866V89.1421C831.454 88.9445 830.818 88.747 830.335 88.5494C829.852 88.3519 829.435 88.0336 829.083 87.5945C828.732 87.1555 828.557 86.5573 828.557 85.8C828.557 84.8451 828.897 84.0659 829.577 83.4622C830.269 82.8585 831.158 82.5128 832.244 82.425V81.0915H833.298V82.425C834.352 82.5128 835.191 82.8311 835.817 83.3799C836.454 83.9287 836.81 84.686 836.887 85.6518H834.401C834.368 85.3336 834.253 85.0592 834.055 84.8287C833.869 84.5872 833.616 84.4171 833.298 84.3183V87.4299C834.121 87.6384 834.769 87.8415 835.241 88.0391C835.724 88.2256 836.141 88.5384 836.492 88.9775C836.843 89.4055 837.019 89.9982 837.019 90.7555ZM830.96 85.6848C830.96 86.047 831.07 86.3433 831.29 86.5738C831.509 86.7933 831.827 86.9744 832.244 87.1171V84.2689C831.849 84.3238 831.537 84.472 831.306 84.7134C831.076 84.9549 830.96 85.2787 830.96 85.6848ZM833.298 92.3196C833.715 92.2427 834.039 92.0726 834.269 91.8092C834.511 91.5458 834.632 91.2275 834.632 90.8543C834.632 90.4921 834.516 90.2013 834.286 89.9817C834.055 89.7622 833.726 89.5811 833.298 89.4385V92.3196ZM839.23 91.7269V89.9159L844.613 82.211H847.297V89.7183H848.746V91.7269H847.297V94.0647H844.992V91.7269H839.23ZM845.14 84.6805L841.765 89.7183H845.14V84.6805ZM850.938 91.4635C851.991 90.5854 852.831 89.8555 853.457 89.2738C854.082 88.6811 854.603 88.0665 855.021 87.4299C855.438 86.7933 855.646 86.1677 855.646 85.5531C855.646 84.9933 855.514 84.5543 855.251 84.236C854.988 83.9177 854.582 83.7585 854.033 83.7585C853.484 83.7585 853.061 83.9451 852.765 84.3183C852.469 84.6805 852.315 85.1799 852.304 85.8165H850.065C850.109 84.4994 850.499 83.5006 851.234 82.8201C851.98 82.1396 852.924 81.7994 854.066 81.7994C855.317 81.7994 856.277 82.1341 856.947 82.8037C857.616 83.4622 857.951 84.3348 857.951 85.4214C857.951 86.2775 857.721 87.0951 857.26 87.8744C856.799 88.6537 856.272 89.3342 855.679 89.9159C855.086 90.4866 854.313 91.1781 853.358 91.9903H858.214V93.9001H850.082V92.1879L850.938 91.4635ZM865.89 85.0592C865.78 84.5982 865.588 84.2524 865.314 84.022C865.05 83.7915 864.666 83.6762 864.161 83.6762C863.404 83.6762 862.844 83.9835 862.482 84.5982C862.131 85.2018 861.95 86.1897 861.939 87.5616C862.202 87.1226 862.586 86.7823 863.091 86.5409C863.596 86.2884 864.145 86.1622 864.738 86.1622C865.451 86.1622 866.082 86.3159 866.631 86.6232C867.18 86.9305 867.608 87.3805 867.915 87.9732C868.222 88.5549 868.376 89.2574 868.376 90.0805C868.376 90.8598 868.217 91.5568 867.899 92.1714C867.591 92.7751 867.136 93.247 866.532 93.5873C865.929 93.9275 865.21 94.0976 864.375 94.0976C863.234 94.0976 862.334 93.8452 861.675 93.3403C861.028 92.8354 860.572 92.133 860.309 91.233C860.057 90.322 859.93 89.2025 859.93 87.8744C859.93 85.8659 860.276 84.3512 860.968 83.3305C861.659 82.2988 862.751 81.7829 864.244 81.7829C865.396 81.7829 866.291 82.0957 866.927 82.7213C867.564 83.347 867.932 84.1262 868.03 85.0592H865.89ZM864.211 88.0555C863.629 88.0555 863.141 88.2256 862.746 88.5659C862.35 88.9061 862.153 89.4 862.153 90.0476C862.153 90.6952 862.334 91.2055 862.696 91.5787C863.069 91.9519 863.591 92.1385 864.26 92.1385C864.853 92.1385 865.319 91.9574 865.66 91.5952C866.011 91.233 866.186 90.7446 866.186 90.1299C866.186 89.4933 866.016 88.9884 865.676 88.6153C865.347 88.2421 864.858 88.0555 864.211 88.0555ZM870.198 87.9073C870.198 86.0086 870.538 84.5214 871.218 83.4457C871.91 82.3701 873.051 81.8323 874.643 81.8323C876.234 81.8323 877.37 82.3701 878.051 83.4457C878.742 84.5214 879.088 86.0086 879.088 87.9073C879.088 89.8171 878.742 91.3153 878.051 92.4019C877.37 93.4885 876.234 94.0318 874.643 94.0318C873.051 94.0318 871.91 93.4885 871.218 92.4019C870.538 91.3153 870.198 89.8171 870.198 87.9073ZM876.816 87.9073C876.816 87.0951 876.761 86.4147 876.651 85.8659C876.553 85.3061 876.344 84.8506 876.026 84.4994C875.719 84.1482 875.258 83.9726 874.643 83.9726C874.028 83.9726 873.562 84.1482 873.243 84.4994C872.936 84.8506 872.728 85.3061 872.618 85.8659C872.519 86.4147 872.47 87.0951 872.47 87.9073C872.47 88.7415 872.519 89.4439 872.618 90.0147C872.717 90.5744 872.925 91.0299 873.243 91.3811C873.562 91.7214 874.028 91.8915 874.643 91.8915C875.258 91.8915 875.724 91.7214 876.042 91.3811C876.361 91.0299 876.569 90.5744 876.668 90.0147C876.767 89.4439 876.816 88.7415 876.816 87.9073Z" fill="white"/>
<path fill-rule="evenodd" clip-rule="evenodd" d="M907.611 167.844C901.55 167.844 896.636 172.758 896.636 178.819V189.795C896.636 195.857 901.55 200.771 907.611 200.771H936.141L939.007 206.54C939.41 207.352 940.569 207.352 940.973 206.54L943.838 200.771H971.27C977.332 200.771 982.246 195.857 982.246 189.795V178.819C982.246 172.758 977.332 167.844 971.27 167.844H907.611Z" fill="#A533FF"/>
<path d="M922.629 187.266C922.629 187.837 922.481 188.375 922.185 188.88C921.899 189.374 921.471 189.785 920.901 190.114C920.341 190.433 919.677 190.619 918.908 190.674V192.008H917.855V190.658C916.757 190.559 915.874 190.23 915.204 189.67C914.535 189.099 914.189 188.331 914.167 187.365H916.637C916.702 188.155 917.108 188.633 917.855 188.797V185.653C917.065 185.455 916.428 185.258 915.945 185.06C915.462 184.863 915.045 184.544 914.694 184.105C914.343 183.666 914.167 183.068 914.167 182.311C914.167 181.356 914.507 180.577 915.188 179.973C915.879 179.369 916.768 179.024 917.855 178.936V177.602H918.908V178.936C919.962 179.024 920.802 179.342 921.427 179.891C922.064 180.439 922.421 181.197 922.498 182.163H920.012C919.979 181.844 919.863 181.57 919.666 181.339C919.479 181.098 919.227 180.928 918.908 180.829V183.941C919.732 184.149 920.379 184.352 920.851 184.55C921.334 184.736 921.751 185.049 922.102 185.488C922.454 185.916 922.629 186.509 922.629 187.266ZM916.571 182.196C916.571 182.558 916.68 182.854 916.9 183.085C917.119 183.304 917.438 183.485 917.855 183.628V180.78C917.46 180.835 917.147 180.983 916.916 181.224C916.686 181.466 916.571 181.789 916.571 182.196ZM918.908 188.83C919.326 188.753 919.649 188.583 919.88 188.32C920.121 188.057 920.242 187.738 920.242 187.365C920.242 187.003 920.127 186.712 919.896 186.492C919.666 186.273 919.337 186.092 918.908 185.949V188.83ZM924.84 188.238V186.427L930.224 178.722H932.907V186.229H934.356V188.238H932.907V190.575H930.602V188.238H924.84ZM930.751 181.191L927.376 186.229H930.751V181.191ZM936.548 187.974C937.602 187.096 938.441 186.366 939.067 185.785C939.693 185.192 940.214 184.577 940.631 183.941C941.048 183.304 941.257 182.678 941.257 182.064C941.257 181.504 941.125 181.065 940.861 180.747C940.598 180.428 940.192 180.269 939.643 180.269C939.094 180.269 938.672 180.456 938.375 180.829C938.079 181.191 937.925 181.691 937.914 182.327H935.675C935.719 181.01 936.109 180.011 936.844 179.331C937.591 178.65 938.535 178.31 939.676 178.31C940.927 178.31 941.888 178.645 942.557 179.314C943.227 179.973 943.561 180.846 943.561 181.932C943.561 182.788 943.331 183.606 942.87 184.385C942.409 185.164 941.882 185.845 941.289 186.427C940.697 186.997 939.923 187.689 938.968 188.501H943.825V190.411H935.692V188.699L936.548 187.974ZM951.5 181.57C951.391 181.109 951.199 180.763 950.924 180.533C950.661 180.302 950.277 180.187 949.772 180.187C949.014 180.187 948.455 180.494 948.092 181.109C947.741 181.713 947.56 182.7 947.549 184.072C947.813 183.633 948.197 183.293 948.702 183.052C949.207 182.799 949.755 182.673 950.348 182.673C951.061 182.673 951.693 182.827 952.241 183.134C952.79 183.441 953.218 183.891 953.525 184.484C953.833 185.066 953.986 185.768 953.986 186.591C953.986 187.371 953.827 188.067 953.509 188.682C953.202 189.286 952.746 189.758 952.143 190.098C951.539 190.438 950.82 190.608 949.986 190.608C948.844 190.608 947.944 190.356 947.286 189.851C946.638 189.346 946.183 188.644 945.919 187.744C945.667 186.833 945.541 185.713 945.541 184.385C945.541 182.377 945.886 180.862 946.578 179.841C947.269 178.81 948.361 178.294 949.854 178.294C951.007 178.294 951.901 178.606 952.538 179.232C953.174 179.858 953.542 180.637 953.641 181.57H951.5ZM949.821 184.566C949.239 184.566 948.751 184.736 948.356 185.077C947.961 185.417 947.763 185.911 947.763 186.558C947.763 187.206 947.944 187.716 948.307 188.089C948.68 188.463 949.201 188.649 949.871 188.649C950.463 188.649 950.93 188.468 951.27 188.106C951.621 187.744 951.797 187.255 951.797 186.641C951.797 186.004 951.627 185.499 951.286 185.126C950.957 184.753 950.469 184.566 949.821 184.566ZM955.808 184.418C955.808 182.519 956.148 181.032 956.829 179.956C957.52 178.881 958.662 178.343 960.253 178.343C961.845 178.343 962.981 178.881 963.661 179.956C964.353 181.032 964.698 182.519 964.698 184.418C964.698 186.328 964.353 187.826 963.661 188.913C962.981 189.999 961.845 190.543 960.253 190.543C958.662 190.543 957.52 189.999 956.829 188.913C956.148 187.826 955.808 186.328 955.808 184.418ZM962.426 184.418C962.426 183.606 962.372 182.925 962.262 182.377C962.163 181.817 961.954 181.361 961.636 181.01C961.329 180.659 960.868 180.483 960.253 180.483C959.639 180.483 959.172 180.659 958.854 181.01C958.547 181.361 958.338 181.817 958.228 182.377C958.129 182.925 958.08 183.606 958.08 184.418C958.08 185.252 958.129 185.955 958.228 186.525C958.327 187.085 958.536 187.541 958.854 187.892C959.172 188.232 959.639 188.402 960.253 188.402C960.868 188.402 961.334 188.232 961.653 187.892C961.971 187.541 962.179 187.085 962.278 186.525C962.377 185.955 962.426 185.252 962.426 184.418Z" fill="white"/>
<path fill-rule="evenodd" clip-rule="evenodd" d="M730.487 127.99C724.425 127.99 719.511 132.904 719.511 138.966V149.942C719.511 156.003 724.425 160.917 730.487 160.917H759.016L761.882 166.686C762.286 167.499 763.445 167.499 763.848 166.686L766.714 160.917H794.146C800.207 160.917 805.121 156.003 805.121 149.942V138.966C805.121 132.904 800.207 127.99 794.146 127.99H730.487Z" fill="#A533FF"/>
<path d="M745.505 147.413C745.505 147.983 745.357 148.521 745.06 149.026C744.775 149.52 744.347 149.932 743.776 150.261C743.216 150.579 742.552 150.766 741.784 150.821V152.154H740.73V150.804C739.633 150.705 738.749 150.376 738.08 149.816C737.41 149.246 737.064 148.477 737.042 147.512H739.512C739.578 148.302 739.984 148.779 740.73 148.944V145.799C739.94 145.602 739.303 145.404 738.821 145.207C738.338 145.009 737.921 144.691 737.569 144.252C737.218 143.813 737.042 143.215 737.042 142.457C737.042 141.502 737.383 140.723 738.063 140.119C738.755 139.516 739.644 139.17 740.73 139.082V137.749H741.784V139.082C742.838 139.17 743.677 139.488 744.303 140.037C744.939 140.586 745.296 141.343 745.373 142.309H742.887C742.854 141.991 742.739 141.716 742.541 141.486C742.355 141.244 742.102 141.074 741.784 140.976V144.087C742.607 144.296 743.255 144.499 743.727 144.696C744.21 144.883 744.627 145.196 744.978 145.635C745.329 146.063 745.505 146.655 745.505 147.413ZM739.446 142.342C739.446 142.704 739.556 143.001 739.775 143.231C739.995 143.451 740.313 143.632 740.73 143.774V140.926C740.335 140.981 740.022 141.129 739.792 141.371C739.561 141.612 739.446 141.936 739.446 142.342ZM741.784 148.977C742.201 148.9 742.525 148.73 742.755 148.466C742.997 148.203 743.118 147.885 743.118 147.512C743.118 147.149 743.002 146.858 742.772 146.639C742.541 146.419 742.212 146.238 741.784 146.096V148.977ZM747.716 148.384V146.573L753.099 138.868H755.783V146.376H757.232V148.384H755.783V150.722H753.478V148.384H747.716ZM753.626 141.338L750.251 146.376H753.626V141.338ZM759.423 148.121C760.477 147.243 761.317 146.513 761.942 145.931C762.568 145.338 763.089 144.724 763.506 144.087C763.923 143.451 764.132 142.825 764.132 142.21C764.132 141.651 764 141.212 763.737 140.893C763.473 140.575 763.067 140.416 762.519 140.416C761.97 140.416 761.547 140.602 761.251 140.976C760.955 141.338 760.801 141.837 760.79 142.474H758.551C758.595 141.157 758.984 140.158 759.72 139.477C760.466 138.797 761.41 138.457 762.552 138.457C763.803 138.457 764.763 138.791 765.433 139.461C766.102 140.119 766.437 140.992 766.437 142.079C766.437 142.935 766.206 143.752 765.745 144.532C765.284 145.311 764.758 145.991 764.165 146.573C763.572 147.144 762.798 147.835 761.844 148.648H766.7V150.557H758.567V148.845L759.423 148.121ZM774.376 141.716C774.266 141.255 774.074 140.91 773.8 140.679C773.536 140.449 773.152 140.333 772.647 140.333C771.89 140.333 771.33 140.641 770.968 141.255C770.617 141.859 770.436 142.847 770.425 144.219C770.688 143.78 771.072 143.44 771.577 143.198C772.082 142.946 772.631 142.819 773.223 142.819C773.937 142.819 774.568 142.973 775.117 143.28C775.666 143.588 776.094 144.038 776.401 144.63C776.708 145.212 776.862 145.915 776.862 146.738C776.862 147.517 776.703 148.214 776.384 148.829C776.077 149.432 775.622 149.904 775.018 150.244C774.414 150.585 773.695 150.755 772.861 150.755C771.72 150.755 770.82 150.502 770.161 149.998C769.514 149.493 769.058 148.79 768.795 147.89C768.542 146.979 768.416 145.86 768.416 144.532C768.416 142.523 768.762 141.008 769.453 139.988C770.145 138.956 771.237 138.44 772.73 138.44C773.882 138.44 774.777 138.753 775.413 139.379C776.05 140.004 776.417 140.783 776.516 141.716H774.376ZM772.697 144.713C772.115 144.713 771.627 144.883 771.231 145.223C770.836 145.563 770.639 146.057 770.639 146.705C770.639 147.352 770.82 147.863 771.182 148.236C771.555 148.609 772.077 148.796 772.746 148.796C773.339 148.796 773.805 148.615 774.145 148.252C774.497 147.89 774.672 147.402 774.672 146.787C774.672 146.151 774.502 145.646 774.162 145.273C773.833 144.899 773.344 144.713 772.697 144.713ZM778.684 144.565C778.684 142.666 779.024 141.179 779.704 140.103C780.396 139.027 781.537 138.49 783.129 138.49C784.72 138.49 785.856 139.027 786.537 140.103C787.228 141.179 787.574 142.666 787.574 144.565C787.574 146.474 787.228 147.973 786.537 149.059C785.856 150.146 784.72 150.689 783.129 150.689C781.537 150.689 780.396 150.146 779.704 149.059C779.024 147.973 778.684 146.474 778.684 144.565ZM785.302 144.565C785.302 143.752 785.247 143.072 785.137 142.523C785.038 141.963 784.83 141.508 784.512 141.157C784.204 140.805 783.743 140.63 783.129 140.63C782.514 140.63 782.048 140.805 781.729 141.157C781.422 141.508 781.213 141.963 781.104 142.523C781.005 143.072 780.956 143.752 780.956 144.565C780.956 145.399 781.005 146.101 781.104 146.672C781.202 147.232 781.411 147.687 781.729 148.038C782.048 148.379 782.514 148.549 783.129 148.549C783.743 148.549 784.21 148.379 784.528 148.038C784.846 147.687 785.055 147.232 785.154 146.672C785.253 146.101 785.302 145.399 785.302 144.565Z" fill="white"/>
<path fill-rule="evenodd" clip-rule="evenodd" d="M638.973 35C632.911 35 627.997 39.914 627.997 45.9757V56.9513C627.997 63.013 632.911 67.927 638.973 67.927H667.502L670.368 73.6962C670.772 74.5086 671.93 74.5086 672.334 73.6962L675.2 67.927H702.632C708.693 67.927 713.607 63.013 713.607 56.9513V45.9757C713.607 39.914 708.693 35 702.632 35H638.973Z" fill="#A533FF"/>
<path d="M653.991 54.4225C653.991 54.9933 653.842 55.5311 653.546 56.0359C653.261 56.5299 652.833 56.9414 652.262 57.2707C651.702 57.589 651.038 57.7756 650.27 57.8305V59.164H649.216V57.814C648.119 57.7152 647.235 57.386 646.566 56.8262C645.896 56.2555 645.55 55.4872 645.528 54.5213H647.998C648.064 55.3116 648.47 55.789 649.216 55.9536V52.8091C648.426 52.6115 647.789 52.414 647.306 52.2164C646.823 52.0189 646.406 51.7006 646.055 51.2615C645.704 50.8225 645.528 50.2243 645.528 49.467C645.528 48.5121 645.869 47.7329 646.549 47.1292C647.241 46.5255 648.13 46.1798 649.216 46.092V44.7584H650.27V46.092C651.323 46.1798 652.163 46.4981 652.789 47.0469C653.425 47.5957 653.782 48.353 653.859 49.3188H651.373C651.34 49.0005 651.225 48.7262 651.027 48.4957C650.841 48.2542 650.588 48.0841 650.27 47.9853V51.0969C651.093 51.3054 651.741 51.5085 652.213 51.706C652.695 51.8926 653.113 52.2054 653.464 52.6445C653.815 53.0725 653.991 53.6652 653.991 54.4225ZM647.932 49.3518C647.932 49.714 648.042 50.0103 648.261 50.2408C648.481 50.4603 648.799 50.6414 649.216 50.7841V47.9359C648.821 47.9908 648.508 48.139 648.278 48.3804C648.047 48.6219 647.932 48.9457 647.932 49.3518ZM650.27 55.9866C650.687 55.9097 651.011 55.7396 651.241 55.4762C651.483 55.2128 651.603 54.8945 651.603 54.5213C651.603 54.1591 651.488 53.8683 651.258 53.6487C651.027 53.4292 650.698 53.2481 650.27 53.1054V55.9866ZM656.202 55.3939V53.5829L661.585 45.878H664.269V53.3853H665.717V55.3939H664.269V57.7317H661.964V55.3939H656.202ZM662.112 48.3475L658.737 53.3853H662.112V48.3475ZM667.909 55.1305C668.963 54.2524 669.803 53.5225 670.428 52.9408C671.054 52.3481 671.575 51.7335 671.992 51.0969C672.409 50.4603 672.618 49.8347 672.618 49.2201C672.618 48.6603 672.486 48.2213 672.223 47.903C671.959 47.5847 671.553 47.4255 671.004 47.4255C670.456 47.4255 670.033 47.6121 669.737 47.9853C669.44 48.3475 669.287 48.8469 669.276 49.4835H667.037C667.081 48.1664 667.47 47.1676 668.206 46.4871C668.952 45.8066 669.896 45.4664 671.037 45.4664C672.289 45.4664 673.249 45.8011 673.918 46.4707C674.588 47.1292 674.923 48.0018 674.923 49.0883C674.923 49.9445 674.692 50.7621 674.231 51.5414C673.77 52.3207 673.243 53.0012 672.651 53.5829C672.058 54.1536 671.284 54.8451 670.329 55.6573H675.186V57.5671H667.053V55.8548L667.909 55.1305ZM682.862 48.7262C682.752 48.2652 682.56 47.9194 682.286 47.689C682.022 47.4585 681.638 47.3432 681.133 47.3432C680.376 47.3432 679.816 47.6505 679.454 48.2652C679.103 48.8688 678.922 49.8566 678.911 51.2286C679.174 50.7896 679.558 50.4493 680.063 50.2079C680.568 49.9554 681.117 49.8292 681.709 49.8292C682.423 49.8292 683.054 49.9829 683.603 50.2902C684.151 50.5975 684.579 51.0475 684.887 51.6402C685.194 52.2219 685.348 52.9243 685.348 53.7475C685.348 54.5268 685.189 55.2237 684.87 55.8384C684.563 56.442 684.108 56.914 683.504 57.2542C682.9 57.5945 682.181 57.7646 681.347 57.7646C680.206 57.7646 679.306 57.5122 678.647 57.0073C678 56.5024 677.544 55.8 677.281 54.9C677.028 53.989 676.902 52.8695 676.902 51.5414C676.902 49.5329 677.248 48.0182 677.939 46.9975C678.631 45.9658 679.723 45.4499 681.215 45.4499C682.368 45.4499 683.262 45.7627 683.899 46.3883C684.536 47.0139 684.903 47.7932 685.002 48.7262H682.862ZM681.182 51.7225C680.601 51.7225 680.112 51.8926 679.717 52.2329C679.322 52.5731 679.125 53.067 679.125 53.7146C679.125 54.3622 679.306 54.8725 679.668 55.2457C680.041 55.6189 680.562 55.8055 681.232 55.8055C681.825 55.8055 682.291 55.6244 682.631 55.2622C682.983 54.9 683.158 54.4115 683.158 53.7969C683.158 53.1603 682.988 52.6554 682.648 52.2823C682.318 51.9091 681.83 51.7225 681.182 51.7225ZM687.169 51.5743C687.169 49.6755 687.51 48.1883 688.19 47.1127C688.882 46.0371 690.023 45.4993 691.615 45.4993C693.206 45.4993 694.342 46.0371 695.023 47.1127C695.714 48.1883 696.06 49.6755 696.06 51.5743C696.06 53.4841 695.714 54.9823 695.023 56.0689C694.342 57.1555 693.206 57.6988 691.615 57.6988C690.023 57.6988 688.882 57.1555 688.19 56.0689C687.51 54.9823 687.169 53.4841 687.169 51.5743ZM693.788 51.5743C693.788 50.7621 693.733 50.0816 693.623 49.5329C693.524 48.9731 693.316 48.5176 692.997 48.1664C692.69 47.8152 692.229 47.6396 691.615 47.6396C691 47.6396 690.533 47.8152 690.215 48.1664C689.908 48.5176 689.699 48.9731 689.59 49.5329C689.491 50.0816 689.441 50.7621 689.441 51.5743C689.441 52.4085 689.491 53.1109 689.59 53.6817C689.688 54.2414 689.897 54.6969 690.215 55.0481C690.533 55.3884 691 55.5585 691.615 55.5585C692.229 55.5585 692.696 55.3884 693.014 55.0481C693.332 54.6969 693.541 54.2414 693.64 53.6817C693.738 53.1109 693.788 52.4085 693.788 51.5743Z" fill="white"/>
<defs>
<linearGradient id="paint0_linear_741_1657" x1="750.934" y1="381.459" x2="778.371" y2="357.713" gradientUnits="userSpaceOnUse">
<stop stop-color="#FFDD55"/>
<stop offset="0.5" stop-color="#FF543E"/>
<stop offset="1" stop-color="#C837AB"/>
</linearGradient>
<clipPath id="clip0_741_1657">
<rect width="29.5208" height="29.5208" fill="white" transform="translate(930.584 353.824)"/>
</clipPath>
<clipPath id="clip1_741_1657">
<rect width="29.5208" height="29.5208" fill="white" transform="translate(749.032 353.824)"/>
</clipPath>
<clipPath id="clip2_741_1657">
<rect width="29.5208" height="29.5208" fill="white" transform="translate(837.594 353.824)"/>
</clipPath>
<clipPath id="clip3_741_1657">
<rect width="22.1406" height="295.208" fill="white" transform="translate(597 48.2842)"/>
</clipPath>
<clipPath id="clip4_741_1657">
<rect width="338" height="275" fill="white" transform="translate(644.575 63.3965)"/>
</clipPath>
</defs>
</svg>
