<svg width="27" height="28" viewBox="0 0 27 28" fill="none" xmlns="http://www.w3.org/2000/svg">
<g clip-path="url(#clip0_819_259)">
<path d="M24.9199 17.2042C24.5485 17.2042 24.2475 17.5053 24.2475 17.8767V23.8472C24.2462 24.9609 23.3439 25.8635 22.2302 25.8645H3.3622C2.24847 25.8635 1.34619 24.9609 1.34488 23.8472V6.32411C1.34619 5.21065 2.24847 4.30811 3.3622 4.30679H9.33273C9.70415 4.30679 10.0052 4.00577 10.0052 3.63435C10.0052 3.2632 9.70415 2.96191 9.33273 2.96191H3.3622C1.50616 2.96402 0.00210137 4.46807 0 6.32411V23.8475C0.00210137 25.7035 1.50616 27.2076 3.3622 27.2097H22.2302C24.0862 27.2076 25.5903 25.7035 25.5924 23.8475V17.8767C25.5924 17.5053 25.2914 17.2042 24.9199 17.2042Z" fill="#8F00FF"/>
<path d="M25.3263 1.23202C24.1445 0.050263 22.2286 0.050263 21.0469 1.23202L9.05011 13.2288C8.96789 13.311 8.90853 13.4129 8.87754 13.5248L7.29993 19.2203C7.23505 19.4538 7.30098 19.7039 7.47224 19.8754C7.64377 20.0467 7.89383 20.1126 8.12734 20.048L13.8229 18.4701C13.9348 18.4391 14.0367 18.3798 14.1189 18.2975L26.1154 6.30054C27.2953 5.11799 27.2953 3.20364 26.1154 2.02109L25.3263 1.23202ZM10.5153 13.6659L20.3337 3.84718L23.5002 7.01369L13.6815 16.8324L10.5153 13.6659ZM9.88278 14.9351L12.4126 17.4651L8.91326 18.4347L9.88278 14.9351ZM25.1645 5.34967L24.4513 6.06282L21.2846 2.89605L21.998 2.1829C22.6544 1.52648 23.7188 1.52648 24.3752 2.1829L25.1645 2.97196C25.8199 3.62917 25.8199 4.69272 25.1645 5.34967Z" fill="#8F00FF"/>
</g>
<defs>
<clipPath id="clip0_819_259">
<rect width="27" height="27" fill="white" transform="translate(0 0.243164)"/>
</clipPath>
</defs>
</svg>
