<svg width="15" height="24" viewBox="0 0 15 24" fill="none" xmlns="http://www.w3.org/2000/svg">
<path d="M4.37036 23.2432C3.83891 18.7638 3.65397 18.1253 3.40869 17.59C3.08554 17.1812 2.70008 16.8755 0 15.9937C2.70008 15.1118 3.08554 14.8062 3.40869 14.3974C3.65592 13.862 3.83891 13.2235 4.37036 8.74414C4.90181 13.2235 5.08675 13.8601 5.33398 14.3974C5.65714 14.8062 6.04258 15.1118 8.74267 15.9937C6.04258 16.8755 5.65714 17.1812 5.33398 17.59C5.08675 18.1253 4.90376 18.7638 4.37036 23.2432Z" fill="url(#paint0_linear_451_1554)"/>
<path d="M9.93286 14.502C9.40141 10.0226 9.21647 9.38412 8.97119 8.84877C8.64804 8.43996 8.26258 8.13433 5.5625 7.25247C8.26258 6.37061 8.64804 6.06498 8.97119 5.65617C9.21842 5.12082 9.40141 4.48231 9.93286 0.00292969C10.4643 4.48231 10.6493 5.11888 10.8965 5.65617C11.2196 6.06498 11.6051 6.37061 14.3052 7.25247C11.6051 8.13433 11.2196 8.43996 10.8965 8.84877C10.6493 9.38412 10.4663 10.0226 9.93286 14.502Z" fill="url(#paint1_linear_451_1554)"/>
<defs>
<linearGradient id="paint0_linear_451_1554" x1="0" y1="15.9937" x2="8.74072" y2="15.9937" gradientUnits="userSpaceOnUse">
<stop stop-color="#0000FF"/>
<stop offset="0.54" stop-color="#8F00FF"/>
<stop offset="1" stop-color="#FF1494"/>
</linearGradient>
<linearGradient id="paint1_linear_451_1554" x1="5.5625" y1="7.25247" x2="14.3032" y2="7.25247" gradientUnits="userSpaceOnUse">
<stop stop-color="#0000FF"/>
<stop offset="0.54" stop-color="#8F00FF"/>
<stop offset="1" stop-color="#FF1494"/>
</linearGradient>
</defs>
</svg>
