<svg width="486" height="444" viewBox="0 0 486 444" fill="none" xmlns="http://www.w3.org/2000/svg">
<rect x="0.5" y="0.5" width="485" height="443" rx="9.5" fill="white" stroke="#EAEAEA"/>
<path d="M154.78 60.9H148.7L147.58 64H145.66L150.7 50.14H152.8L157.82 64H155.9L154.78 60.9ZM154.26 59.42L151.74 52.38L149.22 59.42H154.26ZM165.537 52.86C166.483 52.86 167.31 53.0667 168.017 53.48C168.737 53.8933 169.27 54.4133 169.617 55.04V53.04H171.457V64.24C171.457 65.24 171.243 66.1267 170.817 66.9C170.39 67.6867 169.777 68.3 168.977 68.74C168.19 69.18 167.27 69.4 166.217 69.4C164.777 69.4 163.577 69.06 162.617 68.38C161.657 67.7 161.09 66.7733 160.917 65.6H162.717C162.917 66.2667 163.33 66.8 163.957 67.2C164.583 67.6133 165.337 67.82 166.217 67.82C167.217 67.82 168.03 67.5067 168.657 66.88C169.297 66.2533 169.617 65.3733 169.617 64.24V61.94C169.257 62.58 168.723 63.1133 168.017 63.54C167.31 63.9667 166.483 64.18 165.537 64.18C164.563 64.18 163.677 63.94 162.877 63.46C162.09 62.98 161.47 62.3067 161.017 61.44C160.563 60.5733 160.337 59.5867 160.337 58.48C160.337 57.36 160.563 56.38 161.017 55.54C161.47 54.6867 162.09 54.0267 162.877 53.56C163.677 53.0933 164.563 52.86 165.537 52.86ZM169.617 58.5C169.617 57.6733 169.45 56.9533 169.117 56.34C168.783 55.7267 168.33 55.26 167.757 54.94C167.197 54.6067 166.577 54.44 165.897 54.44C165.217 54.44 164.597 54.6 164.037 54.92C163.477 55.24 163.03 55.7067 162.697 56.32C162.363 56.9333 162.197 57.6533 162.197 58.48C162.197 59.32 162.363 60.0533 162.697 60.68C163.03 61.2933 163.477 61.7667 164.037 62.1C164.597 62.42 165.217 62.58 165.897 62.58C166.577 62.58 167.197 62.42 167.757 62.1C168.33 61.7667 168.783 61.2933 169.117 60.68C169.45 60.0533 169.617 59.3267 169.617 58.5ZM185.532 58.1C185.532 58.4467 185.512 58.8133 185.472 59.2H176.712C176.779 60.28 177.146 61.1267 177.812 61.74C178.492 62.34 179.312 62.64 180.272 62.64C181.059 62.64 181.712 62.46 182.232 62.1C182.766 61.7267 183.139 61.2333 183.352 60.62H185.312C185.019 61.6733 184.432 62.5333 183.552 63.2C182.672 63.8533 181.579 64.18 180.272 64.18C179.232 64.18 178.299 63.9467 177.472 63.48C176.659 63.0133 176.019 62.3533 175.552 61.5C175.086 60.6333 174.852 59.6333 174.852 58.5C174.852 57.3667 175.079 56.3733 175.532 55.52C175.986 54.6667 176.619 54.0133 177.432 53.56C178.259 53.0933 179.206 52.86 180.272 52.86C181.312 52.86 182.232 53.0867 183.032 53.54C183.832 53.9933 184.446 54.62 184.872 55.42C185.312 56.2067 185.532 57.1 185.532 58.1ZM183.652 57.72C183.652 57.0267 183.499 56.4333 183.192 55.94C182.886 55.4333 182.466 55.0533 181.932 54.8C181.412 54.5333 180.832 54.4 180.192 54.4C179.272 54.4 178.486 54.6933 177.832 55.28C177.192 55.8667 176.826 56.68 176.732 57.72H183.652ZM199.607 50.06C201.127 50.06 202.44 50.3467 203.547 50.92C204.667 51.48 205.52 52.2867 206.107 53.34C206.707 54.3933 207.007 55.6333 207.007 57.06C207.007 58.4867 206.707 59.7267 206.107 60.78C205.52 61.82 204.667 62.62 203.547 63.18C202.44 63.7267 201.127 64 199.607 64H195.267V50.06H199.607ZM199.607 62.5C201.407 62.5 202.78 62.0267 203.727 61.08C204.673 60.12 205.147 58.78 205.147 57.06C205.147 55.3267 204.667 53.9733 203.707 53C202.76 52.0267 201.393 51.54 199.607 51.54H197.087V62.5H199.607ZM220.407 58.1C220.407 58.4467 220.387 58.8133 220.347 59.2H211.587C211.654 60.28 212.021 61.1267 212.687 61.74C213.367 62.34 214.187 62.64 215.147 62.64C215.934 62.64 216.587 62.46 217.107 62.1C217.641 61.7267 218.014 61.2333 218.227 60.62H220.187C219.894 61.6733 219.307 62.5333 218.427 63.2C217.547 63.8533 216.454 64.18 215.147 64.18C214.107 64.18 213.174 63.9467 212.347 63.48C211.534 63.0133 210.894 62.3533 210.427 61.5C209.961 60.6333 209.727 59.6333 209.727 58.5C209.727 57.3667 209.954 56.3733 210.407 55.52C210.861 54.6667 211.494 54.0133 212.307 53.56C213.134 53.0933 214.081 52.86 215.147 52.86C216.187 52.86 217.107 53.0867 217.907 53.54C218.707 53.9933 219.321 54.62 219.747 55.42C220.187 56.2067 220.407 57.1 220.407 58.1ZM218.527 57.72C218.527 57.0267 218.374 56.4333 218.067 55.94C217.761 55.4333 217.341 55.0533 216.807 54.8C216.287 54.5333 215.707 54.4 215.067 54.4C214.147 54.4 213.361 54.6933 212.707 55.28C212.067 55.8667 211.701 56.68 211.607 57.72H218.527ZM236.99 52.84C237.843 52.84 238.603 53.02 239.27 53.38C239.936 53.7267 240.463 54.2533 240.85 54.96C241.236 55.6667 241.43 56.5267 241.43 57.54V64H239.63V57.8C239.63 56.7067 239.356 55.8733 238.81 55.3C238.276 54.7133 237.55 54.42 236.63 54.42C235.683 54.42 234.93 54.7267 234.37 55.34C233.81 55.94 233.53 56.8133 233.53 57.96V64H231.73V57.8C231.73 56.7067 231.456 55.8733 230.91 55.3C230.376 54.7133 229.65 54.42 228.73 54.42C227.783 54.42 227.03 54.7267 226.47 55.34C225.91 55.94 225.63 56.8133 225.63 57.96V64H223.81V53.04H225.63V54.62C225.99 54.0467 226.47 53.6067 227.07 53.3C227.683 52.9933 228.356 52.84 229.09 52.84C230.01 52.84 230.823 53.0467 231.53 53.46C232.236 53.8733 232.763 54.48 233.11 55.28C233.416 54.5067 233.923 53.9067 234.63 53.48C235.336 53.0533 236.123 52.84 236.99 52.84ZM250.195 64.18C249.168 64.18 248.235 63.9467 247.395 63.48C246.568 63.0133 245.915 62.3533 245.435 61.5C244.968 60.6333 244.735 59.6333 244.735 58.5C244.735 57.38 244.975 56.3933 245.455 55.54C245.948 54.6733 246.615 54.0133 247.455 53.56C248.295 53.0933 249.235 52.86 250.275 52.86C251.315 52.86 252.255 53.0933 253.095 53.56C253.935 54.0133 254.595 54.6667 255.075 55.52C255.568 56.3733 255.815 57.3667 255.815 58.5C255.815 59.6333 255.562 60.6333 255.055 61.5C254.562 62.3533 253.888 63.0133 253.035 63.48C252.182 63.9467 251.235 64.18 250.195 64.18ZM250.195 62.58C250.848 62.58 251.462 62.4267 252.035 62.12C252.608 61.8133 253.068 61.3533 253.415 60.74C253.775 60.1267 253.955 59.38 253.955 58.5C253.955 57.62 253.782 56.8733 253.435 56.26C253.088 55.6467 252.635 55.1933 252.075 54.9C251.515 54.5933 250.908 54.44 250.255 54.44C249.588 54.44 248.975 54.5933 248.415 54.9C247.868 55.1933 247.428 55.6467 247.095 56.26C246.762 56.8733 246.595 57.62 246.595 58.5C246.595 59.3933 246.755 60.1467 247.075 60.76C247.408 61.3733 247.848 61.8333 248.395 62.14C248.942 62.4333 249.542 62.58 250.195 62.58ZM263.728 52.86C264.675 52.86 265.501 53.0667 266.208 53.48C266.928 53.8933 267.461 54.4133 267.808 55.04V53.04H269.648V64.24C269.648 65.24 269.435 66.1267 269.008 66.9C268.581 67.6867 267.968 68.3 267.168 68.74C266.381 69.18 265.461 69.4 264.408 69.4C262.968 69.4 261.768 69.06 260.808 68.38C259.848 67.7 259.281 66.7733 259.108 65.6H260.908C261.108 66.2667 261.521 66.8 262.148 67.2C262.775 67.6133 263.528 67.82 264.408 67.82C265.408 67.82 266.221 67.5067 266.848 66.88C267.488 66.2533 267.808 65.3733 267.808 64.24V61.94C267.448 62.58 266.915 63.1133 266.208 63.54C265.501 63.9667 264.675 64.18 263.728 64.18C262.755 64.18 261.868 63.94 261.068 63.46C260.281 62.98 259.661 62.3067 259.208 61.44C258.755 60.5733 258.528 59.5867 258.528 58.48C258.528 57.36 258.755 56.38 259.208 55.54C259.661 54.6867 260.281 54.0267 261.068 53.56C261.868 53.0933 262.755 52.86 263.728 52.86ZM267.808 58.5C267.808 57.6733 267.641 56.9533 267.308 56.34C266.975 55.7267 266.521 55.26 265.948 54.94C265.388 54.6067 264.768 54.44 264.088 54.44C263.408 54.44 262.788 54.6 262.228 54.92C261.668 55.24 261.221 55.7067 260.888 56.32C260.555 56.9333 260.388 57.6533 260.388 58.48C260.388 59.32 260.555 60.0533 260.888 60.68C261.221 61.2933 261.668 61.7667 262.228 62.1C262.788 62.42 263.408 62.58 264.088 62.58C264.768 62.58 265.388 62.42 265.948 62.1C266.521 61.7667 266.975 61.2933 267.308 60.68C267.641 60.0533 267.808 59.3267 267.808 58.5ZM275.544 54.82C275.864 54.1933 276.317 53.7067 276.904 53.36C277.504 53.0133 278.23 52.84 279.084 52.84V54.72H278.604C276.564 54.72 275.544 55.8267 275.544 58.04V64H273.724V53.04H275.544V54.82ZM281.505 58.48C281.505 57.36 281.731 56.38 282.185 55.54C282.638 54.6867 283.258 54.0267 284.045 53.56C284.845 53.0933 285.731 52.86 286.705 52.86C287.665 52.86 288.498 53.0667 289.205 53.48C289.911 53.8933 290.438 54.4133 290.785 55.04V53.04H292.625V64H290.785V61.96C290.425 62.6 289.885 63.1333 289.165 63.56C288.458 63.9733 287.631 64.18 286.685 64.18C285.711 64.18 284.831 63.94 284.045 63.46C283.258 62.98 282.638 62.3067 282.185 61.44C281.731 60.5733 281.505 59.5867 281.505 58.48ZM290.785 58.5C290.785 57.6733 290.618 56.9533 290.285 56.34C289.951 55.7267 289.498 55.26 288.925 54.94C288.365 54.6067 287.745 54.44 287.065 54.44C286.385 54.44 285.765 54.6 285.205 54.92C284.645 55.24 284.198 55.7067 283.865 56.32C283.531 56.9333 283.365 57.6533 283.365 58.48C283.365 59.32 283.531 60.0533 283.865 60.68C284.198 61.2933 284.645 61.7667 285.205 62.1C285.765 62.42 286.385 62.58 287.065 62.58C287.745 62.58 288.365 62.42 288.925 62.1C289.498 61.7667 289.951 61.2933 290.285 60.68C290.618 60.0533 290.785 59.3267 290.785 58.5ZM298.52 55.06C298.88 54.4333 299.413 53.9133 300.12 53.5C300.84 53.0733 301.673 52.86 302.62 52.86C303.593 52.86 304.473 53.0933 305.26 53.56C306.06 54.0267 306.687 54.6867 307.14 55.54C307.593 56.38 307.82 57.36 307.82 58.48C307.82 59.5867 307.593 60.5733 307.14 61.44C306.687 62.3067 306.06 62.98 305.26 63.46C304.473 63.94 303.593 64.18 302.62 64.18C301.687 64.18 300.86 63.9733 300.14 63.56C299.433 63.1333 298.893 62.6067 298.52 61.98V69.2H296.7V53.04H298.52V55.06ZM305.96 58.48C305.96 57.6533 305.793 56.9333 305.46 56.32C305.127 55.7067 304.673 55.24 304.1 54.92C303.54 54.6 302.92 54.44 302.24 54.44C301.573 54.44 300.953 54.6067 300.38 54.94C299.82 55.26 299.367 55.7333 299.02 56.36C298.687 56.9733 298.52 57.6867 298.52 58.5C298.52 59.3267 298.687 60.0533 299.02 60.68C299.367 61.2933 299.82 61.7667 300.38 62.1C300.953 62.42 301.573 62.58 302.24 62.58C302.92 62.58 303.54 62.42 304.1 62.1C304.673 61.7667 305.127 61.2933 305.46 60.68C305.793 60.0533 305.96 59.32 305.96 58.48ZM316.656 52.84C317.482 52.84 318.229 53.02 318.896 53.38C319.562 53.7267 320.082 54.2533 320.456 54.96C320.842 55.6667 321.036 56.5267 321.036 57.54V64H319.236V57.8C319.236 56.7067 318.962 55.8733 318.416 55.3C317.869 54.7133 317.122 54.42 316.176 54.42C315.216 54.42 314.449 54.72 313.876 55.32C313.316 55.92 313.036 56.7933 313.036 57.94V64H311.216V49.2H313.036V54.6C313.396 54.04 313.889 53.6067 314.516 53.3C315.156 52.9933 315.869 52.84 316.656 52.84ZM325.949 51.26C325.602 51.26 325.309 51.14 325.069 50.9C324.829 50.66 324.709 50.3667 324.709 50.02C324.709 49.6733 324.829 49.38 325.069 49.14C325.309 48.9 325.602 48.78 325.949 48.78C326.282 48.78 326.562 48.9 326.789 49.14C327.029 49.38 327.149 49.6733 327.149 50.02C327.149 50.3667 327.029 50.66 326.789 50.9C326.562 51.14 326.282 51.26 325.949 51.26ZM326.829 53.04V64H325.009V53.04H326.829ZM330.251 58.5C330.251 57.3667 330.477 56.38 330.931 55.54C331.384 54.6867 332.011 54.0267 332.811 53.56C333.624 53.0933 334.551 52.86 335.591 52.86C336.937 52.86 338.044 53.1867 338.911 53.84C339.791 54.4933 340.371 55.4 340.651 56.56H338.691C338.504 55.8933 338.137 55.3667 337.591 54.98C337.057 54.5933 336.391 54.4 335.591 54.4C334.551 54.4 333.711 54.76 333.071 55.48C332.431 56.1867 332.111 57.1933 332.111 58.5C332.111 59.82 332.431 60.84 333.071 61.56C333.711 62.28 334.551 62.64 335.591 62.64C336.391 62.64 337.057 62.4533 337.591 62.08C338.124 61.7067 338.491 61.1733 338.691 60.48H340.651C340.357 61.6 339.771 62.5 338.891 63.18C338.011 63.8467 336.911 64.18 335.591 64.18C334.551 64.18 333.624 63.9467 332.811 63.48C332.011 63.0133 331.384 62.3533 330.931 61.5C330.477 60.6467 330.251 59.6467 330.251 58.5Z" fill="#282636"/>
<path d="M59.112 262.312C60.04 262.312 60.8133 262.632 61.432 263.272C62.04 263.901 62.344 264.867 62.344 266.168L62.344 268.312L67 268.312L67 269.768L55.848 269.768L55.848 266.168C55.848 264.909 56.152 263.955 56.76 263.304C57.368 262.643 58.152 262.312 59.112 262.312ZM61.144 266.168C61.144 265.357 60.968 264.76 60.616 264.376C60.264 263.992 59.7627 263.8 59.112 263.8C57.736 263.8 57.048 264.589 57.048 266.168L57.048 268.312L61.144 268.312L61.144 266.168ZM62.28 252.502C62.5573 252.502 62.8507 252.518 63.16 252.55L63.16 259.558C64.024 259.505 64.7013 259.212 65.192 258.678C65.672 258.134 65.912 257.478 65.912 256.71C65.912 256.081 65.768 255.558 65.48 255.142C65.1813 254.716 64.7867 254.417 64.296 254.246L64.296 252.678C65.1387 252.913 65.8267 253.382 66.36 254.086C66.8827 254.79 67.144 255.665 67.144 256.71C67.144 257.542 66.9573 258.289 66.584 258.95C66.2107 259.601 65.6827 260.113 65 260.486C64.3067 260.86 63.5067 261.046 62.6 261.046C61.6933 261.046 60.8987 260.865 60.216 260.502C59.5333 260.14 59.0107 259.633 58.648 258.982C58.2747 258.321 58.088 257.564 58.088 256.71C58.088 255.878 58.2693 255.142 58.632 254.502C58.9947 253.862 59.496 253.372 60.136 253.03C60.7653 252.678 61.48 252.502 62.28 252.502ZM61.976 254.006C61.4213 254.006 60.9467 254.129 60.552 254.374C60.1467 254.62 59.8427 254.956 59.64 255.382C59.4267 255.798 59.32 256.262 59.32 256.774C59.32 257.51 59.5547 258.14 60.024 258.662C60.4933 259.174 61.144 259.468 61.976 259.542L61.976 254.006ZM59.656 249.124C59.1547 248.868 58.7653 248.506 58.488 248.036C58.2107 247.556 58.072 246.975 58.072 246.292L59.576 246.292L59.576 246.676C59.576 248.308 60.4613 249.124 62.232 249.124L67 249.124L67 250.58L58.232 250.58L58.232 249.124L59.656 249.124ZM62.6 245.156C61.6933 245.156 60.904 244.974 60.232 244.612C59.5493 244.249 59.0213 243.748 58.648 243.108C58.2747 242.457 58.088 241.716 58.088 240.884C58.088 239.806 58.3493 238.921 58.872 238.228C59.3947 237.524 60.12 237.06 61.048 236.836L61.048 238.404C60.5147 238.553 60.0933 238.846 59.784 239.284C59.4747 239.71 59.32 240.244 59.32 240.884C59.32 241.716 59.608 242.388 60.184 242.9C60.7493 243.412 61.5547 243.668 62.6 243.668C63.656 243.668 64.472 243.412 65.048 242.9C65.624 242.388 65.912 241.716 65.912 240.884C65.912 240.244 65.7627 239.71 65.464 239.284C65.1653 238.857 64.7387 238.564 64.184 238.404L64.184 236.836C65.08 237.07 65.8 237.54 66.344 238.244C66.8773 238.948 67.144 239.828 67.144 240.884C67.144 241.716 66.9573 242.457 66.584 243.108C66.2107 243.748 65.6827 244.249 65 244.612C64.3173 244.974 63.5173 245.156 62.6 245.156ZM62.28 226.893C62.5573 226.893 62.8507 226.909 63.16 226.941L63.16 233.949C64.024 233.896 64.7013 233.602 65.192 233.069C65.672 232.525 65.912 231.869 65.912 231.101C65.912 230.472 65.768 229.949 65.48 229.533C65.1813 229.106 64.7867 228.808 64.296 228.637L64.296 227.069C65.1387 227.304 65.8267 227.773 66.36 228.477C66.8827 229.181 67.144 230.056 67.144 231.101C67.144 231.933 66.9573 232.68 66.584 233.341C66.2107 233.992 65.6827 234.504 65 234.877C64.3067 235.25 63.5067 235.437 62.6 235.437C61.6933 235.437 60.8987 235.256 60.216 234.893C59.5333 234.53 59.0107 234.024 58.648 233.373C58.2747 232.712 58.088 231.954 58.088 231.101C58.088 230.269 58.2693 229.533 58.632 228.893C58.9947 228.253 59.496 227.762 60.136 227.421C60.7653 227.069 61.48 226.893 62.28 226.893ZM61.976 228.397C61.4213 228.397 60.9467 228.52 60.552 228.765C60.1467 229.01 59.8427 229.346 59.64 229.773C59.4267 230.189 59.32 230.653 59.32 231.165C59.32 231.901 59.5547 232.53 60.024 233.053C60.4933 233.565 61.144 233.858 61.976 233.933L61.976 228.397ZM58.072 220.699C58.072 219.632 58.3973 218.768 59.048 218.107C59.688 217.446 60.616 217.115 61.832 217.115L67 217.115L67 218.555L62.04 218.555C61.1653 218.555 60.4987 218.774 60.04 219.211C59.5707 219.648 59.336 220.246 59.336 221.003C59.336 221.771 59.576 222.384 60.056 222.843C60.536 223.291 61.2347 223.515 62.152 223.515L67 223.515L67 224.971L58.232 224.971L58.232 223.515L59.48 223.515C59.032 223.227 58.6853 222.838 58.44 222.347C58.1947 221.846 58.072 221.296 58.072 220.699ZM59.432 212.961L64.6 212.961C65.0267 212.961 65.3307 212.87 65.512 212.689C65.6827 212.507 65.768 212.193 65.768 211.745L65.768 210.673L67 210.673L67 211.985C67 212.795 66.8133 213.403 66.44 213.809C66.0667 214.214 65.4533 214.417 64.6 214.417L59.432 214.417L59.432 215.553L58.232 215.553L58.232 214.417L56.024 214.417L56.024 212.961L58.232 212.961L58.232 210.673L59.432 210.673L59.432 212.961ZM62.584 209.453C61.688 209.453 60.904 209.271 60.232 208.909C59.5493 208.546 59.0213 208.05 58.648 207.421C58.2747 206.781 58.088 206.071 58.088 205.293C58.088 204.525 58.2533 203.858 58.584 203.293C58.9147 202.727 59.3307 202.306 59.832 202.029L58.232 202.029L58.232 200.557L67 200.557L67 202.029L65.368 202.029C65.88 202.317 66.3067 202.749 66.648 203.325C66.9787 203.89 67.144 204.551 67.144 205.309C67.144 206.087 66.952 206.791 66.568 207.421C66.184 208.05 65.6453 208.546 64.952 208.909C64.2587 209.271 63.4693 209.453 62.584 209.453ZM62.6 202.029C61.9387 202.029 61.3627 202.162 60.872 202.429C60.3813 202.695 60.008 203.058 59.752 203.517C59.4853 203.965 59.352 204.461 59.352 205.005C59.352 205.549 59.48 206.045 59.736 206.493C59.992 206.941 60.3653 207.298 60.856 207.565C61.3467 207.831 61.9227 207.965 62.584 207.965C63.256 207.965 63.8427 207.831 64.344 207.565C64.8347 207.298 65.2133 206.941 65.48 206.493C65.736 206.045 65.864 205.549 65.864 205.005C65.864 204.461 65.736 203.965 65.48 203.517C65.2133 203.058 64.8347 202.695 64.344 202.429C63.8427 202.162 63.2613 202.029 62.6 202.029ZM58.088 194.48C58.088 193.723 58.2533 193.061 58.584 192.496C58.9147 191.92 59.3307 191.493 59.832 191.216L58.232 191.216L58.232 189.744L67.192 189.744C67.992 189.744 68.7013 189.915 69.32 190.256C69.9493 190.597 70.44 191.088 70.792 191.728C71.144 192.357 71.32 193.093 71.32 193.936C71.32 195.088 71.048 196.048 70.504 196.816C69.96 197.584 69.2187 198.037 68.28 198.176L68.28 196.736C68.8133 196.576 69.24 196.245 69.56 195.744C69.8907 195.243 70.056 194.64 70.056 193.936C70.056 193.136 69.8053 192.485 69.304 191.984C68.8027 191.472 68.0987 191.216 67.192 191.216L65.352 191.216C65.864 191.504 66.2907 191.931 66.632 192.496C66.9733 193.061 67.144 193.723 67.144 194.48C67.144 195.259 66.952 195.968 66.568 196.608C66.184 197.237 65.6453 197.733 64.952 198.096C64.2587 198.459 63.4693 198.64 62.584 198.64C61.688 198.64 60.904 198.459 60.232 198.096C59.5493 197.733 59.0213 197.237 58.648 196.608C58.2747 195.968 58.088 195.259 58.088 194.48ZM62.6 191.216C61.9387 191.216 61.3627 191.349 60.872 191.616C60.3813 191.883 60.008 192.245 59.752 192.704C59.4853 193.152 59.352 193.648 59.352 194.192C59.352 194.736 59.48 195.232 59.736 195.68C59.992 196.128 60.3653 196.485 60.856 196.752C61.3467 197.019 61.9227 197.152 62.584 197.152C63.256 197.152 63.8427 197.019 64.344 196.752C64.8347 196.485 65.2133 196.128 65.48 195.68C65.736 195.232 65.864 194.736 65.864 194.192C65.864 193.648 65.736 193.152 65.48 192.704C65.2133 192.245 64.8347 191.883 64.344 191.616C63.8427 191.349 63.2613 191.216 62.6 191.216ZM62.28 179.284C62.5573 179.284 62.8507 179.3 63.16 179.332L63.16 186.34C64.024 186.286 64.7013 185.993 65.192 185.46C65.672 184.916 65.912 184.26 65.912 183.492C65.912 182.862 65.768 182.34 65.48 181.924C65.1813 181.497 64.7867 181.198 64.296 181.028L64.296 179.46C65.1387 179.694 65.8267 180.164 66.36 180.868C66.8827 181.572 67.144 182.446 67.144 183.492C67.144 184.324 66.9573 185.07 66.584 185.732C66.2107 186.382 65.6827 186.894 65 187.268C64.3067 187.641 63.5067 187.828 62.6 187.828C61.6933 187.828 60.8987 187.646 60.216 187.284C59.5333 186.921 59.0107 186.414 58.648 185.764C58.2747 185.102 58.088 184.345 58.088 183.492C58.088 182.66 58.2693 181.924 58.632 181.284C58.9947 180.644 59.496 180.153 60.136 179.812C60.7653 179.46 61.48 179.284 62.28 179.284ZM61.976 180.788C61.4213 180.788 60.9467 180.91 60.552 181.156C60.1467 181.401 59.8427 181.737 59.64 182.164C59.4267 182.58 59.32 183.044 59.32 183.556C59.32 184.292 59.5547 184.921 60.024 185.444C60.4933 185.956 61.144 186.249 61.976 186.324L61.976 180.788Z" fill="black"/>
<path d="M237.824 399.52H232.96L232.064 402H230.528L234.56 390.912H236.24L240.256 402H238.72L237.824 399.52ZM237.408 398.336L235.392 392.704L233.376 398.336H237.408ZM245.629 393.088C246.387 393.088 247.048 393.253 247.613 393.584C248.189 393.915 248.616 394.331 248.893 394.832V393.232H250.365V402.192C250.365 402.992 250.195 403.701 249.853 404.32C249.512 404.949 249.021 405.44 248.381 405.792C247.752 406.144 247.016 406.32 246.173 406.32C245.021 406.32 244.061 406.048 243.293 405.504C242.525 404.96 242.072 404.219 241.933 403.28H243.373C243.533 403.813 243.864 404.24 244.365 404.56C244.867 404.891 245.469 405.056 246.173 405.056C246.973 405.056 247.624 404.805 248.125 404.304C248.637 403.803 248.893 403.099 248.893 402.192V400.352C248.605 400.864 248.179 401.291 247.613 401.632C247.048 401.973 246.387 402.144 245.629 402.144C244.851 402.144 244.141 401.952 243.501 401.568C242.872 401.184 242.376 400.645 242.013 399.952C241.651 399.259 241.469 398.469 241.469 397.584C241.469 396.688 241.651 395.904 242.013 395.232C242.376 394.549 242.872 394.021 243.501 393.648C244.141 393.275 244.851 393.088 245.629 393.088ZM248.893 397.6C248.893 396.939 248.76 396.363 248.493 395.872C248.227 395.381 247.864 395.008 247.405 394.752C246.957 394.485 246.461 394.352 245.917 394.352C245.373 394.352 244.877 394.48 244.429 394.736C243.981 394.992 243.624 395.365 243.357 395.856C243.091 396.347 242.957 396.923 242.957 397.584C242.957 398.256 243.091 398.843 243.357 399.344C243.624 399.835 243.981 400.213 244.429 400.48C244.877 400.736 245.373 400.864 245.917 400.864C246.461 400.864 246.957 400.736 247.405 400.48C247.864 400.213 248.227 399.835 248.493 399.344C248.76 398.843 248.893 398.261 248.893 397.6ZM260.826 397.28C260.826 397.557 260.81 397.851 260.778 398.16H253.77C253.823 399.024 254.116 399.701 254.65 400.192C255.194 400.672 255.85 400.912 256.618 400.912C257.247 400.912 257.77 400.768 258.186 400.48C258.612 400.181 258.911 399.787 259.082 399.296H260.65C260.415 400.139 259.946 400.827 259.242 401.36C258.538 401.883 257.663 402.144 256.618 402.144C255.786 402.144 255.039 401.957 254.378 401.584C253.727 401.211 253.215 400.683 252.842 400C252.468 399.307 252.282 398.507 252.282 397.6C252.282 396.693 252.463 395.899 252.826 395.216C253.188 394.533 253.695 394.011 254.346 393.648C255.007 393.275 255.764 393.088 256.618 393.088C257.45 393.088 258.186 393.269 258.826 393.632C259.466 393.995 259.956 394.496 260.298 395.136C260.65 395.765 260.826 396.48 260.826 397.28ZM259.322 396.976C259.322 396.421 259.199 395.947 258.954 395.552C258.708 395.147 258.372 394.843 257.946 394.64C257.53 394.427 257.066 394.32 256.554 394.32C255.818 394.32 255.188 394.555 254.666 395.024C254.154 395.493 253.86 396.144 253.786 396.976H259.322ZM270.629 393.088C271.387 393.088 272.048 393.253 272.613 393.584C273.189 393.915 273.616 394.331 273.893 394.832V393.232H275.365V402.192C275.365 402.992 275.195 403.701 274.853 404.32C274.512 404.949 274.021 405.44 273.381 405.792C272.752 406.144 272.016 406.32 271.173 406.32C270.021 406.32 269.061 406.048 268.293 405.504C267.525 404.96 267.072 404.219 266.933 403.28H268.373C268.533 403.813 268.864 404.24 269.365 404.56C269.867 404.891 270.469 405.056 271.173 405.056C271.973 405.056 272.624 404.805 273.125 404.304C273.637 403.803 273.893 403.099 273.893 402.192V400.352C273.605 400.864 273.179 401.291 272.613 401.632C272.048 401.973 271.387 402.144 270.629 402.144C269.851 402.144 269.141 401.952 268.501 401.568C267.872 401.184 267.376 400.645 267.013 399.952C266.651 399.259 266.469 398.469 266.469 397.584C266.469 396.688 266.651 395.904 267.013 395.232C267.376 394.549 267.872 394.021 268.501 393.648C269.141 393.275 269.851 393.088 270.629 393.088ZM273.893 397.6C273.893 396.939 273.76 396.363 273.493 395.872C273.227 395.381 272.864 395.008 272.405 394.752C271.957 394.485 271.461 394.352 270.917 394.352C270.373 394.352 269.877 394.48 269.429 394.736C268.981 394.992 268.624 395.365 268.357 395.856C268.091 396.347 267.957 396.923 267.957 397.584C267.957 398.256 268.091 398.843 268.357 399.344C268.624 399.835 268.981 400.213 269.429 400.48C269.877 400.736 270.373 400.864 270.917 400.864C271.461 400.864 271.957 400.736 272.405 400.48C272.864 400.213 273.227 399.835 273.493 399.344C273.76 398.843 273.893 398.261 273.893 397.6ZM279.282 394.656C279.538 394.155 279.9 393.765 280.37 393.488C280.85 393.211 281.431 393.072 282.114 393.072V394.576H281.73C280.098 394.576 279.282 395.461 279.282 397.232V402H277.826V393.232H279.282V394.656ZM287.619 402.144C286.797 402.144 286.051 401.957 285.379 401.584C284.717 401.211 284.195 400.683 283.811 400C283.437 399.307 283.251 398.507 283.251 397.6C283.251 396.704 283.443 395.915 283.827 395.232C284.221 394.539 284.755 394.011 285.427 393.648C286.099 393.275 286.851 393.088 287.683 393.088C288.515 393.088 289.267 393.275 289.939 393.648C290.611 394.011 291.139 394.533 291.523 395.216C291.917 395.899 292.115 396.693 292.115 397.6C292.115 398.507 291.912 399.307 291.507 400C291.112 400.683 290.573 401.211 289.891 401.584C289.208 401.957 288.451 402.144 287.619 402.144ZM287.619 400.864C288.141 400.864 288.632 400.741 289.091 400.496C289.549 400.251 289.917 399.883 290.195 399.392C290.483 398.901 290.627 398.304 290.627 397.6C290.627 396.896 290.488 396.299 290.211 395.808C289.933 395.317 289.571 394.955 289.123 394.72C288.675 394.475 288.189 394.352 287.667 394.352C287.133 394.352 286.643 394.475 286.195 394.72C285.757 394.955 285.405 395.317 285.139 395.808C284.872 396.299 284.739 396.896 284.739 397.6C284.739 398.315 284.867 398.917 285.123 399.408C285.389 399.899 285.741 400.267 286.179 400.512C286.616 400.747 287.096 400.864 287.619 400.864ZM301.805 393.232V402H300.349V400.704C300.072 401.152 299.682 401.504 299.181 401.76C298.69 402.005 298.146 402.128 297.549 402.128C296.866 402.128 296.253 401.989 295.709 401.712C295.165 401.424 294.733 400.997 294.413 400.432C294.104 399.867 293.949 399.179 293.949 398.368V393.232H295.389V398.176C295.389 399.04 295.608 399.707 296.045 400.176C296.482 400.635 297.08 400.864 297.837 400.864C298.616 400.864 299.229 400.624 299.677 400.144C300.125 399.664 300.349 398.965 300.349 398.048V393.232H301.805ZM305.719 394.848C306.007 394.347 306.434 393.931 306.999 393.6C307.575 393.259 308.242 393.088 308.999 393.088C309.778 393.088 310.482 393.275 311.111 393.648C311.751 394.021 312.253 394.549 312.615 395.232C312.978 395.904 313.159 396.688 313.159 397.584C313.159 398.469 312.978 399.259 312.615 399.952C312.253 400.645 311.751 401.184 311.111 401.568C310.482 401.952 309.778 402.144 308.999 402.144C308.253 402.144 307.591 401.979 307.015 401.648C306.45 401.307 306.018 400.885 305.719 400.384V406.16H304.263V393.232H305.719V394.848ZM311.671 397.584C311.671 396.923 311.538 396.347 311.271 395.856C311.005 395.365 310.642 394.992 310.183 394.736C309.735 394.48 309.239 394.352 308.695 394.352C308.162 394.352 307.666 394.485 307.207 394.752C306.759 395.008 306.397 395.387 306.119 395.888C305.853 396.379 305.719 396.949 305.719 397.6C305.719 398.261 305.853 398.843 306.119 399.344C306.397 399.835 306.759 400.213 307.207 400.48C307.666 400.736 308.162 400.864 308.695 400.864C309.239 400.864 309.735 400.736 310.183 400.48C310.642 400.213 311.005 399.835 311.271 399.344C311.538 398.843 311.671 398.256 311.671 397.584Z" fill="black"/>
<path d="M79.531 100.76C79.5577 100.047 79.791 99.4967 80.231 99.11C80.671 98.7233 81.2677 98.53 82.021 98.53C82.521 98.53 82.9477 98.6167 83.301 98.79C83.661 98.9633 83.931 99.2 84.111 99.5C84.2977 99.8 84.391 100.137 84.391 100.51C84.391 100.95 84.281 101.31 84.061 101.59C83.841 101.863 83.5843 102.05 83.291 102.15V102.19C83.671 102.317 83.971 102.527 84.191 102.82C84.411 103.113 84.521 103.49 84.521 103.95C84.521 104.363 84.4243 104.73 84.231 105.05C84.0443 105.363 83.7677 105.61 83.401 105.79C83.041 105.97 82.611 106.06 82.111 106.06C81.311 106.06 80.671 105.863 80.191 105.47C79.7177 105.077 79.4677 104.483 79.441 103.69H81.101C81.1077 103.983 81.191 104.217 81.351 104.39C81.511 104.557 81.7443 104.64 82.051 104.64C82.311 104.64 82.511 104.567 82.651 104.42C82.7977 104.267 82.871 104.067 82.871 103.82C82.871 103.5 82.7677 103.27 82.561 103.13C82.361 102.983 82.0377 102.91 81.591 102.91H81.271V101.52H81.591C81.931 101.52 82.2043 101.463 82.411 101.35C82.6243 101.23 82.731 101.02 82.731 100.72C82.731 100.48 82.6643 100.293 82.531 100.16C82.3977 100.027 82.2143 99.96 81.981 99.96C81.7277 99.96 81.5377 100.037 81.411 100.19C81.291 100.343 81.221 100.533 81.201 100.76H79.531ZM85.5257 102.25C85.5257 101.103 85.7457 100.2 86.1857 99.54C86.6324 98.88 87.349 98.55 88.3357 98.55C89.3224 98.55 90.0357 98.88 90.4757 99.54C90.9224 100.2 91.1457 101.103 91.1457 102.25C91.1457 103.41 90.9224 104.32 90.4757 104.98C90.0357 105.64 89.3224 105.97 88.3357 105.97C87.349 105.97 86.6324 105.64 86.1857 104.98C85.7457 104.32 85.5257 103.41 85.5257 102.25ZM89.4657 102.25C89.4657 101.577 89.3924 101.06 89.2457 100.7C89.099 100.333 88.7957 100.15 88.3357 100.15C87.8757 100.15 87.5724 100.333 87.4257 100.7C87.279 101.06 87.2057 101.577 87.2057 102.25C87.2057 102.703 87.2324 103.08 87.2857 103.38C87.339 103.673 87.4457 103.913 87.6057 104.1C87.7724 104.28 88.0157 104.37 88.3357 104.37C88.6557 104.37 88.8957 104.28 89.0557 104.1C89.2224 103.913 89.3324 103.673 89.3857 103.38C89.439 103.08 89.4657 102.703 89.4657 102.25Z" fill="#767676"/>
<path d="M79.411 149.63C79.6377 149.45 79.741 149.367 79.721 149.38C80.3743 148.84 80.8877 148.397 81.261 148.05C81.641 147.703 81.961 147.34 82.221 146.96C82.481 146.58 82.611 146.21 82.611 145.85C82.611 145.577 82.5477 145.363 82.421 145.21C82.2943 145.057 82.1043 144.98 81.851 144.98C81.5977 144.98 81.3977 145.077 81.251 145.27C81.111 145.457 81.041 145.723 81.041 146.07H79.391C79.4043 145.503 79.5243 145.03 79.751 144.65C79.9843 144.27 80.2877 143.99 80.661 143.81C81.041 143.63 81.461 143.54 81.921 143.54C82.7143 143.54 83.311 143.743 83.711 144.15C84.1177 144.557 84.321 145.087 84.321 145.74C84.321 146.453 84.0777 147.117 83.591 147.73C83.1043 148.337 82.4843 148.93 81.731 149.51H84.431V150.9H79.411V149.63ZM90.3239 145.19H87.2039V146.57C87.3372 146.423 87.5239 146.303 87.7639 146.21C88.0039 146.117 88.2639 146.07 88.5439 146.07C89.0439 146.07 89.4572 146.183 89.7839 146.41C90.1172 146.637 90.3606 146.93 90.5139 147.29C90.6672 147.65 90.7439 148.04 90.7439 148.46C90.7439 149.24 90.5239 149.86 90.0839 150.32C89.6439 150.773 89.0239 151 88.2239 151C87.6906 151 87.2272 150.91 86.8339 150.73C86.4406 150.543 86.1372 150.287 85.9239 149.96C85.7106 149.633 85.5939 149.257 85.5739 148.83H87.2439C87.2839 149.037 87.3806 149.21 87.5339 149.35C87.6872 149.483 87.8972 149.55 88.1639 149.55C88.4772 149.55 88.7106 149.45 88.8639 149.25C89.0172 149.05 89.0939 148.783 89.0939 148.45C89.0939 148.123 89.0139 147.873 88.8539 147.7C88.6939 147.527 88.4606 147.44 88.1539 147.44C87.9272 147.44 87.7406 147.497 87.5939 147.61C87.4472 147.717 87.3506 147.86 87.3039 148.04H85.6539V143.69H90.3239V145.19Z" fill="#767676"/>
<path d="M79.411 194.63C79.6377 194.45 79.741 194.367 79.721 194.38C80.3743 193.84 80.8877 193.397 81.261 193.05C81.641 192.703 81.961 192.34 82.221 191.96C82.481 191.58 82.611 191.21 82.611 190.85C82.611 190.577 82.5477 190.363 82.421 190.21C82.2943 190.057 82.1043 189.98 81.851 189.98C81.5977 189.98 81.3977 190.077 81.251 190.27C81.111 190.457 81.041 190.723 81.041 191.07H79.391C79.4043 190.503 79.5243 190.03 79.751 189.65C79.9843 189.27 80.2877 188.99 80.661 188.81C81.041 188.63 81.461 188.54 81.921 188.54C82.7143 188.54 83.311 188.743 83.711 189.15C84.1177 189.557 84.321 190.087 84.321 190.74C84.321 191.453 84.0777 192.117 83.591 192.73C83.1043 193.337 82.4843 193.93 81.731 194.51H84.431V195.9H79.411V194.63ZM85.1839 192.25C85.1839 191.103 85.4039 190.2 85.8439 189.54C86.2906 188.88 87.0072 188.55 87.9939 188.55C88.9806 188.55 89.6939 188.88 90.1339 189.54C90.5806 190.2 90.8039 191.103 90.8039 192.25C90.8039 193.41 90.5806 194.32 90.1339 194.98C89.6939 195.64 88.9806 195.97 87.9939 195.97C87.0072 195.97 86.2906 195.64 85.8439 194.98C85.4039 194.32 85.1839 193.41 85.1839 192.25ZM89.1239 192.25C89.1239 191.577 89.0506 191.06 88.9039 190.7C88.7572 190.333 88.4539 190.15 87.9939 190.15C87.5339 190.15 87.2306 190.333 87.0839 190.7C86.9372 191.06 86.8639 191.577 86.8639 192.25C86.8639 192.703 86.8906 193.08 86.9439 193.38C86.9972 193.673 87.1039 193.913 87.2639 194.1C87.4306 194.28 87.6739 194.37 87.9939 194.37C88.3139 194.37 88.5539 194.28 88.7139 194.1C88.8806 193.913 88.9906 193.673 89.0439 193.38C89.0972 193.08 89.1239 192.703 89.1239 192.25Z" fill="#767676"/>
<path d="M81.291 235.29V233.7H84.061V241H82.281V235.29H81.291ZM90.3708 235.19H87.2508V236.57C87.3841 236.423 87.5708 236.303 87.8108 236.21C88.0508 236.117 88.3108 236.07 88.5908 236.07C89.0908 236.07 89.5041 236.183 89.8308 236.41C90.1641 236.637 90.4074 236.93 90.5608 237.29C90.7141 237.65 90.7908 238.04 90.7908 238.46C90.7908 239.24 90.5708 239.86 90.1308 240.32C89.6908 240.773 89.0708 241 88.2708 241C87.7374 241 87.2741 240.91 86.8808 240.73C86.4874 240.543 86.1841 240.287 85.9708 239.96C85.7574 239.633 85.6408 239.257 85.6208 238.83H87.2908C87.3308 239.037 87.4274 239.21 87.5808 239.35C87.7341 239.483 87.9441 239.55 88.2108 239.55C88.5241 239.55 88.7574 239.45 88.9108 239.25C89.0641 239.05 89.1408 238.783 89.1408 238.45C89.1408 238.123 89.0608 237.873 88.9008 237.7C88.7408 237.527 88.5074 237.44 88.2008 237.44C87.9741 237.44 87.7874 237.497 87.6408 237.61C87.4941 237.717 87.3974 237.86 87.3508 238.04H85.7008V233.69H90.3708V235.19Z" fill="#767676"/>
<path d="M81.291 280.29V278.7H84.061V286H82.281V280.29H81.291ZM85.2308 282.25C85.2308 281.103 85.4508 280.2 85.8908 279.54C86.3374 278.88 87.0541 278.55 88.0408 278.55C89.0274 278.55 89.7408 278.88 90.1808 279.54C90.6274 280.2 90.8508 281.103 90.8508 282.25C90.8508 283.41 90.6274 284.32 90.1808 284.98C89.7408 285.64 89.0274 285.97 88.0408 285.97C87.0541 285.97 86.3374 285.64 85.8908 284.98C85.4508 284.32 85.2308 283.41 85.2308 282.25ZM89.1708 282.25C89.1708 281.577 89.0974 281.06 88.9508 280.7C88.8041 280.333 88.5008 280.15 88.0408 280.15C87.5808 280.15 87.2774 280.333 87.1308 280.7C86.9841 281.06 86.9108 281.577 86.9108 282.25C86.9108 282.703 86.9374 283.08 86.9908 283.38C87.0441 283.673 87.1508 283.913 87.3108 284.1C87.4774 284.28 87.7208 284.37 88.0408 284.37C88.3608 284.37 88.6008 284.28 88.7608 284.1C88.9274 283.913 89.0374 283.673 89.0908 283.38C89.1441 283.08 89.1708 282.703 89.1708 282.25Z" fill="#767676"/>
<path d="M90.611 325.19H87.491V326.57C87.6243 326.423 87.811 326.303 88.051 326.21C88.291 326.117 88.551 326.07 88.831 326.07C89.331 326.07 89.7443 326.183 90.071 326.41C90.4043 326.637 90.6477 326.93 90.801 327.29C90.9543 327.65 91.031 328.04 91.031 328.46C91.031 329.24 90.811 329.86 90.371 330.32C89.931 330.773 89.311 331 88.511 331C87.9777 331 87.5143 330.91 87.121 330.73C86.7277 330.543 86.4243 330.287 86.211 329.96C85.9977 329.633 85.881 329.257 85.861 328.83H87.531C87.571 329.037 87.6677 329.21 87.821 329.35C87.9743 329.483 88.1843 329.55 88.451 329.55C88.7643 329.55 88.9977 329.45 89.151 329.25C89.3043 329.05 89.381 328.783 89.381 328.45C89.381 328.123 89.301 327.873 89.141 327.7C88.981 327.527 88.7477 327.44 88.441 327.44C88.2143 327.44 88.0277 327.497 87.881 327.61C87.7343 327.717 87.6377 327.86 87.591 328.04H85.941V323.69H90.611V325.19Z" fill="#767676"/>
<path d="M85.471 372.25C85.471 371.103 85.691 370.2 86.131 369.54C86.5777 368.88 87.2943 368.55 88.281 368.55C89.2677 368.55 89.981 368.88 90.421 369.54C90.8677 370.2 91.091 371.103 91.091 372.25C91.091 373.41 90.8677 374.32 90.421 374.98C89.981 375.64 89.2677 375.97 88.281 375.97C87.2943 375.97 86.5777 375.64 86.131 374.98C85.691 374.32 85.471 373.41 85.471 372.25ZM89.411 372.25C89.411 371.577 89.3377 371.06 89.191 370.7C89.0443 370.333 88.741 370.15 88.281 370.15C87.821 370.15 87.5177 370.333 87.371 370.7C87.2243 371.06 87.151 371.577 87.151 372.25C87.151 372.703 87.1777 373.08 87.231 373.38C87.2843 373.673 87.391 373.913 87.551 374.1C87.7177 374.28 87.961 374.37 88.281 374.37C88.601 374.37 88.841 374.28 89.001 374.1C89.1677 373.913 89.2777 373.673 89.331 373.38C89.3843 373.08 89.411 372.703 89.411 372.25Z" fill="#767676"/>
<line opacity="0.5" x1="107.5" y1="100.084" x2="437.974" y2="100.084" stroke="#B1B1B1" stroke-width="0.85615" stroke-dasharray="1.71 1.71"/>
<line opacity="0.5" x1="107.5" y1="142.084" x2="437.974" y2="142.084" stroke="#B1B1B1" stroke-width="0.85615" stroke-dasharray="1.71 1.71"/>
<line opacity="0.5" x1="107.5" y1="184.084" x2="437.974" y2="184.084" stroke="#B1B1B1" stroke-width="0.85615" stroke-dasharray="1.71 1.71"/>
<line opacity="0.5" x1="107.5" y1="226.084" x2="437.974" y2="226.084" stroke="#B1B1B1" stroke-width="0.85615" stroke-dasharray="1.71 1.71"/>
<line opacity="0.5" x1="107.5" y1="268.084" x2="437.974" y2="268.084" stroke="#B1B1B1" stroke-width="0.85615" stroke-dasharray="1.71 1.71"/>
<line opacity="0.5" x1="107.5" y1="310.084" x2="437.974" y2="310.084" stroke="#B1B1B1" stroke-width="0.85615" stroke-dasharray="1.71 1.71"/>
<line opacity="0.5" x1="107.5" y1="352.187" x2="433.5" y2="352.187" stroke="#B1B1B1" stroke-width="0.649831"/>
<rect x="122.29" y="244.775" width="23.9722" height="107.438" rx="4.72481" fill="#344BFD"/>
<rect x="318.117" y="203.007" width="23.9722" height="149.207" rx="4.72481" fill="#344BFD"/>
<rect x="187.565" y="159.505" width="23.9722" height="192.709" rx="4.72481" fill="#344BFD"/>
<rect x="383.393" y="179.939" width="23.9722" height="172.275" rx="4.72481" fill="#344BFD"/>
<rect x="252.842" y="230.002" width="23.9722" height="122.211" rx="4.72481" fill="#344BFD"/>
<path d="M128.1 371.71L126.07 369.5L128.1 367.29H130.25L128.21 369.5L130.25 371.71H128.1ZM131.278 367.29V365.7H134.048V373H132.268V367.29H131.278ZM136.418 369.08C135.791 368.747 135.478 368.223 135.478 367.51C135.478 367.15 135.571 366.823 135.758 366.53C135.944 366.23 136.228 365.993 136.608 365.82C136.988 365.64 137.454 365.55 138.008 365.55C138.561 365.55 139.024 365.64 139.398 365.82C139.778 365.993 140.061 366.23 140.248 366.53C140.434 366.823 140.528 367.15 140.528 367.51C140.528 367.87 140.441 368.183 140.268 368.45C140.101 368.717 139.874 368.927 139.588 369.08C139.948 369.253 140.224 369.493 140.418 369.8C140.611 370.1 140.708 370.453 140.708 370.86C140.708 371.333 140.588 371.743 140.348 372.09C140.108 372.43 139.781 372.69 139.368 372.87C138.961 373.05 138.508 373.14 138.008 373.14C137.508 373.14 137.051 373.05 136.638 372.87C136.231 372.69 135.908 372.43 135.668 372.09C135.428 371.743 135.308 371.333 135.308 370.86C135.308 370.447 135.404 370.09 135.598 369.79C135.791 369.483 136.064 369.247 136.418 369.08ZM138.868 367.77C138.868 367.497 138.788 367.287 138.628 367.14C138.474 366.987 138.268 366.91 138.008 366.91C137.748 366.91 137.538 366.987 137.378 367.14C137.224 367.293 137.148 367.507 137.148 367.78C137.148 368.04 137.228 368.247 137.388 368.4C137.548 368.547 137.754 368.62 138.008 368.62C138.261 368.62 138.468 368.543 138.628 368.39C138.788 368.237 138.868 368.03 138.868 367.77ZM138.008 369.82C137.694 369.82 137.441 369.907 137.248 370.08C137.054 370.247 136.958 370.48 136.958 370.78C136.958 371.06 137.051 371.29 137.238 371.47C137.431 371.65 137.688 371.74 138.008 371.74C138.328 371.74 138.578 371.65 138.758 371.47C138.944 371.29 139.038 371.06 139.038 370.78C139.038 370.487 138.941 370.253 138.748 370.08C138.561 369.907 138.314 369.82 138.008 369.82Z" fill="#767676"/>
<path d="M179.77 367.29V365.7H182.54V373H180.76V367.29H179.77ZM184.91 369.08C184.283 368.747 183.97 368.223 183.97 367.51C183.97 367.15 184.063 366.823 184.25 366.53C184.436 366.23 184.72 365.993 185.1 365.82C185.48 365.64 185.946 365.55 186.5 365.55C187.053 365.55 187.516 365.64 187.89 365.82C188.27 365.993 188.553 366.23 188.74 366.53C188.926 366.823 189.02 367.15 189.02 367.51C189.02 367.87 188.933 368.183 188.76 368.45C188.593 368.717 188.366 368.927 188.08 369.08C188.44 369.253 188.716 369.493 188.91 369.8C189.103 370.1 189.2 370.453 189.2 370.86C189.2 371.333 189.08 371.743 188.84 372.09C188.6 372.43 188.273 372.69 187.86 372.87C187.453 373.05 187 373.14 186.5 373.14C186 373.14 185.543 373.05 185.13 372.87C184.723 372.69 184.4 372.43 184.16 372.09C183.92 371.743 183.8 371.333 183.8 370.86C183.8 370.447 183.896 370.09 184.09 369.79C184.283 369.483 184.556 369.247 184.91 369.08ZM187.36 367.77C187.36 367.497 187.28 367.287 187.12 367.14C186.966 366.987 186.76 366.91 186.5 366.91C186.24 366.91 186.03 366.987 185.87 367.14C185.716 367.293 185.64 367.507 185.64 367.78C185.64 368.04 185.72 368.247 185.88 368.4C186.04 368.547 186.246 368.62 186.5 368.62C186.753 368.62 186.96 368.543 187.12 368.39C187.28 368.237 187.36 368.03 187.36 367.77ZM186.5 369.82C186.186 369.82 185.933 369.907 185.74 370.08C185.546 370.247 185.45 370.48 185.45 370.78C185.45 371.06 185.543 371.29 185.73 371.47C185.923 371.65 186.18 371.74 186.5 371.74C186.82 371.74 187.07 371.65 187.25 371.47C187.436 371.29 187.53 371.06 187.53 370.78C187.53 370.487 187.433 370.253 187.24 370.08C187.053 369.907 186.806 369.82 186.5 369.82ZM194.664 368.78V370.2H190.264V368.78H194.664ZM195.935 371.63C196.162 371.45 196.265 371.367 196.245 371.38C196.898 370.84 197.412 370.397 197.785 370.05C198.165 369.703 198.485 369.34 198.745 368.96C199.005 368.58 199.135 368.21 199.135 367.85C199.135 367.577 199.072 367.363 198.945 367.21C198.818 367.057 198.628 366.98 198.375 366.98C198.122 366.98 197.922 367.077 197.775 367.27C197.635 367.457 197.565 367.723 197.565 368.07H195.915C195.928 367.503 196.048 367.03 196.275 366.65C196.508 366.27 196.812 365.99 197.185 365.81C197.565 365.63 197.985 365.54 198.445 365.54C199.238 365.54 199.835 365.743 200.235 366.15C200.642 366.557 200.845 367.087 200.845 367.74C200.845 368.453 200.602 369.117 200.115 369.73C199.628 370.337 199.008 370.93 198.255 371.51H200.955V372.9H195.935V371.63ZM201.748 371.7V370.32L204.908 365.8H206.818V370.22H207.638V371.7H206.818V373H205.108V371.7H201.748ZM205.228 367.68L203.548 370.22H205.228V367.68Z" fill="#767676"/>
<path d="M246.89 371.63C247.117 371.45 247.22 371.367 247.2 371.38C247.853 370.84 248.367 370.397 248.74 370.05C249.12 369.703 249.44 369.34 249.7 368.96C249.96 368.58 250.09 368.21 250.09 367.85C250.09 367.577 250.027 367.363 249.9 367.21C249.773 367.057 249.583 366.98 249.33 366.98C249.077 366.98 248.877 367.077 248.73 367.27C248.59 367.457 248.52 367.723 248.52 368.07H246.87C246.883 367.503 247.003 367.03 247.23 366.65C247.463 366.27 247.767 365.99 248.14 365.81C248.52 365.63 248.94 365.54 249.4 365.54C250.193 365.54 250.79 365.743 251.19 366.15C251.597 366.557 251.8 367.087 251.8 367.74C251.8 368.453 251.557 369.117 251.07 369.73C250.583 370.337 249.963 370.93 249.21 371.51H251.91V372.9H246.89V371.63ZM257.803 367.19H254.683V368.57C254.816 368.423 255.003 368.303 255.243 368.21C255.483 368.117 255.743 368.07 256.023 368.07C256.523 368.07 256.936 368.183 257.263 368.41C257.596 368.637 257.84 368.93 257.993 369.29C258.146 369.65 258.223 370.04 258.223 370.46C258.223 371.24 258.003 371.86 257.563 372.32C257.123 372.773 256.503 373 255.703 373C255.17 373 254.706 372.91 254.313 372.73C253.92 372.543 253.616 372.287 253.403 371.96C253.19 371.633 253.073 371.257 253.053 370.83H254.723C254.763 371.037 254.86 371.21 255.013 371.35C255.166 371.483 255.376 371.55 255.643 371.55C255.956 371.55 256.19 371.45 256.343 371.25C256.496 371.05 256.573 370.783 256.573 370.45C256.573 370.123 256.493 369.873 256.333 369.7C256.173 369.527 255.94 369.44 255.633 369.44C255.406 369.44 255.22 369.497 255.073 369.61C254.926 369.717 254.83 369.86 254.783 370.04H253.133V365.69H257.803V367.19ZM263.637 368.78V370.2H259.237V368.78H263.637ZM265.028 367.76C265.054 367.047 265.288 366.497 265.728 366.11C266.168 365.723 266.764 365.53 267.518 365.53C268.018 365.53 268.444 365.617 268.798 365.79C269.158 365.963 269.428 366.2 269.608 366.5C269.794 366.8 269.888 367.137 269.888 367.51C269.888 367.95 269.778 368.31 269.558 368.59C269.338 368.863 269.081 369.05 268.788 369.15V369.19C269.168 369.317 269.468 369.527 269.688 369.82C269.908 370.113 270.018 370.49 270.018 370.95C270.018 371.363 269.921 371.73 269.728 372.05C269.541 372.363 269.264 372.61 268.898 372.79C268.538 372.97 268.108 373.06 267.608 373.06C266.808 373.06 266.168 372.863 265.688 372.47C265.214 372.077 264.964 371.483 264.938 370.69H266.598C266.604 370.983 266.688 371.217 266.848 371.39C267.008 371.557 267.241 371.64 267.548 371.64C267.808 371.64 268.008 371.567 268.148 371.42C268.294 371.267 268.368 371.067 268.368 370.82C268.368 370.5 268.264 370.27 268.058 370.13C267.858 369.983 267.534 369.91 267.088 369.91H266.768V368.52H267.088C267.428 368.52 267.701 368.463 267.908 368.35C268.121 368.23 268.228 368.02 268.228 367.72C268.228 367.48 268.161 367.293 268.028 367.16C267.894 367.027 267.711 366.96 267.478 366.96C267.224 366.96 267.034 367.037 266.908 367.19C266.788 367.343 266.718 367.533 266.698 367.76H265.028ZM271.062 371.7V370.32L274.222 365.8H276.132V370.22H276.952V371.7H276.132V373H274.422V371.7H271.062ZM274.542 367.68L272.862 370.22H274.542V367.68Z" fill="#767676"/>
<path d="M316.01 367.76C316.037 367.047 316.27 366.497 316.71 366.11C317.15 365.723 317.747 365.53 318.5 365.53C319 365.53 319.427 365.617 319.78 365.79C320.14 365.963 320.41 366.2 320.59 366.5C320.777 366.8 320.87 367.137 320.87 367.51C320.87 367.95 320.76 368.31 320.54 368.59C320.32 368.863 320.063 369.05 319.77 369.15V369.19C320.15 369.317 320.45 369.527 320.67 369.82C320.89 370.113 321 370.49 321 370.95C321 371.363 320.903 371.73 320.71 372.05C320.523 372.363 320.247 372.61 319.88 372.79C319.52 372.97 319.09 373.06 318.59 373.06C317.79 373.06 317.15 372.863 316.67 372.47C316.197 372.077 315.947 371.483 315.92 370.69H317.58C317.587 370.983 317.67 371.217 317.83 371.39C317.99 371.557 318.223 371.64 318.53 371.64C318.79 371.64 318.99 371.567 319.13 371.42C319.277 371.267 319.35 371.067 319.35 370.82C319.35 370.5 319.247 370.27 319.04 370.13C318.84 369.983 318.517 369.91 318.07 369.91H317.75V368.52H318.07C318.41 368.52 318.683 368.463 318.89 368.35C319.103 368.23 319.21 368.02 319.21 367.72C319.21 367.48 319.143 367.293 319.01 367.16C318.877 367.027 318.693 366.96 318.46 366.96C318.207 366.96 318.017 367.037 317.89 367.19C317.77 367.343 317.7 367.533 317.68 367.76H316.01ZM327.145 367.19H324.025V368.57C324.158 368.423 324.345 368.303 324.585 368.21C324.825 368.117 325.085 368.07 325.365 368.07C325.865 368.07 326.278 368.183 326.605 368.41C326.938 368.637 327.181 368.93 327.335 369.29C327.488 369.65 327.565 370.04 327.565 370.46C327.565 371.24 327.345 371.86 326.905 372.32C326.465 372.773 325.845 373 325.045 373C324.511 373 324.048 372.91 323.655 372.73C323.261 372.543 322.958 372.287 322.745 371.96C322.531 371.633 322.415 371.257 322.395 370.83H324.065C324.105 371.037 324.201 371.21 324.355 371.35C324.508 371.483 324.718 371.55 324.985 371.55C325.298 371.55 325.531 371.45 325.685 371.25C325.838 371.05 325.915 370.783 325.915 370.45C325.915 370.123 325.835 369.873 325.675 369.7C325.515 369.527 325.281 369.44 324.975 369.44C324.748 369.44 324.561 369.497 324.415 369.61C324.268 369.717 324.171 369.86 324.125 370.04H322.475V365.69H327.145V367.19ZM332.979 368.78V370.2H328.579V368.78H332.979ZM334.349 371.7V370.32L337.509 365.8H339.419V370.22H340.239V371.7H339.419V373H337.709V371.7H334.349ZM337.829 367.68L336.149 370.22H337.829V367.68ZM341.117 371.7V370.32L344.277 365.8H346.187V370.22H347.007V371.7H346.187V373H344.477V371.7H341.117ZM344.597 367.68L342.917 370.22H344.597V367.68Z" fill="#767676"/>
<path d="M385.99 371.7V370.32L389.15 365.8H391.06V370.22H391.88V371.7H391.06V373H389.35V371.7H385.99ZM389.47 367.68L387.79 370.22H389.47V367.68ZM397.858 367.19H394.738V368.57C394.871 368.423 395.058 368.303 395.298 368.21C395.538 368.117 395.798 368.07 396.078 368.07C396.578 368.07 396.991 368.183 397.318 368.41C397.651 368.637 397.894 368.93 398.048 369.29C398.201 369.65 398.278 370.04 398.278 370.46C398.278 371.24 398.058 371.86 397.618 372.32C397.178 372.773 396.558 373 395.758 373C395.224 373 394.761 372.91 394.368 372.73C393.974 372.543 393.671 372.287 393.458 371.96C393.244 371.633 393.128 371.257 393.108 370.83H394.778C394.818 371.037 394.914 371.21 395.068 371.35C395.221 371.483 395.431 371.55 395.698 371.55C396.011 371.55 396.244 371.45 396.398 371.25C396.551 371.05 396.628 370.783 396.628 370.45C396.628 370.123 396.548 369.873 396.388 369.7C396.228 369.527 395.994 369.44 395.688 369.44C395.461 369.44 395.274 369.497 395.128 369.61C394.981 369.717 394.884 369.86 394.838 370.04H393.188V365.69H397.858V367.19ZM404.461 370.27H402.721V372.05H401.101V370.27H399.361V368.74H401.101V366.95H402.721V368.74H404.461V370.27Z" fill="#767676"/>
<line opacity="0.5" x1="107.175" y1="352" x2="107.175" y2="85" stroke="#B1B1B1" stroke-width="0.649831"/>
</svg>
