<svg width="486" height="444" viewBox="0 0 486 444" fill="none" xmlns="http://www.w3.org/2000/svg">
<rect x="0.5" y="0.5" width="485" height="443" rx="9.5" fill="white" stroke="#EAEAEA"/>
<path d="M124.86 49.9C127.8 49.9 130.24 51.42 131.28 54.1H129.1C128.34 52.48 126.82 51.54 124.86 51.54C121.92 51.54 119.72 53.66 119.72 57.02C119.72 60.36 121.92 62.48 124.86 62.48C127.6 62.48 129.48 60.72 129.76 57.96H124.2V56.48H131.7V57.88C131.38 61.34 128.64 64.12 124.86 64.12C120.94 64.12 117.86 61.2 117.86 57.02C117.86 52.84 120.94 49.9 124.86 49.9ZM139.766 54.4C137.986 54.4 136.506 55.58 136.306 57.72H143.226C143.246 55.58 141.646 54.4 139.766 54.4ZM144.886 60.62C144.326 62.62 142.566 64.18 139.846 64.18C136.726 64.18 134.426 61.98 134.426 58.5C134.426 55.04 136.646 52.86 139.846 52.86C143.026 52.86 145.106 55.1 145.106 58.1C145.106 58.5 145.086 58.82 145.046 59.2H136.286C136.426 61.42 137.986 62.64 139.846 62.64C141.486 62.64 142.526 61.8 142.926 60.62H144.886ZM156.529 64V57.8C156.529 55.56 155.309 54.42 153.469 54.42C151.609 54.42 150.329 55.58 150.329 57.94V64H148.509V53.04H150.329V54.6C151.049 53.46 152.369 52.84 153.849 52.84C156.389 52.84 158.329 54.4 158.329 57.54V64H156.529ZM161.622 58.48C161.622 55.06 163.882 52.86 166.842 52.86C168.562 52.86 170.142 53.74 170.902 55V49.2H172.742V64H170.902V61.94C170.242 63.16 168.822 64.18 166.822 64.18C163.882 64.18 161.622 61.88 161.622 58.48ZM170.902 58.5C170.902 55.96 169.182 54.44 167.182 54.44C165.182 54.44 163.482 55.9 163.482 58.48C163.482 61.06 165.182 62.58 167.182 62.58C169.182 62.58 170.902 61.08 170.902 58.5ZM181.477 54.4C179.697 54.4 178.217 55.58 178.017 57.72H184.937C184.957 55.58 183.357 54.4 181.477 54.4ZM186.597 60.62C186.037 62.62 184.277 64.18 181.557 64.18C178.437 64.18 176.137 61.98 176.137 58.5C176.137 55.04 178.357 52.86 181.557 52.86C184.737 52.86 186.817 55.1 186.817 58.1C186.817 58.5 186.797 58.82 186.757 59.2H177.997C178.137 61.42 179.697 62.64 181.557 62.64C183.197 62.64 184.237 61.8 184.637 60.62H186.597ZM192.04 58.04V64H190.22V53.04H192.04V54.82C192.66 53.6 193.84 52.84 195.58 52.84V54.72H195.1C193.36 54.72 192.04 55.5 192.04 58.04ZM209.353 50.06C213.933 50.06 216.753 52.74 216.753 57.06C216.753 61.38 213.933 64 209.353 64H205.013V50.06H209.353ZM206.833 62.5H209.353C212.993 62.5 214.893 60.46 214.893 57.06C214.893 53.66 212.993 51.54 209.353 51.54H206.833V62.5ZM224.813 54.4C223.033 54.4 221.553 55.58 221.353 57.72H228.273C228.293 55.58 226.693 54.4 224.813 54.4ZM229.933 60.62C229.373 62.62 227.613 64.18 224.893 64.18C221.773 64.18 219.473 61.98 219.473 58.5C219.473 55.04 221.693 52.86 224.893 52.86C228.073 52.86 230.153 55.1 230.153 58.1C230.153 58.5 230.133 58.82 230.093 59.2H221.333C221.473 61.42 223.033 62.64 224.893 62.64C226.533 62.64 227.573 61.8 227.973 60.62H229.933ZM249.376 64V57.8C249.376 55.56 248.176 54.42 246.376 54.42C244.536 54.42 243.276 55.6 243.276 57.96V64H241.476V57.8C241.476 55.56 240.276 54.42 238.476 54.42C236.636 54.42 235.376 55.6 235.376 57.96V64H233.556V53.04H235.376V54.62C236.096 53.46 237.396 52.84 238.836 52.84C240.636 52.84 242.136 53.64 242.856 55.28C243.496 53.7 245.056 52.84 246.736 52.84C249.236 52.84 251.176 54.4 251.176 57.54V64H249.376ZM265.561 58.5C265.561 61.98 263.061 64.18 259.941 64.18C256.841 64.18 254.481 61.98 254.481 58.5C254.481 55.04 256.921 52.86 260.021 52.86C263.141 52.86 265.561 55.04 265.561 58.5ZM256.341 58.5C256.341 61.28 258.041 62.58 259.941 62.58C261.841 62.58 263.701 61.28 263.701 58.5C263.701 55.74 261.881 54.44 260.001 54.44C258.081 54.44 256.341 55.74 256.341 58.5ZM268.274 58.48C268.274 55.06 270.534 52.86 273.474 52.86C275.474 52.86 276.914 53.86 277.554 55.04V53.04H279.394V64.24C279.394 67.26 277.374 69.4 274.154 69.4C271.274 69.4 269.214 67.94 268.854 65.6H270.654C271.054 66.92 272.354 67.82 274.154 67.82C276.094 67.82 277.554 66.58 277.554 64.24V61.94C276.894 63.12 275.474 64.18 273.474 64.18C270.534 64.18 268.274 61.88 268.274 58.48ZM277.554 58.5C277.554 55.96 275.834 54.44 273.834 54.44C271.834 54.44 270.134 55.9 270.134 58.48C270.134 61.06 271.834 62.58 273.834 62.58C275.834 62.58 277.554 61.08 277.554 58.5ZM285.29 58.04V64H283.47V53.04H285.29V54.82C285.91 53.6 287.09 52.84 288.83 52.84V54.72H288.35C286.61 54.72 285.29 55.5 285.29 58.04ZM291.251 58.48C291.251 55.06 293.511 52.86 296.451 52.86C298.491 52.86 299.891 53.9 300.531 55.04V53.04H302.371V64H300.531V61.96C299.871 63.14 298.451 64.18 296.431 64.18C293.511 64.18 291.251 61.88 291.251 58.48ZM300.531 58.5C300.531 55.96 298.811 54.44 296.811 54.44C294.811 54.44 293.111 55.9 293.111 58.48C293.111 61.06 294.811 62.58 296.811 62.58C298.811 62.58 300.531 61.08 300.531 58.5ZM308.266 55.06C308.926 53.9 310.366 52.86 312.366 52.86C315.306 52.86 317.566 55.06 317.566 58.48C317.566 61.88 315.306 64.18 312.366 64.18C310.366 64.18 308.946 63.1 308.266 61.98V69.2H306.446V53.04H308.266V55.06ZM315.706 58.48C315.706 55.9 314.006 54.44 311.986 54.44C310.006 54.44 308.266 55.96 308.266 58.5C308.266 61.08 310.006 62.58 311.986 62.58C314.006 62.58 315.706 61.06 315.706 58.48ZM320.962 64V49.2H322.782V54.62C323.502 53.46 324.862 52.84 326.402 52.84C328.842 52.84 330.782 54.4 330.782 57.54V64H328.982V57.8C328.982 55.56 327.762 54.42 325.922 54.42C324.062 54.42 322.782 55.58 322.782 57.94V64H320.962ZM334.755 64V53.04H336.575V64H334.755ZM335.695 51.26C334.995 51.26 334.455 50.72 334.455 50.02C334.455 49.32 334.995 48.78 335.695 48.78C336.355 48.78 336.895 49.32 336.895 50.02C336.895 50.72 336.355 51.26 335.695 51.26ZM339.997 58.5C339.997 55.06 342.217 52.86 345.337 52.86C348.057 52.86 349.837 54.26 350.397 56.56H348.437C348.057 55.24 346.957 54.4 345.337 54.4C343.337 54.4 341.857 55.82 341.857 58.5C341.857 61.22 343.337 62.64 345.337 62.64C346.957 62.64 348.037 61.86 348.437 60.48H350.397C349.837 62.66 348.057 64.18 345.337 64.18C342.217 64.18 339.997 61.98 339.997 58.5Z" fill="#282636"/>
<path d="M44.54 200V186.16H46.5L51.62 197.6L56.74 186.16H58.68V200H56.86V189.68L52.26 200H50.98L46.36 189.66V200H44.54ZM62.0866 194.48C62.0866 191.06 64.3466 188.86 67.2866 188.86C69.3266 188.86 70.7266 189.9 71.3666 191.04V189.04H73.2066V200H71.3666V197.96C70.7066 199.14 69.2866 200.18 67.2666 200.18C64.3466 200.18 62.0866 197.88 62.0866 194.48ZM71.3666 194.5C71.3666 191.96 69.6466 190.44 67.6466 190.44C65.6466 190.44 63.9466 191.9 63.9466 194.48C63.9466 197.06 65.6466 198.58 67.6466 198.58C69.6466 198.58 71.3666 197.08 71.3666 194.5ZM77.2822 200V185.2H79.1022V200H77.2822ZM87.8641 190.4C86.0841 190.4 84.6041 191.58 84.4041 193.72H91.3241C91.3441 191.58 89.7441 190.4 87.8641 190.4ZM92.9841 196.62C92.4241 198.62 90.6641 200.18 87.9441 200.18C84.8241 200.18 82.5241 197.98 82.5241 194.5C82.5241 191.04 84.7441 188.86 87.9441 188.86C91.1241 188.86 93.2041 191.1 93.2041 194.1C93.2041 194.5 93.1841 194.82 93.1441 195.2H84.3841C84.5241 197.42 86.0841 198.64 87.9441 198.64C89.5841 198.64 90.6241 197.8 91.0241 196.62H92.9841Z" fill="#282636"/>
<path d="M365.54 329V315.06H373.42V316.54H367.36V321.24H372.28V322.72H367.36V329H365.54ZM381.278 319.4C379.498 319.4 378.018 320.58 377.818 322.72H384.738C384.758 320.58 383.158 319.4 381.278 319.4ZM386.398 325.62C385.838 327.62 384.078 329.18 381.358 329.18C378.238 329.18 375.938 326.98 375.938 323.5C375.938 320.04 378.158 317.86 381.358 317.86C384.538 317.86 386.618 320.1 386.618 323.1C386.618 323.5 386.598 323.82 386.558 324.2H377.798C377.938 326.42 379.498 327.64 381.358 327.64C382.998 327.64 384.038 326.8 384.438 325.62H386.398ZM405.84 329V322.8C405.84 320.56 404.64 319.42 402.84 319.42C401 319.42 399.74 320.6 399.74 322.96V329H397.94V322.8C397.94 320.56 396.74 319.42 394.94 319.42C393.1 319.42 391.84 320.6 391.84 322.96V329H390.02V318.04H391.84V319.62C392.56 318.46 393.86 317.84 395.3 317.84C397.1 317.84 398.6 318.64 399.32 320.28C399.96 318.7 401.52 317.84 403.2 317.84C405.7 317.84 407.64 319.4 407.64 322.54V329H405.84ZM410.946 323.48C410.946 320.06 413.206 317.86 416.146 317.86C418.186 317.86 419.586 318.9 420.226 320.04V318.04H422.066V329H420.226V326.96C419.566 328.14 418.146 329.18 416.126 329.18C413.206 329.18 410.946 326.88 410.946 323.48ZM420.226 323.5C420.226 320.96 418.506 319.44 416.506 319.44C414.506 319.44 412.806 320.9 412.806 323.48C412.806 326.06 414.506 327.58 416.506 327.58C418.506 327.58 420.226 326.08 420.226 323.5ZM426.142 329V314.2H427.962V329H426.142ZM436.723 319.4C434.943 319.4 433.463 320.58 433.263 322.72H440.183C440.203 320.58 438.603 319.4 436.723 319.4ZM441.843 325.62C441.283 327.62 439.523 329.18 436.803 329.18C433.683 329.18 431.383 326.98 431.383 323.5C431.383 320.04 433.603 317.86 436.803 317.86C439.983 317.86 442.063 320.1 442.063 323.1C442.063 323.5 442.043 323.82 442.003 324.2H433.243C433.383 326.42 434.943 327.64 436.803 327.64C438.443 327.64 439.483 326.8 439.883 325.62H441.843Z" fill="#282636"/>
<circle cx="234.5" cy="244.5" r="102" stroke="#FFD0EA" stroke-width="61"/>
<mask id="path-6-inside-1_741_1832" fill="white">
<path d="M193.256 370.417C172.549 363.635 153.834 351.85 138.769 336.107C123.704 320.364 112.754 301.148 106.89 280.163C101.025 259.177 100.426 237.069 105.146 215.796C109.867 194.524 119.76 174.744 133.951 158.209C148.142 141.673 166.191 128.893 186.501 121C206.811 113.106 228.754 110.343 250.387 112.956C272.019 115.568 292.673 123.476 310.52 135.977C328.367 148.479 342.855 165.189 352.701 184.627L298.292 212.187C292.978 201.696 285.159 192.678 275.528 185.931C265.896 179.184 254.749 174.916 243.074 173.506C231.399 172.096 219.556 173.588 208.595 177.848C197.634 182.108 187.893 189.005 180.234 197.929C172.576 206.853 167.236 217.528 164.689 229.009C162.141 240.489 162.464 252.421 165.629 263.747C168.795 275.073 174.704 285.443 182.834 293.94C190.965 302.436 201.065 308.796 212.241 312.457L193.256 370.417Z"/>
</mask>
<path d="M193.256 370.417C172.549 363.635 153.834 351.85 138.769 336.107C123.704 320.364 112.754 301.148 106.89 280.163C101.025 259.177 100.426 237.069 105.146 215.796C109.867 194.524 119.76 174.744 133.951 158.209C148.142 141.673 166.191 128.893 186.501 121C206.811 113.106 228.754 110.343 250.387 112.956C272.019 115.568 292.673 123.476 310.52 135.977C328.367 148.479 342.855 165.189 352.701 184.627L298.292 212.187C292.978 201.696 285.159 192.678 275.528 185.931C265.896 179.184 254.749 174.916 243.074 173.506C231.399 172.096 219.556 173.588 208.595 177.848C197.634 182.108 187.893 189.005 180.234 197.929C172.576 206.853 167.236 217.528 164.689 229.009C162.141 240.489 162.464 252.421 165.629 263.747C168.795 275.073 174.704 285.443 182.834 293.94C190.965 302.436 201.065 308.796 212.241 312.457L193.256 370.417Z" stroke="#9999FF" stroke-width="122" mask="url(#path-6-inside-1_741_1832)"/>
<path d="M119.784 217.184H118.44C118.216 216.064 117.56 215.408 116.248 215.408C114.408 215.408 113.416 216.672 113.432 220.112C113.928 218.976 115.192 218.336 116.568 218.336C118.728 218.336 120.184 219.76 120.184 222.192C120.184 224.304 118.936 226.032 116.408 226.032C112.984 226.032 112.168 223.568 112.168 220.064C112.168 216.432 113.336 214.192 116.264 214.192C118.472 214.192 119.592 215.568 119.784 217.184ZM116.264 219.568C114.936 219.568 113.608 220.352 113.608 222.08C113.608 223.616 114.504 224.816 116.328 224.816C117.832 224.816 118.776 223.808 118.776 222.24C118.776 220.608 117.928 219.568 116.264 219.568ZM123.148 220.096C123.148 216.784 123.98 214.256 127.18 214.256C130.364 214.256 131.196 216.784 131.196 220.096C131.196 223.456 130.364 226 127.18 226C123.98 226 123.148 223.456 123.148 220.096ZM129.756 220.096C129.756 217.696 129.452 215.584 127.18 215.584C124.892 215.584 124.588 217.696 124.588 220.096C124.588 222.592 124.892 224.672 127.18 224.672C129.452 224.672 129.756 222.592 129.756 220.096ZM135.859 225.104C135.859 225.664 135.427 226.096 134.899 226.096C134.339 226.096 133.907 225.664 133.907 225.104C133.907 224.544 134.339 224.112 134.899 224.112C135.427 224.112 135.859 224.544 135.859 225.104ZM138.555 220.096C138.555 216.784 139.387 214.256 142.587 214.256C145.771 214.256 146.602 216.784 146.602 220.096C146.602 223.456 145.771 226 142.587 226C139.387 226 138.555 223.456 138.555 220.096ZM145.163 220.096C145.163 217.696 144.859 215.584 142.587 215.584C140.299 215.584 139.995 217.696 139.995 220.096C139.995 222.592 140.299 224.672 142.587 224.672C144.859 224.672 145.163 222.592 145.163 220.096ZM149.281 217.04C149.281 215.552 150.289 214.656 151.617 214.656C152.961 214.656 153.953 215.552 153.953 217.04C153.953 218.544 152.961 219.44 151.617 219.44C150.289 219.44 149.281 218.544 149.281 217.04ZM151.617 215.552C150.913 215.552 150.449 216.032 150.449 217.04C150.449 218.032 150.913 218.544 151.617 218.544C152.321 218.544 152.801 218.032 152.801 217.04C152.801 216.032 152.321 215.552 151.617 215.552ZM150.705 226L157.185 214.832H158.625L152.145 226H150.705ZM155.409 223.792C155.409 222.288 156.401 221.392 157.745 221.392C159.073 221.392 160.065 222.288 160.065 223.792C160.065 225.28 159.073 226.192 157.745 226.192C156.401 226.192 155.409 225.28 155.409 223.792ZM157.729 222.304C157.025 222.304 156.545 222.784 156.545 223.792C156.545 224.784 157.025 225.264 157.729 225.264C158.433 225.264 158.913 224.784 158.913 223.792C158.913 222.784 158.433 222.304 157.729 222.304Z" fill="black"/>
<path d="M298.56 309V306.424H292.64V305.32L298.256 297.544H300V305.16H301.6V306.424H300V309H298.56ZM294.32 305.16H298.624V299.064L294.32 305.16ZM304.055 303.096C304.055 299.784 304.887 297.256 308.087 297.256C311.271 297.256 312.102 299.784 312.102 303.096C312.102 306.456 311.271 309 308.087 309C304.887 309 304.055 306.456 304.055 303.096ZM310.663 303.096C310.663 300.696 310.359 298.584 308.087 298.584C305.799 298.584 305.495 300.696 305.495 303.096C305.495 305.592 305.799 307.672 308.087 307.672C310.359 307.672 310.663 305.592 310.663 303.096ZM316.765 308.104C316.765 308.664 316.333 309.096 315.805 309.096C315.245 309.096 314.813 308.664 314.813 308.104C314.813 307.544 315.245 307.112 315.805 307.112C316.333 307.112 316.765 307.544 316.765 308.104ZM319.461 303.096C319.461 299.784 320.293 297.256 323.493 297.256C326.677 297.256 327.509 299.784 327.509 303.096C327.509 306.456 326.677 309 323.493 309C320.293 309 319.461 306.456 319.461 303.096ZM326.069 303.096C326.069 300.696 325.765 298.584 323.493 298.584C321.205 298.584 320.901 300.696 320.901 303.096C320.901 305.592 321.205 307.672 323.493 307.672C325.765 307.672 326.069 305.592 326.069 303.096ZM330.188 300.04C330.188 298.552 331.196 297.656 332.524 297.656C333.868 297.656 334.86 298.552 334.86 300.04C334.86 301.544 333.868 302.44 332.524 302.44C331.196 302.44 330.188 301.544 330.188 300.04ZM332.524 298.552C331.82 298.552 331.356 299.032 331.356 300.04C331.356 301.032 331.82 301.544 332.524 301.544C333.228 301.544 333.708 301.032 333.708 300.04C333.708 299.032 333.228 298.552 332.524 298.552ZM331.612 309L338.092 297.832H339.532L333.052 309H331.612ZM336.316 306.792C336.316 305.288 337.308 304.392 338.652 304.392C339.98 304.392 340.972 305.288 340.972 306.792C340.972 308.28 339.98 309.192 338.652 309.192C337.308 309.192 336.316 308.28 336.316 306.792ZM338.636 305.304C337.932 305.304 337.452 305.784 337.452 306.792C337.452 307.784 337.932 308.264 338.636 308.264C339.34 308.264 339.82 307.784 339.82 306.792C339.82 305.784 339.34 305.304 338.636 305.304Z" fill="black"/>
</svg>
