<svg width="486" height="444" viewBox="0 0 486 444" fill="none" xmlns="http://www.w3.org/2000/svg">
<rect x="0.5" y="0.5" width="485" height="443" rx="9.5" fill="white" stroke="#EAEAEA"/>
<path d="M189.1 54.1C188.713 53.2867 188.153 52.66 187.42 52.22C186.687 51.7667 185.833 51.54 184.86 51.54C183.887 51.54 183.007 51.7667 182.22 52.22C181.447 52.66 180.833 53.3 180.38 54.14C179.94 54.9667 179.72 55.9267 179.72 57.02C179.72 58.1133 179.94 59.0733 180.38 59.9C180.833 60.7267 181.447 61.3667 182.22 61.82C183.007 62.26 183.887 62.48 184.86 62.48C186.22 62.48 187.34 62.0733 188.22 61.26C189.1 60.4467 189.613 59.3467 189.76 57.96H184.2V56.48H191.7V57.88C191.593 59.0267 191.233 60.08 190.62 61.04C190.007 61.9867 189.2 62.74 188.2 63.3C187.2 63.8467 186.087 64.12 184.86 64.12C183.567 64.12 182.387 63.82 181.32 63.22C180.253 62.6067 179.407 61.76 178.78 60.68C178.167 59.6 177.86 58.38 177.86 57.02C177.86 55.66 178.167 54.44 178.78 53.36C179.407 52.2667 180.253 51.42 181.32 50.82C182.387 50.2067 183.567 49.9 184.86 49.9C186.34 49.9 187.647 50.2667 188.78 51C189.927 51.7333 190.76 52.7667 191.28 54.1H189.1ZM205.106 58.1C205.106 58.4467 205.086 58.8133 205.046 59.2H196.286C196.353 60.28 196.72 61.1267 197.386 61.74C198.066 62.34 198.886 62.64 199.846 62.64C200.633 62.64 201.286 62.46 201.806 62.1C202.34 61.7267 202.713 61.2333 202.926 60.62H204.886C204.593 61.6733 204.006 62.5333 203.126 63.2C202.246 63.8533 201.153 64.18 199.846 64.18C198.806 64.18 197.873 63.9467 197.046 63.48C196.233 63.0133 195.593 62.3533 195.126 61.5C194.66 60.6333 194.426 59.6333 194.426 58.5C194.426 57.3667 194.653 56.3733 195.106 55.52C195.56 54.6667 196.193 54.0133 197.006 53.56C197.833 53.0933 198.78 52.86 199.846 52.86C200.886 52.86 201.806 53.0867 202.606 53.54C203.406 53.9933 204.02 54.62 204.446 55.42C204.886 56.2067 205.106 57.1 205.106 58.1ZM203.226 57.72C203.226 57.0267 203.073 56.4333 202.766 55.94C202.46 55.4333 202.04 55.0533 201.506 54.8C200.986 54.5333 200.406 54.4 199.766 54.4C198.846 54.4 198.06 54.6933 197.406 55.28C196.766 55.8667 196.4 56.68 196.306 57.72H203.226ZM213.289 64.18C212.262 64.18 211.329 63.9467 210.489 63.48C209.662 63.0133 209.009 62.3533 208.529 61.5C208.062 60.6333 207.829 59.6333 207.829 58.5C207.829 57.38 208.069 56.3933 208.549 55.54C209.042 54.6733 209.709 54.0133 210.549 53.56C211.389 53.0933 212.329 52.86 213.369 52.86C214.409 52.86 215.349 53.0933 216.189 53.56C217.029 54.0133 217.689 54.6667 218.169 55.52C218.662 56.3733 218.909 57.3667 218.909 58.5C218.909 59.6333 218.655 60.6333 218.149 61.5C217.655 62.3533 216.982 63.0133 216.129 63.48C215.275 63.9467 214.329 64.18 213.289 64.18ZM213.289 62.58C213.942 62.58 214.555 62.4267 215.129 62.12C215.702 61.8133 216.162 61.3533 216.509 60.74C216.869 60.1267 217.049 59.38 217.049 58.5C217.049 57.62 216.875 56.8733 216.529 56.26C216.182 55.6467 215.729 55.1933 215.169 54.9C214.609 54.5933 214.002 54.44 213.349 54.44C212.682 54.44 212.069 54.5933 211.509 54.9C210.962 55.1933 210.522 55.6467 210.189 56.26C209.855 56.8733 209.689 57.62 209.689 58.5C209.689 59.3933 209.849 60.1467 210.169 60.76C210.502 61.3733 210.942 61.8333 211.489 62.14C212.035 62.4333 212.635 62.58 213.289 62.58ZM224.122 49.2V64H222.302V49.2H224.122ZM233.004 64.18C231.977 64.18 231.044 63.9467 230.204 63.48C229.377 63.0133 228.724 62.3533 228.244 61.5C227.777 60.6333 227.544 59.6333 227.544 58.5C227.544 57.38 227.784 56.3933 228.264 55.54C228.757 54.6733 229.424 54.0133 230.264 53.56C231.104 53.0933 232.044 52.86 233.084 52.86C234.124 52.86 235.064 53.0933 235.904 53.56C236.744 54.0133 237.404 54.6667 237.884 55.52C238.377 56.3733 238.624 57.3667 238.624 58.5C238.624 59.6333 238.37 60.6333 237.864 61.5C237.37 62.3533 236.697 63.0133 235.844 63.48C234.99 63.9467 234.044 64.18 233.004 64.18ZM233.004 62.58C233.657 62.58 234.27 62.4267 234.844 62.12C235.417 61.8133 235.877 61.3533 236.224 60.74C236.584 60.1267 236.764 59.38 236.764 58.5C236.764 57.62 236.59 56.8733 236.244 56.26C235.897 55.6467 235.444 55.1933 234.884 54.9C234.324 54.5933 233.717 54.44 233.064 54.44C232.397 54.44 231.784 54.5933 231.224 54.9C230.677 55.1933 230.237 55.6467 229.904 56.26C229.57 56.8733 229.404 57.62 229.404 58.5C229.404 59.3933 229.564 60.1467 229.884 60.76C230.217 61.3733 230.657 61.8333 231.204 62.14C231.75 62.4333 232.35 62.58 233.004 62.58ZM241.337 58.5C241.337 57.3667 241.563 56.38 242.017 55.54C242.47 54.6867 243.097 54.0267 243.897 53.56C244.71 53.0933 245.637 52.86 246.677 52.86C248.023 52.86 249.13 53.1867 249.997 53.84C250.877 54.4933 251.457 55.4 251.737 56.56H249.777C249.59 55.8933 249.223 55.3667 248.677 54.98C248.143 54.5933 247.477 54.4 246.677 54.4C245.637 54.4 244.797 54.76 244.157 55.48C243.517 56.1867 243.197 57.1933 243.197 58.5C243.197 59.82 243.517 60.84 244.157 61.56C244.797 62.28 245.637 62.64 246.677 62.64C247.477 62.64 248.143 62.4533 248.677 62.08C249.21 61.7067 249.577 61.1733 249.777 60.48H251.737C251.443 61.6 250.857 62.5 249.977 63.18C249.097 63.8467 247.997 64.18 246.677 64.18C245.637 64.18 244.71 63.9467 243.897 63.48C243.097 63.0133 242.47 62.3533 242.017 61.5C241.563 60.6467 241.337 59.6467 241.337 58.5ZM254.485 58.48C254.485 57.36 254.712 56.38 255.165 55.54C255.618 54.6867 256.238 54.0267 257.025 53.56C257.825 53.0933 258.712 52.86 259.685 52.86C260.645 52.86 261.478 53.0667 262.185 53.48C262.892 53.8933 263.418 54.4133 263.765 55.04V53.04H265.605V64H263.765V61.96C263.405 62.6 262.865 63.1333 262.145 63.56C261.438 63.9733 260.612 64.18 259.665 64.18C258.692 64.18 257.812 63.94 257.025 63.46C256.238 62.98 255.618 62.3067 255.165 61.44C254.712 60.5733 254.485 59.5867 254.485 58.48ZM263.765 58.5C263.765 57.6733 263.598 56.9533 263.265 56.34C262.932 55.7267 262.478 55.26 261.905 54.94C261.345 54.6067 260.725 54.44 260.045 54.44C259.365 54.44 258.745 54.6 258.185 54.92C257.625 55.24 257.178 55.7067 256.845 56.32C256.512 56.9333 256.345 57.6533 256.345 58.48C256.345 59.32 256.512 60.0533 256.845 60.68C257.178 61.2933 257.625 61.7667 258.185 62.1C258.745 62.42 259.365 62.58 260.045 62.58C260.725 62.58 261.345 62.42 261.905 62.1C262.478 61.7667 262.932 61.2933 263.265 60.68C263.598 60.0533 263.765 59.3267 263.765 58.5ZM271.901 54.54V61C271.901 61.5333 272.014 61.9133 272.241 62.14C272.467 62.3533 272.861 62.46 273.421 62.46H274.761V64H273.121C272.107 64 271.347 63.7667 270.841 63.3C270.334 62.8333 270.081 62.0667 270.081 61V54.54H268.661V53.04H270.081V50.28H271.901V53.04H274.761V54.54H271.901ZM278.906 51.26C278.559 51.26 278.266 51.14 278.026 50.9C277.786 50.66 277.666 50.3667 277.666 50.02C277.666 49.6733 277.786 49.38 278.026 49.14C278.266 48.9 278.559 48.78 278.906 48.78C279.239 48.78 279.519 48.9 279.746 49.14C279.986 49.38 280.106 49.6733 280.106 50.02C280.106 50.3667 279.986 50.66 279.746 50.9C279.519 51.14 279.239 51.26 278.906 51.26ZM279.786 53.04V64H277.966V53.04H279.786ZM288.668 64.18C287.641 64.18 286.708 63.9467 285.868 63.48C285.041 63.0133 284.388 62.3533 283.908 61.5C283.441 60.6333 283.208 59.6333 283.208 58.5C283.208 57.38 283.448 56.3933 283.928 55.54C284.421 54.6733 285.088 54.0133 285.928 53.56C286.768 53.0933 287.708 52.86 288.748 52.86C289.788 52.86 290.728 53.0933 291.568 53.56C292.408 54.0133 293.068 54.6667 293.548 55.52C294.041 56.3733 294.288 57.3667 294.288 58.5C294.288 59.6333 294.034 60.6333 293.528 61.5C293.034 62.3533 292.361 63.0133 291.508 63.48C290.654 63.9467 289.708 64.18 288.668 64.18ZM288.668 62.58C289.321 62.58 289.934 62.4267 290.508 62.12C291.081 61.8133 291.541 61.3533 291.888 60.74C292.248 60.1267 292.428 59.38 292.428 58.5C292.428 57.62 292.254 56.8733 291.908 56.26C291.561 55.6467 291.108 55.1933 290.548 54.9C289.988 54.5933 289.381 54.44 288.728 54.44C288.061 54.44 287.448 54.5933 286.888 54.9C286.341 55.1933 285.901 55.6467 285.568 56.26C285.234 56.8733 285.068 57.62 285.068 58.5C285.068 59.3933 285.228 60.1467 285.548 60.76C285.881 61.3733 286.321 61.8333 286.868 62.14C287.414 62.4333 288.014 62.58 288.668 62.58ZM303.021 52.84C304.354 52.84 305.434 53.2467 306.261 54.06C307.087 54.86 307.501 56.02 307.501 57.54V64H305.701V57.8C305.701 56.7067 305.427 55.8733 304.881 55.3C304.334 54.7133 303.587 54.42 302.641 54.42C301.681 54.42 300.914 54.72 300.341 55.32C299.781 55.92 299.501 56.7933 299.501 57.94V64H297.681V53.04H299.501V54.6C299.861 54.04 300.347 53.6067 300.961 53.3C301.587 52.9933 302.274 52.84 303.021 52.84Z" fill="#282636"/>
<path d="M59.112 262.312C60.04 262.312 60.8133 262.632 61.432 263.272C62.04 263.901 62.344 264.867 62.344 266.168L62.344 268.312L67 268.312L67 269.768L55.848 269.768L55.848 266.168C55.848 264.909 56.152 263.955 56.76 263.304C57.368 262.643 58.152 262.312 59.112 262.312ZM61.144 266.168C61.144 265.357 60.968 264.76 60.616 264.376C60.264 263.992 59.7627 263.8 59.112 263.8C57.736 263.8 57.048 264.589 57.048 266.168L57.048 268.312L61.144 268.312L61.144 266.168ZM62.28 252.502C62.5573 252.502 62.8507 252.518 63.16 252.55L63.16 259.558C64.024 259.505 64.7013 259.212 65.192 258.678C65.672 258.134 65.912 257.478 65.912 256.71C65.912 256.081 65.768 255.558 65.48 255.142C65.1813 254.716 64.7867 254.417 64.296 254.246L64.296 252.678C65.1387 252.913 65.8267 253.382 66.36 254.086C66.8827 254.79 67.144 255.665 67.144 256.71C67.144 257.542 66.9573 258.289 66.584 258.95C66.2107 259.601 65.6827 260.113 65 260.486C64.3067 260.86 63.5067 261.046 62.6 261.046C61.6933 261.046 60.8987 260.865 60.216 260.502C59.5333 260.14 59.0107 259.633 58.648 258.982C58.2747 258.321 58.088 257.564 58.088 256.71C58.088 255.878 58.2693 255.142 58.632 254.502C58.9947 253.862 59.496 253.372 60.136 253.03C60.7653 252.678 61.48 252.502 62.28 252.502ZM61.976 254.006C61.4213 254.006 60.9467 254.129 60.552 254.374C60.1467 254.62 59.8427 254.956 59.64 255.382C59.4267 255.798 59.32 256.262 59.32 256.774C59.32 257.51 59.5547 258.14 60.024 258.662C60.4933 259.174 61.144 259.468 61.976 259.542L61.976 254.006ZM59.656 249.124C59.1547 248.868 58.7653 248.506 58.488 248.036C58.2107 247.556 58.072 246.975 58.072 246.292L59.576 246.292L59.576 246.676C59.576 248.308 60.4613 249.124 62.232 249.124L67 249.124L67 250.58L58.232 250.58L58.232 249.124L59.656 249.124ZM62.6 245.156C61.6933 245.156 60.904 244.974 60.232 244.612C59.5493 244.249 59.0213 243.748 58.648 243.108C58.2747 242.457 58.088 241.716 58.088 240.884C58.088 239.806 58.3493 238.921 58.872 238.228C59.3947 237.524 60.12 237.06 61.048 236.836L61.048 238.404C60.5147 238.553 60.0933 238.846 59.784 239.284C59.4747 239.71 59.32 240.244 59.32 240.884C59.32 241.716 59.608 242.388 60.184 242.9C60.7493 243.412 61.5547 243.668 62.6 243.668C63.656 243.668 64.472 243.412 65.048 242.9C65.624 242.388 65.912 241.716 65.912 240.884C65.912 240.244 65.7627 239.71 65.464 239.284C65.1653 238.857 64.7387 238.564 64.184 238.404L64.184 236.836C65.08 237.07 65.8 237.54 66.344 238.244C66.8773 238.948 67.144 239.828 67.144 240.884C67.144 241.716 66.9573 242.457 66.584 243.108C66.2107 243.748 65.6827 244.249 65 244.612C64.3173 244.974 63.5173 245.156 62.6 245.156ZM62.28 226.893C62.5573 226.893 62.8507 226.909 63.16 226.941L63.16 233.949C64.024 233.896 64.7013 233.602 65.192 233.069C65.672 232.525 65.912 231.869 65.912 231.101C65.912 230.472 65.768 229.949 65.48 229.533C65.1813 229.106 64.7867 228.808 64.296 228.637L64.296 227.069C65.1387 227.304 65.8267 227.773 66.36 228.477C66.8827 229.181 67.144 230.056 67.144 231.101C67.144 231.933 66.9573 232.68 66.584 233.341C66.2107 233.992 65.6827 234.504 65 234.877C64.3067 235.25 63.5067 235.437 62.6 235.437C61.6933 235.437 60.8987 235.256 60.216 234.893C59.5333 234.53 59.0107 234.024 58.648 233.373C58.2747 232.712 58.088 231.954 58.088 231.101C58.088 230.269 58.2693 229.533 58.632 228.893C58.9947 228.253 59.496 227.762 60.136 227.421C60.7653 227.069 61.48 226.893 62.28 226.893ZM61.976 228.397C61.4213 228.397 60.9467 228.52 60.552 228.765C60.1467 229.01 59.8427 229.346 59.64 229.773C59.4267 230.189 59.32 230.653 59.32 231.165C59.32 231.901 59.5547 232.53 60.024 233.053C60.4933 233.565 61.144 233.858 61.976 233.933L61.976 228.397ZM58.072 220.699C58.072 219.632 58.3973 218.768 59.048 218.107C59.688 217.446 60.616 217.115 61.832 217.115L67 217.115L67 218.555L62.04 218.555C61.1653 218.555 60.4987 218.774 60.04 219.211C59.5707 219.648 59.336 220.246 59.336 221.003C59.336 221.771 59.576 222.384 60.056 222.843C60.536 223.291 61.2347 223.515 62.152 223.515L67 223.515L67 224.971L58.232 224.971L58.232 223.515L59.48 223.515C59.032 223.227 58.6853 222.838 58.44 222.347C58.1947 221.846 58.072 221.296 58.072 220.699ZM59.432 212.961L64.6 212.961C65.0267 212.961 65.3307 212.87 65.512 212.689C65.6827 212.507 65.768 212.193 65.768 211.745L65.768 210.673L67 210.673L67 211.985C67 212.795 66.8133 213.403 66.44 213.809C66.0667 214.214 65.4533 214.417 64.6 214.417L59.432 214.417L59.432 215.553L58.232 215.553L58.232 214.417L56.024 214.417L56.024 212.961L58.232 212.961L58.232 210.673L59.432 210.673L59.432 212.961ZM62.584 209.453C61.688 209.453 60.904 209.271 60.232 208.909C59.5493 208.546 59.0213 208.05 58.648 207.421C58.2747 206.781 58.088 206.071 58.088 205.293C58.088 204.525 58.2533 203.858 58.584 203.293C58.9147 202.727 59.3307 202.306 59.832 202.029L58.232 202.029L58.232 200.557L67 200.557L67 202.029L65.368 202.029C65.88 202.317 66.3067 202.749 66.648 203.325C66.9787 203.89 67.144 204.551 67.144 205.309C67.144 206.087 66.952 206.791 66.568 207.421C66.184 208.05 65.6453 208.546 64.952 208.909C64.2587 209.271 63.4693 209.453 62.584 209.453ZM62.6 202.029C61.9387 202.029 61.3627 202.162 60.872 202.429C60.3813 202.695 60.008 203.058 59.752 203.517C59.4853 203.965 59.352 204.461 59.352 205.005C59.352 205.549 59.48 206.045 59.736 206.493C59.992 206.941 60.3653 207.298 60.856 207.565C61.3467 207.831 61.9227 207.965 62.584 207.965C63.256 207.965 63.8427 207.831 64.344 207.565C64.8347 207.298 65.2133 206.941 65.48 206.493C65.736 206.045 65.864 205.549 65.864 205.005C65.864 204.461 65.736 203.965 65.48 203.517C65.2133 203.058 64.8347 202.695 64.344 202.429C63.8427 202.162 63.2613 202.029 62.6 202.029ZM58.088 194.48C58.088 193.723 58.2533 193.061 58.584 192.496C58.9147 191.92 59.3307 191.493 59.832 191.216L58.232 191.216L58.232 189.744L67.192 189.744C67.992 189.744 68.7013 189.915 69.32 190.256C69.9493 190.597 70.44 191.088 70.792 191.728C71.144 192.357 71.32 193.093 71.32 193.936C71.32 195.088 71.048 196.048 70.504 196.816C69.96 197.584 69.2187 198.037 68.28 198.176L68.28 196.736C68.8133 196.576 69.24 196.245 69.56 195.744C69.8907 195.243 70.056 194.64 70.056 193.936C70.056 193.136 69.8053 192.485 69.304 191.984C68.8027 191.472 68.0987 191.216 67.192 191.216L65.352 191.216C65.864 191.504 66.2907 191.931 66.632 192.496C66.9733 193.061 67.144 193.723 67.144 194.48C67.144 195.259 66.952 195.968 66.568 196.608C66.184 197.237 65.6453 197.733 64.952 198.096C64.2587 198.459 63.4693 198.64 62.584 198.64C61.688 198.64 60.904 198.459 60.232 198.096C59.5493 197.733 59.0213 197.237 58.648 196.608C58.2747 195.968 58.088 195.259 58.088 194.48ZM62.6 191.216C61.9387 191.216 61.3627 191.349 60.872 191.616C60.3813 191.883 60.008 192.245 59.752 192.704C59.4853 193.152 59.352 193.648 59.352 194.192C59.352 194.736 59.48 195.232 59.736 195.68C59.992 196.128 60.3653 196.485 60.856 196.752C61.3467 197.019 61.9227 197.152 62.584 197.152C63.256 197.152 63.8427 197.019 64.344 196.752C64.8347 196.485 65.2133 196.128 65.48 195.68C65.736 195.232 65.864 194.736 65.864 194.192C65.864 193.648 65.736 193.152 65.48 192.704C65.2133 192.245 64.8347 191.883 64.344 191.616C63.8427 191.349 63.2613 191.216 62.6 191.216ZM62.28 179.284C62.5573 179.284 62.8507 179.3 63.16 179.332L63.16 186.34C64.024 186.286 64.7013 185.993 65.192 185.46C65.672 184.916 65.912 184.26 65.912 183.492C65.912 182.862 65.768 182.34 65.48 181.924C65.1813 181.497 64.7867 181.198 64.296 181.028L64.296 179.46C65.1387 179.694 65.8267 180.164 66.36 180.868C66.8827 181.572 67.144 182.446 67.144 183.492C67.144 184.324 66.9573 185.07 66.584 185.732C66.2107 186.382 65.6827 186.894 65 187.268C64.3067 187.641 63.5067 187.828 62.6 187.828C61.6933 187.828 60.8987 187.646 60.216 187.284C59.5333 186.921 59.0107 186.414 58.648 185.764C58.2747 185.102 58.088 184.345 58.088 183.492C58.088 182.66 58.2693 181.924 58.632 181.284C58.9947 180.644 59.496 180.153 60.136 179.812C60.7653 179.46 61.48 179.284 62.28 179.284ZM61.976 180.788C61.4213 180.788 60.9467 180.91 60.552 181.156C60.1467 181.401 59.8427 181.737 59.64 182.164C59.4267 182.58 59.32 183.044 59.32 183.556C59.32 184.292 59.5547 184.921 60.024 185.444C60.4933 185.956 61.144 186.249 61.976 186.324L61.976 180.788Z" fill="black"/>
<path d="M230.688 396.416C230.688 395.328 230.933 394.352 231.424 393.488C231.915 392.613 232.581 391.931 233.424 391.44C234.277 390.949 235.221 390.704 236.256 390.704C237.472 390.704 238.533 390.997 239.44 391.584C240.347 392.171 241.008 393.003 241.424 394.08H239.68C239.371 393.408 238.923 392.891 238.336 392.528C237.76 392.165 237.067 391.984 236.256 391.984C235.477 391.984 234.779 392.165 234.16 392.528C233.541 392.891 233.056 393.408 232.704 394.08C232.352 394.741 232.176 395.52 232.176 396.416C232.176 397.301 232.352 398.08 232.704 398.752C233.056 399.413 233.541 399.925 234.16 400.288C234.779 400.651 235.477 400.832 236.256 400.832C237.067 400.832 237.76 400.656 238.336 400.304C238.923 399.941 239.371 399.424 239.68 398.752H241.424C241.008 399.819 240.347 400.645 239.44 401.232C238.533 401.808 237.472 402.096 236.256 402.096C235.221 402.096 234.277 401.856 233.424 401.376C232.581 400.885 231.915 400.208 231.424 399.344C230.933 398.48 230.688 397.504 230.688 396.416ZM247.415 402.144C246.594 402.144 245.847 401.957 245.175 401.584C244.514 401.211 243.991 400.683 243.607 400C243.234 399.307 243.047 398.507 243.047 397.6C243.047 396.704 243.239 395.915 243.623 395.232C244.018 394.539 244.551 394.011 245.223 393.648C245.895 393.275 246.647 393.088 247.479 393.088C248.311 393.088 249.063 393.275 249.735 393.648C250.407 394.011 250.935 394.533 251.319 395.216C251.714 395.899 251.911 396.693 251.911 397.6C251.911 398.507 251.709 399.307 251.303 400C250.909 400.683 250.37 401.211 249.687 401.584C249.005 401.957 248.247 402.144 247.415 402.144ZM247.415 400.864C247.938 400.864 248.429 400.741 248.887 400.496C249.346 400.251 249.714 399.883 249.991 399.392C250.279 398.901 250.423 398.304 250.423 397.6C250.423 396.896 250.285 396.299 250.007 395.808C249.73 395.317 249.367 394.955 248.919 394.72C248.471 394.475 247.986 394.352 247.463 394.352C246.93 394.352 246.439 394.475 245.991 394.72C245.554 394.955 245.202 395.317 244.935 395.808C244.669 396.299 244.535 396.896 244.535 397.6C244.535 398.315 244.663 398.917 244.919 399.408C245.186 399.899 245.538 400.267 245.975 400.512C246.413 400.747 246.893 400.864 247.415 400.864ZM261.602 393.232V402H260.146V400.704C259.868 401.152 259.479 401.504 258.978 401.76C258.487 402.005 257.943 402.128 257.346 402.128C256.663 402.128 256.05 401.989 255.506 401.712C254.962 401.424 254.53 400.997 254.21 400.432C253.9 399.867 253.746 399.179 253.746 398.368V393.232H255.186V398.176C255.186 399.04 255.404 399.707 255.842 400.176C256.279 400.635 256.876 400.864 257.634 400.864C258.412 400.864 259.026 400.624 259.474 400.144C259.922 399.664 260.146 398.965 260.146 398.048V393.232H261.602ZM268.332 393.072C269.399 393.072 270.263 393.397 270.924 394.048C271.585 394.688 271.916 395.616 271.916 396.832V402H270.476V397.04C270.476 396.165 270.257 395.499 269.82 395.04C269.383 394.571 268.785 394.336 268.028 394.336C267.26 394.336 266.647 394.576 266.188 395.056C265.74 395.536 265.516 396.235 265.516 397.152V402H264.06V393.232H265.516V394.48C265.804 394.032 266.193 393.685 266.684 393.44C267.185 393.195 267.735 393.072 268.332 393.072ZM276.071 394.432V399.6C276.071 400.027 276.161 400.331 276.343 400.512C276.524 400.683 276.839 400.768 277.286 400.768H278.359V402H277.047C276.236 402 275.628 401.813 275.223 401.44C274.817 401.067 274.615 400.453 274.615 399.6V394.432H273.479V393.232H274.615V391.024H276.071V393.232H278.359V394.432H276.071ZM281.579 394.656C281.835 394.155 282.197 393.765 282.667 393.488C283.147 393.211 283.728 393.072 284.411 393.072V394.576H284.027C282.395 394.576 281.579 395.461 281.579 397.232V402H280.123V393.232H281.579V394.656ZM293.643 393.232L288.363 406.128H286.859L288.587 401.904L285.051 393.232H286.667L289.419 400.336L292.139 393.232H293.643Z" fill="black"/>
<path d="M79.511 145.7V144.32L82.671 139.8H84.581V144.22H85.401V145.7H84.581V147H82.871V145.7H79.511ZM82.991 141.68L81.311 144.22H82.991V141.68ZM86.2386 143.25C86.2386 142.103 86.4586 141.2 86.8986 140.54C87.3452 139.88 88.0619 139.55 89.0486 139.55C90.0352 139.55 90.7486 139.88 91.1886 140.54C91.6352 141.2 91.8586 142.103 91.8586 143.25C91.8586 144.41 91.6352 145.32 91.1886 145.98C90.7486 146.64 90.0352 146.97 89.0486 146.97C88.0619 146.97 87.3452 146.64 86.8986 145.98C86.4586 145.32 86.2386 144.41 86.2386 143.25ZM90.1786 143.25C90.1786 142.577 90.1052 142.06 89.9586 141.7C89.8119 141.333 89.5086 141.15 89.0486 141.15C88.5886 141.15 88.2852 141.333 88.1386 141.7C87.9919 142.06 87.9186 142.577 87.9186 143.25C87.9186 143.703 87.9452 144.08 87.9986 144.38C88.0519 144.673 88.1586 144.913 88.3186 145.1C88.4852 145.28 88.7286 145.37 89.0486 145.37C89.3686 145.37 89.6086 145.28 89.7686 145.1C89.9352 144.913 90.0452 144.673 90.0986 144.38C90.1519 144.08 90.1786 143.703 90.1786 143.25Z" fill="#767676"/>
<path d="M80.531 186.76C80.5577 186.047 80.791 185.497 81.231 185.11C81.671 184.723 82.2677 184.53 83.021 184.53C83.521 184.53 83.9477 184.617 84.301 184.79C84.661 184.963 84.931 185.2 85.111 185.5C85.2977 185.8 85.391 186.137 85.391 186.51C85.391 186.95 85.281 187.31 85.061 187.59C84.841 187.863 84.5843 188.05 84.291 188.15V188.19C84.671 188.317 84.971 188.527 85.191 188.82C85.411 189.113 85.521 189.49 85.521 189.95C85.521 190.363 85.4243 190.73 85.231 191.05C85.0443 191.363 84.7677 191.61 84.401 191.79C84.041 191.97 83.611 192.06 83.111 192.06C82.311 192.06 81.671 191.863 81.191 191.47C80.7177 191.077 80.4677 190.483 80.441 189.69H82.101C82.1077 189.983 82.191 190.217 82.351 190.39C82.511 190.557 82.7443 190.64 83.051 190.64C83.311 190.64 83.511 190.567 83.651 190.42C83.7977 190.267 83.871 190.067 83.871 189.82C83.871 189.5 83.7677 189.27 83.561 189.13C83.361 188.983 83.0377 188.91 82.591 188.91H82.271V187.52H82.591C82.931 187.52 83.2043 187.463 83.411 187.35C83.6243 187.23 83.731 187.02 83.731 186.72C83.731 186.48 83.6643 186.293 83.531 186.16C83.3977 186.027 83.2143 185.96 82.981 185.96C82.7277 185.96 82.5377 186.037 82.411 186.19C82.291 186.343 82.221 186.533 82.201 186.76H80.531ZM86.5257 188.25C86.5257 187.103 86.7457 186.2 87.1857 185.54C87.6324 184.88 88.349 184.55 89.3357 184.55C90.3224 184.55 91.0357 184.88 91.4757 185.54C91.9224 186.2 92.1457 187.103 92.1457 188.25C92.1457 189.41 91.9224 190.32 91.4757 190.98C91.0357 191.64 90.3224 191.97 89.3357 191.97C88.349 191.97 87.6324 191.64 87.1857 190.98C86.7457 190.32 86.5257 189.41 86.5257 188.25ZM90.4657 188.25C90.4657 187.577 90.3924 187.06 90.2457 186.7C90.099 186.333 89.7957 186.15 89.3357 186.15C88.8757 186.15 88.5724 186.333 88.4257 186.7C88.279 187.06 88.2057 187.577 88.2057 188.25C88.2057 188.703 88.2324 189.08 88.2857 189.38C88.339 189.673 88.4457 189.913 88.6057 190.1C88.7724 190.28 89.0157 190.37 89.3357 190.37C89.6557 190.37 89.8957 190.28 90.0557 190.1C90.2224 189.913 90.3324 189.673 90.3857 189.38C90.439 189.08 90.4657 188.703 90.4657 188.25Z" fill="#767676"/>
<path d="M80.411 235.63C80.6377 235.45 80.741 235.367 80.721 235.38C81.3743 234.84 81.8877 234.397 82.261 234.05C82.641 233.703 82.961 233.34 83.221 232.96C83.481 232.58 83.611 232.21 83.611 231.85C83.611 231.577 83.5477 231.363 83.421 231.21C83.2943 231.057 83.1043 230.98 82.851 230.98C82.5977 230.98 82.3977 231.077 82.251 231.27C82.111 231.457 82.041 231.723 82.041 232.07H80.391C80.4043 231.503 80.5243 231.03 80.751 230.65C80.9843 230.27 81.2877 229.99 81.661 229.81C82.041 229.63 82.461 229.54 82.921 229.54C83.7143 229.54 84.311 229.743 84.711 230.15C85.1177 230.557 85.321 231.087 85.321 231.74C85.321 232.453 85.0777 233.117 84.591 233.73C84.1043 234.337 83.4843 234.93 82.731 235.51H85.431V236.9H80.411V235.63ZM86.1839 233.25C86.1839 232.103 86.4039 231.2 86.8439 230.54C87.2906 229.88 88.0072 229.55 88.9939 229.55C89.9806 229.55 90.6939 229.88 91.1339 230.54C91.5806 231.2 91.8039 232.103 91.8039 233.25C91.8039 234.41 91.5806 235.32 91.1339 235.98C90.6939 236.64 89.9806 236.97 88.9939 236.97C88.0072 236.97 87.2906 236.64 86.8439 235.98C86.4039 235.32 86.1839 234.41 86.1839 233.25ZM90.1239 233.25C90.1239 232.577 90.0506 232.06 89.9039 231.7C89.7572 231.333 89.4539 231.15 88.9939 231.15C88.5339 231.15 88.2306 231.333 88.0839 231.7C87.9372 232.06 87.8639 232.577 87.8639 233.25C87.8639 233.703 87.8906 234.08 87.9439 234.38C87.9972 234.673 88.1039 234.913 88.2639 235.1C88.4306 235.28 88.6739 235.37 88.9939 235.37C89.3139 235.37 89.5539 235.28 89.7139 235.1C89.8806 234.913 89.9906 234.673 90.0439 234.38C90.0972 234.08 90.1239 233.703 90.1239 233.25Z" fill="#767676"/>
<path d="M82.291 276.29V274.7H85.061V282H83.281V276.29H82.291ZM86.2308 278.25C86.2308 277.103 86.4508 276.2 86.8908 275.54C87.3374 274.88 88.0541 274.55 89.0408 274.55C90.0274 274.55 90.7408 274.88 91.1808 275.54C91.6274 276.2 91.8508 277.103 91.8508 278.25C91.8508 279.41 91.6274 280.32 91.1808 280.98C90.7408 281.64 90.0274 281.97 89.0408 281.97C88.0541 281.97 87.3374 281.64 86.8908 280.98C86.4508 280.32 86.2308 279.41 86.2308 278.25ZM90.1708 278.25C90.1708 277.577 90.0974 277.06 89.9508 276.7C89.8041 276.333 89.5008 276.15 89.0408 276.15C88.5808 276.15 88.2774 276.333 88.1308 276.7C87.9841 277.06 87.9108 277.577 87.9108 278.25C87.9108 278.703 87.9374 279.08 87.9908 279.38C88.0441 279.673 88.1508 279.913 88.3108 280.1C88.4774 280.28 88.7208 280.37 89.0408 280.37C89.3608 280.37 89.6008 280.28 89.7608 280.1C89.9274 279.913 90.0374 279.673 90.0908 279.38C90.1441 279.08 90.1708 278.703 90.1708 278.25Z" fill="#767676"/>
<path d="M86.471 323.25C86.471 322.103 86.691 321.2 87.131 320.54C87.5777 319.88 88.2943 319.55 89.281 319.55C90.2677 319.55 90.981 319.88 91.421 320.54C91.8677 321.2 92.091 322.103 92.091 323.25C92.091 324.41 91.8677 325.32 91.421 325.98C90.981 326.64 90.2677 326.97 89.281 326.97C88.2943 326.97 87.5777 326.64 87.131 325.98C86.691 325.32 86.471 324.41 86.471 323.25ZM90.411 323.25C90.411 322.577 90.3377 322.06 90.191 321.7C90.0443 321.333 89.741 321.15 89.281 321.15C88.821 321.15 88.5177 321.333 88.371 321.7C88.2243 322.06 88.151 322.577 88.151 323.25C88.151 323.703 88.1777 324.08 88.231 324.38C88.2843 324.673 88.391 324.913 88.551 325.1C88.7177 325.28 88.961 325.37 89.281 325.37C89.601 325.37 89.841 325.28 90.001 325.1C90.1677 324.913 90.2777 324.673 90.331 324.38C90.3843 324.08 90.411 323.703 90.411 323.25Z" fill="#767676"/>
<line opacity="0.5" x1="107.5" y1="183.572" x2="437.974" y2="183.572" stroke="#B1B1B1" stroke-width="0.85615" stroke-dasharray="1.71 1.71"/>
<line opacity="0.5" x1="107.5" y1="225.572" x2="437.974" y2="225.572" stroke="#B1B1B1" stroke-width="0.85615" stroke-dasharray="1.71 1.71"/>
<line opacity="0.5" x1="107.5" y1="267.572" x2="437.974" y2="267.572" stroke="#B1B1B1" stroke-width="0.85615" stroke-dasharray="1.71 1.71"/>
<line opacity="0.5" x1="107.5" y1="309.572" x2="437.974" y2="309.572" stroke="#B1B1B1" stroke-width="0.85615" stroke-dasharray="1.71 1.71"/>
<line opacity="0.5" x1="107.5" y1="351.675" x2="433.5" y2="351.675" stroke="#B1B1B1" stroke-width="0.649831"/>
<rect x="122" y="140" width="40" height="212" rx="4.72481" fill="#6666FF"/>
<rect x="318" y="304" width="40" height="48" rx="4.72481" fill="#CCCCFF"/>
<rect x="188" y="203" width="40" height="149" rx="4.72481" fill="#CCCCFF"/>
<rect x="383" y="329" width="40" height="23" rx="4.72481" fill="#CCCCFF"/>
<rect x="253" y="271" width="40" height="81" rx="4.72481" fill="#CCCCFF"/>
<path d="M138.8 365.98V370.18C138.8 370.6 138.903 370.923 139.11 371.15C139.317 371.377 139.62 371.49 140.02 371.49C140.42 371.49 140.727 371.377 140.94 371.15C141.153 370.923 141.26 370.6 141.26 370.18V365.98H142.97V370.17C142.97 370.797 142.837 371.327 142.57 371.76C142.303 372.193 141.943 372.52 141.49 372.74C141.043 372.96 140.543 373.07 139.99 373.07C139.437 373.07 138.94 372.963 138.5 372.75C138.067 372.53 137.723 372.203 137.47 371.77C137.217 371.33 137.09 370.797 137.09 370.17V365.98H138.8ZM146.711 373.07C146.197 373.07 145.737 372.987 145.331 372.82C144.924 372.653 144.597 372.407 144.351 372.08C144.111 371.753 143.984 371.36 143.971 370.9H145.791C145.817 371.16 145.907 371.36 146.061 371.5C146.214 371.633 146.414 371.7 146.661 371.7C146.914 371.7 147.114 371.643 147.261 371.53C147.407 371.41 147.481 371.247 147.481 371.04C147.481 370.867 147.421 370.723 147.301 370.61C147.187 370.497 147.044 370.403 146.871 370.33C146.704 370.257 146.464 370.173 146.151 370.08C145.697 369.94 145.327 369.8 145.041 369.66C144.754 369.52 144.507 369.313 144.301 369.04C144.094 368.767 143.991 368.41 143.991 367.97C143.991 367.317 144.227 366.807 144.701 366.44C145.174 366.067 145.791 365.88 146.551 365.88C147.324 365.88 147.947 366.067 148.421 366.44C148.894 366.807 149.147 367.32 149.181 367.98H147.331C147.317 367.753 147.234 367.577 147.081 367.45C146.927 367.317 146.731 367.25 146.491 367.25C146.284 367.25 146.117 367.307 145.991 367.42C145.864 367.527 145.801 367.683 145.801 367.89C145.801 368.117 145.907 368.293 146.121 368.42C146.334 368.547 146.667 368.683 147.121 368.83C147.574 368.983 147.941 369.13 148.221 369.27C148.507 369.41 148.754 369.613 148.961 369.88C149.167 370.147 149.271 370.49 149.271 370.91C149.271 371.31 149.167 371.673 148.961 372C148.761 372.327 148.467 372.587 148.081 372.78C147.694 372.973 147.237 373.07 146.711 373.07ZM154.693 371.76H152.073L151.653 373H149.863L152.403 365.98H154.383L156.923 373H155.113L154.693 371.76ZM154.253 370.44L153.383 367.87L152.523 370.44H154.253Z" fill="#767676"/>
<path d="M198.83 365.98V373H197.12V365.98H198.83ZM203.469 367.36C204.123 367.36 204.643 367.573 205.029 368C205.423 368.42 205.619 369 205.619 369.74V373H203.919V369.97C203.919 369.597 203.823 369.307 203.629 369.1C203.436 368.893 203.176 368.79 202.849 368.79C202.523 368.79 202.263 368.893 202.069 369.1C201.876 369.307 201.779 369.597 201.779 369.97V373H200.069V367.42H201.779V368.16C201.953 367.913 202.186 367.72 202.479 367.58C202.773 367.433 203.103 367.36 203.469 367.36ZM206.468 370.2C206.468 369.627 206.574 369.123 206.788 368.69C207.008 368.257 207.304 367.923 207.678 367.69C208.051 367.457 208.468 367.34 208.928 367.34C209.294 367.34 209.628 367.417 209.928 367.57C210.234 367.723 210.474 367.93 210.648 368.19V365.6H212.358V373H210.648V372.2C210.488 372.467 210.258 372.68 209.958 372.84C209.664 373 209.321 373.08 208.928 373.08C208.468 373.08 208.051 372.963 207.678 372.73C207.304 372.49 207.008 372.153 206.788 371.72C206.574 371.28 206.468 370.773 206.468 370.2ZM210.648 370.21C210.648 369.783 210.528 369.447 210.288 369.2C210.054 368.953 209.768 368.83 209.428 368.83C209.088 368.83 208.798 368.953 208.558 369.2C208.324 369.44 208.208 369.773 208.208 370.2C208.208 370.627 208.324 370.967 208.558 371.22C208.798 371.467 209.088 371.59 209.428 371.59C209.768 371.59 210.054 371.467 210.288 371.22C210.528 370.973 210.648 370.637 210.648 370.21ZM214.455 366.84C214.155 366.84 213.908 366.753 213.715 366.58C213.528 366.4 213.435 366.18 213.435 365.92C213.435 365.653 213.528 365.433 213.715 365.26C213.908 365.08 214.155 364.99 214.455 364.99C214.748 364.99 214.988 365.08 215.175 365.26C215.368 365.433 215.465 365.653 215.465 365.92C215.465 366.18 215.368 366.4 215.175 366.58C214.988 366.753 214.748 366.84 214.455 366.84ZM215.305 367.42V373H213.595V367.42H215.305ZM216.204 370.2C216.204 369.627 216.31 369.123 216.524 368.69C216.744 368.257 217.04 367.923 217.414 367.69C217.787 367.457 218.204 367.34 218.664 367.34C219.057 367.34 219.4 367.42 219.694 367.58C219.994 367.74 220.224 367.95 220.384 368.21V367.42H222.094V373H220.384V372.21C220.217 372.47 219.984 372.68 219.684 372.84C219.39 373 219.047 373.08 218.654 373.08C218.2 373.08 217.787 372.963 217.414 372.73C217.04 372.49 216.744 372.153 216.524 371.72C216.31 371.28 216.204 370.773 216.204 370.2ZM220.384 370.21C220.384 369.783 220.264 369.447 220.024 369.2C219.79 368.953 219.504 368.83 219.164 368.83C218.824 368.83 218.534 368.953 218.294 369.2C218.06 369.44 217.944 369.773 217.944 370.2C217.944 370.627 218.06 370.967 218.294 371.22C218.534 371.467 218.824 371.59 219.164 371.59C219.504 371.59 219.79 371.467 220.024 371.22C220.264 370.973 220.384 370.637 220.384 370.21Z" fill="#767676"/>
<path d="M267.8 365.98V370.18C267.8 370.6 267.903 370.923 268.11 371.15C268.317 371.377 268.62 371.49 269.02 371.49C269.42 371.49 269.727 371.377 269.94 371.15C270.153 370.923 270.26 370.6 270.26 370.18V365.98H271.97V370.17C271.97 370.797 271.837 371.327 271.57 371.76C271.303 372.193 270.943 372.52 270.49 372.74C270.043 372.96 269.543 373.07 268.99 373.07C268.437 373.07 267.94 372.963 267.5 372.75C267.067 372.53 266.723 372.203 266.47 371.77C266.217 371.33 266.09 370.797 266.09 370.17V365.98H267.8ZM277.241 373L274.881 369.9V373H273.171V365.98H274.881V369.06L277.221 365.98H279.231L276.511 369.42L279.331 373H277.241Z" fill="#767676"/>
<path d="M322.78 368.2C322.653 367.967 322.47 367.79 322.23 367.67C321.997 367.543 321.72 367.48 321.4 367.48C320.847 367.48 320.403 367.663 320.07 368.03C319.737 368.39 319.57 368.873 319.57 369.48C319.57 370.127 319.743 370.633 320.09 371C320.443 371.36 320.927 371.54 321.54 371.54C321.96 371.54 322.313 371.433 322.6 371.22C322.893 371.007 323.107 370.7 323.24 370.3H321.07V369.04H324.79V370.63C324.663 371.057 324.447 371.453 324.14 371.82C323.84 372.187 323.457 372.483 322.99 372.71C322.523 372.937 321.997 373.05 321.41 373.05C320.717 373.05 320.097 372.9 319.55 372.6C319.01 372.293 318.587 371.87 318.28 371.33C317.98 370.79 317.83 370.173 317.83 369.48C317.83 368.787 317.98 368.17 318.28 367.63C318.587 367.083 319.01 366.66 319.55 366.36C320.09 366.053 320.707 365.9 321.4 365.9C322.24 365.9 322.947 366.103 323.52 366.51C324.1 366.917 324.483 367.48 324.67 368.2H322.78ZM330.997 370.12C330.997 370.28 330.987 370.447 330.967 370.62H327.097C327.124 370.967 327.234 371.233 327.427 371.42C327.627 371.6 327.871 371.69 328.157 371.69C328.584 371.69 328.881 371.51 329.047 371.15H330.867C330.774 371.517 330.604 371.847 330.357 372.14C330.117 372.433 329.814 372.663 329.447 372.83C329.081 372.997 328.671 373.08 328.217 373.08C327.671 373.08 327.184 372.963 326.757 372.73C326.331 372.497 325.997 372.163 325.757 371.73C325.517 371.297 325.397 370.79 325.397 370.21C325.397 369.63 325.514 369.123 325.747 368.69C325.987 368.257 326.321 367.923 326.747 367.69C327.174 367.457 327.664 367.34 328.217 367.34C328.757 367.34 329.237 367.453 329.657 367.68C330.077 367.907 330.404 368.23 330.637 368.65C330.877 369.07 330.997 369.56 330.997 370.12ZM329.247 369.67C329.247 369.377 329.147 369.143 328.947 368.97C328.747 368.797 328.497 368.71 328.197 368.71C327.911 368.71 327.667 368.793 327.467 368.96C327.274 369.127 327.154 369.363 327.107 369.67H329.247ZM333.609 368.35C333.809 368.043 334.059 367.803 334.359 367.63C334.659 367.45 334.993 367.36 335.359 367.36V369.17H334.889C334.463 369.17 334.143 369.263 333.929 369.45C333.716 369.63 333.609 369.95 333.609 370.41V373H331.899V367.42H333.609V368.35ZM343.297 367.36C343.99 367.36 344.54 367.57 344.947 367.99C345.36 368.41 345.567 368.993 345.567 369.74V373H343.867V369.97C343.867 369.61 343.77 369.333 343.577 369.14C343.39 368.94 343.13 368.84 342.797 368.84C342.463 368.84 342.2 368.94 342.007 369.14C341.82 369.333 341.727 369.61 341.727 369.97V373H340.027V369.97C340.027 369.61 339.93 369.333 339.737 369.14C339.55 368.94 339.29 368.84 338.957 368.84C338.623 368.84 338.36 368.94 338.167 369.14C337.98 369.333 337.887 369.61 337.887 369.97V373H336.177V367.42H337.887V368.12C338.06 367.887 338.287 367.703 338.567 367.57C338.847 367.43 339.163 367.36 339.517 367.36C339.937 367.36 340.31 367.45 340.637 367.63C340.97 367.81 341.23 368.067 341.417 368.4C341.61 368.093 341.873 367.843 342.207 367.65C342.54 367.457 342.903 367.36 343.297 367.36ZM346.423 370.2C346.423 369.627 346.529 369.123 346.743 368.69C346.963 368.257 347.259 367.923 347.633 367.69C348.006 367.457 348.423 367.34 348.883 367.34C349.276 367.34 349.619 367.42 349.913 367.58C350.213 367.74 350.443 367.95 350.603 368.21V367.42H352.313V373H350.603V372.21C350.436 372.47 350.203 372.68 349.903 372.84C349.609 373 349.266 373.08 348.873 373.08C348.419 373.08 348.006 372.963 347.633 372.73C347.259 372.49 346.963 372.153 346.743 371.72C346.529 371.28 346.423 370.773 346.423 370.2ZM350.603 370.21C350.603 369.783 350.483 369.447 350.243 369.2C350.009 368.953 349.723 368.83 349.383 368.83C349.043 368.83 348.753 368.953 348.513 369.2C348.279 369.44 348.163 369.773 348.163 370.2C348.163 370.627 348.279 370.967 348.513 371.22C348.753 371.467 349.043 371.59 349.383 371.59C349.723 371.59 350.009 371.467 350.243 371.22C350.483 370.973 350.603 370.637 350.603 370.21ZM356.95 367.36C357.603 367.36 358.123 367.573 358.51 368C358.903 368.42 359.1 369 359.1 369.74V373H357.4V369.97C357.4 369.597 357.303 369.307 357.11 369.1C356.916 368.893 356.656 368.79 356.33 368.79C356.003 368.79 355.743 368.893 355.55 369.1C355.356 369.307 355.26 369.597 355.26 369.97V373H353.55V367.42H355.26V368.16C355.433 367.913 355.666 367.72 355.96 367.58C356.253 367.433 356.583 367.36 356.95 367.36ZM365.988 367.42L362.488 375.65H360.648L361.928 372.81L359.658 367.42H361.568L362.858 370.91L364.138 367.42H365.988Z" fill="#767676"/>
<path d="M389.49 371.76H386.87L386.45 373H384.66L387.2 365.98H389.18L391.72 373H389.91L389.49 371.76ZM389.05 370.44L388.18 367.87L387.32 370.44H389.05ZM398.003 367.42V373H396.293V372.24C396.12 372.487 395.883 372.687 395.583 372.84C395.29 372.987 394.963 373.06 394.603 373.06C394.176 373.06 393.8 372.967 393.473 372.78C393.146 372.587 392.893 372.31 392.713 371.95C392.533 371.59 392.443 371.167 392.443 370.68V367.42H394.143V370.45C394.143 370.823 394.24 371.113 394.433 371.32C394.626 371.527 394.886 371.63 395.213 371.63C395.546 371.63 395.81 371.527 396.003 371.32C396.196 371.113 396.293 370.823 396.293 370.45V367.42H398.003ZM401.501 373.08C401.015 373.08 400.581 372.997 400.201 372.83C399.821 372.663 399.521 372.437 399.301 372.15C399.081 371.857 398.958 371.53 398.931 371.17H400.621C400.641 371.363 400.731 371.52 400.891 371.64C401.051 371.76 401.248 371.82 401.481 371.82C401.695 371.82 401.858 371.78 401.971 371.7C402.091 371.613 402.151 371.503 402.151 371.37C402.151 371.21 402.068 371.093 401.901 371.02C401.735 370.94 401.465 370.853 401.091 370.76C400.691 370.667 400.358 370.57 400.091 370.47C399.825 370.363 399.595 370.2 399.401 369.98C399.208 369.753 399.111 369.45 399.111 369.07C399.111 368.75 399.198 368.46 399.371 368.2C399.551 367.933 399.811 367.723 400.151 367.57C400.498 367.417 400.908 367.34 401.381 367.34C402.081 367.34 402.631 367.513 403.031 367.86C403.438 368.207 403.671 368.667 403.731 369.24H402.151C402.125 369.047 402.038 368.893 401.891 368.78C401.751 368.667 401.565 368.61 401.331 368.61C401.131 368.61 400.978 368.65 400.871 368.73C400.765 368.803 400.711 368.907 400.711 369.04C400.711 369.2 400.795 369.32 400.961 369.4C401.135 369.48 401.401 369.56 401.761 369.64C402.175 369.747 402.511 369.853 402.771 369.96C403.031 370.06 403.258 370.227 403.451 370.46C403.651 370.687 403.755 370.993 403.761 371.38C403.761 371.707 403.668 372 403.481 372.26C403.301 372.513 403.038 372.713 402.691 372.86C402.351 373.007 401.955 373.08 401.501 373.08ZM407.918 371.55V373H407.048C406.428 373 405.944 372.85 405.598 372.55C405.251 372.243 405.078 371.747 405.078 371.06V368.84H404.398V367.42H405.078V366.06H406.788V367.42H407.908V368.84H406.788V371.08C406.788 371.247 406.828 371.367 406.908 371.44C406.988 371.513 407.121 371.55 407.308 371.55H407.918ZM410.58 368.35C410.78 368.043 411.03 367.803 411.33 367.63C411.63 367.45 411.963 367.36 412.33 367.36V369.17H411.86C411.433 369.17 411.113 369.263 410.9 369.45C410.687 369.63 410.58 369.95 410.58 370.41V373H408.87V367.42H410.58V368.35ZM412.807 370.2C412.807 369.627 412.914 369.123 413.127 368.69C413.347 368.257 413.644 367.923 414.017 367.69C414.391 367.457 414.807 367.34 415.267 367.34C415.661 367.34 416.004 367.42 416.297 367.58C416.597 367.74 416.827 367.95 416.987 368.21V367.42H418.697V373H416.987V372.21C416.821 372.47 416.587 372.68 416.287 372.84C415.994 373 415.651 373.08 415.257 373.08C414.804 373.08 414.391 372.963 414.017 372.73C413.644 372.49 413.347 372.153 413.127 371.72C412.914 371.28 412.807 370.773 412.807 370.2ZM416.987 370.21C416.987 369.783 416.867 369.447 416.627 369.2C416.394 368.953 416.107 368.83 415.767 368.83C415.427 368.83 415.137 368.953 414.897 369.2C414.664 369.44 414.547 369.773 414.547 370.2C414.547 370.627 414.664 370.967 414.897 371.22C415.137 371.467 415.427 371.59 415.767 371.59C416.107 371.59 416.394 371.467 416.627 371.22C416.867 370.973 416.987 370.637 416.987 370.21ZM421.644 365.6V373H419.934V365.6H421.644ZM423.744 366.84C423.444 366.84 423.197 366.753 423.004 366.58C422.817 366.4 422.724 366.18 422.724 365.92C422.724 365.653 422.817 365.433 423.004 365.26C423.197 365.08 423.444 364.99 423.744 364.99C424.037 364.99 424.277 365.08 424.464 365.26C424.657 365.433 424.754 365.653 424.754 365.92C424.754 366.18 424.657 366.4 424.464 366.58C424.277 366.753 424.037 366.84 423.744 366.84ZM424.594 367.42V373H422.884V367.42H424.594ZM425.493 370.2C425.493 369.627 425.6 369.123 425.813 368.69C426.033 368.257 426.33 367.923 426.703 367.69C427.076 367.457 427.493 367.34 427.953 367.34C428.346 367.34 428.69 367.42 428.983 367.58C429.283 367.74 429.513 367.95 429.673 368.21V367.42H431.383V373H429.673V372.21C429.506 372.47 429.273 372.68 428.973 372.84C428.68 373 428.336 373.08 427.943 373.08C427.49 373.08 427.076 372.963 426.703 372.73C426.33 372.49 426.033 372.153 425.813 371.72C425.6 371.28 425.493 370.773 425.493 370.2ZM429.673 370.21C429.673 369.783 429.553 369.447 429.313 369.2C429.08 368.953 428.793 368.83 428.453 368.83C428.113 368.83 427.823 368.953 427.583 369.2C427.35 369.44 427.233 369.773 427.233 370.2C427.233 370.627 427.35 370.967 427.583 371.22C427.823 371.467 428.113 371.59 428.453 371.59C428.793 371.59 429.08 371.467 429.313 371.22C429.553 370.973 429.673 370.637 429.673 370.21Z" fill="#767676"/>
<line opacity="0.5" x1="106.675" y1="352" x2="106.675" y2="140" stroke="#B1B1B1" stroke-width="0.649831"/>
</svg>
