<svg width="71" height="62" viewBox="0 0 71 62" fill="none" xmlns="http://www.w3.org/2000/svg">
<path fill-rule="evenodd" clip-rule="evenodd" d="M32.4423 54.2005L8.74815 53.7362L8.63114 21.1384L8.45197 10.509L0.850098 4.33679L1.1609 61.477L32.3619 61.7805L32.4423 54.2005Z" fill="url(#paint0_linear_133_2750)"/>
<path fill-rule="evenodd" clip-rule="evenodd" d="M15.8308 26.9083L36.1573 43.2053L63.2593 21.3687L62.9485 61.7877L70.693 61.9412L71.0001 4.17944L36.3145 33.139L15.9259 16.5786L15.8308 26.9083Z" fill="url(#paint1_linear_133_2750)"/>
<path d="M37.1007 27.2336C36.1025 18.82 35.7551 17.6207 35.2944 16.6152C34.6874 15.8473 33.9634 15.2732 28.8918 13.6168C33.9634 11.9604 34.6874 11.3864 35.2944 10.6185C35.7588 9.61295 36.1025 8.41362 37.1007 0C38.0989 8.41362 38.4463 9.60929 38.9107 10.6185C39.5176 11.3864 40.2416 11.9604 45.3132 13.6168C40.2416 15.2732 39.5176 15.8473 38.9107 16.6152C38.4463 17.6207 38.1026 18.82 37.1007 27.2336Z" fill="url(#paint2_linear_133_2750)"/>
<defs>
<linearGradient id="paint0_linear_133_2750" x1="0.850098" y1="33.0586" x2="32.4423" y2="33.0586" gradientUnits="userSpaceOnUse">
<stop stop-color="#0000FF"/>
<stop offset="0.54" stop-color="#8F00FF"/>
<stop offset="1" stop-color="#FF1494"/>
</linearGradient>
<linearGradient id="paint1_linear_133_2750" x1="15.8308" y1="33.0622" x2="71.0001" y2="33.0622" gradientUnits="userSpaceOnUse">
<stop stop-color="#0000FF"/>
<stop offset="0.54" stop-color="#8F00FF"/>
<stop offset="1" stop-color="#FF1494"/>
</linearGradient>
<linearGradient id="paint2_linear_133_2750" x1="28.8918" y1="13.6168" x2="45.3096" y2="13.6168" gradientUnits="userSpaceOnUse">
<stop stop-color="#0000FF"/>
<stop offset="0.54" stop-color="#8F00FF"/>
<stop offset="1" stop-color="#FF1494"/>
</linearGradient>
</defs>
</svg>
