<svg width="410" height="275" viewBox="0 0 410 275" fill="none" xmlns="http://www.w3.org/2000/svg">
<g clip-path="url(#clip0_1043_1356)">
<rect width="410.214" height="275.243" rx="8.15534" fill="white"/>
<g opacity="0.2" filter="url(#filter0_f_1043_1356)">
<circle cx="339.5" cy="-0.5" r="116.5" fill="#FF1494"/>
</g>
<g filter="url(#filter1_f_1043_1356)">
<circle cx="85" cy="230" r="125" fill="#0000FF" fill-opacity="0.15"/>
</g>
<path d="M221.232 229.832V231.032H216.688V234.76H220.752V235.96H216.688V239.8H221.232V241H215.232V229.832H221.232ZM222.891 236.584C222.891 233.848 224.699 232.088 227.067 232.088C228.443 232.088 229.707 232.792 230.315 233.8V229.16H231.787V241H230.315V239.352C229.787 240.328 228.651 241.144 227.051 241.144C224.699 241.144 222.891 239.304 222.891 236.584ZM230.315 236.6C230.315 234.568 228.939 233.352 227.339 233.352C225.739 233.352 224.379 234.52 224.379 236.584C224.379 238.648 225.739 239.864 227.339 239.864C228.939 239.864 230.315 238.664 230.315 236.6ZM234.248 241V232.232H235.704V241H234.248ZM235 230.808C234.44 230.808 234.008 230.376 234.008 229.816C234.008 229.256 234.44 228.824 235 228.824C235.528 228.824 235.96 229.256 235.96 229.816C235.96 230.376 235.528 230.808 235 230.808ZM238.505 238.6V233.432H237.369V232.232H238.505V230.024H239.961V232.232H242.249V233.432H239.961V238.6C239.961 239.464 240.281 239.768 241.177 239.768H242.249V241H240.937C239.385 241 238.505 240.36 238.505 238.6Z" fill="#8F00FF"/>
<g clip-path="url(#clip1_1043_1356)">
<path d="M201.92 238.961C201.549 238.961 201.247 239.262 201.247 239.634V245.604C201.246 246.718 200.344 247.62 199.23 247.621H180.362C179.248 247.62 178.346 246.718 178.345 245.604V228.081C178.346 226.967 179.248 226.065 180.362 226.064H186.333C186.704 226.064 187.005 225.763 187.005 225.391C187.005 225.02 186.704 224.719 186.333 224.719H180.362C178.506 224.721 177.002 226.225 177 228.081V245.604C177.002 247.46 178.506 248.964 180.362 248.967H199.23C201.086 248.964 202.59 247.46 202.592 245.604V239.634C202.592 239.262 202.291 238.961 201.92 238.961Z" fill="#8F00FF"/>
<path d="M202.326 222.988C201.145 221.806 199.229 221.806 198.047 222.988L186.05 234.985C185.968 235.067 185.909 235.169 185.878 235.281L184.3 240.976C184.235 241.21 184.301 241.46 184.472 241.631C184.644 241.803 184.894 241.868 185.127 241.804L190.823 240.226C190.935 240.195 191.037 240.136 191.119 240.053L203.115 228.056C204.295 226.874 204.295 224.959 203.115 223.777L202.326 222.988ZM187.515 235.422L197.334 225.603L200.5 228.77L190.682 238.588L187.515 235.422ZM186.883 236.691L189.413 239.221L185.913 240.191L186.883 236.691ZM202.165 227.106L201.451 227.819L198.285 224.652L198.998 223.939C199.654 223.282 200.719 223.282 201.375 223.939L202.165 224.728C202.82 225.385 202.82 226.449 202.165 227.106Z" fill="#8F00FF"/>
</g>
<path d="M49.88 43.26C49.88 41.86 49.08 40.96 47.3 40.96H44.78V45.62H47.3C49.08 45.62 49.88 44.64 49.88 43.26ZM42.5 39.1H47.3C50.6 39.1 52.22 41 52.22 43.26C52.22 44.9 51.34 46.66 49 47.24L52.44 53H49.72L46.52 47.44H44.78V53H42.5V39.1ZM59.7767 43.72C58.2367 43.72 56.9967 44.76 56.7567 46.5H62.8567C62.8167 44.8 61.4767 43.72 59.7767 43.72ZM64.9367 49.72C64.3167 51.64 62.5767 53.18 59.8767 53.18C56.7167 53.18 54.3767 50.94 54.3767 47.48C54.3767 44.02 56.6167 41.8 59.8767 41.8C63.0167 41.8 65.2367 43.98 65.2367 47.22C65.2367 47.6 65.2167 47.96 65.1567 48.34H56.7367C56.8967 50.16 58.1967 51.26 59.8767 51.26C61.2767 51.26 62.0567 50.58 62.4767 49.72H64.9367ZM69.7605 43.6C70.4605 42.68 71.8005 41.8 73.6005 41.8C76.5005 41.8 78.7805 44.04 78.7805 47.44C78.7805 50.84 76.5005 53.18 73.6005 53.18C71.7805 53.18 70.4805 52.26 69.7605 51.4V58.24H67.4805V41.98H69.7605V43.6ZM76.4605 47.44C76.4605 45.06 74.8205 43.78 73.1005 43.78C71.4005 43.78 69.7605 45.12 69.7605 47.48C69.7605 49.86 71.4005 51.2 73.1005 51.2C74.8205 51.2 76.4605 49.82 76.4605 47.44ZM91.5352 47.48C91.5352 50.94 88.9752 53.18 85.8152 53.18C82.6752 53.18 80.2952 50.94 80.2952 47.48C80.2952 44.02 82.7752 41.8 85.9152 41.8C89.0552 41.8 91.5352 44.02 91.5352 47.48ZM82.6152 47.48C82.6152 49.98 84.0952 51.2 85.8152 51.2C87.5152 51.2 89.1952 49.98 89.1952 47.48C89.1952 44.98 87.5752 43.78 85.8752 43.78C84.1552 43.78 82.6152 44.98 82.6152 47.48ZM102.009 49.92C102.009 51.78 100.389 53.18 97.7891 53.18C95.1491 53.18 93.2891 51.62 93.1891 49.62H95.5491C95.6291 50.52 96.4891 51.26 97.7491 51.26C99.0691 51.26 99.7691 50.7 99.7691 49.94C99.7691 47.78 93.3691 49.02 93.3691 44.98C93.3691 43.22 95.0091 41.8 97.6091 41.8C100.109 41.8 101.749 43.14 101.869 45.34H99.5891C99.5091 44.38 98.7691 43.72 97.5291 43.72C96.3091 43.72 95.6691 44.22 95.6691 44.96C95.6691 47.18 101.889 45.94 102.009 49.92ZM104.833 49.94V43.84H103.533V41.98H104.833V39.24H107.133V41.98H109.813V43.84H107.133V49.94C107.133 50.76 107.453 51.1 108.413 51.1H109.813V53H108.013C106.053 53 104.833 52.18 104.833 49.94ZM116.389 40.96V39.1H126.089V40.96H122.389V53H120.109V40.96H116.389ZM138.898 47.48C138.898 50.94 136.338 53.18 133.178 53.18C130.038 53.18 127.658 50.94 127.658 47.48C127.658 44.02 130.138 41.8 133.278 41.8C136.418 41.8 138.898 44.02 138.898 47.48ZM129.978 47.48C129.978 49.98 131.458 51.2 133.178 51.2C134.878 51.2 136.558 49.98 136.558 47.48C136.558 44.98 134.938 43.78 133.238 43.78C131.518 43.78 129.978 44.98 129.978 47.48ZM143.432 43.6C144.132 42.68 145.472 41.8 147.272 41.8C150.172 41.8 152.452 44.04 152.452 47.44C152.452 50.84 150.172 53.18 147.272 53.18C145.452 53.18 144.152 52.26 143.432 51.4V58.24H141.152V41.98H143.432V43.6ZM150.132 47.44C150.132 45.06 148.492 43.78 146.772 43.78C145.072 43.78 143.432 45.12 143.432 47.48C143.432 49.86 145.072 51.2 146.772 51.2C148.492 51.2 150.132 49.82 150.132 47.44ZM154.947 46.72V44.8H163.167V46.72H154.947ZM168.686 45.5H171.206C172.986 45.5 173.786 44.64 173.786 43.24C173.786 41.8 172.986 40.96 171.206 40.96H168.686V45.5ZM176.126 43.24C176.126 45.22 174.826 47.36 171.206 47.36H168.686V53H166.406V39.1H171.206C174.506 39.1 176.126 40.98 176.126 43.24ZM182.941 43.72C181.401 43.72 180.161 44.76 179.921 46.5H186.021C185.981 44.8 184.641 43.72 182.941 43.72ZM188.101 49.72C187.481 51.64 185.741 53.18 183.041 53.18C179.881 53.18 177.541 50.94 177.541 47.48C177.541 44.02 179.781 41.8 183.041 41.8C186.181 41.8 188.401 43.98 188.401 47.22C188.401 47.6 188.381 47.96 188.321 48.34H179.901C180.061 50.16 181.361 51.26 183.041 51.26C184.441 51.26 185.221 50.58 185.641 49.72H188.101ZM192.925 47.2V53H190.645V41.98H192.925V43.58C193.565 42.48 194.665 41.8 196.225 41.8V44.16H195.645C193.965 44.16 192.925 44.86 192.925 47.2ZM198.6 53V43.84H197.3V41.98H198.6V41.2C198.6 38.66 199.9 37.56 202.78 37.56V39.46C201.38 39.46 200.9 39.94 200.9 41.2V41.98H202.94V43.84H200.9V53H198.6ZM215.461 47.48C215.461 50.94 212.901 53.18 209.741 53.18C206.601 53.18 204.221 50.94 204.221 47.48C204.221 44.02 206.701 41.8 209.841 41.8C212.981 41.8 215.461 44.02 215.461 47.48ZM206.541 47.48C206.541 49.98 208.021 51.2 209.741 51.2C211.441 51.2 213.121 49.98 213.121 47.48C213.121 44.98 211.501 43.78 209.801 43.78C208.081 43.78 206.541 44.98 206.541 47.48ZM219.995 47.2V53H217.715V41.98H219.995V43.58C220.635 42.48 221.735 41.8 223.295 41.8V44.16H222.715C221.035 44.16 219.995 44.86 219.995 47.2ZM241.011 53V46.84C241.011 44.82 239.911 43.78 238.251 43.78C236.571 43.78 235.471 44.82 235.471 46.84V53H233.211V46.84C233.211 44.82 232.111 43.78 230.451 43.78C228.771 43.78 227.671 44.82 227.671 46.84V53H225.391V41.98H227.671V43.24C228.411 42.34 229.611 41.8 230.931 41.8C232.671 41.8 234.131 42.54 234.891 43.98C235.571 42.64 237.131 41.8 238.731 41.8C241.311 41.8 243.271 43.42 243.271 46.5V53H241.011ZM246.172 53V41.98H248.452V53H246.172ZM247.332 40.52C246.512 40.52 245.872 39.88 245.872 39.06C245.872 38.24 246.512 37.6 247.332 37.6C248.132 37.6 248.772 38.24 248.772 39.06C248.772 39.88 248.132 40.52 247.332 40.52ZM259.265 53V46.84C259.265 44.82 258.165 43.78 256.505 43.78C254.825 43.78 253.725 44.82 253.725 46.84V53H251.445V41.98H253.725V43.24C254.465 42.34 255.685 41.8 257.005 41.8C259.585 41.8 261.525 43.42 261.525 46.5V53H259.265ZM263.674 47.44C263.674 44.04 265.974 41.8 268.874 41.8C270.674 41.8 272.014 42.64 272.694 43.58V41.98H274.994V53.18C274.994 56.18 273.054 58.44 269.614 58.44C266.674 58.44 264.494 56.98 264.214 54.54H266.474C266.814 55.68 268.034 56.46 269.614 56.46C271.374 56.46 272.694 55.38 272.694 53.18V51.34C271.994 52.28 270.674 53.18 268.874 53.18C265.974 53.18 263.674 50.84 263.674 47.44ZM272.694 47.48C272.694 45.12 271.074 43.78 269.354 43.78C267.654 43.78 266.014 45.06 266.014 47.44C266.014 49.82 267.654 51.2 269.354 51.2C271.074 51.2 272.694 49.86 272.694 47.48ZM292.564 53L291.564 50.16H285.744L284.744 53H282.364L287.344 39.08H289.984L294.964 53H292.564ZM290.924 48.3L288.664 41.84L286.384 48.3H290.924ZM296.369 47.44C296.369 44.04 298.669 41.8 301.589 41.8C303.029 41.8 304.549 42.48 305.389 43.52V38.2H307.689V53H305.389V51.34C304.689 52.34 303.369 53.18 301.569 53.18C298.669 53.18 296.369 50.84 296.369 47.44ZM305.389 47.48C305.389 45.12 303.769 43.78 302.049 43.78C300.349 43.78 298.709 45.06 298.709 47.44C298.709 49.82 300.349 51.2 302.049 51.2C303.769 51.2 305.389 49.86 305.389 47.48ZM318.904 49.92C318.904 51.78 317.284 53.18 314.684 53.18C312.044 53.18 310.184 51.62 310.084 49.62H312.444C312.524 50.52 313.384 51.26 314.644 51.26C315.964 51.26 316.664 50.7 316.664 49.94C316.664 47.78 310.264 49.02 310.264 44.98C310.264 43.22 311.904 41.8 314.504 41.8C317.004 41.8 318.644 43.14 318.764 45.34H316.484C316.404 44.38 315.664 43.72 314.424 43.72C313.204 43.72 312.564 44.22 312.564 44.96C312.564 47.18 318.784 45.94 318.904 49.92Z" fill="black"/>
<path d="M50.54 84.58C50.54 86.362 49.082 88.126 46.364 88.126C43.844 88.126 42.062 86.722 42.026 84.652H43.772C43.88 85.696 44.618 86.74 46.364 86.74C47.948 86.74 48.884 85.84 48.884 84.652C48.884 81.268 42.098 83.428 42.098 78.766C42.098 76.696 43.772 75.292 46.256 75.292C48.65 75.292 50.216 76.606 50.414 78.514H48.614C48.506 77.668 47.714 76.714 46.184 76.696C44.834 76.66 43.772 77.362 43.772 78.712C43.772 81.952 50.54 79.936 50.54 84.58ZM52.3385 83.05C52.3385 79.954 54.3365 77.974 57.1445 77.974C59.5925 77.974 61.1945 79.234 61.6985 81.304H59.9345C59.5925 80.116 58.6025 79.36 57.1445 79.36C55.3445 79.36 54.0125 80.638 54.0125 83.05C54.0125 85.498 55.3445 86.776 57.1445 86.776C58.6025 86.776 59.5745 86.074 59.9345 84.832H61.6985C61.1945 86.794 59.5925 88.162 57.1445 88.162C54.3365 88.162 52.3385 86.182 52.3385 83.05ZM63.884 88V74.68H65.522V79.558C66.17 78.514 67.394 77.956 68.78 77.956C70.976 77.956 72.722 79.36 72.722 82.186V88H71.102V82.42C71.102 80.404 70.004 79.378 68.348 79.378C66.674 79.378 65.522 80.422 65.522 82.546V88H63.884ZM79.5917 79.36C77.9897 79.36 76.6577 80.422 76.4777 82.348H82.7057C82.7237 80.422 81.2837 79.36 79.5917 79.36ZM84.1997 84.958C83.6957 86.758 82.1117 88.162 79.6637 88.162C76.8557 88.162 74.7857 86.182 74.7857 83.05C74.7857 79.936 76.7837 77.974 79.6637 77.974C82.5257 77.974 84.3977 79.99 84.3977 82.69C84.3977 83.05 84.3797 83.338 84.3437 83.68H76.4597C76.5857 85.678 77.9897 86.776 79.6637 86.776C81.1397 86.776 82.0757 86.02 82.4357 84.958H84.1997ZM85.9478 83.032C85.9478 79.954 87.9818 77.974 90.6458 77.974C92.1938 77.974 93.6158 78.766 94.2998 79.9V74.68H95.9558V88H94.2998V86.146C93.7058 87.244 92.4278 88.162 90.6278 88.162C87.9818 88.162 85.9478 86.092 85.9478 83.032ZM94.2998 83.05C94.2998 80.764 92.7518 79.396 90.9518 79.396C89.1518 79.396 87.6218 80.71 87.6218 83.032C87.6218 85.354 89.1518 86.722 90.9518 86.722C92.7518 86.722 94.2998 85.372 94.2998 83.05ZM107.472 78.136V88H105.834V86.542C105.204 87.568 103.998 88.144 102.684 88.144C100.416 88.144 98.6339 86.74 98.6339 83.914V78.136H100.254V83.698C100.254 85.696 101.352 86.722 103.008 86.722C104.7 86.722 105.834 85.678 105.834 83.554V78.136H107.472ZM110.238 88V74.68H111.876V88H110.238ZM118.861 79.36C117.259 79.36 115.927 80.422 115.747 82.348H121.975C121.993 80.422 120.553 79.36 118.861 79.36ZM123.469 84.958C122.965 86.758 121.381 88.162 118.933 88.162C116.125 88.162 114.055 86.182 114.055 83.05C114.055 79.936 116.053 77.974 118.933 77.974C121.795 77.974 123.667 79.99 123.667 82.69C123.667 83.05 123.649 83.338 123.613 83.68H115.729C115.855 85.678 117.259 86.776 118.933 86.776C120.409 86.776 121.345 86.02 121.705 84.958H123.469ZM132.266 79.954C132.86 78.91 134.156 77.974 135.956 77.974C138.602 77.974 140.636 79.954 140.636 83.032C140.636 86.092 138.602 88.162 135.956 88.162C134.156 88.162 132.878 87.19 132.266 86.182V92.68H130.628V78.136H132.266V79.954ZM138.962 83.032C138.962 80.71 137.432 79.396 135.614 79.396C133.832 79.396 132.266 80.764 132.266 83.05C132.266 85.372 133.832 86.722 135.614 86.722C137.432 86.722 138.962 85.354 138.962 83.032ZM152.152 83.05C152.152 86.182 149.902 88.162 147.094 88.162C144.304 88.162 142.18 86.182 142.18 83.05C142.18 79.936 144.376 77.974 147.166 77.974C149.974 77.974 152.152 79.936 152.152 83.05ZM143.854 83.05C143.854 85.552 145.384 86.722 147.094 86.722C148.804 86.722 150.478 85.552 150.478 83.05C150.478 80.566 148.84 79.396 147.148 79.396C145.42 79.396 143.854 80.566 143.854 83.05ZM161.398 85.318C161.398 86.938 159.976 88.162 157.798 88.162C155.494 88.162 153.874 86.902 153.766 85.102H155.458C155.548 86.056 156.394 86.776 157.78 86.776C159.076 86.776 159.796 86.128 159.796 85.318C159.796 83.122 153.964 84.4 153.964 80.728C153.964 79.216 155.386 77.974 157.582 77.974C159.76 77.974 161.2 79.144 161.308 81.07H159.67C159.598 80.08 158.842 79.36 157.528 79.36C156.322 79.36 155.602 79.936 155.602 80.728C155.602 83.068 161.326 81.79 161.398 85.318ZM164.07 85.3V79.486H162.792V78.136H164.07V75.652H165.708V78.136H168.282V79.486H165.708V85.3C165.708 86.272 166.068 86.614 167.076 86.614H168.282V88H166.806C165.06 88 164.07 87.28 164.07 85.3ZM175.426 85.3V79.486H174.148V78.136H175.426V75.652H177.064V78.136H179.638V79.486H177.064V85.3C177.064 86.272 177.424 86.614 178.432 86.614H179.638V88H178.162C176.416 88 175.426 87.28 175.426 85.3ZM190.982 83.05C190.982 86.182 188.732 88.162 185.924 88.162C183.134 88.162 181.01 86.182 181.01 83.05C181.01 79.936 183.206 77.974 185.996 77.974C188.804 77.974 190.982 79.936 190.982 83.05ZM182.684 83.05C182.684 85.552 184.214 86.722 185.924 86.722C187.634 86.722 189.308 85.552 189.308 83.05C189.308 80.566 187.67 79.396 185.978 79.396C184.25 79.396 182.684 80.566 182.684 83.05ZM199.573 79.972C200.203 78.874 201.517 77.974 203.263 77.974C205.927 77.974 207.943 79.954 207.943 83.032C207.943 86.092 205.909 88.162 203.263 88.162C201.463 88.162 200.185 87.262 199.573 86.182V88H197.935V74.68H199.573V79.972ZM206.269 83.032C206.269 80.71 204.739 79.396 202.921 79.396C201.139 79.396 199.573 80.764 199.573 83.05C199.573 85.372 201.139 86.722 202.921 86.722C204.739 86.722 206.269 85.354 206.269 83.032ZM219.459 83.05C219.459 86.182 217.209 88.162 214.401 88.162C211.611 88.162 209.487 86.182 209.487 83.05C209.487 79.936 211.683 77.974 214.473 77.974C217.281 77.974 219.459 79.936 219.459 83.05ZM211.161 83.05C211.161 85.552 212.691 86.722 214.401 86.722C216.111 86.722 217.785 85.552 217.785 83.05C217.785 80.566 216.147 79.396 214.455 79.396C212.727 79.396 211.161 80.566 211.161 83.05ZM230.973 83.05C230.973 86.182 228.723 88.162 225.915 88.162C223.125 88.162 221.001 86.182 221.001 83.05C221.001 79.936 223.197 77.974 225.987 77.974C228.795 77.974 230.973 79.936 230.973 83.05ZM222.675 83.05C222.675 85.552 224.205 86.722 225.915 86.722C227.625 86.722 229.299 85.552 229.299 83.05C229.299 80.566 227.661 79.396 225.969 79.396C224.241 79.396 222.675 80.566 222.675 83.05ZM240.218 85.318C240.218 86.938 238.796 88.162 236.618 88.162C234.314 88.162 232.694 86.902 232.586 85.102H234.278C234.368 86.056 235.214 86.776 236.6 86.776C237.896 86.776 238.616 86.128 238.616 85.318C238.616 83.122 232.784 84.4 232.784 80.728C232.784 79.216 234.206 77.974 236.402 77.974C238.58 77.974 240.02 79.144 240.128 81.07H238.49C238.418 80.08 237.662 79.36 236.348 79.36C235.142 79.36 234.422 79.936 234.422 80.728C234.422 83.068 240.146 81.79 240.218 85.318ZM242.891 85.3V79.486H241.613V78.136H242.891V75.652H244.529V78.136H247.103V79.486H244.529V85.3C244.529 86.272 244.889 86.614 245.897 86.614H247.103V88H245.627C243.881 88 242.891 87.28 242.891 85.3ZM257.63 86.128L260.69 78.136H262.382L256.442 92.644H254.75L256.694 87.892L252.716 78.136H254.534L257.63 86.128ZM273.389 83.05C273.389 86.182 271.139 88.162 268.331 88.162C265.541 88.162 263.417 86.182 263.417 83.05C263.417 79.936 265.613 77.974 268.403 77.974C271.211 77.974 273.389 79.936 273.389 83.05ZM265.091 83.05C265.091 85.552 266.621 86.722 268.331 86.722C270.041 86.722 271.715 85.552 271.715 83.05C271.715 80.566 270.077 79.396 268.385 79.396C266.657 79.396 265.091 80.566 265.091 83.05ZM284.29 78.136V88H282.652V86.542C282.022 87.568 280.816 88.144 279.502 88.144C277.234 88.144 275.452 86.74 275.452 83.914V78.136H277.072V83.698C277.072 85.696 278.17 86.722 279.826 86.722C281.518 86.722 282.652 85.678 282.652 83.554V78.136H284.29ZM288.694 82.636V88H287.056V78.136H288.694V79.738C289.252 78.64 290.314 77.956 291.88 77.956V79.648H291.448C289.882 79.648 288.694 80.35 288.694 82.636ZM44.024 103.972C44.654 102.874 45.968 101.974 47.714 101.974C50.378 101.974 52.394 103.954 52.394 107.032C52.394 110.092 50.36 112.162 47.714 112.162C45.914 112.162 44.636 111.262 44.024 110.182V112H42.386V98.68H44.024V103.972ZM50.72 107.032C50.72 104.71 49.19 103.396 47.372 103.396C45.59 103.396 44.024 104.764 44.024 107.05C44.024 109.372 45.59 110.722 47.372 110.722C49.19 110.722 50.72 109.354 50.72 107.032ZM63.2981 102.136V112H61.6601V110.542C61.0301 111.568 59.8241 112.144 58.5101 112.144C56.2421 112.144 54.4601 110.74 54.4601 107.914V102.136H56.0801V107.698C56.0801 109.696 57.1781 110.722 58.8341 110.722C60.5261 110.722 61.6601 109.678 61.6601 107.554V102.136H63.2981ZM73.1557 109.318C73.1557 110.938 71.7337 112.162 69.5557 112.162C67.2517 112.162 65.6317 110.902 65.5237 109.102H67.2157C67.3057 110.056 68.1517 110.776 69.5377 110.776C70.8337 110.776 71.5537 110.128 71.5537 109.318C71.5537 107.122 65.7217 108.4 65.7217 104.728C65.7217 103.216 67.1437 101.974 69.3397 101.974C71.5177 101.974 72.9577 103.144 73.0657 105.07H71.4277C71.3557 104.08 70.5997 103.36 69.2857 103.36C68.0797 103.36 67.3597 103.936 67.3597 104.728C67.3597 107.068 73.0837 105.79 73.1557 109.318ZM75.468 112V102.136H77.106V112H75.468ZM76.314 100.534C75.684 100.534 75.198 100.048 75.198 99.418C75.198 98.788 75.684 98.302 76.314 98.302C76.908 98.302 77.394 98.788 77.394 99.418C77.394 100.048 76.908 100.534 76.314 100.534ZM87.1157 112V106.42C87.1157 104.404 86.0177 103.378 84.3617 103.378C82.6877 103.378 81.5357 104.422 81.5357 106.546V112H79.8977V102.136H81.5357V103.54C82.1837 102.514 83.3717 101.956 84.7037 101.956C86.9897 101.956 88.7357 103.36 88.7357 106.186V112H87.1157ZM95.6054 103.36C94.0034 103.36 92.6714 104.422 92.4914 106.348H98.7194C98.7374 104.422 97.2974 103.36 95.6054 103.36ZM100.213 108.958C99.7094 110.758 98.1254 112.162 95.6774 112.162C92.8694 112.162 90.7994 110.182 90.7994 107.05C90.7994 103.936 92.7974 101.974 95.6774 101.974C98.5394 101.974 100.411 103.99 100.411 106.69C100.411 107.05 100.393 107.338 100.357 107.68H92.4734C92.5994 109.678 94.0034 110.776 95.6774 110.776C97.1534 110.776 98.0894 110.02 98.4494 108.958H100.213ZM109.666 109.318C109.666 110.938 108.244 112.162 106.066 112.162C103.762 112.162 102.142 110.902 102.034 109.102H103.726C103.816 110.056 104.662 110.776 106.048 110.776C107.344 110.776 108.064 110.128 108.064 109.318C108.064 107.122 102.232 108.4 102.232 104.728C102.232 103.216 103.654 101.974 105.85 101.974C108.028 101.974 109.468 103.144 109.576 105.07H107.938C107.866 104.08 107.11 103.36 105.796 103.36C104.59 103.36 103.87 103.936 103.87 104.728C103.87 107.068 109.594 105.79 109.666 109.318ZM119.07 109.318C119.07 110.938 117.648 112.162 115.47 112.162C113.166 112.162 111.546 110.902 111.438 109.102H113.13C113.22 110.056 114.066 110.776 115.452 110.776C116.748 110.776 117.468 110.128 117.468 109.318C117.468 107.122 111.636 108.4 111.636 104.728C111.636 103.216 113.058 101.974 115.254 101.974C117.432 101.974 118.872 103.144 118.98 105.07H117.342C117.27 104.08 116.514 103.36 115.2 103.36C113.994 103.36 113.274 103.936 113.274 104.728C113.274 107.068 118.998 105.79 119.07 109.318ZM130.375 103.36C128.773 103.36 127.441 104.422 127.261 106.348H133.489C133.507 104.422 132.067 103.36 130.375 103.36ZM134.983 108.958C134.479 110.758 132.895 112.162 130.447 112.162C127.639 112.162 125.569 110.182 125.569 107.05C125.569 103.936 127.567 101.974 130.447 101.974C133.309 101.974 135.181 103.99 135.181 106.69C135.181 107.05 135.163 107.338 135.127 107.68H127.243C127.369 109.678 128.773 110.776 130.447 110.776C131.923 110.776 132.859 110.02 133.219 108.958H134.983ZM144.561 112V106.42C144.561 104.404 143.463 103.378 141.807 103.378C140.133 103.378 138.981 104.422 138.981 106.546V112H137.343V102.136H138.981V103.54C139.629 102.514 140.817 101.956 142.149 101.956C144.435 101.956 146.181 103.36 146.181 106.186V112H144.561ZM148.245 107.032C148.245 103.954 150.279 101.974 152.925 101.974C154.725 101.974 156.021 102.874 156.597 103.936V102.136H158.253V112.216C158.253 114.934 156.435 116.86 153.537 116.86C150.945 116.86 149.091 115.546 148.767 113.44H150.387C150.747 114.628 151.917 115.438 153.537 115.438C155.283 115.438 156.597 114.322 156.597 112.216V110.146C156.003 111.208 154.725 112.162 152.925 112.162C150.279 112.162 148.245 110.092 148.245 107.032ZM156.597 107.05C156.597 104.764 155.049 103.396 153.249 103.396C151.449 103.396 149.919 104.71 149.919 107.032C149.919 109.354 151.449 110.722 153.249 110.722C155.049 110.722 156.597 109.372 156.597 107.05ZM160.409 107.032C160.409 103.954 162.443 101.974 165.089 101.974C166.925 101.974 168.185 102.91 168.761 103.936V102.136H170.417V112H168.761V110.164C168.167 111.226 166.889 112.162 165.071 112.162C162.443 112.162 160.409 110.092 160.409 107.032ZM168.761 107.05C168.761 104.764 167.213 103.396 165.413 103.396C163.613 103.396 162.083 104.71 162.083 107.032C162.083 109.354 163.613 110.722 165.413 110.722C167.213 110.722 168.761 109.372 168.761 107.05ZM172.573 107.032C172.573 103.954 174.607 101.974 177.253 101.974C179.053 101.974 180.349 102.874 180.925 103.936V102.136H182.581V112.216C182.581 114.934 180.763 116.86 177.865 116.86C175.273 116.86 173.419 115.546 173.095 113.44H174.715C175.075 114.628 176.245 115.438 177.865 115.438C179.611 115.438 180.925 114.322 180.925 112.216V110.146C180.331 111.208 179.053 112.162 177.253 112.162C174.607 112.162 172.573 110.092 172.573 107.032ZM180.925 107.05C180.925 104.764 179.377 103.396 177.577 103.396C175.777 103.396 174.247 104.71 174.247 107.032C174.247 109.354 175.777 110.722 177.577 110.722C179.377 110.722 180.925 109.372 180.925 107.05ZM189.543 103.36C187.941 103.36 186.609 104.422 186.429 106.348H192.657C192.675 104.422 191.235 103.36 189.543 103.36ZM194.151 108.958C193.647 110.758 192.063 112.162 189.615 112.162C186.807 112.162 184.737 110.182 184.737 107.05C184.737 103.936 186.735 101.974 189.615 101.974C192.477 101.974 194.349 103.99 194.349 106.69C194.349 107.05 194.331 107.338 194.295 107.68H186.411C186.537 109.678 187.941 110.776 189.615 110.776C191.091 110.776 192.027 110.02 192.387 108.958H194.151ZM210.749 112V106.42C210.749 104.404 209.669 103.378 208.049 103.378C206.393 103.378 205.259 104.44 205.259 106.564V112H203.639V106.42C203.639 104.404 202.559 103.378 200.939 103.378C199.283 103.378 198.149 104.44 198.149 106.564V112H196.511V102.136H198.149V103.558C198.797 102.514 199.967 101.956 201.263 101.956C202.883 101.956 204.233 102.676 204.881 104.152C205.457 102.73 206.861 101.956 208.373 101.956C210.623 101.956 212.369 103.36 212.369 106.186V112H210.749ZM219.25 103.36C217.648 103.36 216.316 104.422 216.136 106.348H222.364C222.382 104.422 220.942 103.36 219.25 103.36ZM223.858 108.958C223.354 110.758 221.77 112.162 219.322 112.162C216.514 112.162 214.444 110.182 214.444 107.05C214.444 103.936 216.442 101.974 219.322 101.974C222.184 101.974 224.056 103.99 224.056 106.69C224.056 107.05 224.038 107.338 224.002 107.68H216.118C216.244 109.678 217.648 110.776 219.322 110.776C220.798 110.776 221.734 110.02 222.094 108.958H223.858ZM233.436 112V106.42C233.436 104.404 232.338 103.378 230.682 103.378C229.008 103.378 227.856 104.422 227.856 106.546V112H226.218V102.136H227.856V103.54C228.504 102.514 229.692 101.956 231.024 101.956C233.31 101.956 235.056 103.36 235.056 106.186V112H233.436ZM238.092 109.3V103.486H236.814V102.136H238.092V99.652H239.73V102.136H242.304V103.486H239.73V109.3C239.73 110.272 240.09 110.614 241.098 110.614H242.304V112H240.828C239.082 112 238.092 111.28 238.092 109.3Z" fill="#595959"/>
<rect x="329" y="34" width="60" height="30" rx="15" fill="white"/>
<path d="M362 49C362 55.6274 367.373 61 374 61C380.627 61 386 55.6274 386 49C386 42.3726 380.627 37 374 37C367.373 37 362 42.3726 362 49Z" fill="url(#paint0_linear_1043_1356)"/>
<rect x="31" y="143" width="347" height="51" rx="9" fill="white"/>
<path d="M91.688 169.416C91.688 168.328 91.9333 167.352 92.424 166.488C92.9147 165.613 93.5813 164.931 94.424 164.44C95.2773 163.949 96.2213 163.704 97.256 163.704C98.472 163.704 99.5333 163.997 100.44 164.584C101.347 165.171 102.008 166.003 102.424 167.08H100.68C100.371 166.408 99.9227 165.891 99.336 165.528C98.76 165.165 98.0667 164.984 97.256 164.984C96.4773 164.984 95.7787 165.165 95.16 165.528C94.5413 165.891 94.056 166.408 93.704 167.08C93.352 167.741 93.176 168.52 93.176 169.416C93.176 170.301 93.352 171.08 93.704 171.752C94.056 172.413 94.5413 172.925 95.16 173.288C95.7787 173.651 96.4773 173.832 97.256 173.832C98.0667 173.832 98.76 173.656 99.336 173.304C99.9227 172.941 100.371 172.424 100.68 171.752H102.424C102.008 172.819 101.347 173.645 100.44 174.232C99.5333 174.808 98.472 175.096 97.256 175.096C96.2213 175.096 95.2773 174.856 94.424 174.376C93.5813 173.885 92.9147 173.208 92.424 172.344C91.9333 171.48 91.688 170.504 91.688 169.416ZM108.415 175.144C107.594 175.144 106.847 174.957 106.175 174.584C105.514 174.211 104.991 173.683 104.607 173C104.234 172.307 104.047 171.507 104.047 170.6C104.047 169.704 104.239 168.915 104.623 168.232C105.018 167.539 105.551 167.011 106.223 166.648C106.895 166.275 107.647 166.088 108.479 166.088C109.311 166.088 110.063 166.275 110.735 166.648C111.407 167.011 111.935 167.533 112.319 168.216C112.714 168.899 112.911 169.693 112.911 170.6C112.911 171.507 112.709 172.307 112.303 173C111.909 173.683 111.37 174.211 110.687 174.584C110.005 174.957 109.247 175.144 108.415 175.144ZM108.415 173.864C108.938 173.864 109.429 173.741 109.887 173.496C110.346 173.251 110.714 172.883 110.991 172.392C111.279 171.901 111.423 171.304 111.423 170.6C111.423 169.896 111.285 169.299 111.007 168.808C110.73 168.317 110.367 167.955 109.919 167.72C109.471 167.475 108.986 167.352 108.463 167.352C107.93 167.352 107.439 167.475 106.991 167.72C106.554 167.955 106.202 168.317 105.935 168.808C105.669 169.299 105.535 169.896 105.535 170.6C105.535 171.315 105.663 171.917 105.919 172.408C106.186 172.899 106.538 173.267 106.975 173.512C107.413 173.747 107.893 173.864 108.415 173.864ZM119.098 166.072C120.164 166.072 121.028 166.397 121.69 167.048C122.351 167.688 122.682 168.616 122.682 169.832V175H121.242V170.04C121.242 169.165 121.023 168.499 120.586 168.04C120.148 167.571 119.551 167.336 118.794 167.336C118.026 167.336 117.412 167.576 116.954 168.056C116.506 168.536 116.282 169.235 116.282 170.152V175H114.826V166.232H116.282V167.48C116.57 167.032 116.959 166.685 117.45 166.44C117.951 166.195 118.5 166.072 119.098 166.072ZM128.628 167.432H126.788V175H125.332V167.432H124.196V166.232H125.332V165.608C125.332 164.627 125.583 163.912 126.084 163.464C126.596 163.005 127.412 162.776 128.532 162.776V163.992C127.892 163.992 127.439 164.12 127.172 164.376C126.916 164.621 126.788 165.032 126.788 165.608V166.232H128.628V167.432ZM131.078 164.808C130.8 164.808 130.566 164.712 130.374 164.52C130.182 164.328 130.086 164.093 130.086 163.816C130.086 163.539 130.182 163.304 130.374 163.112C130.566 162.92 130.8 162.824 131.078 162.824C131.344 162.824 131.568 162.92 131.75 163.112C131.942 163.304 132.038 163.539 132.038 163.816C132.038 164.093 131.942 164.328 131.75 164.52C131.568 164.712 131.344 164.808 131.078 164.808ZM131.782 166.232V175H130.326V166.232H131.782ZM137.879 166.088C138.637 166.088 139.298 166.253 139.863 166.584C140.439 166.915 140.866 167.331 141.143 167.832V166.232H142.615V175.192C142.615 175.992 142.445 176.701 142.103 177.32C141.762 177.949 141.271 178.44 140.631 178.792C140.002 179.144 139.266 179.32 138.423 179.32C137.271 179.32 136.311 179.048 135.543 178.504C134.775 177.96 134.322 177.219 134.183 176.28H135.623C135.783 176.813 136.114 177.24 136.615 177.56C137.117 177.891 137.719 178.056 138.423 178.056C139.223 178.056 139.874 177.805 140.375 177.304C140.887 176.803 141.143 176.099 141.143 175.192V173.352C140.855 173.864 140.429 174.291 139.863 174.632C139.298 174.973 138.637 175.144 137.879 175.144C137.101 175.144 136.391 174.952 135.751 174.568C135.122 174.184 134.626 173.645 134.263 172.952C133.901 172.259 133.719 171.469 133.719 170.584C133.719 169.688 133.901 168.904 134.263 168.232C134.626 167.549 135.122 167.021 135.751 166.648C136.391 166.275 137.101 166.088 137.879 166.088ZM141.143 170.6C141.143 169.939 141.01 169.363 140.743 168.872C140.477 168.381 140.114 168.008 139.655 167.752C139.207 167.485 138.711 167.352 138.167 167.352C137.623 167.352 137.127 167.48 136.679 167.736C136.231 167.992 135.874 168.365 135.607 168.856C135.341 169.347 135.207 169.923 135.207 170.584C135.207 171.256 135.341 171.843 135.607 172.344C135.874 172.835 136.231 173.213 136.679 173.48C137.127 173.736 137.623 173.864 138.167 173.864C138.711 173.864 139.207 173.736 139.655 173.48C140.114 173.213 140.477 172.835 140.743 172.344C141.01 171.843 141.143 171.261 141.143 170.6ZM152.852 166.232V175H151.396V173.704C151.118 174.152 150.729 174.504 150.228 174.76C149.737 175.005 149.193 175.128 148.596 175.128C147.913 175.128 147.3 174.989 146.756 174.712C146.212 174.424 145.78 173.997 145.46 173.432C145.15 172.867 144.996 172.179 144.996 171.368V166.232H146.436V171.176C146.436 172.04 146.654 172.707 147.092 173.176C147.529 173.635 148.126 173.864 148.884 173.864C149.662 173.864 150.276 173.624 150.724 173.144C151.172 172.664 151.396 171.965 151.396 171.048V166.232H152.852ZM156.766 167.656C157.022 167.155 157.385 166.765 157.854 166.488C158.334 166.211 158.915 166.072 159.598 166.072V167.576H159.214C157.582 167.576 156.766 168.461 156.766 170.232V175H155.31V166.232H156.766V167.656ZM169.279 170.28C169.279 170.557 169.263 170.851 169.231 171.16H162.223C162.276 172.024 162.57 172.701 163.103 173.192C163.647 173.672 164.303 173.912 165.071 173.912C165.7 173.912 166.223 173.768 166.639 173.48C167.066 173.181 167.364 172.787 167.535 172.296H169.103C168.868 173.139 168.399 173.827 167.695 174.36C166.991 174.883 166.116 175.144 165.071 175.144C164.239 175.144 163.492 174.957 162.831 174.584C162.18 174.211 161.668 173.683 161.295 173C160.922 172.307 160.735 171.507 160.735 170.6C160.735 169.693 160.916 168.899 161.279 168.216C161.642 167.533 162.148 167.011 162.799 166.648C163.46 166.275 164.218 166.088 165.071 166.088C165.903 166.088 166.639 166.269 167.279 166.632C167.919 166.995 168.41 167.496 168.751 168.136C169.103 168.765 169.279 169.48 169.279 170.28ZM167.775 169.976C167.775 169.421 167.652 168.947 167.407 168.552C167.162 168.147 166.826 167.843 166.399 167.64C165.983 167.427 165.519 167.32 165.007 167.32C164.271 167.32 163.642 167.555 163.119 168.024C162.607 168.493 162.314 169.144 162.239 169.976H167.775ZM181.338 175L178.682 170.44H176.922V175H175.466V163.848H179.066C179.909 163.848 180.618 163.992 181.194 164.28C181.781 164.568 182.218 164.957 182.506 165.448C182.794 165.939 182.938 166.499 182.938 167.128C182.938 167.896 182.714 168.573 182.266 169.16C181.829 169.747 181.168 170.136 180.282 170.328L183.082 175H181.338ZM176.922 169.272H179.066C179.856 169.272 180.448 169.08 180.842 168.696C181.237 168.301 181.434 167.779 181.434 167.128C181.434 166.467 181.237 165.955 180.842 165.592C180.458 165.229 179.866 165.048 179.066 165.048H176.922V169.272ZM193.201 170.28C193.201 170.557 193.185 170.851 193.153 171.16H186.145C186.198 172.024 186.491 172.701 187.025 173.192C187.569 173.672 188.225 173.912 188.993 173.912C189.622 173.912 190.145 173.768 190.561 173.48C190.987 173.181 191.286 172.787 191.457 172.296H193.025C192.79 173.139 192.321 173.827 191.617 174.36C190.913 174.883 190.038 175.144 188.993 175.144C188.161 175.144 187.414 174.957 186.753 174.584C186.102 174.211 185.59 173.683 185.217 173C184.843 172.307 184.657 171.507 184.657 170.6C184.657 169.693 184.838 168.899 185.201 168.216C185.563 167.533 186.07 167.011 186.721 166.648C187.382 166.275 188.139 166.088 188.993 166.088C189.825 166.088 190.561 166.269 191.201 166.632C191.841 166.995 192.331 167.496 192.673 168.136C193.025 168.765 193.201 169.48 193.201 170.28ZM191.697 169.976C191.697 169.421 191.574 168.947 191.329 168.552C191.083 168.147 190.747 167.843 190.321 167.64C189.905 167.427 189.441 167.32 188.929 167.32C188.193 167.32 187.563 167.555 187.041 168.024C186.529 168.493 186.235 169.144 186.161 169.976H191.697ZM196.579 167.848C196.867 167.347 197.293 166.931 197.859 166.6C198.435 166.259 199.101 166.088 199.859 166.088C200.637 166.088 201.341 166.275 201.971 166.648C202.611 167.021 203.112 167.549 203.475 168.232C203.837 168.904 204.019 169.688 204.019 170.584C204.019 171.469 203.837 172.259 203.475 172.952C203.112 173.645 202.611 174.184 201.971 174.568C201.341 174.952 200.637 175.144 199.859 175.144C199.112 175.144 198.451 174.979 197.875 174.648C197.309 174.307 196.877 173.885 196.579 173.384V179.16H195.123V166.232H196.579V167.848ZM202.531 170.584C202.531 169.923 202.397 169.347 202.131 168.856C201.864 168.365 201.501 167.992 201.043 167.736C200.595 167.48 200.099 167.352 199.555 167.352C199.021 167.352 198.525 167.485 198.067 167.752C197.619 168.008 197.256 168.387 196.979 168.888C196.712 169.379 196.579 169.949 196.579 170.6C196.579 171.261 196.712 171.843 196.979 172.344C197.256 172.835 197.619 173.213 198.067 173.48C198.525 173.736 199.021 173.864 199.555 173.864C200.099 173.864 200.595 173.736 201.043 173.48C201.501 173.213 201.864 172.835 202.131 172.344C202.397 171.843 202.531 171.256 202.531 170.584ZM209.759 175.144C208.938 175.144 208.191 174.957 207.519 174.584C206.858 174.211 206.335 173.683 205.951 173C205.578 172.307 205.391 171.507 205.391 170.6C205.391 169.704 205.583 168.915 205.967 168.232C206.362 167.539 206.895 167.011 207.567 166.648C208.239 166.275 208.991 166.088 209.823 166.088C210.655 166.088 211.407 166.275 212.079 166.648C212.751 167.011 213.279 167.533 213.663 168.216C214.058 168.899 214.255 169.693 214.255 170.6C214.255 171.507 214.052 172.307 213.647 173C213.252 173.683 212.714 174.211 212.031 174.584C211.348 174.957 210.591 175.144 209.759 175.144ZM209.759 173.864C210.282 173.864 210.772 173.741 211.231 173.496C211.69 173.251 212.058 172.883 212.335 172.392C212.623 171.901 212.767 171.304 212.767 170.6C212.767 169.896 212.628 169.299 212.351 168.808C212.074 168.317 211.711 167.955 211.263 167.72C210.815 167.475 210.33 167.352 209.807 167.352C209.274 167.352 208.783 167.475 208.335 167.72C207.898 167.955 207.546 168.317 207.279 168.808C207.012 169.299 206.879 169.896 206.879 170.6C206.879 171.315 207.007 171.917 207.263 172.408C207.53 172.899 207.882 173.267 208.319 173.512C208.756 173.747 209.236 173.864 209.759 173.864ZM219.274 175.144C218.602 175.144 217.999 175.032 217.466 174.808C216.932 174.573 216.511 174.253 216.202 173.848C215.892 173.432 215.722 172.957 215.69 172.424H217.194C217.236 172.861 217.439 173.219 217.802 173.496C218.175 173.773 218.66 173.912 219.258 173.912C219.812 173.912 220.25 173.789 220.57 173.544C220.89 173.299 221.05 172.989 221.05 172.616C221.05 172.232 220.879 171.949 220.538 171.768C220.196 171.576 219.668 171.389 218.954 171.208C218.303 171.037 217.77 170.867 217.354 170.696C216.948 170.515 216.596 170.253 216.298 169.912C216.01 169.56 215.866 169.101 215.866 168.536C215.866 168.088 215.999 167.677 216.266 167.304C216.532 166.931 216.911 166.637 217.402 166.424C217.892 166.2 218.452 166.088 219.082 166.088C220.052 166.088 220.836 166.333 221.434 166.824C222.031 167.315 222.351 167.987 222.394 168.84H220.938C220.906 168.381 220.719 168.013 220.378 167.736C220.047 167.459 219.599 167.32 219.034 167.32C218.511 167.32 218.095 167.432 217.786 167.656C217.476 167.88 217.322 168.173 217.322 168.536C217.322 168.824 217.412 169.064 217.594 169.256C217.786 169.437 218.02 169.587 218.298 169.704C218.586 169.811 218.98 169.933 219.482 170.072C220.111 170.243 220.623 170.413 221.018 170.584C221.412 170.744 221.748 170.989 222.026 171.32C222.314 171.651 222.463 172.083 222.474 172.616C222.474 173.096 222.34 173.528 222.074 173.912C221.807 174.296 221.428 174.6 220.938 174.824C220.458 175.037 219.903 175.144 219.274 175.144ZM226.305 167.432V172.6C226.305 173.027 226.396 173.331 226.577 173.512C226.758 173.683 227.073 173.768 227.521 173.768H228.593V175H227.281C226.47 175 225.862 174.813 225.457 174.44C225.052 174.067 224.849 173.453 224.849 172.6V167.432H223.713V166.232H224.849V164.024H226.305V166.232H228.593V167.432H226.305ZM238.159 175.112C237.423 175.112 236.761 174.984 236.175 174.728C235.599 174.461 235.145 174.099 234.815 173.64C234.484 173.171 234.313 172.632 234.303 172.024H235.855C235.908 172.547 236.121 172.989 236.495 173.352C236.879 173.704 237.433 173.88 238.159 173.88C238.852 173.88 239.396 173.709 239.791 173.368C240.196 173.016 240.399 172.568 240.399 172.024C240.399 171.597 240.281 171.251 240.047 170.984C239.812 170.717 239.519 170.515 239.167 170.376C238.815 170.237 238.34 170.088 237.743 169.928C237.007 169.736 236.415 169.544 235.967 169.352C235.529 169.16 235.151 168.861 234.831 168.456C234.521 168.04 234.367 167.485 234.367 166.792C234.367 166.184 234.521 165.645 234.831 165.176C235.14 164.707 235.572 164.344 236.127 164.088C236.692 163.832 237.337 163.704 238.063 163.704C239.108 163.704 239.961 163.965 240.623 164.488C241.295 165.011 241.673 165.704 241.759 166.568H240.159C240.105 166.141 239.881 165.768 239.487 165.448C239.092 165.117 238.569 164.952 237.919 164.952C237.311 164.952 236.815 165.112 236.431 165.432C236.047 165.741 235.855 166.179 235.855 166.744C235.855 167.149 235.967 167.48 236.191 167.736C236.425 167.992 236.708 168.189 237.039 168.328C237.38 168.456 237.855 168.605 238.463 168.776C239.199 168.979 239.791 169.181 240.239 169.384C240.687 169.576 241.071 169.88 241.391 170.296C241.711 170.701 241.871 171.256 241.871 171.96C241.871 172.504 241.727 173.016 241.439 173.496C241.151 173.976 240.724 174.365 240.159 174.664C239.593 174.963 238.927 175.112 238.159 175.112ZM243.469 170.6C243.469 169.693 243.651 168.904 244.013 168.232C244.376 167.549 244.877 167.021 245.517 166.648C246.168 166.275 246.909 166.088 247.741 166.088C248.819 166.088 249.704 166.349 250.397 166.872C251.101 167.395 251.565 168.12 251.789 169.048H250.221C250.072 168.515 249.779 168.093 249.341 167.784C248.915 167.475 248.381 167.32 247.741 167.32C246.909 167.32 246.237 167.608 245.725 168.184C245.213 168.749 244.957 169.555 244.957 170.6C244.957 171.656 245.213 172.472 245.725 173.048C246.237 173.624 246.909 173.912 247.741 173.912C248.381 173.912 248.915 173.763 249.341 173.464C249.768 173.165 250.061 172.739 250.221 172.184H251.789C251.555 173.08 251.085 173.8 250.381 174.344C249.677 174.877 248.797 175.144 247.741 175.144C246.909 175.144 246.168 174.957 245.517 174.584C244.877 174.211 244.376 173.683 244.013 173C243.651 172.317 243.469 171.517 243.469 170.6ZM258.084 166.072C258.745 166.072 259.343 166.216 259.876 166.504C260.409 166.781 260.825 167.203 261.124 167.768C261.433 168.333 261.588 169.021 261.588 169.832V175H260.148V170.04C260.148 169.165 259.929 168.499 259.492 168.04C259.055 167.571 258.457 167.336 257.7 167.336C256.932 167.336 256.319 167.576 255.86 168.056C255.412 168.536 255.188 169.235 255.188 170.152V175H253.732V163.16H255.188V167.48C255.476 167.032 255.871 166.685 256.372 166.44C256.884 166.195 257.455 166.072 258.084 166.072ZM271.966 170.28C271.966 170.557 271.95 170.851 271.918 171.16H264.91C264.964 172.024 265.257 172.701 265.79 173.192C266.334 173.672 266.99 173.912 267.758 173.912C268.388 173.912 268.91 173.768 269.326 173.48C269.753 173.181 270.052 172.787 270.222 172.296H271.79C271.556 173.139 271.086 173.827 270.382 174.36C269.678 174.883 268.804 175.144 267.758 175.144C266.926 175.144 266.18 174.957 265.518 174.584C264.868 174.211 264.356 173.683 263.982 173C263.609 172.307 263.422 171.507 263.422 170.6C263.422 169.693 263.604 168.899 263.966 168.216C264.329 167.533 264.836 167.011 265.486 166.648C266.148 166.275 266.905 166.088 267.758 166.088C268.59 166.088 269.326 166.269 269.966 166.632C270.606 166.995 271.097 167.496 271.438 168.136C271.79 168.765 271.966 169.48 271.966 170.28ZM270.462 169.976C270.462 169.421 270.34 168.947 270.094 168.552C269.849 168.147 269.513 167.843 269.086 167.64C268.67 167.427 268.206 167.32 267.694 167.32C266.958 167.32 266.329 167.555 265.806 168.024C265.294 168.493 265.001 169.144 264.926 169.976H270.462ZM273.344 170.584C273.344 169.688 273.526 168.904 273.888 168.232C274.251 167.549 274.747 167.021 275.376 166.648C276.016 166.275 276.731 166.088 277.52 166.088C278.203 166.088 278.838 166.248 279.424 166.568C280.011 166.877 280.459 167.288 280.768 167.8V163.16H282.24V175H280.768V173.352C280.48 173.875 280.054 174.307 279.488 174.648C278.923 174.979 278.262 175.144 277.504 175.144C276.726 175.144 276.016 174.952 275.376 174.568C274.747 174.184 274.251 173.645 273.888 172.952C273.526 172.259 273.344 171.469 273.344 170.584ZM280.768 170.6C280.768 169.939 280.635 169.363 280.368 168.872C280.102 168.381 279.739 168.008 279.28 167.752C278.832 167.485 278.336 167.352 277.792 167.352C277.248 167.352 276.752 167.48 276.304 167.736C275.856 167.992 275.499 168.365 275.232 168.856C274.966 169.347 274.832 169.923 274.832 170.584C274.832 171.256 274.966 171.843 275.232 172.344C275.499 172.835 275.856 173.213 276.304 173.48C276.752 173.736 277.248 173.864 277.792 173.864C278.336 173.864 278.832 173.736 279.28 173.48C279.739 173.213 280.102 172.835 280.368 172.344C280.635 171.843 280.768 171.261 280.768 170.6ZM292.477 166.232V175H291.021V173.704C290.743 174.152 290.354 174.504 289.853 174.76C289.362 175.005 288.818 175.128 288.221 175.128C287.538 175.128 286.925 174.989 286.381 174.712C285.837 174.424 285.405 173.997 285.085 173.432C284.775 172.867 284.621 172.179 284.621 171.368V166.232H286.061V171.176C286.061 172.04 286.279 172.707 286.717 173.176C287.154 173.635 287.751 173.864 288.509 173.864C289.287 173.864 289.901 173.624 290.349 173.144C290.797 172.664 291.021 171.965 291.021 171.048V166.232H292.477ZM296.391 163.16V175H294.935V163.16H296.391ZM306.873 170.28C306.873 170.557 306.857 170.851 306.825 171.16H299.817C299.87 172.024 300.163 172.701 300.697 173.192C301.241 173.672 301.897 173.912 302.665 173.912C303.294 173.912 303.817 173.768 304.233 173.48C304.659 173.181 304.958 172.787 305.129 172.296H306.697C306.462 173.139 305.993 173.827 305.289 174.36C304.585 174.883 303.71 175.144 302.665 175.144C301.833 175.144 301.086 174.957 300.425 174.584C299.774 174.211 299.262 173.683 298.889 173C298.515 172.307 298.329 171.507 298.329 170.6C298.329 169.693 298.51 168.899 298.873 168.216C299.235 167.533 299.742 167.011 300.393 166.648C301.054 166.275 301.811 166.088 302.665 166.088C303.497 166.088 304.233 166.269 304.873 166.632C305.513 166.995 306.003 167.496 306.345 168.136C306.697 168.765 306.873 169.48 306.873 170.28ZM305.369 169.976C305.369 169.421 305.246 168.947 305.001 168.552C304.755 168.147 304.419 167.843 303.993 167.64C303.577 167.427 303.113 167.32 302.601 167.32C301.865 167.32 301.235 167.555 300.713 168.024C300.201 168.493 299.907 169.144 299.833 169.976H305.369Z" fill="black"/>
</g>
<rect x="0.203883" y="0.203883" width="409.592" height="274.592" rx="7.95146" stroke="#EAEAEA" stroke-width="0.407767"/>
<defs>
<filter id="filter0_f_1043_1356" x="-21.6602" y="-361.66" width="722.32" height="722.32" filterUnits="userSpaceOnUse" color-interpolation-filters="sRGB">
<feFlood flood-opacity="0" result="BackgroundImageFix"/>
<feBlend mode="normal" in="SourceGraphic" in2="BackgroundImageFix" result="shape"/>
<feGaussianBlur stdDeviation="122.33" result="effect1_foregroundBlur_1043_1356"/>
</filter>
<filter id="filter1_f_1043_1356" x="-284.66" y="-139.66" width="739.32" height="739.32" filterUnits="userSpaceOnUse" color-interpolation-filters="sRGB">
<feFlood flood-opacity="0" result="BackgroundImageFix"/>
<feBlend mode="normal" in="SourceGraphic" in2="BackgroundImageFix" result="shape"/>
<feGaussianBlur stdDeviation="122.33" result="effect1_foregroundBlur_1043_1356"/>
</filter>
<linearGradient id="paint0_linear_1043_1356" x1="362" y1="49.0101" x2="385.997" y2="49.0101" gradientUnits="userSpaceOnUse">
<stop stop-color="#0000FF"/>
<stop offset="0.49" stop-color="#8F00FF"/>
<stop offset="1" stop-color="#FF1494"/>
</linearGradient>
<clipPath id="clip0_1043_1356">
<rect width="410" height="275" rx="8.15534" fill="white"/>
</clipPath>
<clipPath id="clip1_1043_1356">
<rect width="27" height="27" fill="white" transform="translate(177 222)"/>
</clipPath>
</defs>
</svg>
