<svg width="410" height="275" viewBox="0 0 410 275" fill="none" xmlns="http://www.w3.org/2000/svg">
<g clip-path="url(#clip0_1043_1323)">
<rect width="410.214" height="275.243" rx="8.15534" fill="white"/>
<g opacity="0.2" filter="url(#filter0_f_1043_1323)">
<circle cx="339.5" cy="-0.5" r="116.5" fill="#FF1494"/>
</g>
<g filter="url(#filter1_f_1043_1323)">
<circle cx="85" cy="230" r="125" fill="#0000FF" fill-opacity="0.15"/>
</g>
<path d="M221.232 229.832V231.032H216.688V234.76H220.752V235.96H216.688V239.8H221.232V241H215.232V229.832H221.232ZM222.891 236.584C222.891 233.848 224.699 232.088 227.067 232.088C228.443 232.088 229.707 232.792 230.315 233.8V229.16H231.787V241H230.315V239.352C229.787 240.328 228.651 241.144 227.051 241.144C224.699 241.144 222.891 239.304 222.891 236.584ZM230.315 236.6C230.315 234.568 228.939 233.352 227.339 233.352C225.739 233.352 224.379 234.52 224.379 236.584C224.379 238.648 225.739 239.864 227.339 239.864C228.939 239.864 230.315 238.664 230.315 236.6ZM234.248 241V232.232H235.704V241H234.248ZM235 230.808C234.44 230.808 234.008 230.376 234.008 229.816C234.008 229.256 234.44 228.824 235 228.824C235.528 228.824 235.96 229.256 235.96 229.816C235.96 230.376 235.528 230.808 235 230.808ZM238.505 238.6V233.432H237.369V232.232H238.505V230.024H239.961V232.232H242.249V233.432H239.961V238.6C239.961 239.464 240.281 239.768 241.177 239.768H242.249V241H240.937C239.385 241 238.505 240.36 238.505 238.6Z" fill="#8F00FF"/>
<g clip-path="url(#clip1_1043_1323)">
<path d="M201.92 238.961C201.549 238.961 201.247 239.262 201.247 239.634V245.604C201.246 246.718 200.344 247.62 199.23 247.621H180.362C179.248 247.62 178.346 246.718 178.345 245.604V228.081C178.346 226.967 179.248 226.065 180.362 226.064H186.333C186.704 226.064 187.005 225.763 187.005 225.391C187.005 225.02 186.704 224.719 186.333 224.719H180.362C178.506 224.721 177.002 226.225 177 228.081V245.604C177.002 247.46 178.506 248.964 180.362 248.967H199.23C201.086 248.964 202.59 247.46 202.592 245.604V239.634C202.592 239.262 202.291 238.961 201.92 238.961Z" fill="#8F00FF"/>
<path d="M202.326 222.988C201.145 221.806 199.229 221.806 198.047 222.988L186.05 234.985C185.968 235.067 185.909 235.169 185.878 235.281L184.3 240.976C184.235 241.21 184.301 241.46 184.472 241.631C184.644 241.803 184.894 241.868 185.127 241.804L190.823 240.226C190.935 240.195 191.037 240.136 191.119 240.053L203.115 228.056C204.295 226.874 204.295 224.959 203.115 223.777L202.326 222.988ZM187.515 235.422L197.334 225.603L200.5 228.77L190.682 238.588L187.515 235.422ZM186.883 236.691L189.413 239.221L185.913 240.191L186.883 236.691ZM202.165 227.106L201.451 227.819L198.285 224.652L198.998 223.939C199.654 223.282 200.719 223.282 201.375 223.939L202.165 224.728C202.82 225.385 202.82 226.449 202.165 227.106Z" fill="#8F00FF"/>
</g>
<path d="M51.88 53L50.88 50.16H45.06L44.06 53H41.68L46.66 39.08H49.3L54.28 53H51.88ZM50.24 48.3L47.98 41.84L45.7 48.3H50.24ZM66.4253 41.98V53H64.1453V51.68C63.4253 52.62 62.1853 53.16 60.8853 53.16C58.3053 53.16 56.3453 51.54 56.3453 48.46V41.98H58.6053V48.12C58.6053 50.14 59.7053 51.18 61.3653 51.18C63.0453 51.18 64.1453 50.14 64.1453 48.12V41.98H66.4253ZM69.7936 49.94V43.84H68.4936V41.98H69.7936V39.24H72.0936V41.98H74.7736V43.84H72.0936V49.94C72.0936 50.76 72.4136 51.1 73.3736 51.1H74.7736V53H72.9736C71.0136 53 69.7936 52.18 69.7936 49.94ZM87.375 47.48C87.375 50.94 84.815 53.18 81.655 53.18C78.515 53.18 76.135 50.94 76.135 47.48C76.135 44.02 78.615 41.8 81.755 41.8C84.895 41.8 87.375 44.02 87.375 47.48ZM78.455 47.48C78.455 49.98 79.935 51.2 81.655 51.2C83.355 51.2 85.035 49.98 85.035 47.48C85.035 44.98 83.415 43.78 81.715 43.78C79.995 43.78 78.455 44.98 78.455 47.48ZM105.249 53V46.84C105.249 44.82 104.149 43.78 102.489 43.78C100.809 43.78 99.7089 44.82 99.7089 46.84V53H97.4489V46.84C97.4489 44.82 96.3489 43.78 94.6889 43.78C93.0089 43.78 91.9089 44.82 91.9089 46.84V53H89.6289V41.98H91.9089V43.24C92.6489 42.34 93.8489 41.8 95.1689 41.8C96.9089 41.8 98.3689 42.54 99.1289 43.98C99.8089 42.64 101.369 41.8 102.969 41.8C105.549 41.8 107.509 43.42 107.509 46.5V53H105.249ZM109.65 47.44C109.65 44.04 111.95 41.8 114.85 41.8C116.71 41.8 117.99 42.68 118.67 43.58V41.98H120.97V53H118.67V51.36C117.97 52.3 116.65 53.18 114.81 53.18C111.95 53.18 109.65 50.84 109.65 47.44ZM118.67 47.48C118.67 45.12 117.05 43.78 115.33 43.78C113.63 43.78 111.99 45.06 111.99 47.44C111.99 49.82 113.63 51.2 115.33 51.2C117.05 51.2 118.67 49.86 118.67 47.48ZM124.325 49.94V43.84H123.025V41.98H124.325V39.24H126.625V41.98H129.305V43.84H126.625V49.94C126.625 50.76 126.945 51.1 127.905 51.1H129.305V53H127.505C125.545 53 124.325 52.18 124.325 49.94ZM136.046 43.72C134.506 43.72 133.266 44.76 133.026 46.5H139.126C139.086 44.8 137.746 43.72 136.046 43.72ZM141.206 49.72C140.586 51.64 138.846 53.18 136.146 53.18C132.986 53.18 130.646 50.94 130.646 47.48C130.646 44.02 132.886 41.8 136.146 41.8C139.286 41.8 141.506 43.98 141.506 47.22C141.506 47.6 141.486 47.96 141.426 48.34H133.006C133.166 50.16 134.466 51.26 136.146 51.26C137.546 51.26 138.326 50.58 138.746 49.72H141.206ZM142.99 47.44C142.99 44.04 145.29 41.8 148.21 41.8C149.65 41.8 151.17 42.48 152.01 43.52V38.2H154.31V53H152.01V51.34C151.31 52.34 149.99 53.18 148.19 53.18C145.29 53.18 142.99 50.84 142.99 47.44ZM152.01 47.48C152.01 45.12 150.39 43.78 148.67 43.78C146.97 43.78 145.33 45.06 145.33 47.44C145.33 49.82 146.97 51.2 148.67 51.2C150.39 51.2 152.01 49.86 152.01 47.48ZM171.88 53L170.88 50.16H165.06L164.06 53H161.68L166.66 39.08H169.3L174.28 53H171.88ZM170.24 48.3L167.98 41.84L165.7 48.3H170.24ZM175.685 47.44C175.685 44.04 177.985 41.8 180.905 41.8C182.345 41.8 183.865 42.48 184.705 43.52V38.2H187.005V53H184.705V51.34C184.005 52.34 182.685 53.18 180.885 53.18C177.985 53.18 175.685 50.84 175.685 47.44ZM184.705 47.48C184.705 45.12 183.085 43.78 181.365 43.78C179.665 43.78 178.025 45.06 178.025 47.44C178.025 49.82 179.665 51.2 181.365 51.2C183.085 51.2 184.705 49.86 184.705 47.48ZM208.635 46.02C208.635 50.2 205.495 53.14 201.535 53.14C197.615 53.14 194.435 50.2 194.435 46.02C194.435 41.86 197.615 38.92 201.535 38.92C205.495 38.92 208.635 41.86 208.635 46.02ZM196.775 46.02C196.775 49.16 198.775 51.16 201.535 51.16C204.295 51.16 206.295 49.16 206.295 46.02C206.295 42.88 204.295 40.92 201.535 40.92C198.775 40.92 196.775 42.88 196.775 46.02ZM213.159 43.6C213.859 42.68 215.199 41.8 216.999 41.8C219.899 41.8 222.179 44.04 222.179 47.44C222.179 50.84 219.899 53.18 216.999 53.18C215.179 53.18 213.879 52.26 213.159 51.4V58.24H210.879V41.98H213.159V43.6ZM219.859 47.44C219.859 45.06 218.219 43.78 216.499 43.78C214.799 43.78 213.159 45.12 213.159 47.48C213.159 49.86 214.799 51.2 216.499 51.2C218.219 51.2 219.859 49.82 219.859 47.44ZM224.794 49.94V43.84H223.494V41.98H224.794V39.24H227.094V41.98H229.774V43.84H227.094V49.94C227.094 50.76 227.414 51.1 228.374 51.1H229.774V53H227.974C226.014 53 224.794 52.18 224.794 49.94ZM231.875 53V41.98H234.155V53H231.875ZM233.035 40.52C232.215 40.52 231.575 39.88 231.575 39.06C231.575 38.24 232.215 37.6 233.035 37.6C233.835 37.6 234.475 38.24 234.475 39.06C234.475 39.88 233.835 40.52 233.035 40.52ZM252.768 53V46.84C252.768 44.82 251.668 43.78 250.008 43.78C248.328 43.78 247.228 44.82 247.228 46.84V53H244.968V46.84C244.968 44.82 243.868 43.78 242.208 43.78C240.528 43.78 239.428 44.82 239.428 46.84V53H237.148V41.98H239.428V43.24C240.168 42.34 241.368 41.8 242.688 41.8C244.428 41.8 245.888 42.54 246.648 43.98C247.328 42.64 248.888 41.8 250.488 41.8C253.068 41.8 255.028 43.42 255.028 46.5V53H252.768ZM257.93 53V41.98H260.21V53H257.93ZM259.09 40.52C258.27 40.52 257.63 39.88 257.63 39.06C257.63 38.24 258.27 37.6 259.09 37.6C259.89 37.6 260.53 38.24 260.53 39.06C260.53 39.88 259.89 40.52 259.09 40.52ZM270.223 41.98V43.84L265.223 51.14H270.223V53H262.583V51.14L267.603 43.84H262.583V41.98H270.223ZM271.857 47.44C271.857 44.04 274.157 41.8 277.057 41.8C278.917 41.8 280.197 42.68 280.877 43.58V41.98H283.177V53H280.877V51.36C280.177 52.3 278.857 53.18 277.017 53.18C274.157 53.18 271.857 50.84 271.857 47.44ZM280.877 47.48C280.877 45.12 279.257 43.78 277.537 43.78C275.837 43.78 274.197 45.06 274.197 47.44C274.197 49.82 275.837 51.2 277.537 51.2C279.257 51.2 280.877 49.86 280.877 47.48ZM286.532 49.94V43.84H285.232V41.98H286.532V39.24H288.832V41.98H291.512V43.84H288.832V49.94C288.832 50.76 289.152 51.1 290.112 51.1H291.512V53H289.712C287.752 53 286.532 52.18 286.532 49.94ZM293.613 53V41.98H295.893V53H293.613ZM294.773 40.52C293.953 40.52 293.313 39.88 293.313 39.06C293.313 38.24 293.953 37.6 294.773 37.6C295.573 37.6 296.213 38.24 296.213 39.06C296.213 39.88 295.573 40.52 294.773 40.52ZM309.387 47.48C309.387 50.94 306.827 53.18 303.667 53.18C300.527 53.18 298.147 50.94 298.147 47.48C298.147 44.02 300.627 41.8 303.767 41.8C306.907 41.8 309.387 44.02 309.387 47.48ZM300.467 47.48C300.467 49.98 301.947 51.2 303.667 51.2C305.367 51.2 307.047 49.98 307.047 47.48C307.047 44.98 305.427 43.78 303.727 43.78C302.007 43.78 300.467 44.98 300.467 47.48ZM319.461 53V46.84C319.461 44.82 318.361 43.78 316.701 43.78C315.021 43.78 313.921 44.82 313.921 46.84V53H311.641V41.98H313.921V43.24C314.661 42.34 315.881 41.8 317.201 41.8C319.781 41.8 321.721 43.42 321.721 46.5V53H319.461Z" fill="black"/>
<path d="M50.54 84.58C50.54 86.362 49.082 88.126 46.364 88.126C43.844 88.126 42.062 86.722 42.026 84.652H43.772C43.88 85.696 44.618 86.74 46.364 86.74C47.948 86.74 48.884 85.84 48.884 84.652C48.884 81.268 42.098 83.428 42.098 78.766C42.098 76.696 43.772 75.292 46.256 75.292C48.65 75.292 50.216 76.606 50.414 78.514H48.614C48.506 77.668 47.714 76.714 46.184 76.696C44.834 76.66 43.772 77.362 43.772 78.712C43.772 81.952 50.54 79.936 50.54 84.58ZM52.3385 83.05C52.3385 79.954 54.3365 77.974 57.1445 77.974C59.5925 77.974 61.1945 79.234 61.6985 81.304H59.9345C59.5925 80.116 58.6025 79.36 57.1445 79.36C55.3445 79.36 54.0125 80.638 54.0125 83.05C54.0125 85.498 55.3445 86.776 57.1445 86.776C58.6025 86.776 59.5745 86.074 59.9345 84.832H61.6985C61.1945 86.794 59.5925 88.162 57.1445 88.162C54.3365 88.162 52.3385 86.182 52.3385 83.05ZM63.884 88V74.68H65.522V79.558C66.17 78.514 67.394 77.956 68.78 77.956C70.976 77.956 72.722 79.36 72.722 82.186V88H71.102V82.42C71.102 80.404 70.004 79.378 68.348 79.378C66.674 79.378 65.522 80.422 65.522 82.546V88H63.884ZM79.5917 79.36C77.9897 79.36 76.6577 80.422 76.4777 82.348H82.7057C82.7237 80.422 81.2837 79.36 79.5917 79.36ZM84.1997 84.958C83.6957 86.758 82.1117 88.162 79.6637 88.162C76.8557 88.162 74.7857 86.182 74.7857 83.05C74.7857 79.936 76.7837 77.974 79.6637 77.974C82.5257 77.974 84.3977 79.99 84.3977 82.69C84.3977 83.05 84.3797 83.338 84.3437 83.68H76.4597C76.5857 85.678 77.9897 86.776 79.6637 86.776C81.1397 86.776 82.0757 86.02 82.4357 84.958H84.1997ZM85.9478 83.032C85.9478 79.954 87.9818 77.974 90.6458 77.974C92.1938 77.974 93.6158 78.766 94.2998 79.9V74.68H95.9558V88H94.2998V86.146C93.7058 87.244 92.4278 88.162 90.6278 88.162C87.9818 88.162 85.9478 86.092 85.9478 83.032ZM94.2998 83.05C94.2998 80.764 92.7518 79.396 90.9518 79.396C89.1518 79.396 87.6218 80.71 87.6218 83.032C87.6218 85.354 89.1518 86.722 90.9518 86.722C92.7518 86.722 94.2998 85.372 94.2998 83.05ZM107.472 78.136V88H105.834V86.542C105.204 87.568 103.998 88.144 102.684 88.144C100.416 88.144 98.6339 86.74 98.6339 83.914V78.136H100.254V83.698C100.254 85.696 101.352 86.722 103.008 86.722C104.7 86.722 105.834 85.678 105.834 83.554V78.136H107.472ZM110.238 88V74.68H111.876V88H110.238ZM118.861 79.36C117.259 79.36 115.927 80.422 115.747 82.348H121.975C121.993 80.422 120.553 79.36 118.861 79.36ZM123.469 84.958C122.965 86.758 121.381 88.162 118.933 88.162C116.125 88.162 114.055 86.182 114.055 83.05C114.055 79.936 116.053 77.974 118.933 77.974C121.795 77.974 123.667 79.99 123.667 82.69C123.667 83.05 123.649 83.338 123.613 83.68H115.729C115.855 85.678 117.259 86.776 118.933 86.776C120.409 86.776 121.345 86.02 121.705 84.958H123.469ZM132.266 79.954C132.86 78.91 134.156 77.974 135.956 77.974C138.602 77.974 140.636 79.954 140.636 83.032C140.636 86.092 138.602 88.162 135.956 88.162C134.156 88.162 132.878 87.19 132.266 86.182V92.68H130.628V78.136H132.266V79.954ZM138.962 83.032C138.962 80.71 137.432 79.396 135.614 79.396C133.832 79.396 132.266 80.764 132.266 83.05C132.266 85.372 133.832 86.722 135.614 86.722C137.432 86.722 138.962 85.354 138.962 83.032ZM152.152 83.05C152.152 86.182 149.902 88.162 147.094 88.162C144.304 88.162 142.18 86.182 142.18 83.05C142.18 79.936 144.376 77.974 147.166 77.974C149.974 77.974 152.152 79.936 152.152 83.05ZM143.854 83.05C143.854 85.552 145.384 86.722 147.094 86.722C148.804 86.722 150.478 85.552 150.478 83.05C150.478 80.566 148.84 79.396 147.148 79.396C145.42 79.396 143.854 80.566 143.854 83.05ZM161.398 85.318C161.398 86.938 159.976 88.162 157.798 88.162C155.494 88.162 153.874 86.902 153.766 85.102H155.458C155.548 86.056 156.394 86.776 157.78 86.776C159.076 86.776 159.796 86.128 159.796 85.318C159.796 83.122 153.964 84.4 153.964 80.728C153.964 79.216 155.386 77.974 157.582 77.974C159.76 77.974 161.2 79.144 161.308 81.07H159.67C159.598 80.08 158.842 79.36 157.528 79.36C156.322 79.36 155.602 79.936 155.602 80.728C155.602 83.068 161.326 81.79 161.398 85.318ZM164.07 85.3V79.486H162.792V78.136H164.07V75.652H165.708V78.136H168.282V79.486H165.708V85.3C165.708 86.272 166.068 86.614 167.076 86.614H168.282V88H166.806C165.06 88 164.07 87.28 164.07 85.3ZM175.426 85.3V79.486H174.148V78.136H175.426V75.652H177.064V78.136H179.638V79.486H177.064V85.3C177.064 86.272 177.424 86.614 178.432 86.614H179.638V88H178.162C176.416 88 175.426 87.28 175.426 85.3ZM190.982 83.05C190.982 86.182 188.732 88.162 185.924 88.162C183.134 88.162 181.01 86.182 181.01 83.05C181.01 79.936 183.206 77.974 185.996 77.974C188.804 77.974 190.982 79.936 190.982 83.05ZM182.684 83.05C182.684 85.552 184.214 86.722 185.924 86.722C187.634 86.722 189.308 85.552 189.308 83.05C189.308 80.566 187.67 79.396 185.978 79.396C184.25 79.396 182.684 80.566 182.684 83.05ZM199.573 79.972C200.203 78.874 201.517 77.974 203.263 77.974C205.927 77.974 207.943 79.954 207.943 83.032C207.943 86.092 205.909 88.162 203.263 88.162C201.463 88.162 200.185 87.262 199.573 86.182V88H197.935V74.68H199.573V79.972ZM206.269 83.032C206.269 80.71 204.739 79.396 202.921 79.396C201.139 79.396 199.573 80.764 199.573 83.05C199.573 85.372 201.139 86.722 202.921 86.722C204.739 86.722 206.269 85.354 206.269 83.032ZM219.459 83.05C219.459 86.182 217.209 88.162 214.401 88.162C211.611 88.162 209.487 86.182 209.487 83.05C209.487 79.936 211.683 77.974 214.473 77.974C217.281 77.974 219.459 79.936 219.459 83.05ZM211.161 83.05C211.161 85.552 212.691 86.722 214.401 86.722C216.111 86.722 217.785 85.552 217.785 83.05C217.785 80.566 216.147 79.396 214.455 79.396C212.727 79.396 211.161 80.566 211.161 83.05ZM230.973 83.05C230.973 86.182 228.723 88.162 225.915 88.162C223.125 88.162 221.001 86.182 221.001 83.05C221.001 79.936 223.197 77.974 225.987 77.974C228.795 77.974 230.973 79.936 230.973 83.05ZM222.675 83.05C222.675 85.552 224.205 86.722 225.915 86.722C227.625 86.722 229.299 85.552 229.299 83.05C229.299 80.566 227.661 79.396 225.969 79.396C224.241 79.396 222.675 80.566 222.675 83.05ZM240.218 85.318C240.218 86.938 238.796 88.162 236.618 88.162C234.314 88.162 232.694 86.902 232.586 85.102H234.278C234.368 86.056 235.214 86.776 236.6 86.776C237.896 86.776 238.616 86.128 238.616 85.318C238.616 83.122 232.784 84.4 232.784 80.728C232.784 79.216 234.206 77.974 236.402 77.974C238.58 77.974 240.02 79.144 240.128 81.07H238.49C238.418 80.08 237.662 79.36 236.348 79.36C235.142 79.36 234.422 79.936 234.422 80.728C234.422 83.068 240.146 81.79 240.218 85.318ZM242.891 85.3V79.486H241.613V78.136H242.891V75.652H244.529V78.136H247.103V79.486H244.529V85.3C244.529 86.272 244.889 86.614 245.897 86.614H247.103V88H245.627C243.881 88 242.891 87.28 242.891 85.3ZM257.63 86.128L260.69 78.136H262.382L256.442 92.644H254.75L256.694 87.892L252.716 78.136H254.534L257.63 86.128ZM273.389 83.05C273.389 86.182 271.139 88.162 268.331 88.162C265.541 88.162 263.417 86.182 263.417 83.05C263.417 79.936 265.613 77.974 268.403 77.974C271.211 77.974 273.389 79.936 273.389 83.05ZM265.091 83.05C265.091 85.552 266.621 86.722 268.331 86.722C270.041 86.722 271.715 85.552 271.715 83.05C271.715 80.566 270.077 79.396 268.385 79.396C266.657 79.396 265.091 80.566 265.091 83.05ZM284.29 78.136V88H282.652V86.542C282.022 87.568 280.816 88.144 279.502 88.144C277.234 88.144 275.452 86.74 275.452 83.914V78.136H277.072V83.698C277.072 85.696 278.17 86.722 279.826 86.722C281.518 86.722 282.652 85.678 282.652 83.554V78.136H284.29ZM288.694 82.636V88H287.056V78.136H288.694V79.738C289.252 78.64 290.314 77.956 291.88 77.956V79.648H291.448C289.882 79.648 288.694 80.35 288.694 82.636ZM44.024 103.972C44.654 102.874 45.968 101.974 47.714 101.974C50.378 101.974 52.394 103.954 52.394 107.032C52.394 110.092 50.36 112.162 47.714 112.162C45.914 112.162 44.636 111.262 44.024 110.182V112H42.386V98.68H44.024V103.972ZM50.72 107.032C50.72 104.71 49.19 103.396 47.372 103.396C45.59 103.396 44.024 104.764 44.024 107.05C44.024 109.372 45.59 110.722 47.372 110.722C49.19 110.722 50.72 109.354 50.72 107.032ZM63.2981 102.136V112H61.6601V110.542C61.0301 111.568 59.8241 112.144 58.5101 112.144C56.2421 112.144 54.4601 110.74 54.4601 107.914V102.136H56.0801V107.698C56.0801 109.696 57.1781 110.722 58.8341 110.722C60.5261 110.722 61.6601 109.678 61.6601 107.554V102.136H63.2981ZM73.1557 109.318C73.1557 110.938 71.7337 112.162 69.5557 112.162C67.2517 112.162 65.6317 110.902 65.5237 109.102H67.2157C67.3057 110.056 68.1517 110.776 69.5377 110.776C70.8337 110.776 71.5537 110.128 71.5537 109.318C71.5537 107.122 65.7217 108.4 65.7217 104.728C65.7217 103.216 67.1437 101.974 69.3397 101.974C71.5177 101.974 72.9577 103.144 73.0657 105.07H71.4277C71.3557 104.08 70.5997 103.36 69.2857 103.36C68.0797 103.36 67.3597 103.936 67.3597 104.728C67.3597 107.068 73.0837 105.79 73.1557 109.318ZM75.468 112V102.136H77.106V112H75.468ZM76.314 100.534C75.684 100.534 75.198 100.048 75.198 99.418C75.198 98.788 75.684 98.302 76.314 98.302C76.908 98.302 77.394 98.788 77.394 99.418C77.394 100.048 76.908 100.534 76.314 100.534ZM87.1157 112V106.42C87.1157 104.404 86.0177 103.378 84.3617 103.378C82.6877 103.378 81.5357 104.422 81.5357 106.546V112H79.8977V102.136H81.5357V103.54C82.1837 102.514 83.3717 101.956 84.7037 101.956C86.9897 101.956 88.7357 103.36 88.7357 106.186V112H87.1157ZM95.6054 103.36C94.0034 103.36 92.6714 104.422 92.4914 106.348H98.7194C98.7374 104.422 97.2974 103.36 95.6054 103.36ZM100.213 108.958C99.7094 110.758 98.1254 112.162 95.6774 112.162C92.8694 112.162 90.7994 110.182 90.7994 107.05C90.7994 103.936 92.7974 101.974 95.6774 101.974C98.5394 101.974 100.411 103.99 100.411 106.69C100.411 107.05 100.393 107.338 100.357 107.68H92.4734C92.5994 109.678 94.0034 110.776 95.6774 110.776C97.1534 110.776 98.0894 110.02 98.4494 108.958H100.213ZM109.666 109.318C109.666 110.938 108.244 112.162 106.066 112.162C103.762 112.162 102.142 110.902 102.034 109.102H103.726C103.816 110.056 104.662 110.776 106.048 110.776C107.344 110.776 108.064 110.128 108.064 109.318C108.064 107.122 102.232 108.4 102.232 104.728C102.232 103.216 103.654 101.974 105.85 101.974C108.028 101.974 109.468 103.144 109.576 105.07H107.938C107.866 104.08 107.11 103.36 105.796 103.36C104.59 103.36 103.87 103.936 103.87 104.728C103.87 107.068 109.594 105.79 109.666 109.318ZM119.07 109.318C119.07 110.938 117.648 112.162 115.47 112.162C113.166 112.162 111.546 110.902 111.438 109.102H113.13C113.22 110.056 114.066 110.776 115.452 110.776C116.748 110.776 117.468 110.128 117.468 109.318C117.468 107.122 111.636 108.4 111.636 104.728C111.636 103.216 113.058 101.974 115.254 101.974C117.432 101.974 118.872 103.144 118.98 105.07H117.342C117.27 104.08 116.514 103.36 115.2 103.36C113.994 103.36 113.274 103.936 113.274 104.728C113.274 107.068 118.998 105.79 119.07 109.318ZM130.375 103.36C128.773 103.36 127.441 104.422 127.261 106.348H133.489C133.507 104.422 132.067 103.36 130.375 103.36ZM134.983 108.958C134.479 110.758 132.895 112.162 130.447 112.162C127.639 112.162 125.569 110.182 125.569 107.05C125.569 103.936 127.567 101.974 130.447 101.974C133.309 101.974 135.181 103.99 135.181 106.69C135.181 107.05 135.163 107.338 135.127 107.68H127.243C127.369 109.678 128.773 110.776 130.447 110.776C131.923 110.776 132.859 110.02 133.219 108.958H134.983ZM144.561 112V106.42C144.561 104.404 143.463 103.378 141.807 103.378C140.133 103.378 138.981 104.422 138.981 106.546V112H137.343V102.136H138.981V103.54C139.629 102.514 140.817 101.956 142.149 101.956C144.435 101.956 146.181 103.36 146.181 106.186V112H144.561ZM148.245 107.032C148.245 103.954 150.279 101.974 152.925 101.974C154.725 101.974 156.021 102.874 156.597 103.936V102.136H158.253V112.216C158.253 114.934 156.435 116.86 153.537 116.86C150.945 116.86 149.091 115.546 148.767 113.44H150.387C150.747 114.628 151.917 115.438 153.537 115.438C155.283 115.438 156.597 114.322 156.597 112.216V110.146C156.003 111.208 154.725 112.162 152.925 112.162C150.279 112.162 148.245 110.092 148.245 107.032ZM156.597 107.05C156.597 104.764 155.049 103.396 153.249 103.396C151.449 103.396 149.919 104.71 149.919 107.032C149.919 109.354 151.449 110.722 153.249 110.722C155.049 110.722 156.597 109.372 156.597 107.05ZM160.409 107.032C160.409 103.954 162.443 101.974 165.089 101.974C166.925 101.974 168.185 102.91 168.761 103.936V102.136H170.417V112H168.761V110.164C168.167 111.226 166.889 112.162 165.071 112.162C162.443 112.162 160.409 110.092 160.409 107.032ZM168.761 107.05C168.761 104.764 167.213 103.396 165.413 103.396C163.613 103.396 162.083 104.71 162.083 107.032C162.083 109.354 163.613 110.722 165.413 110.722C167.213 110.722 168.761 109.372 168.761 107.05ZM172.573 107.032C172.573 103.954 174.607 101.974 177.253 101.974C179.053 101.974 180.349 102.874 180.925 103.936V102.136H182.581V112.216C182.581 114.934 180.763 116.86 177.865 116.86C175.273 116.86 173.419 115.546 173.095 113.44H174.715C175.075 114.628 176.245 115.438 177.865 115.438C179.611 115.438 180.925 114.322 180.925 112.216V110.146C180.331 111.208 179.053 112.162 177.253 112.162C174.607 112.162 172.573 110.092 172.573 107.032ZM180.925 107.05C180.925 104.764 179.377 103.396 177.577 103.396C175.777 103.396 174.247 104.71 174.247 107.032C174.247 109.354 175.777 110.722 177.577 110.722C179.377 110.722 180.925 109.372 180.925 107.05ZM189.543 103.36C187.941 103.36 186.609 104.422 186.429 106.348H192.657C192.675 104.422 191.235 103.36 189.543 103.36ZM194.151 108.958C193.647 110.758 192.063 112.162 189.615 112.162C186.807 112.162 184.737 110.182 184.737 107.05C184.737 103.936 186.735 101.974 189.615 101.974C192.477 101.974 194.349 103.99 194.349 106.69C194.349 107.05 194.331 107.338 194.295 107.68H186.411C186.537 109.678 187.941 110.776 189.615 110.776C191.091 110.776 192.027 110.02 192.387 108.958H194.151ZM210.749 112V106.42C210.749 104.404 209.669 103.378 208.049 103.378C206.393 103.378 205.259 104.44 205.259 106.564V112H203.639V106.42C203.639 104.404 202.559 103.378 200.939 103.378C199.283 103.378 198.149 104.44 198.149 106.564V112H196.511V102.136H198.149V103.558C198.797 102.514 199.967 101.956 201.263 101.956C202.883 101.956 204.233 102.676 204.881 104.152C205.457 102.73 206.861 101.956 208.373 101.956C210.623 101.956 212.369 103.36 212.369 106.186V112H210.749ZM219.25 103.36C217.648 103.36 216.316 104.422 216.136 106.348H222.364C222.382 104.422 220.942 103.36 219.25 103.36ZM223.858 108.958C223.354 110.758 221.77 112.162 219.322 112.162C216.514 112.162 214.444 110.182 214.444 107.05C214.444 103.936 216.442 101.974 219.322 101.974C222.184 101.974 224.056 103.99 224.056 106.69C224.056 107.05 224.038 107.338 224.002 107.68H216.118C216.244 109.678 217.648 110.776 219.322 110.776C220.798 110.776 221.734 110.02 222.094 108.958H223.858ZM233.436 112V106.42C233.436 104.404 232.338 103.378 230.682 103.378C229.008 103.378 227.856 104.422 227.856 106.546V112H226.218V102.136H227.856V103.54C228.504 102.514 229.692 101.956 231.024 101.956C233.31 101.956 235.056 103.36 235.056 106.186V112H233.436ZM238.092 109.3V103.486H236.814V102.136H238.092V99.652H239.73V102.136H242.304V103.486H239.73V109.3C239.73 110.272 240.09 110.614 241.098 110.614H242.304V112H240.828C239.082 112 238.092 111.28 238.092 109.3Z" fill="#595959"/>
<rect x="329" y="34" width="60" height="30" rx="15" fill="white"/>
<path d="M362 49C362 55.6274 367.373 61 374 61C380.627 61 386 55.6274 386 49C386 42.3726 380.627 37 374 37C367.373 37 362 42.3726 362 49Z" fill="url(#paint0_linear_1043_1323)"/>
<rect x="42" y="138" width="347" height="51" rx="9" fill="white"/>
<path d="M117.768 170.112C117.032 170.112 116.371 169.984 115.784 169.728C115.208 169.461 114.755 169.099 114.424 168.64C114.093 168.171 113.923 167.632 113.912 167.024H115.464C115.517 167.547 115.731 167.989 116.104 168.352C116.488 168.704 117.043 168.88 117.768 168.88C118.461 168.88 119.005 168.709 119.4 168.368C119.805 168.016 120.008 167.568 120.008 167.024C120.008 166.597 119.891 166.251 119.656 165.984C119.421 165.717 119.128 165.515 118.776 165.376C118.424 165.237 117.949 165.088 117.352 164.928C116.616 164.736 116.024 164.544 115.576 164.352C115.139 164.16 114.76 163.861 114.44 163.456C114.131 163.04 113.976 162.485 113.976 161.792C113.976 161.184 114.131 160.645 114.44 160.176C114.749 159.707 115.181 159.344 115.736 159.088C116.301 158.832 116.947 158.704 117.672 158.704C118.717 158.704 119.571 158.965 120.232 159.488C120.904 160.011 121.283 160.704 121.368 161.568H119.768C119.715 161.141 119.491 160.768 119.096 160.448C118.701 160.117 118.179 159.952 117.528 159.952C116.92 159.952 116.424 160.112 116.04 160.432C115.656 160.741 115.464 161.179 115.464 161.744C115.464 162.149 115.576 162.48 115.8 162.736C116.035 162.992 116.317 163.189 116.648 163.328C116.989 163.456 117.464 163.605 118.072 163.776C118.808 163.979 119.4 164.181 119.848 164.384C120.296 164.576 120.68 164.88 121 165.296C121.32 165.701 121.48 166.256 121.48 166.96C121.48 167.504 121.336 168.016 121.048 168.496C120.76 168.976 120.333 169.365 119.768 169.664C119.203 169.963 118.536 170.112 117.768 170.112ZM131.623 165.28C131.623 165.557 131.607 165.851 131.575 166.16H124.567C124.62 167.024 124.913 167.701 125.447 168.192C125.991 168.672 126.647 168.912 127.415 168.912C128.044 168.912 128.567 168.768 128.983 168.48C129.409 168.181 129.708 167.787 129.879 167.296H131.447C131.212 168.139 130.743 168.827 130.039 169.36C129.335 169.883 128.46 170.144 127.415 170.144C126.583 170.144 125.836 169.957 125.175 169.584C124.524 169.211 124.012 168.683 123.639 168C123.265 167.307 123.079 166.507 123.079 165.6C123.079 164.693 123.26 163.899 123.623 163.216C123.985 162.533 124.492 162.011 125.143 161.648C125.804 161.275 126.561 161.088 127.415 161.088C128.247 161.088 128.983 161.269 129.623 161.632C130.263 161.995 130.753 162.496 131.095 163.136C131.447 163.765 131.623 164.48 131.623 165.28ZM130.119 164.976C130.119 164.421 129.996 163.947 129.751 163.552C129.505 163.147 129.169 162.843 128.743 162.64C128.327 162.427 127.863 162.32 127.351 162.32C126.615 162.32 125.985 162.555 125.463 163.024C124.951 163.493 124.657 164.144 124.583 164.976H130.119ZM135.321 162.432V167.6C135.321 168.027 135.411 168.331 135.593 168.512C135.774 168.683 136.089 168.768 136.536 168.768H137.609V170H136.297C135.486 170 134.878 169.813 134.473 169.44C134.067 169.067 133.865 168.453 133.865 167.6V162.432H132.729V161.232H133.865V159.024H135.321V161.232H137.609V162.432H135.321ZM148.694 170.112C147.66 170.112 146.716 169.872 145.862 169.392C145.009 168.901 144.332 168.224 143.83 167.36C143.34 166.485 143.094 165.504 143.094 164.416C143.094 163.328 143.34 162.352 143.83 161.488C144.332 160.613 145.009 159.936 145.862 159.456C146.716 158.965 147.66 158.72 148.694 158.72C149.74 158.72 150.689 158.965 151.542 159.456C152.396 159.936 153.068 160.608 153.558 161.472C154.049 162.336 154.294 163.317 154.294 164.416C154.294 165.515 154.049 166.496 153.558 167.36C153.068 168.224 152.396 168.901 151.542 169.392C150.689 169.872 149.74 170.112 148.694 170.112ZM148.694 168.848C149.473 168.848 150.172 168.667 150.79 168.304C151.42 167.941 151.91 167.424 152.262 166.752C152.625 166.08 152.806 165.301 152.806 164.416C152.806 163.52 152.625 162.741 152.262 162.08C151.91 161.408 151.425 160.891 150.806 160.528C150.188 160.165 149.484 159.984 148.694 159.984C147.905 159.984 147.201 160.165 146.582 160.528C145.964 160.891 145.473 161.408 145.11 162.08C144.758 162.741 144.582 163.52 144.582 164.416C144.582 165.301 144.758 166.08 145.11 166.752C145.473 167.424 145.964 167.941 146.582 168.304C147.212 168.667 147.916 168.848 148.694 168.848ZM157.672 162.848C157.96 162.347 158.387 161.931 158.952 161.6C159.528 161.259 160.195 161.088 160.952 161.088C161.731 161.088 162.435 161.275 163.064 161.648C163.704 162.021 164.206 162.549 164.568 163.232C164.931 163.904 165.112 164.688 165.112 165.584C165.112 166.469 164.931 167.259 164.568 167.952C164.206 168.645 163.704 169.184 163.064 169.568C162.435 169.952 161.731 170.144 160.952 170.144C160.206 170.144 159.544 169.979 158.968 169.648C158.403 169.307 157.971 168.885 157.672 168.384V174.16H156.216V161.232H157.672V162.848ZM163.624 165.584C163.624 164.923 163.491 164.347 163.224 163.856C162.958 163.365 162.595 162.992 162.136 162.736C161.688 162.48 161.192 162.352 160.648 162.352C160.115 162.352 159.619 162.485 159.16 162.752C158.712 163.008 158.35 163.387 158.072 163.888C157.806 164.379 157.672 164.949 157.672 165.6C157.672 166.261 157.806 166.843 158.072 167.344C158.35 167.835 158.712 168.213 159.16 168.48C159.619 168.736 160.115 168.864 160.648 168.864C161.192 168.864 161.688 168.736 162.136 168.48C162.595 168.213 162.958 167.835 163.224 167.344C163.491 166.843 163.624 166.256 163.624 165.584ZM168.805 162.432V167.6C168.805 168.027 168.896 168.331 169.077 168.512C169.258 168.683 169.573 168.768 170.021 168.768H171.093V170H169.781C168.97 170 168.362 169.813 167.957 169.44C167.552 169.067 167.349 168.453 167.349 167.6V162.432H166.213V161.232H167.349V159.024H168.805V161.232H171.093V162.432H168.805ZM173.609 159.808C173.332 159.808 173.097 159.712 172.905 159.52C172.713 159.328 172.617 159.093 172.617 158.816C172.617 158.539 172.713 158.304 172.905 158.112C173.097 157.92 173.332 157.824 173.609 157.824C173.876 157.824 174.1 157.92 174.281 158.112C174.473 158.304 174.569 158.539 174.569 158.816C174.569 159.093 174.473 159.328 174.281 159.52C174.1 159.712 173.876 159.808 173.609 159.808ZM174.313 161.232V170H172.857V161.232H174.313ZM187.339 161.072C188.021 161.072 188.629 161.216 189.163 161.504C189.696 161.781 190.117 162.203 190.427 162.768C190.736 163.333 190.891 164.021 190.891 164.832V170H189.451V165.04C189.451 164.165 189.232 163.499 188.795 163.04C188.368 162.571 187.787 162.336 187.051 162.336C186.293 162.336 185.691 162.581 185.243 163.072C184.795 163.552 184.571 164.251 184.571 165.168V170H183.131V165.04C183.131 164.165 182.912 163.499 182.475 163.04C182.048 162.571 181.467 162.336 180.731 162.336C179.973 162.336 179.371 162.581 178.923 163.072C178.475 163.552 178.251 164.251 178.251 165.168V170H176.795V161.232H178.251V162.496C178.539 162.037 178.923 161.685 179.403 161.44C179.893 161.195 180.432 161.072 181.019 161.072C181.755 161.072 182.405 161.237 182.971 161.568C183.536 161.899 183.957 162.384 184.235 163.024C184.48 162.405 184.885 161.925 185.451 161.584C186.016 161.243 186.645 161.072 187.339 161.072ZM194.031 159.808C193.754 159.808 193.519 159.712 193.327 159.52C193.135 159.328 193.039 159.093 193.039 158.816C193.039 158.539 193.135 158.304 193.327 158.112C193.519 157.92 193.754 157.824 194.031 157.824C194.298 157.824 194.522 157.92 194.703 158.112C194.895 158.304 194.991 158.539 194.991 158.816C194.991 159.093 194.895 159.328 194.703 159.52C194.522 159.712 194.298 159.808 194.031 159.808ZM194.735 161.232V170H193.279V161.232H194.735ZM198.304 168.8H202.608V170H196.64V168.8L200.896 162.416H196.672V161.232H202.576V162.416L198.304 168.8ZM203.954 165.584C203.954 164.688 204.135 163.904 204.498 163.232C204.86 162.549 205.356 162.021 205.986 161.648C206.626 161.275 207.335 161.088 208.114 161.088C208.882 161.088 209.548 161.253 210.114 161.584C210.679 161.915 211.1 162.331 211.378 162.832V161.232H212.85V170H211.378V168.368C211.09 168.88 210.658 169.307 210.082 169.648C209.516 169.979 208.855 170.144 208.098 170.144C207.319 170.144 206.615 169.952 205.986 169.568C205.356 169.184 204.86 168.645 204.498 167.952C204.135 167.259 203.954 166.469 203.954 165.584ZM211.378 165.6C211.378 164.939 211.244 164.363 210.978 163.872C210.711 163.381 210.348 163.008 209.89 162.752C209.442 162.485 208.946 162.352 208.402 162.352C207.858 162.352 207.362 162.48 206.914 162.736C206.466 162.992 206.108 163.365 205.842 163.856C205.575 164.347 205.442 164.923 205.442 165.584C205.442 166.256 205.575 166.843 205.842 167.344C206.108 167.835 206.466 168.213 206.914 168.48C207.362 168.736 207.858 168.864 208.402 168.864C208.946 168.864 209.442 168.736 209.89 168.48C210.348 168.213 210.711 167.835 210.978 167.344C211.244 166.843 211.378 166.261 211.378 165.6ZM217.086 162.432V167.6C217.086 168.027 217.177 168.331 217.358 168.512C217.539 168.683 217.854 168.768 218.302 168.768H219.374V170H218.062C217.251 170 216.643 169.813 216.238 169.44C215.833 169.067 215.63 168.453 215.63 167.6V162.432H214.494V161.232H215.63V159.024H217.086V161.232H219.374V162.432H217.086ZM221.89 159.808C221.613 159.808 221.378 159.712 221.186 159.52C220.994 159.328 220.898 159.093 220.898 158.816C220.898 158.539 220.994 158.304 221.186 158.112C221.378 157.92 221.613 157.824 221.89 157.824C222.157 157.824 222.381 157.92 222.562 158.112C222.754 158.304 222.85 158.539 222.85 158.816C222.85 159.093 222.754 159.328 222.562 159.52C222.381 159.712 222.157 159.808 221.89 159.808ZM222.594 161.232V170H221.138V161.232H222.594ZM228.9 170.144C228.078 170.144 227.332 169.957 226.66 169.584C225.998 169.211 225.476 168.683 225.092 168C224.718 167.307 224.532 166.507 224.532 165.6C224.532 164.704 224.724 163.915 225.108 163.232C225.502 162.539 226.036 162.011 226.708 161.648C227.38 161.275 228.132 161.088 228.964 161.088C229.796 161.088 230.548 161.275 231.22 161.648C231.892 162.011 232.42 162.533 232.804 163.216C233.198 163.899 233.396 164.693 233.396 165.6C233.396 166.507 233.193 167.307 232.788 168C232.393 168.683 231.854 169.211 231.172 169.584C230.489 169.957 229.732 170.144 228.9 170.144ZM228.9 168.864C229.422 168.864 229.913 168.741 230.372 168.496C230.83 168.251 231.198 167.883 231.476 167.392C231.764 166.901 231.908 166.304 231.908 165.6C231.908 164.896 231.769 164.299 231.492 163.808C231.214 163.317 230.852 162.955 230.404 162.72C229.956 162.475 229.47 162.352 228.948 162.352C228.414 162.352 227.924 162.475 227.476 162.72C227.038 162.955 226.686 163.317 226.42 163.808C226.153 164.299 226.02 164.896 226.02 165.6C226.02 166.315 226.148 166.917 226.404 167.408C226.67 167.899 227.022 168.267 227.46 168.512C227.897 168.747 228.377 168.864 228.9 168.864ZM239.582 161.072C240.649 161.072 241.513 161.397 242.174 162.048C242.835 162.688 243.166 163.616 243.166 164.832V170H241.726V165.04C241.726 164.165 241.507 163.499 241.07 163.04C240.633 162.571 240.035 162.336 239.278 162.336C238.51 162.336 237.897 162.576 237.438 163.056C236.99 163.536 236.766 164.235 236.766 165.152V170H235.31V161.232H236.766V162.48C237.054 162.032 237.443 161.685 237.934 161.44C238.435 161.195 238.985 161.072 239.582 161.072ZM249.266 164.416C249.266 163.328 249.511 162.352 250.002 161.488C250.493 160.613 251.159 159.931 252.002 159.44C252.855 158.949 253.799 158.704 254.834 158.704C256.05 158.704 257.111 158.997 258.018 159.584C258.925 160.171 259.586 161.003 260.002 162.08H258.258C257.949 161.408 257.501 160.891 256.914 160.528C256.338 160.165 255.645 159.984 254.834 159.984C254.055 159.984 253.357 160.165 252.738 160.528C252.119 160.891 251.634 161.408 251.282 162.08C250.93 162.741 250.754 163.52 250.754 164.416C250.754 165.301 250.93 166.08 251.282 166.752C251.634 167.413 252.119 167.925 252.738 168.288C253.357 168.651 254.055 168.832 254.834 168.832C255.645 168.832 256.338 168.656 256.914 168.304C257.501 167.941 257.949 167.424 258.258 166.752H260.002C259.586 167.819 258.925 168.645 258.018 169.232C257.111 169.808 256.05 170.096 254.834 170.096C253.799 170.096 252.855 169.856 252.002 169.376C251.159 168.885 250.493 168.208 250.002 167.344C249.511 166.48 249.266 165.504 249.266 164.416ZM263.626 162.656C263.882 162.155 264.244 161.765 264.714 161.488C265.194 161.211 265.775 161.072 266.458 161.072V162.576H266.074C264.442 162.576 263.626 163.461 263.626 165.232V170H262.17V161.232H263.626V162.656ZM268.89 159.808C268.613 159.808 268.378 159.712 268.186 159.52C267.994 159.328 267.898 159.093 267.898 158.816C267.898 158.539 267.994 158.304 268.186 158.112C268.378 157.92 268.613 157.824 268.89 157.824C269.157 157.824 269.381 157.92 269.562 158.112C269.754 158.304 269.85 158.539 269.85 158.816C269.85 159.093 269.754 159.328 269.562 159.52C269.381 159.712 269.157 159.808 268.89 159.808ZM269.594 161.232V170H268.138V161.232H269.594ZM273.852 162.432V167.6C273.852 168.027 273.942 168.331 274.124 168.512C274.305 168.683 274.62 168.768 275.068 168.768H276.14V170H274.828C274.017 170 273.409 169.813 273.004 169.44C272.598 169.067 272.396 168.453 272.396 167.6V162.432H271.26V161.232H272.396V159.024H273.852V161.232H276.14V162.432H273.852ZM285.904 165.28C285.904 165.557 285.888 165.851 285.856 166.16H278.848C278.901 167.024 279.195 167.701 279.728 168.192C280.272 168.672 280.928 168.912 281.696 168.912C282.325 168.912 282.848 168.768 283.264 168.48C283.691 168.181 283.989 167.787 284.16 167.296H285.728C285.493 168.139 285.024 168.827 284.32 169.36C283.616 169.883 282.741 170.144 281.696 170.144C280.864 170.144 280.117 169.957 279.456 169.584C278.805 169.211 278.293 168.683 277.92 168C277.547 167.307 277.36 166.507 277.36 165.6C277.36 164.693 277.541 163.899 277.904 163.216C278.267 162.533 278.773 162.011 279.424 161.648C280.085 161.275 280.843 161.088 281.696 161.088C282.528 161.088 283.264 161.269 283.904 161.632C284.544 161.995 285.035 162.496 285.376 163.136C285.728 163.765 285.904 164.48 285.904 165.28ZM284.4 164.976C284.4 164.421 284.277 163.947 284.032 163.552C283.787 163.147 283.451 162.843 283.024 162.64C282.608 162.427 282.144 162.32 281.632 162.32C280.896 162.32 280.267 162.555 279.744 163.024C279.232 163.493 278.939 164.144 278.864 164.976H284.4ZM289.282 162.656C289.538 162.155 289.9 161.765 290.37 161.488C290.85 161.211 291.431 161.072 292.114 161.072V162.576H291.73C290.098 162.576 289.282 163.461 289.282 165.232V170H287.826V161.232H289.282V162.656ZM294.547 159.808C294.269 159.808 294.035 159.712 293.843 159.52C293.651 159.328 293.555 159.093 293.555 158.816C293.555 158.539 293.651 158.304 293.843 158.112C294.035 157.92 294.269 157.824 294.547 157.824C294.813 157.824 295.037 157.92 295.219 158.112C295.411 158.304 295.507 158.539 295.507 158.816C295.507 159.093 295.411 159.328 295.219 159.52C295.037 159.712 294.813 159.808 294.547 159.808ZM295.251 161.232V170H293.795V161.232H295.251ZM297.188 165.584C297.188 164.688 297.369 163.904 297.732 163.232C298.095 162.549 298.591 162.021 299.22 161.648C299.86 161.275 300.569 161.088 301.348 161.088C302.116 161.088 302.783 161.253 303.348 161.584C303.913 161.915 304.335 162.331 304.612 162.832V161.232H306.084V170H304.612V168.368C304.324 168.88 303.892 169.307 303.316 169.648C302.751 169.979 302.089 170.144 301.332 170.144C300.553 170.144 299.849 169.952 299.22 169.568C298.591 169.184 298.095 168.645 297.732 167.952C297.369 167.259 297.188 166.469 297.188 165.584ZM304.612 165.6C304.612 164.939 304.479 164.363 304.212 163.872C303.945 163.381 303.583 163.008 303.124 162.752C302.676 162.485 302.18 162.352 301.636 162.352C301.092 162.352 300.596 162.48 300.148 162.736C299.7 162.992 299.343 163.365 299.076 163.856C298.809 164.347 298.676 164.923 298.676 165.584C298.676 166.256 298.809 166.843 299.076 167.344C299.343 167.835 299.7 168.213 300.148 168.48C300.596 168.736 301.092 168.864 301.636 168.864C302.18 168.864 302.676 168.736 303.124 168.48C303.583 168.213 303.945 167.835 304.212 167.344C304.479 166.843 304.612 166.261 304.612 165.6Z" fill="black"/>
</g>
<rect x="0.203883" y="0.203883" width="409.592" height="274.592" rx="7.95146" stroke="#EAEAEA" stroke-width="0.407767"/>
<defs>
<filter id="filter0_f_1043_1323" x="-21.6602" y="-361.66" width="722.32" height="722.32" filterUnits="userSpaceOnUse" color-interpolation-filters="sRGB">
<feFlood flood-opacity="0" result="BackgroundImageFix"/>
<feBlend mode="normal" in="SourceGraphic" in2="BackgroundImageFix" result="shape"/>
<feGaussianBlur stdDeviation="122.33" result="effect1_foregroundBlur_1043_1323"/>
</filter>
<filter id="filter1_f_1043_1323" x="-284.66" y="-139.66" width="739.32" height="739.32" filterUnits="userSpaceOnUse" color-interpolation-filters="sRGB">
<feFlood flood-opacity="0" result="BackgroundImageFix"/>
<feBlend mode="normal" in="SourceGraphic" in2="BackgroundImageFix" result="shape"/>
<feGaussianBlur stdDeviation="122.33" result="effect1_foregroundBlur_1043_1323"/>
</filter>
<linearGradient id="paint0_linear_1043_1323" x1="362" y1="49.0101" x2="385.997" y2="49.0101" gradientUnits="userSpaceOnUse">
<stop stop-color="#0000FF"/>
<stop offset="0.49" stop-color="#8F00FF"/>
<stop offset="1" stop-color="#FF1494"/>
</linearGradient>
<clipPath id="clip0_1043_1323">
<rect width="410" height="275" rx="8.15534" fill="white"/>
</clipPath>
<clipPath id="clip1_1043_1323">
<rect width="27" height="27" fill="white" transform="translate(177 222)"/>
</clipPath>
</defs>
</svg>
