<svg width="410" height="275" viewBox="0 0 410 275" fill="none" xmlns="http://www.w3.org/2000/svg">
<g clip-path="url(#clip0_1043_1372)">
<rect width="410.214" height="275.243" rx="8.15534" fill="white"/>
<g opacity="0.2" filter="url(#filter0_f_1043_1372)">
<circle cx="339.5" cy="-0.5" r="116.5" fill="#FF1494"/>
</g>
<g filter="url(#filter1_f_1043_1372)">
<circle cx="85" cy="230" r="125" fill="#0000FF" fill-opacity="0.15"/>
</g>
<path d="M221.232 229.832V231.032H216.688V234.76H220.752V235.96H216.688V239.8H221.232V241H215.232V229.832H221.232ZM222.891 236.584C222.891 233.848 224.699 232.088 227.067 232.088C228.443 232.088 229.707 232.792 230.315 233.8V229.16H231.787V241H230.315V239.352C229.787 240.328 228.651 241.144 227.051 241.144C224.699 241.144 222.891 239.304 222.891 236.584ZM230.315 236.6C230.315 234.568 228.939 233.352 227.339 233.352C225.739 233.352 224.379 234.52 224.379 236.584C224.379 238.648 225.739 239.864 227.339 239.864C228.939 239.864 230.315 238.664 230.315 236.6ZM234.248 241V232.232H235.704V241H234.248ZM235 230.808C234.44 230.808 234.008 230.376 234.008 229.816C234.008 229.256 234.44 228.824 235 228.824C235.528 228.824 235.96 229.256 235.96 229.816C235.96 230.376 235.528 230.808 235 230.808ZM238.505 238.6V233.432H237.369V232.232H238.505V230.024H239.961V232.232H242.249V233.432H239.961V238.6C239.961 239.464 240.281 239.768 241.177 239.768H242.249V241H240.937C239.385 241 238.505 240.36 238.505 238.6Z" fill="#8F00FF"/>
<g clip-path="url(#clip1_1043_1372)">
<path d="M201.92 238.961C201.549 238.961 201.247 239.262 201.247 239.634V245.604C201.246 246.718 200.344 247.62 199.23 247.621H180.362C179.248 247.62 178.346 246.718 178.345 245.604V228.081C178.346 226.967 179.248 226.065 180.362 226.064H186.333C186.704 226.064 187.005 225.763 187.005 225.391C187.005 225.02 186.704 224.719 186.333 224.719H180.362C178.506 224.721 177.002 226.225 177 228.081V245.604C177.002 247.46 178.506 248.964 180.362 248.967H199.23C201.086 248.964 202.59 247.46 202.592 245.604V239.634C202.592 239.262 202.291 238.961 201.92 238.961Z" fill="#8F00FF"/>
<path d="M202.326 222.988C201.145 221.806 199.229 221.806 198.047 222.988L186.05 234.985C185.968 235.067 185.909 235.169 185.878 235.281L184.3 240.976C184.235 241.21 184.301 241.46 184.472 241.631C184.644 241.803 184.894 241.868 185.127 241.804L190.823 240.226C190.935 240.195 191.037 240.136 191.119 240.053L203.115 228.056C204.295 226.874 204.295 224.959 203.115 223.777L202.326 222.988ZM187.515 235.422L197.334 225.603L200.5 228.77L190.682 238.588L187.515 235.422ZM186.883 236.691L189.413 239.221L185.913 240.191L186.883 236.691ZM202.165 227.106L201.451 227.819L198.285 224.652L198.998 223.939C199.654 223.282 200.719 223.282 201.375 223.939L202.165 224.728C202.82 225.385 202.82 226.449 202.165 227.106Z" fill="#8F00FF"/>
</g>
<path d="M50.18 39.08V40.94H44.78V45.02H49.58V46.88H44.78V51.14H50.18V53H42.5V39.08H50.18ZM68.6083 53V46.84C68.6083 44.82 67.5083 43.78 65.8483 43.78C64.1683 43.78 63.0683 44.82 63.0683 46.84V53H60.8083V46.84C60.8083 44.82 59.7083 43.78 58.0483 43.78C56.3683 43.78 55.2683 44.82 55.2683 46.84V53H52.9883V41.98H55.2683V43.24C56.0083 42.34 57.2083 41.8 58.5283 41.8C60.2683 41.8 61.7283 42.54 62.4883 43.98C63.1683 42.64 64.7283 41.8 66.3283 41.8C68.9083 41.8 70.8683 43.42 70.8683 46.5V53H68.6083ZM73.0095 47.44C73.0095 44.04 75.3095 41.8 78.2095 41.8C80.0695 41.8 81.3495 42.68 82.0295 43.58V41.98H84.3295V53H82.0295V51.36C81.3295 52.3 80.0095 53.18 78.1695 53.18C75.3095 53.18 73.0095 50.84 73.0095 47.44ZM82.0295 47.48C82.0295 45.12 80.4095 43.78 78.6895 43.78C76.9895 43.78 75.3495 45.06 75.3495 47.44C75.3495 49.82 76.9895 51.2 78.6895 51.2C80.4095 51.2 82.0295 49.86 82.0295 47.48ZM87.3242 53V41.98H89.6042V53H87.3242ZM88.4842 40.52C87.6642 40.52 87.0242 39.88 87.0242 39.06C87.0242 38.24 87.6642 37.6 88.4842 37.6C89.2842 37.6 89.9242 38.24 89.9242 39.06C89.9242 39.88 89.2842 40.52 88.4842 40.52ZM92.5977 53V38.2H94.8777V53H92.5977ZM112.206 39.08H114.486V53H112.206L105.346 42.62V53H103.066V39.08H105.346L112.206 49.44V39.08ZM127.98 47.48C127.98 50.94 125.42 53.18 122.26 53.18C119.12 53.18 116.74 50.94 116.74 47.48C116.74 44.02 119.22 41.8 122.36 41.8C125.5 41.8 127.98 44.02 127.98 47.48ZM119.06 47.48C119.06 49.98 120.54 51.2 122.26 51.2C123.96 51.2 125.64 49.98 125.64 47.48C125.64 44.98 124.02 43.78 122.32 43.78C120.6 43.78 119.06 44.98 119.06 47.48ZM130.594 49.94V43.84H129.294V41.98H130.594V39.24H132.894V41.98H135.574V43.84H132.894V49.94C132.894 50.76 133.214 51.1 134.174 51.1H135.574V53H133.774C131.814 53 130.594 52.18 130.594 49.94ZM137.676 53V41.98H139.956V53H137.676ZM138.836 40.52C138.016 40.52 137.376 39.88 137.376 39.06C137.376 38.24 138.016 37.6 138.836 37.6C139.636 37.6 140.276 38.24 140.276 39.06C140.276 39.88 139.636 40.52 138.836 40.52ZM143.229 53V43.84H141.929V41.98H143.229V41.2C143.229 38.66 144.529 37.56 147.409 37.56V39.46C146.009 39.46 145.529 39.94 145.529 41.2V41.98H147.569V43.84H145.529V53H143.229ZM149.59 53V41.98H151.87V53H149.59ZM150.75 40.52C149.93 40.52 149.29 39.88 149.29 39.06C149.29 38.24 149.93 37.6 150.75 37.6C151.55 37.6 152.19 38.24 152.19 39.06C152.19 39.88 151.55 40.52 150.75 40.52ZM154.103 47.48C154.103 44.04 156.343 41.8 159.503 41.8C162.203 41.8 163.963 43.14 164.583 45.46H162.123C161.743 44.4 160.863 43.72 159.503 43.72C157.663 43.72 156.443 45.08 156.443 47.48C156.443 49.9 157.663 51.26 159.503 51.26C160.863 51.26 161.703 50.66 162.123 49.52H164.583C163.963 51.68 162.203 53.18 159.503 53.18C156.343 53.18 154.103 50.94 154.103 47.48ZM166.095 47.44C166.095 44.04 168.395 41.8 171.295 41.8C173.155 41.8 174.435 42.68 175.115 43.58V41.98H177.415V53H175.115V51.36C174.415 52.3 173.095 53.18 171.255 53.18C168.395 53.18 166.095 50.84 166.095 47.44ZM175.115 47.48C175.115 45.12 173.495 43.78 171.775 43.78C170.075 43.78 168.435 45.06 168.435 47.44C168.435 49.82 170.075 51.2 171.775 51.2C173.495 51.2 175.115 49.86 175.115 47.48ZM180.77 49.94V43.84H179.47V41.98H180.77V39.24H183.07V41.98H185.75V43.84H183.07V49.94C183.07 50.76 183.39 51.1 184.35 51.1H185.75V53H183.95C181.99 53 180.77 52.18 180.77 49.94ZM187.852 53V41.98H190.132V53H187.852ZM189.012 40.52C188.192 40.52 187.552 39.88 187.552 39.06C187.552 38.24 188.192 37.6 189.012 37.6C189.812 37.6 190.452 38.24 190.452 39.06C190.452 39.88 189.812 40.52 189.012 40.52ZM203.625 47.48C203.625 50.94 201.065 53.18 197.905 53.18C194.765 53.18 192.385 50.94 192.385 47.48C192.385 44.02 194.865 41.8 198.005 41.8C201.145 41.8 203.625 44.02 203.625 47.48ZM194.705 47.48C194.705 49.98 196.185 51.2 197.905 51.2C199.605 51.2 201.285 49.98 201.285 47.48C201.285 44.98 199.665 43.78 197.965 43.78C196.245 43.78 194.705 44.98 194.705 47.48ZM213.699 53V46.84C213.699 44.82 212.599 43.78 210.939 43.78C209.259 43.78 208.159 44.82 208.159 46.84V53H205.879V41.98H208.159V43.24C208.899 42.34 210.119 41.8 211.439 41.8C214.019 41.8 215.959 43.42 215.959 46.5V53H213.699ZM227.087 49.92C227.087 51.78 225.467 53.18 222.867 53.18C220.227 53.18 218.367 51.62 218.267 49.62H220.627C220.707 50.52 221.567 51.26 222.827 51.26C224.147 51.26 224.847 50.7 224.847 49.94C224.847 47.78 218.447 49.02 218.447 44.98C218.447 43.22 220.087 41.8 222.687 41.8C225.187 41.8 226.827 43.14 226.947 45.34H224.667C224.587 44.38 223.847 43.72 222.607 43.72C221.387 43.72 220.747 44.22 220.747 44.96C220.747 47.18 226.967 45.94 227.087 49.92Z" fill="black"/>
<path d="M50.54 84.58C50.54 86.362 49.082 88.126 46.364 88.126C43.844 88.126 42.062 86.722 42.026 84.652H43.772C43.88 85.696 44.618 86.74 46.364 86.74C47.948 86.74 48.884 85.84 48.884 84.652C48.884 81.268 42.098 83.428 42.098 78.766C42.098 76.696 43.772 75.292 46.256 75.292C48.65 75.292 50.216 76.606 50.414 78.514H48.614C48.506 77.668 47.714 76.714 46.184 76.696C44.834 76.66 43.772 77.362 43.772 78.712C43.772 81.952 50.54 79.936 50.54 84.58ZM52.3385 83.05C52.3385 79.954 54.3365 77.974 57.1445 77.974C59.5925 77.974 61.1945 79.234 61.6985 81.304H59.9345C59.5925 80.116 58.6025 79.36 57.1445 79.36C55.3445 79.36 54.0125 80.638 54.0125 83.05C54.0125 85.498 55.3445 86.776 57.1445 86.776C58.6025 86.776 59.5745 86.074 59.9345 84.832H61.6985C61.1945 86.794 59.5925 88.162 57.1445 88.162C54.3365 88.162 52.3385 86.182 52.3385 83.05ZM63.884 88V74.68H65.522V79.558C66.17 78.514 67.394 77.956 68.78 77.956C70.976 77.956 72.722 79.36 72.722 82.186V88H71.102V82.42C71.102 80.404 70.004 79.378 68.348 79.378C66.674 79.378 65.522 80.422 65.522 82.546V88H63.884ZM79.5917 79.36C77.9897 79.36 76.6577 80.422 76.4777 82.348H82.7057C82.7237 80.422 81.2837 79.36 79.5917 79.36ZM84.1997 84.958C83.6957 86.758 82.1117 88.162 79.6637 88.162C76.8557 88.162 74.7857 86.182 74.7857 83.05C74.7857 79.936 76.7837 77.974 79.6637 77.974C82.5257 77.974 84.3977 79.99 84.3977 82.69C84.3977 83.05 84.3797 83.338 84.3437 83.68H76.4597C76.5857 85.678 77.9897 86.776 79.6637 86.776C81.1397 86.776 82.0757 86.02 82.4357 84.958H84.1997ZM85.9478 83.032C85.9478 79.954 87.9818 77.974 90.6458 77.974C92.1938 77.974 93.6158 78.766 94.2998 79.9V74.68H95.9558V88H94.2998V86.146C93.7058 87.244 92.4278 88.162 90.6278 88.162C87.9818 88.162 85.9478 86.092 85.9478 83.032ZM94.2998 83.05C94.2998 80.764 92.7518 79.396 90.9518 79.396C89.1518 79.396 87.6218 80.71 87.6218 83.032C87.6218 85.354 89.1518 86.722 90.9518 86.722C92.7518 86.722 94.2998 85.372 94.2998 83.05ZM107.472 78.136V88H105.834V86.542C105.204 87.568 103.998 88.144 102.684 88.144C100.416 88.144 98.6339 86.74 98.6339 83.914V78.136H100.254V83.698C100.254 85.696 101.352 86.722 103.008 86.722C104.7 86.722 105.834 85.678 105.834 83.554V78.136H107.472ZM110.238 88V74.68H111.876V88H110.238ZM118.861 79.36C117.259 79.36 115.927 80.422 115.747 82.348H121.975C121.993 80.422 120.553 79.36 118.861 79.36ZM123.469 84.958C122.965 86.758 121.381 88.162 118.933 88.162C116.125 88.162 114.055 86.182 114.055 83.05C114.055 79.936 116.053 77.974 118.933 77.974C121.795 77.974 123.667 79.99 123.667 82.69C123.667 83.05 123.649 83.338 123.613 83.68H115.729C115.855 85.678 117.259 86.776 118.933 86.776C120.409 86.776 121.345 86.02 121.705 84.958H123.469ZM132.266 79.954C132.86 78.91 134.156 77.974 135.956 77.974C138.602 77.974 140.636 79.954 140.636 83.032C140.636 86.092 138.602 88.162 135.956 88.162C134.156 88.162 132.878 87.19 132.266 86.182V92.68H130.628V78.136H132.266V79.954ZM138.962 83.032C138.962 80.71 137.432 79.396 135.614 79.396C133.832 79.396 132.266 80.764 132.266 83.05C132.266 85.372 133.832 86.722 135.614 86.722C137.432 86.722 138.962 85.354 138.962 83.032ZM152.152 83.05C152.152 86.182 149.902 88.162 147.094 88.162C144.304 88.162 142.18 86.182 142.18 83.05C142.18 79.936 144.376 77.974 147.166 77.974C149.974 77.974 152.152 79.936 152.152 83.05ZM143.854 83.05C143.854 85.552 145.384 86.722 147.094 86.722C148.804 86.722 150.478 85.552 150.478 83.05C150.478 80.566 148.84 79.396 147.148 79.396C145.42 79.396 143.854 80.566 143.854 83.05ZM161.398 85.318C161.398 86.938 159.976 88.162 157.798 88.162C155.494 88.162 153.874 86.902 153.766 85.102H155.458C155.548 86.056 156.394 86.776 157.78 86.776C159.076 86.776 159.796 86.128 159.796 85.318C159.796 83.122 153.964 84.4 153.964 80.728C153.964 79.216 155.386 77.974 157.582 77.974C159.76 77.974 161.2 79.144 161.308 81.07H159.67C159.598 80.08 158.842 79.36 157.528 79.36C156.322 79.36 155.602 79.936 155.602 80.728C155.602 83.068 161.326 81.79 161.398 85.318ZM164.07 85.3V79.486H162.792V78.136H164.07V75.652H165.708V78.136H168.282V79.486H165.708V85.3C165.708 86.272 166.068 86.614 167.076 86.614H168.282V88H166.806C165.06 88 164.07 87.28 164.07 85.3ZM175.426 85.3V79.486H174.148V78.136H175.426V75.652H177.064V78.136H179.638V79.486H177.064V85.3C177.064 86.272 177.424 86.614 178.432 86.614H179.638V88H178.162C176.416 88 175.426 87.28 175.426 85.3ZM190.982 83.05C190.982 86.182 188.732 88.162 185.924 88.162C183.134 88.162 181.01 86.182 181.01 83.05C181.01 79.936 183.206 77.974 185.996 77.974C188.804 77.974 190.982 79.936 190.982 83.05ZM182.684 83.05C182.684 85.552 184.214 86.722 185.924 86.722C187.634 86.722 189.308 85.552 189.308 83.05C189.308 80.566 187.67 79.396 185.978 79.396C184.25 79.396 182.684 80.566 182.684 83.05ZM199.573 79.972C200.203 78.874 201.517 77.974 203.263 77.974C205.927 77.974 207.943 79.954 207.943 83.032C207.943 86.092 205.909 88.162 203.263 88.162C201.463 88.162 200.185 87.262 199.573 86.182V88H197.935V74.68H199.573V79.972ZM206.269 83.032C206.269 80.71 204.739 79.396 202.921 79.396C201.139 79.396 199.573 80.764 199.573 83.05C199.573 85.372 201.139 86.722 202.921 86.722C204.739 86.722 206.269 85.354 206.269 83.032ZM219.459 83.05C219.459 86.182 217.209 88.162 214.401 88.162C211.611 88.162 209.487 86.182 209.487 83.05C209.487 79.936 211.683 77.974 214.473 77.974C217.281 77.974 219.459 79.936 219.459 83.05ZM211.161 83.05C211.161 85.552 212.691 86.722 214.401 86.722C216.111 86.722 217.785 85.552 217.785 83.05C217.785 80.566 216.147 79.396 214.455 79.396C212.727 79.396 211.161 80.566 211.161 83.05ZM230.973 83.05C230.973 86.182 228.723 88.162 225.915 88.162C223.125 88.162 221.001 86.182 221.001 83.05C221.001 79.936 223.197 77.974 225.987 77.974C228.795 77.974 230.973 79.936 230.973 83.05ZM222.675 83.05C222.675 85.552 224.205 86.722 225.915 86.722C227.625 86.722 229.299 85.552 229.299 83.05C229.299 80.566 227.661 79.396 225.969 79.396C224.241 79.396 222.675 80.566 222.675 83.05ZM240.218 85.318C240.218 86.938 238.796 88.162 236.618 88.162C234.314 88.162 232.694 86.902 232.586 85.102H234.278C234.368 86.056 235.214 86.776 236.6 86.776C237.896 86.776 238.616 86.128 238.616 85.318C238.616 83.122 232.784 84.4 232.784 80.728C232.784 79.216 234.206 77.974 236.402 77.974C238.58 77.974 240.02 79.144 240.128 81.07H238.49C238.418 80.08 237.662 79.36 236.348 79.36C235.142 79.36 234.422 79.936 234.422 80.728C234.422 83.068 240.146 81.79 240.218 85.318ZM242.891 85.3V79.486H241.613V78.136H242.891V75.652H244.529V78.136H247.103V79.486H244.529V85.3C244.529 86.272 244.889 86.614 245.897 86.614H247.103V88H245.627C243.881 88 242.891 87.28 242.891 85.3ZM257.63 86.128L260.69 78.136H262.382L256.442 92.644H254.75L256.694 87.892L252.716 78.136H254.534L257.63 86.128ZM273.389 83.05C273.389 86.182 271.139 88.162 268.331 88.162C265.541 88.162 263.417 86.182 263.417 83.05C263.417 79.936 265.613 77.974 268.403 77.974C271.211 77.974 273.389 79.936 273.389 83.05ZM265.091 83.05C265.091 85.552 266.621 86.722 268.331 86.722C270.041 86.722 271.715 85.552 271.715 83.05C271.715 80.566 270.077 79.396 268.385 79.396C266.657 79.396 265.091 80.566 265.091 83.05ZM284.29 78.136V88H282.652V86.542C282.022 87.568 280.816 88.144 279.502 88.144C277.234 88.144 275.452 86.74 275.452 83.914V78.136H277.072V83.698C277.072 85.696 278.17 86.722 279.826 86.722C281.518 86.722 282.652 85.678 282.652 83.554V78.136H284.29ZM288.694 82.636V88H287.056V78.136H288.694V79.738C289.252 78.64 290.314 77.956 291.88 77.956V79.648H291.448C289.882 79.648 288.694 80.35 288.694 82.636ZM44.024 103.972C44.654 102.874 45.968 101.974 47.714 101.974C50.378 101.974 52.394 103.954 52.394 107.032C52.394 110.092 50.36 112.162 47.714 112.162C45.914 112.162 44.636 111.262 44.024 110.182V112H42.386V98.68H44.024V103.972ZM50.72 107.032C50.72 104.71 49.19 103.396 47.372 103.396C45.59 103.396 44.024 104.764 44.024 107.05C44.024 109.372 45.59 110.722 47.372 110.722C49.19 110.722 50.72 109.354 50.72 107.032ZM63.2981 102.136V112H61.6601V110.542C61.0301 111.568 59.8241 112.144 58.5101 112.144C56.2421 112.144 54.4601 110.74 54.4601 107.914V102.136H56.0801V107.698C56.0801 109.696 57.1781 110.722 58.8341 110.722C60.5261 110.722 61.6601 109.678 61.6601 107.554V102.136H63.2981ZM73.1557 109.318C73.1557 110.938 71.7337 112.162 69.5557 112.162C67.2517 112.162 65.6317 110.902 65.5237 109.102H67.2157C67.3057 110.056 68.1517 110.776 69.5377 110.776C70.8337 110.776 71.5537 110.128 71.5537 109.318C71.5537 107.122 65.7217 108.4 65.7217 104.728C65.7217 103.216 67.1437 101.974 69.3397 101.974C71.5177 101.974 72.9577 103.144 73.0657 105.07H71.4277C71.3557 104.08 70.5997 103.36 69.2857 103.36C68.0797 103.36 67.3597 103.936 67.3597 104.728C67.3597 107.068 73.0837 105.79 73.1557 109.318ZM75.468 112V102.136H77.106V112H75.468ZM76.314 100.534C75.684 100.534 75.198 100.048 75.198 99.418C75.198 98.788 75.684 98.302 76.314 98.302C76.908 98.302 77.394 98.788 77.394 99.418C77.394 100.048 76.908 100.534 76.314 100.534ZM87.1157 112V106.42C87.1157 104.404 86.0177 103.378 84.3617 103.378C82.6877 103.378 81.5357 104.422 81.5357 106.546V112H79.8977V102.136H81.5357V103.54C82.1837 102.514 83.3717 101.956 84.7037 101.956C86.9897 101.956 88.7357 103.36 88.7357 106.186V112H87.1157ZM95.6054 103.36C94.0034 103.36 92.6714 104.422 92.4914 106.348H98.7194C98.7374 104.422 97.2974 103.36 95.6054 103.36ZM100.213 108.958C99.7094 110.758 98.1254 112.162 95.6774 112.162C92.8694 112.162 90.7994 110.182 90.7994 107.05C90.7994 103.936 92.7974 101.974 95.6774 101.974C98.5394 101.974 100.411 103.99 100.411 106.69C100.411 107.05 100.393 107.338 100.357 107.68H92.4734C92.5994 109.678 94.0034 110.776 95.6774 110.776C97.1534 110.776 98.0894 110.02 98.4494 108.958H100.213ZM109.666 109.318C109.666 110.938 108.244 112.162 106.066 112.162C103.762 112.162 102.142 110.902 102.034 109.102H103.726C103.816 110.056 104.662 110.776 106.048 110.776C107.344 110.776 108.064 110.128 108.064 109.318C108.064 107.122 102.232 108.4 102.232 104.728C102.232 103.216 103.654 101.974 105.85 101.974C108.028 101.974 109.468 103.144 109.576 105.07H107.938C107.866 104.08 107.11 103.36 105.796 103.36C104.59 103.36 103.87 103.936 103.87 104.728C103.87 107.068 109.594 105.79 109.666 109.318ZM119.07 109.318C119.07 110.938 117.648 112.162 115.47 112.162C113.166 112.162 111.546 110.902 111.438 109.102H113.13C113.22 110.056 114.066 110.776 115.452 110.776C116.748 110.776 117.468 110.128 117.468 109.318C117.468 107.122 111.636 108.4 111.636 104.728C111.636 103.216 113.058 101.974 115.254 101.974C117.432 101.974 118.872 103.144 118.98 105.07H117.342C117.27 104.08 116.514 103.36 115.2 103.36C113.994 103.36 113.274 103.936 113.274 104.728C113.274 107.068 118.998 105.79 119.07 109.318ZM130.375 103.36C128.773 103.36 127.441 104.422 127.261 106.348H133.489C133.507 104.422 132.067 103.36 130.375 103.36ZM134.983 108.958C134.479 110.758 132.895 112.162 130.447 112.162C127.639 112.162 125.569 110.182 125.569 107.05C125.569 103.936 127.567 101.974 130.447 101.974C133.309 101.974 135.181 103.99 135.181 106.69C135.181 107.05 135.163 107.338 135.127 107.68H127.243C127.369 109.678 128.773 110.776 130.447 110.776C131.923 110.776 132.859 110.02 133.219 108.958H134.983ZM144.561 112V106.42C144.561 104.404 143.463 103.378 141.807 103.378C140.133 103.378 138.981 104.422 138.981 106.546V112H137.343V102.136H138.981V103.54C139.629 102.514 140.817 101.956 142.149 101.956C144.435 101.956 146.181 103.36 146.181 106.186V112H144.561ZM148.245 107.032C148.245 103.954 150.279 101.974 152.925 101.974C154.725 101.974 156.021 102.874 156.597 103.936V102.136H158.253V112.216C158.253 114.934 156.435 116.86 153.537 116.86C150.945 116.86 149.091 115.546 148.767 113.44H150.387C150.747 114.628 151.917 115.438 153.537 115.438C155.283 115.438 156.597 114.322 156.597 112.216V110.146C156.003 111.208 154.725 112.162 152.925 112.162C150.279 112.162 148.245 110.092 148.245 107.032ZM156.597 107.05C156.597 104.764 155.049 103.396 153.249 103.396C151.449 103.396 149.919 104.71 149.919 107.032C149.919 109.354 151.449 110.722 153.249 110.722C155.049 110.722 156.597 109.372 156.597 107.05ZM160.409 107.032C160.409 103.954 162.443 101.974 165.089 101.974C166.925 101.974 168.185 102.91 168.761 103.936V102.136H170.417V112H168.761V110.164C168.167 111.226 166.889 112.162 165.071 112.162C162.443 112.162 160.409 110.092 160.409 107.032ZM168.761 107.05C168.761 104.764 167.213 103.396 165.413 103.396C163.613 103.396 162.083 104.71 162.083 107.032C162.083 109.354 163.613 110.722 165.413 110.722C167.213 110.722 168.761 109.372 168.761 107.05ZM172.573 107.032C172.573 103.954 174.607 101.974 177.253 101.974C179.053 101.974 180.349 102.874 180.925 103.936V102.136H182.581V112.216C182.581 114.934 180.763 116.86 177.865 116.86C175.273 116.86 173.419 115.546 173.095 113.44H174.715C175.075 114.628 176.245 115.438 177.865 115.438C179.611 115.438 180.925 114.322 180.925 112.216V110.146C180.331 111.208 179.053 112.162 177.253 112.162C174.607 112.162 172.573 110.092 172.573 107.032ZM180.925 107.05C180.925 104.764 179.377 103.396 177.577 103.396C175.777 103.396 174.247 104.71 174.247 107.032C174.247 109.354 175.777 110.722 177.577 110.722C179.377 110.722 180.925 109.372 180.925 107.05ZM189.543 103.36C187.941 103.36 186.609 104.422 186.429 106.348H192.657C192.675 104.422 191.235 103.36 189.543 103.36ZM194.151 108.958C193.647 110.758 192.063 112.162 189.615 112.162C186.807 112.162 184.737 110.182 184.737 107.05C184.737 103.936 186.735 101.974 189.615 101.974C192.477 101.974 194.349 103.99 194.349 106.69C194.349 107.05 194.331 107.338 194.295 107.68H186.411C186.537 109.678 187.941 110.776 189.615 110.776C191.091 110.776 192.027 110.02 192.387 108.958H194.151ZM210.749 112V106.42C210.749 104.404 209.669 103.378 208.049 103.378C206.393 103.378 205.259 104.44 205.259 106.564V112H203.639V106.42C203.639 104.404 202.559 103.378 200.939 103.378C199.283 103.378 198.149 104.44 198.149 106.564V112H196.511V102.136H198.149V103.558C198.797 102.514 199.967 101.956 201.263 101.956C202.883 101.956 204.233 102.676 204.881 104.152C205.457 102.73 206.861 101.956 208.373 101.956C210.623 101.956 212.369 103.36 212.369 106.186V112H210.749ZM219.25 103.36C217.648 103.36 216.316 104.422 216.136 106.348H222.364C222.382 104.422 220.942 103.36 219.25 103.36ZM223.858 108.958C223.354 110.758 221.77 112.162 219.322 112.162C216.514 112.162 214.444 110.182 214.444 107.05C214.444 103.936 216.442 101.974 219.322 101.974C222.184 101.974 224.056 103.99 224.056 106.69C224.056 107.05 224.038 107.338 224.002 107.68H216.118C216.244 109.678 217.648 110.776 219.322 110.776C220.798 110.776 221.734 110.02 222.094 108.958H223.858ZM233.436 112V106.42C233.436 104.404 232.338 103.378 230.682 103.378C229.008 103.378 227.856 104.422 227.856 106.546V112H226.218V102.136H227.856V103.54C228.504 102.514 229.692 101.956 231.024 101.956C233.31 101.956 235.056 103.36 235.056 106.186V112H233.436ZM238.092 109.3V103.486H236.814V102.136H238.092V99.652H239.73V102.136H242.304V103.486H239.73V109.3C239.73 110.272 240.09 110.614 241.098 110.614H242.304V112H240.828C239.082 112 238.092 111.28 238.092 109.3Z" fill="#595959"/>
<rect x="329" y="34" width="60" height="30" rx="15" fill="white"/>
<path d="M362 49C362 55.6274 367.373 61 374 61C380.627 61 386 55.6274 386 49C386 42.3726 380.627 37 374 37C367.373 37 362 42.3726 362 49Z" fill="url(#paint0_linear_1043_1372)"/>
<rect x="42" y="138" width="347" height="51" rx="9" fill="white"/>
<path d="M125.544 158.928V170H124.088V161.744L120.408 170H119.384L115.688 161.728V170H114.232V158.928H115.8L119.896 168.08L123.992 158.928H125.544ZM127.469 165.584C127.469 164.688 127.651 163.904 128.013 163.232C128.376 162.549 128.872 162.021 129.501 161.648C130.141 161.275 130.851 161.088 131.629 161.088C132.397 161.088 133.064 161.253 133.629 161.584C134.195 161.915 134.616 162.331 134.893 162.832V161.232H136.365V170H134.893V168.368C134.605 168.88 134.173 169.307 133.597 169.648C133.032 169.979 132.371 170.144 131.613 170.144C130.835 170.144 130.131 169.952 129.501 169.568C128.872 169.184 128.376 168.645 128.013 167.952C127.651 167.259 127.469 166.469 127.469 165.584ZM134.893 165.6C134.893 164.939 134.76 164.363 134.493 163.872C134.227 163.381 133.864 163.008 133.405 162.752C132.957 162.485 132.461 162.352 131.917 162.352C131.373 162.352 130.877 162.48 130.429 162.736C129.981 162.992 129.624 163.365 129.357 163.856C129.091 164.347 128.957 164.923 128.957 165.584C128.957 166.256 129.091 166.843 129.357 167.344C129.624 167.835 129.981 168.213 130.429 168.48C130.877 168.736 131.373 168.864 131.917 168.864C132.461 168.864 132.957 168.736 133.405 168.48C133.864 168.213 134.227 167.835 134.493 167.344C134.76 166.843 134.893 166.261 134.893 165.6ZM143.098 161.072C144.164 161.072 145.028 161.397 145.69 162.048C146.351 162.688 146.682 163.616 146.682 164.832V170H145.242V165.04C145.242 164.165 145.023 163.499 144.586 163.04C144.148 162.571 143.551 162.336 142.794 162.336C142.026 162.336 141.412 162.576 140.954 163.056C140.506 163.536 140.282 164.235 140.282 165.152V170H138.826V161.232H140.282V162.48C140.57 162.032 140.959 161.685 141.45 161.44C141.951 161.195 142.5 161.072 143.098 161.072ZM148.516 165.584C148.516 164.688 148.697 163.904 149.06 163.232C149.423 162.549 149.919 162.021 150.548 161.648C151.188 161.275 151.897 161.088 152.676 161.088C153.444 161.088 154.111 161.253 154.676 161.584C155.241 161.915 155.663 162.331 155.94 162.832V161.232H157.412V170H155.94V168.368C155.652 168.88 155.22 169.307 154.644 169.648C154.079 169.979 153.417 170.144 152.66 170.144C151.881 170.144 151.177 169.952 150.548 169.568C149.919 169.184 149.423 168.645 149.06 167.952C148.697 167.259 148.516 166.469 148.516 165.584ZM155.94 165.6C155.94 164.939 155.807 164.363 155.54 163.872C155.273 163.381 154.911 163.008 154.452 162.752C154.004 162.485 153.508 162.352 152.964 162.352C152.42 162.352 151.924 162.48 151.476 162.736C151.028 162.992 150.671 163.365 150.404 163.856C150.137 164.347 150.004 164.923 150.004 165.584C150.004 166.256 150.137 166.843 150.404 167.344C150.671 167.835 151.028 168.213 151.476 168.48C151.924 168.736 152.42 168.864 152.964 168.864C153.508 168.864 154.004 168.736 154.452 168.48C154.911 168.213 155.273 167.835 155.54 167.344C155.807 166.843 155.94 166.261 155.94 165.6ZM163.489 161.088C164.246 161.088 164.907 161.253 165.473 161.584C166.049 161.915 166.475 162.331 166.753 162.832V161.232H168.225V170.192C168.225 170.992 168.054 171.701 167.713 172.32C167.371 172.949 166.881 173.44 166.241 173.792C165.611 174.144 164.875 174.32 164.033 174.32C162.881 174.32 161.921 174.048 161.153 173.504C160.385 172.96 159.931 172.219 159.793 171.28H161.233C161.393 171.813 161.723 172.24 162.225 172.56C162.726 172.891 163.329 173.056 164.033 173.056C164.833 173.056 165.483 172.805 165.985 172.304C166.497 171.803 166.753 171.099 166.753 170.192V168.352C166.465 168.864 166.038 169.291 165.473 169.632C164.907 169.973 164.246 170.144 163.489 170.144C162.71 170.144 162.001 169.952 161.361 169.568C160.731 169.184 160.235 168.645 159.873 167.952C159.51 167.259 159.329 166.469 159.329 165.584C159.329 164.688 159.51 163.904 159.873 163.232C160.235 162.549 160.731 162.021 161.361 161.648C162.001 161.275 162.71 161.088 163.489 161.088ZM166.753 165.6C166.753 164.939 166.619 164.363 166.353 163.872C166.086 163.381 165.723 163.008 165.265 162.752C164.817 162.485 164.321 162.352 163.777 162.352C163.233 162.352 162.737 162.48 162.289 162.736C161.841 162.992 161.483 163.365 161.217 163.856C160.95 164.347 160.817 164.923 160.817 165.584C160.817 166.256 160.95 166.843 161.217 167.344C161.483 167.835 161.841 168.213 162.289 168.48C162.737 168.736 163.233 168.864 163.777 168.864C164.321 168.864 164.817 168.736 165.265 168.48C165.723 168.213 166.086 167.835 166.353 167.344C166.619 166.843 166.753 166.261 166.753 165.6ZM178.685 165.28C178.685 165.557 178.669 165.851 178.637 166.16H171.629C171.682 167.024 171.976 167.701 172.509 168.192C173.053 168.672 173.709 168.912 174.477 168.912C175.106 168.912 175.629 168.768 176.045 168.48C176.472 168.181 176.77 167.787 176.941 167.296H178.509C178.274 168.139 177.805 168.827 177.101 169.36C176.397 169.883 175.522 170.144 174.477 170.144C173.645 170.144 172.898 169.957 172.237 169.584C171.586 169.211 171.074 168.683 170.701 168C170.328 167.307 170.141 166.507 170.141 165.6C170.141 164.693 170.322 163.899 170.685 163.216C171.048 162.533 171.554 162.011 172.205 161.648C172.866 161.275 173.624 161.088 174.477 161.088C175.309 161.088 176.045 161.269 176.685 161.632C177.325 161.995 177.816 162.496 178.157 163.136C178.509 163.765 178.685 164.48 178.685 165.28ZM177.181 164.976C177.181 164.421 177.058 163.947 176.813 163.552C176.568 163.147 176.232 162.843 175.805 162.64C175.389 162.427 174.925 162.32 174.413 162.32C173.677 162.32 173.048 162.555 172.525 163.024C172.013 163.493 171.72 164.144 171.645 164.976H177.181ZM186.329 160.032V163.76H190.393V164.96H186.329V168.8H190.873V170H184.873V158.832H190.873V160.032H186.329ZM203.62 161.072C204.302 161.072 204.91 161.216 205.444 161.504C205.977 161.781 206.398 162.203 206.708 162.768C207.017 163.333 207.172 164.021 207.172 164.832V170H205.732V165.04C205.732 164.165 205.513 163.499 205.076 163.04C204.649 162.571 204.068 162.336 203.332 162.336C202.574 162.336 201.972 162.581 201.524 163.072C201.076 163.552 200.852 164.251 200.852 165.168V170H199.412V165.04C199.412 164.165 199.193 163.499 198.756 163.04C198.329 162.571 197.748 162.336 197.012 162.336C196.254 162.336 195.652 162.581 195.204 163.072C194.756 163.552 194.532 164.251 194.532 165.168V170H193.076V161.232H194.532V162.496C194.82 162.037 195.204 161.685 195.684 161.44C196.174 161.195 196.713 161.072 197.3 161.072C198.036 161.072 198.686 161.237 199.252 161.568C199.817 161.899 200.238 162.384 200.516 163.024C200.761 162.405 201.166 161.925 201.732 161.584C202.297 161.243 202.926 161.072 203.62 161.072ZM209.016 165.584C209.016 164.688 209.197 163.904 209.56 163.232C209.923 162.549 210.419 162.021 211.048 161.648C211.688 161.275 212.397 161.088 213.176 161.088C213.944 161.088 214.611 161.253 215.176 161.584C215.741 161.915 216.163 162.331 216.44 162.832V161.232H217.912V170H216.44V168.368C216.152 168.88 215.72 169.307 215.144 169.648C214.579 169.979 213.917 170.144 213.16 170.144C212.381 170.144 211.677 169.952 211.048 169.568C210.419 169.184 209.923 168.645 209.56 167.952C209.197 167.259 209.016 166.469 209.016 165.584ZM216.44 165.6C216.44 164.939 216.307 164.363 216.04 163.872C215.773 163.381 215.411 163.008 214.952 162.752C214.504 162.485 214.008 162.352 213.464 162.352C212.92 162.352 212.424 162.48 211.976 162.736C211.528 162.992 211.171 163.365 210.904 163.856C210.637 164.347 210.504 164.923 210.504 165.584C210.504 166.256 210.637 166.843 210.904 167.344C211.171 167.835 211.528 168.213 211.976 168.48C212.424 168.736 212.92 168.864 213.464 168.864C214.008 168.864 214.504 168.736 214.952 168.48C215.411 168.213 215.773 167.835 216.04 167.344C216.307 166.843 216.44 166.261 216.44 165.6ZM221.125 159.808C220.847 159.808 220.613 159.712 220.421 159.52C220.229 159.328 220.133 159.093 220.133 158.816C220.133 158.539 220.229 158.304 220.421 158.112C220.613 157.92 220.847 157.824 221.125 157.824C221.391 157.824 221.615 157.92 221.797 158.112C221.989 158.304 222.085 158.539 222.085 158.816C222.085 159.093 221.989 159.328 221.797 159.52C221.615 159.712 221.391 159.808 221.125 159.808ZM221.829 161.232V170H220.373V161.232H221.829ZM225.766 158.16V170H224.31V158.16H225.766ZM236.049 170.112C235.313 170.112 234.652 169.984 234.065 169.728C233.489 169.461 233.036 169.099 232.705 168.64C232.375 168.171 232.204 167.632 232.193 167.024H233.745C233.799 167.547 234.012 167.989 234.385 168.352C234.769 168.704 235.324 168.88 236.049 168.88C236.743 168.88 237.287 168.709 237.681 168.368C238.087 168.016 238.289 167.568 238.289 167.024C238.289 166.597 238.172 166.251 237.937 165.984C237.703 165.717 237.409 165.515 237.057 165.376C236.705 165.237 236.231 165.088 235.633 164.928C234.897 164.736 234.305 164.544 233.857 164.352C233.42 164.16 233.041 163.861 232.721 163.456C232.412 163.04 232.257 162.485 232.257 161.792C232.257 161.184 232.412 160.645 232.721 160.176C233.031 159.707 233.463 159.344 234.017 159.088C234.583 158.832 235.228 158.704 235.953 158.704C236.999 158.704 237.852 158.965 238.513 159.488C239.185 160.011 239.564 160.704 239.649 161.568H238.049C237.996 161.141 237.772 160.768 237.377 160.448C236.983 160.117 236.46 159.952 235.809 159.952C235.201 159.952 234.705 160.112 234.321 160.432C233.937 160.741 233.745 161.179 233.745 161.744C233.745 162.149 233.857 162.48 234.081 162.736C234.316 162.992 234.599 163.189 234.929 163.328C235.271 163.456 235.745 163.605 236.353 163.776C237.089 163.979 237.681 164.181 238.129 164.384C238.577 164.576 238.961 164.88 239.281 165.296C239.601 165.701 239.761 166.256 239.761 166.96C239.761 167.504 239.617 168.016 239.329 168.496C239.041 168.976 238.615 169.365 238.049 169.664C237.484 169.963 236.817 170.112 236.049 170.112ZM249.904 165.28C249.904 165.557 249.888 165.851 249.856 166.16H242.848C242.901 167.024 243.195 167.701 243.728 168.192C244.272 168.672 244.928 168.912 245.696 168.912C246.325 168.912 246.848 168.768 247.264 168.48C247.691 168.181 247.989 167.787 248.16 167.296H249.728C249.493 168.139 249.024 168.827 248.32 169.36C247.616 169.883 246.741 170.144 245.696 170.144C244.864 170.144 244.117 169.957 243.456 169.584C242.805 169.211 242.293 168.683 241.92 168C241.547 167.307 241.36 166.507 241.36 165.6C241.36 164.693 241.541 163.899 241.904 163.216C242.267 162.533 242.773 162.011 243.424 161.648C244.085 161.275 244.843 161.088 245.696 161.088C246.528 161.088 247.264 161.269 247.904 161.632C248.544 161.995 249.035 162.496 249.376 163.136C249.728 163.765 249.904 164.48 249.904 165.28ZM248.4 164.976C248.4 164.421 248.277 163.947 248.032 163.552C247.787 163.147 247.451 162.843 247.024 162.64C246.608 162.427 246.144 162.32 245.632 162.32C244.896 162.32 244.267 162.555 243.744 163.024C243.232 163.493 242.939 164.144 242.864 164.976H248.4ZM253.602 162.432V167.6C253.602 168.027 253.692 168.331 253.874 168.512C254.055 168.683 254.37 168.768 254.818 168.768H255.89V170H254.578C253.767 170 253.159 169.813 252.754 169.44C252.348 169.067 252.146 168.453 252.146 167.6V162.432H251.01V161.232H252.146V159.024H253.602V161.232H255.89V162.432H253.602ZM259.43 162.432V167.6C259.43 168.027 259.521 168.331 259.702 168.512C259.883 168.683 260.198 168.768 260.646 168.768H261.718V170H260.406C259.595 170 258.987 169.813 258.582 169.44C258.177 169.067 257.974 168.453 257.974 167.6V162.432H256.838V161.232H257.974V159.024H259.43V161.232H261.718V162.432H259.43ZM264.234 159.808C263.957 159.808 263.722 159.712 263.53 159.52C263.338 159.328 263.242 159.093 263.242 158.816C263.242 158.539 263.338 158.304 263.53 158.112C263.722 157.92 263.957 157.824 264.234 157.824C264.501 157.824 264.725 157.92 264.906 158.112C265.098 158.304 265.194 158.539 265.194 158.816C265.194 159.093 265.098 159.328 264.906 159.52C264.725 159.712 264.501 159.808 264.234 159.808ZM264.938 161.232V170H263.482V161.232H264.938ZM271.692 161.072C272.758 161.072 273.622 161.397 274.284 162.048C274.945 162.688 275.276 163.616 275.276 164.832V170H273.836V165.04C273.836 164.165 273.617 163.499 273.18 163.04C272.742 162.571 272.145 162.336 271.388 162.336C270.62 162.336 270.006 162.576 269.548 163.056C269.1 163.536 268.876 164.235 268.876 165.152V170H267.42V161.232H268.876V162.48C269.164 162.032 269.553 161.685 270.044 161.44C270.545 161.195 271.094 161.072 271.692 161.072ZM281.27 161.088C282.027 161.088 282.689 161.253 283.254 161.584C283.83 161.915 284.257 162.331 284.534 162.832V161.232H286.006V170.192C286.006 170.992 285.835 171.701 285.494 172.32C285.153 172.949 284.662 173.44 284.022 173.792C283.393 174.144 282.657 174.32 281.814 174.32C280.662 174.32 279.702 174.048 278.934 173.504C278.166 172.96 277.713 172.219 277.574 171.28H279.014C279.174 171.813 279.505 172.24 280.006 172.56C280.507 172.891 281.11 173.056 281.814 173.056C282.614 173.056 283.265 172.805 283.766 172.304C284.278 171.803 284.534 171.099 284.534 170.192V168.352C284.246 168.864 283.819 169.291 283.254 169.632C282.689 169.973 282.027 170.144 281.27 170.144C280.491 170.144 279.782 169.952 279.142 169.568C278.513 169.184 278.017 168.645 277.654 167.952C277.291 167.259 277.11 166.469 277.11 165.584C277.11 164.688 277.291 163.904 277.654 163.232C278.017 162.549 278.513 162.021 279.142 161.648C279.782 161.275 280.491 161.088 281.27 161.088ZM284.534 165.6C284.534 164.939 284.401 164.363 284.134 163.872C283.867 163.381 283.505 163.008 283.046 162.752C282.598 162.485 282.102 162.352 281.558 162.352C281.014 162.352 280.518 162.48 280.07 162.736C279.622 162.992 279.265 163.365 278.998 163.856C278.731 164.347 278.598 164.923 278.598 165.584C278.598 166.256 278.731 166.843 278.998 167.344C279.265 167.835 279.622 168.213 280.07 168.48C280.518 168.736 281.014 168.864 281.558 168.864C282.102 168.864 282.598 168.736 283.046 168.48C283.505 168.213 283.867 167.835 284.134 167.344C284.401 166.843 284.534 166.261 284.534 165.6ZM291.57 170.144C290.898 170.144 290.296 170.032 289.762 169.808C289.229 169.573 288.808 169.253 288.498 168.848C288.189 168.432 288.018 167.957 287.986 167.424H289.49C289.533 167.861 289.736 168.219 290.098 168.496C290.472 168.773 290.957 168.912 291.554 168.912C292.109 168.912 292.546 168.789 292.866 168.544C293.186 168.299 293.346 167.989 293.346 167.616C293.346 167.232 293.176 166.949 292.834 166.768C292.493 166.576 291.965 166.389 291.25 166.208C290.6 166.037 290.066 165.867 289.65 165.696C289.245 165.515 288.893 165.253 288.594 164.912C288.306 164.56 288.162 164.101 288.162 163.536C288.162 163.088 288.296 162.677 288.562 162.304C288.829 161.931 289.208 161.637 289.698 161.424C290.189 161.2 290.749 161.088 291.378 161.088C292.349 161.088 293.133 161.333 293.73 161.824C294.328 162.315 294.648 162.987 294.69 163.84H293.234C293.202 163.381 293.016 163.013 292.674 162.736C292.344 162.459 291.896 162.32 291.33 162.32C290.808 162.32 290.392 162.432 290.082 162.656C289.773 162.88 289.618 163.173 289.618 163.536C289.618 163.824 289.709 164.064 289.89 164.256C290.082 164.437 290.317 164.587 290.594 164.704C290.882 164.811 291.277 164.933 291.778 165.072C292.408 165.243 292.92 165.413 293.314 165.584C293.709 165.744 294.045 165.989 294.322 166.32C294.61 166.651 294.76 167.083 294.77 167.616C294.77 168.096 294.637 168.528 294.37 168.912C294.104 169.296 293.725 169.6 293.234 169.824C292.754 170.037 292.2 170.144 291.57 170.144Z" fill="black"/>
</g>
<rect x="0.203883" y="0.203883" width="409.592" height="274.592" rx="7.95146" stroke="#EAEAEA" stroke-width="0.407767"/>
<defs>
<filter id="filter0_f_1043_1372" x="-21.6602" y="-361.66" width="722.32" height="722.32" filterUnits="userSpaceOnUse" color-interpolation-filters="sRGB">
<feFlood flood-opacity="0" result="BackgroundImageFix"/>
<feBlend mode="normal" in="SourceGraphic" in2="BackgroundImageFix" result="shape"/>
<feGaussianBlur stdDeviation="122.33" result="effect1_foregroundBlur_1043_1372"/>
</filter>
<filter id="filter1_f_1043_1372" x="-284.66" y="-139.66" width="739.32" height="739.32" filterUnits="userSpaceOnUse" color-interpolation-filters="sRGB">
<feFlood flood-opacity="0" result="BackgroundImageFix"/>
<feBlend mode="normal" in="SourceGraphic" in2="BackgroundImageFix" result="shape"/>
<feGaussianBlur stdDeviation="122.33" result="effect1_foregroundBlur_1043_1372"/>
</filter>
<linearGradient id="paint0_linear_1043_1372" x1="362" y1="49.0101" x2="385.997" y2="49.0101" gradientUnits="userSpaceOnUse">
<stop stop-color="#0000FF"/>
<stop offset="0.49" stop-color="#8F00FF"/>
<stop offset="1" stop-color="#FF1494"/>
</linearGradient>
<clipPath id="clip0_1043_1372">
<rect width="410" height="275" rx="8.15534" fill="white"/>
</clipPath>
<clipPath id="clip1_1043_1372">
<rect width="27" height="27" fill="white" transform="translate(177 222)"/>
</clipPath>
</defs>
</svg>
