<svg width="410" height="275" viewBox="0 0 410 275" fill="none" xmlns="http://www.w3.org/2000/svg">
<g clip-path="url(#clip0_1043_1291)">
<rect width="410.214" height="275.243" rx="8.15534" fill="white"/>
<g opacity="0.2" filter="url(#filter0_f_1043_1291)">
<circle cx="339.5" cy="-0.5" r="116.5" fill="#FF1494"/>
</g>
<g filter="url(#filter1_f_1043_1291)">
<circle cx="85" cy="230" r="125" fill="#0000FF" fill-opacity="0.15"/>
</g>
<path d="M221.232 229.832V231.032H216.688V234.76H220.752V235.96H216.688V239.8H221.232V241H215.232V229.832H221.232ZM222.891 236.584C222.891 233.848 224.699 232.088 227.067 232.088C228.443 232.088 229.707 232.792 230.315 233.8V229.16H231.787V241H230.315V239.352C229.787 240.328 228.651 241.144 227.051 241.144C224.699 241.144 222.891 239.304 222.891 236.584ZM230.315 236.6C230.315 234.568 228.939 233.352 227.339 233.352C225.739 233.352 224.379 234.52 224.379 236.584C224.379 238.648 225.739 239.864 227.339 239.864C228.939 239.864 230.315 238.664 230.315 236.6ZM234.248 241V232.232H235.704V241H234.248ZM235 230.808C234.44 230.808 234.008 230.376 234.008 229.816C234.008 229.256 234.44 228.824 235 228.824C235.528 228.824 235.96 229.256 235.96 229.816C235.96 230.376 235.528 230.808 235 230.808ZM238.505 238.6V233.432H237.369V232.232H238.505V230.024H239.961V232.232H242.249V233.432H239.961V238.6C239.961 239.464 240.281 239.768 241.177 239.768H242.249V241H240.937C239.385 241 238.505 240.36 238.505 238.6Z" fill="#8F00FF"/>
<g clip-path="url(#clip1_1043_1291)">
<path d="M201.92 238.961C201.549 238.961 201.247 239.262 201.247 239.634V245.604C201.246 246.718 200.344 247.62 199.23 247.621H180.362C179.248 247.62 178.346 246.718 178.345 245.604V228.081C178.346 226.967 179.248 226.065 180.362 226.064H186.333C186.704 226.064 187.005 225.763 187.005 225.391C187.005 225.02 186.704 224.719 186.333 224.719H180.362C178.506 224.721 177.002 226.225 177 228.081V245.604C177.002 247.46 178.506 248.964 180.362 248.967H199.23C201.086 248.964 202.59 247.46 202.592 245.604V239.634C202.592 239.262 202.291 238.961 201.92 238.961Z" fill="#8F00FF"/>
<path d="M202.326 222.988C201.145 221.806 199.229 221.806 198.047 222.988L186.05 234.985C185.968 235.067 185.909 235.169 185.878 235.281L184.3 240.976C184.235 241.21 184.301 241.46 184.472 241.631C184.644 241.803 184.894 241.868 185.127 241.804L190.823 240.226C190.935 240.195 191.037 240.136 191.119 240.053L203.115 228.056C204.295 226.874 204.295 224.959 203.115 223.777L202.326 222.988ZM187.515 235.422L197.334 225.603L200.5 228.77L190.682 238.588L187.515 235.422ZM186.883 236.691L189.413 239.221L185.913 240.191L186.883 236.691ZM202.165 227.106L201.451 227.819L198.285 224.652L198.998 223.939C199.654 223.282 200.719 223.282 201.375 223.939L202.165 224.728C202.82 225.385 202.82 226.449 202.165 227.106Z" fill="#8F00FF"/>
</g>
<path d="M51.88 49.06C51.88 51.14 50.18 53.14 47.08 53.14C44.3 53.14 42.16 51.62 42.16 49.16H44.6C44.7 50.3 45.5 51.22 47.08 51.22C48.68 51.22 49.58 50.36 49.58 49.18C49.58 45.82 42.2 48 42.2 42.88C42.2 40.44 44.14 38.92 46.98 38.92C49.64 38.92 51.52 40.32 51.72 42.7H49.2C49.12 41.76 48.3 40.9 46.86 40.86C45.54 40.82 44.52 41.46 44.52 42.8C44.52 45.94 51.88 43.98 51.88 49.06ZM53.8103 47.48C53.8103 44.04 56.0503 41.8 59.2103 41.8C61.9103 41.8 63.6703 43.14 64.2903 45.46H61.8303C61.4503 44.4 60.5703 43.72 59.2103 43.72C57.3703 43.72 56.1503 45.08 56.1503 47.48C56.1503 49.9 57.3703 51.26 59.2103 51.26C60.5703 51.26 61.4103 50.66 61.8303 49.52H64.2903C63.6703 51.68 61.9103 53.18 59.2103 53.18C56.0503 53.18 53.8103 50.94 53.8103 47.48ZM66.5625 53V38.2H68.8425V43.26C69.6025 42.34 70.8425 41.8 72.2625 41.8C74.7225 41.8 76.6425 43.42 76.6425 46.5V53H74.3825V46.84C74.3825 44.82 73.2825 43.78 71.6225 43.78C69.9425 43.78 68.8425 44.82 68.8425 46.84V53H66.5625ZM84.1908 43.72C82.6508 43.72 81.4108 44.76 81.1708 46.5H87.2708C87.2308 44.8 85.8908 43.72 84.1908 43.72ZM89.3508 49.72C88.7308 51.64 86.9908 53.18 84.2908 53.18C81.1308 53.18 78.7908 50.94 78.7908 47.48C78.7908 44.02 81.0308 41.8 84.2908 41.8C87.4308 41.8 89.6508 43.98 89.6508 47.22C89.6508 47.6 89.6308 47.96 89.5708 48.34H81.1508C81.3108 50.16 82.6108 51.26 84.2908 51.26C85.6908 51.26 86.4708 50.58 86.8908 49.72H89.3508ZM91.1345 47.44C91.1345 44.04 93.4345 41.8 96.3545 41.8C97.7945 41.8 99.3145 42.48 100.155 43.52V38.2H102.455V53H100.155V51.34C99.4545 52.34 98.1345 53.18 96.3345 53.18C93.4345 53.18 91.1345 50.84 91.1345 47.44ZM100.155 47.48C100.155 45.12 98.5345 43.78 96.8145 43.78C95.1145 43.78 93.4745 45.06 93.4745 47.44C93.4745 49.82 95.1145 51.2 96.8145 51.2C98.5345 51.2 100.155 49.86 100.155 47.48ZM115.429 41.98V53H113.149V51.68C112.429 52.62 111.189 53.16 109.889 53.16C107.309 53.16 105.349 51.54 105.349 48.46V41.98H107.609V48.12C107.609 50.14 108.709 51.18 110.369 51.18C112.049 51.18 113.149 50.14 113.149 48.12V41.98H115.429ZM118.438 53V38.2H120.718V53H118.438ZM128.351 43.72C126.811 43.72 125.571 44.76 125.331 46.5H131.431C131.391 44.8 130.051 43.72 128.351 43.72ZM133.511 49.72C132.891 51.64 131.151 53.18 128.451 53.18C125.291 53.18 122.951 50.94 122.951 47.48C122.951 44.02 125.191 41.8 128.451 41.8C131.591 41.8 133.811 43.98 133.811 47.22C133.811 47.6 133.791 47.96 133.731 48.34H125.311C125.471 50.16 126.771 51.26 128.451 51.26C129.851 51.26 130.631 50.58 131.051 49.72H133.511ZM150.63 53L149.63 50.16H143.81L142.81 53H140.43L145.41 39.08H148.05L153.03 53H150.63ZM148.99 48.3L146.73 41.84L144.45 48.3H148.99ZM154.435 47.44C154.435 44.04 156.735 41.8 159.655 41.8C161.095 41.8 162.615 42.48 163.455 43.52V38.2H165.755V53H163.455V51.34C162.755 52.34 161.435 53.18 159.635 53.18C156.735 53.18 154.435 50.84 154.435 47.44ZM163.455 47.48C163.455 45.12 161.835 43.78 160.115 43.78C158.415 43.78 156.775 45.06 156.775 47.44C156.775 49.82 158.415 51.2 160.115 51.2C161.835 51.2 163.455 49.86 163.455 47.48ZM176.97 49.92C176.97 51.78 175.35 53.18 172.75 53.18C170.11 53.18 168.25 51.62 168.15 49.62H170.51C170.59 50.52 171.45 51.26 172.71 51.26C174.03 51.26 174.73 50.7 174.73 49.94C174.73 47.78 168.33 49.02 168.33 44.98C168.33 43.22 169.97 41.8 172.57 41.8C175.07 41.8 176.71 43.14 176.83 45.34H174.55C174.47 44.38 173.73 43.72 172.49 43.72C171.27 43.72 170.63 44.22 170.63 44.96C170.63 47.18 176.85 45.94 176.97 49.92Z" fill="black"/>
<path d="M50.54 84.58C50.54 86.362 49.082 88.126 46.364 88.126C43.844 88.126 42.062 86.722 42.026 84.652H43.772C43.88 85.696 44.618 86.74 46.364 86.74C47.948 86.74 48.884 85.84 48.884 84.652C48.884 81.268 42.098 83.428 42.098 78.766C42.098 76.696 43.772 75.292 46.256 75.292C48.65 75.292 50.216 76.606 50.414 78.514H48.614C48.506 77.668 47.714 76.714 46.184 76.696C44.834 76.66 43.772 77.362 43.772 78.712C43.772 81.952 50.54 79.936 50.54 84.58ZM52.3385 83.05C52.3385 79.954 54.3365 77.974 57.1445 77.974C59.5925 77.974 61.1945 79.234 61.6985 81.304H59.9345C59.5925 80.116 58.6025 79.36 57.1445 79.36C55.3445 79.36 54.0125 80.638 54.0125 83.05C54.0125 85.498 55.3445 86.776 57.1445 86.776C58.6025 86.776 59.5745 86.074 59.9345 84.832H61.6985C61.1945 86.794 59.5925 88.162 57.1445 88.162C54.3365 88.162 52.3385 86.182 52.3385 83.05ZM63.884 88V74.68H65.522V79.558C66.17 78.514 67.394 77.956 68.78 77.956C70.976 77.956 72.722 79.36 72.722 82.186V88H71.102V82.42C71.102 80.404 70.004 79.378 68.348 79.378C66.674 79.378 65.522 80.422 65.522 82.546V88H63.884ZM79.5917 79.36C77.9897 79.36 76.6577 80.422 76.4777 82.348H82.7057C82.7237 80.422 81.2837 79.36 79.5917 79.36ZM84.1997 84.958C83.6957 86.758 82.1117 88.162 79.6637 88.162C76.8557 88.162 74.7857 86.182 74.7857 83.05C74.7857 79.936 76.7837 77.974 79.6637 77.974C82.5257 77.974 84.3977 79.99 84.3977 82.69C84.3977 83.05 84.3797 83.338 84.3437 83.68H76.4597C76.5857 85.678 77.9897 86.776 79.6637 86.776C81.1397 86.776 82.0757 86.02 82.4357 84.958H84.1997ZM85.9478 83.032C85.9478 79.954 87.9818 77.974 90.6458 77.974C92.1938 77.974 93.6158 78.766 94.2998 79.9V74.68H95.9558V88H94.2998V86.146C93.7058 87.244 92.4278 88.162 90.6278 88.162C87.9818 88.162 85.9478 86.092 85.9478 83.032ZM94.2998 83.05C94.2998 80.764 92.7518 79.396 90.9518 79.396C89.1518 79.396 87.6218 80.71 87.6218 83.032C87.6218 85.354 89.1518 86.722 90.9518 86.722C92.7518 86.722 94.2998 85.372 94.2998 83.05ZM107.472 78.136V88H105.834V86.542C105.204 87.568 103.998 88.144 102.684 88.144C100.416 88.144 98.6339 86.74 98.6339 83.914V78.136H100.254V83.698C100.254 85.696 101.352 86.722 103.008 86.722C104.7 86.722 105.834 85.678 105.834 83.554V78.136H107.472ZM110.238 88V74.68H111.876V88H110.238ZM118.861 79.36C117.259 79.36 115.927 80.422 115.747 82.348H121.975C121.993 80.422 120.553 79.36 118.861 79.36ZM123.469 84.958C122.965 86.758 121.381 88.162 118.933 88.162C116.125 88.162 114.055 86.182 114.055 83.05C114.055 79.936 116.053 77.974 118.933 77.974C121.795 77.974 123.667 79.99 123.667 82.69C123.667 83.05 123.649 83.338 123.613 83.68H115.729C115.855 85.678 117.259 86.776 118.933 86.776C120.409 86.776 121.345 86.02 121.705 84.958H123.469ZM132.266 79.954C132.86 78.91 134.156 77.974 135.956 77.974C138.602 77.974 140.636 79.954 140.636 83.032C140.636 86.092 138.602 88.162 135.956 88.162C134.156 88.162 132.878 87.19 132.266 86.182V92.68H130.628V78.136H132.266V79.954ZM138.962 83.032C138.962 80.71 137.432 79.396 135.614 79.396C133.832 79.396 132.266 80.764 132.266 83.05C132.266 85.372 133.832 86.722 135.614 86.722C137.432 86.722 138.962 85.354 138.962 83.032ZM152.152 83.05C152.152 86.182 149.902 88.162 147.094 88.162C144.304 88.162 142.18 86.182 142.18 83.05C142.18 79.936 144.376 77.974 147.166 77.974C149.974 77.974 152.152 79.936 152.152 83.05ZM143.854 83.05C143.854 85.552 145.384 86.722 147.094 86.722C148.804 86.722 150.478 85.552 150.478 83.05C150.478 80.566 148.84 79.396 147.148 79.396C145.42 79.396 143.854 80.566 143.854 83.05ZM161.398 85.318C161.398 86.938 159.976 88.162 157.798 88.162C155.494 88.162 153.874 86.902 153.766 85.102H155.458C155.548 86.056 156.394 86.776 157.78 86.776C159.076 86.776 159.796 86.128 159.796 85.318C159.796 83.122 153.964 84.4 153.964 80.728C153.964 79.216 155.386 77.974 157.582 77.974C159.76 77.974 161.2 79.144 161.308 81.07H159.67C159.598 80.08 158.842 79.36 157.528 79.36C156.322 79.36 155.602 79.936 155.602 80.728C155.602 83.068 161.326 81.79 161.398 85.318ZM164.07 85.3V79.486H162.792V78.136H164.07V75.652H165.708V78.136H168.282V79.486H165.708V85.3C165.708 86.272 166.068 86.614 167.076 86.614H168.282V88H166.806C165.06 88 164.07 87.28 164.07 85.3ZM175.426 85.3V79.486H174.148V78.136H175.426V75.652H177.064V78.136H179.638V79.486H177.064V85.3C177.064 86.272 177.424 86.614 178.432 86.614H179.638V88H178.162C176.416 88 175.426 87.28 175.426 85.3ZM190.982 83.05C190.982 86.182 188.732 88.162 185.924 88.162C183.134 88.162 181.01 86.182 181.01 83.05C181.01 79.936 183.206 77.974 185.996 77.974C188.804 77.974 190.982 79.936 190.982 83.05ZM182.684 83.05C182.684 85.552 184.214 86.722 185.924 86.722C187.634 86.722 189.308 85.552 189.308 83.05C189.308 80.566 187.67 79.396 185.978 79.396C184.25 79.396 182.684 80.566 182.684 83.05ZM199.573 79.972C200.203 78.874 201.517 77.974 203.263 77.974C205.927 77.974 207.943 79.954 207.943 83.032C207.943 86.092 205.909 88.162 203.263 88.162C201.463 88.162 200.185 87.262 199.573 86.182V88H197.935V74.68H199.573V79.972ZM206.269 83.032C206.269 80.71 204.739 79.396 202.921 79.396C201.139 79.396 199.573 80.764 199.573 83.05C199.573 85.372 201.139 86.722 202.921 86.722C204.739 86.722 206.269 85.354 206.269 83.032ZM219.459 83.05C219.459 86.182 217.209 88.162 214.401 88.162C211.611 88.162 209.487 86.182 209.487 83.05C209.487 79.936 211.683 77.974 214.473 77.974C217.281 77.974 219.459 79.936 219.459 83.05ZM211.161 83.05C211.161 85.552 212.691 86.722 214.401 86.722C216.111 86.722 217.785 85.552 217.785 83.05C217.785 80.566 216.147 79.396 214.455 79.396C212.727 79.396 211.161 80.566 211.161 83.05ZM230.973 83.05C230.973 86.182 228.723 88.162 225.915 88.162C223.125 88.162 221.001 86.182 221.001 83.05C221.001 79.936 223.197 77.974 225.987 77.974C228.795 77.974 230.973 79.936 230.973 83.05ZM222.675 83.05C222.675 85.552 224.205 86.722 225.915 86.722C227.625 86.722 229.299 85.552 229.299 83.05C229.299 80.566 227.661 79.396 225.969 79.396C224.241 79.396 222.675 80.566 222.675 83.05ZM240.218 85.318C240.218 86.938 238.796 88.162 236.618 88.162C234.314 88.162 232.694 86.902 232.586 85.102H234.278C234.368 86.056 235.214 86.776 236.6 86.776C237.896 86.776 238.616 86.128 238.616 85.318C238.616 83.122 232.784 84.4 232.784 80.728C232.784 79.216 234.206 77.974 236.402 77.974C238.58 77.974 240.02 79.144 240.128 81.07H238.49C238.418 80.08 237.662 79.36 236.348 79.36C235.142 79.36 234.422 79.936 234.422 80.728C234.422 83.068 240.146 81.79 240.218 85.318ZM242.891 85.3V79.486H241.613V78.136H242.891V75.652H244.529V78.136H247.103V79.486H244.529V85.3C244.529 86.272 244.889 86.614 245.897 86.614H247.103V88H245.627C243.881 88 242.891 87.28 242.891 85.3ZM257.63 86.128L260.69 78.136H262.382L256.442 92.644H254.75L256.694 87.892L252.716 78.136H254.534L257.63 86.128ZM273.389 83.05C273.389 86.182 271.139 88.162 268.331 88.162C265.541 88.162 263.417 86.182 263.417 83.05C263.417 79.936 265.613 77.974 268.403 77.974C271.211 77.974 273.389 79.936 273.389 83.05ZM265.091 83.05C265.091 85.552 266.621 86.722 268.331 86.722C270.041 86.722 271.715 85.552 271.715 83.05C271.715 80.566 270.077 79.396 268.385 79.396C266.657 79.396 265.091 80.566 265.091 83.05ZM284.29 78.136V88H282.652V86.542C282.022 87.568 280.816 88.144 279.502 88.144C277.234 88.144 275.452 86.74 275.452 83.914V78.136H277.072V83.698C277.072 85.696 278.17 86.722 279.826 86.722C281.518 86.722 282.652 85.678 282.652 83.554V78.136H284.29ZM288.694 82.636V88H287.056V78.136H288.694V79.738C289.252 78.64 290.314 77.956 291.88 77.956V79.648H291.448C289.882 79.648 288.694 80.35 288.694 82.636ZM44.024 103.972C44.654 102.874 45.968 101.974 47.714 101.974C50.378 101.974 52.394 103.954 52.394 107.032C52.394 110.092 50.36 112.162 47.714 112.162C45.914 112.162 44.636 111.262 44.024 110.182V112H42.386V98.68H44.024V103.972ZM50.72 107.032C50.72 104.71 49.19 103.396 47.372 103.396C45.59 103.396 44.024 104.764 44.024 107.05C44.024 109.372 45.59 110.722 47.372 110.722C49.19 110.722 50.72 109.354 50.72 107.032ZM63.2981 102.136V112H61.6601V110.542C61.0301 111.568 59.8241 112.144 58.5101 112.144C56.2421 112.144 54.4601 110.74 54.4601 107.914V102.136H56.0801V107.698C56.0801 109.696 57.1781 110.722 58.8341 110.722C60.5261 110.722 61.6601 109.678 61.6601 107.554V102.136H63.2981ZM73.1557 109.318C73.1557 110.938 71.7337 112.162 69.5557 112.162C67.2517 112.162 65.6317 110.902 65.5237 109.102H67.2157C67.3057 110.056 68.1517 110.776 69.5377 110.776C70.8337 110.776 71.5537 110.128 71.5537 109.318C71.5537 107.122 65.7217 108.4 65.7217 104.728C65.7217 103.216 67.1437 101.974 69.3397 101.974C71.5177 101.974 72.9577 103.144 73.0657 105.07H71.4277C71.3557 104.08 70.5997 103.36 69.2857 103.36C68.0797 103.36 67.3597 103.936 67.3597 104.728C67.3597 107.068 73.0837 105.79 73.1557 109.318ZM75.468 112V102.136H77.106V112H75.468ZM76.314 100.534C75.684 100.534 75.198 100.048 75.198 99.418C75.198 98.788 75.684 98.302 76.314 98.302C76.908 98.302 77.394 98.788 77.394 99.418C77.394 100.048 76.908 100.534 76.314 100.534ZM87.1157 112V106.42C87.1157 104.404 86.0177 103.378 84.3617 103.378C82.6877 103.378 81.5357 104.422 81.5357 106.546V112H79.8977V102.136H81.5357V103.54C82.1837 102.514 83.3717 101.956 84.7037 101.956C86.9897 101.956 88.7357 103.36 88.7357 106.186V112H87.1157ZM95.6054 103.36C94.0034 103.36 92.6714 104.422 92.4914 106.348H98.7194C98.7374 104.422 97.2974 103.36 95.6054 103.36ZM100.213 108.958C99.7094 110.758 98.1254 112.162 95.6774 112.162C92.8694 112.162 90.7994 110.182 90.7994 107.05C90.7994 103.936 92.7974 101.974 95.6774 101.974C98.5394 101.974 100.411 103.99 100.411 106.69C100.411 107.05 100.393 107.338 100.357 107.68H92.4734C92.5994 109.678 94.0034 110.776 95.6774 110.776C97.1534 110.776 98.0894 110.02 98.4494 108.958H100.213ZM109.666 109.318C109.666 110.938 108.244 112.162 106.066 112.162C103.762 112.162 102.142 110.902 102.034 109.102H103.726C103.816 110.056 104.662 110.776 106.048 110.776C107.344 110.776 108.064 110.128 108.064 109.318C108.064 107.122 102.232 108.4 102.232 104.728C102.232 103.216 103.654 101.974 105.85 101.974C108.028 101.974 109.468 103.144 109.576 105.07H107.938C107.866 104.08 107.11 103.36 105.796 103.36C104.59 103.36 103.87 103.936 103.87 104.728C103.87 107.068 109.594 105.79 109.666 109.318ZM119.07 109.318C119.07 110.938 117.648 112.162 115.47 112.162C113.166 112.162 111.546 110.902 111.438 109.102H113.13C113.22 110.056 114.066 110.776 115.452 110.776C116.748 110.776 117.468 110.128 117.468 109.318C117.468 107.122 111.636 108.4 111.636 104.728C111.636 103.216 113.058 101.974 115.254 101.974C117.432 101.974 118.872 103.144 118.98 105.07H117.342C117.27 104.08 116.514 103.36 115.2 103.36C113.994 103.36 113.274 103.936 113.274 104.728C113.274 107.068 118.998 105.79 119.07 109.318ZM130.375 103.36C128.773 103.36 127.441 104.422 127.261 106.348H133.489C133.507 104.422 132.067 103.36 130.375 103.36ZM134.983 108.958C134.479 110.758 132.895 112.162 130.447 112.162C127.639 112.162 125.569 110.182 125.569 107.05C125.569 103.936 127.567 101.974 130.447 101.974C133.309 101.974 135.181 103.99 135.181 106.69C135.181 107.05 135.163 107.338 135.127 107.68H127.243C127.369 109.678 128.773 110.776 130.447 110.776C131.923 110.776 132.859 110.02 133.219 108.958H134.983ZM144.561 112V106.42C144.561 104.404 143.463 103.378 141.807 103.378C140.133 103.378 138.981 104.422 138.981 106.546V112H137.343V102.136H138.981V103.54C139.629 102.514 140.817 101.956 142.149 101.956C144.435 101.956 146.181 103.36 146.181 106.186V112H144.561ZM148.245 107.032C148.245 103.954 150.279 101.974 152.925 101.974C154.725 101.974 156.021 102.874 156.597 103.936V102.136H158.253V112.216C158.253 114.934 156.435 116.86 153.537 116.86C150.945 116.86 149.091 115.546 148.767 113.44H150.387C150.747 114.628 151.917 115.438 153.537 115.438C155.283 115.438 156.597 114.322 156.597 112.216V110.146C156.003 111.208 154.725 112.162 152.925 112.162C150.279 112.162 148.245 110.092 148.245 107.032ZM156.597 107.05C156.597 104.764 155.049 103.396 153.249 103.396C151.449 103.396 149.919 104.71 149.919 107.032C149.919 109.354 151.449 110.722 153.249 110.722C155.049 110.722 156.597 109.372 156.597 107.05ZM160.409 107.032C160.409 103.954 162.443 101.974 165.089 101.974C166.925 101.974 168.185 102.91 168.761 103.936V102.136H170.417V112H168.761V110.164C168.167 111.226 166.889 112.162 165.071 112.162C162.443 112.162 160.409 110.092 160.409 107.032ZM168.761 107.05C168.761 104.764 167.213 103.396 165.413 103.396C163.613 103.396 162.083 104.71 162.083 107.032C162.083 109.354 163.613 110.722 165.413 110.722C167.213 110.722 168.761 109.372 168.761 107.05ZM172.573 107.032C172.573 103.954 174.607 101.974 177.253 101.974C179.053 101.974 180.349 102.874 180.925 103.936V102.136H182.581V112.216C182.581 114.934 180.763 116.86 177.865 116.86C175.273 116.86 173.419 115.546 173.095 113.44H174.715C175.075 114.628 176.245 115.438 177.865 115.438C179.611 115.438 180.925 114.322 180.925 112.216V110.146C180.331 111.208 179.053 112.162 177.253 112.162C174.607 112.162 172.573 110.092 172.573 107.032ZM180.925 107.05C180.925 104.764 179.377 103.396 177.577 103.396C175.777 103.396 174.247 104.71 174.247 107.032C174.247 109.354 175.777 110.722 177.577 110.722C179.377 110.722 180.925 109.372 180.925 107.05ZM189.543 103.36C187.941 103.36 186.609 104.422 186.429 106.348H192.657C192.675 104.422 191.235 103.36 189.543 103.36ZM194.151 108.958C193.647 110.758 192.063 112.162 189.615 112.162C186.807 112.162 184.737 110.182 184.737 107.05C184.737 103.936 186.735 101.974 189.615 101.974C192.477 101.974 194.349 103.99 194.349 106.69C194.349 107.05 194.331 107.338 194.295 107.68H186.411C186.537 109.678 187.941 110.776 189.615 110.776C191.091 110.776 192.027 110.02 192.387 108.958H194.151ZM210.749 112V106.42C210.749 104.404 209.669 103.378 208.049 103.378C206.393 103.378 205.259 104.44 205.259 106.564V112H203.639V106.42C203.639 104.404 202.559 103.378 200.939 103.378C199.283 103.378 198.149 104.44 198.149 106.564V112H196.511V102.136H198.149V103.558C198.797 102.514 199.967 101.956 201.263 101.956C202.883 101.956 204.233 102.676 204.881 104.152C205.457 102.73 206.861 101.956 208.373 101.956C210.623 101.956 212.369 103.36 212.369 106.186V112H210.749ZM219.25 103.36C217.648 103.36 216.316 104.422 216.136 106.348H222.364C222.382 104.422 220.942 103.36 219.25 103.36ZM223.858 108.958C223.354 110.758 221.77 112.162 219.322 112.162C216.514 112.162 214.444 110.182 214.444 107.05C214.444 103.936 216.442 101.974 219.322 101.974C222.184 101.974 224.056 103.99 224.056 106.69C224.056 107.05 224.038 107.338 224.002 107.68H216.118C216.244 109.678 217.648 110.776 219.322 110.776C220.798 110.776 221.734 110.02 222.094 108.958H223.858ZM233.436 112V106.42C233.436 104.404 232.338 103.378 230.682 103.378C229.008 103.378 227.856 104.422 227.856 106.546V112H226.218V102.136H227.856V103.54C228.504 102.514 229.692 101.956 231.024 101.956C233.31 101.956 235.056 103.36 235.056 106.186V112H233.436ZM238.092 109.3V103.486H236.814V102.136H238.092V99.652H239.73V102.136H242.304V103.486H239.73V109.3C239.73 110.272 240.09 110.614 241.098 110.614H242.304V112H240.828C239.082 112 238.092 111.28 238.092 109.3Z" fill="#595959"/>
<rect x="329" y="34" width="60" height="30" rx="15" fill="white"/>
<path d="M362 49C362 55.6274 367.373 61 374 61C380.627 61 386 55.6274 386 49C386 42.3726 380.627 37 374 37C367.373 37 362 42.3726 362 49Z" fill="url(#paint0_linear_1043_1291)"/>
<rect x="42" y="138" width="347" height="51" rx="9" fill="white"/>
<path d="M146.768 170.112C146.032 170.112 145.371 169.984 144.784 169.728C144.208 169.461 143.755 169.099 143.424 168.64C143.093 168.171 142.923 167.632 142.912 167.024H144.464C144.517 167.547 144.731 167.989 145.104 168.352C145.488 168.704 146.043 168.88 146.768 168.88C147.461 168.88 148.005 168.709 148.4 168.368C148.805 168.016 149.008 167.568 149.008 167.024C149.008 166.597 148.891 166.251 148.656 165.984C148.421 165.717 148.128 165.515 147.776 165.376C147.424 165.237 146.949 165.088 146.352 164.928C145.616 164.736 145.024 164.544 144.576 164.352C144.139 164.16 143.76 163.861 143.44 163.456C143.131 163.04 142.976 162.485 142.976 161.792C142.976 161.184 143.131 160.645 143.44 160.176C143.749 159.707 144.181 159.344 144.736 159.088C145.301 158.832 145.947 158.704 146.672 158.704C147.717 158.704 148.571 158.965 149.232 159.488C149.904 160.011 150.283 160.704 150.368 161.568H148.768C148.715 161.141 148.491 160.768 148.096 160.448C147.701 160.117 147.179 159.952 146.528 159.952C145.92 159.952 145.424 160.112 145.04 160.432C144.656 160.741 144.464 161.179 144.464 161.744C144.464 162.149 144.576 162.48 144.8 162.736C145.035 162.992 145.317 163.189 145.648 163.328C145.989 163.456 146.464 163.605 147.072 163.776C147.808 163.979 148.4 164.181 148.848 164.384C149.296 164.576 149.68 164.88 150 165.296C150.32 165.701 150.48 166.256 150.48 166.96C150.48 167.504 150.336 168.016 150.048 168.496C149.76 168.976 149.333 169.365 148.768 169.664C148.203 169.963 147.536 170.112 146.768 170.112ZM160.623 165.28C160.623 165.557 160.607 165.851 160.575 166.16H153.567C153.62 167.024 153.913 167.701 154.447 168.192C154.991 168.672 155.647 168.912 156.415 168.912C157.044 168.912 157.567 168.768 157.983 168.48C158.409 168.181 158.708 167.787 158.879 167.296H160.447C160.212 168.139 159.743 168.827 159.039 169.36C158.335 169.883 157.46 170.144 156.415 170.144C155.583 170.144 154.836 169.957 154.175 169.584C153.524 169.211 153.012 168.683 152.639 168C152.265 167.307 152.079 166.507 152.079 165.6C152.079 164.693 152.26 163.899 152.623 163.216C152.985 162.533 153.492 162.011 154.143 161.648C154.804 161.275 155.561 161.088 156.415 161.088C157.247 161.088 157.983 161.269 158.623 161.632C159.263 161.995 159.753 162.496 160.095 163.136C160.447 163.765 160.623 164.48 160.623 165.28ZM159.119 164.976C159.119 164.421 158.996 163.947 158.751 163.552C158.505 163.147 158.169 162.843 157.743 162.64C157.327 162.427 156.863 162.32 156.351 162.32C155.615 162.32 154.985 162.555 154.463 163.024C153.951 163.493 153.657 164.144 153.583 164.976H159.119ZM164.321 162.432V167.6C164.321 168.027 164.411 168.331 164.593 168.512C164.774 168.683 165.089 168.768 165.536 168.768H166.609V170H165.297C164.486 170 163.878 169.813 163.473 169.44C163.067 169.067 162.865 168.453 162.865 167.6V162.432H161.729V161.232H162.865V159.024H164.321V161.232H166.609V162.432H164.321ZM179.23 167.52H174.366L173.47 170H171.934L175.966 158.912H177.646L181.662 170H180.126L179.23 167.52ZM178.814 166.336L176.798 160.704L174.782 166.336H178.814ZM182.876 165.584C182.876 164.688 183.057 163.904 183.42 163.232C183.782 162.549 184.278 162.021 184.908 161.648C185.548 161.275 186.262 161.088 187.052 161.088C187.734 161.088 188.369 161.248 188.956 161.568C189.542 161.877 189.99 162.288 190.3 162.8V158.16H191.772V170H190.3V168.352C190.012 168.875 189.585 169.307 189.02 169.648C188.454 169.979 187.793 170.144 187.036 170.144C186.257 170.144 185.548 169.952 184.908 169.568C184.278 169.184 183.782 168.645 183.42 167.952C183.057 167.259 182.876 166.469 182.876 165.584ZM190.3 165.6C190.3 164.939 190.166 164.363 189.9 163.872C189.633 163.381 189.27 163.008 188.812 162.752C188.364 162.485 187.868 162.352 187.324 162.352C186.78 162.352 186.284 162.48 185.836 162.736C185.388 162.992 185.03 163.365 184.764 163.856C184.497 164.347 184.364 164.923 184.364 165.584C184.364 166.256 184.497 166.843 184.764 167.344C185.03 167.835 185.388 168.213 185.836 168.48C186.284 168.736 186.78 168.864 187.324 168.864C187.868 168.864 188.364 168.736 188.812 168.48C189.27 168.213 189.633 167.835 189.9 167.344C190.166 166.843 190.3 166.261 190.3 165.6ZM202.034 170.112C201.298 170.112 200.636 169.984 200.05 169.728C199.474 169.461 199.02 169.099 198.69 168.64C198.359 168.171 198.188 167.632 198.178 167.024H199.73C199.783 167.547 199.996 167.989 200.37 168.352C200.754 168.704 201.308 168.88 202.034 168.88C202.727 168.88 203.271 168.709 203.666 168.368C204.071 168.016 204.274 167.568 204.274 167.024C204.274 166.597 204.156 166.251 203.922 165.984C203.687 165.717 203.394 165.515 203.042 165.376C202.69 165.237 202.215 165.088 201.618 164.928C200.882 164.736 200.29 164.544 199.842 164.352C199.404 164.16 199.026 163.861 198.706 163.456C198.396 163.04 198.242 162.485 198.242 161.792C198.242 161.184 198.396 160.645 198.706 160.176C199.015 159.707 199.447 159.344 200.002 159.088C200.567 158.832 201.212 158.704 201.938 158.704C202.983 158.704 203.836 158.965 204.498 159.488C205.17 160.011 205.548 160.704 205.634 161.568H204.034C203.98 161.141 203.756 160.768 203.362 160.448C202.967 160.117 202.444 159.952 201.794 159.952C201.186 159.952 200.69 160.112 200.306 160.432C199.922 160.741 199.73 161.179 199.73 161.744C199.73 162.149 199.842 162.48 200.066 162.736C200.3 162.992 200.583 163.189 200.914 163.328C201.255 163.456 201.73 163.605 202.338 163.776C203.074 163.979 203.666 164.181 204.114 164.384C204.562 164.576 204.946 164.88 205.266 165.296C205.586 165.701 205.746 166.256 205.746 166.96C205.746 167.504 205.602 168.016 205.314 168.496C205.026 168.976 204.599 169.365 204.034 169.664C203.468 169.963 202.802 170.112 202.034 170.112ZM207.344 165.6C207.344 164.693 207.526 163.904 207.888 163.232C208.251 162.549 208.752 162.021 209.392 161.648C210.043 161.275 210.784 161.088 211.616 161.088C212.694 161.088 213.579 161.349 214.272 161.872C214.976 162.395 215.44 163.12 215.664 164.048H214.096C213.947 163.515 213.654 163.093 213.216 162.784C212.79 162.475 212.256 162.32 211.616 162.32C210.784 162.32 210.112 162.608 209.6 163.184C209.088 163.749 208.832 164.555 208.832 165.6C208.832 166.656 209.088 167.472 209.6 168.048C210.112 168.624 210.784 168.912 211.616 168.912C212.256 168.912 212.79 168.763 213.216 168.464C213.643 168.165 213.936 167.739 214.096 167.184H215.664C215.43 168.08 214.96 168.8 214.256 169.344C213.552 169.877 212.672 170.144 211.616 170.144C210.784 170.144 210.043 169.957 209.392 169.584C208.752 169.211 208.251 168.683 207.888 168C207.526 167.317 207.344 166.517 207.344 165.6ZM221.959 161.072C222.62 161.072 223.218 161.216 223.751 161.504C224.284 161.781 224.7 162.203 224.999 162.768C225.308 163.333 225.463 164.021 225.463 164.832V170H224.023V165.04C224.023 164.165 223.804 163.499 223.367 163.04C222.93 162.571 222.332 162.336 221.575 162.336C220.807 162.336 220.194 162.576 219.735 163.056C219.287 163.536 219.063 164.235 219.063 165.152V170H217.607V158.16H219.063V162.48C219.351 162.032 219.746 161.685 220.247 161.44C220.759 161.195 221.33 161.072 221.959 161.072ZM235.841 165.28C235.841 165.557 235.825 165.851 235.793 166.16H228.785C228.839 167.024 229.132 167.701 229.665 168.192C230.209 168.672 230.865 168.912 231.633 168.912C232.263 168.912 232.785 168.768 233.201 168.48C233.628 168.181 233.927 167.787 234.097 167.296H235.665C235.431 168.139 234.961 168.827 234.257 169.36C233.553 169.883 232.679 170.144 231.633 170.144C230.801 170.144 230.055 169.957 229.393 169.584C228.743 169.211 228.231 168.683 227.857 168C227.484 167.307 227.297 166.507 227.297 165.6C227.297 164.693 227.479 163.899 227.841 163.216C228.204 162.533 228.711 162.011 229.361 161.648C230.023 161.275 230.78 161.088 231.633 161.088C232.465 161.088 233.201 161.269 233.841 161.632C234.481 161.995 234.972 162.496 235.313 163.136C235.665 163.765 235.841 164.48 235.841 165.28ZM234.337 164.976C234.337 164.421 234.215 163.947 233.969 163.552C233.724 163.147 233.388 162.843 232.961 162.64C232.545 162.427 232.081 162.32 231.569 162.32C230.833 162.32 230.204 162.555 229.681 163.024C229.169 163.493 228.876 164.144 228.801 164.976H234.337ZM237.219 165.584C237.219 164.688 237.401 163.904 237.763 163.232C238.126 162.549 238.622 162.021 239.251 161.648C239.891 161.275 240.606 161.088 241.395 161.088C242.078 161.088 242.713 161.248 243.299 161.568C243.886 161.877 244.334 162.288 244.643 162.8V158.16H246.115V170H244.643V168.352C244.355 168.875 243.929 169.307 243.363 169.648C242.798 169.979 242.137 170.144 241.379 170.144C240.601 170.144 239.891 169.952 239.251 169.568C238.622 169.184 238.126 168.645 237.763 167.952C237.401 167.259 237.219 166.469 237.219 165.584ZM244.643 165.6C244.643 164.939 244.51 164.363 244.243 163.872C243.977 163.381 243.614 163.008 243.155 162.752C242.707 162.485 242.211 162.352 241.667 162.352C241.123 162.352 240.627 162.48 240.179 162.736C239.731 162.992 239.374 163.365 239.107 163.856C238.841 164.347 238.707 164.923 238.707 165.584C238.707 166.256 238.841 166.843 239.107 167.344C239.374 167.835 239.731 168.213 240.179 168.48C240.627 168.736 241.123 168.864 241.667 168.864C242.211 168.864 242.707 168.736 243.155 168.48C243.614 168.213 243.977 167.835 244.243 167.344C244.51 166.843 244.643 166.261 244.643 165.6ZM256.352 161.232V170H254.896V168.704C254.618 169.152 254.229 169.504 253.728 169.76C253.237 170.005 252.693 170.128 252.096 170.128C251.413 170.128 250.8 169.989 250.256 169.712C249.712 169.424 249.28 168.997 248.96 168.432C248.65 167.867 248.496 167.179 248.496 166.368V161.232H249.936V166.176C249.936 167.04 250.154 167.707 250.592 168.176C251.029 168.635 251.626 168.864 252.384 168.864C253.162 168.864 253.776 168.624 254.224 168.144C254.672 167.664 254.896 166.965 254.896 166.048V161.232H256.352ZM260.266 158.16V170H258.81V158.16H260.266ZM270.748 165.28C270.748 165.557 270.732 165.851 270.7 166.16H263.692C263.745 167.024 264.038 167.701 264.572 168.192C265.116 168.672 265.772 168.912 266.54 168.912C267.169 168.912 267.692 168.768 268.108 168.48C268.534 168.181 268.833 167.787 269.004 167.296H270.572C270.337 168.139 269.868 168.827 269.164 169.36C268.46 169.883 267.585 170.144 266.54 170.144C265.708 170.144 264.961 169.957 264.3 169.584C263.649 169.211 263.137 168.683 262.764 168C262.39 167.307 262.204 166.507 262.204 165.6C262.204 164.693 262.385 163.899 262.748 163.216C263.11 162.533 263.617 162.011 264.268 161.648C264.929 161.275 265.686 161.088 266.54 161.088C267.372 161.088 268.108 161.269 268.748 161.632C269.388 161.995 269.878 162.496 270.22 163.136C270.572 163.765 270.748 164.48 270.748 165.28ZM269.244 164.976C269.244 164.421 269.121 163.947 268.876 163.552C268.63 163.147 268.294 162.843 267.868 162.64C267.452 162.427 266.988 162.32 266.476 162.32C265.74 162.32 265.11 162.555 264.588 163.024C264.076 163.493 263.782 164.144 263.708 164.976H269.244Z" fill="black"/>
</g>
<rect x="0.203883" y="0.203883" width="409.592" height="274.592" rx="7.95146" stroke="#EAEAEA" stroke-width="0.407767"/>
<defs>
<filter id="filter0_f_1043_1291" x="-21.6602" y="-361.66" width="722.32" height="722.32" filterUnits="userSpaceOnUse" color-interpolation-filters="sRGB">
<feFlood flood-opacity="0" result="BackgroundImageFix"/>
<feBlend mode="normal" in="SourceGraphic" in2="BackgroundImageFix" result="shape"/>
<feGaussianBlur stdDeviation="122.33" result="effect1_foregroundBlur_1043_1291"/>
</filter>
<filter id="filter1_f_1043_1291" x="-284.66" y="-139.66" width="739.32" height="739.32" filterUnits="userSpaceOnUse" color-interpolation-filters="sRGB">
<feFlood flood-opacity="0" result="BackgroundImageFix"/>
<feBlend mode="normal" in="SourceGraphic" in2="BackgroundImageFix" result="shape"/>
<feGaussianBlur stdDeviation="122.33" result="effect1_foregroundBlur_1043_1291"/>
</filter>
<linearGradient id="paint0_linear_1043_1291" x1="362" y1="49.0101" x2="385.997" y2="49.0101" gradientUnits="userSpaceOnUse">
<stop stop-color="#0000FF"/>
<stop offset="0.49" stop-color="#8F00FF"/>
<stop offset="1" stop-color="#FF1494"/>
</linearGradient>
<clipPath id="clip0_1043_1291">
<rect width="410" height="275" rx="8.15534" fill="white"/>
</clipPath>
<clipPath id="clip1_1043_1291">
<rect width="27" height="27" fill="white" transform="translate(177 222)"/>
</clipPath>
</defs>
</svg>
