<svg width="410" height="275" viewBox="0 0 410 275" fill="none" xmlns="http://www.w3.org/2000/svg">
<g clip-path="url(#clip0_1043_1307)">
<rect y="0.242188" width="410.214" height="275.243" rx="8.15534" fill="white"/>
<g opacity="0.2" filter="url(#filter0_f_1043_1307)">
<circle cx="339.5" cy="-0.257812" r="116.5" fill="#FF1494"/>
</g>
<g filter="url(#filter1_f_1043_1307)">
<circle cx="85" cy="230.242" r="125" fill="#0000FF" fill-opacity="0.15"/>
</g>
<path d="M221.232 230.074V231.274H216.688V235.002H220.752V236.202H216.688V240.042H221.232V241.242H215.232V230.074H221.232ZM222.891 236.826C222.891 234.09 224.699 232.33 227.067 232.33C228.443 232.33 229.707 233.034 230.315 234.042V229.402H231.787V241.242H230.315V239.594C229.787 240.57 228.651 241.386 227.051 241.386C224.699 241.386 222.891 239.546 222.891 236.826ZM230.315 236.842C230.315 234.81 228.939 233.594 227.339 233.594C225.739 233.594 224.379 234.762 224.379 236.826C224.379 238.89 225.739 240.106 227.339 240.106C228.939 240.106 230.315 238.906 230.315 236.842ZM234.248 241.242V232.474H235.704V241.242H234.248ZM235 231.05C234.44 231.05 234.008 230.618 234.008 230.058C234.008 229.498 234.44 229.066 235 229.066C235.528 229.066 235.96 229.498 235.96 230.058C235.96 230.618 235.528 231.05 235 231.05ZM238.505 238.842V233.674H237.369V232.474H238.505V230.266H239.961V232.474H242.249V233.674H239.961V238.842C239.961 239.706 240.281 240.01 241.177 240.01H242.249V241.242H240.937C239.385 241.242 238.505 240.602 238.505 238.842Z" fill="#8F00FF"/>
<g clip-path="url(#clip1_1043_1307)">
<path d="M201.92 239.203C201.549 239.203 201.247 239.504 201.247 239.876V245.846C201.246 246.96 200.344 247.863 199.23 247.864H180.362C179.248 247.863 178.346 246.96 178.345 245.846V228.323C178.346 227.21 179.248 226.307 180.362 226.306H186.333C186.704 226.306 187.005 226.005 187.005 225.633C187.005 225.262 186.704 224.961 186.333 224.961H180.362C178.506 224.963 177.002 226.467 177 228.323V245.846C177.002 247.703 178.506 249.207 180.362 249.209H199.23C201.086 249.207 202.59 247.703 202.592 245.846V239.876C202.592 239.504 202.291 239.203 201.92 239.203Z" fill="#8F00FF"/>
<path d="M202.326 223.23C201.145 222.048 199.229 222.048 198.047 223.23L186.05 235.227C185.968 235.309 185.909 235.411 185.878 235.523L184.3 241.218C184.235 241.452 184.301 241.702 184.472 241.873C184.644 242.045 184.894 242.111 185.127 242.046L190.823 240.468C190.935 240.437 191.037 240.378 191.119 240.296L203.115 228.299C204.295 227.116 204.295 225.202 203.115 224.019L202.326 223.23ZM187.515 235.664L197.334 225.845L200.5 229.012L190.682 238.83L187.515 235.664ZM186.883 236.933L189.413 239.463L185.913 240.433L186.883 236.933ZM202.165 227.348L201.451 228.061L198.285 224.894L198.998 224.181C199.654 223.525 200.719 223.525 201.375 224.181L202.165 224.97C202.82 225.627 202.82 226.691 202.165 227.348Z" fill="#8F00FF"/>
</g>
<path d="M51.88 53.2422L50.88 50.4022H45.06L44.06 53.2422H41.68L46.66 39.3222H49.3L54.28 53.2422H51.88ZM50.24 48.5422L47.98 42.0822L45.7 48.5422H50.24ZM55.6853 47.6822C55.6853 44.2822 57.9853 42.0422 60.9053 42.0422C62.3453 42.0422 63.8653 42.7222 64.7053 43.7622V38.4422H67.0053V53.2422H64.7053V51.5822C64.0053 52.5822 62.6853 53.4222 60.8853 53.4222C57.9853 53.4222 55.6853 51.0822 55.6853 47.6822ZM64.7053 47.7222C64.7053 45.3622 63.0853 44.0222 61.3653 44.0222C59.6653 44.0222 58.0253 45.3022 58.0253 47.6822C58.0253 50.0622 59.6653 51.4422 61.3653 51.4422C63.0853 51.4422 64.7053 50.1022 64.7053 47.7222ZM77.4753 45.7422H79.9953C81.7753 45.7422 82.5753 44.8822 82.5753 43.4822C82.5753 42.0422 81.7753 41.2022 79.9953 41.2022H77.4753V45.7422ZM84.9153 43.4822C84.9153 45.4622 83.6153 47.6022 79.9953 47.6022H77.4753V53.2422H75.1953V39.3422H79.9953C83.2953 39.3422 84.9153 41.2222 84.9153 43.4822ZM91.7298 43.9622C90.1898 43.9622 88.9498 45.0022 88.7098 46.7422H94.8098C94.7698 45.0422 93.4298 43.9622 91.7298 43.9622ZM96.8898 49.9622C96.2698 51.8822 94.5298 53.4222 91.8298 53.4222C88.6698 53.4222 86.3298 51.1822 86.3298 47.7222C86.3298 44.2622 88.5698 42.0422 91.8298 42.0422C94.9698 42.0422 97.1898 44.2222 97.1898 47.4622C97.1898 47.8422 97.1698 48.2022 97.1098 48.5822H88.6898C88.8498 50.4022 90.1498 51.5022 91.8298 51.5022C93.2298 51.5022 94.0098 50.8222 94.4298 49.9622H96.8898ZM101.714 47.4422V53.2422H99.4336V42.2222H101.714V43.8222C102.354 42.7222 103.454 42.0422 105.014 42.0422V44.4022H104.434C102.754 44.4022 101.714 45.1022 101.714 47.4422ZM107.389 53.2422V44.0822H106.089V42.2222H107.389V41.4422C107.389 38.9022 108.689 37.8022 111.569 37.8022V39.7022C110.169 39.7022 109.689 40.1822 109.689 41.4422V42.2222H111.729V44.0822H109.689V53.2422H107.389ZM124.25 47.7222C124.25 51.1822 121.69 53.4222 118.53 53.4222C115.39 53.4222 113.01 51.1822 113.01 47.7222C113.01 44.2622 115.49 42.0422 118.63 42.0422C121.77 42.0422 124.25 44.2622 124.25 47.7222ZM115.33 47.7222C115.33 50.2222 116.81 51.4422 118.53 51.4422C120.23 51.4422 121.91 50.2222 121.91 47.7222C121.91 45.2222 120.29 44.0222 118.59 44.0222C116.87 44.0222 115.33 45.2222 115.33 47.7222ZM128.784 47.4422V53.2422H126.504V42.2222H128.784V43.8222C129.424 42.7222 130.524 42.0422 132.084 42.0422V44.4022H131.504C129.824 44.4022 128.784 45.1022 128.784 47.4422ZM149.8 53.2422V47.0822C149.8 45.0622 148.7 44.0222 147.04 44.0222C145.36 44.0222 144.26 45.0622 144.26 47.0822V53.2422H142V47.0822C142 45.0622 140.9 44.0222 139.24 44.0222C137.56 44.0222 136.46 45.0622 136.46 47.0822V53.2422H134.18V42.2222H136.46V43.4822C137.2 42.5822 138.4 42.0422 139.72 42.0422C141.46 42.0422 142.92 42.7822 143.68 44.2222C144.36 42.8822 145.92 42.0422 147.52 42.0422C150.1 42.0422 152.06 43.6622 152.06 46.7422V53.2422H149.8ZM154.201 47.6822C154.201 44.2822 156.501 42.0422 159.401 42.0422C161.261 42.0422 162.541 42.9222 163.221 43.8222V42.2222H165.521V53.2422H163.221V51.6022C162.521 52.5422 161.201 53.4222 159.361 53.4222C156.501 53.4222 154.201 51.0822 154.201 47.6822ZM163.221 47.7222C163.221 45.3622 161.601 44.0222 159.881 44.0222C158.181 44.0222 156.541 45.3022 156.541 47.6822C156.541 50.0622 158.181 51.4422 159.881 51.4422C161.601 51.4422 163.221 50.1022 163.221 47.7222ZM176.336 53.2422V47.0822C176.336 45.0622 175.236 44.0222 173.576 44.0222C171.896 44.0222 170.796 45.0622 170.796 47.0822V53.2422H168.516V42.2222H170.796V43.4822C171.536 42.5822 172.756 42.0422 174.076 42.0422C176.656 42.0422 178.596 43.6622 178.596 46.7422V53.2422H176.336ZM180.744 47.7222C180.744 44.2822 182.984 42.0422 186.144 42.0422C188.844 42.0422 190.604 43.3822 191.224 45.7022H188.764C188.384 44.6422 187.504 43.9622 186.144 43.9622C184.304 43.9622 183.084 45.3222 183.084 47.7222C183.084 50.1422 184.304 51.5022 186.144 51.5022C187.504 51.5022 188.344 50.9022 188.764 49.7622H191.224C190.604 51.9222 188.844 53.4222 186.144 53.4222C182.984 53.4222 180.744 51.1822 180.744 47.7222ZM198.136 43.9622C196.596 43.9622 195.356 45.0022 195.116 46.7422H201.216C201.176 45.0422 199.836 43.9622 198.136 43.9622ZM203.296 49.9622C202.676 51.8822 200.936 53.4222 198.236 53.4222C195.076 53.4222 192.736 51.1822 192.736 47.7222C192.736 44.2622 194.976 42.0422 198.236 42.0422C201.376 42.0422 203.596 44.2222 203.596 47.4622C203.596 47.8422 203.576 48.2022 203.516 48.5822H195.096C195.256 50.4022 196.556 51.5022 198.236 51.5022C199.636 51.5022 200.416 50.8222 200.836 49.9622H203.296ZM220.415 53.2422L219.415 50.4022H213.595L212.595 53.2422H210.215L215.195 39.3222H217.835L222.815 53.2422H220.415ZM218.775 48.5422L216.515 42.0822L214.235 48.5422H218.775ZM224.98 53.2422V38.4422H227.26V53.2422H224.98ZM234.894 43.9622C233.354 43.9622 232.114 45.0022 231.874 46.7422H237.974C237.934 45.0422 236.594 43.9622 234.894 43.9622ZM240.054 49.9622C239.434 51.8822 237.694 53.4222 234.994 53.4222C231.834 53.4222 229.494 51.1822 229.494 47.7222C229.494 44.2622 231.734 42.0422 234.994 42.0422C238.134 42.0422 240.354 44.2222 240.354 47.4622C240.354 47.8422 240.334 48.2022 240.274 48.5822H231.854C232.014 50.4022 233.314 51.5022 234.994 51.5022C236.394 51.5022 237.174 50.8222 237.594 49.9622H240.054ZM244.878 47.4422V53.2422H242.598V42.2222H244.878V43.8222C245.518 42.7222 246.618 42.0422 248.178 42.0422V44.4022H247.598C245.918 44.4022 244.878 45.1022 244.878 47.4422ZM250.633 50.1822V44.0822H249.333V42.2222H250.633V39.4822H252.933V42.2222H255.613V44.0822H252.933V50.1822C252.933 51.0022 253.253 51.3422 254.213 51.3422H255.613V53.2422H253.813C251.853 53.2422 250.633 52.4222 250.633 50.1822ZM265.935 50.1622C265.935 52.0222 264.315 53.4222 261.715 53.4222C259.075 53.4222 257.215 51.8622 257.115 49.8622H259.475C259.555 50.7622 260.415 51.5022 261.675 51.5022C262.995 51.5022 263.695 50.9422 263.695 50.1822C263.695 48.0222 257.295 49.2622 257.295 45.2222C257.295 43.4622 258.935 42.0422 261.535 42.0422C264.035 42.0422 265.675 43.3822 265.795 45.5822H263.515C263.435 44.6222 262.695 43.9622 261.455 43.9622C260.235 43.9622 259.595 44.4622 259.595 45.2022C259.595 47.4222 265.815 46.1822 265.935 50.1622Z" fill="black"/>
<path d="M50.54 84.8222C50.54 86.6042 49.082 88.3682 46.364 88.3682C43.844 88.3682 42.062 86.9642 42.026 84.8942H43.772C43.88 85.9382 44.618 86.9822 46.364 86.9822C47.948 86.9822 48.884 86.0822 48.884 84.8942C48.884 81.5102 42.098 83.6702 42.098 79.0082C42.098 76.9382 43.772 75.5342 46.256 75.5342C48.65 75.5342 50.216 76.8482 50.414 78.7562H48.614C48.506 77.9102 47.714 76.9562 46.184 76.9382C44.834 76.9022 43.772 77.6042 43.772 78.9542C43.772 82.1942 50.54 80.1782 50.54 84.8222ZM52.3385 83.2922C52.3385 80.1962 54.3365 78.2162 57.1445 78.2162C59.5925 78.2162 61.1945 79.4762 61.6985 81.5462H59.9345C59.5925 80.3582 58.6025 79.6022 57.1445 79.6022C55.3445 79.6022 54.0125 80.8802 54.0125 83.2922C54.0125 85.7402 55.3445 87.0182 57.1445 87.0182C58.6025 87.0182 59.5745 86.3162 59.9345 85.0742H61.6985C61.1945 87.0362 59.5925 88.4042 57.1445 88.4042C54.3365 88.4042 52.3385 86.4242 52.3385 83.2922ZM63.884 88.2422V74.9222H65.522V79.8002C66.17 78.7562 67.394 78.1982 68.78 78.1982C70.976 78.1982 72.722 79.6022 72.722 82.4282V88.2422H71.102V82.6622C71.102 80.6462 70.004 79.6202 68.348 79.6202C66.674 79.6202 65.522 80.6642 65.522 82.7882V88.2422H63.884ZM79.5917 79.6022C77.9897 79.6022 76.6577 80.6642 76.4777 82.5902H82.7057C82.7237 80.6642 81.2837 79.6022 79.5917 79.6022ZM84.1997 85.2002C83.6957 87.0002 82.1117 88.4042 79.6637 88.4042C76.8557 88.4042 74.7857 86.4242 74.7857 83.2922C74.7857 80.1782 76.7837 78.2162 79.6637 78.2162C82.5257 78.2162 84.3977 80.2322 84.3977 82.9322C84.3977 83.2922 84.3797 83.5802 84.3437 83.9222H76.4597C76.5857 85.9202 77.9897 87.0182 79.6637 87.0182C81.1397 87.0182 82.0757 86.2622 82.4357 85.2002H84.1997ZM85.9478 83.2742C85.9478 80.1962 87.9818 78.2162 90.6458 78.2162C92.1938 78.2162 93.6158 79.0082 94.2998 80.1422V74.9222H95.9558V88.2422H94.2998V86.3882C93.7058 87.4862 92.4278 88.4042 90.6278 88.4042C87.9818 88.4042 85.9478 86.3342 85.9478 83.2742ZM94.2998 83.2922C94.2998 81.0062 92.7518 79.6382 90.9518 79.6382C89.1518 79.6382 87.6218 80.9522 87.6218 83.2742C87.6218 85.5962 89.1518 86.9642 90.9518 86.9642C92.7518 86.9642 94.2998 85.6142 94.2998 83.2922ZM107.472 78.3782V88.2422H105.834V86.7842C105.204 87.8102 103.998 88.3862 102.684 88.3862C100.416 88.3862 98.6339 86.9822 98.6339 84.1562V78.3782H100.254V83.9402C100.254 85.9382 101.352 86.9642 103.008 86.9642C104.7 86.9642 105.834 85.9202 105.834 83.7962V78.3782H107.472ZM110.238 88.2422V74.9222H111.876V88.2422H110.238ZM118.861 79.6022C117.259 79.6022 115.927 80.6642 115.747 82.5902H121.975C121.993 80.6642 120.553 79.6022 118.861 79.6022ZM123.469 85.2002C122.965 87.0002 121.381 88.4042 118.933 88.4042C116.125 88.4042 114.055 86.4242 114.055 83.2922C114.055 80.1782 116.053 78.2162 118.933 78.2162C121.795 78.2162 123.667 80.2322 123.667 82.9322C123.667 83.2922 123.649 83.5802 123.613 83.9222H115.729C115.855 85.9202 117.259 87.0182 118.933 87.0182C120.409 87.0182 121.345 86.2622 121.705 85.2002H123.469ZM132.266 80.1962C132.86 79.1522 134.156 78.2162 135.956 78.2162C138.602 78.2162 140.636 80.1962 140.636 83.2742C140.636 86.3342 138.602 88.4042 135.956 88.4042C134.156 88.4042 132.878 87.4322 132.266 86.4242V92.9222H130.628V78.3782H132.266V80.1962ZM138.962 83.2742C138.962 80.9522 137.432 79.6382 135.614 79.6382C133.832 79.6382 132.266 81.0062 132.266 83.2922C132.266 85.6142 133.832 86.9642 135.614 86.9642C137.432 86.9642 138.962 85.5962 138.962 83.2742ZM152.152 83.2922C152.152 86.4242 149.902 88.4042 147.094 88.4042C144.304 88.4042 142.18 86.4242 142.18 83.2922C142.18 80.1782 144.376 78.2162 147.166 78.2162C149.974 78.2162 152.152 80.1782 152.152 83.2922ZM143.854 83.2922C143.854 85.7942 145.384 86.9642 147.094 86.9642C148.804 86.9642 150.478 85.7942 150.478 83.2922C150.478 80.8082 148.84 79.6382 147.148 79.6382C145.42 79.6382 143.854 80.8082 143.854 83.2922ZM161.398 85.5602C161.398 87.1802 159.976 88.4042 157.798 88.4042C155.494 88.4042 153.874 87.1442 153.766 85.3442H155.458C155.548 86.2982 156.394 87.0182 157.78 87.0182C159.076 87.0182 159.796 86.3702 159.796 85.5602C159.796 83.3642 153.964 84.6422 153.964 80.9702C153.964 79.4582 155.386 78.2162 157.582 78.2162C159.76 78.2162 161.2 79.3862 161.308 81.3122H159.67C159.598 80.3222 158.842 79.6022 157.528 79.6022C156.322 79.6022 155.602 80.1782 155.602 80.9702C155.602 83.3102 161.326 82.0322 161.398 85.5602ZM164.07 85.5422V79.7282H162.792V78.3782H164.07V75.8942H165.708V78.3782H168.282V79.7282H165.708V85.5422C165.708 86.5142 166.068 86.8562 167.076 86.8562H168.282V88.2422H166.806C165.06 88.2422 164.07 87.5222 164.07 85.5422ZM175.426 85.5422V79.7282H174.148V78.3782H175.426V75.8942H177.064V78.3782H179.638V79.7282H177.064V85.5422C177.064 86.5142 177.424 86.8562 178.432 86.8562H179.638V88.2422H178.162C176.416 88.2422 175.426 87.5222 175.426 85.5422ZM190.982 83.2922C190.982 86.4242 188.732 88.4042 185.924 88.4042C183.134 88.4042 181.01 86.4242 181.01 83.2922C181.01 80.1782 183.206 78.2162 185.996 78.2162C188.804 78.2162 190.982 80.1782 190.982 83.2922ZM182.684 83.2922C182.684 85.7942 184.214 86.9642 185.924 86.9642C187.634 86.9642 189.308 85.7942 189.308 83.2922C189.308 80.8082 187.67 79.6382 185.978 79.6382C184.25 79.6382 182.684 80.8082 182.684 83.2922ZM199.573 80.2142C200.203 79.1162 201.517 78.2162 203.263 78.2162C205.927 78.2162 207.943 80.1962 207.943 83.2742C207.943 86.3342 205.909 88.4042 203.263 88.4042C201.463 88.4042 200.185 87.5042 199.573 86.4242V88.2422H197.935V74.9222H199.573V80.2142ZM206.269 83.2742C206.269 80.9522 204.739 79.6382 202.921 79.6382C201.139 79.6382 199.573 81.0062 199.573 83.2922C199.573 85.6142 201.139 86.9642 202.921 86.9642C204.739 86.9642 206.269 85.5962 206.269 83.2742ZM219.459 83.2922C219.459 86.4242 217.209 88.4042 214.401 88.4042C211.611 88.4042 209.487 86.4242 209.487 83.2922C209.487 80.1782 211.683 78.2162 214.473 78.2162C217.281 78.2162 219.459 80.1782 219.459 83.2922ZM211.161 83.2922C211.161 85.7942 212.691 86.9642 214.401 86.9642C216.111 86.9642 217.785 85.7942 217.785 83.2922C217.785 80.8082 216.147 79.6382 214.455 79.6382C212.727 79.6382 211.161 80.8082 211.161 83.2922ZM230.973 83.2922C230.973 86.4242 228.723 88.4042 225.915 88.4042C223.125 88.4042 221.001 86.4242 221.001 83.2922C221.001 80.1782 223.197 78.2162 225.987 78.2162C228.795 78.2162 230.973 80.1782 230.973 83.2922ZM222.675 83.2922C222.675 85.7942 224.205 86.9642 225.915 86.9642C227.625 86.9642 229.299 85.7942 229.299 83.2922C229.299 80.8082 227.661 79.6382 225.969 79.6382C224.241 79.6382 222.675 80.8082 222.675 83.2922ZM240.218 85.5602C240.218 87.1802 238.796 88.4042 236.618 88.4042C234.314 88.4042 232.694 87.1442 232.586 85.3442H234.278C234.368 86.2982 235.214 87.0182 236.6 87.0182C237.896 87.0182 238.616 86.3702 238.616 85.5602C238.616 83.3642 232.784 84.6422 232.784 80.9702C232.784 79.4582 234.206 78.2162 236.402 78.2162C238.58 78.2162 240.02 79.3862 240.128 81.3122H238.49C238.418 80.3222 237.662 79.6022 236.348 79.6022C235.142 79.6022 234.422 80.1782 234.422 80.9702C234.422 83.3102 240.146 82.0322 240.218 85.5602ZM242.891 85.5422V79.7282H241.613V78.3782H242.891V75.8942H244.529V78.3782H247.103V79.7282H244.529V85.5422C244.529 86.5142 244.889 86.8562 245.897 86.8562H247.103V88.2422H245.627C243.881 88.2422 242.891 87.5222 242.891 85.5422ZM257.63 86.3702L260.69 78.3782H262.382L256.442 92.8862H254.75L256.694 88.1342L252.716 78.3782H254.534L257.63 86.3702ZM273.389 83.2922C273.389 86.4242 271.139 88.4042 268.331 88.4042C265.541 88.4042 263.417 86.4242 263.417 83.2922C263.417 80.1782 265.613 78.2162 268.403 78.2162C271.211 78.2162 273.389 80.1782 273.389 83.2922ZM265.091 83.2922C265.091 85.7942 266.621 86.9642 268.331 86.9642C270.041 86.9642 271.715 85.7942 271.715 83.2922C271.715 80.8082 270.077 79.6382 268.385 79.6382C266.657 79.6382 265.091 80.8082 265.091 83.2922ZM284.29 78.3782V88.2422H282.652V86.7842C282.022 87.8102 280.816 88.3862 279.502 88.3862C277.234 88.3862 275.452 86.9822 275.452 84.1562V78.3782H277.072V83.9402C277.072 85.9382 278.17 86.9642 279.826 86.9642C281.518 86.9642 282.652 85.9202 282.652 83.7962V78.3782H284.29ZM288.694 82.8782V88.2422H287.056V78.3782H288.694V79.9802C289.252 78.8822 290.314 78.1982 291.88 78.1982V79.8902H291.448C289.882 79.8902 288.694 80.5922 288.694 82.8782ZM44.024 104.214C44.654 103.116 45.968 102.216 47.714 102.216C50.378 102.216 52.394 104.196 52.394 107.274C52.394 110.334 50.36 112.404 47.714 112.404C45.914 112.404 44.636 111.504 44.024 110.424V112.242H42.386V98.9222H44.024V104.214ZM50.72 107.274C50.72 104.952 49.19 103.638 47.372 103.638C45.59 103.638 44.024 105.006 44.024 107.292C44.024 109.614 45.59 110.964 47.372 110.964C49.19 110.964 50.72 109.596 50.72 107.274ZM63.2981 102.378V112.242H61.6601V110.784C61.0301 111.81 59.8241 112.386 58.5101 112.386C56.2421 112.386 54.4601 110.982 54.4601 108.156V102.378H56.0801V107.94C56.0801 109.938 57.1781 110.964 58.8341 110.964C60.5261 110.964 61.6601 109.92 61.6601 107.796V102.378H63.2981ZM73.1557 109.56C73.1557 111.18 71.7337 112.404 69.5557 112.404C67.2517 112.404 65.6317 111.144 65.5237 109.344H67.2157C67.3057 110.298 68.1517 111.018 69.5377 111.018C70.8337 111.018 71.5537 110.37 71.5537 109.56C71.5537 107.364 65.7217 108.642 65.7217 104.97C65.7217 103.458 67.1437 102.216 69.3397 102.216C71.5177 102.216 72.9577 103.386 73.0657 105.312H71.4277C71.3557 104.322 70.5997 103.602 69.2857 103.602C68.0797 103.602 67.3597 104.178 67.3597 104.97C67.3597 107.31 73.0837 106.032 73.1557 109.56ZM75.468 112.242V102.378H77.106V112.242H75.468ZM76.314 100.776C75.684 100.776 75.198 100.29 75.198 99.6602C75.198 99.0302 75.684 98.5442 76.314 98.5442C76.908 98.5442 77.394 99.0302 77.394 99.6602C77.394 100.29 76.908 100.776 76.314 100.776ZM87.1157 112.242V106.662C87.1157 104.646 86.0177 103.62 84.3617 103.62C82.6877 103.62 81.5357 104.664 81.5357 106.788V112.242H79.8977V102.378H81.5357V103.782C82.1837 102.756 83.3717 102.198 84.7037 102.198C86.9897 102.198 88.7357 103.602 88.7357 106.428V112.242H87.1157ZM95.6054 103.602C94.0034 103.602 92.6714 104.664 92.4914 106.59H98.7194C98.7374 104.664 97.2974 103.602 95.6054 103.602ZM100.213 109.2C99.7094 111 98.1254 112.404 95.6774 112.404C92.8694 112.404 90.7994 110.424 90.7994 107.292C90.7994 104.178 92.7974 102.216 95.6774 102.216C98.5394 102.216 100.411 104.232 100.411 106.932C100.411 107.292 100.393 107.58 100.357 107.922H92.4734C92.5994 109.92 94.0034 111.018 95.6774 111.018C97.1534 111.018 98.0894 110.262 98.4494 109.2H100.213ZM109.666 109.56C109.666 111.18 108.244 112.404 106.066 112.404C103.762 112.404 102.142 111.144 102.034 109.344H103.726C103.816 110.298 104.662 111.018 106.048 111.018C107.344 111.018 108.064 110.37 108.064 109.56C108.064 107.364 102.232 108.642 102.232 104.97C102.232 103.458 103.654 102.216 105.85 102.216C108.028 102.216 109.468 103.386 109.576 105.312H107.938C107.866 104.322 107.11 103.602 105.796 103.602C104.59 103.602 103.87 104.178 103.87 104.97C103.87 107.31 109.594 106.032 109.666 109.56ZM119.07 109.56C119.07 111.18 117.648 112.404 115.47 112.404C113.166 112.404 111.546 111.144 111.438 109.344H113.13C113.22 110.298 114.066 111.018 115.452 111.018C116.748 111.018 117.468 110.37 117.468 109.56C117.468 107.364 111.636 108.642 111.636 104.97C111.636 103.458 113.058 102.216 115.254 102.216C117.432 102.216 118.872 103.386 118.98 105.312H117.342C117.27 104.322 116.514 103.602 115.2 103.602C113.994 103.602 113.274 104.178 113.274 104.97C113.274 107.31 118.998 106.032 119.07 109.56ZM130.375 103.602C128.773 103.602 127.441 104.664 127.261 106.59H133.489C133.507 104.664 132.067 103.602 130.375 103.602ZM134.983 109.2C134.479 111 132.895 112.404 130.447 112.404C127.639 112.404 125.569 110.424 125.569 107.292C125.569 104.178 127.567 102.216 130.447 102.216C133.309 102.216 135.181 104.232 135.181 106.932C135.181 107.292 135.163 107.58 135.127 107.922H127.243C127.369 109.92 128.773 111.018 130.447 111.018C131.923 111.018 132.859 110.262 133.219 109.2H134.983ZM144.561 112.242V106.662C144.561 104.646 143.463 103.62 141.807 103.62C140.133 103.62 138.981 104.664 138.981 106.788V112.242H137.343V102.378H138.981V103.782C139.629 102.756 140.817 102.198 142.149 102.198C144.435 102.198 146.181 103.602 146.181 106.428V112.242H144.561ZM148.245 107.274C148.245 104.196 150.279 102.216 152.925 102.216C154.725 102.216 156.021 103.116 156.597 104.178V102.378H158.253V112.458C158.253 115.176 156.435 117.102 153.537 117.102C150.945 117.102 149.091 115.788 148.767 113.682H150.387C150.747 114.87 151.917 115.68 153.537 115.68C155.283 115.68 156.597 114.564 156.597 112.458V110.388C156.003 111.45 154.725 112.404 152.925 112.404C150.279 112.404 148.245 110.334 148.245 107.274ZM156.597 107.292C156.597 105.006 155.049 103.638 153.249 103.638C151.449 103.638 149.919 104.952 149.919 107.274C149.919 109.596 151.449 110.964 153.249 110.964C155.049 110.964 156.597 109.614 156.597 107.292ZM160.409 107.274C160.409 104.196 162.443 102.216 165.089 102.216C166.925 102.216 168.185 103.152 168.761 104.178V102.378H170.417V112.242H168.761V110.406C168.167 111.468 166.889 112.404 165.071 112.404C162.443 112.404 160.409 110.334 160.409 107.274ZM168.761 107.292C168.761 105.006 167.213 103.638 165.413 103.638C163.613 103.638 162.083 104.952 162.083 107.274C162.083 109.596 163.613 110.964 165.413 110.964C167.213 110.964 168.761 109.614 168.761 107.292ZM172.573 107.274C172.573 104.196 174.607 102.216 177.253 102.216C179.053 102.216 180.349 103.116 180.925 104.178V102.378H182.581V112.458C182.581 115.176 180.763 117.102 177.865 117.102C175.273 117.102 173.419 115.788 173.095 113.682H174.715C175.075 114.87 176.245 115.68 177.865 115.68C179.611 115.68 180.925 114.564 180.925 112.458V110.388C180.331 111.45 179.053 112.404 177.253 112.404C174.607 112.404 172.573 110.334 172.573 107.274ZM180.925 107.292C180.925 105.006 179.377 103.638 177.577 103.638C175.777 103.638 174.247 104.952 174.247 107.274C174.247 109.596 175.777 110.964 177.577 110.964C179.377 110.964 180.925 109.614 180.925 107.292ZM189.543 103.602C187.941 103.602 186.609 104.664 186.429 106.59H192.657C192.675 104.664 191.235 103.602 189.543 103.602ZM194.151 109.2C193.647 111 192.063 112.404 189.615 112.404C186.807 112.404 184.737 110.424 184.737 107.292C184.737 104.178 186.735 102.216 189.615 102.216C192.477 102.216 194.349 104.232 194.349 106.932C194.349 107.292 194.331 107.58 194.295 107.922H186.411C186.537 109.92 187.941 111.018 189.615 111.018C191.091 111.018 192.027 110.262 192.387 109.2H194.151ZM210.749 112.242V106.662C210.749 104.646 209.669 103.62 208.049 103.62C206.393 103.62 205.259 104.682 205.259 106.806V112.242H203.639V106.662C203.639 104.646 202.559 103.62 200.939 103.62C199.283 103.62 198.149 104.682 198.149 106.806V112.242H196.511V102.378H198.149V103.8C198.797 102.756 199.967 102.198 201.263 102.198C202.883 102.198 204.233 102.918 204.881 104.394C205.457 102.972 206.861 102.198 208.373 102.198C210.623 102.198 212.369 103.602 212.369 106.428V112.242H210.749ZM219.25 103.602C217.648 103.602 216.316 104.664 216.136 106.59H222.364C222.382 104.664 220.942 103.602 219.25 103.602ZM223.858 109.2C223.354 111 221.77 112.404 219.322 112.404C216.514 112.404 214.444 110.424 214.444 107.292C214.444 104.178 216.442 102.216 219.322 102.216C222.184 102.216 224.056 104.232 224.056 106.932C224.056 107.292 224.038 107.58 224.002 107.922H216.118C216.244 109.92 217.648 111.018 219.322 111.018C220.798 111.018 221.734 110.262 222.094 109.2H223.858ZM233.436 112.242V106.662C233.436 104.646 232.338 103.62 230.682 103.62C229.008 103.62 227.856 104.664 227.856 106.788V112.242H226.218V102.378H227.856V103.782C228.504 102.756 229.692 102.198 231.024 102.198C233.31 102.198 235.056 103.602 235.056 106.428V112.242H233.436ZM238.092 109.542V103.728H236.814V102.378H238.092V99.8942H239.73V102.378H242.304V103.728H239.73V109.542C239.73 110.514 240.09 110.856 241.098 110.856H242.304V112.242H240.828C239.082 112.242 238.092 111.522 238.092 109.542Z" fill="#595959"/>
<rect x="329" y="34.2422" width="60" height="30" rx="15" fill="white"/>
<path d="M333 49.2422C333 55.8696 338.373 61.2422 345 61.2422C351.627 61.2422 357 55.8696 357 49.2422C357 42.6148 351.627 37.2422 345 37.2422C338.373 37.2422 333 42.6148 333 49.2422Z" fill="#9898AA"/>
<rect x="42" y="138.242" width="347" height="51" rx="9" fill="white"/>
<path d="M155.688 160.032V163.76H159.752V164.96H155.688V168.8H160.232V170H154.232V158.832H160.232V160.032H155.688ZM166.707 161.072C167.774 161.072 168.638 161.397 169.299 162.048C169.96 162.688 170.291 163.616 170.291 164.832V170H168.851V165.04C168.851 164.165 168.632 163.499 168.195 163.04C167.758 162.571 167.16 162.336 166.403 162.336C165.635 162.336 165.022 162.576 164.563 163.056C164.115 163.536 163.891 164.235 163.891 165.152V170H162.435V161.232H163.891V162.48C164.179 162.032 164.568 161.685 165.059 161.44C165.56 161.195 166.11 161.072 166.707 161.072ZM172.126 165.584C172.126 164.688 172.307 163.904 172.67 163.232C173.032 162.549 173.528 162.021 174.158 161.648C174.798 161.275 175.507 161.088 176.286 161.088C177.054 161.088 177.72 161.253 178.286 161.584C178.851 161.915 179.272 162.331 179.55 162.832V161.232H181.022V170H179.55V168.368C179.262 168.88 178.83 169.307 178.254 169.648C177.688 169.979 177.027 170.144 176.27 170.144C175.491 170.144 174.787 169.952 174.158 169.568C173.528 169.184 173.032 168.645 172.67 167.952C172.307 167.259 172.126 166.469 172.126 165.584ZM179.55 165.6C179.55 164.939 179.416 164.363 179.15 163.872C178.883 163.381 178.52 163.008 178.062 162.752C177.614 162.485 177.118 162.352 176.574 162.352C176.03 162.352 175.534 162.48 175.086 162.736C174.638 162.992 174.28 163.365 174.014 163.856C173.747 164.347 173.614 164.923 173.614 165.584C173.614 166.256 173.747 166.843 174.014 167.344C174.28 167.835 174.638 168.213 175.086 168.48C175.534 168.736 176.03 168.864 176.574 168.864C177.118 168.864 177.614 168.736 178.062 168.48C178.52 168.213 178.883 167.835 179.15 167.344C179.416 166.843 179.55 166.261 179.55 165.6ZM184.938 162.864C185.237 162.341 185.674 161.915 186.25 161.584C186.826 161.253 187.482 161.088 188.218 161.088C189.007 161.088 189.717 161.275 190.346 161.648C190.975 162.021 191.471 162.549 191.834 163.232C192.197 163.904 192.378 164.688 192.378 165.584C192.378 166.469 192.197 167.259 191.834 167.952C191.471 168.645 190.97 169.184 190.33 169.568C189.701 169.952 188.997 170.144 188.218 170.144C187.461 170.144 186.794 169.979 186.218 169.648C185.653 169.317 185.226 168.896 184.938 168.384V170H183.482V158.16H184.938V162.864ZM190.89 165.584C190.89 164.923 190.757 164.347 190.49 163.856C190.223 163.365 189.861 162.992 189.402 162.736C188.954 162.48 188.458 162.352 187.914 162.352C187.381 162.352 186.885 162.485 186.426 162.752C185.978 163.008 185.615 163.387 185.338 163.888C185.071 164.379 184.938 164.949 184.938 165.6C184.938 166.261 185.071 166.843 185.338 167.344C185.615 167.835 185.978 168.213 186.426 168.48C186.885 168.736 187.381 168.864 187.914 168.864C188.458 168.864 188.954 168.736 189.402 168.48C189.861 168.213 190.223 167.835 190.49 167.344C190.757 166.843 190.89 166.256 190.89 165.584ZM195.751 158.16V170H194.295V158.16H195.751ZM206.232 165.28C206.232 165.557 206.216 165.851 206.184 166.16H199.176C199.229 167.024 199.523 167.701 200.056 168.192C200.6 168.672 201.256 168.912 202.024 168.912C202.653 168.912 203.176 168.768 203.592 168.48C204.019 168.181 204.317 167.787 204.488 167.296H206.056C205.821 168.139 205.352 168.827 204.648 169.36C203.944 169.883 203.069 170.144 202.024 170.144C201.192 170.144 200.445 169.957 199.784 169.584C199.133 169.211 198.621 168.683 198.248 168C197.875 167.307 197.688 166.507 197.688 165.6C197.688 164.693 197.869 163.899 198.232 163.216C198.595 162.533 199.101 162.011 199.752 161.648C200.413 161.275 201.171 161.088 202.024 161.088C202.856 161.088 203.592 161.269 204.232 161.632C204.872 161.995 205.363 162.496 205.704 163.136C206.056 163.765 206.232 164.48 206.232 165.28ZM204.728 164.976C204.728 164.421 204.605 163.947 204.36 163.552C204.115 163.147 203.779 162.843 203.352 162.64C202.936 162.427 202.472 162.32 201.96 162.32C201.224 162.32 200.595 162.555 200.072 163.024C199.56 163.493 199.267 164.144 199.192 164.976H204.728ZM219.012 167.52H214.148L213.252 170H211.715L215.748 158.912H217.428L221.444 170H219.908L219.012 167.52ZM218.596 166.336L216.58 160.704L214.564 166.336H218.596ZM224.657 158.16V170H223.201V158.16H224.657ZM235.138 165.28C235.138 165.557 235.122 165.851 235.09 166.16H228.082C228.136 167.024 228.429 167.701 228.962 168.192C229.506 168.672 230.162 168.912 230.93 168.912C231.56 168.912 232.082 168.768 232.498 168.48C232.925 168.181 233.224 167.787 233.394 167.296H234.962C234.728 168.139 234.258 168.827 233.554 169.36C232.85 169.883 231.976 170.144 230.93 170.144C230.098 170.144 229.352 169.957 228.69 169.584C228.04 169.211 227.528 168.683 227.154 168C226.781 167.307 226.594 166.507 226.594 165.6C226.594 164.693 226.776 163.899 227.138 163.216C227.501 162.533 228.008 162.011 228.658 161.648C229.32 161.275 230.077 161.088 230.93 161.088C231.762 161.088 232.498 161.269 233.138 161.632C233.778 161.995 234.269 162.496 234.61 163.136C234.962 163.765 235.138 164.48 235.138 165.28ZM233.634 164.976C233.634 164.421 233.512 163.947 233.266 163.552C233.021 163.147 232.685 162.843 232.258 162.64C231.842 162.427 231.378 162.32 230.866 162.32C230.13 162.32 229.501 162.555 228.978 163.024C228.466 163.493 228.173 164.144 228.098 164.976H233.634ZM238.516 162.656C238.772 162.155 239.135 161.765 239.604 161.488C240.084 161.211 240.665 161.072 241.348 161.072V162.576H240.964C239.332 162.576 238.516 163.461 238.516 165.232V170H237.06V161.232H238.516V162.656ZM244.805 162.432V167.6C244.805 168.027 244.896 168.331 245.077 168.512C245.258 168.683 245.573 168.768 246.021 168.768H247.093V170H245.781C244.97 170 244.362 169.813 243.957 169.44C243.552 169.067 243.349 168.453 243.349 167.6V162.432H242.213V161.232H243.349V159.024H244.805V161.232H247.093V162.432H244.805ZM251.961 170.144C251.289 170.144 250.686 170.032 250.153 169.808C249.62 169.573 249.198 169.253 248.889 168.848C248.58 168.432 248.409 167.957 248.377 167.424H249.881C249.924 167.861 250.126 168.219 250.489 168.496C250.862 168.773 251.348 168.912 251.945 168.912C252.5 168.912 252.937 168.789 253.257 168.544C253.577 168.299 253.737 167.989 253.737 167.616C253.737 167.232 253.566 166.949 253.225 166.768C252.884 166.576 252.356 166.389 251.641 166.208C250.99 166.037 250.457 165.867 250.041 165.696C249.636 165.515 249.284 165.253 248.985 164.912C248.697 164.56 248.553 164.101 248.553 163.536C248.553 163.088 248.686 162.677 248.953 162.304C249.22 161.931 249.598 161.637 250.089 161.424C250.58 161.2 251.14 161.088 251.769 161.088C252.74 161.088 253.524 161.333 254.121 161.824C254.718 162.315 255.038 162.987 255.081 163.84H253.625C253.593 163.381 253.406 163.013 253.065 162.736C252.734 162.459 252.286 162.32 251.721 162.32C251.198 162.32 250.782 162.432 250.473 162.656C250.164 162.88 250.009 163.173 250.009 163.536C250.009 163.824 250.1 164.064 250.281 164.256C250.473 164.437 250.708 164.587 250.985 164.704C251.273 164.811 251.668 164.933 252.169 165.072C252.798 165.243 253.31 165.413 253.705 165.584C254.1 165.744 254.436 165.989 254.713 166.32C255.001 166.651 255.15 167.083 255.161 167.616C255.161 168.096 255.028 168.528 254.761 168.912C254.494 169.296 254.116 169.6 253.625 169.824C253.145 170.037 252.59 170.144 251.961 170.144Z" fill="black"/>
</g>
<rect x="0.203883" y="0.203883" width="409.592" height="274.592" rx="7.95146" stroke="#EAEAEA" stroke-width="0.407767"/>
<defs>
<filter id="filter0_f_1043_1307" x="-21.6602" y="-361.418" width="722.32" height="722.32" filterUnits="userSpaceOnUse" color-interpolation-filters="sRGB">
<feFlood flood-opacity="0" result="BackgroundImageFix"/>
<feBlend mode="normal" in="SourceGraphic" in2="BackgroundImageFix" result="shape"/>
<feGaussianBlur stdDeviation="122.33" result="effect1_foregroundBlur_1043_1307"/>
</filter>
<filter id="filter1_f_1043_1307" x="-284.66" y="-139.418" width="739.32" height="739.32" filterUnits="userSpaceOnUse" color-interpolation-filters="sRGB">
<feFlood flood-opacity="0" result="BackgroundImageFix"/>
<feBlend mode="normal" in="SourceGraphic" in2="BackgroundImageFix" result="shape"/>
<feGaussianBlur stdDeviation="122.33" result="effect1_foregroundBlur_1043_1307"/>
</filter>
<clipPath id="clip0_1043_1307">
<rect width="410" height="275" rx="8.15534" fill="white"/>
</clipPath>
<clipPath id="clip1_1043_1307">
<rect width="27" height="27" fill="white" transform="translate(177 222.242)"/>
</clipPath>
</defs>
</svg>
