<svg width="410" height="275" viewBox="0 0 410 275" fill="none" xmlns="http://www.w3.org/2000/svg">
<g clip-path="url(#clip0_1043_1340)">
<rect width="410.214" height="275.243" rx="8.15534" fill="white"/>
<g opacity="0.2" filter="url(#filter0_f_1043_1340)">
<circle cx="339.5" cy="-0.5" r="116.5" fill="#FF1494"/>
</g>
<g filter="url(#filter1_f_1043_1340)">
<circle cx="85" cy="230" r="125" fill="#0000FF" fill-opacity="0.15"/>
</g>
<path d="M221.232 229.832V231.032H216.688V234.76H220.752V235.96H216.688V239.8H221.232V241H215.232V229.832H221.232ZM222.891 236.584C222.891 233.848 224.699 232.088 227.067 232.088C228.443 232.088 229.707 232.792 230.315 233.8V229.16H231.787V241H230.315V239.352C229.787 240.328 228.651 241.144 227.051 241.144C224.699 241.144 222.891 239.304 222.891 236.584ZM230.315 236.6C230.315 234.568 228.939 233.352 227.339 233.352C225.739 233.352 224.379 234.52 224.379 236.584C224.379 238.648 225.739 239.864 227.339 239.864C228.939 239.864 230.315 238.664 230.315 236.6ZM234.248 241V232.232H235.704V241H234.248ZM235 230.808C234.44 230.808 234.008 230.376 234.008 229.816C234.008 229.256 234.44 228.824 235 228.824C235.528 228.824 235.96 229.256 235.96 229.816C235.96 230.376 235.528 230.808 235 230.808ZM238.505 238.6V233.432H237.369V232.232H238.505V230.024H239.961V232.232H242.249V233.432H239.961V238.6C239.961 239.464 240.281 239.768 241.177 239.768H242.249V241H240.937C239.385 241 238.505 240.36 238.505 238.6Z" fill="#8F00FF"/>
<g clip-path="url(#clip1_1043_1340)">
<path d="M201.92 238.961C201.549 238.961 201.247 239.262 201.247 239.634V245.604C201.246 246.718 200.344 247.62 199.23 247.621H180.362C179.248 247.62 178.346 246.718 178.345 245.604V228.081C178.346 226.967 179.248 226.065 180.362 226.064H186.333C186.704 226.064 187.005 225.763 187.005 225.391C187.005 225.02 186.704 224.719 186.333 224.719H180.362C178.506 224.721 177.002 226.225 177 228.081V245.604C177.002 247.46 178.506 248.964 180.362 248.967H199.23C201.086 248.964 202.59 247.46 202.592 245.604V239.634C202.592 239.262 202.291 238.961 201.92 238.961Z" fill="#8F00FF"/>
<path d="M202.326 222.988C201.145 221.806 199.229 221.806 198.047 222.988L186.05 234.985C185.968 235.067 185.909 235.169 185.878 235.281L184.3 240.976C184.235 241.21 184.301 241.46 184.472 241.631C184.644 241.803 184.894 241.868 185.127 241.804L190.823 240.226C190.935 240.195 191.037 240.136 191.119 240.053L203.115 228.056C204.295 226.874 204.295 224.959 203.115 223.777L202.326 222.988ZM187.515 235.422L197.334 225.603L200.5 228.77L190.682 238.588L187.515 235.422ZM186.883 236.691L189.413 239.221L185.913 240.191L186.883 236.691ZM202.165 227.106L201.451 227.819L198.285 224.652L198.998 223.939C199.654 223.282 200.719 223.282 201.375 223.939L202.165 224.728C202.82 225.385 202.82 226.449 202.165 227.106Z" fill="#8F00FF"/>
</g>
<path d="M51.88 53L50.88 50.16H45.06L44.06 53H41.68L46.66 39.08H49.3L54.28 53H51.88ZM50.24 48.3L47.98 41.84L45.7 48.3H50.24ZM56.1653 56.5L61.5853 34.12H63.8453L58.4053 56.5H56.1653ZM74.5588 49.02C74.5588 47.64 73.5188 46.8 71.9988 46.8H68.9988V51.14H72.0788C73.6188 51.14 74.5588 50.36 74.5588 49.02ZM74.1988 42.96C74.1988 41.7 73.2988 40.96 71.8188 40.96H68.9988V44.94H71.8188C73.2988 44.94 74.1988 44.24 74.1988 42.96ZM76.8388 49.26C76.8388 51.38 75.1188 53 72.2788 53H66.7188V39.1H72.0188C74.9588 39.1 76.5187 40.72 76.5187 42.68C76.5187 44.36 75.4987 45.38 74.1588 45.86C75.6388 46.12 76.8388 47.6 76.8388 49.26ZM83.7917 40.96V39.1H93.4917V40.96H89.7917V53H87.5117V40.96H83.7917ZM100.441 43.72C98.9008 43.72 97.6608 44.76 97.4208 46.5H103.521C103.481 44.8 102.141 43.72 100.441 43.72ZM105.601 49.72C104.981 51.64 103.241 53.18 100.541 53.18C97.3808 53.18 95.0408 50.94 95.0408 47.48C95.0408 44.02 97.2808 41.8 100.541 41.8C103.681 41.8 105.901 43.98 105.901 47.22C105.901 47.6 105.881 47.96 105.821 48.34H97.4008C97.5608 50.16 98.8608 51.26 100.541 51.26C101.941 51.26 102.721 50.58 103.141 49.72H105.601ZM116.365 49.92C116.365 51.78 114.745 53.18 112.145 53.18C109.505 53.18 107.645 51.62 107.545 49.62H109.905C109.985 50.52 110.845 51.26 112.105 51.26C113.425 51.26 114.125 50.7 114.125 49.94C114.125 47.78 107.725 49.02 107.725 44.98C107.725 43.22 109.365 41.8 111.965 41.8C114.465 41.8 116.105 43.14 116.225 45.34H113.945C113.865 44.38 113.125 43.72 111.885 43.72C110.665 43.72 110.025 44.22 110.025 44.96C110.025 47.18 116.245 45.94 116.365 49.92ZM119.188 49.94V43.84H117.888V41.98H119.188V39.24H121.488V41.98H124.168V43.84H121.488V49.94C121.488 50.76 121.808 51.1 122.768 51.1H124.168V53H122.368C120.408 53 119.188 52.18 119.188 49.94ZM126.27 53V41.98H128.55V53H126.27ZM127.43 40.52C126.61 40.52 125.97 39.88 125.97 39.06C125.97 38.24 126.61 37.6 127.43 37.6C128.23 37.6 128.87 38.24 128.87 39.06C128.87 39.88 128.23 40.52 127.43 40.52ZM139.363 53V46.84C139.363 44.82 138.263 43.78 136.603 43.78C134.923 43.78 133.823 44.82 133.823 46.84V53H131.543V41.98H133.823V43.24C134.563 42.34 135.783 41.8 137.103 41.8C139.683 41.8 141.623 43.42 141.623 46.5V53H139.363ZM143.771 47.44C143.771 44.04 146.071 41.8 148.971 41.8C150.771 41.8 152.111 42.64 152.791 43.58V41.98H155.091V53.18C155.091 56.18 153.151 58.44 149.711 58.44C146.771 58.44 144.591 56.98 144.311 54.54H146.571C146.911 55.68 148.131 56.46 149.711 56.46C151.471 56.46 152.791 55.38 152.791 53.18V51.34C152.091 52.28 150.771 53.18 148.971 53.18C146.071 53.18 143.771 50.84 143.771 47.44ZM152.791 47.48C152.791 45.12 151.171 43.78 149.451 43.78C147.751 43.78 146.111 45.06 146.111 47.44C146.111 49.82 147.751 51.2 149.451 51.2C151.171 51.2 152.791 49.86 152.791 47.48ZM172.661 53L171.661 50.16H165.841L164.841 53H162.461L167.441 39.08H170.081L175.061 53H172.661ZM171.021 48.3L168.761 41.84L166.481 48.3H171.021ZM187.207 41.98V53H184.927V51.68C184.207 52.62 182.967 53.16 181.667 53.16C179.087 53.16 177.127 51.54 177.127 48.46V41.98H179.387V48.12C179.387 50.14 180.487 51.18 182.147 51.18C183.827 51.18 184.927 50.14 184.927 48.12V41.98H187.207ZM190.575 49.94V43.84H189.275V41.98H190.575V39.24H192.875V41.98H195.555V43.84H192.875V49.94C192.875 50.76 193.195 51.1 194.155 51.1H195.555V53H193.755C191.795 53 190.575 52.18 190.575 49.94ZM208.156 47.48C208.156 50.94 205.596 53.18 202.436 53.18C199.296 53.18 196.916 50.94 196.916 47.48C196.916 44.02 199.396 41.8 202.536 41.8C205.676 41.8 208.156 44.02 208.156 47.48ZM199.236 47.48C199.236 49.98 200.716 51.2 202.436 51.2C204.136 51.2 205.816 49.98 205.816 47.48C205.816 44.98 204.196 43.78 202.496 43.78C200.776 43.78 199.236 44.98 199.236 47.48ZM226.03 53V46.84C226.03 44.82 224.93 43.78 223.27 43.78C221.59 43.78 220.49 44.82 220.49 46.84V53H218.23V46.84C218.23 44.82 217.13 43.78 215.47 43.78C213.79 43.78 212.69 44.82 212.69 46.84V53H210.41V41.98H212.69V43.24C213.43 42.34 214.63 41.8 215.95 41.8C217.69 41.8 219.15 42.54 219.91 43.98C220.59 42.64 222.15 41.8 223.75 41.8C226.33 41.8 228.29 43.42 228.29 46.5V53H226.03ZM230.431 47.44C230.431 44.04 232.731 41.8 235.631 41.8C237.491 41.8 238.771 42.68 239.451 43.58V41.98H241.751V53H239.451V51.36C238.751 52.3 237.431 53.18 235.591 53.18C232.731 53.18 230.431 50.84 230.431 47.44ZM239.451 47.48C239.451 45.12 237.831 43.78 236.111 43.78C234.411 43.78 232.771 45.06 232.771 47.44C232.771 49.82 234.411 51.2 236.111 51.2C237.831 51.2 239.451 49.86 239.451 47.48ZM245.106 49.94V43.84H243.806V41.98H245.106V39.24H247.406V41.98H250.086V43.84H247.406V49.94C247.406 50.76 247.726 51.1 248.686 51.1H250.086V53H248.286C246.326 53 245.106 52.18 245.106 49.94ZM252.188 53V41.98H254.468V53H252.188ZM253.348 40.52C252.528 40.52 251.888 39.88 251.888 39.06C251.888 38.24 252.528 37.6 253.348 37.6C254.148 37.6 254.788 38.24 254.788 39.06C254.788 39.88 254.148 40.52 253.348 40.52ZM267.961 47.48C267.961 50.94 265.401 53.18 262.241 53.18C259.101 53.18 256.721 50.94 256.721 47.48C256.721 44.02 259.201 41.8 262.341 41.8C265.481 41.8 267.961 44.02 267.961 47.48ZM259.041 47.48C259.041 49.98 260.521 51.2 262.241 51.2C263.941 51.2 265.621 49.98 265.621 47.48C265.621 44.98 264.001 43.78 262.301 43.78C260.581 43.78 259.041 44.98 259.041 47.48ZM278.035 53V46.84C278.035 44.82 276.935 43.78 275.275 43.78C273.595 43.78 272.495 44.82 272.495 46.84V53H270.215V41.98H272.495V43.24C273.235 42.34 274.455 41.8 275.775 41.8C278.355 41.8 280.295 43.42 280.295 46.5V53H278.035Z" fill="black"/>
<path d="M50.54 84.58C50.54 86.362 49.082 88.126 46.364 88.126C43.844 88.126 42.062 86.722 42.026 84.652H43.772C43.88 85.696 44.618 86.74 46.364 86.74C47.948 86.74 48.884 85.84 48.884 84.652C48.884 81.268 42.098 83.428 42.098 78.766C42.098 76.696 43.772 75.292 46.256 75.292C48.65 75.292 50.216 76.606 50.414 78.514H48.614C48.506 77.668 47.714 76.714 46.184 76.696C44.834 76.66 43.772 77.362 43.772 78.712C43.772 81.952 50.54 79.936 50.54 84.58ZM52.3385 83.05C52.3385 79.954 54.3365 77.974 57.1445 77.974C59.5925 77.974 61.1945 79.234 61.6985 81.304H59.9345C59.5925 80.116 58.6025 79.36 57.1445 79.36C55.3445 79.36 54.0125 80.638 54.0125 83.05C54.0125 85.498 55.3445 86.776 57.1445 86.776C58.6025 86.776 59.5745 86.074 59.9345 84.832H61.6985C61.1945 86.794 59.5925 88.162 57.1445 88.162C54.3365 88.162 52.3385 86.182 52.3385 83.05ZM63.884 88V74.68H65.522V79.558C66.17 78.514 67.394 77.956 68.78 77.956C70.976 77.956 72.722 79.36 72.722 82.186V88H71.102V82.42C71.102 80.404 70.004 79.378 68.348 79.378C66.674 79.378 65.522 80.422 65.522 82.546V88H63.884ZM79.5917 79.36C77.9897 79.36 76.6577 80.422 76.4777 82.348H82.7057C82.7237 80.422 81.2837 79.36 79.5917 79.36ZM84.1997 84.958C83.6957 86.758 82.1117 88.162 79.6637 88.162C76.8557 88.162 74.7857 86.182 74.7857 83.05C74.7857 79.936 76.7837 77.974 79.6637 77.974C82.5257 77.974 84.3977 79.99 84.3977 82.69C84.3977 83.05 84.3797 83.338 84.3437 83.68H76.4597C76.5857 85.678 77.9897 86.776 79.6637 86.776C81.1397 86.776 82.0757 86.02 82.4357 84.958H84.1997ZM85.9478 83.032C85.9478 79.954 87.9818 77.974 90.6458 77.974C92.1938 77.974 93.6158 78.766 94.2998 79.9V74.68H95.9558V88H94.2998V86.146C93.7058 87.244 92.4278 88.162 90.6278 88.162C87.9818 88.162 85.9478 86.092 85.9478 83.032ZM94.2998 83.05C94.2998 80.764 92.7518 79.396 90.9518 79.396C89.1518 79.396 87.6218 80.71 87.6218 83.032C87.6218 85.354 89.1518 86.722 90.9518 86.722C92.7518 86.722 94.2998 85.372 94.2998 83.05ZM107.472 78.136V88H105.834V86.542C105.204 87.568 103.998 88.144 102.684 88.144C100.416 88.144 98.6339 86.74 98.6339 83.914V78.136H100.254V83.698C100.254 85.696 101.352 86.722 103.008 86.722C104.7 86.722 105.834 85.678 105.834 83.554V78.136H107.472ZM110.238 88V74.68H111.876V88H110.238ZM118.861 79.36C117.259 79.36 115.927 80.422 115.747 82.348H121.975C121.993 80.422 120.553 79.36 118.861 79.36ZM123.469 84.958C122.965 86.758 121.381 88.162 118.933 88.162C116.125 88.162 114.055 86.182 114.055 83.05C114.055 79.936 116.053 77.974 118.933 77.974C121.795 77.974 123.667 79.99 123.667 82.69C123.667 83.05 123.649 83.338 123.613 83.68H115.729C115.855 85.678 117.259 86.776 118.933 86.776C120.409 86.776 121.345 86.02 121.705 84.958H123.469ZM132.266 79.954C132.86 78.91 134.156 77.974 135.956 77.974C138.602 77.974 140.636 79.954 140.636 83.032C140.636 86.092 138.602 88.162 135.956 88.162C134.156 88.162 132.878 87.19 132.266 86.182V92.68H130.628V78.136H132.266V79.954ZM138.962 83.032C138.962 80.71 137.432 79.396 135.614 79.396C133.832 79.396 132.266 80.764 132.266 83.05C132.266 85.372 133.832 86.722 135.614 86.722C137.432 86.722 138.962 85.354 138.962 83.032ZM152.152 83.05C152.152 86.182 149.902 88.162 147.094 88.162C144.304 88.162 142.18 86.182 142.18 83.05C142.18 79.936 144.376 77.974 147.166 77.974C149.974 77.974 152.152 79.936 152.152 83.05ZM143.854 83.05C143.854 85.552 145.384 86.722 147.094 86.722C148.804 86.722 150.478 85.552 150.478 83.05C150.478 80.566 148.84 79.396 147.148 79.396C145.42 79.396 143.854 80.566 143.854 83.05ZM161.398 85.318C161.398 86.938 159.976 88.162 157.798 88.162C155.494 88.162 153.874 86.902 153.766 85.102H155.458C155.548 86.056 156.394 86.776 157.78 86.776C159.076 86.776 159.796 86.128 159.796 85.318C159.796 83.122 153.964 84.4 153.964 80.728C153.964 79.216 155.386 77.974 157.582 77.974C159.76 77.974 161.2 79.144 161.308 81.07H159.67C159.598 80.08 158.842 79.36 157.528 79.36C156.322 79.36 155.602 79.936 155.602 80.728C155.602 83.068 161.326 81.79 161.398 85.318ZM164.07 85.3V79.486H162.792V78.136H164.07V75.652H165.708V78.136H168.282V79.486H165.708V85.3C165.708 86.272 166.068 86.614 167.076 86.614H168.282V88H166.806C165.06 88 164.07 87.28 164.07 85.3ZM175.426 85.3V79.486H174.148V78.136H175.426V75.652H177.064V78.136H179.638V79.486H177.064V85.3C177.064 86.272 177.424 86.614 178.432 86.614H179.638V88H178.162C176.416 88 175.426 87.28 175.426 85.3ZM190.982 83.05C190.982 86.182 188.732 88.162 185.924 88.162C183.134 88.162 181.01 86.182 181.01 83.05C181.01 79.936 183.206 77.974 185.996 77.974C188.804 77.974 190.982 79.936 190.982 83.05ZM182.684 83.05C182.684 85.552 184.214 86.722 185.924 86.722C187.634 86.722 189.308 85.552 189.308 83.05C189.308 80.566 187.67 79.396 185.978 79.396C184.25 79.396 182.684 80.566 182.684 83.05ZM199.573 79.972C200.203 78.874 201.517 77.974 203.263 77.974C205.927 77.974 207.943 79.954 207.943 83.032C207.943 86.092 205.909 88.162 203.263 88.162C201.463 88.162 200.185 87.262 199.573 86.182V88H197.935V74.68H199.573V79.972ZM206.269 83.032C206.269 80.71 204.739 79.396 202.921 79.396C201.139 79.396 199.573 80.764 199.573 83.05C199.573 85.372 201.139 86.722 202.921 86.722C204.739 86.722 206.269 85.354 206.269 83.032ZM219.459 83.05C219.459 86.182 217.209 88.162 214.401 88.162C211.611 88.162 209.487 86.182 209.487 83.05C209.487 79.936 211.683 77.974 214.473 77.974C217.281 77.974 219.459 79.936 219.459 83.05ZM211.161 83.05C211.161 85.552 212.691 86.722 214.401 86.722C216.111 86.722 217.785 85.552 217.785 83.05C217.785 80.566 216.147 79.396 214.455 79.396C212.727 79.396 211.161 80.566 211.161 83.05ZM230.973 83.05C230.973 86.182 228.723 88.162 225.915 88.162C223.125 88.162 221.001 86.182 221.001 83.05C221.001 79.936 223.197 77.974 225.987 77.974C228.795 77.974 230.973 79.936 230.973 83.05ZM222.675 83.05C222.675 85.552 224.205 86.722 225.915 86.722C227.625 86.722 229.299 85.552 229.299 83.05C229.299 80.566 227.661 79.396 225.969 79.396C224.241 79.396 222.675 80.566 222.675 83.05ZM240.218 85.318C240.218 86.938 238.796 88.162 236.618 88.162C234.314 88.162 232.694 86.902 232.586 85.102H234.278C234.368 86.056 235.214 86.776 236.6 86.776C237.896 86.776 238.616 86.128 238.616 85.318C238.616 83.122 232.784 84.4 232.784 80.728C232.784 79.216 234.206 77.974 236.402 77.974C238.58 77.974 240.02 79.144 240.128 81.07H238.49C238.418 80.08 237.662 79.36 236.348 79.36C235.142 79.36 234.422 79.936 234.422 80.728C234.422 83.068 240.146 81.79 240.218 85.318ZM242.891 85.3V79.486H241.613V78.136H242.891V75.652H244.529V78.136H247.103V79.486H244.529V85.3C244.529 86.272 244.889 86.614 245.897 86.614H247.103V88H245.627C243.881 88 242.891 87.28 242.891 85.3ZM257.63 86.128L260.69 78.136H262.382L256.442 92.644H254.75L256.694 87.892L252.716 78.136H254.534L257.63 86.128ZM273.389 83.05C273.389 86.182 271.139 88.162 268.331 88.162C265.541 88.162 263.417 86.182 263.417 83.05C263.417 79.936 265.613 77.974 268.403 77.974C271.211 77.974 273.389 79.936 273.389 83.05ZM265.091 83.05C265.091 85.552 266.621 86.722 268.331 86.722C270.041 86.722 271.715 85.552 271.715 83.05C271.715 80.566 270.077 79.396 268.385 79.396C266.657 79.396 265.091 80.566 265.091 83.05ZM284.29 78.136V88H282.652V86.542C282.022 87.568 280.816 88.144 279.502 88.144C277.234 88.144 275.452 86.74 275.452 83.914V78.136H277.072V83.698C277.072 85.696 278.17 86.722 279.826 86.722C281.518 86.722 282.652 85.678 282.652 83.554V78.136H284.29ZM288.694 82.636V88H287.056V78.136H288.694V79.738C289.252 78.64 290.314 77.956 291.88 77.956V79.648H291.448C289.882 79.648 288.694 80.35 288.694 82.636ZM44.024 103.972C44.654 102.874 45.968 101.974 47.714 101.974C50.378 101.974 52.394 103.954 52.394 107.032C52.394 110.092 50.36 112.162 47.714 112.162C45.914 112.162 44.636 111.262 44.024 110.182V112H42.386V98.68H44.024V103.972ZM50.72 107.032C50.72 104.71 49.19 103.396 47.372 103.396C45.59 103.396 44.024 104.764 44.024 107.05C44.024 109.372 45.59 110.722 47.372 110.722C49.19 110.722 50.72 109.354 50.72 107.032ZM63.2981 102.136V112H61.6601V110.542C61.0301 111.568 59.8241 112.144 58.5101 112.144C56.2421 112.144 54.4601 110.74 54.4601 107.914V102.136H56.0801V107.698C56.0801 109.696 57.1781 110.722 58.8341 110.722C60.5261 110.722 61.6601 109.678 61.6601 107.554V102.136H63.2981ZM73.1557 109.318C73.1557 110.938 71.7337 112.162 69.5557 112.162C67.2517 112.162 65.6317 110.902 65.5237 109.102H67.2157C67.3057 110.056 68.1517 110.776 69.5377 110.776C70.8337 110.776 71.5537 110.128 71.5537 109.318C71.5537 107.122 65.7217 108.4 65.7217 104.728C65.7217 103.216 67.1437 101.974 69.3397 101.974C71.5177 101.974 72.9577 103.144 73.0657 105.07H71.4277C71.3557 104.08 70.5997 103.36 69.2857 103.36C68.0797 103.36 67.3597 103.936 67.3597 104.728C67.3597 107.068 73.0837 105.79 73.1557 109.318ZM75.468 112V102.136H77.106V112H75.468ZM76.314 100.534C75.684 100.534 75.198 100.048 75.198 99.418C75.198 98.788 75.684 98.302 76.314 98.302C76.908 98.302 77.394 98.788 77.394 99.418C77.394 100.048 76.908 100.534 76.314 100.534ZM87.1157 112V106.42C87.1157 104.404 86.0177 103.378 84.3617 103.378C82.6877 103.378 81.5357 104.422 81.5357 106.546V112H79.8977V102.136H81.5357V103.54C82.1837 102.514 83.3717 101.956 84.7037 101.956C86.9897 101.956 88.7357 103.36 88.7357 106.186V112H87.1157ZM95.6054 103.36C94.0034 103.36 92.6714 104.422 92.4914 106.348H98.7194C98.7374 104.422 97.2974 103.36 95.6054 103.36ZM100.213 108.958C99.7094 110.758 98.1254 112.162 95.6774 112.162C92.8694 112.162 90.7994 110.182 90.7994 107.05C90.7994 103.936 92.7974 101.974 95.6774 101.974C98.5394 101.974 100.411 103.99 100.411 106.69C100.411 107.05 100.393 107.338 100.357 107.68H92.4734C92.5994 109.678 94.0034 110.776 95.6774 110.776C97.1534 110.776 98.0894 110.02 98.4494 108.958H100.213ZM109.666 109.318C109.666 110.938 108.244 112.162 106.066 112.162C103.762 112.162 102.142 110.902 102.034 109.102H103.726C103.816 110.056 104.662 110.776 106.048 110.776C107.344 110.776 108.064 110.128 108.064 109.318C108.064 107.122 102.232 108.4 102.232 104.728C102.232 103.216 103.654 101.974 105.85 101.974C108.028 101.974 109.468 103.144 109.576 105.07H107.938C107.866 104.08 107.11 103.36 105.796 103.36C104.59 103.36 103.87 103.936 103.87 104.728C103.87 107.068 109.594 105.79 109.666 109.318ZM119.07 109.318C119.07 110.938 117.648 112.162 115.47 112.162C113.166 112.162 111.546 110.902 111.438 109.102H113.13C113.22 110.056 114.066 110.776 115.452 110.776C116.748 110.776 117.468 110.128 117.468 109.318C117.468 107.122 111.636 108.4 111.636 104.728C111.636 103.216 113.058 101.974 115.254 101.974C117.432 101.974 118.872 103.144 118.98 105.07H117.342C117.27 104.08 116.514 103.36 115.2 103.36C113.994 103.36 113.274 103.936 113.274 104.728C113.274 107.068 118.998 105.79 119.07 109.318ZM130.375 103.36C128.773 103.36 127.441 104.422 127.261 106.348H133.489C133.507 104.422 132.067 103.36 130.375 103.36ZM134.983 108.958C134.479 110.758 132.895 112.162 130.447 112.162C127.639 112.162 125.569 110.182 125.569 107.05C125.569 103.936 127.567 101.974 130.447 101.974C133.309 101.974 135.181 103.99 135.181 106.69C135.181 107.05 135.163 107.338 135.127 107.68H127.243C127.369 109.678 128.773 110.776 130.447 110.776C131.923 110.776 132.859 110.02 133.219 108.958H134.983ZM144.561 112V106.42C144.561 104.404 143.463 103.378 141.807 103.378C140.133 103.378 138.981 104.422 138.981 106.546V112H137.343V102.136H138.981V103.54C139.629 102.514 140.817 101.956 142.149 101.956C144.435 101.956 146.181 103.36 146.181 106.186V112H144.561ZM148.245 107.032C148.245 103.954 150.279 101.974 152.925 101.974C154.725 101.974 156.021 102.874 156.597 103.936V102.136H158.253V112.216C158.253 114.934 156.435 116.86 153.537 116.86C150.945 116.86 149.091 115.546 148.767 113.44H150.387C150.747 114.628 151.917 115.438 153.537 115.438C155.283 115.438 156.597 114.322 156.597 112.216V110.146C156.003 111.208 154.725 112.162 152.925 112.162C150.279 112.162 148.245 110.092 148.245 107.032ZM156.597 107.05C156.597 104.764 155.049 103.396 153.249 103.396C151.449 103.396 149.919 104.71 149.919 107.032C149.919 109.354 151.449 110.722 153.249 110.722C155.049 110.722 156.597 109.372 156.597 107.05ZM160.409 107.032C160.409 103.954 162.443 101.974 165.089 101.974C166.925 101.974 168.185 102.91 168.761 103.936V102.136H170.417V112H168.761V110.164C168.167 111.226 166.889 112.162 165.071 112.162C162.443 112.162 160.409 110.092 160.409 107.032ZM168.761 107.05C168.761 104.764 167.213 103.396 165.413 103.396C163.613 103.396 162.083 104.71 162.083 107.032C162.083 109.354 163.613 110.722 165.413 110.722C167.213 110.722 168.761 109.372 168.761 107.05ZM172.573 107.032C172.573 103.954 174.607 101.974 177.253 101.974C179.053 101.974 180.349 102.874 180.925 103.936V102.136H182.581V112.216C182.581 114.934 180.763 116.86 177.865 116.86C175.273 116.86 173.419 115.546 173.095 113.44H174.715C175.075 114.628 176.245 115.438 177.865 115.438C179.611 115.438 180.925 114.322 180.925 112.216V110.146C180.331 111.208 179.053 112.162 177.253 112.162C174.607 112.162 172.573 110.092 172.573 107.032ZM180.925 107.05C180.925 104.764 179.377 103.396 177.577 103.396C175.777 103.396 174.247 104.71 174.247 107.032C174.247 109.354 175.777 110.722 177.577 110.722C179.377 110.722 180.925 109.372 180.925 107.05ZM189.543 103.36C187.941 103.36 186.609 104.422 186.429 106.348H192.657C192.675 104.422 191.235 103.36 189.543 103.36ZM194.151 108.958C193.647 110.758 192.063 112.162 189.615 112.162C186.807 112.162 184.737 110.182 184.737 107.05C184.737 103.936 186.735 101.974 189.615 101.974C192.477 101.974 194.349 103.99 194.349 106.69C194.349 107.05 194.331 107.338 194.295 107.68H186.411C186.537 109.678 187.941 110.776 189.615 110.776C191.091 110.776 192.027 110.02 192.387 108.958H194.151ZM210.749 112V106.42C210.749 104.404 209.669 103.378 208.049 103.378C206.393 103.378 205.259 104.44 205.259 106.564V112H203.639V106.42C203.639 104.404 202.559 103.378 200.939 103.378C199.283 103.378 198.149 104.44 198.149 106.564V112H196.511V102.136H198.149V103.558C198.797 102.514 199.967 101.956 201.263 101.956C202.883 101.956 204.233 102.676 204.881 104.152C205.457 102.73 206.861 101.956 208.373 101.956C210.623 101.956 212.369 103.36 212.369 106.186V112H210.749ZM219.25 103.36C217.648 103.36 216.316 104.422 216.136 106.348H222.364C222.382 104.422 220.942 103.36 219.25 103.36ZM223.858 108.958C223.354 110.758 221.77 112.162 219.322 112.162C216.514 112.162 214.444 110.182 214.444 107.05C214.444 103.936 216.442 101.974 219.322 101.974C222.184 101.974 224.056 103.99 224.056 106.69C224.056 107.05 224.038 107.338 224.002 107.68H216.118C216.244 109.678 217.648 110.776 219.322 110.776C220.798 110.776 221.734 110.02 222.094 108.958H223.858ZM233.436 112V106.42C233.436 104.404 232.338 103.378 230.682 103.378C229.008 103.378 227.856 104.422 227.856 106.546V112H226.218V102.136H227.856V103.54C228.504 102.514 229.692 101.956 231.024 101.956C233.31 101.956 235.056 103.36 235.056 106.186V112H233.436ZM238.092 109.3V103.486H236.814V102.136H238.092V99.652H239.73V102.136H242.304V103.486H239.73V109.3C239.73 110.272 240.09 110.614 241.098 110.614H242.304V112H240.828C239.082 112 238.092 111.28 238.092 109.3Z" fill="#595959"/>
<rect x="329" y="34" width="60" height="30" rx="15" fill="white"/>
<path d="M362 49C362 55.6274 367.373 61 374 61C380.627 61 386 55.6274 386 49C386 42.3726 380.627 37 374 37C367.373 37 362 42.3726 362 49Z" fill="url(#paint0_linear_1043_1340)"/>
<rect x="42" y="138" width="347" height="51" rx="9" fill="white"/>
<path d="M117.704 158.848C118.92 158.848 119.971 159.077 120.856 159.536C121.752 159.984 122.435 160.629 122.904 161.472C123.384 162.315 123.624 163.307 123.624 164.448C123.624 165.589 123.384 166.581 122.904 167.424C122.435 168.256 121.752 168.896 120.856 169.344C119.971 169.781 118.92 170 117.704 170H114.232V158.848H117.704ZM117.704 168.8C119.144 168.8 120.243 168.421 121 167.664C121.757 166.896 122.136 165.824 122.136 164.448C122.136 163.061 121.752 161.979 120.984 161.2C120.227 160.421 119.133 160.032 117.704 160.032H115.688V168.8H117.704ZM133.545 165.28C133.545 165.557 133.529 165.851 133.497 166.16H126.489C126.542 167.024 126.835 167.701 127.369 168.192C127.913 168.672 128.569 168.912 129.337 168.912C129.966 168.912 130.489 168.768 130.905 168.48C131.331 168.181 131.63 167.787 131.801 167.296H133.369C133.134 168.139 132.665 168.827 131.961 169.36C131.257 169.883 130.382 170.144 129.337 170.144C128.505 170.144 127.758 169.957 127.097 169.584C126.446 169.211 125.934 168.683 125.561 168C125.187 167.307 125.001 166.507 125.001 165.6C125.001 164.693 125.182 163.899 125.545 163.216C125.907 162.533 126.414 162.011 127.065 161.648C127.726 161.275 128.483 161.088 129.337 161.088C130.169 161.088 130.905 161.269 131.545 161.632C132.185 161.995 132.675 162.496 133.017 163.136C133.369 163.765 133.545 164.48 133.545 165.28ZM132.041 164.976C132.041 164.421 131.918 163.947 131.673 163.552C131.427 163.147 131.091 162.843 130.665 162.64C130.249 162.427 129.785 162.32 129.273 162.32C128.537 162.32 127.907 162.555 127.385 163.024C126.873 163.493 126.579 164.144 126.505 164.976H132.041ZM139.034 162.432H137.194V170H135.738V162.432H134.602V161.232H135.738V160.608C135.738 159.627 135.989 158.912 136.49 158.464C137.002 158.005 137.818 157.776 138.938 157.776V158.992C138.298 158.992 137.845 159.12 137.578 159.376C137.322 159.621 137.194 160.032 137.194 160.608V161.232H139.034V162.432ZM141.484 159.808C141.207 159.808 140.972 159.712 140.78 159.52C140.588 159.328 140.492 159.093 140.492 158.816C140.492 158.539 140.588 158.304 140.78 158.112C140.972 157.92 141.207 157.824 141.484 157.824C141.751 157.824 141.975 157.92 142.156 158.112C142.348 158.304 142.444 158.539 142.444 158.816C142.444 159.093 142.348 159.328 142.156 159.52C141.975 159.712 141.751 159.808 141.484 159.808ZM142.188 161.232V170H140.732V161.232H142.188ZM148.942 161.072C150.008 161.072 150.872 161.397 151.534 162.048C152.195 162.688 152.526 163.616 152.526 164.832V170H151.086V165.04C151.086 164.165 150.867 163.499 150.43 163.04C149.992 162.571 149.395 162.336 148.638 162.336C147.87 162.336 147.256 162.576 146.798 163.056C146.35 163.536 146.126 164.235 146.126 165.152V170H144.67V161.232H146.126V162.48C146.414 162.032 146.803 161.685 147.294 161.44C147.795 161.195 148.344 161.072 148.942 161.072ZM162.904 165.28C162.904 165.557 162.888 165.851 162.856 166.16H155.848C155.901 167.024 156.195 167.701 156.728 168.192C157.272 168.672 157.928 168.912 158.696 168.912C159.325 168.912 159.848 168.768 160.264 168.48C160.691 168.181 160.989 167.787 161.16 167.296H162.728C162.493 168.139 162.024 168.827 161.32 169.36C160.616 169.883 159.741 170.144 158.696 170.144C157.864 170.144 157.117 169.957 156.456 169.584C155.805 169.211 155.293 168.683 154.92 168C154.547 167.307 154.36 166.507 154.36 165.6C154.36 164.693 154.541 163.899 154.904 163.216C155.267 162.533 155.773 162.011 156.424 161.648C157.085 161.275 157.843 161.088 158.696 161.088C159.528 161.088 160.264 161.269 160.904 161.632C161.544 161.995 162.035 162.496 162.376 163.136C162.728 163.765 162.904 164.48 162.904 165.28ZM161.4 164.976C161.4 164.421 161.277 163.947 161.032 163.552C160.787 163.147 160.451 162.843 160.024 162.64C159.608 162.427 159.144 162.32 158.632 162.32C157.896 162.32 157.267 162.555 156.744 163.024C156.232 163.493 155.939 164.144 155.864 164.976H161.4ZM175.683 167.52H170.819L169.923 170H168.387L172.419 158.912H174.099L178.115 170H176.579L175.683 167.52ZM175.267 166.336L173.251 160.704L171.235 166.336H175.267ZM185.313 154.928L180.929 172.72H179.489L183.857 154.928H185.313ZM193.066 164.256C193.471 164.32 193.839 164.485 194.17 164.752C194.511 165.019 194.778 165.349 194.97 165.744C195.173 166.139 195.274 166.56 195.274 167.008C195.274 167.573 195.13 168.085 194.842 168.544C194.554 168.992 194.133 169.349 193.578 169.616C193.034 169.872 192.389 170 191.642 170H187.482V158.848H191.482C192.239 158.848 192.885 158.976 193.418 159.232C193.951 159.477 194.351 159.813 194.618 160.24C194.885 160.667 195.018 161.147 195.018 161.68C195.018 162.341 194.837 162.891 194.474 163.328C194.122 163.755 193.653 164.064 193.066 164.256ZM188.938 163.664H191.386C192.069 163.664 192.597 163.504 192.97 163.184C193.343 162.864 193.53 162.421 193.53 161.856C193.53 161.291 193.343 160.848 192.97 160.528C192.597 160.208 192.058 160.048 191.354 160.048H188.938V163.664ZM191.514 168.8C192.239 168.8 192.805 168.629 193.21 168.288C193.615 167.947 193.818 167.472 193.818 166.864C193.818 166.245 193.605 165.76 193.178 165.408C192.751 165.045 192.181 164.864 191.466 164.864H188.938V168.8H191.514ZM208.424 158.848V160.032H205.384V170H203.928V160.032H200.872V158.848H208.424ZM218.216 165.28C218.216 165.557 218.2 165.851 218.168 166.16H211.16C211.214 167.024 211.507 167.701 212.04 168.192C212.584 168.672 213.24 168.912 214.008 168.912C214.638 168.912 215.16 168.768 215.576 168.48C216.003 168.181 216.302 167.787 216.472 167.296H218.04C217.806 168.139 217.336 168.827 216.632 169.36C215.928 169.883 215.054 170.144 214.008 170.144C213.176 170.144 212.43 169.957 211.768 169.584C211.118 169.211 210.606 168.683 210.232 168C209.859 167.307 209.672 166.507 209.672 165.6C209.672 164.693 209.854 163.899 210.216 163.216C210.579 162.533 211.086 162.011 211.736 161.648C212.398 161.275 213.155 161.088 214.008 161.088C214.84 161.088 215.576 161.269 216.216 161.632C216.856 161.995 217.347 162.496 217.688 163.136C218.04 163.765 218.216 164.48 218.216 165.28ZM216.712 164.976C216.712 164.421 216.59 163.947 216.344 163.552C216.099 163.147 215.763 162.843 215.336 162.64C214.92 162.427 214.456 162.32 213.944 162.32C213.208 162.32 212.579 162.555 212.056 163.024C211.544 163.493 211.251 164.144 211.176 164.976H216.712ZM223.242 170.144C222.57 170.144 221.968 170.032 221.434 169.808C220.901 169.573 220.48 169.253 220.17 168.848C219.861 168.432 219.69 167.957 219.658 167.424H221.162C221.205 167.861 221.408 168.219 221.77 168.496C222.144 168.773 222.629 168.912 223.226 168.912C223.781 168.912 224.218 168.789 224.538 168.544C224.858 168.299 225.018 167.989 225.018 167.616C225.018 167.232 224.848 166.949 224.506 166.768C224.165 166.576 223.637 166.389 222.922 166.208C222.272 166.037 221.738 165.867 221.322 165.696C220.917 165.515 220.565 165.253 220.266 164.912C219.978 164.56 219.834 164.101 219.834 163.536C219.834 163.088 219.968 162.677 220.234 162.304C220.501 161.931 220.88 161.637 221.37 161.424C221.861 161.2 222.421 161.088 223.05 161.088C224.021 161.088 224.805 161.333 225.402 161.824C226 162.315 226.32 162.987 226.362 163.84H224.906C224.874 163.381 224.688 163.013 224.346 162.736C224.016 162.459 223.568 162.32 223.002 162.32C222.48 162.32 222.064 162.432 221.754 162.656C221.445 162.88 221.29 163.173 221.29 163.536C221.29 163.824 221.381 164.064 221.562 164.256C221.754 164.437 221.989 164.587 222.266 164.704C222.554 164.811 222.949 164.933 223.45 165.072C224.08 165.243 224.592 165.413 224.986 165.584C225.381 165.744 225.717 165.989 225.994 166.32C226.282 166.651 226.432 167.083 226.442 167.616C226.442 168.096 226.309 168.528 226.042 168.912C225.776 169.296 225.397 169.6 224.906 169.824C224.426 170.037 223.872 170.144 223.242 170.144ZM230.274 162.432V167.6C230.274 168.027 230.364 168.331 230.546 168.512C230.727 168.683 231.042 168.768 231.49 168.768H232.562V170H231.25C230.439 170 229.831 169.813 229.426 169.44C229.02 169.067 228.818 168.453 228.818 167.6V162.432H227.682V161.232H228.818V159.024H230.274V161.232H232.562V162.432H230.274ZM246.047 162.112C246.047 163.04 245.727 163.813 245.087 164.432C244.458 165.04 243.493 165.344 242.191 165.344H240.047V170H238.591V158.848H242.191C243.45 158.848 244.405 159.152 245.055 159.76C245.717 160.368 246.047 161.152 246.047 162.112ZM242.191 164.144C243.002 164.144 243.599 163.968 243.983 163.616C244.367 163.264 244.559 162.763 244.559 162.112C244.559 160.736 243.77 160.048 242.191 160.048H240.047V164.144H242.191ZM247.313 165.584C247.313 164.688 247.494 163.904 247.857 163.232C248.22 162.549 248.716 162.021 249.345 161.648C249.985 161.275 250.694 161.088 251.473 161.088C252.241 161.088 252.908 161.253 253.473 161.584C254.038 161.915 254.46 162.331 254.737 162.832V161.232H256.209V170H254.737V168.368C254.449 168.88 254.017 169.307 253.441 169.648C252.876 169.979 252.214 170.144 251.457 170.144C250.678 170.144 249.974 169.952 249.345 169.568C248.716 169.184 248.22 168.645 247.857 167.952C247.494 167.259 247.313 166.469 247.313 165.584ZM254.737 165.6C254.737 164.939 254.604 164.363 254.337 163.872C254.07 163.381 253.708 163.008 253.249 162.752C252.801 162.485 252.305 162.352 251.761 162.352C251.217 162.352 250.721 162.48 250.273 162.736C249.825 162.992 249.468 163.365 249.201 163.856C248.934 164.347 248.801 164.923 248.801 165.584C248.801 166.256 248.934 166.843 249.201 167.344C249.468 167.835 249.825 168.213 250.273 168.48C250.721 168.736 251.217 168.864 251.761 168.864C252.305 168.864 252.801 168.736 253.249 168.48C253.708 168.213 254.07 167.835 254.337 167.344C254.604 166.843 254.737 166.261 254.737 165.6ZM260.126 162.656C260.382 162.155 260.744 161.765 261.214 161.488C261.694 161.211 262.275 161.072 262.958 161.072V162.576H262.574C260.942 162.576 260.126 163.461 260.126 165.232V170H258.67V161.232H260.126V162.656ZM264.094 165.584C264.094 164.688 264.276 163.904 264.638 163.232C265.001 162.549 265.497 162.021 266.126 161.648C266.766 161.275 267.476 161.088 268.254 161.088C269.022 161.088 269.689 161.253 270.254 161.584C270.82 161.915 271.241 162.331 271.518 162.832V161.232H272.99V170H271.518V168.368C271.23 168.88 270.798 169.307 270.222 169.648C269.657 169.979 268.996 170.144 268.238 170.144C267.46 170.144 266.756 169.952 266.126 169.568C265.497 169.184 265.001 168.645 264.638 167.952C264.276 167.259 264.094 166.469 264.094 165.584ZM271.518 165.6C271.518 164.939 271.385 164.363 271.118 163.872C270.852 163.381 270.489 163.008 270.03 162.752C269.582 162.485 269.086 162.352 268.542 162.352C267.998 162.352 267.502 162.48 267.054 162.736C266.606 162.992 266.249 163.365 265.982 163.856C265.716 164.347 265.582 164.923 265.582 165.584C265.582 166.256 265.716 166.843 265.982 167.344C266.249 167.835 266.606 168.213 267.054 168.48C267.502 168.736 267.998 168.864 268.542 168.864C269.086 168.864 269.582 168.736 270.03 168.48C270.489 168.213 270.852 167.835 271.118 167.344C271.385 166.843 271.518 166.261 271.518 165.6ZM285.995 161.072C286.677 161.072 287.285 161.216 287.819 161.504C288.352 161.781 288.773 162.203 289.083 162.768C289.392 163.333 289.547 164.021 289.547 164.832V170H288.107V165.04C288.107 164.165 287.888 163.499 287.451 163.04C287.024 162.571 286.443 162.336 285.707 162.336C284.949 162.336 284.347 162.581 283.899 163.072C283.451 163.552 283.227 164.251 283.227 165.168V170H281.787V165.04C281.787 164.165 281.568 163.499 281.131 163.04C280.704 162.571 280.123 162.336 279.387 162.336C278.629 162.336 278.027 162.581 277.579 163.072C277.131 163.552 276.907 164.251 276.907 165.168V170H275.451V161.232H276.907V162.496C277.195 162.037 277.579 161.685 278.059 161.44C278.549 161.195 279.088 161.072 279.675 161.072C280.411 161.072 281.061 161.237 281.627 161.568C282.192 161.899 282.613 162.384 282.891 163.024C283.136 162.405 283.541 161.925 284.107 161.584C284.672 161.243 285.301 161.072 285.995 161.072ZM299.935 165.28C299.935 165.557 299.919 165.851 299.887 166.16H292.879C292.932 167.024 293.226 167.701 293.759 168.192C294.303 168.672 294.959 168.912 295.727 168.912C296.356 168.912 296.879 168.768 297.295 168.48C297.722 168.181 298.02 167.787 298.191 167.296H299.759C299.524 168.139 299.055 168.827 298.351 169.36C297.647 169.883 296.772 170.144 295.727 170.144C294.895 170.144 294.148 169.957 293.487 169.584C292.836 169.211 292.324 168.683 291.951 168C291.578 167.307 291.391 166.507 291.391 165.6C291.391 164.693 291.572 163.899 291.935 163.216C292.298 162.533 292.804 162.011 293.455 161.648C294.116 161.275 294.874 161.088 295.727 161.088C296.559 161.088 297.295 161.269 297.935 161.632C298.575 161.995 299.066 162.496 299.407 163.136C299.759 163.765 299.935 164.48 299.935 165.28ZM298.431 164.976C298.431 164.421 298.308 163.947 298.063 163.552C297.818 163.147 297.482 162.843 297.055 162.64C296.639 162.427 296.175 162.32 295.663 162.32C294.927 162.32 294.298 162.555 293.775 163.024C293.263 163.493 292.97 164.144 292.895 164.976H298.431ZM303.633 162.432V167.6C303.633 168.027 303.724 168.331 303.905 168.512C304.086 168.683 304.401 168.768 304.849 168.768H305.921V170H304.609C303.798 170 303.19 169.813 302.785 169.44C302.38 169.067 302.177 168.453 302.177 167.6V162.432H301.041V161.232H302.177V159.024H303.633V161.232H305.921V162.432H303.633ZM315.685 165.28C315.685 165.557 315.669 165.851 315.637 166.16H308.629C308.682 167.024 308.976 167.701 309.509 168.192C310.053 168.672 310.709 168.912 311.477 168.912C312.106 168.912 312.629 168.768 313.045 168.48C313.472 168.181 313.77 167.787 313.941 167.296H315.509C315.274 168.139 314.805 168.827 314.101 169.36C313.397 169.883 312.522 170.144 311.477 170.144C310.645 170.144 309.898 169.957 309.237 169.584C308.586 169.211 308.074 168.683 307.701 168C307.328 167.307 307.141 166.507 307.141 165.6C307.141 164.693 307.322 163.899 307.685 163.216C308.048 162.533 308.554 162.011 309.205 161.648C309.866 161.275 310.624 161.088 311.477 161.088C312.309 161.088 313.045 161.269 313.685 161.632C314.325 161.995 314.816 162.496 315.157 163.136C315.509 163.765 315.685 164.48 315.685 165.28ZM314.181 164.976C314.181 164.421 314.058 163.947 313.813 163.552C313.568 163.147 313.232 162.843 312.805 162.64C312.389 162.427 311.925 162.32 311.413 162.32C310.677 162.32 310.048 162.555 309.525 163.024C309.013 163.493 308.72 164.144 308.645 164.976H314.181ZM319.063 162.656C319.319 162.155 319.682 161.765 320.151 161.488C320.631 161.211 321.212 161.072 321.895 161.072V162.576H321.511C319.879 162.576 319.063 163.461 319.063 165.232V170H317.607V161.232H319.063V162.656ZM326.68 170.144C326.008 170.144 325.405 170.032 324.872 169.808C324.338 169.573 323.917 169.253 323.608 168.848C323.298 168.432 323.128 167.957 323.096 167.424H324.6C324.642 167.861 324.845 168.219 325.208 168.496C325.581 168.773 326.066 168.912 326.664 168.912C327.218 168.912 327.656 168.789 327.976 168.544C328.296 168.299 328.456 167.989 328.456 167.616C328.456 167.232 328.285 166.949 327.944 166.768C327.602 166.576 327.074 166.389 326.36 166.208C325.709 166.037 325.176 165.867 324.76 165.696C324.354 165.515 324.002 165.253 323.704 164.912C323.416 164.56 323.272 164.101 323.272 163.536C323.272 163.088 323.405 162.677 323.672 162.304C323.938 161.931 324.317 161.637 324.808 161.424C325.298 161.2 325.858 161.088 326.488 161.088C327.458 161.088 328.242 161.333 328.84 161.824C329.437 162.315 329.757 162.987 329.8 163.84H328.344C328.312 163.381 328.125 163.013 327.784 162.736C327.453 162.459 327.005 162.32 326.44 162.32C325.917 162.32 325.501 162.432 325.192 162.656C324.882 162.88 324.728 163.173 324.728 163.536C324.728 163.824 324.818 164.064 325 164.256C325.192 164.437 325.426 164.587 325.704 164.704C325.992 164.811 326.386 164.933 326.888 165.072C327.517 165.243 328.029 165.413 328.424 165.584C328.818 165.744 329.154 165.989 329.432 166.32C329.72 166.651 329.869 167.083 329.88 167.616C329.88 168.096 329.746 168.528 329.48 168.912C329.213 169.296 328.834 169.6 328.344 169.824C327.864 170.037 327.309 170.144 326.68 170.144Z" fill="black"/>
</g>
<rect x="0.203883" y="0.203883" width="409.592" height="274.592" rx="7.95146" stroke="#EAEAEA" stroke-width="0.407767"/>
<defs>
<filter id="filter0_f_1043_1340" x="-21.6602" y="-361.66" width="722.32" height="722.32" filterUnits="userSpaceOnUse" color-interpolation-filters="sRGB">
<feFlood flood-opacity="0" result="BackgroundImageFix"/>
<feBlend mode="normal" in="SourceGraphic" in2="BackgroundImageFix" result="shape"/>
<feGaussianBlur stdDeviation="122.33" result="effect1_foregroundBlur_1043_1340"/>
</filter>
<filter id="filter1_f_1043_1340" x="-284.66" y="-139.66" width="739.32" height="739.32" filterUnits="userSpaceOnUse" color-interpolation-filters="sRGB">
<feFlood flood-opacity="0" result="BackgroundImageFix"/>
<feBlend mode="normal" in="SourceGraphic" in2="BackgroundImageFix" result="shape"/>
<feGaussianBlur stdDeviation="122.33" result="effect1_foregroundBlur_1043_1340"/>
</filter>
<linearGradient id="paint0_linear_1043_1340" x1="362" y1="49.0101" x2="385.997" y2="49.0101" gradientUnits="userSpaceOnUse">
<stop stop-color="#0000FF"/>
<stop offset="0.49" stop-color="#8F00FF"/>
<stop offset="1" stop-color="#FF1494"/>
</linearGradient>
<clipPath id="clip0_1043_1340">
<rect width="410" height="275" rx="8.15534" fill="white"/>
</clipPath>
<clipPath id="clip1_1043_1340">
<rect width="27" height="27" fill="white" transform="translate(177 222)"/>
</clipPath>
</defs>
</svg>
