<svg width="61" height="58" viewBox="0 0 61 58" fill="none" xmlns="http://www.w3.org/2000/svg">
<rect width="61" height="58" rx="8" fill="#A533FF"/>
<path d="M17.8105 42.9668H43.248C44.0074 42.9668 44.623 43.5825 44.623 44.3418C44.623 45.1011 44.0074 45.7168 43.248 45.7168H17.8105C17.0512 45.7168 16.4355 45.1011 16.4355 44.3418C16.4355 43.5825 17.0512 42.9668 17.8105 42.9668Z" fill="white"/>
<path d="M42.5544 41.2478H18.5056C18.5263 39.9416 18.4472 35.0156 16.4844 28.4156C17.188 28.1874 17.7483 27.6491 18.0037 26.9547C20.9669 27.7075 26.1678 27.7866 29.3647 20.75C30.1147 21.0387 30.9452 21.0387 31.6953 20.75C34.8922 27.7866 40.0931 27.7075 43.0562 26.9547C43.3117 27.6491 43.872 28.1874 44.5756 28.4156C42.6128 35.0122 42.5337 39.9381 42.5544 41.2478Z" fill="white"/>
<path d="M18.498 41.9355H42.5605V42.9668H18.498V41.9355Z" fill="white"/>
<path d="M30.5293 13.4043C30.909 13.4043 31.2168 13.0965 31.2168 12.7168C31.2168 12.3371 30.909 12.0293 30.5293 12.0293C30.1496 12.0293 29.8418 12.3371 29.8418 12.7168C29.8418 13.0965 30.1496 13.4043 30.5293 13.4043Z" fill="white"/>
<path d="M45.3105 22.6855C45.6902 22.6855 45.998 22.3777 45.998 21.998C45.998 21.6184 45.6902 21.3105 45.3105 21.3105C44.9309 21.3105 44.623 21.6184 44.623 21.998C44.623 22.3777 44.9309 22.6855 45.3105 22.6855Z" fill="white"/>
<path d="M15.748 22.6855C16.1277 22.6855 16.4355 22.3777 16.4355 21.998C16.4355 21.6184 16.1277 21.3105 15.748 21.3105C15.3684 21.3105 15.0605 21.6184 15.0605 21.998C15.0605 22.3777 15.3684 22.6855 15.748 22.6855Z" fill="white"/>
<path d="M45.3105 27.8418C46.2598 27.8418 47.0293 27.0723 47.0293 26.123C47.0293 25.1738 46.2598 24.4043 45.3105 24.4043C44.3613 24.4043 43.5918 25.1738 43.5918 26.123C43.5918 27.0723 44.3613 27.8418 45.3105 27.8418Z" fill="white"/>
<path d="M15.748 27.8418C16.6973 27.8418 17.4668 27.0723 17.4668 26.123C17.4668 25.1738 16.6973 24.4043 15.748 24.4043C14.7988 24.4043 14.0293 25.1738 14.0293 26.123C14.0293 27.0723 14.7988 27.8418 15.748 27.8418Z" fill="white"/>
<path d="M30.5293 20.2793C31.9532 20.2793 33.1074 19.125 33.1074 17.7012C33.1074 16.2773 31.9532 15.123 30.5293 15.123C29.1054 15.123 27.9512 16.2773 27.9512 17.7012C27.9512 19.125 29.1054 20.2793 30.5293 20.2793Z" fill="white"/>
</svg>
