<svg width="61" height="58" viewBox="0 0 61 58" fill="none" xmlns="http://www.w3.org/2000/svg">
<rect width="61" height="58" rx="8" fill="#553EF2"/>
<path d="M34.495 12H26.1833C24.9642 12 23.9668 13.2191 23.9668 14.6598V16.3221H26.1833V14.6598H34.495V16.3221H36.7115V14.6598C36.7115 13.2191 35.7141 12 34.495 12Z" fill="white"/>
<path d="M28.9551 32.9453H31.8365V36.8241H28.9551V32.9453Z" fill="white"/>
<path d="M26.7369 32.392C26.9586 31.3946 27.8452 30.6188 28.9534 30.6188H31.8348C32.9431 30.6188 33.8296 31.3946 34.0513 32.392L49.7882 27.2941V20.6447C49.7882 19.4257 48.7908 18.5391 47.6826 18.5391H13.1056C11.8866 18.5391 11 19.5365 11 20.6447V27.2941L26.7369 32.392ZM36.0461 23.7478H38.3734V25.9642H36.0461V23.7478ZM29.1751 23.7478H31.5024V25.9642H29.1751V23.7478ZM22.304 23.7478H24.6313V25.9642H22.304V23.7478Z" fill="white"/>
<path d="M34.051 34.7195V36.8252C34.051 38.0443 33.0536 39.0417 31.8346 39.0417H28.9532C27.7341 39.0417 26.7367 38.0443 26.7367 36.8252V34.8304L12.6621 30.1758V43.5854C12.6621 44.8045 13.6595 45.6911 14.7678 45.6911H46.02C47.1282 45.6911 48.1256 44.6937 48.1256 43.5854V30.1758L34.051 34.7195Z" fill="white"/>
</svg>
