<svg width="473" height="504" viewBox="0 0 473 504" fill="none" xmlns="http://www.w3.org/2000/svg">
<g clip-path="url(#clip0_1006_2791)">
<rect width="447" height="504" fill="white"/>
<g filter="url(#filter0_f_1006_2791)">
<circle cx="633" cy="689" r="221" fill="#0000FF" fill-opacity="0.4"/>
</g>
<g filter="url(#filter1_f_1006_2791)">
<circle cx="-79" cy="-99" r="221" fill="#FF43A9" fill-opacity="0.4"/>
</g>
<path d="M123.616 386L119.92 379.472H118.336V386H114.976V369.248H121.264C122.56 369.248 123.664 369.48 124.576 369.944C125.488 370.392 126.168 371.008 126.616 371.792C127.08 372.56 127.312 373.424 127.312 374.384C127.312 375.488 126.992 376.488 126.352 377.384C125.712 378.264 124.76 378.872 123.496 379.208L127.504 386H123.616ZM118.336 376.952H121.144C122.056 376.952 122.736 376.736 123.184 376.304C123.632 375.856 123.856 375.24 123.856 374.456C123.856 373.688 123.632 373.096 123.184 372.68C122.736 372.248 122.056 372.032 121.144 372.032H118.336V376.952ZM142.711 379.064C142.711 379.544 142.679 379.976 142.615 380.36H132.895C132.975 381.32 133.311 382.072 133.903 382.616C134.495 383.16 135.223 383.432 136.087 383.432C137.335 383.432 138.223 382.896 138.751 381.824H142.375C141.991 383.104 141.255 384.16 140.167 384.992C139.079 385.808 137.743 386.216 136.159 386.216C134.879 386.216 133.727 385.936 132.703 385.376C131.695 384.8 130.903 383.992 130.327 382.952C129.767 381.912 129.487 380.712 129.487 379.352C129.487 377.976 129.767 376.768 130.327 375.728C130.887 374.688 131.671 373.888 132.679 373.328C133.687 372.768 134.847 372.488 136.159 372.488C137.423 372.488 138.551 372.76 139.543 373.304C140.551 373.848 141.327 374.624 141.871 375.632C142.431 376.624 142.711 377.768 142.711 379.064ZM139.231 378.104C139.215 377.24 138.903 376.552 138.295 376.04C137.687 375.512 136.943 375.248 136.063 375.248C135.231 375.248 134.527 375.504 133.951 376.016C133.391 376.512 133.047 377.208 132.919 378.104H139.231ZM144.3 379.304C144.3 377.96 144.564 376.768 145.092 375.728C145.636 374.688 146.364 373.888 147.276 373.328C148.204 372.768 149.236 372.488 150.372 372.488C151.364 372.488 152.228 372.688 152.964 373.088C153.716 373.488 154.316 373.992 154.764 374.6V372.704H158.148V386H154.764V384.056C154.332 384.68 153.732 385.2 152.964 385.616C152.212 386.016 151.34 386.216 150.348 386.216C149.228 386.216 148.204 385.928 147.276 385.352C146.364 384.776 145.636 383.968 145.092 382.928C144.564 381.872 144.3 380.664 144.3 379.304ZM154.764 379.352C154.764 378.536 154.604 377.84 154.284 377.264C153.964 376.672 153.532 376.224 152.988 375.92C152.444 375.6 151.86 375.44 151.236 375.44C150.612 375.44 150.036 375.592 149.508 375.896C148.98 376.2 148.548 376.648 148.212 377.24C147.892 377.816 147.732 378.504 147.732 379.304C147.732 380.104 147.892 380.808 148.212 381.416C148.548 382.008 148.98 382.464 149.508 382.784C150.052 383.104 150.628 383.264 151.236 383.264C151.86 383.264 152.444 383.112 152.988 382.808C153.532 382.488 153.964 382.04 154.284 381.464C154.604 380.872 154.764 380.168 154.764 379.352ZM164.789 368.24V386H161.429V368.24H164.789ZM178.333 376.016V378.848H168.157V376.016H178.333ZM193.501 369.248V371.96H189.037V386H185.677V371.96H181.213V369.248H193.501ZM197.657 371.12C197.065 371.12 196.569 370.936 196.169 370.568C195.785 370.184 195.593 369.712 195.593 369.152C195.593 368.592 195.785 368.128 196.169 367.76C196.569 367.376 197.065 367.184 197.657 367.184C198.249 367.184 198.737 367.376 199.121 367.76C199.521 368.128 199.721 368.592 199.721 369.152C199.721 369.712 199.521 370.184 199.121 370.568C198.737 370.936 198.249 371.12 197.657 371.12ZM199.313 372.704V386H195.953V372.704H199.313ZM219.145 372.512C220.777 372.512 222.089 373.016 223.081 374.024C224.089 375.016 224.593 376.408 224.593 378.2V386H221.233V378.656C221.233 377.616 220.969 376.824 220.441 376.28C219.913 375.72 219.193 375.44 218.281 375.44C217.369 375.44 216.641 375.72 216.097 376.28C215.569 376.824 215.305 377.616 215.305 378.656V386H211.945V378.656C211.945 377.616 211.681 376.824 211.153 376.28C210.625 375.72 209.905 375.44 208.993 375.44C208.065 375.44 207.329 375.72 206.785 376.28C206.257 376.824 205.993 377.616 205.993 378.656V386H202.633V372.704H205.993V374.312C206.425 373.752 206.977 373.312 207.649 372.992C208.337 372.672 209.089 372.512 209.905 372.512C210.945 372.512 211.873 372.736 212.689 373.184C213.505 373.616 214.137 374.24 214.585 375.056C215.017 374.288 215.641 373.672 216.457 373.208C217.289 372.744 218.185 372.512 219.145 372.512ZM240.141 379.064C240.141 379.544 240.109 379.976 240.045 380.36H230.325C230.405 381.32 230.741 382.072 231.333 382.616C231.925 383.16 232.653 383.432 233.517 383.432C234.765 383.432 235.653 382.896 236.181 381.824H239.805C239.421 383.104 238.685 384.16 237.597 384.992C236.509 385.808 235.173 386.216 233.589 386.216C232.309 386.216 231.157 385.936 230.133 385.376C229.125 384.8 228.333 383.992 227.757 382.952C227.197 381.912 226.917 380.712 226.917 379.352C226.917 377.976 227.197 376.768 227.757 375.728C228.317 374.688 229.101 373.888 230.109 373.328C231.117 372.768 232.277 372.488 233.589 372.488C234.853 372.488 235.981 372.76 236.973 373.304C237.981 373.848 238.757 374.624 239.301 375.632C239.861 376.624 240.141 377.768 240.141 379.064ZM236.661 378.104C236.645 377.24 236.333 376.552 235.725 376.04C235.117 375.512 234.373 375.248 233.493 375.248C232.661 375.248 231.957 375.504 231.381 376.016C230.821 376.512 230.477 377.208 230.349 378.104H236.661ZM258.584 382.808H251.912L250.808 386H247.28L253.304 369.224H257.216L263.24 386H259.688L258.584 382.808ZM257.672 380.12L255.248 373.112L252.824 380.12H257.672ZM272.86 372.512C274.444 372.512 275.724 373.016 276.7 374.024C277.676 375.016 278.164 376.408 278.164 378.2V386H274.804V378.656C274.804 377.6 274.54 376.792 274.012 376.232C273.484 375.656 272.764 375.368 271.852 375.368C270.924 375.368 270.188 375.656 269.644 376.232C269.116 376.792 268.852 377.6 268.852 378.656V386H265.492V372.704H268.852V374.36C269.3 373.784 269.868 373.336 270.556 373.016C271.26 372.68 272.028 372.512 272.86 372.512ZM280.495 379.304C280.495 377.96 280.759 376.768 281.287 375.728C281.831 374.688 282.559 373.888 283.471 373.328C284.399 372.768 285.431 372.488 286.567 372.488C287.559 372.488 288.423 372.688 289.159 373.088C289.911 373.488 290.511 373.992 290.959 374.6V372.704H294.343V386H290.959V384.056C290.527 384.68 289.927 385.2 289.159 385.616C288.407 386.016 287.535 386.216 286.543 386.216C285.423 386.216 284.399 385.928 283.471 385.352C282.559 384.776 281.831 383.968 281.287 382.928C280.759 381.872 280.495 380.664 280.495 379.304ZM290.959 379.352C290.959 378.536 290.799 377.84 290.479 377.264C290.159 376.672 289.727 376.224 289.183 375.92C288.639 375.6 288.055 375.44 287.431 375.44C286.807 375.44 286.231 375.592 285.703 375.896C285.175 376.2 284.743 376.648 284.407 377.24C284.087 377.816 283.927 378.504 283.927 379.304C283.927 380.104 284.087 380.808 284.407 381.416C284.743 382.008 285.175 382.464 285.703 382.784C286.247 383.104 286.823 383.264 287.431 383.264C288.055 383.264 288.639 383.112 289.183 382.808C289.727 382.488 290.159 382.04 290.479 381.464C290.799 380.872 290.959 380.168 290.959 379.352ZM300.985 368.24V386H297.625V368.24H300.985ZM317.024 372.704L308.792 392.288H305.216L308.096 385.664L302.768 372.704H306.536L309.968 381.992L313.448 372.704H317.024ZM322.748 375.464V381.896C322.748 382.344 322.852 382.672 323.06 382.88C323.284 383.072 323.652 383.168 324.164 383.168H325.724V386H323.612C320.78 386 319.364 384.624 319.364 381.872V375.464H317.78V372.704H319.364V369.416H322.748V372.704H325.724V375.464H322.748ZM329.844 371.12C329.252 371.12 328.756 370.936 328.356 370.568C327.972 370.184 327.78 369.712 327.78 369.152C327.78 368.592 327.972 368.128 328.356 367.76C328.756 367.376 329.252 367.184 329.844 367.184C330.436 367.184 330.924 367.376 331.308 367.76C331.708 368.128 331.908 368.592 331.908 369.152C331.908 369.712 331.708 370.184 331.308 370.568C330.924 370.936 330.436 371.12 329.844 371.12ZM331.5 372.704V386H328.14V372.704H331.5ZM333.956 379.352C333.956 377.976 334.236 376.776 334.796 375.752C335.356 374.712 336.132 373.912 337.124 373.352C338.116 372.776 339.252 372.488 340.532 372.488C342.18 372.488 343.54 372.904 344.612 373.736C345.7 374.552 346.428 375.704 346.796 377.192H343.172C342.98 376.616 342.652 376.168 342.188 375.848C341.74 375.512 341.18 375.344 340.508 375.344C339.548 375.344 338.788 375.696 338.228 376.4C337.668 377.088 337.388 378.072 337.388 379.352C337.388 380.616 337.668 381.6 338.228 382.304C338.788 382.992 339.548 383.336 340.508 383.336C341.868 383.336 342.756 382.728 343.172 381.512H346.796C346.428 382.952 345.7 384.096 344.612 384.944C343.524 385.792 342.164 386.216 340.532 386.216C339.252 386.216 338.116 385.936 337.124 385.376C336.132 384.8 335.356 384 334.796 382.976C334.236 381.936 333.956 380.728 333.956 379.352ZM354.346 386.216C353.258 386.216 352.282 386.024 351.418 385.64C350.554 385.24 349.866 384.704 349.354 384.032C348.858 383.36 348.586 382.616 348.538 381.8H351.922C351.986 382.312 352.234 382.736 352.666 383.072C353.114 383.408 353.666 383.576 354.322 383.576C354.962 383.576 355.458 383.448 355.81 383.192C356.178 382.936 356.362 382.608 356.362 382.208C356.362 381.776 356.138 381.456 355.69 381.248C355.258 381.024 354.562 380.784 353.602 380.528C352.61 380.288 351.794 380.04 351.154 379.784C350.53 379.528 349.986 379.136 349.522 378.608C349.074 378.08 348.85 377.368 348.85 376.472C348.85 375.736 349.058 375.064 349.474 374.456C349.906 373.848 350.514 373.368 351.298 373.016C352.098 372.664 353.034 372.488 354.106 372.488C355.69 372.488 356.954 372.888 357.898 373.688C358.842 374.472 359.362 375.536 359.458 376.88H356.242C356.194 376.352 355.97 375.936 355.57 375.632C355.186 375.312 354.666 375.152 354.01 375.152C353.402 375.152 352.93 375.264 352.594 375.488C352.274 375.712 352.114 376.024 352.114 376.424C352.114 376.872 352.338 377.216 352.786 377.456C353.234 377.68 353.93 377.912 354.874 378.152C355.834 378.392 356.626 378.64 357.25 378.896C357.874 379.152 358.41 379.552 358.858 380.096C359.322 380.624 359.562 381.328 359.578 382.208C359.578 382.976 359.362 383.664 358.93 384.272C358.514 384.88 357.906 385.36 357.106 385.712C356.322 386.048 355.402 386.216 354.346 386.216Z" fill="black"/>
<path d="M119.57 409.272V411.048H115.01V426H112.826V411.048H108.242V409.272H119.57ZM124.442 414.984C124.826 414.232 125.37 413.648 126.074 413.232C126.794 412.816 127.666 412.608 128.69 412.608V414.864H128.114C125.666 414.864 124.442 416.192 124.442 418.848V426H122.258V412.848H124.442V414.984ZM130.395 419.376C130.395 418.032 130.667 416.856 131.211 415.848C131.755 414.824 132.499 414.032 133.443 413.472C134.403 412.912 135.467 412.632 136.635 412.632C137.787 412.632 138.787 412.88 139.635 413.376C140.483 413.872 141.115 414.496 141.531 415.248V412.848H143.739V426H141.531V423.552C141.099 424.32 140.451 424.96 139.587 425.472C138.739 425.968 137.747 426.216 136.611 426.216C135.443 426.216 134.387 425.928 133.443 425.352C132.499 424.776 131.755 423.968 131.211 422.928C130.667 421.888 130.395 420.704 130.395 419.376ZM141.531 419.4C141.531 418.408 141.331 417.544 140.931 416.808C140.531 416.072 139.987 415.512 139.299 415.128C138.627 414.728 137.883 414.528 137.067 414.528C136.251 414.528 135.507 414.72 134.835 415.104C134.163 415.488 133.627 416.048 133.227 416.784C132.827 417.52 132.627 418.384 132.627 419.376C132.627 420.384 132.827 421.264 133.227 422.016C133.627 422.752 134.163 423.32 134.835 423.72C135.507 424.104 136.251 424.296 137.067 424.296C137.883 424.296 138.627 424.104 139.299 423.72C139.987 423.32 140.531 422.752 140.931 422.016C141.331 421.264 141.531 420.392 141.531 419.4ZM146.614 419.4C146.614 418.04 146.886 416.856 147.43 415.848C147.974 414.824 148.726 414.032 149.686 413.472C150.662 412.912 151.774 412.632 153.022 412.632C154.638 412.632 155.966 413.024 157.006 413.808C158.062 414.592 158.758 415.68 159.094 417.072H156.742C156.518 416.272 156.078 415.64 155.422 415.176C154.782 414.712 153.982 414.48 153.022 414.48C151.774 414.48 150.766 414.912 149.998 415.776C149.23 416.624 148.846 417.832 148.846 419.4C148.846 420.984 149.23 422.208 149.998 423.072C150.766 423.936 151.774 424.368 153.022 424.368C153.982 424.368 154.782 424.144 155.422 423.696C156.062 423.248 156.502 422.608 156.742 421.776H159.094C158.742 423.12 158.038 424.2 156.982 425.016C155.926 425.816 154.606 426.216 153.022 426.216C151.774 426.216 150.662 425.936 149.686 425.376C148.726 424.816 147.974 424.024 147.43 423C146.886 421.976 146.614 420.776 146.614 419.4ZM169.352 426L164.192 420.192V426H162.008V408.24H164.192V418.68L169.256 412.848H172.304L166.112 419.4L172.328 426H169.352ZM179.942 419.376C179.942 418.032 180.214 416.856 180.758 415.848C181.302 414.824 182.046 414.032 182.99 413.472C183.95 412.912 185.014 412.632 186.182 412.632C187.334 412.632 188.334 412.88 189.182 413.376C190.03 413.872 190.662 414.496 191.078 415.248V412.848H193.286V426H191.078V423.552C190.646 424.32 189.998 424.96 189.134 425.472C188.286 425.968 187.294 426.216 186.158 426.216C184.99 426.216 183.934 425.928 182.99 425.352C182.046 424.776 181.302 423.968 180.758 422.928C180.214 421.888 179.942 420.704 179.942 419.376ZM191.078 419.4C191.078 418.408 190.878 417.544 190.478 416.808C190.078 416.072 189.534 415.512 188.846 415.128C188.174 414.728 187.43 414.528 186.614 414.528C185.798 414.528 185.054 414.72 184.382 415.104C183.71 415.488 183.174 416.048 182.774 416.784C182.374 417.52 182.174 418.384 182.174 419.376C182.174 420.384 182.374 421.264 182.774 422.016C183.174 422.752 183.71 423.32 184.382 423.72C185.054 424.104 185.798 424.296 186.614 424.296C187.43 424.296 188.174 424.104 188.846 423.72C189.534 423.32 190.078 422.752 190.478 422.016C190.878 421.264 191.078 420.392 191.078 419.4ZM203.385 412.608C204.985 412.608 206.281 413.096 207.273 414.072C208.265 415.032 208.761 416.424 208.761 418.248V426H206.601V418.56C206.601 417.248 206.273 416.248 205.617 415.56C204.961 414.856 204.065 414.504 202.929 414.504C201.777 414.504 200.857 414.864 200.169 415.584C199.497 416.304 199.161 417.352 199.161 418.728V426H196.977V412.848H199.161V414.72C199.593 414.048 200.177 413.528 200.913 413.16C201.665 412.792 202.489 412.608 203.385 412.608ZM211.512 419.376C211.512 418.032 211.784 416.856 212.328 415.848C212.872 414.824 213.616 414.032 214.56 413.472C215.52 412.912 216.592 412.632 217.776 412.632C218.8 412.632 219.752 412.872 220.632 413.352C221.512 413.816 222.184 414.432 222.648 415.2V408.24H224.856V426H222.648V423.528C222.216 424.312 221.576 424.96 220.728 425.472C219.88 425.968 218.888 426.216 217.752 426.216C216.584 426.216 215.52 425.928 214.56 425.352C213.616 424.776 212.872 423.968 212.328 422.928C211.784 421.888 211.512 420.704 211.512 419.376ZM222.648 419.4C222.648 418.408 222.448 417.544 222.048 416.808C221.648 416.072 221.104 415.512 220.416 415.128C219.744 414.728 219 414.528 218.184 414.528C217.368 414.528 216.624 414.72 215.952 415.104C215.28 415.488 214.744 416.048 214.344 416.784C213.944 417.52 213.744 418.384 213.744 419.376C213.744 420.384 213.944 421.264 214.344 422.016C214.744 422.752 215.28 423.32 215.952 423.72C216.624 424.104 217.368 424.296 218.184 424.296C219 424.296 219.744 424.104 220.416 423.72C221.104 423.32 221.648 422.752 222.048 422.016C222.448 421.264 222.648 420.392 222.648 419.4ZM234.13 419.376C234.13 418.032 234.402 416.856 234.946 415.848C235.49 414.824 236.234 414.032 237.178 413.472C238.138 412.912 239.202 412.632 240.37 412.632C241.522 412.632 242.522 412.88 243.37 413.376C244.218 413.872 244.85 414.496 245.266 415.248V412.848H247.474V426H245.266V423.552C244.834 424.32 244.186 424.96 243.322 425.472C242.474 425.968 241.482 426.216 240.346 426.216C239.178 426.216 238.122 425.928 237.178 425.352C236.234 424.776 235.49 423.968 234.946 422.928C234.402 421.888 234.13 420.704 234.13 419.376ZM245.266 419.4C245.266 418.408 245.066 417.544 244.666 416.808C244.266 416.072 243.722 415.512 243.034 415.128C242.362 414.728 241.618 414.528 240.802 414.528C239.986 414.528 239.242 414.72 238.57 415.104C237.898 415.488 237.362 416.048 236.962 416.784C236.562 417.52 236.362 418.384 236.362 419.376C236.362 420.384 236.562 421.264 236.962 422.016C237.362 422.752 237.898 423.32 238.57 423.72C239.242 424.104 239.986 424.296 240.802 424.296C241.618 424.296 242.362 424.104 243.034 423.72C243.722 423.32 244.266 422.752 244.666 422.016C245.066 421.264 245.266 420.392 245.266 419.4ZM257.572 412.608C259.172 412.608 260.468 413.096 261.46 414.072C262.452 415.032 262.948 416.424 262.948 418.248V426H260.788V418.56C260.788 417.248 260.46 416.248 259.804 415.56C259.148 414.856 258.252 414.504 257.116 414.504C255.964 414.504 255.044 414.864 254.356 415.584C253.684 416.304 253.348 417.352 253.348 418.728V426H251.164V412.848H253.348V414.72C253.78 414.048 254.364 413.528 255.1 413.16C255.852 412.792 256.676 412.608 257.572 412.608ZM265.7 419.376C265.7 418.032 265.972 416.856 266.516 415.848C267.06 414.824 267.804 414.032 268.748 413.472C269.708 412.912 270.772 412.632 271.94 412.632C273.092 412.632 274.092 412.88 274.94 413.376C275.788 413.872 276.42 414.496 276.836 415.248V412.848H279.044V426H276.836V423.552C276.404 424.32 275.756 424.96 274.892 425.472C274.044 425.968 273.052 426.216 271.916 426.216C270.748 426.216 269.692 425.928 268.748 425.352C267.804 424.776 267.06 423.968 266.516 422.928C265.972 421.888 265.7 420.704 265.7 419.376ZM276.836 419.4C276.836 418.408 276.636 417.544 276.236 416.808C275.836 416.072 275.292 415.512 274.604 415.128C273.932 414.728 273.188 414.528 272.372 414.528C271.556 414.528 270.812 414.72 270.14 415.104C269.468 415.488 268.932 416.048 268.532 416.784C268.132 417.52 267.932 418.384 267.932 419.376C267.932 420.384 268.132 421.264 268.532 422.016C268.932 422.752 269.468 423.32 270.14 423.72C270.812 424.104 271.556 424.296 272.372 424.296C273.188 424.296 273.932 424.104 274.604 423.72C275.292 423.32 275.836 422.752 276.236 422.016C276.636 421.264 276.836 420.392 276.836 419.4ZM284.919 408.24V426H282.735V408.24H284.919ZM299.969 412.848L292.049 432.192H289.793L292.385 425.856L287.081 412.848H289.505L293.633 423.504L297.713 412.848H299.969ZM306.82 426.216C305.812 426.216 304.908 426.048 304.108 425.712C303.308 425.36 302.676 424.88 302.212 424.272C301.748 423.648 301.492 422.936 301.444 422.136H303.7C303.764 422.792 304.068 423.328 304.612 423.744C305.172 424.16 305.9 424.368 306.796 424.368C307.628 424.368 308.284 424.184 308.764 423.816C309.244 423.448 309.484 422.984 309.484 422.424C309.484 421.848 309.228 421.424 308.716 421.152C308.204 420.864 307.412 420.584 306.34 420.312C305.364 420.056 304.564 419.8 303.94 419.544C303.332 419.272 302.804 418.88 302.356 418.368C301.924 417.84 301.708 417.152 301.708 416.304C301.708 415.632 301.908 415.016 302.308 414.456C302.708 413.896 303.276 413.456 304.012 413.136C304.748 412.8 305.588 412.632 306.532 412.632C307.988 412.632 309.164 413 310.06 413.736C310.956 414.472 311.436 415.48 311.5 416.76H309.316C309.268 416.072 308.988 415.52 308.476 415.104C307.98 414.688 307.308 414.48 306.46 414.48C305.676 414.48 305.052 414.648 304.588 414.984C304.124 415.32 303.892 415.76 303.892 416.304C303.892 416.736 304.028 417.096 304.3 417.384C304.588 417.656 304.94 417.88 305.356 418.056C305.788 418.216 306.38 418.4 307.132 418.608C308.076 418.864 308.844 419.12 309.436 419.376C310.028 419.616 310.532 419.984 310.948 420.48C311.38 420.976 311.604 421.624 311.62 422.424C311.62 423.144 311.42 423.792 311.02 424.368C310.62 424.944 310.052 425.4 309.316 425.736C308.596 426.056 307.764 426.216 306.82 426.216ZM326.703 418.92C326.703 419.336 326.679 419.776 326.631 420.24H316.119C316.199 421.536 316.639 422.552 317.439 423.288C318.255 424.008 319.239 424.368 320.391 424.368C321.335 424.368 322.119 424.152 322.743 423.72C323.383 423.272 323.831 422.68 324.087 421.944H326.439C326.087 423.208 325.383 424.24 324.327 425.04C323.271 425.824 321.959 426.216 320.391 426.216C319.143 426.216 318.023 425.936 317.031 425.376C316.055 424.816 315.287 424.024 314.727 423C314.167 421.96 313.887 420.76 313.887 419.4C313.887 418.04 314.159 416.848 314.703 415.824C315.247 414.8 316.007 414.016 316.983 413.472C317.975 412.912 319.111 412.632 320.391 412.632C321.639 412.632 322.743 412.904 323.703 413.448C324.663 413.992 325.399 414.744 325.911 415.704C326.439 416.648 326.703 417.72 326.703 418.92ZM324.447 418.464C324.447 417.632 324.263 416.92 323.895 416.328C323.527 415.72 323.023 415.264 322.383 414.96C321.759 414.64 321.063 414.48 320.295 414.48C319.191 414.48 318.247 414.832 317.463 415.536C316.695 416.24 316.255 417.216 316.143 418.464H324.447ZM335.169 419.376C335.169 418.032 335.441 416.856 335.985 415.848C336.529 414.824 337.273 414.032 338.217 413.472C339.177 412.912 340.241 412.632 341.409 412.632C342.561 412.632 343.561 412.88 344.409 413.376C345.257 413.872 345.889 414.496 346.305 415.248V412.848H348.513V426H346.305V423.552C345.873 424.32 345.225 424.96 344.361 425.472C343.513 425.968 342.521 426.216 341.385 426.216C340.217 426.216 339.161 425.928 338.217 425.352C337.273 424.776 336.529 423.968 335.985 422.928C335.441 421.888 335.169 420.704 335.169 419.376ZM346.305 419.4C346.305 418.408 346.105 417.544 345.705 416.808C345.305 416.072 344.761 415.512 344.073 415.128C343.401 414.728 342.657 414.528 341.841 414.528C341.025 414.528 340.281 414.72 339.609 415.104C338.937 415.488 338.401 416.048 338.001 416.784C337.601 417.52 337.401 418.384 337.401 419.376C337.401 420.384 337.601 421.264 338.001 422.016C338.401 422.752 338.937 423.32 339.609 423.72C340.281 424.104 341.025 424.296 341.841 424.296C342.657 424.296 343.401 424.104 344.073 423.72C344.761 423.32 345.305 422.752 345.705 422.016C346.105 421.264 346.305 420.392 346.305 419.4ZM351.387 419.376C351.387 418.032 351.659 416.856 352.203 415.848C352.747 414.824 353.491 414.032 354.435 413.472C355.395 412.912 356.467 412.632 357.651 412.632C358.675 412.632 359.627 412.872 360.507 413.352C361.387 413.816 362.059 414.432 362.523 415.2V408.24H364.731V426H362.523V423.528C362.091 424.312 361.451 424.96 360.603 425.472C359.755 425.968 358.763 426.216 357.627 426.216C356.459 426.216 355.395 425.928 354.435 425.352C353.491 424.776 352.747 423.968 352.203 422.928C351.659 421.888 351.387 420.704 351.387 419.376ZM362.523 419.4C362.523 418.408 362.323 417.544 361.923 416.808C361.523 416.072 360.979 415.512 360.291 415.128C359.619 414.728 358.875 414.528 358.059 414.528C357.243 414.528 356.499 414.72 355.827 415.104C355.155 415.488 354.619 416.048 354.219 416.784C353.819 417.52 353.619 418.384 353.619 419.376C353.619 420.384 353.819 421.264 354.219 422.016C354.619 422.752 355.155 423.32 355.827 423.72C356.499 424.104 357.243 424.296 358.059 424.296C358.875 424.296 359.619 424.104 360.291 423.72C360.979 423.32 361.523 422.752 361.923 422.016C362.323 421.264 362.523 420.392 362.523 419.4ZM159.505 447.272C159.937 446.52 160.577 445.896 161.425 445.4C162.289 444.888 163.289 444.632 164.425 444.632C165.593 444.632 166.649 444.912 167.593 445.472C168.553 446.032 169.305 446.824 169.849 447.848C170.393 448.856 170.665 450.032 170.665 451.376C170.665 452.704 170.393 453.888 169.849 454.928C169.305 455.968 168.553 456.776 167.593 457.352C166.649 457.928 165.593 458.216 164.425 458.216C163.305 458.216 162.313 457.968 161.449 457.472C160.601 456.96 159.953 456.328 159.505 455.576V464.24H157.321V444.848H159.505V447.272ZM168.433 451.376C168.433 450.384 168.233 449.52 167.833 448.784C167.433 448.048 166.889 447.488 166.201 447.104C165.529 446.72 164.785 446.528 163.969 446.528C163.169 446.528 162.425 446.728 161.737 447.128C161.065 447.512 160.521 448.08 160.105 448.832C159.705 449.568 159.505 450.424 159.505 451.4C159.505 452.392 159.705 453.264 160.105 454.016C160.521 454.752 161.065 455.32 161.737 455.72C162.425 456.104 163.169 456.296 163.969 456.296C164.785 456.296 165.529 456.104 166.201 455.72C166.889 455.32 167.433 454.752 167.833 454.016C168.233 453.264 168.433 452.384 168.433 451.376ZM185.539 450.92C185.539 451.336 185.515 451.776 185.467 452.24H174.955C175.035 453.536 175.475 454.552 176.275 455.288C177.091 456.008 178.075 456.368 179.227 456.368C180.171 456.368 180.955 456.152 181.579 455.72C182.219 455.272 182.667 454.68 182.923 453.944H185.275C184.923 455.208 184.219 456.24 183.163 457.04C182.107 457.824 180.795 458.216 179.227 458.216C177.979 458.216 176.859 457.936 175.867 457.376C174.891 456.816 174.123 456.024 173.563 455C173.003 453.96 172.723 452.76 172.723 451.4C172.723 450.04 172.995 448.848 173.539 447.824C174.083 446.8 174.843 446.016 175.819 445.472C176.811 444.912 177.947 444.632 179.227 444.632C180.475 444.632 181.579 444.904 182.539 445.448C183.499 445.992 184.235 446.744 184.747 447.704C185.275 448.648 185.539 449.72 185.539 450.92ZM183.283 450.464C183.283 449.632 183.099 448.92 182.731 448.328C182.363 447.72 181.859 447.264 181.219 446.96C180.595 446.64 179.899 446.48 179.131 446.48C178.027 446.48 177.083 446.832 176.299 447.536C175.531 448.24 175.091 449.216 174.979 450.464H183.283ZM190.606 446.984C190.99 446.232 191.534 445.648 192.238 445.232C192.958 444.816 193.83 444.608 194.854 444.608V446.864H194.278C191.83 446.864 190.606 448.192 190.606 450.848V458H188.422V444.848H190.606V446.984ZM202.727 446.648H199.967V458H197.783V446.648H196.079V444.848H197.783V443.912C197.783 442.44 198.159 441.368 198.911 440.696C199.679 440.008 200.903 439.664 202.583 439.664V441.488C201.623 441.488 200.943 441.68 200.543 442.064C200.159 442.432 199.967 443.048 199.967 443.912V444.848H202.727V446.648ZM211.01 458.216C209.778 458.216 208.658 457.936 207.65 457.376C206.658 456.816 205.874 456.024 205.298 455C204.738 453.96 204.458 452.76 204.458 451.4C204.458 450.056 204.746 448.872 205.322 447.848C205.914 446.808 206.714 446.016 207.722 445.472C208.73 444.912 209.858 444.632 211.106 444.632C212.354 444.632 213.482 444.912 214.49 445.472C215.498 446.016 216.29 446.8 216.866 447.824C217.458 448.848 217.754 450.04 217.754 451.4C217.754 452.76 217.45 453.96 216.842 455C216.25 456.024 215.442 456.816 214.418 457.376C213.394 457.936 212.258 458.216 211.01 458.216ZM211.01 456.296C211.794 456.296 212.53 456.112 213.218 455.744C213.906 455.376 214.458 454.824 214.874 454.088C215.306 453.352 215.522 452.456 215.522 451.4C215.522 450.344 215.314 449.448 214.898 448.712C214.482 447.976 213.938 447.432 213.266 447.08C212.594 446.712 211.866 446.528 211.082 446.528C210.282 446.528 209.546 446.712 208.874 447.08C208.218 447.432 207.69 447.976 207.29 448.712C206.89 449.448 206.69 450.344 206.69 451.4C206.69 452.472 206.882 453.376 207.266 454.112C207.666 454.848 208.194 455.4 208.85 455.768C209.506 456.12 210.226 456.296 211.01 456.296ZM222.809 446.984C223.193 446.232 223.737 445.648 224.441 445.232C225.161 444.816 226.033 444.608 227.057 444.608V446.864H226.481C224.033 446.864 222.809 448.192 222.809 450.848V458H220.625V444.848H222.809V446.984ZM245.394 444.608C246.418 444.608 247.33 444.824 248.13 445.256C248.93 445.672 249.562 446.304 250.026 447.152C250.49 448 250.722 449.032 250.722 450.248V458H248.562V450.56C248.562 449.248 248.234 448.248 247.578 447.56C246.938 446.856 246.066 446.504 244.962 446.504C243.826 446.504 242.922 446.872 242.25 447.608C241.578 448.328 241.242 449.376 241.242 450.752V458H239.082V450.56C239.082 449.248 238.754 448.248 238.098 447.56C237.458 446.856 236.586 446.504 235.482 446.504C234.346 446.504 233.442 446.872 232.77 447.608C232.098 448.328 231.762 449.376 231.762 450.752V458H229.578V444.848H231.762V446.744C232.194 446.056 232.77 445.528 233.49 445.16C234.226 444.792 235.034 444.608 235.914 444.608C237.018 444.608 237.994 444.856 238.842 445.352C239.69 445.848 240.322 446.576 240.738 447.536C241.106 446.608 241.714 445.888 242.562 445.376C243.41 444.864 244.354 444.608 245.394 444.608ZM253.489 451.376C253.489 450.032 253.761 448.856 254.305 447.848C254.849 446.824 255.593 446.032 256.537 445.472C257.497 444.912 258.561 444.632 259.729 444.632C260.881 444.632 261.881 444.88 262.729 445.376C263.577 445.872 264.209 446.496 264.625 447.248V444.848H266.833V458H264.625V455.552C264.193 456.32 263.545 456.96 262.681 457.472C261.833 457.968 260.841 458.216 259.705 458.216C258.537 458.216 257.481 457.928 256.537 457.352C255.593 456.776 254.849 455.968 254.305 454.928C253.761 453.888 253.489 452.704 253.489 451.376ZM264.625 451.4C264.625 450.408 264.425 449.544 264.025 448.808C263.625 448.072 263.081 447.512 262.393 447.128C261.721 446.728 260.977 446.528 260.161 446.528C259.345 446.528 258.601 446.72 257.929 447.104C257.257 447.488 256.721 448.048 256.321 448.784C255.921 449.52 255.721 450.384 255.721 451.376C255.721 452.384 255.921 453.264 256.321 454.016C256.721 454.752 257.257 455.32 257.929 455.72C258.601 456.104 259.345 456.296 260.161 456.296C260.977 456.296 261.721 456.104 262.393 455.72C263.081 455.32 263.625 454.752 264.025 454.016C264.425 453.264 264.625 452.392 264.625 451.4ZM276.932 444.608C278.532 444.608 279.828 445.096 280.82 446.072C281.812 447.032 282.308 448.424 282.308 450.248V458H280.148V450.56C280.148 449.248 279.82 448.248 279.164 447.56C278.508 446.856 277.612 446.504 276.476 446.504C275.324 446.504 274.404 446.864 273.716 447.584C273.044 448.304 272.708 449.352 272.708 450.728V458H270.524V444.848H272.708V446.72C273.14 446.048 273.724 445.528 274.46 445.16C275.212 444.792 276.036 444.608 276.932 444.608ZM285.059 451.4C285.059 450.04 285.331 448.856 285.875 447.848C286.419 446.824 287.171 446.032 288.131 445.472C289.107 444.912 290.219 444.632 291.467 444.632C293.083 444.632 294.411 445.024 295.451 445.808C296.507 446.592 297.203 447.68 297.539 449.072H295.187C294.963 448.272 294.523 447.64 293.867 447.176C293.227 446.712 292.427 446.48 291.467 446.48C290.219 446.48 289.211 446.912 288.443 447.776C287.675 448.624 287.291 449.832 287.291 451.4C287.291 452.984 287.675 454.208 288.443 455.072C289.211 455.936 290.219 456.368 291.467 456.368C292.427 456.368 293.227 456.144 293.867 455.696C294.507 455.248 294.947 454.608 295.187 453.776H297.539C297.187 455.12 296.483 456.2 295.427 457.016C294.371 457.816 293.051 458.216 291.467 458.216C290.219 458.216 289.107 457.936 288.131 457.376C287.171 456.816 286.419 456.024 285.875 455C285.331 453.976 285.059 452.776 285.059 451.4ZM312.453 450.92C312.453 451.336 312.429 451.776 312.381 452.24H301.869C301.949 453.536 302.389 454.552 303.189 455.288C304.005 456.008 304.989 456.368 306.141 456.368C307.085 456.368 307.869 456.152 308.493 455.72C309.133 455.272 309.581 454.68 309.837 453.944H312.189C311.837 455.208 311.133 456.24 310.077 457.04C309.021 457.824 307.709 458.216 306.141 458.216C304.893 458.216 303.773 457.936 302.781 457.376C301.805 456.816 301.037 456.024 300.477 455C299.917 453.96 299.637 452.76 299.637 451.4C299.637 450.04 299.909 448.848 300.453 447.824C300.997 446.8 301.757 446.016 302.733 445.472C303.725 444.912 304.861 444.632 306.141 444.632C307.389 444.632 308.493 444.904 309.453 445.448C310.413 445.992 311.149 446.744 311.661 447.704C312.189 448.648 312.453 449.72 312.453 450.92ZM310.197 450.464C310.197 449.632 310.013 448.92 309.645 448.328C309.277 447.72 308.773 447.264 308.133 446.96C307.509 446.64 306.813 446.48 306.045 446.48C304.941 446.48 303.997 446.832 303.213 447.536C302.445 448.24 302.005 449.216 301.893 450.464H310.197ZM316.032 458.144C315.616 458.144 315.264 458 314.976 457.712C314.688 457.424 314.544 457.072 314.544 456.656C314.544 456.24 314.688 455.888 314.976 455.6C315.264 455.312 315.616 455.168 316.032 455.168C316.432 455.168 316.768 455.312 317.04 455.6C317.328 455.888 317.472 456.24 317.472 456.656C317.472 457.072 317.328 457.424 317.04 457.712C316.768 458 316.432 458.144 316.032 458.144Z" fill="#595959"/>
<g filter="url(#filter2_d_1006_2791)">
<g clip-path="url(#clip1_1006_2791)">
<rect x="22" y="21" width="425" height="302" rx="20" fill="white"/>
<path d="M159.579 49.9431H154.43L153.482 52.5684H151.856L156.124 40.8311H157.902L162.153 52.5684H160.528L159.579 49.9431ZM159.139 48.6898L157.005 42.728L154.871 48.6898H159.139ZM168.688 43.1345C169.49 43.1345 170.19 43.3095 170.788 43.6595C171.398 44.0096 171.85 44.4499 172.143 44.9806V43.2869H173.702V52.7716C173.702 53.6184 173.521 54.3693 173.16 55.0242C172.798 55.6904 172.279 56.2098 171.601 56.5824C170.935 56.955 170.156 57.1413 169.264 57.1413C168.045 57.1413 167.028 56.8534 166.215 56.2775C165.402 55.7017 164.923 54.9169 164.776 53.9233H166.3C166.469 54.4879 166.819 54.9395 167.35 55.2783C167.881 55.6283 168.519 55.8033 169.264 55.8033C170.111 55.8033 170.8 55.538 171.33 55.0073C171.872 54.4766 172.143 53.7314 172.143 52.7716V50.8239C171.838 51.3658 171.387 51.8175 170.788 52.1788C170.19 52.5401 169.49 52.7208 168.688 52.7208C167.864 52.7208 167.113 52.5175 166.436 52.1111C165.769 51.7046 165.244 51.1344 164.86 50.4004C164.477 49.6665 164.285 48.8309 164.285 47.8938C164.285 46.9453 164.477 46.1154 164.86 45.404C165.244 44.6814 165.769 44.1225 166.436 43.7273C167.113 43.3321 167.864 43.1345 168.688 43.1345ZM172.143 47.9107C172.143 47.2106 172.002 46.6009 171.72 46.0815C171.438 45.5621 171.054 45.1669 170.568 44.8959C170.094 44.6136 169.569 44.4725 168.993 44.4725C168.417 44.4725 167.892 44.608 167.418 44.879C166.944 45.15 166.565 45.5452 166.283 46.0646C166.001 46.584 165.86 47.1937 165.86 47.8938C165.86 48.6051 166.001 49.2261 166.283 49.7568C166.565 50.2762 166.944 50.6771 167.418 50.9594C167.892 51.2303 168.417 51.3658 168.993 51.3658C169.569 51.3658 170.094 51.2303 170.568 50.9594C171.054 50.6771 171.438 50.2762 171.72 49.7568C172.002 49.2261 172.143 48.6108 172.143 47.9107ZM185.621 47.572C185.621 47.8655 185.604 48.176 185.571 48.5035H178.152C178.209 49.4181 178.519 50.1351 179.084 50.6545C179.66 51.1626 180.354 51.4166 181.167 51.4166C181.833 51.4166 182.386 51.2642 182.827 50.9594C183.278 50.6432 183.595 50.2254 183.775 49.706H185.435C185.187 50.598 184.69 51.3263 183.945 51.8909C183.199 52.4442 182.274 52.7208 181.167 52.7208C180.286 52.7208 179.496 52.5232 178.796 52.128C178.107 51.7328 177.565 51.1739 177.17 50.4512C176.775 49.7173 176.577 48.8705 176.577 47.9107C176.577 46.9509 176.769 46.1097 177.153 45.3871C177.537 44.6645 178.073 44.1112 178.762 43.7273C179.462 43.3321 180.264 43.1345 181.167 43.1345C182.048 43.1345 182.827 43.3264 183.504 43.7103C184.182 44.0942 184.701 44.6249 185.063 45.3024C185.435 45.9686 185.621 46.7251 185.621 47.572ZM184.029 47.2502C184.029 46.663 183.9 46.1606 183.64 45.7428C183.38 45.3137 183.024 44.9919 182.573 44.7774C182.132 44.5515 181.641 44.4386 181.099 44.4386C180.32 44.4386 179.654 44.687 179.101 45.1839C178.559 45.6807 178.248 46.3694 178.169 47.2502H184.029ZM197.54 40.7633C198.827 40.7633 199.94 41.0061 200.877 41.4916C201.825 41.9658 202.548 42.649 203.045 43.541C203.553 44.433 203.807 45.4831 203.807 46.6912C203.807 47.8994 203.553 48.9495 203.045 49.8415C202.548 50.7222 201.825 51.3997 200.877 51.8739C199.94 52.3369 198.827 52.5684 197.54 52.5684H193.865V40.7633H197.54ZM197.54 51.2981C199.065 51.2981 200.228 50.8972 201.029 50.0956C201.831 49.2826 202.232 48.1478 202.232 46.6912C202.232 45.2234 201.825 44.0773 201.012 43.253C200.211 42.4288 199.053 42.0166 197.54 42.0166H195.406V51.2981H197.54ZM215.155 47.572C215.155 47.8655 215.138 48.176 215.104 48.5035H207.686C207.742 49.4181 208.053 50.1351 208.618 50.6545C209.193 51.1626 209.888 51.4166 210.701 51.4166C211.367 51.4166 211.92 51.2642 212.361 50.9594C212.812 50.6432 213.128 50.2254 213.309 49.706H214.969C214.721 50.598 214.224 51.3263 213.478 51.8909C212.733 52.4442 211.807 52.7208 210.701 52.7208C209.82 52.7208 209.03 52.5232 208.33 52.128C207.641 51.7328 207.099 51.1739 206.704 50.4512C206.308 49.7173 206.111 48.8705 206.111 47.9107C206.111 46.9509 206.303 46.1097 206.687 45.3871C207.071 44.6645 207.607 44.1112 208.296 43.7273C208.996 43.3321 209.797 43.1345 210.701 43.1345C211.582 43.1345 212.361 43.3264 213.038 43.7103C213.716 44.0942 214.235 44.6249 214.596 45.3024C214.969 45.9686 215.155 46.7251 215.155 47.572ZM213.563 47.2502C213.563 46.663 213.433 46.1606 213.174 45.7428C212.914 45.3137 212.558 44.9919 212.107 44.7774C211.666 44.5515 211.175 44.4386 210.633 44.4386C209.854 44.4386 209.188 44.687 208.634 45.1839C208.093 45.6807 207.782 46.3694 207.703 47.2502H213.563ZM229.198 43.1175C229.921 43.1175 230.564 43.27 231.129 43.5748C231.693 43.8684 232.139 44.3144 232.467 44.9129C232.794 45.5113 232.958 46.2396 232.958 47.0977V52.5684H231.434V47.3179C231.434 46.392 231.202 45.6863 230.739 45.2008C230.288 44.704 229.672 44.4556 228.893 44.4556C228.091 44.4556 227.453 44.7153 226.979 45.2347C226.505 45.7428 226.268 46.4824 226.268 47.4534V52.5684H224.744V47.3179C224.744 46.392 224.512 45.6863 224.049 45.2008C223.597 44.704 222.982 44.4556 222.203 44.4556C221.401 44.4556 220.763 44.7153 220.289 45.2347C219.815 45.7428 219.578 46.4824 219.578 47.4534V52.5684H218.036V43.2869H219.578V44.6249C219.883 44.1394 220.289 43.7668 220.797 43.5071C221.317 43.2474 221.887 43.1175 222.508 43.1175C223.287 43.1175 223.976 43.2926 224.574 43.6426C225.173 43.9926 225.619 44.5064 225.912 45.1839C226.172 44.529 226.601 44.0209 227.199 43.6595C227.798 43.2982 228.464 43.1175 229.198 43.1175ZM240.381 52.7208C239.511 52.7208 238.721 52.5232 238.01 52.128C237.31 51.7328 236.756 51.1739 236.35 50.4512C235.955 49.7173 235.757 48.8705 235.757 47.9107C235.757 46.9622 235.96 46.1267 236.367 45.404C236.785 44.6701 237.349 44.1112 238.061 43.7273C238.772 43.3321 239.568 43.1345 240.449 43.1345C241.329 43.1345 242.125 43.3321 242.837 43.7273C243.548 44.1112 244.107 44.6645 244.514 45.3871C244.931 46.1097 245.14 46.9509 245.14 47.9107C245.14 48.8705 244.926 49.7173 244.497 50.4512C244.079 51.1739 243.509 51.7328 242.786 52.128C242.063 52.5232 241.262 52.7208 240.381 52.7208ZM240.381 51.3658C240.934 51.3658 241.454 51.236 241.939 50.9763C242.425 50.7166 242.814 50.327 243.108 49.8076C243.413 49.2882 243.565 48.6559 243.565 47.9107C243.565 47.1655 243.418 46.5332 243.125 46.0138C242.831 45.4944 242.447 45.1105 241.973 44.8621C241.499 44.6024 240.985 44.4725 240.432 44.4725C239.867 44.4725 239.348 44.6024 238.874 44.8621C238.411 45.1105 238.038 45.4944 237.756 46.0138C237.473 46.5332 237.332 47.1655 237.332 47.9107C237.332 48.6672 237.468 49.3052 237.739 49.8246C238.021 50.344 238.394 50.7335 238.857 50.9932C239.32 51.2416 239.828 51.3658 240.381 51.3658ZM251.841 43.1345C252.643 43.1345 253.343 43.3095 253.941 43.6595C254.551 44.0096 255.003 44.4499 255.296 44.9806V43.2869H256.855V52.7716C256.855 53.6184 256.674 54.3693 256.313 55.0242C255.951 55.6904 255.432 56.2098 254.754 56.5824C254.088 56.955 253.309 57.1413 252.417 57.1413C251.198 57.1413 250.181 56.8534 249.368 56.2775C248.556 55.7017 248.076 54.9169 247.929 53.9233H249.453C249.623 54.4879 249.973 54.9395 250.503 55.2783C251.034 55.6283 251.672 55.8033 252.417 55.8033C253.264 55.8033 253.953 55.538 254.483 55.0073C255.025 54.4766 255.296 53.7314 255.296 52.7716V50.8239C254.992 51.3658 254.54 51.8175 253.941 52.1788C253.343 52.5401 252.643 52.7208 251.841 52.7208C251.017 52.7208 250.266 52.5175 249.589 52.1111C248.922 51.7046 248.397 51.1344 248.014 50.4004C247.63 49.6665 247.438 48.8309 247.438 47.8938C247.438 46.9453 247.63 46.1154 248.014 45.404C248.397 44.6814 248.922 44.1225 249.589 43.7273C250.266 43.3321 251.017 43.1345 251.841 43.1345ZM255.296 47.9107C255.296 47.2106 255.155 46.6009 254.873 46.0815C254.591 45.5621 254.207 45.1669 253.721 44.8959C253.247 44.6136 252.722 44.4725 252.146 44.4725C251.57 44.4725 251.045 44.608 250.571 44.879C250.097 45.15 249.719 45.5452 249.436 46.0646C249.154 46.584 249.013 47.1937 249.013 47.8938C249.013 48.6051 249.154 49.2261 249.436 49.7568C249.719 50.2762 250.097 50.6771 250.571 50.9594C251.045 51.2303 251.57 51.3658 252.146 51.3658C252.722 51.3658 253.247 51.2303 253.721 50.9594C254.207 50.6771 254.591 50.2762 254.873 49.7568C255.155 49.2261 255.296 48.6108 255.296 47.9107ZM261.847 44.7943C262.118 44.2636 262.502 43.8515 262.999 43.5579C263.507 43.2643 264.123 43.1175 264.845 43.1175V44.7096H264.439C262.711 44.7096 261.847 45.6468 261.847 47.5212V52.5684H260.306V43.2869H261.847V44.7943ZM266.895 47.8938C266.895 46.9453 267.087 46.1154 267.471 45.404C267.855 44.6814 268.38 44.1225 269.046 43.7273C269.724 43.3321 270.475 43.1345 271.299 43.1345C272.112 43.1345 272.818 43.3095 273.416 43.6595C274.014 44.0096 274.46 44.4499 274.754 44.9806V43.2869H276.312V52.5684H274.754V50.8408C274.449 51.3828 273.992 51.8344 273.382 52.1957C272.784 52.5458 272.084 52.7208 271.282 52.7208C270.458 52.7208 269.712 52.5175 269.046 52.1111C268.38 51.7046 267.855 51.1344 267.471 50.4004C267.087 49.6665 266.895 48.8309 266.895 47.8938ZM274.754 47.9107C274.754 47.2106 274.613 46.6009 274.331 46.0815C274.048 45.5621 273.664 45.1669 273.179 44.8959C272.705 44.6136 272.18 44.4725 271.604 44.4725C271.028 44.4725 270.503 44.608 270.029 44.879C269.554 45.15 269.176 45.5452 268.894 46.0646C268.612 46.584 268.47 47.1937 268.47 47.8938C268.47 48.6051 268.612 49.2261 268.894 49.7568C269.176 50.2762 269.554 50.6771 270.029 50.9594C270.503 51.2303 271.028 51.3658 271.604 51.3658C272.18 51.3658 272.705 51.2303 273.179 50.9594C273.664 50.6771 274.048 50.2762 274.331 49.7568C274.613 49.2261 274.754 48.6108 274.754 47.9107ZM281.305 44.9975C281.61 44.4669 282.061 44.0265 282.66 43.6765C283.27 43.3151 283.975 43.1345 284.777 43.1345C285.601 43.1345 286.347 43.3321 287.013 43.7273C287.69 44.1225 288.221 44.6814 288.605 45.404C288.989 46.1154 289.181 46.9453 289.181 47.8938C289.181 48.8309 288.989 49.6665 288.605 50.4004C288.221 51.1344 287.69 51.7046 287.013 52.1111C286.347 52.5175 285.601 52.7208 284.777 52.7208C283.987 52.7208 283.287 52.5458 282.677 52.1957C282.078 51.8344 281.621 51.3884 281.305 50.8577V56.972H279.764V43.2869H281.305V44.9975ZM287.605 47.8938C287.605 47.1937 287.464 46.584 287.182 46.0646C286.9 45.5452 286.516 45.15 286.03 44.879C285.556 44.608 285.031 44.4725 284.455 44.4725C283.891 44.4725 283.366 44.6136 282.88 44.8959C282.406 45.1669 282.022 45.5678 281.728 46.0984C281.446 46.6178 281.305 47.2219 281.305 47.9107C281.305 48.6108 281.446 49.2261 281.728 49.7568C282.022 50.2762 282.406 50.6771 282.88 50.9594C283.366 51.2303 283.891 51.3658 284.455 51.3658C285.031 51.3658 285.556 51.2303 286.03 50.9594C286.516 50.6771 286.9 50.2762 287.182 49.7568C287.464 49.2261 287.605 48.6051 287.605 47.8938ZM296.663 43.1175C297.363 43.1175 297.995 43.27 298.56 43.5748C299.125 43.8684 299.565 44.3144 299.881 44.9129C300.209 45.5113 300.372 46.2396 300.372 47.0977V52.5684H298.848V47.3179C298.848 46.392 298.616 45.6863 298.153 45.2008C297.691 44.704 297.058 44.4556 296.257 44.4556C295.444 44.4556 294.794 44.7096 294.309 45.2177C293.835 45.7258 293.597 46.4654 293.597 47.4365V52.5684H292.056V40.035H293.597V44.608C293.902 44.1338 294.32 43.7668 294.851 43.5071C295.393 43.2474 295.997 43.1175 296.663 43.1175ZM304.533 41.7795C304.239 41.7795 303.991 41.6779 303.788 41.4747C303.584 41.2714 303.483 41.023 303.483 40.7294C303.483 40.4359 303.584 40.1875 303.788 39.9842C303.991 39.781 304.239 39.6793 304.533 39.6793C304.815 39.6793 305.052 39.781 305.244 39.9842C305.447 40.1875 305.549 40.4359 305.549 40.7294C305.549 41.023 305.447 41.2714 305.244 41.4747C305.052 41.6779 304.815 41.7795 304.533 41.7795ZM305.278 43.2869V52.5684H303.737V43.2869H305.278ZM308.176 47.9107C308.176 46.9509 308.368 46.1154 308.752 45.404C309.136 44.6814 309.666 44.1225 310.344 43.7273C311.032 43.3321 311.817 43.1345 312.698 43.1345C313.838 43.1345 314.776 43.4111 315.509 43.9644C316.255 44.5177 316.746 45.2855 316.983 46.2678H315.323C315.165 45.7033 314.855 45.2572 314.392 44.9298C313.94 44.6024 313.375 44.4386 312.698 44.4386C311.817 44.4386 311.106 44.7435 310.564 45.3532C310.022 45.9517 309.751 46.8042 309.751 47.9107C309.751 49.0285 310.022 49.8923 310.564 50.5021C311.106 51.1118 311.817 51.4166 312.698 51.4166C313.375 51.4166 313.94 51.2586 314.392 50.9424C314.843 50.6263 315.154 50.1746 315.323 49.5875H316.983C316.735 50.5359 316.238 51.2981 315.493 51.8739C314.747 52.4385 313.816 52.7208 312.698 52.7208C311.817 52.7208 311.032 52.5232 310.344 52.128C309.666 51.7328 309.136 51.1739 308.752 50.4512C308.368 49.7286 308.176 48.8818 308.176 47.9107Z" fill="#282636"/>
<path d="M83 227.303L73.1458 227.303L73.1458 223.973C73.1458 223.2 73.2853 222.568 73.5644 222.077C73.8403 221.583 74.214 221.218 74.6855 220.98C75.157 220.743 75.6831 220.624 76.2637 220.624C76.8443 220.624 77.372 220.743 77.8467 220.98C78.3215 221.214 78.7 221.577 78.9823 222.068C79.2614 222.559 79.4009 223.187 79.4009 223.954L79.4009 226.34L78.3423 226.34L78.3423 223.992C78.3423 223.463 78.2509 223.038 78.0681 222.717C77.8852 222.397 77.6382 222.164 77.3271 222.02C77.0127 221.872 76.6583 221.798 76.2637 221.798C75.8692 221.798 75.5163 221.872 75.2052 222.02C74.894 222.164 74.6502 222.398 74.4738 222.722C74.2942 223.046 74.2043 223.476 74.2043 224.012L74.2043 226.11L83 226.11L83 227.303ZM83.154 215.837C83.154 216.549 82.9968 217.163 82.6824 217.68C82.3649 218.193 81.9222 218.589 81.3544 218.868C80.7834 219.144 80.1194 219.282 79.3624 219.282C78.6054 219.282 77.9382 219.144 77.3608 218.868C76.7802 218.589 76.3279 218.201 76.0039 217.704C75.6767 217.203 75.5131 216.619 75.5131 215.952C75.5131 215.567 75.5773 215.187 75.7056 214.812C75.8339 214.437 76.0424 214.095 76.3311 213.787C76.6166 213.479 76.9951 213.234 77.4666 213.051C77.9382 212.868 78.5188 212.776 79.2084 212.776L79.6896 212.776L79.6896 218.473L78.708 218.473L78.708 213.931C78.291 213.931 77.9189 214.015 77.5917 214.181C77.2645 214.345 77.0063 214.579 76.8171 214.884C76.6278 215.186 76.5332 215.542 76.5332 215.952C76.5332 216.404 76.6454 216.796 76.87 217.126C77.0913 217.453 77.38 217.705 77.7361 217.882C78.0921 218.058 78.4739 218.146 78.8812 218.146L79.5356 218.146C80.0938 218.146 80.5669 218.05 80.9551 217.858C81.34 217.662 81.6335 217.391 81.8356 217.044C82.0345 216.698 82.1339 216.295 82.1339 215.837C82.1339 215.538 82.0922 215.269 82.0088 215.028C81.9222 214.785 81.7939 214.574 81.6239 214.398C81.4507 214.222 81.2357 214.085 80.9791 213.989L81.2871 212.892C81.6592 213.007 81.9863 213.202 82.2686 213.474C82.5477 213.747 82.7658 214.084 82.923 214.485C83.077 214.886 83.154 215.336 83.154 215.837ZM83 211.049L75.6093 211.049L75.6093 209.952L76.7256 209.952L76.7256 209.875C76.3599 209.74 76.0632 209.497 75.8355 209.144C75.6077 208.791 75.4939 208.393 75.4939 207.95C75.4939 207.867 75.4955 207.763 75.4987 207.638C75.5019 207.513 75.5067 207.418 75.5131 207.354L76.6679 207.354C76.6583 207.392 76.6438 207.48 76.6246 207.618C76.6021 207.753 76.5909 207.896 76.5909 208.047C76.5909 208.406 76.6663 208.727 76.8171 209.009C76.9646 209.288 77.1699 209.509 77.4329 209.673C77.6928 209.833 77.9895 209.914 78.3231 209.914L83 209.914L83 211.049ZM83.154 203.23C83.154 203.923 82.9904 204.52 82.6632 205.02C82.336 205.521 81.8853 205.905 81.3111 206.175C80.7369 206.444 80.0809 206.579 79.3432 206.579C78.5925 206.579 77.9301 206.441 77.356 206.165C76.7786 205.886 76.3279 205.498 76.0039 205.001C75.6767 204.5 75.5131 203.917 75.5131 203.249C75.5131 202.73 75.6093 202.261 75.8018 201.844C75.9943 201.427 76.2637 201.086 76.6102 200.82C76.9566 200.553 77.3608 200.388 77.8227 200.324L77.8227 201.46C77.4859 201.546 77.1875 201.739 76.9277 202.037C76.6647 202.332 76.5332 202.73 76.5332 203.23C76.5332 203.673 76.6486 204.061 76.8796 204.395C77.1074 204.725 77.4297 204.983 77.8467 205.169C78.2605 205.352 78.7465 205.444 79.3047 205.444C79.8756 205.444 80.3728 205.354 80.7963 205.174C81.2197 204.991 81.5485 204.735 81.7827 204.404C82.0168 204.071 82.1339 203.679 82.1339 203.23C82.1339 202.935 82.0826 202.667 81.9799 202.427C81.8773 202.186 81.7297 201.982 81.5373 201.816C81.3448 201.649 81.1138 201.53 80.8444 201.46L80.8444 200.324C81.2806 200.388 81.6736 200.547 82.0232 200.8C82.3697 201.051 82.6455 201.383 82.8508 201.796C83.0529 202.207 83.154 202.685 83.154 203.23ZM83.154 195.565C83.154 196.277 82.9968 196.892 82.6824 197.408C82.3649 197.921 81.9222 198.318 81.3544 198.597C80.7834 198.872 80.1194 199.01 79.3624 199.01C78.6054 199.01 77.9382 198.872 77.3608 198.597C76.7802 198.318 76.3279 197.929 76.0039 197.432C75.6767 196.932 75.5131 196.348 75.5131 195.681C75.5131 195.296 75.5773 194.916 75.7056 194.54C75.8339 194.165 76.0424 193.823 76.3311 193.516C76.6166 193.208 76.9951 192.962 77.4666 192.779C77.9382 192.597 78.5188 192.505 79.2084 192.505L79.6896 192.505L79.6896 198.202L78.708 198.202L78.708 193.66C78.291 193.66 77.9189 193.743 77.5917 193.91C77.2645 194.074 77.0063 194.308 76.8171 194.613C76.6278 194.914 76.5332 195.27 76.5332 195.681C76.5332 196.133 76.6454 196.524 76.87 196.855C77.0913 197.182 77.38 197.434 77.7361 197.61C78.0921 197.787 78.4739 197.875 78.8812 197.875L79.5356 197.875C80.0938 197.875 80.5669 197.779 80.9551 197.586C81.34 197.391 81.6335 197.119 81.8356 196.773C82.0345 196.427 82.1339 196.024 82.1339 195.565C82.1339 195.267 82.0922 194.998 82.0088 194.757C81.9222 194.513 81.7939 194.303 81.6239 194.127C81.4507 193.95 81.2357 193.814 80.9791 193.718L81.2871 192.621C81.6592 192.736 81.9863 192.93 82.2686 193.203C82.5477 193.475 82.7658 193.812 82.923 194.213C83.077 194.614 83.154 195.065 83.154 195.565ZM78.5541 189.642L83 189.642L83 190.778L75.6093 190.778L75.6093 189.681L76.7641 189.681L76.7641 189.584C76.3888 189.411 76.0873 189.148 75.8595 188.795C75.6286 188.442 75.5131 187.987 75.5131 187.429C75.5131 186.928 75.6157 186.491 75.821 186.115C76.0231 185.74 76.3311 185.448 76.7449 185.24C77.1555 185.031 77.6751 184.927 78.3038 184.927L83 184.927L83 186.062L78.3808 186.062C77.8002 186.062 77.3479 186.213 77.024 186.515C76.6968 186.816 76.5332 187.23 76.5332 187.756C76.5332 188.118 76.6118 188.442 76.7689 188.728C76.9261 189.01 77.1555 189.233 77.457 189.397C77.7585 189.56 78.1242 189.642 78.5541 189.642ZM75.6093 179.638L76.5717 179.638L76.5717 183.468L75.6093 183.468L75.6093 179.638ZM73.8387 182.351L73.8387 181.216L80.8829 181.216C81.2037 181.216 81.4442 181.169 81.6046 181.076C81.7618 180.98 81.8677 180.858 81.9222 180.711C81.9735 180.56 81.9992 180.401 81.9992 180.234C81.9992 180.109 81.9928 180.006 81.9799 179.926C81.9639 179.846 81.9511 179.782 81.9414 179.734L82.9615 179.503C82.9904 179.58 83.0192 179.687 83.0481 179.825C83.0802 179.963 83.0962 180.138 83.0962 180.35C83.0962 180.67 83.0273 180.985 82.8893 181.293C82.7514 181.598 82.5413 181.851 82.259 182.053C81.9767 182.252 81.6207 182.351 81.1908 182.351L73.8387 182.351ZM83.1732 175.755C83.1732 176.223 83.085 176.648 82.9086 177.03C82.7289 177.411 82.4707 177.715 82.1339 177.939C81.7939 178.164 81.3833 178.276 80.9021 178.276C80.4787 178.276 80.1355 178.193 79.8724 178.026C79.6062 177.859 79.3977 177.636 79.2469 177.357C79.0962 177.078 78.9839 176.77 78.9101 176.433C78.8331 176.093 78.7722 175.751 78.7273 175.408C78.6695 174.959 78.6262 174.595 78.5974 174.316C78.5653 174.034 78.5124 173.828 78.4386 173.7C78.3648 173.569 78.2365 173.503 78.0536 173.503L78.0151 173.503C77.5404 173.503 77.1715 173.633 76.9085 173.893C76.6454 174.149 76.5139 174.539 76.5139 175.062C76.5139 175.604 76.6326 176.029 76.87 176.337C77.1074 176.645 77.3608 176.861 77.6302 176.986L77.2453 178.064C76.7962 177.872 76.4466 177.615 76.1964 177.294C75.9429 176.97 75.7665 176.618 75.6671 176.236C75.5644 175.851 75.5131 175.472 75.5131 175.1C75.5131 174.863 75.542 174.59 75.5997 174.282C75.6542 173.971 75.7681 173.671 75.9413 173.382C76.1146 173.091 76.376 172.848 76.7256 172.656C77.0753 172.463 77.5436 172.367 78.1306 172.367L83 172.367L83 173.503L81.9992 173.503L81.9992 173.561C82.1596 173.637 82.3312 173.766 82.514 173.945C82.6969 174.125 82.8524 174.364 82.9808 174.662C83.1091 174.961 83.1732 175.325 83.1732 175.755ZM82.1532 175.581C82.1532 175.132 82.0649 174.754 81.8885 174.446C81.7121 174.135 81.4843 173.901 81.2053 173.743C80.9262 173.583 80.6327 173.503 80.3247 173.503L79.2854 173.503C79.3432 173.551 79.3961 173.657 79.4442 173.82C79.4891 173.981 79.5292 174.167 79.5645 174.378C79.5966 174.587 79.6254 174.791 79.6511 174.99C79.6736 175.185 79.6928 175.344 79.7088 175.466C79.7473 175.761 79.8099 176.037 79.8965 176.294C79.9799 176.547 80.1066 176.752 80.2766 176.909C80.4434 177.063 80.6712 177.14 80.9599 177.14C81.3544 177.14 81.6527 176.994 81.8548 176.703C82.0537 176.407 82.1532 176.034 82.1532 175.581ZM85.9255 167.311C85.9255 167.86 85.8549 168.331 85.7138 168.726C85.5758 169.121 85.393 169.449 85.1652 169.712C84.9407 169.972 84.7001 170.179 84.4435 170.333L83.8084 169.429C83.9431 169.326 84.097 169.196 84.2703 169.039C84.4467 168.882 84.5991 168.667 84.7274 168.394C84.8589 168.118 84.9246 167.757 84.9246 167.311C84.9246 166.715 84.7803 166.222 84.4916 165.834C84.2029 165.446 83.7506 165.252 83.1347 165.252L81.6335 165.252L81.6335 165.348C81.7682 165.432 81.935 165.55 82.1339 165.704C82.3296 165.855 82.5044 166.073 82.6584 166.359C82.8091 166.641 82.8845 167.023 82.8845 167.504C82.8845 168.101 82.7434 168.636 82.4611 169.111C82.1788 169.582 81.7682 169.956 81.2293 170.232C80.6904 170.505 80.036 170.641 79.2662 170.641C78.5091 170.641 77.8499 170.508 77.2886 170.242C76.724 169.975 76.2878 169.605 75.9798 169.13C75.6687 168.655 75.5131 168.107 75.5131 167.485C75.5131 167.003 75.5933 166.622 75.7537 166.339C75.9109 166.054 76.0905 165.836 76.2926 165.685C76.4915 165.531 76.6551 165.412 76.7834 165.329L76.7834 165.214L75.6093 165.214L75.6093 164.116L83.2117 164.116C83.8468 164.116 84.3633 164.261 84.7611 164.55C85.162 164.835 85.4555 165.22 85.6416 165.704C85.8308 166.185 85.9255 166.721 85.9255 167.311ZM81.8645 167.35C81.8645 166.894 81.7602 166.509 81.5517 166.195C81.3432 165.881 81.0433 165.642 80.6519 165.478C80.2606 165.315 79.7922 165.233 79.2469 165.233C78.7144 165.233 78.2445 165.313 77.8371 165.473C77.4297 165.634 77.1106 165.871 76.8796 166.185C76.6486 166.5 76.5332 166.888 76.5332 167.35C76.5332 167.831 76.6551 168.232 76.8989 168.553C77.1426 168.87 77.4698 169.109 77.8804 169.27C78.291 169.427 78.7465 169.506 79.2469 169.506C79.7602 169.506 80.2141 169.425 80.6086 169.265C81 169.101 81.3079 168.861 81.5325 168.543C81.7538 168.222 81.8645 167.825 81.8645 167.35ZM83.154 158.939C83.154 159.651 82.9968 160.266 82.6824 160.782C82.3649 161.295 81.9222 161.691 81.3544 161.97C80.7834 162.246 80.1194 162.384 79.3624 162.384C78.6054 162.384 77.9382 162.246 77.3608 161.97C76.7802 161.691 76.3279 161.303 76.0039 160.806C75.6767 160.306 75.5131 159.722 75.5131 159.055C75.5131 158.67 75.5773 158.29 75.7056 157.914C75.8339 157.539 76.0424 157.197 76.3311 156.889C76.6166 156.581 76.9951 156.336 77.4666 156.153C77.9382 155.97 78.5188 155.879 79.2084 155.879L79.6896 155.879L79.6896 161.576L78.708 161.576L78.708 157.034C78.291 157.034 77.9189 157.117 77.5917 157.284C77.2645 157.448 77.0063 157.682 76.8171 157.986C76.6278 158.288 76.5332 158.644 76.5332 159.055C76.5332 159.507 76.6454 159.898 76.87 160.229C77.0913 160.556 77.38 160.808 77.7361 160.984C78.0921 161.161 78.4739 161.249 78.8812 161.249L79.5356 161.249C80.0938 161.249 80.5669 161.153 80.9551 160.96C81.34 160.764 81.6335 160.493 81.8356 160.147C82.0345 159.8 82.1339 159.398 82.1339 158.939C82.1339 158.641 82.0922 158.371 82.0088 158.131C81.9222 157.887 81.7939 157.677 81.6239 157.5C81.4507 157.324 81.2357 157.188 80.9791 157.092L81.2871 155.994C81.6592 156.11 81.9863 156.304 82.2686 156.577C82.5477 156.849 82.7658 157.186 82.923 157.587C83.077 157.988 83.154 158.439 83.154 158.939Z" fill="black"/>
<path d="M98.1995 87.5344C97.7505 87.5344 97.3505 87.4572 96.9996 87.3028C96.6508 87.1465 96.3751 86.9319 96.1726 86.6593C95.9722 86.3846 95.8689 86.0679 95.8629 85.709H97.1741C97.1821 85.8594 97.2312 85.9917 97.3214 86.1059C97.4136 86.2182 97.5359 86.3054 97.6883 86.3676C97.8407 86.4297 98.0121 86.4608 98.2025 86.4608C98.401 86.4608 98.5764 86.4257 98.7288 86.3555C98.8812 86.2854 99.0005 86.1881 99.0867 86.0638C99.1729 85.9395 99.216 85.7962 99.216 85.6338C99.216 85.4694 99.1699 85.3241 99.0777 85.1978C98.9874 85.0694 98.8571 84.9692 98.6867 84.897C98.5183 84.8248 98.3178 84.7888 98.0853 84.7888H97.5109V83.8325H98.0853C98.2817 83.8325 98.4552 83.7984 98.6055 83.7302C98.7579 83.662 98.8762 83.5678 98.9604 83.4475C99.0446 83.3252 99.0867 83.1829 99.0867 83.0205C99.0867 82.8661 99.0496 82.7308 98.9754 82.6145C98.9032 82.4962 98.801 82.404 98.6687 82.3378C98.5384 82.2717 98.386 82.2386 98.2116 82.2386C98.0351 82.2386 97.8737 82.2707 97.7274 82.3348C97.581 82.397 97.4638 82.4862 97.3755 82.6025C97.2873 82.7188 97.2402 82.8551 97.2342 83.0115H95.9862C95.9922 82.6566 96.0934 82.3439 96.2899 82.0732C96.4864 81.8025 96.751 81.591 97.0838 81.4387C97.4186 81.2843 97.7966 81.2071 98.2176 81.2071C98.6426 81.2071 99.0145 81.2843 99.3333 81.4387C99.652 81.593 99.8996 81.8015 100.076 82.0642C100.255 82.3248 100.343 82.6175 100.341 82.9423C100.343 83.2871 100.235 83.5748 100.019 83.8054C99.8044 84.0359 99.5247 84.1823 99.1799 84.2444V84.2926C99.633 84.3507 99.9778 84.5081 100.214 84.7647C100.453 85.0193 100.571 85.3381 100.569 85.721C100.571 86.0719 100.47 86.3836 100.266 86.6563C100.063 86.9289 99.7834 87.1435 99.4265 87.2998C99.0696 87.4562 98.6607 87.5344 98.1995 87.5344ZM103.92 87.5855C103.403 87.5835 102.958 87.4562 102.585 87.2036C102.214 86.951 101.928 86.5851 101.728 86.1059C101.529 85.6268 101.431 85.0504 101.433 84.3768C101.433 83.7051 101.532 83.1328 101.731 82.6596C101.931 82.1865 102.217 81.8266 102.588 81.58C102.961 81.3314 103.405 81.2071 103.92 81.2071C104.435 81.2071 104.878 81.3314 105.249 81.58C105.622 81.8286 105.909 82.1895 106.109 82.6626C106.31 83.1338 106.409 83.7051 106.407 84.3768C106.407 85.0524 106.307 85.6298 106.106 86.109C105.908 86.5881 105.623 86.954 105.252 87.2066C104.881 87.4592 104.437 87.5855 103.92 87.5855ZM103.92 86.5059C104.273 86.5059 104.555 86.3285 104.765 85.9736C104.976 85.6188 105.08 85.0865 105.078 84.3768C105.078 83.9096 105.03 83.5207 104.934 83.2099C104.839 82.8992 104.705 82.6656 104.531 82.5093C104.358 82.3529 104.155 82.2747 103.92 82.2747C103.569 82.2747 103.289 82.4501 103.078 82.801C102.868 83.1518 102.761 83.6771 102.759 84.3768C102.759 84.8499 102.806 85.2449 102.901 85.5616C102.997 85.8764 103.132 86.113 103.307 86.2713C103.481 86.4277 103.686 86.5059 103.92 86.5059Z" fill="#767676"/>
<path d="M96.923 122.855V121.917L99.1153 119.887C99.3018 119.707 99.4582 119.544 99.5845 119.4C99.7128 119.256 99.81 119.114 99.8762 118.976C99.9423 118.836 99.9754 118.684 99.9754 118.522C99.9754 118.342 99.9343 118.186 99.8521 118.056C99.7699 117.924 99.6576 117.822 99.5153 117.752C99.373 117.68 99.2116 117.644 99.0311 117.644C98.8427 117.644 98.6783 117.682 98.5379 117.758C98.3976 117.834 98.2893 117.944 98.2132 118.086C98.137 118.228 98.0989 118.398 98.0989 118.594H96.8629C96.8629 118.191 96.9541 117.841 97.1366 117.545C97.319 117.248 97.5746 117.018 97.9034 116.856C98.2322 116.694 98.6111 116.612 99.0402 116.612C99.4812 116.612 99.8651 116.691 100.192 116.847C100.521 117.001 100.776 117.216 100.959 117.491C101.141 117.765 101.232 118.08 101.232 118.435C101.232 118.667 101.186 118.897 101.094 119.123C101.004 119.35 100.843 119.602 100.61 119.878C100.377 120.153 100.05 120.483 99.6266 120.868L98.7274 121.749V121.791H101.314V122.855H96.923ZM104.507 122.94C104.082 122.94 103.703 122.861 103.37 122.705C103.039 122.549 102.776 122.333 102.582 122.059C102.387 121.784 102.286 121.469 102.278 121.114H103.541C103.555 121.353 103.656 121.546 103.842 121.695C104.028 121.843 104.25 121.917 104.507 121.917C104.711 121.917 104.892 121.872 105.048 121.782C105.206 121.69 105.33 121.562 105.418 121.4C105.508 121.236 105.553 121.047 105.553 120.835C105.553 120.618 105.507 120.428 105.415 120.263C105.325 120.099 105.199 119.97 105.039 119.878C104.879 119.786 104.695 119.739 104.489 119.737C104.308 119.737 104.133 119.774 103.962 119.848C103.794 119.922 103.663 120.024 103.568 120.152L102.411 119.944L102.702 116.697H106.467V117.761H103.776L103.616 119.304H103.653C103.761 119.152 103.924 119.025 104.143 118.925C104.361 118.825 104.606 118.775 104.877 118.775C105.247 118.775 105.578 118.862 105.869 119.036C106.16 119.211 106.389 119.45 106.558 119.755C106.726 120.058 106.809 120.407 106.807 120.802C106.809 121.217 106.713 121.585 106.518 121.908C106.326 122.229 106.056 122.482 105.71 122.666C105.365 122.848 104.964 122.94 104.507 122.94Z" fill="#767676"/>
<path d="M95.923 158.261V157.322L98.1153 155.293C98.3018 155.112 98.4582 154.95 98.5845 154.805C98.7128 154.661 98.81 154.52 98.8762 154.381C98.9423 154.241 98.9754 154.09 98.9754 153.927C98.9754 153.747 98.9343 153.591 98.8521 153.461C98.7699 153.329 98.6576 153.228 98.5153 153.157C98.373 153.085 98.2116 153.049 98.0311 153.049C97.8427 153.049 97.6783 153.087 97.5379 153.163C97.3976 153.24 97.2893 153.349 97.2132 153.491C97.137 153.634 97.0989 153.803 97.0989 153.999H95.8629C95.8629 153.596 95.9541 153.247 96.1366 152.95C96.319 152.653 96.5746 152.424 96.9034 152.261C97.2322 152.099 97.6111 152.018 98.0402 152.018C98.4812 152.018 98.8651 152.096 99.1919 152.252C99.5207 152.407 99.7763 152.621 99.9588 152.896C100.141 153.17 100.232 153.485 100.232 153.84C100.232 154.073 100.186 154.302 100.094 154.529C100.004 154.755 99.8425 155.007 99.6099 155.284C99.3774 155.558 99.0496 155.888 98.6266 156.273L97.7274 157.154V157.196H100.314V158.261H95.923ZM103.672 158.396C103.155 158.394 102.71 158.267 102.337 158.014C101.966 157.762 101.68 157.396 101.48 156.916C101.281 156.437 101.183 155.861 101.185 155.187C101.185 154.516 101.284 153.943 101.483 153.47C101.683 152.997 101.969 152.637 102.34 152.391C102.713 152.142 103.157 152.018 103.672 152.018C104.187 152.018 104.63 152.142 105.001 152.391C105.374 152.639 105.661 153 105.861 153.473C106.062 153.944 106.161 154.516 106.159 155.187C106.159 155.863 106.059 156.44 105.858 156.92C105.66 157.399 105.375 157.765 105.004 158.017C104.633 158.27 104.189 158.396 103.672 158.396ZM103.672 157.316C104.025 157.316 104.307 157.139 104.517 156.784C104.728 156.429 104.832 155.897 104.83 155.187C104.83 154.72 104.782 154.331 104.685 154.02C104.591 153.71 104.457 153.476 104.282 153.32C104.11 153.163 103.907 153.085 103.672 153.085C103.321 153.085 103.04 153.261 102.83 153.612C102.619 153.962 102.513 154.488 102.511 155.187C102.511 155.66 102.558 156.055 102.653 156.372C102.749 156.687 102.884 156.924 103.059 157.082C103.233 157.238 103.437 157.316 103.672 157.316Z" fill="#767676"/>
<path d="M100.603 187.507V193.666H99.3004V188.743H99.2643L97.8539 189.627V188.472L99.3786 187.507H100.603ZM104.316 193.75C103.891 193.75 103.512 193.672 103.179 193.516C102.848 193.359 102.586 193.144 102.391 192.869C102.197 192.594 102.095 192.28 102.087 191.925H103.35C103.364 192.163 103.465 192.357 103.651 192.505C103.838 192.654 104.059 192.728 104.316 192.728C104.52 192.728 104.701 192.683 104.857 192.592C105.015 192.5 105.139 192.373 105.227 192.21C105.317 192.046 105.362 191.858 105.362 191.645C105.362 191.429 105.316 191.238 105.224 191.074C105.134 190.909 105.008 190.781 104.848 190.689C104.688 190.597 104.504 190.549 104.298 190.547C104.117 190.547 103.942 190.585 103.771 190.659C103.603 190.733 103.472 190.834 103.377 190.962L102.22 190.755L102.511 187.507H106.276V188.572H103.585L103.426 190.114H103.462C103.57 189.962 103.733 189.836 103.952 189.736C104.17 189.635 104.415 189.585 104.686 189.585C105.057 189.585 105.387 189.672 105.678 189.847C105.969 190.021 106.198 190.261 106.367 190.566C106.535 190.868 106.618 191.217 106.616 191.612C106.618 192.027 106.522 192.396 106.328 192.719C106.135 193.04 105.865 193.292 105.519 193.477C105.174 193.659 104.773 193.75 104.316 193.75Z" fill="#767676"/>
<path d="M100.603 222.913V229.072H99.3004V224.149H99.2643L97.8539 225.034V223.879L99.3786 222.913H100.603ZM104.481 229.208C103.964 229.206 103.519 229.078 103.146 228.826C102.775 228.573 102.489 228.207 102.289 227.728C102.09 227.249 101.992 226.672 101.994 225.999C101.994 225.327 102.093 224.755 102.292 224.282C102.492 223.809 102.778 223.449 103.149 223.202C103.522 222.953 103.966 222.829 104.481 222.829C104.996 222.829 105.439 222.953 105.81 223.202C106.183 223.451 106.47 223.812 106.67 224.285C106.871 224.756 106.97 225.327 106.968 225.999C106.968 226.674 106.868 227.252 106.667 227.731C106.469 228.21 106.184 228.576 105.813 228.829C105.442 229.081 104.998 229.208 104.481 229.208ZM104.481 228.128C104.834 228.128 105.116 227.951 105.326 227.596C105.537 227.241 105.641 226.709 105.639 225.999C105.639 225.532 105.591 225.143 105.495 224.832C105.4 224.521 105.266 224.288 105.092 224.131C104.919 223.975 104.716 223.897 104.481 223.897C104.13 223.897 103.85 224.072 103.639 224.423C103.429 224.774 103.322 225.299 103.32 225.999C103.32 226.472 103.367 226.867 103.462 227.184C103.558 227.498 103.693 227.735 103.868 227.893C104.042 228.05 104.247 228.128 104.481 228.128Z" fill="#767676"/>
<path d="M104.172 264.562C103.747 264.562 103.369 264.484 103.036 264.327C102.705 264.171 102.442 263.955 102.248 263.681C102.053 263.406 101.952 263.091 101.944 262.736H103.207C103.221 262.975 103.321 263.168 103.508 263.317C103.694 263.465 103.916 263.539 104.172 263.539C104.377 263.539 104.557 263.494 104.714 263.404C104.872 263.312 104.995 263.184 105.084 263.022C105.174 262.858 105.219 262.669 105.219 262.457C105.219 262.24 105.173 262.05 105.081 261.885C104.99 261.721 104.865 261.593 104.705 261.5C104.544 261.408 104.361 261.361 104.154 261.359C103.974 261.359 103.799 261.396 103.628 261.47C103.46 261.544 103.328 261.646 103.234 261.774L102.076 261.567L102.368 258.319H106.133V259.383H103.442L103.282 260.926H103.318C103.427 260.774 103.59 260.647 103.809 260.547C104.027 260.447 104.272 260.397 104.542 260.397C104.913 260.397 105.244 260.484 105.535 260.658C105.825 260.833 106.055 261.072 106.223 261.377C106.392 261.68 106.475 262.029 106.473 262.424C106.475 262.839 106.379 263.207 106.184 263.53C105.992 263.851 105.722 264.104 105.375 264.288C105.031 264.471 104.63 264.562 104.172 264.562Z" fill="#767676"/>
<path d="M104.338 300.018C103.821 300.016 103.376 299.889 103.003 299.636C102.632 299.384 102.346 299.018 102.146 298.539C101.947 298.059 101.849 297.483 101.851 296.809C101.851 296.138 101.95 295.565 102.149 295.092C102.349 294.619 102.635 294.259 103.006 294.013C103.379 293.764 103.823 293.64 104.338 293.64C104.853 293.64 105.296 293.764 105.667 294.013C106.04 294.261 106.327 294.622 106.527 295.095C106.728 295.566 106.827 296.138 106.825 296.809C106.825 297.485 106.725 298.062 106.524 298.542C106.326 299.021 106.041 299.387 105.67 299.639C105.299 299.892 104.855 300.018 104.338 300.018ZM104.338 298.939C104.691 298.939 104.972 298.761 105.183 298.406C105.393 298.051 105.498 297.519 105.496 296.809C105.496 296.342 105.448 295.953 105.351 295.643C105.257 295.332 105.123 295.098 104.948 294.942C104.776 294.785 104.572 294.707 104.338 294.707C103.987 294.707 103.706 294.883 103.496 295.234C103.285 295.584 103.179 296.11 103.177 296.809C103.177 297.283 103.224 297.677 103.318 297.994C103.415 298.309 103.55 298.546 103.724 298.704C103.899 298.86 104.103 298.939 104.338 298.939Z" fill="#767676"/>
<line opacity="0.5" x1="119.541" y1="83.7566" x2="399.402" y2="83.7566" stroke="#B1B1B1" stroke-width="0.725028" stroke-dasharray="1.45 1.45"/>
<line opacity="0.5" x1="119.541" y1="119.324" x2="399.402" y2="119.324" stroke="#B1B1B1" stroke-width="0.725028" stroke-dasharray="1.45 1.45"/>
<line opacity="0.5" x1="119.541" y1="154.892" x2="399.402" y2="154.892" stroke="#B1B1B1" stroke-width="0.725028" stroke-dasharray="1.45 1.45"/>
<line opacity="0.5" x1="119.541" y1="190.46" x2="399.402" y2="190.46" stroke="#B1B1B1" stroke-width="0.725028" stroke-dasharray="1.45 1.45"/>
<line opacity="0.5" x1="119.541" y1="226.027" x2="399.402" y2="226.027" stroke="#B1B1B1" stroke-width="0.725028" stroke-dasharray="1.45 1.45"/>
<line opacity="0.5" x1="119.541" y1="261.595" x2="399.402" y2="261.595" stroke="#B1B1B1" stroke-width="0.725028" stroke-dasharray="1.45 1.45"/>
<line opacity="0.5" x1="119.541" y1="297.249" x2="395.613" y2="297.249" stroke="#B1B1B1" stroke-width="0.550307"/>
<rect x="132.064" y="206.288" width="20.3008" height="90.9838" rx="4.00119" fill="#344BFD"/>
<rect x="297.9" y="170.916" width="20.3008" height="126.356" rx="4.00119" fill="#344BFD"/>
<rect x="187.342" y="134.076" width="20.3008" height="163.195" rx="4.00119" fill="#344BFD"/>
<rect x="353.18" y="151.381" width="20.3008" height="145.891" rx="4.00119" fill="#344BFD"/>
<rect x="242.623" y="193.777" width="20.3008" height="103.494" rx="4.00119" fill="#344BFD"/>
<path d="M135.546 311.048V309.989L139.78 308.124V309.342L136.881 310.506L136.92 310.443V310.593L136.881 310.53L139.78 311.694V312.912L135.546 311.048ZM143.72 307.4V313.559H142.418V308.636H142.382L140.971 309.52V308.365L142.496 307.4H143.72ZM147.481 313.643C147.018 313.643 146.606 313.568 146.245 313.417C145.886 313.265 145.605 313.057 145.4 312.795C145.196 312.532 145.093 312.234 145.093 311.902C145.093 311.645 145.151 311.409 145.268 311.195C145.386 310.978 145.546 310.799 145.749 310.657C145.951 310.512 146.178 310.42 146.429 310.38V310.338C146.1 310.272 145.833 310.112 145.629 309.86C145.424 309.605 145.322 309.309 145.322 308.973C145.322 308.654 145.415 308.37 145.602 308.121C145.788 307.871 146.044 307.674 146.368 307.532C146.695 307.388 147.066 307.316 147.481 307.316C147.896 307.316 148.266 307.388 148.591 307.532C148.918 307.676 149.174 307.874 149.361 308.124C149.547 308.373 149.641 308.656 149.643 308.973C149.641 309.311 149.537 309.607 149.331 309.86C149.124 310.112 148.859 310.272 148.537 310.338V310.38C148.783 310.42 149.007 310.512 149.207 310.657C149.41 310.799 149.57 310.978 149.688 311.195C149.809 311.409 149.87 311.645 149.872 311.902C149.87 312.234 149.767 312.532 149.562 312.795C149.358 313.057 149.075 313.265 148.714 313.417C148.355 313.568 147.944 313.643 147.481 313.643ZM147.481 312.686C147.688 312.686 147.868 312.649 148.022 312.575C148.177 312.499 148.297 312.395 148.383 312.262C148.471 312.128 148.516 311.974 148.516 311.799C148.516 311.621 148.47 311.464 148.38 311.327C148.29 311.189 148.168 311.081 148.013 311.002C147.859 310.922 147.682 310.882 147.481 310.882C147.283 310.882 147.105 310.922 146.949 311.002C146.792 311.081 146.669 311.189 146.579 311.327C146.491 311.464 146.447 311.621 146.447 311.799C146.447 311.974 146.49 312.128 146.576 312.262C146.662 312.395 146.783 312.499 146.94 312.575C147.096 312.649 147.277 312.686 147.481 312.686ZM147.481 309.935C147.654 309.935 147.807 309.9 147.941 309.83C148.076 309.759 148.181 309.662 148.257 309.538C148.333 309.414 148.371 309.27 148.371 309.108C148.371 308.947 148.333 308.807 148.257 308.687C148.181 308.565 148.077 308.469 147.944 308.401C147.812 308.331 147.658 308.296 147.481 308.296C147.307 308.296 147.152 308.331 147.018 308.401C146.884 308.469 146.778 308.565 146.702 308.687C146.628 308.807 146.591 308.947 146.591 309.108C146.591 309.27 146.629 309.414 146.705 309.538C146.781 309.662 146.887 309.759 147.021 309.83C147.155 309.9 147.309 309.935 147.481 309.935Z" fill="#767676"/>
<path d="M186.144 307.4V313.559H184.841V308.636H184.805L183.395 309.52V308.365L184.92 307.4H186.144ZM189.905 313.643C189.442 313.643 189.03 313.568 188.669 313.417C188.31 313.265 188.028 313.057 187.824 312.795C187.619 312.532 187.517 312.234 187.517 311.902C187.517 311.645 187.575 311.409 187.692 311.195C187.81 310.978 187.97 310.799 188.173 310.657C188.375 310.512 188.602 310.42 188.852 310.38V310.338C188.524 310.272 188.257 310.112 188.052 309.86C187.848 309.605 187.746 309.309 187.746 308.973C187.746 308.654 187.839 308.37 188.025 308.121C188.212 307.871 188.467 307.674 188.792 307.532C189.119 307.388 189.49 307.316 189.905 307.316C190.32 307.316 190.69 307.388 191.015 307.532C191.341 307.676 191.598 307.874 191.784 308.124C191.971 308.373 192.065 308.656 192.067 308.973C192.065 309.311 191.961 309.607 191.754 309.86C191.548 310.112 191.283 310.272 190.96 310.338V310.38C191.207 310.42 191.431 310.512 191.631 310.657C191.834 310.799 191.994 310.978 192.112 311.195C192.232 311.409 192.294 311.645 192.296 311.902C192.294 312.234 192.19 312.532 191.986 312.795C191.781 313.057 191.499 313.265 191.138 313.417C190.779 313.568 190.368 313.643 189.905 313.643ZM189.905 312.686C190.111 312.686 190.292 312.649 190.446 312.575C190.601 312.499 190.721 312.395 190.807 312.262C190.895 312.128 190.939 311.974 190.939 311.799C190.939 311.621 190.894 311.464 190.804 311.327C190.714 311.189 190.592 311.081 190.437 311.002C190.283 310.922 190.105 310.882 189.905 310.882C189.706 310.882 189.529 310.922 189.373 311.002C189.216 311.081 189.093 311.189 189.003 311.327C188.914 311.464 188.87 311.621 188.87 311.799C188.87 311.974 188.913 312.128 189 312.262C189.086 312.395 189.207 312.499 189.364 312.575C189.52 312.649 189.7 312.686 189.905 312.686ZM189.905 309.935C190.077 309.935 190.231 309.9 190.365 309.83C190.499 309.759 190.605 309.662 190.681 309.538C190.757 309.414 190.795 309.27 190.795 309.108C190.795 308.947 190.757 308.807 190.681 308.687C190.605 308.565 190.5 308.469 190.368 308.401C190.236 308.331 190.081 308.296 189.905 308.296C189.73 308.296 189.576 308.331 189.442 308.401C189.307 308.469 189.202 308.565 189.126 308.687C189.052 308.807 189.015 308.947 189.015 309.108C189.015 309.27 189.053 309.414 189.129 309.538C189.205 309.662 189.31 309.759 189.445 309.83C189.579 309.9 189.732 309.935 189.905 309.935ZM196.096 309.971V310.987H193.287V309.971H196.096ZM197.002 313.559V312.62L199.194 310.59C199.381 310.41 199.537 310.248 199.663 310.103C199.792 309.959 199.889 309.818 199.955 309.679C200.021 309.539 200.054 309.388 200.054 309.225C200.054 309.045 200.013 308.889 199.931 308.759C199.849 308.627 199.737 308.525 199.594 308.455C199.452 308.383 199.291 308.347 199.11 308.347C198.922 308.347 198.757 308.385 198.617 308.461C198.477 308.537 198.368 308.647 198.292 308.789C198.216 308.931 198.178 309.101 198.178 309.297H196.942C196.942 308.894 197.033 308.544 197.216 308.248C197.398 307.951 197.654 307.721 197.982 307.559C198.311 307.397 198.69 307.316 199.119 307.316C199.56 307.316 199.944 307.394 200.271 307.55C200.6 307.704 200.855 307.919 201.038 308.194C201.22 308.468 201.311 308.783 201.311 309.138C201.311 309.37 201.265 309.6 201.173 309.827C201.083 310.053 200.921 310.305 200.689 310.581C200.456 310.856 200.129 311.186 199.706 311.571L198.806 312.452V312.494H201.393V313.559H197.002ZM202.111 312.476V311.45L204.682 307.4H205.566V308.819H205.043L203.422 311.384V311.432H207.076V312.476H202.111ZM205.067 313.559V312.163L205.091 311.709V307.4H206.312V313.559H205.067Z" fill="#767676"/>
<path d="M240.646 313.559V312.62L242.838 310.59C243.024 310.41 243.181 310.248 243.307 310.103C243.435 309.959 243.533 309.818 243.599 309.679C243.665 309.539 243.698 309.388 243.698 309.225C243.698 309.045 243.657 308.889 243.575 308.759C243.493 308.627 243.38 308.525 243.238 308.455C243.096 308.383 242.934 308.347 242.754 308.347C242.565 308.347 242.401 308.385 242.261 308.461C242.12 308.537 242.012 308.647 241.936 308.789C241.86 308.931 241.822 309.101 241.822 309.297H240.586C240.586 308.894 240.677 308.544 240.859 308.248C241.042 307.951 241.297 307.721 241.626 307.559C241.955 307.397 242.334 307.316 242.763 307.316C243.204 307.316 243.588 307.394 243.915 307.55C244.243 307.704 244.499 307.919 244.681 308.194C244.864 308.468 244.955 308.783 244.955 309.138C244.955 309.37 244.909 309.6 244.817 309.827C244.727 310.053 244.565 310.305 244.333 310.581C244.1 310.856 243.772 311.186 243.349 311.571L242.45 312.452V312.494H245.036V313.559H240.646ZM248.229 313.643C247.804 313.643 247.425 313.565 247.093 313.408C246.762 313.252 246.499 313.036 246.305 312.762C246.11 312.487 246.009 312.172 246.001 311.817H247.264C247.278 312.056 247.378 312.249 247.565 312.398C247.751 312.546 247.973 312.62 248.229 312.62C248.434 312.62 248.614 312.575 248.771 312.485C248.929 312.393 249.052 312.265 249.14 312.103C249.231 311.939 249.276 311.75 249.276 311.538C249.276 311.321 249.23 311.131 249.137 310.966C249.047 310.802 248.922 310.674 248.762 310.581C248.601 310.489 248.418 310.442 248.211 310.44C248.031 310.44 247.855 310.477 247.685 310.551C247.517 310.626 247.385 310.727 247.291 310.855L246.133 310.648L246.425 307.4H250.19V308.464H247.499L247.339 310.007H247.375C247.483 309.855 247.647 309.728 247.865 309.628C248.084 309.528 248.329 309.478 248.599 309.478C248.97 309.478 249.301 309.565 249.592 309.739C249.882 309.914 250.112 310.153 250.28 310.458C250.449 310.761 250.532 311.11 250.53 311.505C250.532 311.92 250.436 312.289 250.241 312.611C250.049 312.932 249.779 313.185 249.432 313.369C249.087 313.552 248.686 313.643 248.229 313.643ZM254.328 309.971V310.987H251.519V309.971H254.328ZM257.643 313.643C257.194 313.643 256.794 313.566 256.443 313.411C256.094 313.255 255.818 313.04 255.616 312.768C255.415 312.493 255.312 312.176 255.306 311.817H256.617C256.625 311.968 256.674 312.1 256.765 312.214C256.857 312.327 256.979 312.414 257.132 312.476C257.284 312.538 257.455 312.569 257.646 312.569C257.844 312.569 258.02 312.534 258.172 312.464C258.324 312.394 258.444 312.297 258.53 312.172C258.616 312.048 258.659 311.905 258.659 311.742C258.659 311.578 258.613 311.432 258.521 311.306C258.431 311.178 258.3 311.078 258.13 311.005C257.962 310.933 257.761 310.897 257.528 310.897H256.954V309.941H257.528C257.725 309.941 257.898 309.907 258.049 309.839C258.201 309.77 258.319 309.676 258.404 309.556C258.488 309.434 258.53 309.291 258.53 309.129C258.53 308.975 258.493 308.839 258.419 308.723C258.346 308.605 258.244 308.512 258.112 308.446C257.982 308.38 257.829 308.347 257.655 308.347C257.478 308.347 257.317 308.379 257.171 308.443C257.024 308.505 256.907 308.595 256.819 308.711C256.731 308.827 256.683 308.963 256.677 309.12H255.429C255.435 308.765 255.537 308.452 255.733 308.182C255.93 307.911 256.194 307.699 256.527 307.547C256.862 307.393 257.24 307.316 257.661 307.316C258.086 307.316 258.458 307.393 258.777 307.547C259.095 307.701 259.343 307.91 259.519 308.173C259.698 308.433 259.786 308.726 259.784 309.051C259.786 309.396 259.679 309.683 259.462 309.914C259.248 310.144 258.968 310.291 258.623 310.353V310.401C259.076 310.459 259.421 310.616 259.658 310.873C259.896 311.128 260.015 311.446 260.013 311.829C260.015 312.18 259.913 312.492 259.709 312.765C259.506 313.037 259.227 313.252 258.87 313.408C258.513 313.565 258.104 313.643 257.643 313.643ZM260.855 312.476V311.45L263.427 307.4H264.311V308.819H263.787L262.166 311.384V311.432H265.82V312.476H260.855ZM263.811 313.559V312.163L263.835 311.709V307.4H265.056V313.559H263.811Z" fill="#767676"/>
<path d="M302.102 313.643C301.653 313.643 301.253 313.566 300.902 313.411C300.553 313.255 300.277 313.04 300.075 312.768C299.874 312.493 299.771 312.176 299.765 311.817H301.076C301.084 311.968 301.134 312.1 301.224 312.214C301.316 312.327 301.438 312.414 301.591 312.476C301.743 312.538 301.914 312.569 302.105 312.569C302.303 312.569 302.479 312.534 302.631 312.464C302.784 312.394 302.903 312.297 302.989 312.172C303.075 312.048 303.118 311.905 303.118 311.742C303.118 311.578 303.072 311.432 302.98 311.306C302.89 311.178 302.759 311.078 302.589 311.005C302.421 310.933 302.22 310.897 301.988 310.897H301.413V309.941H301.988C302.184 309.941 302.357 309.907 302.508 309.839C302.66 309.77 302.779 309.676 302.863 309.556C302.947 309.434 302.989 309.291 302.989 309.129C302.989 308.975 302.952 308.839 302.878 308.723C302.806 308.605 302.703 308.512 302.571 308.446C302.441 308.38 302.288 308.347 302.114 308.347C301.937 308.347 301.776 308.379 301.63 308.443C301.483 308.505 301.366 308.595 301.278 308.711C301.19 308.827 301.143 308.963 301.137 309.12H299.889C299.895 308.765 299.996 308.452 300.192 308.182C300.389 307.911 300.653 307.699 300.986 307.547C301.321 307.393 301.699 307.316 302.12 307.316C302.545 307.316 302.917 307.393 303.236 307.547C303.554 307.701 303.802 307.91 303.978 308.173C304.157 308.433 304.245 308.726 304.243 309.051C304.245 309.396 304.138 309.683 303.921 309.914C303.707 310.144 303.427 310.291 303.082 310.353V310.401C303.535 310.459 303.88 310.616 304.117 310.873C304.355 311.128 304.474 311.446 304.472 311.829C304.474 312.18 304.372 312.492 304.168 312.765C303.965 313.037 303.686 313.252 303.329 313.408C302.972 313.565 302.563 313.643 302.102 313.643ZM307.657 313.643C307.232 313.643 306.853 313.565 306.52 313.408C306.19 313.252 305.927 313.036 305.732 312.762C305.538 312.487 305.437 312.172 305.429 311.817H306.692C306.706 312.056 306.806 312.249 306.992 312.398C307.179 312.546 307.4 312.62 307.657 312.62C307.862 312.62 308.042 312.575 308.198 312.485C308.357 312.393 308.48 312.265 308.568 312.103C308.658 311.939 308.704 311.75 308.704 311.538C308.704 311.321 308.657 311.131 308.565 310.966C308.475 310.802 308.35 310.674 308.189 310.581C308.029 310.489 307.846 310.442 307.639 310.44C307.459 310.44 307.283 310.477 307.113 310.551C306.944 310.626 306.813 310.727 306.719 310.855L305.561 310.648L305.853 307.4H309.618V308.464H306.926L306.767 310.007H306.803C306.911 309.855 307.075 309.728 307.293 309.628C307.512 309.528 307.756 309.478 308.027 309.478C308.398 309.478 308.729 309.565 309.019 309.739C309.31 309.914 309.54 310.153 309.708 310.458C309.876 310.761 309.96 311.11 309.958 311.505C309.96 311.92 309.863 312.289 309.669 312.611C309.476 312.932 309.207 313.185 308.86 313.369C308.515 313.552 308.114 313.643 307.657 313.643ZM313.756 309.971V310.987H310.947V309.971H313.756ZM314.742 312.476V311.45L317.313 307.4H318.198V308.819H317.674L316.053 311.384V311.432H319.707V312.476H314.742ZM317.698 313.559V312.163L317.722 311.709V307.4H318.943V313.559H317.698ZM320.482 312.476V311.45L323.053 307.4H323.937V308.819H323.414L321.793 311.384V311.432H325.447V312.476H320.482ZM323.438 313.559V312.163L323.462 311.709V307.4H324.683V313.559H323.438Z" fill="#767676"/>
<path d="M358.912 312.476V311.45L361.483 307.4H362.367V308.819H361.844L360.223 311.384V311.432H363.877V312.476H358.912ZM361.868 313.559V312.163L361.892 311.709V307.4H363.113V313.559H361.868ZM366.994 313.643C366.569 313.643 366.19 313.565 365.857 313.408C365.526 313.252 365.264 313.036 365.069 312.762C364.875 312.487 364.774 312.172 364.765 311.817H366.029C366.043 312.056 366.143 312.249 366.329 312.398C366.516 312.546 366.737 312.62 366.994 312.62C367.198 312.62 367.379 312.575 367.535 312.485C367.694 312.393 367.817 312.265 367.905 312.103C367.995 311.939 368.04 311.75 368.04 311.538C368.04 311.321 367.994 311.131 367.902 310.966C367.812 310.802 367.687 310.674 367.526 310.581C367.366 310.489 367.182 310.442 366.976 310.44C366.795 310.44 366.62 310.477 366.45 310.551C366.281 310.626 366.15 310.727 366.056 310.855L364.898 310.648L365.19 307.4H368.955V308.464H366.263L366.104 310.007H366.14C366.248 309.855 366.411 309.728 366.63 309.628C366.849 309.528 367.093 309.478 367.364 309.478C367.735 309.478 368.065 309.565 368.356 309.739C368.647 309.914 368.876 310.153 369.045 310.458C369.213 310.761 369.296 311.11 369.294 311.505C369.296 311.92 369.2 312.289 369.006 312.611C368.813 312.932 368.544 313.185 368.197 313.369C367.852 313.552 367.451 313.643 366.994 313.643ZM372.043 312.62V308.362H373.12V312.62H372.043ZM370.452 311.029V309.953H374.711V311.029H370.452Z" fill="#767676"/>
<line opacity="0.5" x1="119.266" y1="297.09" x2="119.266" y2="70.9817" stroke="#B1B1B1" stroke-width="0.550307"/>
</g>
</g>
</g>
<defs>
<filter id="filter0_f_1006_2791" x="-125.6" y="-69.6" width="1517.2" height="1517.2" filterUnits="userSpaceOnUse" color-interpolation-filters="sRGB">
<feFlood flood-opacity="0" result="BackgroundImageFix"/>
<feBlend mode="normal" in="SourceGraphic" in2="BackgroundImageFix" result="shape"/>
<feGaussianBlur stdDeviation="268.8" result="effect1_foregroundBlur_1006_2791"/>
</filter>
<filter id="filter1_f_1006_2791" x="-837.6" y="-857.6" width="1517.2" height="1517.2" filterUnits="userSpaceOnUse" color-interpolation-filters="sRGB">
<feFlood flood-opacity="0" result="BackgroundImageFix"/>
<feBlend mode="normal" in="SourceGraphic" in2="BackgroundImageFix" result="shape"/>
<feGaussianBlur stdDeviation="268.8" result="effect1_foregroundBlur_1006_2791"/>
</filter>
<filter id="filter2_d_1006_2791" x="-19" y="-15" width="507" height="384" filterUnits="userSpaceOnUse" color-interpolation-filters="sRGB">
<feFlood flood-opacity="0" result="BackgroundImageFix"/>
<feColorMatrix in="SourceAlpha" type="matrix" values="0 0 0 0 0 0 0 0 0 0 0 0 0 0 0 0 0 0 127 0" result="hardAlpha"/>
<feMorphology radius="1" operator="dilate" in="SourceAlpha" result="effect1_dropShadow_1006_2791"/>
<feOffset dy="5"/>
<feGaussianBlur stdDeviation="20"/>
<feComposite in2="hardAlpha" operator="out"/>
<feColorMatrix type="matrix" values="0 0 0 0 0 0 0 0 0 0.105882 0 0 0 0 0.419608 0 0 0 0.08 0"/>
<feBlend mode="normal" in2="BackgroundImageFix" result="effect1_dropShadow_1006_2791"/>
<feBlend mode="normal" in="SourceGraphic" in2="effect1_dropShadow_1006_2791" result="shape"/>
</filter>
<clipPath id="clip0_1006_2791">
<rect width="473" height="504" rx="20" fill="white"/>
</clipPath>
<clipPath id="clip1_1006_2791">
<rect x="22" y="21" width="425" height="302" rx="20" fill="white"/>
</clipPath>
</defs>
</svg>
