<svg width="473" height="504" viewBox="0 0 473 504" fill="none" xmlns="http://www.w3.org/2000/svg">
<g clip-path="url(#clip0_1006_2811)">
<rect width="447" height="504" fill="white"/>
<g filter="url(#filter0_f_1006_2811)">
<circle cx="433" cy="669" r="221" fill="#FF43A9" fill-opacity="0.4"/>
</g>
<g filter="url(#filter1_f_1006_2811)">
<circle cx="-99" cy="-229" r="221" fill="#0000FF" fill-opacity="0.4"/>
</g>
<path d="M76.1173 377.6C76.1173 375.952 76.4853 374.48 77.2213 373.184C77.9733 371.872 78.9893 370.856 80.2693 370.136C81.5653 369.4 83.0133 369.032 84.6133 369.032C86.4853 369.032 88.1253 369.512 89.5333 370.472C90.9413 371.432 91.9253 372.76 92.4853 374.456H88.6213C88.2373 373.656 87.6933 373.056 86.9893 372.656C86.3013 372.256 85.5013 372.056 84.5893 372.056C83.6133 372.056 82.7413 372.288 81.9733 372.752C81.2213 373.2 80.6293 373.84 80.1973 374.672C79.7813 375.504 79.5733 376.48 79.5733 377.6C79.5733 378.704 79.7813 379.68 80.1973 380.528C80.6293 381.36 81.2213 382.008 81.9733 382.472C82.7413 382.92 83.6133 383.144 84.5893 383.144C85.5013 383.144 86.3013 382.944 86.9893 382.544C87.6933 382.128 88.2373 381.52 88.6213 380.72H92.4853C91.9253 382.432 90.9413 383.768 89.5333 384.728C88.1413 385.672 86.5013 386.144 84.6133 386.144C83.0133 386.144 81.5653 385.784 80.2693 385.064C78.9893 384.328 77.9733 383.312 77.2213 382.016C76.4853 380.72 76.1173 379.248 76.1173 377.6ZM107.907 372.704V386H104.523V384.32C104.091 384.896 103.523 385.352 102.819 385.688C102.131 386.008 101.379 386.168 100.563 386.168C99.5232 386.168 98.6032 385.952 97.8032 385.52C97.0032 385.072 96.3712 384.424 95.9072 383.576C95.4592 382.712 95.2352 381.688 95.2352 380.504V372.704H98.5952V380.024C98.5952 381.08 98.8592 381.896 99.3872 382.472C99.9152 383.032 100.635 383.312 101.547 383.312C102.475 383.312 103.203 383.032 103.731 382.472C104.259 381.896 104.523 381.08 104.523 380.024V372.704H107.907ZM116.31 386.216C115.222 386.216 114.246 386.024 113.382 385.64C112.518 385.24 111.83 384.704 111.318 384.032C110.822 383.36 110.55 382.616 110.502 381.8H113.886C113.95 382.312 114.198 382.736 114.63 383.072C115.078 383.408 115.63 383.576 116.286 383.576C116.926 383.576 117.422 383.448 117.774 383.192C118.142 382.936 118.326 382.608 118.326 382.208C118.326 381.776 118.102 381.456 117.654 381.248C117.222 381.024 116.526 380.784 115.566 380.528C114.574 380.288 113.758 380.04 113.118 379.784C112.494 379.528 111.95 379.136 111.486 378.608C111.038 378.08 110.814 377.368 110.814 376.472C110.814 375.736 111.022 375.064 111.438 374.456C111.87 373.848 112.478 373.368 113.262 373.016C114.062 372.664 114.998 372.488 116.07 372.488C117.654 372.488 118.918 372.888 119.862 373.688C120.806 374.472 121.326 375.536 121.422 376.88H118.206C118.158 376.352 117.934 375.936 117.534 375.632C117.15 375.312 116.63 375.152 115.974 375.152C115.366 375.152 114.894 375.264 114.558 375.488C114.238 375.712 114.078 376.024 114.078 376.424C114.078 376.872 114.302 377.216 114.75 377.456C115.198 377.68 115.894 377.912 116.838 378.152C117.798 378.392 118.59 378.64 119.214 378.896C119.838 379.152 120.374 379.552 120.822 380.096C121.286 380.624 121.526 381.328 121.542 382.208C121.542 382.976 121.326 383.664 120.894 384.272C120.478 384.88 119.87 385.36 119.07 385.712C118.286 386.048 117.366 386.216 116.31 386.216ZM128.213 375.464V381.896C128.213 382.344 128.317 382.672 128.525 382.88C128.749 383.072 129.117 383.168 129.629 383.168H131.189V386H129.077C126.245 386 124.829 384.624 124.829 381.872V375.464H123.245V372.704H124.829V369.416H128.213V372.704H131.189V375.464H128.213ZM139.509 386.216C138.229 386.216 137.077 385.936 136.053 385.376C135.029 384.8 134.221 383.992 133.629 382.952C133.053 381.912 132.765 380.712 132.765 379.352C132.765 377.992 133.061 376.792 133.653 375.752C134.261 374.712 135.085 373.912 136.125 373.352C137.165 372.776 138.325 372.488 139.605 372.488C140.885 372.488 142.045 372.776 143.085 373.352C144.125 373.912 144.941 374.712 145.533 375.752C146.141 376.792 146.445 377.992 146.445 379.352C146.445 380.712 146.133 381.912 145.509 382.952C144.901 383.992 144.069 384.8 143.013 385.376C141.973 385.936 140.805 386.216 139.509 386.216ZM139.509 383.288C140.117 383.288 140.685 383.144 141.213 382.856C141.757 382.552 142.189 382.104 142.509 381.512C142.829 380.92 142.989 380.2 142.989 379.352C142.989 378.088 142.653 377.12 141.981 376.448C141.325 375.76 140.517 375.416 139.557 375.416C138.597 375.416 137.789 375.76 137.133 376.448C136.493 377.12 136.173 378.088 136.173 379.352C136.173 380.616 136.485 381.592 137.109 382.28C137.749 382.952 138.549 383.288 139.509 383.288ZM165.422 372.512C167.054 372.512 168.366 373.016 169.358 374.024C170.366 375.016 170.87 376.408 170.87 378.2V386H167.51V378.656C167.51 377.616 167.246 376.824 166.718 376.28C166.19 375.72 165.47 375.44 164.558 375.44C163.646 375.44 162.918 375.72 162.374 376.28C161.846 376.824 161.582 377.616 161.582 378.656V386H158.222V378.656C158.222 377.616 157.958 376.824 157.43 376.28C156.902 375.72 156.182 375.44 155.27 375.44C154.342 375.44 153.606 375.72 153.062 376.28C152.534 376.824 152.27 377.616 152.27 378.656V386H148.91V372.704H152.27V374.312C152.702 373.752 153.254 373.312 153.926 372.992C154.614 372.672 155.366 372.512 156.182 372.512C157.222 372.512 158.15 372.736 158.966 373.184C159.782 373.616 160.414 374.24 160.862 375.056C161.294 374.288 161.918 373.672 162.734 373.208C163.566 372.744 164.462 372.512 165.422 372.512ZM175.762 371.12C175.17 371.12 174.674 370.936 174.274 370.568C173.89 370.184 173.698 369.712 173.698 369.152C173.698 368.592 173.89 368.128 174.274 367.76C174.674 367.376 175.17 367.184 175.762 367.184C176.354 367.184 176.842 367.376 177.226 367.76C177.626 368.128 177.826 368.592 177.826 369.152C177.826 369.712 177.626 370.184 177.226 370.568C176.842 370.936 176.354 371.12 175.762 371.12ZM177.418 372.704V386H174.058V372.704H177.418ZM183.81 383.24H189.738V386H179.994V383.288L185.802 375.464H180.018V372.704H189.666V375.416L183.81 383.24ZM191.476 379.304C191.476 377.96 191.74 376.768 192.268 375.728C192.812 374.688 193.54 373.888 194.452 373.328C195.38 372.768 196.412 372.488 197.548 372.488C198.54 372.488 199.404 372.688 200.14 373.088C200.892 373.488 201.492 373.992 201.94 374.6V372.704H205.324V386H201.94V384.056C201.508 384.68 200.908 385.2 200.14 385.616C199.388 386.016 198.516 386.216 197.524 386.216C196.404 386.216 195.38 385.928 194.452 385.352C193.54 384.776 192.812 383.968 192.268 382.928C191.74 381.872 191.476 380.664 191.476 379.304ZM201.94 379.352C201.94 378.536 201.78 377.84 201.46 377.264C201.14 376.672 200.708 376.224 200.164 375.92C199.62 375.6 199.036 375.44 198.412 375.44C197.788 375.44 197.212 375.592 196.684 375.896C196.156 376.2 195.724 376.648 195.388 377.24C195.068 377.816 194.908 378.504 194.908 379.304C194.908 380.104 195.068 380.808 195.388 381.416C195.724 382.008 196.156 382.464 196.684 382.784C197.228 383.104 197.804 383.264 198.412 383.264C199.036 383.264 199.62 383.112 200.164 382.808C200.708 382.488 201.14 382.04 201.46 381.464C201.78 380.872 201.94 380.168 201.94 379.352ZM211.965 374.648C212.397 374.008 212.989 373.488 213.741 373.088C214.509 372.688 215.381 372.488 216.357 372.488C217.493 372.488 218.517 372.768 219.429 373.328C220.357 373.888 221.085 374.688 221.613 375.728C222.157 376.752 222.429 377.944 222.429 379.304C222.429 380.664 222.157 381.872 221.613 382.928C221.085 383.968 220.357 384.776 219.429 385.352C218.517 385.928 217.493 386.216 216.357 386.216C215.365 386.216 214.493 386.024 213.741 385.64C213.005 385.24 212.413 384.728 211.965 384.104V386H208.605V368.24H211.965V374.648ZM218.997 379.304C218.997 378.504 218.829 377.816 218.493 377.24C218.173 376.648 217.741 376.2 217.197 375.896C216.669 375.592 216.093 375.44 215.469 375.44C214.861 375.44 214.285 375.6 213.741 375.92C213.213 376.224 212.781 376.672 212.445 377.264C212.125 377.856 211.965 378.552 211.965 379.352C211.965 380.152 212.125 380.848 212.445 381.44C212.781 382.032 213.213 382.488 213.741 382.808C214.285 383.112 214.861 383.264 215.469 383.264C216.093 383.264 216.669 383.104 217.197 382.784C217.741 382.464 218.173 382.008 218.493 381.416C218.829 380.824 218.997 380.12 218.997 379.304ZM228.231 368.24V386H224.871V368.24H228.231ZM243.911 379.064C243.911 379.544 243.879 379.976 243.815 380.36H234.095C234.175 381.32 234.511 382.072 235.103 382.616C235.695 383.16 236.423 383.432 237.287 383.432C238.535 383.432 239.423 382.896 239.951 381.824H243.575C243.191 383.104 242.455 384.16 241.367 384.992C240.279 385.808 238.943 386.216 237.359 386.216C236.079 386.216 234.927 385.936 233.903 385.376C232.895 384.8 232.103 383.992 231.527 382.952C230.967 381.912 230.687 380.712 230.687 379.352C230.687 377.976 230.967 376.768 231.527 375.728C232.087 374.688 232.871 373.888 233.879 373.328C234.887 372.768 236.047 372.488 237.359 372.488C238.623 372.488 239.751 372.76 240.743 373.304C241.751 373.848 242.527 374.624 243.071 375.632C243.631 376.624 243.911 377.768 243.911 379.064ZM240.431 378.104C240.415 377.24 240.103 376.552 239.495 376.04C238.887 375.512 238.143 375.248 237.263 375.248C236.431 375.248 235.727 375.504 235.151 376.016C234.591 376.512 234.247 377.208 234.119 378.104H240.431ZM257.938 369.248C259.698 369.248 261.242 369.592 262.57 370.28C263.914 370.968 264.946 371.952 265.666 373.232C266.402 374.496 266.77 375.968 266.77 377.648C266.77 379.328 266.402 380.8 265.666 382.064C264.946 383.312 263.914 384.28 262.57 384.968C261.242 385.656 259.698 386 257.938 386H252.082V369.248H257.938ZM257.818 383.144C259.578 383.144 260.938 382.664 261.898 381.704C262.858 380.744 263.338 379.392 263.338 377.648C263.338 375.904 262.858 374.544 261.898 373.568C260.938 372.576 259.578 372.08 257.818 372.08H255.442V383.144H257.818ZM268.421 379.304C268.421 377.96 268.685 376.768 269.213 375.728C269.757 374.688 270.485 373.888 271.397 373.328C272.325 372.768 273.357 372.488 274.493 372.488C275.485 372.488 276.349 372.688 277.085 373.088C277.837 373.488 278.437 373.992 278.885 374.6V372.704H282.269V386H278.885V384.056C278.453 384.68 277.853 385.2 277.085 385.616C276.333 386.016 275.461 386.216 274.469 386.216C273.349 386.216 272.325 385.928 271.397 385.352C270.485 384.776 269.757 383.968 269.213 382.928C268.685 381.872 268.421 380.664 268.421 379.304ZM278.885 379.352C278.885 378.536 278.725 377.84 278.405 377.264C278.085 376.672 277.653 376.224 277.109 375.92C276.565 375.6 275.981 375.44 275.357 375.44C274.733 375.44 274.157 375.592 273.629 375.896C273.101 376.2 272.669 376.648 272.333 377.24C272.013 377.816 271.853 378.504 271.853 379.304C271.853 380.104 272.013 380.808 272.333 381.416C272.669 382.008 273.101 382.464 273.629 382.784C274.173 383.104 274.749 383.264 275.357 383.264C275.981 383.264 276.565 383.112 277.109 382.808C277.653 382.488 278.085 382.04 278.405 381.464C278.725 380.872 278.885 380.168 278.885 379.352ZM290.639 386.216C289.551 386.216 288.575 386.024 287.711 385.64C286.847 385.24 286.159 384.704 285.647 384.032C285.151 383.36 284.879 382.616 284.831 381.8H288.215C288.279 382.312 288.527 382.736 288.959 383.072C289.407 383.408 289.959 383.576 290.615 383.576C291.255 383.576 291.751 383.448 292.103 383.192C292.471 382.936 292.655 382.608 292.655 382.208C292.655 381.776 292.431 381.456 291.983 381.248C291.551 381.024 290.855 380.784 289.895 380.528C288.903 380.288 288.087 380.04 287.447 379.784C286.823 379.528 286.279 379.136 285.815 378.608C285.367 378.08 285.143 377.368 285.143 376.472C285.143 375.736 285.351 375.064 285.767 374.456C286.199 373.848 286.807 373.368 287.591 373.016C288.391 372.664 289.327 372.488 290.399 372.488C291.983 372.488 293.247 372.888 294.191 373.688C295.135 374.472 295.655 375.536 295.751 376.88H292.535C292.487 376.352 292.263 375.936 291.863 375.632C291.479 375.312 290.959 375.152 290.303 375.152C289.695 375.152 289.223 375.264 288.887 375.488C288.567 375.712 288.407 376.024 288.407 376.424C288.407 376.872 288.631 377.216 289.079 377.456C289.527 377.68 290.223 377.912 291.167 378.152C292.127 378.392 292.919 378.64 293.543 378.896C294.167 379.152 294.703 379.552 295.151 380.096C295.615 380.624 295.855 381.328 295.871 382.208C295.871 382.976 295.655 383.664 295.223 384.272C294.807 384.88 294.199 385.36 293.399 385.712C292.615 386.048 291.695 386.216 290.639 386.216ZM306.117 372.512C307.125 372.512 308.021 372.736 308.805 373.184C309.589 373.616 310.197 374.264 310.629 375.128C311.077 375.976 311.301 377 311.301 378.2V386H307.941V378.656C307.941 377.6 307.677 376.792 307.149 376.232C306.621 375.656 305.901 375.368 304.989 375.368C304.061 375.368 303.325 375.656 302.781 376.232C302.253 376.792 301.989 377.6 301.989 378.656V386H298.629V368.24H301.989V374.36C302.421 373.784 302.997 373.336 303.717 373.016C304.437 372.68 305.237 372.512 306.117 372.512ZM317.856 374.648C318.288 374.008 318.88 373.488 319.632 373.088C320.4 372.688 321.272 372.488 322.248 372.488C323.384 372.488 324.408 372.768 325.32 373.328C326.248 373.888 326.976 374.688 327.504 375.728C328.048 376.752 328.32 377.944 328.32 379.304C328.32 380.664 328.048 381.872 327.504 382.928C326.976 383.968 326.248 384.776 325.32 385.352C324.408 385.928 323.384 386.216 322.248 386.216C321.256 386.216 320.384 386.024 319.632 385.64C318.896 385.24 318.304 384.728 317.856 384.104V386H314.496V368.24H317.856V374.648ZM324.888 379.304C324.888 378.504 324.72 377.816 324.384 377.24C324.064 376.648 323.632 376.2 323.088 375.896C322.56 375.592 321.984 375.44 321.36 375.44C320.752 375.44 320.176 375.6 319.632 375.92C319.104 376.224 318.672 376.672 318.336 377.264C318.016 377.856 317.856 378.552 317.856 379.352C317.856 380.152 318.016 380.848 318.336 381.44C318.672 382.032 319.104 382.488 319.632 382.808C320.176 383.112 320.752 383.264 321.36 383.264C321.984 383.264 322.56 383.104 323.088 382.784C323.632 382.464 324.064 382.008 324.384 381.416C324.72 380.824 324.888 380.12 324.888 379.304ZM336.665 386.216C335.385 386.216 334.233 385.936 333.209 385.376C332.185 384.8 331.377 383.992 330.785 382.952C330.209 381.912 329.921 380.712 329.921 379.352C329.921 377.992 330.217 376.792 330.809 375.752C331.417 374.712 332.241 373.912 333.281 373.352C334.321 372.776 335.481 372.488 336.761 372.488C338.041 372.488 339.201 372.776 340.241 373.352C341.281 373.912 342.097 374.712 342.689 375.752C343.297 376.792 343.601 377.992 343.601 379.352C343.601 380.712 343.289 381.912 342.665 382.952C342.057 383.992 341.225 384.8 340.169 385.376C339.129 385.936 337.961 386.216 336.665 386.216ZM336.665 383.288C337.273 383.288 337.841 383.144 338.369 382.856C338.913 382.552 339.345 382.104 339.665 381.512C339.985 380.92 340.145 380.2 340.145 379.352C340.145 378.088 339.809 377.12 339.137 376.448C338.481 375.76 337.673 375.416 336.713 375.416C335.753 375.416 334.945 375.76 334.289 376.448C333.649 377.12 333.329 378.088 333.329 379.352C333.329 380.616 333.641 381.592 334.265 382.28C334.905 382.952 335.705 383.288 336.665 383.288ZM345.202 379.304C345.202 377.96 345.466 376.768 345.994 375.728C346.538 374.688 347.266 373.888 348.178 373.328C349.106 372.768 350.138 372.488 351.274 372.488C352.266 372.488 353.13 372.688 353.866 373.088C354.618 373.488 355.218 373.992 355.666 374.6V372.704H359.05V386H355.666V384.056C355.234 384.68 354.634 385.2 353.866 385.616C353.114 386.016 352.242 386.216 351.25 386.216C350.13 386.216 349.106 385.928 348.178 385.352C347.266 384.776 346.538 383.968 345.994 382.928C345.466 381.872 345.202 380.664 345.202 379.304ZM355.666 379.352C355.666 378.536 355.506 377.84 355.186 377.264C354.866 376.672 354.434 376.224 353.89 375.92C353.346 375.6 352.762 375.44 352.138 375.44C351.514 375.44 350.938 375.592 350.41 375.896C349.882 376.2 349.45 376.648 349.114 377.24C348.794 377.816 348.634 378.504 348.634 379.304C348.634 380.104 348.794 380.808 349.114 381.416C349.45 382.008 349.882 382.464 350.41 382.784C350.954 383.104 351.53 383.264 352.138 383.264C352.762 383.264 353.346 383.112 353.89 382.808C354.434 382.488 354.866 382.04 355.186 381.464C355.506 380.872 355.666 380.168 355.666 379.352ZM365.692 374.768C366.124 374.064 366.684 373.512 367.372 373.112C368.076 372.712 368.876 372.512 369.772 372.512V376.04H368.884C367.828 376.04 367.028 376.288 366.484 376.784C365.956 377.28 365.692 378.144 365.692 379.376V386H362.332V372.704H365.692V374.768ZM371.171 379.304C371.171 377.96 371.435 376.768 371.963 375.728C372.507 374.688 373.243 373.888 374.171 373.328C375.099 372.768 376.131 372.488 377.267 372.488C378.131 372.488 378.955 372.68 379.739 373.064C380.523 373.432 381.147 373.928 381.611 374.552V368.24H385.019V386H381.611V384.032C381.195 384.688 380.611 385.216 379.859 385.616C379.107 386.016 378.235 386.216 377.243 386.216C376.123 386.216 375.099 385.928 374.171 385.352C373.243 384.776 372.507 383.968 371.963 382.928C371.435 381.872 371.171 380.664 371.171 379.304ZM381.635 379.352C381.635 378.536 381.475 377.84 381.155 377.264C380.835 376.672 380.403 376.224 379.859 375.92C379.315 375.6 378.731 375.44 378.107 375.44C377.483 375.44 376.907 375.592 376.379 375.896C375.851 376.2 375.419 376.648 375.083 377.24C374.763 377.816 374.603 378.504 374.603 379.304C374.603 380.104 374.763 380.808 375.083 381.416C375.419 382.008 375.851 382.464 376.379 382.784C376.923 383.104 377.499 383.264 378.107 383.264C378.731 383.264 379.315 383.112 379.859 382.808C380.403 382.488 380.835 382.04 381.155 381.464C381.475 380.872 381.635 380.168 381.635 379.352ZM393.389 386.216C392.301 386.216 391.325 386.024 390.461 385.64C389.597 385.24 388.909 384.704 388.397 384.032C387.901 383.36 387.629 382.616 387.581 381.8H390.965C391.029 382.312 391.277 382.736 391.709 383.072C392.157 383.408 392.709 383.576 393.365 383.576C394.005 383.576 394.501 383.448 394.853 383.192C395.221 382.936 395.405 382.608 395.405 382.208C395.405 381.776 395.181 381.456 394.733 381.248C394.301 381.024 393.605 380.784 392.645 380.528C391.653 380.288 390.837 380.04 390.197 379.784C389.573 379.528 389.029 379.136 388.565 378.608C388.117 378.08 387.893 377.368 387.893 376.472C387.893 375.736 388.101 375.064 388.517 374.456C388.949 373.848 389.557 373.368 390.341 373.016C391.141 372.664 392.077 372.488 393.149 372.488C394.733 372.488 395.997 372.888 396.941 373.688C397.885 374.472 398.405 375.536 398.501 376.88H395.285C395.237 376.352 395.013 375.936 394.613 375.632C394.229 375.312 393.709 375.152 393.053 375.152C392.445 375.152 391.973 375.264 391.637 375.488C391.317 375.712 391.157 376.024 391.157 376.424C391.157 376.872 391.381 377.216 391.829 377.456C392.277 377.68 392.973 377.912 393.917 378.152C394.877 378.392 395.669 378.64 396.293 378.896C396.917 379.152 397.453 379.552 397.901 380.096C398.365 380.624 398.605 381.328 398.621 382.208C398.621 382.976 398.405 383.664 397.973 384.272C397.557 384.88 396.949 385.36 396.149 385.712C395.365 386.048 394.445 386.216 393.389 386.216Z" fill="black"/>
<path d="M101.605 409.272V411.048H97.0449V426H94.8609V411.048H90.2769V409.272H101.605ZM103.477 419.376C103.477 418.032 103.749 416.856 104.293 415.848C104.837 414.824 105.581 414.032 106.525 413.472C107.485 412.912 108.549 412.632 109.717 412.632C110.869 412.632 111.869 412.88 112.717 413.376C113.565 413.872 114.197 414.496 114.613 415.248V412.848H116.821V426H114.613V423.552C114.181 424.32 113.533 424.96 112.669 425.472C111.821 425.968 110.829 426.216 109.693 426.216C108.525 426.216 107.469 425.928 106.525 425.352C105.581 424.776 104.837 423.968 104.293 422.928C103.749 421.888 103.477 420.704 103.477 419.376ZM114.613 419.4C114.613 418.408 114.413 417.544 114.013 416.808C113.613 416.072 113.069 415.512 112.381 415.128C111.709 414.728 110.965 414.528 110.149 414.528C109.333 414.528 108.589 414.72 107.917 415.104C107.245 415.488 106.709 416.048 106.309 416.784C105.909 417.52 105.709 418.384 105.709 419.376C105.709 420.384 105.909 421.264 106.309 422.016C106.709 422.752 107.245 423.32 107.917 423.72C108.589 424.104 109.333 424.296 110.149 424.296C110.965 424.296 111.709 424.104 112.381 423.72C113.069 423.32 113.613 422.752 114.013 422.016C114.413 421.264 114.613 420.392 114.613 419.4ZM121.64 410.712C121.224 410.712 120.872 410.568 120.584 410.28C120.296 409.992 120.152 409.64 120.152 409.224C120.152 408.808 120.296 408.456 120.584 408.168C120.872 407.88 121.224 407.736 121.64 407.736C122.04 407.736 122.376 407.88 122.648 408.168C122.936 408.456 123.08 408.808 123.08 409.224C123.08 409.64 122.936 409.992 122.648 410.28C122.376 410.568 122.04 410.712 121.64 410.712ZM122.696 412.848V426H120.512V412.848H122.696ZM128.602 408.24V426H126.418V408.24H128.602ZM138.061 426.216C136.829 426.216 135.709 425.936 134.701 425.376C133.709 424.816 132.925 424.024 132.349 423C131.789 421.96 131.509 420.76 131.509 419.4C131.509 418.056 131.797 416.872 132.373 415.848C132.965 414.808 133.765 414.016 134.773 413.472C135.781 412.912 136.909 412.632 138.157 412.632C139.405 412.632 140.533 412.912 141.541 413.472C142.549 414.016 143.341 414.8 143.917 415.824C144.509 416.848 144.805 418.04 144.805 419.4C144.805 420.76 144.501 421.96 143.893 423C143.301 424.024 142.493 424.816 141.469 425.376C140.445 425.936 139.309 426.216 138.061 426.216ZM138.061 424.296C138.845 424.296 139.581 424.112 140.269 423.744C140.957 423.376 141.509 422.824 141.925 422.088C142.357 421.352 142.573 420.456 142.573 419.4C142.573 418.344 142.365 417.448 141.949 416.712C141.533 415.976 140.989 415.432 140.317 415.08C139.645 414.712 138.917 414.528 138.133 414.528C137.333 414.528 136.597 414.712 135.925 415.08C135.269 415.432 134.741 415.976 134.341 416.712C133.941 417.448 133.741 418.344 133.741 419.4C133.741 420.472 133.933 421.376 134.317 422.112C134.717 422.848 135.245 423.4 135.901 423.768C136.557 424.12 137.277 424.296 138.061 424.296ZM149.86 414.984C150.244 414.232 150.788 413.648 151.492 413.232C152.212 412.816 153.084 412.608 154.108 412.608V414.864H153.532C151.084 414.864 149.86 416.192 149.86 418.848V426H147.676V412.848H149.86V414.984ZM174.356 412.848L166.436 432.192H164.18L166.772 425.856L161.468 412.848H163.892L168.02 423.504L172.1 412.848H174.356ZM182.287 426.216C181.055 426.216 179.935 425.936 178.927 425.376C177.935 424.816 177.151 424.024 176.575 423C176.015 421.96 175.735 420.76 175.735 419.4C175.735 418.056 176.023 416.872 176.599 415.848C177.191 414.808 177.991 414.016 178.999 413.472C180.007 412.912 181.135 412.632 182.383 412.632C183.631 412.632 184.759 412.912 185.767 413.472C186.775 414.016 187.567 414.8 188.143 415.824C188.735 416.848 189.031 418.04 189.031 419.4C189.031 420.76 188.727 421.96 188.119 423C187.527 424.024 186.719 424.816 185.695 425.376C184.671 425.936 183.535 426.216 182.287 426.216ZM182.287 424.296C183.071 424.296 183.807 424.112 184.495 423.744C185.183 423.376 185.735 422.824 186.151 422.088C186.583 421.352 186.799 420.456 186.799 419.4C186.799 418.344 186.591 417.448 186.175 416.712C185.759 415.976 185.215 415.432 184.543 415.08C183.871 414.712 183.143 414.528 182.359 414.528C181.559 414.528 180.823 414.712 180.151 415.08C179.495 415.432 178.967 415.976 178.567 416.712C178.167 417.448 177.967 418.344 177.967 419.4C177.967 420.472 178.159 421.376 178.543 422.112C178.943 422.848 179.471 423.4 180.127 423.768C180.783 424.12 181.503 424.296 182.287 424.296ZM203.567 412.848V426H201.383V424.056C200.967 424.728 200.383 425.256 199.631 425.64C198.895 426.008 198.079 426.192 197.183 426.192C196.159 426.192 195.239 425.984 194.423 425.568C193.607 425.136 192.959 424.496 192.479 423.648C192.015 422.8 191.783 421.768 191.783 420.552V412.848H193.943V420.264C193.943 421.56 194.271 422.56 194.927 423.264C195.583 423.952 196.479 424.296 197.615 424.296C198.783 424.296 199.703 423.936 200.375 423.216C201.047 422.496 201.383 421.448 201.383 420.072V412.848H203.567ZM209.438 414.984C209.822 414.232 210.366 413.648 211.07 413.232C211.79 412.816 212.662 412.608 213.686 412.608V414.864H213.11C210.662 414.864 209.438 416.192 209.438 418.848V426H207.254V412.848H209.438V414.984ZM221.79 419.376C221.79 418.032 222.062 416.856 222.606 415.848C223.15 414.824 223.894 414.032 224.838 413.472C225.798 412.912 226.87 412.632 228.054 412.632C229.078 412.632 230.03 412.872 230.91 413.352C231.79 413.816 232.462 414.432 232.926 415.2V408.24H235.134V426H232.926V423.528C232.494 424.312 231.854 424.96 231.006 425.472C230.158 425.968 229.166 426.216 228.03 426.216C226.862 426.216 225.798 425.928 224.838 425.352C223.894 424.776 223.15 423.968 222.606 422.928C222.062 421.888 221.79 420.704 221.79 419.376ZM232.926 419.4C232.926 418.408 232.726 417.544 232.326 416.808C231.926 416.072 231.382 415.512 230.694 415.128C230.022 414.728 229.278 414.528 228.462 414.528C227.646 414.528 226.902 414.72 226.23 415.104C225.558 415.488 225.022 416.048 224.622 416.784C224.222 417.52 224.022 418.384 224.022 419.376C224.022 420.384 224.222 421.264 224.622 422.016C225.022 422.752 225.558 423.32 226.23 423.72C226.902 424.104 227.646 424.296 228.462 424.296C229.278 424.296 230.022 424.104 230.694 423.72C231.382 423.32 231.926 422.752 232.326 422.016C232.726 421.264 232.926 420.392 232.926 419.4ZM238.009 419.376C238.009 418.032 238.281 416.856 238.825 415.848C239.369 414.824 240.113 414.032 241.057 413.472C242.017 412.912 243.081 412.632 244.249 412.632C245.401 412.632 246.401 412.88 247.249 413.376C248.097 413.872 248.729 414.496 249.145 415.248V412.848H251.353V426H249.145V423.552C248.713 424.32 248.065 424.96 247.201 425.472C246.353 425.968 245.361 426.216 244.225 426.216C243.057 426.216 242.001 425.928 241.057 425.352C240.113 424.776 239.369 423.968 238.825 422.928C238.281 421.888 238.009 420.704 238.009 419.376ZM249.145 419.4C249.145 418.408 248.945 417.544 248.545 416.808C248.145 416.072 247.601 415.512 246.913 415.128C246.241 414.728 245.497 414.528 244.681 414.528C243.865 414.528 243.121 414.72 242.449 415.104C241.777 415.488 241.241 416.048 240.841 416.784C240.441 417.52 240.241 418.384 240.241 419.376C240.241 420.384 240.441 421.264 240.841 422.016C241.241 422.752 241.777 423.32 242.449 423.72C243.121 424.104 243.865 424.296 244.681 424.296C245.497 424.296 246.241 424.104 246.913 423.72C247.601 423.32 248.145 422.752 248.545 422.016C248.945 421.264 249.145 420.392 249.145 419.4ZM259.699 426.216C258.691 426.216 257.787 426.048 256.987 425.712C256.187 425.36 255.555 424.88 255.091 424.272C254.627 423.648 254.371 422.936 254.323 422.136H256.579C256.643 422.792 256.947 423.328 257.491 423.744C258.051 424.16 258.779 424.368 259.675 424.368C260.507 424.368 261.163 424.184 261.643 423.816C262.123 423.448 262.363 422.984 262.363 422.424C262.363 421.848 262.107 421.424 261.595 421.152C261.083 420.864 260.291 420.584 259.219 420.312C258.243 420.056 257.443 419.8 256.819 419.544C256.211 419.272 255.683 418.88 255.235 418.368C254.803 417.84 254.587 417.152 254.587 416.304C254.587 415.632 254.787 415.016 255.187 414.456C255.587 413.896 256.155 413.456 256.891 413.136C257.627 412.8 258.467 412.632 259.411 412.632C260.867 412.632 262.043 413 262.939 413.736C263.835 414.472 264.315 415.48 264.379 416.76H262.195C262.147 416.072 261.867 415.52 261.355 415.104C260.859 414.688 260.187 414.48 259.339 414.48C258.555 414.48 257.931 414.648 257.467 414.984C257.003 415.32 256.771 415.76 256.771 416.304C256.771 416.736 256.907 417.096 257.179 417.384C257.467 417.656 257.819 417.88 258.235 418.056C258.667 418.216 259.259 418.4 260.011 418.608C260.955 418.864 261.723 419.12 262.315 419.376C262.907 419.616 263.411 419.984 263.827 420.48C264.259 420.976 264.483 421.624 264.499 422.424C264.499 423.144 264.299 423.792 263.899 424.368C263.499 424.944 262.931 425.4 262.195 425.736C261.475 426.056 260.643 426.216 259.699 426.216ZM274.11 412.608C275.102 412.608 275.998 412.824 276.798 413.256C277.598 413.672 278.222 414.304 278.67 415.152C279.134 416 279.366 417.032 279.366 418.248V426H277.206V418.56C277.206 417.248 276.878 416.248 276.222 415.56C275.566 414.856 274.67 414.504 273.534 414.504C272.382 414.504 271.462 414.864 270.774 415.584C270.102 416.304 269.766 417.352 269.766 418.728V426H267.582V408.24H269.766V414.72C270.198 414.048 270.79 413.528 271.542 413.16C272.31 412.792 273.166 412.608 274.11 412.608ZM285.118 415.296C285.566 414.512 286.222 413.872 287.086 413.376C287.95 412.88 288.934 412.632 290.038 412.632C291.222 412.632 292.286 412.912 293.23 413.472C294.174 414.032 294.918 414.824 295.462 415.848C296.006 416.856 296.278 418.032 296.278 419.376C296.278 420.704 296.006 421.888 295.462 422.928C294.918 423.968 294.166 424.776 293.206 425.352C292.262 425.928 291.206 426.216 290.038 426.216C288.902 426.216 287.902 425.968 287.038 425.472C286.19 424.976 285.55 424.344 285.118 423.576V426H282.934V408.24H285.118V415.296ZM294.046 419.376C294.046 418.384 293.846 417.52 293.446 416.784C293.046 416.048 292.502 415.488 291.814 415.104C291.142 414.72 290.398 414.528 289.582 414.528C288.782 414.528 288.038 414.728 287.35 415.128C286.678 415.512 286.134 416.08 285.718 416.832C285.318 417.568 285.118 418.424 285.118 419.4C285.118 420.392 285.318 421.264 285.718 422.016C286.134 422.752 286.678 423.32 287.35 423.72C288.038 424.104 288.782 424.296 289.582 424.296C290.398 424.296 291.142 424.104 291.814 423.72C292.502 423.32 293.046 422.752 293.446 422.016C293.846 421.264 294.046 420.384 294.046 419.376ZM304.889 426.216C303.657 426.216 302.537 425.936 301.529 425.376C300.537 424.816 299.753 424.024 299.177 423C298.617 421.96 298.337 420.76 298.337 419.4C298.337 418.056 298.625 416.872 299.201 415.848C299.793 414.808 300.593 414.016 301.601 413.472C302.609 412.912 303.737 412.632 304.985 412.632C306.233 412.632 307.361 412.912 308.369 413.472C309.377 414.016 310.169 414.8 310.745 415.824C311.337 416.848 311.633 418.04 311.633 419.4C311.633 420.76 311.329 421.96 310.721 423C310.129 424.024 309.321 424.816 308.297 425.376C307.273 425.936 306.137 426.216 304.889 426.216ZM304.889 424.296C305.673 424.296 306.409 424.112 307.097 423.744C307.785 423.376 308.337 422.824 308.753 422.088C309.185 421.352 309.401 420.456 309.401 419.4C309.401 418.344 309.193 417.448 308.777 416.712C308.361 415.976 307.817 415.432 307.145 415.08C306.473 414.712 305.745 414.528 304.961 414.528C304.161 414.528 303.425 414.712 302.753 415.08C302.097 415.432 301.569 415.976 301.169 416.712C300.769 417.448 300.569 418.344 300.569 419.4C300.569 420.472 300.761 421.376 301.145 422.112C301.545 422.848 302.073 423.4 302.729 423.768C303.385 424.12 304.105 424.296 304.889 424.296ZM313.688 419.376C313.688 418.032 313.96 416.856 314.504 415.848C315.048 414.824 315.792 414.032 316.736 413.472C317.696 412.912 318.76 412.632 319.928 412.632C321.08 412.632 322.08 412.88 322.928 413.376C323.776 413.872 324.408 414.496 324.824 415.248V412.848H327.032V426H324.824V423.552C324.392 424.32 323.744 424.96 322.88 425.472C322.032 425.968 321.04 426.216 319.904 426.216C318.736 426.216 317.68 425.928 316.736 425.352C315.792 424.776 315.048 423.968 314.504 422.928C313.96 421.888 313.688 420.704 313.688 419.376ZM324.824 419.4C324.824 418.408 324.624 417.544 324.224 416.808C323.824 416.072 323.28 415.512 322.592 415.128C321.92 414.728 321.176 414.528 320.36 414.528C319.544 414.528 318.8 414.72 318.128 415.104C317.456 415.488 316.92 416.048 316.52 416.784C316.12 417.52 315.92 418.384 315.92 419.376C315.92 420.384 316.12 421.264 316.52 422.016C316.92 422.752 317.456 423.32 318.128 423.72C318.8 424.104 319.544 424.296 320.36 424.296C321.176 424.296 321.92 424.104 322.592 423.72C323.28 423.32 323.824 422.752 324.224 422.016C324.624 421.264 324.824 420.392 324.824 419.4ZM332.907 414.984C333.291 414.232 333.835 413.648 334.539 413.232C335.259 412.816 336.131 412.608 337.155 412.608V414.864H336.579C334.131 414.864 332.907 416.192 332.907 418.848V426H330.723V412.848H332.907V414.984ZM338.86 419.376C338.86 418.032 339.132 416.856 339.676 415.848C340.22 414.824 340.964 414.032 341.908 413.472C342.868 412.912 343.94 412.632 345.124 412.632C346.148 412.632 347.1 412.872 347.98 413.352C348.86 413.816 349.532 414.432 349.996 415.2V408.24H352.204V426H349.996V423.528C349.564 424.312 348.924 424.96 348.076 425.472C347.228 425.968 346.236 426.216 345.1 426.216C343.932 426.216 342.868 425.928 341.908 425.352C340.964 424.776 340.22 423.968 339.676 422.928C339.132 421.888 338.86 420.704 338.86 419.376ZM349.996 419.4C349.996 418.408 349.796 417.544 349.396 416.808C348.996 416.072 348.452 415.512 347.764 415.128C347.092 414.728 346.348 414.528 345.532 414.528C344.716 414.528 343.972 414.72 343.3 415.104C342.628 415.488 342.092 416.048 341.692 416.784C341.292 417.52 341.092 418.384 341.092 419.376C341.092 420.384 341.292 421.264 341.692 422.016C342.092 422.752 342.628 423.32 343.3 423.72C343.972 424.104 344.716 424.296 345.532 424.296C346.348 424.296 347.092 424.104 347.764 423.72C348.452 423.32 348.996 422.752 349.396 422.016C349.796 421.264 349.996 420.392 349.996 419.4ZM364.957 414.648V422.4C364.957 423.04 365.093 423.496 365.365 423.768C365.637 424.024 366.109 424.152 366.781 424.152H368.389V426H366.421C365.205 426 364.293 425.72 363.685 425.16C363.077 424.6 362.773 423.68 362.773 422.4V414.648H361.069V412.848H362.773V409.536H364.957V412.848H368.389V414.648H364.957ZM376.772 426.216C375.54 426.216 374.42 425.936 373.412 425.376C372.42 424.816 371.636 424.024 371.06 423C370.5 421.96 370.22 420.76 370.22 419.4C370.22 418.056 370.508 416.872 371.084 415.848C371.676 414.808 372.476 414.016 373.484 413.472C374.492 412.912 375.62 412.632 376.868 412.632C378.116 412.632 379.244 412.912 380.252 413.472C381.26 414.016 382.052 414.8 382.628 415.824C383.22 416.848 383.516 418.04 383.516 419.4C383.516 420.76 383.212 421.96 382.604 423C382.012 424.024 381.204 424.816 380.18 425.376C379.156 425.936 378.02 426.216 376.772 426.216ZM376.772 424.296C377.556 424.296 378.292 424.112 378.98 423.744C379.668 423.376 380.22 422.824 380.636 422.088C381.068 421.352 381.284 420.456 381.284 419.4C381.284 418.344 381.076 417.448 380.66 416.712C380.244 415.976 379.7 415.432 379.028 415.08C378.356 414.712 377.628 414.528 376.844 414.528C376.044 414.528 375.308 414.712 374.636 415.08C373.98 415.432 373.452 415.976 373.052 416.712C372.652 417.448 372.452 418.344 372.452 419.4C372.452 420.472 372.644 421.376 373.028 422.112C373.428 422.848 373.956 423.4 374.612 423.768C375.268 424.12 375.988 424.296 376.772 424.296ZM180.93 444.848L173.01 464.192H170.754L173.346 457.856L168.042 444.848H170.466L174.594 455.504L178.674 444.848H180.93ZM188.861 458.216C187.629 458.216 186.509 457.936 185.501 457.376C184.509 456.816 183.725 456.024 183.149 455C182.589 453.96 182.309 452.76 182.309 451.4C182.309 450.056 182.597 448.872 183.173 447.848C183.765 446.808 184.565 446.016 185.573 445.472C186.581 444.912 187.709 444.632 188.957 444.632C190.205 444.632 191.333 444.912 192.341 445.472C193.349 446.016 194.141 446.8 194.717 447.824C195.309 448.848 195.605 450.04 195.605 451.4C195.605 452.76 195.301 453.96 194.693 455C194.101 456.024 193.293 456.816 192.269 457.376C191.245 457.936 190.109 458.216 188.861 458.216ZM188.861 456.296C189.645 456.296 190.381 456.112 191.069 455.744C191.757 455.376 192.309 454.824 192.725 454.088C193.157 453.352 193.373 452.456 193.373 451.4C193.373 450.344 193.165 449.448 192.749 448.712C192.333 447.976 191.789 447.432 191.117 447.08C190.445 446.712 189.717 446.528 188.933 446.528C188.133 446.528 187.397 446.712 186.725 447.08C186.069 447.432 185.541 447.976 185.141 448.712C184.741 449.448 184.541 450.344 184.541 451.4C184.541 452.472 184.733 453.376 185.117 454.112C185.517 454.848 186.045 455.4 186.701 455.768C187.357 456.12 188.077 456.296 188.861 456.296ZM210.141 444.848V458H207.957V456.056C207.541 456.728 206.957 457.256 206.205 457.64C205.469 458.008 204.653 458.192 203.757 458.192C202.733 458.192 201.813 457.984 200.997 457.568C200.181 457.136 199.533 456.496 199.053 455.648C198.589 454.8 198.357 453.768 198.357 452.552V444.848H200.517V452.264C200.517 453.56 200.845 454.56 201.501 455.264C202.157 455.952 203.053 456.296 204.189 456.296C205.357 456.296 206.277 455.936 206.949 455.216C207.621 454.496 207.957 453.448 207.957 452.072V444.848H210.141ZM216.012 446.984C216.396 446.232 216.94 445.648 217.644 445.232C218.364 444.816 219.236 444.608 220.26 444.608V446.864H219.684C217.236 446.864 216.012 448.192 216.012 450.848V458H213.828V444.848H216.012V446.984ZM235.588 444.608C237.188 444.608 238.484 445.096 239.476 446.072C240.468 447.032 240.964 448.424 240.964 450.248V458H238.804V450.56C238.804 449.248 238.476 448.248 237.82 447.56C237.164 446.856 236.268 446.504 235.132 446.504C233.98 446.504 233.06 446.864 232.372 447.584C231.7 448.304 231.364 449.352 231.364 450.728V458H229.18V444.848H231.364V446.72C231.796 446.048 232.38 445.528 233.116 445.16C233.868 444.792 234.692 444.608 235.588 444.608ZM256.532 450.92C256.532 451.336 256.508 451.776 256.46 452.24H245.948C246.028 453.536 246.468 454.552 247.268 455.288C248.084 456.008 249.068 456.368 250.22 456.368C251.164 456.368 251.948 456.152 252.572 455.72C253.212 455.272 253.66 454.68 253.916 453.944H256.268C255.916 455.208 255.212 456.24 254.156 457.04C253.1 457.824 251.788 458.216 250.22 458.216C248.972 458.216 247.852 457.936 246.86 457.376C245.884 456.816 245.116 456.024 244.556 455C243.996 453.96 243.716 452.76 243.716 451.4C243.716 450.04 243.988 448.848 244.532 447.824C245.076 446.8 245.836 446.016 246.812 445.472C247.804 444.912 248.94 444.632 250.22 444.632C251.468 444.632 252.572 444.904 253.532 445.448C254.492 445.992 255.228 446.744 255.74 447.704C256.268 448.648 256.532 449.72 256.532 450.92ZM254.276 450.464C254.276 449.632 254.092 448.92 253.724 448.328C253.356 447.72 252.852 447.264 252.212 446.96C251.588 446.64 250.892 446.48 250.124 446.48C249.02 446.48 248.076 446.832 247.292 447.536C246.524 448.24 246.084 449.216 245.972 450.464H254.276ZM271.414 450.92C271.414 451.336 271.39 451.776 271.342 452.24H260.83C260.91 453.536 261.35 454.552 262.15 455.288C262.966 456.008 263.95 456.368 265.102 456.368C266.046 456.368 266.83 456.152 267.454 455.72C268.094 455.272 268.542 454.68 268.798 453.944H271.15C270.798 455.208 270.094 456.24 269.038 457.04C267.982 457.824 266.67 458.216 265.102 458.216C263.854 458.216 262.734 457.936 261.742 457.376C260.766 456.816 259.998 456.024 259.438 455C258.878 453.96 258.598 452.76 258.598 451.4C258.598 450.04 258.87 448.848 259.414 447.824C259.958 446.8 260.718 446.016 261.694 445.472C262.686 444.912 263.822 444.632 265.102 444.632C266.35 444.632 267.454 444.904 268.414 445.448C269.374 445.992 270.11 446.744 270.622 447.704C271.15 448.648 271.414 449.72 271.414 450.92ZM269.158 450.464C269.158 449.632 268.974 448.92 268.606 448.328C268.238 447.72 267.734 447.264 267.094 446.96C266.47 446.64 265.774 446.48 265.006 446.48C263.902 446.48 262.958 446.832 262.174 447.536C261.406 448.24 260.966 449.216 260.854 450.464H269.158ZM273.481 451.376C273.481 450.032 273.753 448.856 274.297 447.848C274.841 446.824 275.585 446.032 276.529 445.472C277.489 444.912 278.561 444.632 279.745 444.632C280.769 444.632 281.721 444.872 282.601 445.352C283.481 445.816 284.153 446.432 284.617 447.2V440.24H286.825V458H284.617V455.528C284.185 456.312 283.545 456.96 282.697 457.472C281.849 457.968 280.857 458.216 279.721 458.216C278.553 458.216 277.489 457.928 276.529 457.352C275.585 456.776 274.841 455.968 274.297 454.928C273.753 453.888 273.481 452.704 273.481 451.376ZM284.617 451.4C284.617 450.408 284.417 449.544 284.017 448.808C283.617 448.072 283.073 447.512 282.385 447.128C281.713 446.728 280.969 446.528 280.153 446.528C279.337 446.528 278.593 446.72 277.921 447.104C277.249 447.488 276.713 448.048 276.313 448.784C275.913 449.52 275.713 450.384 275.713 451.376C275.713 452.384 275.913 453.264 276.313 454.016C276.713 454.752 277.249 455.32 277.921 455.72C278.593 456.104 279.337 456.296 280.153 456.296C280.969 456.296 281.713 456.104 282.385 455.72C283.073 455.32 283.617 454.752 284.017 454.016C284.417 453.264 284.617 452.392 284.617 451.4ZM295.172 458.216C294.164 458.216 293.26 458.048 292.46 457.712C291.66 457.36 291.028 456.88 290.564 456.272C290.1 455.648 289.844 454.936 289.796 454.136H292.052C292.116 454.792 292.42 455.328 292.964 455.744C293.524 456.16 294.252 456.368 295.148 456.368C295.98 456.368 296.636 456.184 297.116 455.816C297.596 455.448 297.836 454.984 297.836 454.424C297.836 453.848 297.58 453.424 297.068 453.152C296.556 452.864 295.764 452.584 294.692 452.312C293.716 452.056 292.916 451.8 292.292 451.544C291.684 451.272 291.156 450.88 290.708 450.368C290.276 449.84 290.06 449.152 290.06 448.304C290.06 447.632 290.26 447.016 290.66 446.456C291.06 445.896 291.628 445.456 292.364 445.136C293.1 444.8 293.94 444.632 294.884 444.632C296.34 444.632 297.516 445 298.412 445.736C299.308 446.472 299.788 447.48 299.852 448.76H297.668C297.62 448.072 297.34 447.52 296.828 447.104C296.332 446.688 295.66 446.48 294.812 446.48C294.028 446.48 293.404 446.648 292.94 446.984C292.476 447.32 292.244 447.76 292.244 448.304C292.244 448.736 292.38 449.096 292.652 449.384C292.94 449.656 293.292 449.88 293.708 450.056C294.14 450.216 294.732 450.4 295.484 450.608C296.428 450.864 297.196 451.12 297.788 451.376C298.38 451.616 298.884 451.984 299.3 452.48C299.732 452.976 299.956 453.624 299.972 454.424C299.972 455.144 299.772 455.792 299.372 456.368C298.972 456.944 298.404 457.4 297.668 457.736C296.948 458.056 296.116 458.216 295.172 458.216ZM303.751 458.144C303.335 458.144 302.983 458 302.695 457.712C302.407 457.424 302.263 457.072 302.263 456.656C302.263 456.24 302.407 455.888 302.695 455.6C302.983 455.312 303.335 455.168 303.751 455.168C304.151 455.168 304.487 455.312 304.759 455.6C305.047 455.888 305.191 456.24 305.191 456.656C305.191 457.072 305.047 457.424 304.759 457.712C304.487 458 304.151 458.144 303.751 458.144Z" fill="#595959"/>
<g filter="url(#filter2_d_1006_2811)">
<rect x="22" y="21" width="425" height="302" rx="20" fill="white"/>
<rect x="46" y="46" width="157.676" height="150" rx="10" fill="#F5F4F4"/>
<rect x="46" y="206" width="117.947" height="115" rx="10" fill="#F5F4F4"/>
<rect x="175.121" y="206" width="117.947" height="115" rx="10" fill="#F5F4F4"/>
<rect x="305.482" y="206" width="117.947" height="115" rx="10" fill="#F5F4F4"/>
<rect x="217.334" y="46" width="206.096" height="150" rx="10" fill="#F5F4F4"/>
</g>
</g>
<defs>
<filter id="filter0_f_1006_2811" x="-325.6" y="-89.6" width="1517.2" height="1517.2" filterUnits="userSpaceOnUse" color-interpolation-filters="sRGB">
<feFlood flood-opacity="0" result="BackgroundImageFix"/>
<feBlend mode="normal" in="SourceGraphic" in2="BackgroundImageFix" result="shape"/>
<feGaussianBlur stdDeviation="268.8" result="effect1_foregroundBlur_1006_2811"/>
</filter>
<filter id="filter1_f_1006_2811" x="-857.6" y="-987.6" width="1517.2" height="1517.2" filterUnits="userSpaceOnUse" color-interpolation-filters="sRGB">
<feFlood flood-opacity="0" result="BackgroundImageFix"/>
<feBlend mode="normal" in="SourceGraphic" in2="BackgroundImageFix" result="shape"/>
<feGaussianBlur stdDeviation="268.8" result="effect1_foregroundBlur_1006_2811"/>
</filter>
<filter id="filter2_d_1006_2811" x="-19" y="-15" width="507" height="384" filterUnits="userSpaceOnUse" color-interpolation-filters="sRGB">
<feFlood flood-opacity="0" result="BackgroundImageFix"/>
<feColorMatrix in="SourceAlpha" type="matrix" values="0 0 0 0 0 0 0 0 0 0 0 0 0 0 0 0 0 0 127 0" result="hardAlpha"/>
<feMorphology radius="1" operator="dilate" in="SourceAlpha" result="effect1_dropShadow_1006_2811"/>
<feOffset dy="5"/>
<feGaussianBlur stdDeviation="20"/>
<feComposite in2="hardAlpha" operator="out"/>
<feColorMatrix type="matrix" values="0 0 0 0 0 0 0 0 0 0.105882 0 0 0 0 0.419608 0 0 0 0.08 0"/>
<feBlend mode="normal" in2="BackgroundImageFix" result="effect1_dropShadow_1006_2811"/>
<feBlend mode="normal" in="SourceGraphic" in2="effect1_dropShadow_1006_2811" result="shape"/>
</filter>
<clipPath id="clip0_1006_2811">
<rect width="473" height="504" rx="20" fill="white"/>
</clipPath>
</defs>
</svg>
