<svg width="808" height="460" viewBox="0 0 808 460" fill="none" xmlns="http://www.w3.org/2000/svg">
<g clip-path="url(#clip0_1043_744)">
<rect x="0.783203" y="0.375" width="798.795" height="458.941" rx="14.055" fill="white"/>
<path d="M57.8701 54.5898L56.6221 51.1356H49.8474L48.5994 54.5898H46.46L52.0759 39.146H54.4159L60.0095 54.5898H57.8701ZM56.0427 49.4865L53.2347 41.642L50.4268 49.4865H56.0427ZM61.6994 48.4391C61.6994 44.6282 64.2177 42.1768 67.5159 42.1768C69.4325 42.1768 71.193 43.1574 72.0399 44.5614V38.0986H74.0901V54.5898H72.0399V52.2944C71.3044 53.6539 69.7222 54.7904 67.4936 54.7904C64.2177 54.7904 61.6994 52.2276 61.6994 48.4391ZM72.0399 48.4613C72.0399 45.6311 70.1233 43.9374 67.8948 43.9374C65.6662 43.9374 63.7719 45.5642 63.7719 48.4391C63.7719 51.3139 65.6662 53.0076 67.8948 53.0076C70.1233 53.0076 72.0399 51.3362 72.0399 48.4613ZM93.5539 50.3556C93.5539 52.5619 91.7487 54.7458 88.3836 54.7458C85.2637 54.7458 83.0574 53.0076 83.0128 50.4447H85.1745C85.3082 51.7373 86.2219 53.0299 88.3836 53.0299C90.3448 53.0299 91.5036 51.9156 91.5036 50.4447C91.5036 46.2551 83.102 48.9293 83.102 43.1574C83.102 40.5946 85.1745 38.8563 88.2499 38.8563C91.2139 38.8563 93.1527 40.4831 93.3979 42.8454H91.1693C91.0356 41.798 90.055 40.6169 88.1608 40.5946C86.4894 40.55 85.1745 41.4191 85.1745 43.0905C85.1745 47.1019 93.5539 44.606 93.5539 50.3556ZM98.5662 44.6282C99.3016 43.3357 100.906 42.1768 103.135 42.1768C106.411 42.1768 108.929 44.6282 108.929 48.4391C108.929 52.2276 106.411 54.7904 103.135 54.7904C100.906 54.7904 99.3239 53.587 98.5662 52.339V60.3841H96.5382V42.3774H98.5662V44.6282ZM106.856 48.4391C106.856 45.5642 104.962 43.9374 102.711 43.9374C100.505 43.9374 98.5662 45.6311 98.5662 48.4613C98.5662 51.3362 100.505 53.0076 102.711 53.0076C104.962 53.0076 106.856 51.3139 106.856 48.4391ZM116.791 43.8928C114.807 43.8928 113.158 45.2077 112.935 47.5922H120.646C120.668 45.2077 118.886 43.8928 116.791 43.8928ZM122.496 50.8236C121.872 53.0521 119.911 54.7904 116.88 54.7904C113.403 54.7904 110.841 52.339 110.841 48.4613C110.841 44.606 113.314 42.1768 116.88 42.1768C120.423 42.1768 122.741 44.6728 122.741 48.0156C122.741 48.4613 122.719 48.8179 122.674 49.2413H112.913C113.069 51.715 114.807 53.0744 116.88 53.0744C118.707 53.0744 119.866 52.1384 120.312 50.8236H122.496ZM134.354 54.5898V47.6813C134.354 45.1854 132.995 43.9151 130.945 43.9151C128.872 43.9151 127.446 45.2077 127.446 47.8373V54.5898H125.418V42.3774H127.446V44.1157C128.248 42.8454 129.719 42.1546 131.368 42.1546C134.198 42.1546 136.36 43.8928 136.36 47.3916V54.5898H134.354ZM138.915 48.4391C138.915 44.6282 141.433 42.1768 144.732 42.1768C146.648 42.1768 148.409 43.1574 149.256 44.5614V38.0986H151.306V54.5898H149.256V52.2944C148.52 53.6539 146.938 54.7904 144.709 54.7904C141.433 54.7904 138.915 52.2276 138.915 48.4391ZM149.256 48.4613C149.256 45.6311 147.339 43.9374 145.11 43.9374C142.882 43.9374 140.988 45.5642 140.988 48.4391C140.988 51.3139 142.882 53.0076 145.11 53.0076C147.339 53.0076 149.256 51.3362 149.256 48.4613ZM165.51 39.0569C170.614 39.0569 173.756 42.0431 173.756 46.8568C173.756 51.6704 170.614 54.5898 165.51 54.5898H160.674V39.0569H165.51ZM162.702 52.9184H165.51C169.566 52.9184 171.683 50.6453 171.683 46.8568C171.683 43.0683 169.566 40.706 165.51 40.706H162.702V52.9184ZM176.431 54.5898V42.3774H178.459V54.5898H176.431ZM177.478 40.394C176.698 40.394 176.096 39.7923 176.096 39.0123C176.096 38.2323 176.698 37.6306 177.478 37.6306C178.214 37.6306 178.815 38.2323 178.815 39.0123C178.815 39.7923 178.214 40.394 177.478 40.394ZM190.696 51.2693C190.696 53.275 188.935 54.7904 186.238 54.7904C183.386 54.7904 181.38 53.2304 181.246 51.0019H183.341C183.453 52.183 184.5 53.0744 186.216 53.0744C187.821 53.0744 188.712 52.2722 188.712 51.2693C188.712 48.5505 181.492 50.1327 181.492 45.5865C181.492 43.7145 183.252 42.1768 185.971 42.1768C188.668 42.1768 190.45 43.6254 190.584 46.0099H188.556C188.467 44.7842 187.531 43.8928 185.904 43.8928C184.411 43.8928 183.52 44.606 183.52 45.5865C183.52 48.4836 190.606 46.9014 190.696 51.2693ZM194.004 51.247V44.0488H192.422V42.3774H194.004V39.302H196.032V42.3774H199.219V44.0488H196.032V51.247C196.032 52.4504 196.478 52.8739 197.726 52.8739H199.219V54.5898H197.391C195.23 54.5898 194.004 53.6984 194.004 51.247ZM203.704 47.9488V54.5898H201.676V42.3774H203.704V44.3608C204.395 43.0014 205.71 42.1546 207.649 42.1546V44.2494H207.114C205.175 44.2494 203.704 45.1185 203.704 47.9488ZM209.99 54.5898V42.3774H212.018V54.5898H209.99ZM211.037 40.394C210.257 40.394 209.655 39.7923 209.655 39.0123C209.655 38.2323 210.257 37.6306 211.037 37.6306C211.772 37.6306 212.374 38.2323 212.374 39.0123C212.374 39.7923 211.772 40.394 211.037 40.394ZM217.502 44.6505C218.282 43.2911 219.909 42.1768 222.07 42.1768C225.369 42.1768 227.865 44.6282 227.865 48.4391C227.865 52.2276 225.346 54.7904 222.07 54.7904C219.842 54.7904 218.26 53.6761 217.502 52.339V54.5898H215.474V38.0986H217.502V44.6505ZM225.792 48.4391C225.792 45.5642 223.898 43.9374 221.647 43.9374C219.441 43.9374 217.502 45.6311 217.502 48.4613C217.502 51.3362 219.441 53.0076 221.647 53.0076C223.898 53.0076 225.792 51.3139 225.792 48.4391ZM241.365 42.3774V54.5898H239.337V52.7847C238.557 54.055 237.064 54.7681 235.437 54.7681C232.629 54.7681 230.423 53.0299 230.423 49.531V42.3774H232.428V49.2636C232.428 51.7373 233.788 53.0076 235.838 53.0076C237.933 53.0076 239.337 51.715 239.337 49.0853V42.3774H241.365ZM245.235 51.247V44.0488H243.652V42.3774H245.235V39.302H247.262V42.3774H250.449V44.0488H247.262V51.247C247.262 52.4504 247.708 52.8739 248.956 52.8739H250.449V54.5898H248.622C246.46 54.5898 245.235 53.6984 245.235 51.247ZM252.906 54.5898V42.3774H254.934V54.5898H252.906ZM253.954 40.394C253.174 40.394 252.572 39.7923 252.572 39.0123C252.572 38.2323 253.174 37.6306 253.954 37.6306C254.689 37.6306 255.291 38.2323 255.291 39.0123C255.291 39.7923 254.689 40.394 253.954 40.394ZM269.979 48.4613C269.979 52.339 267.194 54.7904 263.717 54.7904C260.263 54.7904 257.633 52.339 257.633 48.4613C257.633 44.606 260.352 42.1768 263.806 42.1768C267.283 42.1768 269.979 44.606 269.979 48.4613ZM259.706 48.4613C259.706 51.559 261.6 53.0076 263.717 53.0076C265.834 53.0076 267.907 51.559 267.907 48.4613C267.907 45.3859 265.879 43.9374 263.784 43.9374C261.644 43.9374 259.706 45.3859 259.706 48.4613ZM281.582 54.5898V47.6813C281.582 45.1854 280.223 43.9151 278.172 43.9151C276.1 43.9151 274.674 45.2077 274.674 47.8373V54.5898H272.646V42.3774H274.674V44.1157C275.476 42.8454 276.947 42.1546 278.596 42.1546C281.426 42.1546 283.588 43.8928 283.588 47.3916V54.5898H281.582Z" fill="#1D0033"/>
<g filter="url(#filter0_d_1043_744)">
<path d="M119.555 102.237V101.412H124.814V102.237H122.697V109.179H121.683V102.237H119.555ZM132.553 106.114C132.553 108.053 131.16 109.279 129.422 109.279C127.695 109.279 126.38 108.053 126.38 106.114C126.38 104.187 127.739 102.972 129.466 102.972C131.205 102.972 132.553 104.187 132.553 106.114ZM127.416 106.114C127.416 107.663 128.363 108.388 129.422 108.388C130.48 108.388 131.517 107.663 131.517 106.114C131.517 104.577 130.503 103.852 129.455 103.852C128.385 103.852 127.416 104.577 127.416 106.114ZM135.596 104.198C135.964 103.552 136.766 102.972 137.881 102.972C139.519 102.972 140.778 104.198 140.778 106.103C140.778 107.998 139.519 109.279 137.881 109.279C136.766 109.279 135.975 108.677 135.596 108.053V112.076H134.582V103.072H135.596V104.198ZM139.742 106.103C139.742 104.666 138.794 103.852 137.669 103.852C136.566 103.852 135.596 104.699 135.596 106.114C135.596 107.552 136.566 108.388 137.669 108.388C138.794 108.388 139.742 107.541 139.742 106.103ZM151.524 107.062C151.524 108.165 150.621 109.257 148.939 109.257C147.379 109.257 146.275 108.388 146.253 107.106H147.334C147.401 107.752 147.858 108.399 148.939 108.399C149.919 108.399 150.499 107.842 150.499 107.106C150.499 105.011 146.298 106.348 146.298 103.462C146.298 102.181 147.334 101.312 148.872 101.312C150.354 101.312 151.323 102.125 151.446 103.306H150.331C150.265 102.783 149.774 102.192 148.827 102.181C147.991 102.159 147.334 102.593 147.334 103.429C147.334 105.435 151.524 104.187 151.524 107.062ZM154.726 104.198C155.094 103.552 155.896 102.972 157.011 102.972C158.648 102.972 159.908 104.198 159.908 106.103C159.908 107.998 158.648 109.279 157.011 109.279C155.896 109.279 155.105 108.677 154.726 108.053V112.076H153.712V103.072H154.726V104.198ZM158.871 106.103C158.871 104.666 157.924 103.852 156.799 103.852C155.696 103.852 154.726 104.699 154.726 106.114C154.726 107.552 155.696 108.388 156.799 108.388C157.924 108.388 158.871 107.541 158.871 106.103ZM164.535 103.83C163.543 103.83 162.719 104.488 162.607 105.68H166.463C166.474 104.488 165.582 103.83 164.535 103.83ZM167.388 107.296C167.076 108.41 166.095 109.279 164.58 109.279C162.841 109.279 161.56 108.053 161.56 106.114C161.56 104.187 162.797 102.972 164.58 102.972C166.351 102.972 167.51 104.22 167.51 105.892C167.51 106.114 167.499 106.293 167.477 106.504H162.596C162.674 107.741 163.543 108.421 164.58 108.421C165.493 108.421 166.073 107.953 166.296 107.296H167.388ZM174.013 109.179V105.724C174.013 104.476 173.333 103.841 172.308 103.841C171.272 103.841 170.559 104.488 170.559 105.802V109.179H169.545V103.072H170.559V103.942C170.96 103.306 171.695 102.961 172.52 102.961C173.935 102.961 175.016 103.83 175.016 105.58V109.179H174.013ZM176.99 106.103C176.99 104.198 178.249 102.972 179.898 102.972C180.856 102.972 181.737 103.462 182.16 104.164V100.933H183.185V109.179H182.16V108.031C181.792 108.711 181.001 109.279 179.887 109.279C178.249 109.279 176.99 107.998 176.99 106.103ZM182.16 106.114C182.16 104.699 181.202 103.852 180.088 103.852C178.973 103.852 178.026 104.666 178.026 106.103C178.026 107.541 178.973 108.388 180.088 108.388C181.202 108.388 182.16 107.552 182.16 106.114ZM185.595 109.179V103.072H186.609V109.179H185.595ZM186.119 102.081C185.729 102.081 185.428 101.78 185.428 101.39C185.428 101 185.729 100.699 186.119 100.699C186.487 100.699 186.788 101 186.788 101.39C186.788 101.78 186.487 102.081 186.119 102.081ZM193.502 109.179V105.724C193.502 104.476 192.822 103.841 191.797 103.841C190.761 103.841 190.048 104.488 190.048 105.802V109.179H189.034V103.072H190.048V103.942C190.449 103.306 191.184 102.961 192.009 102.961C193.424 102.961 194.505 103.83 194.505 105.58V109.179H193.502ZM196.479 106.103C196.479 104.198 197.738 102.972 199.376 102.972C200.49 102.972 201.293 103.529 201.649 104.187V103.072H202.674V109.312C202.674 110.995 201.549 112.187 199.755 112.187C198.15 112.187 197.003 111.374 196.802 110.07H197.805C198.028 110.806 198.752 111.307 199.755 111.307C200.836 111.307 201.649 110.616 201.649 109.312V108.031C201.281 108.688 200.49 109.279 199.376 109.279C197.738 109.279 196.479 107.998 196.479 106.103ZM201.649 106.114C201.649 104.699 200.691 103.852 199.577 103.852C198.462 103.852 197.515 104.666 197.515 106.103C197.515 107.541 198.462 108.388 199.577 108.388C200.691 108.388 201.649 107.552 201.649 106.114ZM208.372 105.29C208.372 102.961 210.077 101.312 212.25 101.312C213.933 101.312 215.27 102.159 215.849 103.663H214.635C214.211 102.727 213.387 102.203 212.25 102.203C210.623 102.203 209.409 103.384 209.409 105.29C209.409 107.184 210.623 108.365 212.25 108.365C213.387 108.365 214.211 107.842 214.635 106.917H215.849C215.27 108.41 213.933 109.246 212.25 109.246C210.077 109.246 208.372 107.619 208.372 105.29ZM217.676 106.103C217.676 104.198 218.935 102.972 220.573 102.972C221.71 102.972 222.49 103.552 222.846 104.187V103.072H223.872V109.179H222.846V108.042C222.479 108.7 221.688 109.279 220.562 109.279C218.935 109.279 217.676 107.998 217.676 106.103ZM222.846 106.114C222.846 104.699 221.888 103.852 220.774 103.852C219.66 103.852 218.712 104.666 218.712 106.103C218.712 107.541 219.66 108.388 220.774 108.388C221.888 108.388 222.846 107.552 222.846 106.114ZM226.504 107.507V103.908H225.713V103.072H226.504V101.535H227.518V103.072H229.112V103.908H227.518V107.507C227.518 108.109 227.741 108.321 228.365 108.321H229.112V109.179H228.198C227.117 109.179 226.504 108.733 226.504 107.507ZM233.633 103.83C232.641 103.83 231.817 104.488 231.705 105.68H235.561C235.572 104.488 234.68 103.83 233.633 103.83ZM236.486 107.296C236.174 108.41 235.193 109.279 233.678 109.279C231.939 109.279 230.658 108.053 230.658 106.114C230.658 104.187 231.895 102.972 233.678 102.972C235.449 102.972 236.608 104.22 236.608 105.892C236.608 106.114 236.597 106.293 236.575 106.504H231.694C231.772 107.741 232.641 108.421 233.678 108.421C234.591 108.421 235.171 107.953 235.394 107.296H236.486ZM238.264 106.103C238.264 104.198 239.523 102.972 241.161 102.972C242.276 102.972 243.078 103.529 243.434 104.187V103.072H244.459V109.312C244.459 110.995 243.334 112.187 241.54 112.187C239.936 112.187 238.788 111.374 238.587 110.07H239.59C239.813 110.806 240.537 111.307 241.54 111.307C242.621 111.307 243.434 110.616 243.434 109.312V108.031C243.067 108.688 242.276 109.279 241.161 109.279C239.523 109.279 238.264 107.998 238.264 106.103ZM243.434 106.114C243.434 104.699 242.476 103.852 241.362 103.852C240.248 103.852 239.3 104.666 239.3 106.103C239.3 107.541 240.248 108.388 241.362 108.388C242.476 108.388 243.434 107.552 243.434 106.114ZM252.664 106.114C252.664 108.053 251.271 109.279 249.533 109.279C247.805 109.279 246.491 108.053 246.491 106.114C246.491 104.187 247.85 102.972 249.577 102.972C251.315 102.972 252.664 104.187 252.664 106.114ZM247.527 106.114C247.527 107.663 248.474 108.388 249.533 108.388C250.591 108.388 251.627 107.663 251.627 106.114C251.627 104.577 250.613 103.852 249.566 103.852C248.496 103.852 247.527 104.577 247.527 106.114ZM255.707 105.858V109.179H254.693V103.072H255.707V104.064C256.053 103.384 256.71 102.961 257.68 102.961V104.008H257.412C256.443 104.008 255.707 104.443 255.707 105.858ZM259.546 109.179V103.072H260.56V109.179H259.546ZM260.07 102.081C259.68 102.081 259.379 101.78 259.379 101.39C259.379 101 259.68 100.699 260.07 100.699C260.438 100.699 260.739 101 260.739 101.39C260.739 101.78 260.438 102.081 260.07 102.081ZM265.581 103.83C264.59 103.83 263.765 104.488 263.654 105.68H267.509C267.52 104.488 266.629 103.83 265.581 103.83ZM268.434 107.296C268.122 108.41 267.141 109.279 265.626 109.279C263.888 109.279 262.606 108.053 262.606 106.114C262.606 104.187 263.843 102.972 265.626 102.972C267.398 102.972 268.556 104.22 268.556 105.892C268.556 106.114 268.545 106.293 268.523 106.504H263.642C263.72 107.741 264.59 108.421 265.626 108.421C266.54 108.421 267.119 107.953 267.342 107.296H268.434ZM274.982 107.518C274.982 108.521 274.101 109.279 272.753 109.279C271.327 109.279 270.324 108.499 270.257 107.385H271.304C271.36 107.975 271.884 108.421 272.742 108.421C273.544 108.421 273.99 108.02 273.99 107.518C273.99 106.159 270.38 106.95 270.38 104.677C270.38 103.741 271.26 102.972 272.619 102.972C273.968 102.972 274.859 103.696 274.926 104.889H273.912C273.867 104.276 273.399 103.83 272.586 103.83C271.839 103.83 271.394 104.187 271.394 104.677C271.394 106.126 274.937 105.334 274.982 107.518Z" fill="#282636"/>
<path d="M263.028 277.712V275.918H258.905V275.149L262.816 269.734H264.03V275.038H265.145V275.918H264.03V277.712H263.028ZM260.075 275.038H263.072V270.792L260.075 275.038ZM267.144 269.645H271.991V270.536H268.08V273.077C268.414 272.62 269.127 272.263 269.918 272.263C271.879 272.263 272.503 273.678 272.503 274.926C272.503 276.486 271.634 277.734 269.751 277.734C268.147 277.734 267.177 276.832 266.977 275.528H267.968C268.158 276.375 268.815 276.876 269.762 276.876C270.988 276.876 271.534 276.052 271.534 274.949C271.534 273.801 270.943 273.132 269.773 273.132C268.96 273.132 268.369 273.556 268.102 274.191H267.144V269.645ZM275.706 277.088C275.706 277.478 275.405 277.779 275.038 277.779C274.648 277.779 274.347 277.478 274.347 277.088C274.347 276.698 274.648 276.397 275.038 276.397C275.405 276.397 275.706 276.698 275.706 277.088ZM277.583 273.6C277.583 271.294 278.163 269.533 280.391 269.533C282.609 269.533 283.188 271.294 283.188 273.6C283.188 275.94 282.609 277.712 280.391 277.712C278.163 277.712 277.583 275.94 277.583 273.6ZM282.185 273.6C282.185 271.929 281.973 270.458 280.391 270.458C278.798 270.458 278.586 271.929 278.586 273.6C278.586 275.339 278.798 276.787 280.391 276.787C281.973 276.787 282.185 275.339 282.185 273.6ZM285.054 271.472C285.054 270.436 285.756 269.812 286.68 269.812C287.616 269.812 288.307 270.436 288.307 271.472C288.307 272.519 287.616 273.143 286.68 273.143C285.756 273.143 285.054 272.519 285.054 271.472ZM286.68 270.436C286.19 270.436 285.867 270.77 285.867 271.472C285.867 272.163 286.19 272.519 286.68 272.519C287.171 272.519 287.505 272.163 287.505 271.472C287.505 270.77 287.171 270.436 286.68 270.436ZM286.045 277.712L290.558 269.934H291.561L287.048 277.712H286.045ZM289.321 276.174C289.321 275.127 290.012 274.503 290.948 274.503C291.873 274.503 292.564 275.127 292.564 276.174C292.564 277.21 291.873 277.846 290.948 277.846C290.012 277.846 289.321 277.21 289.321 276.174ZM290.937 275.138C290.447 275.138 290.112 275.472 290.112 276.174C290.112 276.865 290.447 277.199 290.937 277.199C291.427 277.199 291.762 276.865 291.762 276.174C291.762 275.472 291.427 275.138 290.937 275.138Z" fill="white"/>
</g>
<circle cx="228.162" cy="254.917" r="71.0349" stroke="#FFD0EA" stroke-width="42.4817"/>
<mask id="path-8-inside-1_1043_744" fill="white">
<path d="M300.828 311.789C291.862 323.245 280.314 332.419 267.127 338.562C253.94 344.705 239.488 347.643 224.949 347.136C210.41 346.63 196.197 342.693 183.47 335.647C170.743 328.601 159.861 318.646 151.714 306.593L186.904 282.806C191.301 289.311 197.173 294.684 204.042 298.486C210.911 302.289 218.582 304.413 226.428 304.687C234.275 304.96 242.075 303.375 249.192 300.059C256.309 296.744 262.541 291.793 267.38 285.61L300.828 311.789Z"/>
</mask>
<path d="M300.828 311.789C291.862 323.245 280.314 332.419 267.127 338.562C253.94 344.705 239.488 347.643 224.949 347.136C210.41 346.63 196.197 342.693 183.47 335.647C170.743 328.601 159.861 318.646 151.714 306.593L186.904 282.806C191.301 289.311 197.173 294.684 204.042 298.486C210.911 302.289 218.582 304.413 226.428 304.687C234.275 304.96 242.075 303.375 249.192 300.059C256.309 296.744 262.541 291.793 267.38 285.61L300.828 311.789Z" stroke="#9999FF" stroke-width="84.9634" mask="url(#path-8-inside-1_1043_744)"/>
<mask id="path-9-inside-2_1043_744" fill="white">
<path d="M225.747 162.672C237.861 162.355 249.919 164.427 261.232 168.77C272.545 173.112 282.891 179.641 291.681 187.982C300.471 196.324 307.532 206.315 312.461 217.385C317.389 228.455 320.09 240.388 320.407 252.501L277.946 253.613C277.775 247.075 276.318 240.635 273.658 234.661C270.998 228.686 267.187 223.294 262.443 218.792C257.699 214.291 252.115 210.767 246.01 208.424C239.904 206.08 233.397 204.962 226.859 205.133L225.747 162.672Z"/>
</mask>
<path d="M225.747 162.672C237.861 162.355 249.919 164.427 261.232 168.77C272.545 173.112 282.891 179.641 291.681 187.982C300.471 196.324 307.532 206.315 312.461 217.385C317.389 228.455 320.09 240.388 320.407 252.501L277.946 253.613C277.775 247.075 276.318 240.635 273.658 234.661C270.998 228.686 267.187 223.294 262.443 218.792C257.699 214.291 252.115 210.767 246.01 208.424C239.904 206.08 233.397 204.962 226.859 205.133L225.747 162.672Z" stroke="#DDB2FF" stroke-width="84.9634" mask="url(#path-9-inside-2_1043_744)"/>
<mask id="path-10-inside-3_1043_744" fill="white">
<path d="M199.439 342.608C178.626 335.79 160.916 321.792 149.476 303.116C138.036 284.44 133.611 262.303 136.994 240.665C140.377 219.026 151.345 199.296 167.94 185.002C184.534 170.708 205.671 162.783 227.572 162.643L227.844 205.117C216.024 205.192 204.616 209.47 195.661 217.184C186.705 224.898 180.785 235.547 178.959 247.225C177.134 258.903 179.522 270.85 185.696 280.929C191.87 291.009 201.428 298.564 212.661 302.243L199.439 342.608Z"/>
</mask>
<path d="M199.439 342.608C178.626 335.79 160.916 321.792 149.476 303.116C138.036 284.44 133.611 262.303 136.994 240.665C140.377 219.026 151.345 199.296 167.94 185.002C184.534 170.708 205.671 162.783 227.572 162.643L227.844 205.117C216.024 205.192 204.616 209.47 195.661 217.184C186.705 224.898 180.785 235.547 178.959 247.225C177.134 258.903 179.522 270.85 185.696 280.929C191.87 291.009 201.428 298.564 212.661 302.243L199.439 342.608Z" stroke="#FF1494" stroke-width="84.9634" mask="url(#path-10-inside-3_1043_744)"/>
<path d="M146.723 248.461V246.667H142.6V245.898L146.511 240.483H147.726V245.787H148.84V246.667H147.726V248.461H146.723ZM143.77 245.787H146.767V241.541L143.77 245.787ZM150.839 240.394H155.686V241.285H151.775V243.826C152.109 243.369 152.822 243.012 153.614 243.012C155.575 243.012 156.199 244.427 156.199 245.675C156.199 247.235 155.33 248.483 153.446 248.483C151.842 248.483 150.872 247.581 150.672 246.277H151.664C151.853 247.124 152.51 247.625 153.458 247.625C154.683 247.625 155.229 246.801 155.229 245.698C155.229 244.55 154.639 243.881 153.469 243.881C152.655 243.881 152.065 244.305 151.797 244.94H150.839V240.394ZM159.401 247.837C159.401 248.227 159.101 248.528 158.733 248.528C158.343 248.528 158.042 248.227 158.042 247.837C158.042 247.447 158.343 247.146 158.733 247.146C159.101 247.146 159.401 247.447 159.401 247.837ZM161.279 244.349C161.279 242.043 161.858 240.282 164.087 240.282C166.304 240.282 166.883 242.043 166.883 244.349C166.883 246.689 166.304 248.461 164.087 248.461C161.858 248.461 161.279 246.689 161.279 244.349ZM165.88 244.349C165.88 242.678 165.669 241.207 164.087 241.207C162.493 241.207 162.281 242.678 162.281 244.349C162.281 246.088 162.493 247.536 164.087 247.536C165.669 247.536 165.88 246.088 165.88 244.349ZM168.749 242.221C168.749 241.185 169.451 240.561 170.376 240.561C171.312 240.561 172.003 241.185 172.003 242.221C172.003 243.268 171.312 243.892 170.376 243.892C169.451 243.892 168.749 243.268 168.749 242.221ZM170.376 241.185C169.886 241.185 169.562 241.519 169.562 242.221C169.562 242.912 169.886 243.268 170.376 243.268C170.866 243.268 171.2 242.912 171.2 242.221C171.2 241.519 170.866 241.185 170.376 241.185ZM169.741 248.461L174.253 240.683H175.256L170.744 248.461H169.741ZM173.017 246.923C173.017 245.876 173.707 245.252 174.643 245.252C175.568 245.252 176.259 245.876 176.259 246.923C176.259 247.96 175.568 248.595 174.643 248.595C173.707 248.595 173.017 247.96 173.017 246.923ZM174.632 245.887C174.142 245.887 173.808 246.221 173.808 246.923C173.808 247.614 174.142 247.948 174.632 247.948C175.123 247.948 175.457 247.614 175.457 246.923C175.457 246.221 175.123 245.887 174.632 245.887Z" fill="white"/>
<path d="M264.696 205.523C264.796 204.141 265.844 203.339 267.337 203.339C268.908 203.339 269.766 204.252 269.766 205.411C269.766 206.336 269.186 207.06 268.34 207.25V207.305C269.276 207.528 269.911 208.219 269.911 209.378C269.911 210.626 269.042 211.606 267.359 211.606C265.832 211.606 264.696 210.793 264.573 209.233H265.554C265.654 210.091 266.278 210.749 267.348 210.749C268.429 210.749 268.941 210.113 268.941 209.289C268.941 208.152 268.15 207.718 266.702 207.718H266.445V206.871H266.713C268.061 206.86 268.785 206.447 268.785 205.511C268.785 204.743 268.273 204.208 267.303 204.208C266.356 204.208 265.788 204.743 265.688 205.523H264.696ZM271.976 207.439C271.976 205.133 272.556 203.372 274.784 203.372C277.002 203.372 277.581 205.133 277.581 207.439C277.581 209.779 277.002 211.551 274.784 211.551C272.556 211.551 271.976 209.779 271.976 207.439ZM276.578 207.439C276.578 205.768 276.366 204.297 274.784 204.297C273.191 204.297 272.979 205.768 272.979 207.439C272.979 209.177 273.191 210.626 274.784 210.626C276.366 210.626 276.578 209.177 276.578 207.439ZM280.828 210.927C280.828 211.317 280.527 211.618 280.16 211.618C279.77 211.618 279.469 211.317 279.469 210.927C279.469 210.537 279.77 210.236 280.16 210.236C280.527 210.236 280.828 210.537 280.828 210.927ZM282.705 207.439C282.705 205.133 283.285 203.372 285.513 203.372C287.731 203.372 288.31 205.133 288.31 207.439C288.31 209.779 287.731 211.551 285.513 211.551C283.285 211.551 282.705 209.779 282.705 207.439ZM287.307 207.439C287.307 205.768 287.096 204.297 285.513 204.297C283.92 204.297 283.708 205.768 283.708 207.439C283.708 209.177 283.92 210.626 285.513 210.626C287.096 210.626 287.307 209.177 287.307 207.439ZM290.176 205.311C290.176 204.275 290.878 203.651 291.803 203.651C292.739 203.651 293.43 204.275 293.43 205.311C293.43 206.358 292.739 206.982 291.803 206.982C290.878 206.982 290.176 206.358 290.176 205.311ZM291.803 204.275C291.312 204.275 290.989 204.609 290.989 205.311C290.989 206.002 291.312 206.358 291.803 206.358C292.293 206.358 292.627 206.002 292.627 205.311C292.627 204.609 292.293 204.275 291.803 204.275ZM291.168 211.551L295.68 203.773H296.683L292.17 211.551H291.168ZM294.444 210.013C294.444 208.966 295.134 208.342 296.07 208.342C296.995 208.342 297.686 208.966 297.686 210.013C297.686 211.049 296.995 211.684 296.07 211.684C295.134 211.684 294.444 211.049 294.444 210.013ZM296.059 208.977C295.569 208.977 295.235 209.311 295.235 210.013C295.235 210.704 295.569 211.038 296.059 211.038C296.55 211.038 296.884 210.704 296.884 210.013C296.884 209.311 296.55 208.977 296.059 208.977Z" fill="white"/>
<path d="M284.51 271.733H289.357V272.625H285.446V275.165C285.78 274.709 286.493 274.352 287.284 274.352C289.246 274.352 289.87 275.767 289.87 277.015C289.87 278.575 289 279.823 287.117 279.823C285.513 279.823 284.543 278.921 284.343 277.617H285.334C285.524 278.464 286.181 278.965 287.128 278.965C288.354 278.965 288.9 278.141 288.9 277.037C288.9 275.89 288.31 275.221 287.14 275.221C286.326 275.221 285.736 275.645 285.468 276.28H284.51V271.733ZM293.072 279.177C293.072 279.567 292.771 279.868 292.404 279.868C292.014 279.868 291.713 279.567 291.713 279.177C291.713 278.787 292.014 278.486 292.404 278.486C292.771 278.486 293.072 278.787 293.072 279.177ZM294.949 275.689C294.949 273.383 295.529 271.622 297.757 271.622C299.975 271.622 300.554 273.383 300.554 275.689C300.554 278.029 299.975 279.801 297.757 279.801C295.529 279.801 294.949 278.029 294.949 275.689ZM299.551 275.689C299.551 274.018 299.34 272.547 297.757 272.547C296.164 272.547 295.952 274.018 295.952 275.689C295.952 277.427 296.164 278.876 297.757 278.876C299.34 278.876 299.551 277.427 299.551 275.689ZM302.42 273.561C302.42 272.525 303.122 271.901 304.047 271.901C304.983 271.901 305.673 272.525 305.673 273.561C305.673 274.608 304.983 275.232 304.047 275.232C303.122 275.232 302.42 274.608 302.42 273.561ZM304.047 272.525C303.556 272.525 303.233 272.859 303.233 273.561C303.233 274.252 303.556 274.608 304.047 274.608C304.537 274.608 304.871 274.252 304.871 273.561C304.871 272.859 304.537 272.525 304.047 272.525ZM303.412 279.801L307.924 272.023H308.927L304.414 279.801H303.412ZM306.687 278.263C306.687 277.216 307.378 276.592 308.314 276.592C309.239 276.592 309.93 277.216 309.93 278.263C309.93 279.299 309.239 279.934 308.314 279.934C307.378 279.934 306.687 279.299 306.687 278.263ZM308.303 277.227C307.813 277.227 307.479 277.561 307.479 278.263C307.479 278.954 307.813 279.288 308.303 279.288C308.793 279.288 309.128 278.954 309.128 278.263C309.128 277.561 308.793 277.227 308.303 277.227Z" fill="white"/>
<path d="M236.045 322.194V321.47C238.162 319.765 240.168 318.16 240.168 316.511C240.168 315.62 239.778 314.951 238.686 314.951C237.638 314.951 237.103 315.676 237.059 316.69H236.078C236.145 314.974 237.226 314.082 238.675 314.082C240.19 314.082 241.171 314.974 241.171 316.467C241.171 318.472 239.009 320.177 237.571 321.347H241.404V322.194H236.045ZM243.273 318.172C243.273 315.865 243.853 314.104 246.081 314.104C248.298 314.104 248.878 315.865 248.878 318.172C248.878 320.512 248.298 322.283 246.081 322.283C243.853 322.283 243.273 320.512 243.273 318.172ZM247.875 318.172C247.875 316.5 247.663 315.029 246.081 315.029C244.488 315.029 244.276 316.5 244.276 318.172C244.276 319.91 244.488 321.358 246.081 321.358C247.663 321.358 247.875 319.91 247.875 318.172ZM252.125 321.659C252.125 322.049 251.824 322.35 251.457 322.35C251.067 322.35 250.766 322.049 250.766 321.659C250.766 321.269 251.067 320.968 251.457 320.968C251.824 320.968 252.125 321.269 252.125 321.659ZM254.002 318.172C254.002 315.865 254.582 314.104 256.81 314.104C259.028 314.104 259.607 315.865 259.607 318.172C259.607 320.512 259.028 322.283 256.81 322.283C254.582 322.283 254.002 320.512 254.002 318.172ZM258.604 318.172C258.604 316.5 258.393 315.029 256.81 315.029C255.217 315.029 255.005 316.5 255.005 318.172C255.005 319.91 255.217 321.358 256.81 321.358C258.393 321.358 258.604 319.91 258.604 318.172ZM261.473 316.043C261.473 315.007 262.175 314.383 263.1 314.383C264.036 314.383 264.726 315.007 264.726 316.043C264.726 317.091 264.036 317.715 263.1 317.715C262.175 317.715 261.473 317.091 261.473 316.043ZM263.1 315.007C262.609 315.007 262.286 315.341 262.286 316.043C262.286 316.734 262.609 317.091 263.1 317.091C263.59 317.091 263.924 316.734 263.924 316.043C263.924 315.341 263.59 315.007 263.1 315.007ZM262.464 322.283L266.977 314.506H267.98L263.467 322.283H262.464ZM265.74 320.746C265.74 319.698 266.431 319.074 267.367 319.074C268.292 319.074 268.983 319.698 268.983 320.746C268.983 321.782 268.292 322.417 267.367 322.417C266.431 322.417 265.74 321.782 265.74 320.746ZM267.356 319.709C266.866 319.709 266.532 320.044 266.532 320.746C266.532 321.436 266.866 321.771 267.356 321.771C267.846 321.771 268.181 321.436 268.181 320.746C268.181 320.044 267.846 319.709 267.356 319.709Z" fill="white"/>
<path d="M316.741 190.949C316.741 188.62 318.446 186.971 320.619 186.971C322.301 186.971 323.638 187.818 324.218 189.322H323.003C322.58 188.386 321.755 187.863 320.619 187.863C318.992 187.863 317.777 189.044 317.777 190.949C317.777 192.843 318.992 194.024 320.619 194.024C321.755 194.024 322.58 193.501 323.003 192.576H324.218C323.638 194.069 322.301 194.905 320.619 194.905C318.446 194.905 316.741 193.278 316.741 190.949ZM326.045 191.762C326.045 189.857 327.304 188.631 328.942 188.631C330.078 188.631 330.858 189.211 331.215 189.846V188.732H332.24V194.838H331.215V193.701C330.847 194.359 330.056 194.938 328.931 194.938C327.304 194.938 326.045 193.657 326.045 191.762ZM331.215 191.774C331.215 190.359 330.257 189.512 329.142 189.512C328.028 189.512 327.081 190.325 327.081 191.762C327.081 193.2 328.028 194.047 329.142 194.047C330.257 194.047 331.215 193.211 331.215 191.774ZM343.464 194.838V191.384C343.464 190.136 342.795 189.501 341.792 189.501C340.767 189.501 340.065 190.158 340.065 191.473V194.838H339.062V191.384C339.062 190.136 338.394 189.501 337.391 189.501C336.366 189.501 335.664 190.158 335.664 191.473V194.838H334.65V188.732H335.664V189.612C336.065 188.966 336.789 188.62 337.592 188.62C338.594 188.62 339.43 189.066 339.831 189.98C340.188 189.099 341.057 188.62 341.993 188.62C343.386 188.62 344.467 189.489 344.467 191.239V194.838H343.464ZM347.84 189.857C348.208 189.211 349.01 188.631 350.125 188.631C351.763 188.631 353.022 189.857 353.022 191.762C353.022 193.657 351.763 194.938 350.125 194.938C349.01 194.938 348.219 194.336 347.84 193.712V197.735H346.826V188.732H347.84V189.857ZM351.986 191.762C351.986 190.325 351.038 189.512 349.913 189.512C348.81 189.512 347.84 190.359 347.84 191.774C347.84 193.211 348.81 194.047 349.913 194.047C351.038 194.047 351.986 193.2 351.986 191.762ZM354.674 191.762C354.674 189.857 355.933 188.631 357.571 188.631C358.708 188.631 359.488 189.211 359.844 189.846V188.732H360.869V194.838H359.844V193.701C359.477 194.359 358.685 194.938 357.56 194.938C355.933 194.938 354.674 193.657 354.674 191.762ZM359.844 191.774C359.844 190.359 358.886 189.512 357.772 189.512C356.657 189.512 355.71 190.325 355.71 191.762C355.71 193.2 356.657 194.047 357.772 194.047C358.886 194.047 359.844 193.211 359.844 191.774ZM363.279 194.838V188.732H364.293V194.838H363.279ZM363.803 187.74C363.413 187.74 363.112 187.439 363.112 187.049C363.112 186.659 363.413 186.358 363.803 186.358C364.171 186.358 364.472 186.659 364.472 187.049C364.472 187.439 364.171 187.74 363.803 187.74ZM366.339 191.762C366.339 189.857 367.598 188.631 369.236 188.631C370.35 188.631 371.153 189.189 371.509 189.846V188.732H372.534V194.972C372.534 196.654 371.409 197.846 369.615 197.846C368.01 197.846 366.863 197.033 366.662 195.729H367.665C367.888 196.465 368.612 196.966 369.615 196.966C370.696 196.966 371.509 196.275 371.509 194.972V193.69C371.142 194.348 370.35 194.938 369.236 194.938C367.598 194.938 366.339 193.657 366.339 191.762ZM371.509 191.774C371.509 190.359 370.551 189.512 369.437 189.512C368.322 189.512 367.375 190.325 367.375 191.762C367.375 193.2 368.322 194.047 369.437 194.047C370.551 194.047 371.509 193.211 371.509 191.774ZM379.413 194.838V191.384C379.413 190.136 378.733 189.501 377.708 189.501C376.672 189.501 375.958 190.147 375.958 191.462V194.838H374.944V188.732H375.958V189.601C376.36 188.966 377.095 188.62 377.92 188.62C379.335 188.62 380.415 189.489 380.415 191.239V194.838H379.413ZM391.65 194.838L391.026 193.111H387.639L387.015 194.838H385.945L388.753 187.116H389.923L392.72 194.838H391.65ZM390.736 192.286L389.332 188.364L387.928 192.286H390.736Z" fill="#282636"/>
<path d="M62.5475 196.52C62.5475 194.192 64.2523 192.542 66.4252 192.542C68.1077 192.542 69.4449 193.389 70.0243 194.894H68.8097C68.3863 193.958 67.5617 193.434 66.4252 193.434C64.7983 193.434 63.5838 194.615 63.5838 196.52C63.5838 198.415 64.7983 199.596 66.4252 199.596C67.5617 199.596 68.3863 199.072 68.8097 198.147H70.0243C69.4449 199.64 68.1077 200.476 66.4252 200.476C64.2523 200.476 62.5475 198.849 62.5475 196.52ZM71.8512 197.334C71.8512 195.428 73.1104 194.203 74.7484 194.203C75.8849 194.203 76.6649 194.782 77.0215 195.417V194.303H78.0466V200.409H77.0215V199.273C76.6538 199.93 75.8626 200.509 74.7372 200.509C73.1104 200.509 71.8512 199.228 71.8512 197.334ZM77.0215 197.345C77.0215 195.93 76.0632 195.083 74.9489 195.083C73.8347 195.083 72.8875 195.896 72.8875 197.334C72.8875 198.771 73.8347 199.618 74.9489 199.618C76.0632 199.618 77.0215 198.782 77.0215 197.345ZM89.2705 200.409V196.955C89.2705 195.707 88.6019 195.072 87.5991 195.072C86.5739 195.072 85.8719 195.729 85.8719 197.044V200.409H84.8691V196.955C84.8691 195.707 84.2005 195.072 83.1977 195.072C82.1726 195.072 81.4706 195.729 81.4706 197.044V200.409H80.4566V194.303H81.4706V195.183C81.8717 194.537 82.596 194.192 83.3983 194.192C84.4011 194.192 85.2368 194.637 85.6379 195.551C85.9945 194.671 86.8636 194.192 87.7996 194.192C89.1925 194.192 90.2733 195.061 90.2733 196.81V200.409H89.2705ZM93.647 195.428C94.0148 194.782 94.817 194.203 95.9313 194.203C97.5693 194.203 98.8284 195.428 98.8284 197.334C98.8284 199.228 97.5693 200.509 95.9313 200.509C94.817 200.509 94.0259 199.908 93.647 199.284V203.306H92.6331V194.303H93.647V195.428ZM97.7921 197.334C97.7921 195.896 96.845 195.083 95.7196 195.083C94.6165 195.083 93.647 195.93 93.647 197.345C93.647 198.782 94.6165 199.618 95.7196 199.618C96.845 199.618 97.7921 198.771 97.7921 197.334ZM100.481 197.334C100.481 195.428 101.74 194.203 103.378 194.203C104.514 194.203 105.294 194.782 105.651 195.417V194.303H106.676V200.409H105.651V199.273C105.283 199.93 104.492 200.509 103.367 200.509C101.74 200.509 100.481 199.228 100.481 197.334ZM105.651 197.345C105.651 195.93 104.693 195.083 103.578 195.083C102.464 195.083 101.517 195.896 101.517 197.334C101.517 198.771 102.464 199.618 103.578 199.618C104.693 199.618 105.651 198.782 105.651 197.345ZM109.086 200.409V194.303H110.1V200.409H109.086ZM109.61 193.311C109.22 193.311 108.919 193.01 108.919 192.62C108.919 192.23 109.22 191.93 109.61 191.93C109.977 191.93 110.278 192.23 110.278 192.62C110.278 193.01 109.977 193.311 109.61 193.311ZM112.146 197.334C112.146 195.428 113.405 194.203 115.043 194.203C116.157 194.203 116.959 194.76 117.316 195.417V194.303H118.341V200.543C118.341 202.225 117.216 203.418 115.422 203.418C113.817 203.418 112.669 202.604 112.469 201.301H113.472C113.695 202.036 114.419 202.537 115.422 202.537C116.503 202.537 117.316 201.847 117.316 200.543V199.261C116.948 199.919 116.157 200.509 115.043 200.509C113.405 200.509 112.146 199.228 112.146 197.334ZM117.316 197.345C117.316 195.93 116.358 195.083 115.243 195.083C114.129 195.083 113.182 195.896 113.182 197.334C113.182 198.771 114.129 199.618 115.243 199.618C116.358 199.618 117.316 198.782 117.316 197.345ZM125.219 200.409V196.955C125.219 195.707 124.54 195.072 123.514 195.072C122.478 195.072 121.765 195.718 121.765 197.033V200.409H120.751V194.303H121.765V195.172C122.166 194.537 122.902 194.192 123.726 194.192C125.141 194.192 126.222 195.061 126.222 196.81V200.409H125.219ZM136.655 198.225C136.655 197.367 136.008 196.832 135.017 196.832H133.256V199.573H135.05C136.053 199.573 136.655 199.072 136.655 198.225ZM136.454 194.738C136.454 193.969 135.93 193.478 134.939 193.478H133.256V195.997H134.961C135.908 195.997 136.454 195.529 136.454 194.738ZM137.669 198.325C137.669 199.495 136.744 200.409 135.139 200.409H132.242V192.643H135.028C136.666 192.643 137.49 193.534 137.49 194.615C137.49 195.596 136.877 196.164 136.131 196.409C136.978 196.554 137.669 197.367 137.669 198.325Z" fill="#282636"/>
<path d="M261.028 357.392C261.028 355.064 262.733 353.414 264.906 353.414C266.588 353.414 267.925 354.261 268.505 355.766H267.29C266.867 354.83 266.042 354.306 264.906 354.306C263.279 354.306 262.064 355.487 262.064 357.392C262.064 359.287 263.279 360.468 264.906 360.468C266.042 360.468 266.867 359.944 267.29 359.019H268.505C267.925 360.512 266.588 361.348 264.906 361.348C262.733 361.348 261.028 359.721 261.028 357.392ZM270.332 358.206C270.332 356.3 271.591 355.075 273.229 355.075C274.365 355.075 275.145 355.654 275.502 356.289V355.175H276.527V361.281H275.502V360.145C275.134 360.802 274.343 361.382 273.218 361.382C271.591 361.382 270.332 360.1 270.332 358.206ZM275.502 358.217C275.502 356.802 274.544 355.955 273.429 355.955C272.315 355.955 271.368 356.768 271.368 358.206C271.368 359.643 272.315 360.49 273.429 360.49C274.544 360.49 275.502 359.654 275.502 358.217ZM287.751 361.281V357.827C287.751 356.579 287.082 355.944 286.08 355.944C285.054 355.944 284.352 356.601 284.352 357.916V361.281H283.35V357.827C283.35 356.579 282.681 355.944 281.678 355.944C280.653 355.944 279.951 356.601 279.951 357.916V361.281H278.937V355.175H279.951V356.055C280.352 355.409 281.076 355.064 281.879 355.064C282.882 355.064 283.717 355.509 284.118 356.423C284.475 355.543 285.344 355.064 286.28 355.064C287.673 355.064 288.754 355.933 288.754 357.682V361.281H287.751ZM292.128 356.3C292.495 355.654 293.298 355.075 294.412 355.075C296.05 355.075 297.309 356.3 297.309 358.206C297.309 360.1 296.05 361.382 294.412 361.382C293.298 361.382 292.506 360.78 292.128 360.156V364.178H291.114V355.175H292.128V356.3ZM296.273 358.206C296.273 356.768 295.325 355.955 294.2 355.955C293.097 355.955 292.128 356.802 292.128 358.217C292.128 359.654 293.097 360.49 294.2 360.49C295.325 360.49 296.273 359.643 296.273 358.206ZM298.961 358.206C298.961 356.3 300.22 355.075 301.858 355.075C302.995 355.075 303.775 355.654 304.131 356.289V355.175H305.157V361.281H304.131V360.145C303.764 360.802 302.973 361.382 301.847 361.382C300.22 361.382 298.961 360.1 298.961 358.206ZM304.131 358.217C304.131 356.802 303.173 355.955 302.059 355.955C300.945 355.955 299.997 356.768 299.997 358.206C299.997 359.643 300.945 360.49 302.059 360.49C303.173 360.49 304.131 359.654 304.131 358.217ZM307.566 361.281V355.175H308.58V361.281H307.566ZM308.09 354.183C307.7 354.183 307.399 353.882 307.399 353.492C307.399 353.102 307.7 352.802 308.09 352.802C308.458 352.802 308.759 353.102 308.759 353.492C308.759 353.882 308.458 354.183 308.09 354.183ZM310.626 358.206C310.626 356.3 311.885 355.075 313.523 355.075C314.638 355.075 315.44 355.632 315.796 356.289V355.175H316.822V361.415C316.822 363.098 315.696 364.29 313.902 364.29C312.298 364.29 311.15 363.476 310.949 362.173H311.952C312.175 362.908 312.899 363.41 313.902 363.41C314.983 363.41 315.796 362.719 315.796 361.415V360.134C315.429 360.791 314.638 361.382 313.523 361.382C311.885 361.382 310.626 360.1 310.626 358.206ZM315.796 358.217C315.796 356.802 314.838 355.955 313.724 355.955C312.61 355.955 311.662 356.768 311.662 358.206C311.662 359.643 312.61 360.49 313.724 360.49C314.838 360.49 315.796 359.654 315.796 358.217ZM323.7 361.281V357.827C323.7 356.579 323.02 355.944 321.995 355.944C320.959 355.944 320.246 356.59 320.246 357.905V361.281H319.232V355.175H320.246V356.044C320.647 355.409 321.382 355.064 322.207 355.064C323.622 355.064 324.703 355.933 324.703 357.682V361.281H323.7ZM330.344 357.392C330.344 355.064 332.048 353.414 334.221 353.414C335.904 353.414 337.241 354.261 337.82 355.766H336.606C336.182 354.83 335.358 354.306 334.221 354.306C332.594 354.306 331.38 355.487 331.38 357.392C331.38 359.287 332.594 360.468 334.221 360.468C335.358 360.468 336.182 359.944 336.606 359.019H337.82C337.241 360.512 335.904 361.348 334.221 361.348C332.048 361.348 330.344 359.721 330.344 357.392Z" fill="#282636"/>
<path d="M324.401 289.146C324.401 286.818 326.106 285.168 328.279 285.168C329.961 285.168 331.298 286.015 331.878 287.52H330.663C330.24 286.584 329.415 286.06 328.279 286.06C326.652 286.06 325.437 287.241 325.437 289.146C325.437 291.041 326.652 292.222 328.279 292.222C329.415 292.222 330.24 291.698 330.663 290.773H331.878C331.298 292.266 329.961 293.102 328.279 293.102C326.106 293.102 324.401 291.475 324.401 289.146ZM333.705 289.96C333.705 288.054 334.964 286.829 336.602 286.829C337.738 286.829 338.518 287.408 338.875 288.043V286.929H339.9V293.035H338.875V291.899C338.507 292.556 337.716 293.135 336.591 293.135C334.964 293.135 333.705 291.854 333.705 289.96ZM338.875 289.971C338.875 288.556 337.917 287.709 336.802 287.709C335.688 287.709 334.741 288.522 334.741 289.96C334.741 291.397 335.688 292.244 336.802 292.244C337.917 292.244 338.875 291.408 338.875 289.971ZM351.124 293.035V289.581C351.124 288.333 350.455 287.698 349.453 287.698C348.427 287.698 347.725 288.355 347.725 289.67V293.035H346.723V289.581C346.723 288.333 346.054 287.698 345.051 287.698C344.026 287.698 343.324 288.355 343.324 289.67V293.035H342.31V286.929H343.324V287.809C343.725 287.163 344.449 286.818 345.252 286.818C346.255 286.818 347.09 287.263 347.491 288.177C347.848 287.297 348.717 286.818 349.653 286.818C351.046 286.818 352.127 287.687 352.127 289.436V293.035H351.124ZM355.501 288.054C355.868 287.408 356.671 286.829 357.785 286.829C359.423 286.829 360.682 288.054 360.682 289.96C360.682 291.854 359.423 293.135 357.785 293.135C356.671 293.135 355.879 292.534 355.501 291.91V295.932H354.487V286.929H355.501V288.054ZM359.646 289.96C359.646 288.522 358.699 287.709 357.573 287.709C356.47 287.709 355.501 288.556 355.501 289.971C355.501 291.408 356.47 292.244 357.573 292.244C358.699 292.244 359.646 291.397 359.646 289.96ZM362.334 289.96C362.334 288.054 363.593 286.829 365.231 286.829C366.368 286.829 367.148 287.408 367.504 288.043V286.929H368.53V293.035H367.504V291.899C367.137 292.556 366.346 293.135 365.22 293.135C363.593 293.135 362.334 291.854 362.334 289.96ZM367.504 289.971C367.504 288.556 366.546 287.709 365.432 287.709C364.318 287.709 363.37 288.522 363.37 289.96C363.37 291.397 364.318 292.244 365.432 292.244C366.546 292.244 367.504 291.408 367.504 289.971ZM370.94 293.035V286.929H371.954V293.035H370.94ZM371.463 285.937C371.073 285.937 370.772 285.636 370.772 285.246C370.772 284.856 371.073 284.556 371.463 284.556C371.831 284.556 372.132 284.856 372.132 285.246C372.132 285.636 371.831 285.937 371.463 285.937ZM373.999 289.96C373.999 288.054 375.258 286.829 376.896 286.829C378.011 286.829 378.813 287.386 379.169 288.043V286.929H380.195V293.169C380.195 294.851 379.069 296.044 377.275 296.044C375.671 296.044 374.523 295.23 374.322 293.927H375.325C375.548 294.662 376.272 295.163 377.275 295.163C378.356 295.163 379.169 294.473 379.169 293.169V291.887C378.802 292.545 378.011 293.135 376.896 293.135C375.258 293.135 373.999 291.854 373.999 289.96ZM379.169 289.971C379.169 288.556 378.211 287.709 377.097 287.709C375.983 287.709 375.036 288.522 375.036 289.96C375.036 291.397 375.983 292.244 377.097 292.244C378.211 292.244 379.169 291.408 379.169 289.971ZM387.073 293.035V289.581C387.073 288.333 386.393 287.698 385.368 287.698C384.332 287.698 383.619 288.344 383.619 289.659V293.035H382.605V286.929H383.619V287.798C384.02 287.163 384.755 286.818 385.58 286.818C386.995 286.818 388.076 287.687 388.076 289.436V293.035H387.073ZM396.513 285.269C399.065 285.269 400.636 286.762 400.636 289.169C400.636 291.575 399.065 293.035 396.513 293.035H394.096V285.269H396.513ZM395.11 292.199H396.513C398.541 292.199 399.6 291.063 399.6 289.169C399.6 287.274 398.541 286.093 396.513 286.093H395.11V292.199Z" fill="#282636"/>
<g clip-path="url(#clip1_1043_744)">
<path d="M721.114 353.517L725.74 360.134H723.841L720.066 354.734V354.734L719.512 353.941L715.102 347.633H717L720.559 352.724L721.114 353.517Z" fill="black"/>
<path d="M728.484 343.59H712.368C711.141 343.59 710.146 344.584 710.146 345.811V361.927C710.146 363.154 711.141 364.149 712.368 364.149H728.484C729.711 364.149 730.705 363.154 730.705 361.927V345.811C730.705 344.584 729.711 343.59 728.484 343.59ZM723.26 361.024L719.439 355.464L714.656 361.024H713.42L718.89 354.666L713.42 346.704H717.592L721.21 351.969L725.739 346.704H726.975L721.759 352.768H721.759L727.432 361.024H723.26Z" fill="black"/>
</g>
<g clip-path="url(#clip2_1043_744)">
<path d="M584.995 344.99C583.38 346.668 583.71 348.451 583.71 353.867C583.71 358.364 582.926 362.872 587.032 363.934C588.315 364.263 599.677 364.263 600.958 363.932C602.667 363.491 604.059 362.104 604.249 359.686C604.275 359.348 604.275 348.391 604.248 348.047C604.046 345.471 602.46 343.986 600.371 343.686C599.892 343.616 599.796 343.596 597.339 343.591C588.625 343.596 586.715 343.208 584.995 344.99Z" fill="url(#paint0_linear_1043_744)"/>
<path d="M593.987 346.283C590.876 346.283 587.923 346.006 586.794 348.901C586.328 350.097 586.396 351.65 586.396 353.874C586.396 355.825 586.333 357.659 586.794 358.846C587.92 361.743 590.898 361.465 593.985 361.465C596.963 361.465 600.034 361.776 601.176 358.846C601.643 357.638 601.574 356.108 601.574 353.874C601.574 350.908 601.738 348.994 600.3 347.557C598.844 346.1 596.874 346.283 593.983 346.283H593.987ZM593.306 347.651C599.794 347.64 600.62 346.919 600.164 356.939C600.003 360.483 597.304 360.094 593.987 360.094C587.94 360.094 587.766 359.921 587.766 353.871C587.766 347.75 588.245 347.654 593.306 347.649V347.651ZM598.038 348.911C597.535 348.911 597.128 349.319 597.128 349.821C597.128 350.324 597.535 350.732 598.038 350.732C598.541 350.732 598.949 350.324 598.949 349.821C598.949 349.319 598.541 348.911 598.038 348.911ZM593.987 349.976C591.834 349.976 590.089 351.721 590.089 353.874C590.089 356.027 591.834 357.772 593.987 357.772C596.139 357.772 597.883 356.027 597.883 353.874C597.883 351.721 596.139 349.976 593.987 349.976ZM593.987 351.344C597.332 351.344 597.336 356.405 593.987 356.405C590.642 356.405 590.637 351.344 593.987 351.344Z" fill="white"/>
</g>
<g clip-path="url(#clip3_1043_744)">
<path d="M663.14 343.592H648.188C646.64 343.592 645.385 344.847 645.385 346.395V361.347C645.385 362.896 646.64 364.151 648.188 364.151H663.14C664.688 364.151 665.944 362.896 665.944 361.347V346.395C665.944 344.847 664.688 343.592 663.14 343.592Z" fill="#0077B5"/>
<path d="M652.79 349.199C652.79 349.546 652.687 349.885 652.494 350.173C652.302 350.461 652.028 350.686 651.708 350.818C651.388 350.951 651.035 350.986 650.696 350.918C650.356 350.85 650.043 350.683 649.798 350.438C649.553 350.193 649.386 349.881 649.319 349.541C649.251 349.201 649.286 348.849 649.419 348.529C649.551 348.209 649.776 347.935 650.064 347.743C650.352 347.55 650.691 347.447 651.037 347.447C651.502 347.447 651.948 347.632 652.276 347.96C652.605 348.289 652.79 348.735 652.79 349.199Z" fill="white"/>
<path d="M652.394 352.118V359.859C652.395 359.916 652.384 359.973 652.362 360.026C652.34 360.079 652.309 360.127 652.268 360.167C652.228 360.208 652.18 360.24 652.127 360.262C652.075 360.284 652.018 360.295 651.961 360.295H650.114C650.057 360.295 650.001 360.284 649.948 360.262C649.895 360.24 649.847 360.208 649.807 360.168C649.766 360.128 649.734 360.08 649.712 360.027C649.691 359.974 649.68 359.918 649.68 359.86V352.118C649.68 352.003 649.725 351.892 649.807 351.811C649.888 351.729 649.999 351.684 650.114 351.684H651.961C652.076 351.684 652.186 351.73 652.268 351.811C652.349 351.893 652.394 352.003 652.394 352.118Z" fill="white"/>
<path d="M662.047 356.15V359.897C662.048 359.95 662.037 360.002 662.017 360.05C661.997 360.099 661.968 360.143 661.931 360.18C661.894 360.217 661.85 360.246 661.801 360.266C661.753 360.286 661.701 360.297 661.648 360.297H659.662C659.61 360.297 659.558 360.286 659.509 360.266C659.461 360.246 659.416 360.217 659.379 360.18C659.342 360.143 659.313 360.099 659.293 360.05C659.273 360.002 659.263 359.95 659.263 359.897V356.265C659.263 355.723 659.422 353.892 657.846 353.892C656.625 353.892 656.376 355.145 656.327 355.708V359.897C656.327 360.002 656.286 360.103 656.212 360.177C656.139 360.252 656.039 360.295 655.934 360.297H654.016C653.963 360.297 653.911 360.286 653.863 360.266C653.814 360.246 653.77 360.217 653.733 360.179C653.696 360.142 653.667 360.098 653.647 360.05C653.627 360.001 653.617 359.949 653.617 359.897V352.086C653.617 352.033 653.627 351.981 653.647 351.933C653.667 351.885 653.696 351.84 653.733 351.803C653.77 351.766 653.814 351.737 653.863 351.717C653.911 351.697 653.963 351.686 654.016 351.686H655.934C656.04 351.686 656.141 351.728 656.216 351.803C656.291 351.878 656.333 351.98 656.333 352.086V352.761C656.786 352.081 657.458 351.557 658.891 351.557C662.066 351.557 662.047 354.521 662.047 356.15Z" fill="white"/>
</g>
<path d="M531.094 344.035C529.51 343.119 527.485 343.662 526.571 345.249L518.364 359.491C517.45 361.078 517.992 363.106 519.576 364.022C521.159 364.938 523.184 364.395 524.099 362.808L532.306 348.566C533.22 346.98 532.677 344.951 531.094 344.035Z" fill="#FFC107"/>
<path d="M531.094 344.035C530.354 343.607 529.518 343.498 528.744 343.664C529.073 343.735 529.397 343.857 529.703 344.035C531.287 344.951 531.83 346.979 530.915 348.566L522.708 362.808C522.221 363.654 521.418 364.203 520.535 364.393C521.903 364.688 523.362 364.087 524.099 362.808L532.306 348.566C533.22 346.979 532.678 344.951 531.094 344.035Z" fill="#FFB300"/>
<path d="M521.227 364.467C523.054 364.467 524.535 362.984 524.535 361.153C524.535 359.323 523.054 357.84 521.227 357.84C519.401 357.84 517.92 359.323 517.92 361.153C517.92 362.984 519.401 364.467 521.227 364.467Z" fill="#4CAF50"/>
<path d="M520.534 364.393C520.533 364.393 520.533 364.394 520.533 364.394C520.757 364.442 520.988 364.467 521.226 364.467C523.052 364.467 524.533 362.984 524.533 361.154C524.533 360.747 524.46 360.358 524.326 359.998L522.707 362.808C522.219 363.654 521.417 364.203 520.534 364.393Z" fill="#43A047"/>
<path d="M540.513 359.491L532.306 345.249C531.391 343.662 529.367 343.119 527.783 344.035C526.199 344.951 525.657 346.98 526.571 348.566L534.778 362.808C535.692 364.395 537.717 364.938 539.301 364.022C540.884 363.106 541.427 361.078 540.513 359.491Z" fill="#2196F3"/>
<path d="M540.513 359.49L532.306 345.248C531.569 343.969 530.11 343.369 528.742 343.664C529.625 343.854 530.428 344.403 530.915 345.248L539.122 359.491C540.037 361.077 539.494 363.106 537.91 364.022C537.604 364.199 537.28 364.321 536.951 364.392C537.725 364.559 538.561 364.45 539.301 364.022C540.885 363.106 541.427 361.077 540.513 359.49Z" fill="#1E88E5"/>
<g clip-path="url(#clip4_1043_744)">
<path d="M480.242 332.945V325.075L478.57 326.081V325.063L480.242 324.064H481.161V332.945H480.242ZM483.5 332.945V324.064H484.407V328.258L488.459 324.064H489.618L485.48 328.35L489.958 332.945H488.773L484.407 328.505V332.945H483.5Z" fill="#6B6B6B"/>
<path d="M478.447 285.655L478.453 284.828L482.468 281.202C482.814 280.889 483.042 280.593 483.153 280.314C483.268 280.03 483.325 279.734 483.325 279.426C483.325 279.06 483.239 278.729 483.066 278.433C482.894 278.137 482.661 277.902 482.369 277.73C482.078 277.553 481.751 277.464 481.389 277.464C481.011 277.464 480.673 277.555 480.377 277.736C480.081 277.917 479.847 278.155 479.674 278.451C479.506 278.747 479.423 279.07 479.428 279.419H478.502C478.502 278.881 478.63 278.398 478.885 277.97C479.14 277.542 479.485 277.207 479.921 276.965C480.357 276.718 480.85 276.595 481.401 276.595C481.94 276.595 482.423 276.722 482.851 276.977C483.282 277.228 483.622 277.569 483.868 278.001C484.119 278.429 484.244 278.905 484.244 279.432C484.244 279.802 484.199 280.129 484.109 280.412C484.022 280.692 483.885 280.953 483.696 281.196C483.51 281.434 483.274 281.681 482.986 281.936L479.421 285.155L479.279 284.785H484.244V285.655H478.447ZM485.729 285.661V276.78H486.635V280.974L490.687 276.78H491.847L487.708 281.066L492.186 285.661H491.002L486.635 281.22V285.661H485.729Z" fill="#6B6B6B"/>
<path d="M481.08 238.557C480.64 238.557 480.235 238.479 479.865 238.322C479.495 238.166 479.177 237.944 478.909 237.656C478.642 237.364 478.447 237.017 478.323 236.614L479.187 236.355C479.335 236.795 479.578 237.128 479.915 237.354C480.256 237.58 480.64 237.689 481.068 237.681C481.463 237.673 481.802 237.584 482.086 237.416C482.374 237.247 482.594 237.013 482.746 236.713C482.898 236.413 482.974 236.065 482.974 235.67C482.974 235.066 482.797 234.581 482.443 234.215C482.094 233.845 481.631 233.66 481.056 233.66C480.895 233.66 480.727 233.682 480.55 233.728C480.373 233.769 480.209 233.828 480.057 233.906L479.6 233.185L483.054 229.996L483.202 230.366H478.675V229.496H483.807V230.378L480.797 233.253L480.784 232.895C481.401 232.817 481.944 232.887 482.413 233.105C482.881 233.323 483.247 233.656 483.51 234.104C483.778 234.548 483.911 235.07 483.911 235.67C483.911 236.238 483.788 236.739 483.541 237.175C483.299 237.607 482.964 237.946 482.536 238.193C482.108 238.435 481.623 238.557 481.08 238.557ZM485.512 238.378V229.496H486.418V233.691L490.471 229.496H491.63L487.492 233.783L491.969 238.378H490.785L486.418 233.937V238.378H485.512Z" fill="#6B6B6B"/>
<path d="M482.604 191.092V189.371H478.447V188.508L481.42 182.21H482.437L479.465 188.508H482.604V185.917H483.517V188.508H484.485V189.371H483.517V191.092H482.604ZM485.969 191.092V182.21H486.876V186.404L490.928 182.21H492.088L487.949 186.497L492.427 191.092H491.243L486.876 186.651V191.092H485.969Z" fill="#6B6B6B"/>
<path d="M481.315 143.992C480.854 143.992 480.429 143.897 480.038 143.708C479.647 143.519 479.314 143.258 479.039 142.925C478.763 142.592 478.566 142.209 478.447 141.777L479.316 141.543C479.395 141.864 479.536 142.141 479.742 142.376C479.948 142.606 480.188 142.785 480.464 142.912C480.743 143.04 481.035 143.104 481.339 143.104C481.734 143.104 482.088 143.009 482.4 142.82C482.717 142.627 482.968 142.372 483.153 142.055C483.338 141.738 483.43 141.391 483.43 141.013C483.43 140.622 483.334 140.271 483.14 139.958C482.947 139.641 482.692 139.391 482.376 139.206C482.059 139.021 481.714 138.928 481.339 138.928C480.92 138.928 480.558 139.021 480.254 139.206C479.95 139.386 479.707 139.615 479.526 139.89L478.7 139.545L478.971 134.925H483.714V135.795H479.372L479.822 135.369L479.582 139.31L479.353 139.008C479.608 138.716 479.917 138.488 480.279 138.324C480.64 138.159 481.021 138.077 481.42 138.077C481.967 138.077 482.46 138.208 482.9 138.472C483.34 138.731 483.689 139.082 483.948 139.526C484.207 139.97 484.337 140.466 484.337 141.013C484.337 141.555 484.199 142.053 483.924 142.505C483.648 142.953 483.282 143.313 482.826 143.585C482.369 143.856 481.866 143.992 481.315 143.992ZM485.813 143.807V134.925H486.72V139.119L490.772 134.925H491.931L487.793 139.212L492.27 143.807H491.086L486.72 139.366V143.807H485.813Z" fill="#6B6B6B"/>
</g>
<g clip-path="url(#clip5_1043_744)">
<path d="M510.725 188.884H735.844" stroke="#DFDFDF" stroke-width="0.513972" stroke-dasharray="7.37"/>
<path d="M510.725 141.599H735.844" stroke="#DFDFDF" stroke-width="0.513972" stroke-dasharray="7.37"/>
<path d="M510.725 236.17H735.844" stroke="#DFDFDF" stroke-width="0.513972" stroke-dasharray="7.37"/>
<path d="M510.725 283.454H735.844" stroke="#DFDFDF" stroke-width="0.513972" stroke-dasharray="7.37"/>
<path d="M510.725 332.284H608.259H725.565" stroke="#DFDFDF" stroke-width="0.513972" stroke-dasharray="7.37"/>
</g>
<path d="M537.45 154.449C541.992 154.449 545.674 158.131 545.674 162.673V325.088C545.674 329.63 541.992 333.311 537.45 333.311H523.059C518.517 333.311 514.836 329.63 514.836 325.088V162.673C514.836 158.131 518.517 154.449 523.059 154.449L537.45 154.449Z" fill="#FF72BF"/>
<path d="M601.183 219.209C605.724 219.209 609.406 222.891 609.406 227.433V325.087C609.406 329.629 605.724 333.311 601.183 333.311H586.791C582.25 333.311 578.568 329.629 578.568 325.087V227.433C578.568 222.891 582.25 219.209 586.791 219.209L601.183 219.209Z" fill="#E5E5FF"/>
<path d="M664.917 182.204C669.459 182.204 673.141 185.886 673.141 190.428V325.088C673.141 329.63 669.459 333.312 664.917 333.312H650.526C645.984 333.312 642.302 329.63 642.302 325.088V190.428C642.302 185.886 645.984 182.204 650.526 182.204L664.917 182.204Z" fill="#DDB2FF"/>
<path d="M727.618 247.99C732.16 247.99 735.842 251.672 735.842 256.214V325.086C735.842 329.628 732.16 333.31 727.618 333.31H713.227C708.685 333.31 705.003 329.628 705.003 325.086V256.214C705.003 251.672 708.685 247.99 713.227 247.99H727.618Z" fill="#FFD0EA"/>
<path fill-rule="evenodd" clip-rule="evenodd" d="M634.525 146.857C630.303 146.857 626.881 150.28 626.881 154.501V162.145C626.881 166.366 630.303 169.788 634.525 169.788H654.393L656.389 173.806C656.67 174.372 657.477 174.372 657.758 173.806L659.754 169.788H678.858C683.079 169.788 686.502 166.366 686.502 162.145V154.501C686.502 150.28 683.079 146.857 678.858 146.857H634.525Z" fill="#A533FF"/>
<path d="M641.505 164.061V162.719H642.703V164.061H641.505ZM641.505 154.871V153.524H642.703V154.871H641.505ZM642.164 163.092C641.591 163.092 641.079 162.989 640.628 162.782C640.177 162.576 639.806 162.284 639.515 161.905C639.229 161.523 639.042 161.072 638.954 160.552L640.14 160.363C640.255 160.852 640.5 161.242 640.874 161.533C641.249 161.819 641.698 161.963 642.221 161.963C642.741 161.963 643.163 161.838 643.488 161.59C643.817 161.342 643.981 161.024 643.981 160.638C643.981 160.363 643.897 160.14 643.729 159.968C643.565 159.796 643.295 159.65 642.921 159.532L640.983 158.936C639.836 158.58 639.263 157.892 639.263 156.872C639.263 156.39 639.378 155.972 639.607 155.616C639.84 155.261 640.167 154.986 640.587 154.791C641.008 154.596 641.499 154.498 642.061 154.498C642.6 154.506 643.077 154.606 643.494 154.797C643.914 154.988 644.262 155.263 644.537 155.622C644.816 155.981 645.009 156.413 645.116 156.918L643.895 157.136C643.842 156.841 643.729 156.581 643.557 156.356C643.389 156.13 643.175 155.955 642.915 155.828C642.659 155.702 642.37 155.637 642.049 155.634C641.747 155.626 641.476 155.674 641.235 155.777C640.998 155.876 640.809 156.018 640.668 156.201C640.53 156.381 640.461 156.585 640.461 156.815C640.461 157.067 640.559 157.281 640.754 157.457C640.949 157.632 641.256 157.783 641.677 157.909L643.196 158.351C643.891 158.557 644.394 158.834 644.704 159.182C645.013 159.53 645.168 159.992 645.168 160.569C645.168 161.074 645.042 161.515 644.79 161.894C644.541 162.268 644.191 162.563 643.741 162.777C643.29 162.987 642.764 163.092 642.164 163.092ZM649.889 162.92V161.481H646.162V160.346L648.845 154.665H650.215L647.533 160.346H649.889V158.11H651.104V160.346H651.924V161.481H651.104V162.92H649.889ZM653.071 162.914L653.077 161.848L656.671 158.626C656.961 158.37 657.158 158.125 657.261 157.892C657.369 157.659 657.422 157.426 657.422 157.193C657.422 156.899 657.357 156.635 657.227 156.402C657.097 156.165 656.918 155.978 656.688 155.84C656.459 155.702 656.195 155.634 655.897 155.634C655.591 155.634 655.318 155.706 655.077 155.851C654.84 155.993 654.655 156.182 654.521 156.419C654.387 156.656 654.323 156.912 654.326 157.187H653.1C653.1 156.652 653.22 156.184 653.461 155.783C653.705 155.378 654.04 155.062 654.464 154.837C654.888 154.607 655.374 154.493 655.92 154.493C656.44 154.493 656.906 154.611 657.319 154.848C657.732 155.081 658.056 155.402 658.293 155.811C658.534 156.22 658.655 156.686 658.655 157.21C658.655 157.588 658.605 157.909 658.506 158.173C658.406 158.437 658.257 158.681 658.058 158.907C657.86 159.132 657.611 159.377 657.313 159.641L654.538 162.117L654.407 161.773H658.655V162.914H653.071ZM662.867 163.092C662.332 163.092 661.851 162.966 661.423 162.714C660.994 162.457 660.654 162.108 660.402 161.664C660.154 161.221 660.029 160.717 660.029 160.151V157.52C660.029 156.92 660.154 156.392 660.402 155.937C660.654 155.483 661.002 155.129 661.445 154.877C661.893 154.625 662.407 154.498 662.988 154.498C663.423 154.498 663.832 154.581 664.214 154.745C664.597 154.909 664.927 155.154 665.206 155.479L664.329 156.299C664.172 156.096 663.975 155.936 663.739 155.817C663.505 155.695 663.255 155.634 662.988 155.634C662.644 155.634 662.342 155.716 662.082 155.88C661.822 156.041 661.617 156.253 661.468 156.516C661.323 156.78 661.251 157.063 661.251 157.365V158.878L661.015 158.615C661.252 158.305 661.547 158.06 661.898 157.881C662.25 157.701 662.626 157.611 663.028 157.611C663.54 157.611 663.997 157.732 664.398 157.973C664.803 158.21 665.12 158.532 665.349 158.941C665.583 159.35 665.699 159.811 665.699 160.323C665.699 160.839 665.569 161.307 665.309 161.728C665.053 162.144 664.709 162.477 664.277 162.725C663.849 162.97 663.379 163.092 662.867 163.092ZM662.867 161.94C663.165 161.94 663.437 161.867 663.681 161.722C663.926 161.577 664.121 161.382 664.266 161.137C664.411 160.892 664.484 160.621 664.484 160.323C664.484 160.025 664.411 159.754 664.266 159.509C664.125 159.264 663.932 159.069 663.687 158.924C663.442 158.779 663.171 158.706 662.873 158.706C662.575 158.706 662.302 158.779 662.053 158.924C661.809 159.069 661.614 159.264 661.468 159.509C661.323 159.754 661.251 160.025 661.251 160.323C661.251 160.617 661.323 160.887 661.468 161.131C661.614 161.376 661.809 161.573 662.053 161.722C662.298 161.867 662.569 161.94 662.867 161.94ZM670.028 163.092C669.467 163.092 668.97 162.97 668.538 162.725C668.106 162.477 667.766 162.136 667.518 161.705C667.273 161.273 667.151 160.776 667.151 160.214V157.371C667.151 156.809 667.273 156.312 667.518 155.88C667.766 155.448 668.106 155.11 668.538 154.865C668.97 154.617 669.467 154.493 670.028 154.493C670.59 154.493 671.087 154.617 671.519 154.865C671.951 155.11 672.289 155.448 672.534 155.88C672.782 156.312 672.906 156.809 672.906 157.371V160.214C672.906 160.776 672.782 161.273 672.534 161.705C672.289 162.136 671.951 162.477 671.519 162.725C671.087 162.97 670.59 163.092 670.028 163.092ZM670.028 161.945C670.334 161.945 670.611 161.873 670.86 161.728C671.112 161.578 671.313 161.38 671.462 161.131C671.611 160.879 671.685 160.598 671.685 160.289V157.285C671.685 156.979 671.611 156.702 671.462 156.453C671.313 156.201 671.112 156.002 670.86 155.857C670.611 155.708 670.334 155.634 670.028 155.634C669.723 155.634 669.444 155.708 669.191 155.857C668.943 156.002 668.744 156.201 668.595 156.453C668.446 156.702 668.372 156.979 668.372 157.285V160.289C668.372 160.598 668.446 160.879 668.595 161.131C668.744 161.38 668.943 161.578 669.191 161.728C669.444 161.873 669.723 161.945 670.028 161.945Z" fill="white"/>
<path fill-rule="evenodd" clip-rule="evenodd" d="M694.146 214.07C689.924 214.07 686.502 217.493 686.502 221.714V229.358C686.502 233.579 689.924 237.001 694.146 237.001H714.015L716.01 241.019C716.291 241.584 717.098 241.584 717.379 241.019L719.375 237.001H738.479C742.701 237.001 746.123 233.579 746.123 229.358V221.714C746.123 217.493 742.701 214.07 738.479 214.07H694.146Z" fill="#A533FF"/>
<path d="M701.126 231.274V229.932H702.324V231.274H701.126ZM701.126 222.084V220.737H702.324V222.084H701.126ZM701.785 230.305C701.212 230.305 700.7 230.202 700.249 229.995C699.798 229.789 699.427 229.496 699.137 229.118C698.85 228.736 698.663 228.285 698.575 227.765L699.761 227.576C699.876 228.065 700.121 228.455 700.495 228.745C700.87 229.032 701.319 229.175 701.842 229.175C702.362 229.175 702.785 229.051 703.109 228.803C703.438 228.554 703.602 228.237 703.602 227.851C703.602 227.576 703.518 227.352 703.35 227.18C703.186 227.008 702.916 226.863 702.542 226.745L700.604 226.149C699.458 225.793 698.884 225.105 698.884 224.085C698.884 223.603 698.999 223.185 699.228 222.829C699.461 222.474 699.788 222.199 700.209 222.004C700.629 221.809 701.12 221.711 701.682 221.711C702.221 221.719 702.699 221.818 703.115 222.009C703.535 222.201 703.883 222.476 704.158 222.835C704.437 223.194 704.63 223.626 704.737 224.131L703.516 224.348C703.463 224.054 703.35 223.794 703.178 223.569C703.01 223.343 702.796 223.168 702.536 223.041C702.28 222.915 701.991 222.85 701.67 222.846C701.369 222.839 701.097 222.887 700.856 222.99C700.619 223.089 700.43 223.231 700.289 223.414C700.151 223.594 700.082 223.798 700.082 224.027C700.082 224.28 700.18 224.494 700.375 224.669C700.57 224.845 700.877 224.996 701.298 225.122L702.817 225.564C703.513 225.77 704.015 226.047 704.325 226.395C704.634 226.743 704.789 227.205 704.789 227.782C704.789 228.287 704.663 228.728 704.411 229.107C704.162 229.481 703.813 229.775 703.362 229.989C702.911 230.2 702.385 230.305 701.785 230.305ZM709.51 230.133V228.694H705.784V227.559L708.466 221.878H709.837L707.154 227.559H709.51V225.323H710.725V227.559H711.545V228.694H710.725V230.133H709.51ZM712.692 230.127L712.698 229.061L716.292 225.839C716.583 225.583 716.779 225.338 716.883 225.105C716.99 224.872 717.043 224.639 717.043 224.406C717.043 224.111 716.978 223.848 716.848 223.615C716.718 223.378 716.539 223.19 716.309 223.053C716.08 222.915 715.816 222.846 715.518 222.846C715.212 222.846 714.939 222.919 714.698 223.064C714.461 223.206 714.276 223.395 714.142 223.632C714.009 223.869 713.944 224.125 713.947 224.4H712.721C712.721 223.865 712.841 223.397 713.082 222.996C713.326 222.59 713.661 222.275 714.085 222.05C714.509 221.82 714.995 221.706 715.541 221.706C716.061 221.706 716.527 221.824 716.94 222.061C717.353 222.294 717.678 222.615 717.914 223.024C718.155 223.433 718.276 223.899 718.276 224.423C718.276 224.801 718.226 225.122 718.127 225.386C718.027 225.65 717.878 225.894 717.679 226.12C717.481 226.345 717.232 226.59 716.934 226.854L714.16 229.33L714.028 228.986H718.276V230.127H712.692ZM722.488 230.305C721.953 230.305 721.472 230.179 721.044 229.926C720.616 229.67 720.275 229.321 720.023 228.877C719.775 228.434 719.651 227.93 719.651 227.364V224.733C719.651 224.133 719.775 223.605 720.023 223.15C720.275 222.696 720.623 222.342 721.067 222.09C721.514 221.838 722.028 221.711 722.609 221.711C723.044 221.711 723.453 221.794 723.835 221.958C724.218 222.122 724.548 222.367 724.827 222.692L723.95 223.511C723.793 223.309 723.597 223.148 723.36 223.03C723.126 222.908 722.876 222.846 722.609 222.846C722.265 222.846 721.963 222.929 721.703 223.093C721.443 223.253 721.239 223.466 721.089 223.729C720.944 223.993 720.872 224.276 720.872 224.578V226.091L720.637 225.828C720.874 225.518 721.168 225.273 721.519 225.094C721.871 224.914 722.247 224.824 722.649 224.824C723.161 224.824 723.618 224.945 724.019 225.185C724.424 225.422 724.741 225.745 724.971 226.154C725.204 226.563 725.32 227.024 725.32 227.536C725.32 228.052 725.19 228.52 724.93 228.94C724.674 229.357 724.33 229.689 723.899 229.938C723.47 230.182 723 230.305 722.488 230.305ZM722.488 229.153C722.786 229.153 723.058 229.08 723.302 228.935C723.547 228.789 723.742 228.595 723.887 228.35C724.032 228.105 724.105 227.834 724.105 227.536C724.105 227.238 724.032 226.966 723.887 226.722C723.746 226.477 723.553 226.282 723.308 226.137C723.063 225.992 722.792 225.919 722.494 225.919C722.196 225.919 721.923 225.992 721.674 226.137C721.43 226.282 721.235 226.477 721.089 226.722C720.944 226.966 720.872 227.238 720.872 227.536C720.872 227.83 720.944 228.1 721.089 228.344C721.235 228.589 721.43 228.786 721.674 228.935C721.919 229.08 722.19 229.153 722.488 229.153ZM729.65 230.305C729.088 230.305 728.591 230.182 728.159 229.938C727.727 229.689 727.387 229.349 727.139 228.917C726.894 228.486 726.772 227.989 726.772 227.427V224.583C726.772 224.022 726.894 223.525 727.139 223.093C727.387 222.661 727.727 222.323 728.159 222.078C728.591 221.83 729.088 221.706 729.65 221.706C730.211 221.706 730.708 221.83 731.14 222.078C731.572 222.323 731.91 222.661 732.155 223.093C732.403 223.525 732.527 224.022 732.527 224.583V227.427C732.527 227.989 732.403 228.486 732.155 228.917C731.91 229.349 731.572 229.689 731.14 229.938C730.708 230.182 730.211 230.305 729.65 230.305ZM729.65 229.158C729.955 229.158 730.232 229.086 730.481 228.94C730.733 228.791 730.934 228.593 731.083 228.344C731.232 228.092 731.306 227.811 731.306 227.501V224.498C731.306 224.192 731.232 223.915 731.083 223.666C730.934 223.414 730.733 223.215 730.481 223.07C730.232 222.921 729.955 222.846 729.65 222.846C729.344 222.846 729.065 222.921 728.813 223.07C728.564 223.215 728.365 223.414 728.216 223.666C728.067 223.915 727.993 224.192 727.993 224.498V227.501C727.993 227.811 728.067 228.092 728.216 228.344C728.365 228.593 728.564 228.791 728.813 228.94C729.065 229.086 729.344 229.158 729.65 229.158Z" fill="white"/>
<path fill-rule="evenodd" clip-rule="evenodd" d="M570.794 186.315C566.573 186.315 563.15 189.738 563.15 193.959V201.603C563.15 205.824 566.573 209.246 570.794 209.246H590.663L592.658 213.264C592.939 213.83 593.746 213.83 594.028 213.264L596.023 209.246H615.127C619.349 209.246 622.771 205.824 622.771 201.603V193.959C622.771 189.738 619.349 186.315 615.127 186.315H570.794Z" fill="#A533FF"/>
<path d="M577.774 203.519V202.177H578.972V203.519H577.774ZM577.774 194.329V192.982H578.972V194.329H577.774ZM578.434 202.55C577.86 202.55 577.348 202.447 576.897 202.24C576.446 202.034 576.075 201.742 575.785 201.363C575.498 200.981 575.311 200.53 575.223 200.01L576.41 199.821C576.525 200.31 576.769 200.7 577.144 200.991C577.518 201.277 577.967 201.421 578.491 201.421C579.011 201.421 579.433 201.296 579.758 201.048C580.086 200.8 580.251 200.482 580.251 200.096C580.251 199.821 580.167 199.598 579.999 199.426C579.834 199.254 579.565 199.108 579.19 198.99L577.253 198.394C576.106 198.038 575.533 197.35 575.533 196.33C575.533 195.848 575.647 195.43 575.877 195.074C576.11 194.719 576.437 194.444 576.857 194.249C577.277 194.054 577.769 193.956 578.33 193.956C578.869 193.964 579.347 194.064 579.764 194.255C580.184 194.446 580.532 194.721 580.807 195.08C581.086 195.439 581.279 195.871 581.386 196.376L580.165 196.594C580.111 196.299 579.999 196.039 579.827 195.814C579.658 195.588 579.444 195.413 579.185 195.286C578.928 195.16 578.64 195.095 578.319 195.092C578.017 195.084 577.746 195.132 577.505 195.235C577.268 195.334 577.079 195.476 576.937 195.659C576.8 195.839 576.731 196.043 576.731 196.273C576.731 196.525 576.828 196.739 577.023 196.915C577.218 197.09 577.526 197.241 577.946 197.367L579.465 197.809C580.161 198.015 580.664 198.292 580.973 198.64C581.283 198.988 581.437 199.45 581.437 200.027C581.437 200.532 581.311 200.973 581.059 201.352C580.811 201.726 580.461 202.021 580.01 202.235C579.559 202.445 579.034 202.55 578.434 202.55ZM586.158 202.378V200.939H582.432V199.804L585.115 194.123H586.485L583.802 199.804H586.158V197.568H587.374V199.804H588.193V200.939H587.374V202.378H586.158ZM589.34 202.372L589.346 201.306L592.941 198.084C593.231 197.828 593.428 197.583 593.531 197.35C593.638 197.117 593.692 196.884 593.692 196.651C593.692 196.357 593.627 196.093 593.497 195.86C593.367 195.623 593.187 195.436 592.958 195.298C592.728 195.16 592.465 195.092 592.167 195.092C591.861 195.092 591.588 195.164 591.347 195.309C591.11 195.451 590.925 195.64 590.791 195.877C590.657 196.114 590.592 196.37 590.596 196.645H589.369C589.369 196.11 589.489 195.642 589.73 195.241C589.975 194.836 590.309 194.52 590.733 194.295C591.158 194.065 591.643 193.951 592.19 193.951C592.709 193.951 593.176 194.069 593.588 194.306C594.001 194.539 594.326 194.86 594.563 195.269C594.804 195.678 594.924 196.145 594.924 196.668C594.924 197.046 594.874 197.367 594.775 197.631C594.676 197.895 594.527 198.14 594.328 198.365C594.129 198.59 593.881 198.835 593.583 199.099L590.808 201.575L590.676 201.231H594.924V202.372H589.34ZM599.137 202.55C598.602 202.55 598.12 202.424 597.692 202.172C597.264 201.915 596.924 201.566 596.672 201.122C596.423 200.679 596.299 200.175 596.299 199.609V196.978C596.299 196.378 596.423 195.85 596.672 195.395C596.924 194.941 597.272 194.587 597.715 194.335C598.162 194.083 598.676 193.956 599.257 193.956C599.693 193.956 600.102 194.039 600.484 194.203C600.866 194.367 601.197 194.612 601.476 194.937L600.599 195.757C600.442 195.554 600.245 195.394 600.008 195.275C599.775 195.153 599.525 195.092 599.257 195.092C598.913 195.092 598.611 195.174 598.351 195.338C598.091 195.499 597.887 195.711 597.738 195.974C597.593 196.238 597.52 196.521 597.52 196.823V198.336L597.285 198.073C597.522 197.763 597.816 197.518 598.168 197.339C598.519 197.159 598.896 197.069 599.297 197.069C599.809 197.069 600.266 197.19 600.667 197.431C601.072 197.668 601.39 197.99 601.619 198.399C601.852 198.808 601.969 199.269 601.969 199.781C601.969 200.297 601.839 200.765 601.579 201.186C601.323 201.602 600.979 201.935 600.547 202.183C600.119 202.428 599.649 202.55 599.137 202.55ZM599.137 201.398C599.435 201.398 599.706 201.325 599.951 201.18C600.195 201.035 600.39 200.84 600.535 200.595C600.681 200.35 600.753 200.079 600.753 199.781C600.753 199.483 600.681 199.212 600.535 198.967C600.394 198.722 600.201 198.527 599.956 198.382C599.712 198.237 599.441 198.164 599.142 198.164C598.844 198.164 598.571 198.237 598.323 198.382C598.078 198.527 597.883 198.722 597.738 198.967C597.593 199.212 597.52 199.483 597.52 199.781C597.52 200.075 597.593 200.345 597.738 200.589C597.883 200.834 598.078 201.031 598.323 201.18C598.567 201.325 598.839 201.398 599.137 201.398ZM606.298 202.55C605.736 202.55 605.239 202.428 604.807 202.183C604.376 201.935 604.035 201.594 603.787 201.163C603.542 200.731 603.42 200.234 603.42 199.672V196.829C603.42 196.267 603.542 195.77 603.787 195.338C604.035 194.906 604.376 194.568 604.807 194.323C605.239 194.075 605.736 193.951 606.298 193.951C606.86 193.951 607.357 194.075 607.789 194.323C608.22 194.568 608.559 194.906 608.803 195.338C609.052 195.77 609.176 196.267 609.176 196.829V199.672C609.176 200.234 609.052 200.731 608.803 201.163C608.559 201.594 608.22 201.935 607.789 202.183C607.357 202.428 606.86 202.55 606.298 202.55ZM606.298 201.403C606.604 201.403 606.881 201.331 607.129 201.186C607.381 201.036 607.582 200.838 607.731 200.589C607.88 200.337 607.955 200.056 607.955 199.747V196.743C607.955 196.437 607.88 196.16 607.731 195.911C607.582 195.659 607.381 195.46 607.129 195.315C606.881 195.166 606.604 195.092 606.298 195.092C605.992 195.092 605.713 195.166 605.461 195.315C605.213 195.46 605.014 195.659 604.865 195.911C604.716 196.16 604.641 196.437 604.641 196.743V199.747C604.641 200.056 604.716 200.337 604.865 200.589C605.014 200.838 605.213 201.036 605.461 201.186C605.713 201.331 605.992 201.403 606.298 201.403Z" fill="white"/>
<path fill-rule="evenodd" clip-rule="evenodd" d="M507.06 121.555C502.838 121.555 499.416 124.977 499.416 129.198V136.842C499.416 141.064 502.838 144.486 507.06 144.486H526.928L528.924 148.504C529.205 149.069 530.012 149.069 530.293 148.504L532.289 144.486H551.393C555.615 144.486 559.037 141.064 559.037 136.842V129.198C559.037 124.977 555.615 121.555 551.393 121.555H507.06Z" fill="#A533FF"/>
<path d="M514.04 138.758V137.417H515.238V138.758H514.04ZM514.04 129.568V128.221H515.238V129.568H514.04ZM514.699 137.789C514.126 137.789 513.614 137.686 513.163 137.48C512.712 137.273 512.341 136.981 512.051 136.602C511.764 136.22 511.577 135.769 511.489 135.25L512.675 135.06C512.79 135.55 513.035 135.939 513.409 136.23C513.784 136.516 514.233 136.66 514.756 136.66C515.276 136.66 515.699 136.536 516.023 136.287C516.352 136.039 516.516 135.722 516.516 135.336C516.516 135.06 516.432 134.837 516.264 134.665C516.1 134.493 515.83 134.348 515.456 134.229L513.518 133.633C512.372 133.277 511.798 132.59 511.798 131.569C511.798 131.088 511.913 130.669 512.142 130.314C512.375 129.958 512.702 129.683 513.123 129.488C513.543 129.293 514.034 129.196 514.596 129.196C515.135 129.203 515.613 129.303 516.029 129.494C516.45 129.685 516.797 129.96 517.073 130.319C517.352 130.679 517.545 131.11 517.652 131.615L516.43 131.833C516.377 131.539 516.264 131.279 516.092 131.053C515.924 130.828 515.71 130.652 515.45 130.526C515.194 130.4 514.906 130.335 514.584 130.331C514.283 130.323 514.011 130.371 513.77 130.474C513.533 130.574 513.344 130.715 513.203 130.898C513.065 131.078 512.997 131.282 512.997 131.512C512.997 131.764 513.094 131.978 513.289 132.154C513.484 132.33 513.791 132.481 514.212 132.607L515.731 133.048C516.427 133.255 516.929 133.532 517.239 133.879C517.548 134.227 517.703 134.69 517.703 135.267C517.703 135.771 517.577 136.213 517.325 136.591C517.076 136.966 516.727 137.26 516.276 137.474C515.825 137.684 515.299 137.789 514.699 137.789ZM522.424 137.617V136.178H518.698V135.043L521.381 129.362H522.751L520.068 135.043H522.424V132.807H523.639V135.043H524.459V136.178H523.639V137.617H522.424ZM525.606 137.611L525.612 136.545L529.206 133.323C529.497 133.067 529.693 132.823 529.797 132.59C529.904 132.356 529.957 132.123 529.957 131.89C529.957 131.596 529.892 131.332 529.762 131.099C529.632 130.862 529.453 130.675 529.223 130.537C528.994 130.4 528.73 130.331 528.432 130.331C528.127 130.331 527.853 130.403 527.612 130.549C527.376 130.69 527.19 130.879 527.056 131.116C526.923 131.353 526.858 131.609 526.861 131.884H525.635C525.635 131.349 525.755 130.881 525.996 130.48C526.24 130.075 526.575 129.759 526.999 129.534C527.423 129.305 527.909 129.19 528.455 129.19C528.975 129.19 529.441 129.309 529.854 129.545C530.267 129.779 530.592 130.1 530.829 130.509C531.069 130.917 531.19 131.384 531.19 131.907C531.19 132.286 531.14 132.607 531.041 132.87C530.941 133.134 530.792 133.379 530.594 133.604C530.395 133.83 530.146 134.074 529.848 134.338L527.074 136.815L526.942 136.471H531.19V137.611H525.606ZM535.402 137.789C534.867 137.789 534.386 137.663 533.958 137.411C533.53 137.155 533.189 136.805 532.937 136.362C532.689 135.918 532.565 135.414 532.565 134.848V132.217C532.565 131.617 532.689 131.089 532.937 130.635C533.189 130.18 533.537 129.826 533.981 129.574C534.428 129.322 534.942 129.196 535.523 129.196C535.958 129.196 536.367 129.278 536.75 129.442C537.132 129.607 537.462 129.851 537.741 130.176L536.864 130.996C536.707 130.793 536.511 130.633 536.274 130.514C536.041 130.392 535.79 130.331 535.523 130.331C535.179 130.331 534.877 130.413 534.617 130.577C534.357 130.738 534.153 130.95 534.004 131.214C533.858 131.477 533.786 131.76 533.786 132.062V133.576L533.551 133.312C533.788 133.002 534.082 132.758 534.433 132.578C534.785 132.398 535.162 132.309 535.563 132.309C536.075 132.309 536.532 132.429 536.933 132.67C537.338 132.907 537.655 133.23 537.885 133.639C538.118 134.048 538.234 134.508 538.234 135.02C538.234 135.536 538.104 136.004 537.844 136.425C537.588 136.841 537.244 137.174 536.813 137.422C536.385 137.667 535.914 137.789 535.402 137.789ZM535.402 136.637C535.7 136.637 535.972 136.564 536.216 136.419C536.461 136.274 536.656 136.079 536.801 135.834C536.946 135.59 537.019 135.318 537.019 135.02C537.019 134.722 536.946 134.451 536.801 134.206C536.66 133.962 536.467 133.767 536.222 133.621C535.978 133.476 535.706 133.404 535.408 133.404C535.11 133.404 534.837 133.476 534.588 133.621C534.344 133.767 534.149 133.962 534.004 134.206C533.858 134.451 533.786 134.722 533.786 135.02C533.786 135.315 533.858 135.584 534.004 135.829C534.149 136.073 534.344 136.27 534.588 136.419C534.833 136.564 535.104 136.637 535.402 136.637ZM542.564 137.789C542.002 137.789 541.505 137.667 541.073 137.422C540.641 137.174 540.301 136.834 540.053 136.402C539.808 135.97 539.686 135.473 539.686 134.911V132.068C539.686 131.506 539.808 131.009 540.053 130.577C540.301 130.145 540.641 129.807 541.073 129.563C541.505 129.314 542.002 129.19 542.564 129.19C543.125 129.19 543.622 129.314 544.054 129.563C544.486 129.807 544.824 130.145 545.069 130.577C545.317 131.009 545.441 131.506 545.441 132.068V134.911C545.441 135.473 545.317 135.97 545.069 136.402C544.824 136.834 544.486 137.174 544.054 137.422C543.622 137.667 543.125 137.789 542.564 137.789ZM542.564 136.643C542.869 136.643 543.146 136.57 543.395 136.425C543.647 136.276 543.848 136.077 543.997 135.829C544.146 135.576 544.22 135.295 544.22 134.986V131.982C544.22 131.676 544.146 131.399 543.997 131.151C543.848 130.898 543.647 130.7 543.395 130.554C543.146 130.405 542.869 130.331 542.564 130.331C542.258 130.331 541.979 130.405 541.727 130.554C541.478 130.7 541.279 130.898 541.13 131.151C540.981 131.399 540.907 131.676 540.907 131.982V134.986C540.907 135.295 540.981 135.576 541.13 135.829C541.279 136.077 541.478 136.276 541.727 136.425C541.979 136.57 542.258 136.643 542.564 136.643Z" fill="white"/>
</g>
<defs>
<filter id="filter0_d_1043_744" x="11.9264" y="33.1077" width="389.995" height="389.3" filterUnits="userSpaceOnUse" color-interpolation-filters="sRGB">
<feFlood flood-opacity="0" result="BackgroundImageFix"/>
<feColorMatrix in="SourceAlpha" type="matrix" values="0 0 0 0 0 0 0 0 0 0 0 0 0 0 0 0 0 0 127 0" result="hardAlpha"/>
<feOffset dy="3.4821"/>
<feGaussianBlur stdDeviation="13.9284"/>
<feComposite in2="hardAlpha" operator="out"/>
<feColorMatrix type="matrix" values="0 0 0 0 0 0 0 0 0 0.105882 0 0 0 0 0.419608 0 0 0 0.08 0"/>
<feBlend mode="normal" in2="BackgroundImageFix" result="effect1_dropShadow_1043_744"/>
<feBlend mode="normal" in="SourceGraphic" in2="effect1_dropShadow_1043_744" result="shape"/>
</filter>
<linearGradient id="paint0_linear_1043_744" x1="585.035" y1="362.837" x2="604.142" y2="346.3" gradientUnits="userSpaceOnUse">
<stop stop-color="#FFDD55"/>
<stop offset="0.5" stop-color="#FF543E"/>
<stop offset="1" stop-color="#C837AB"/>
</linearGradient>
<clipPath id="clip0_1043_744">
<rect x="0.783203" y="0.375" width="806.455" height="458.941" rx="13.5454" fill="white"/>
</clipPath>
<clipPath id="clip1_1043_744">
<rect width="20.5589" height="20.5589" fill="white" transform="translate(710.146 343.59)"/>
</clipPath>
<clipPath id="clip2_1043_744">
<rect width="20.5589" height="20.5589" fill="white" transform="translate(583.709 343.594)"/>
</clipPath>
<clipPath id="clip3_1043_744">
<rect width="20.5589" height="20.5589" fill="white" transform="translate(645.387 343.594)"/>
</clipPath>
<clipPath id="clip4_1043_744">
<rect width="15.4192" height="205.589" fill="white" transform="translate(477.83 130.807)"/>
</clipPath>
<clipPath id="clip5_1043_744">
<rect width="235.39" height="191.516" fill="white" transform="translate(510.963 141.33)"/>
</clipPath>
</defs>
</svg>
