<svg width="427" height="390" viewBox="0 0 427 390" fill="none" xmlns="http://www.w3.org/2000/svg">
<rect y="0.107422" width="426.064" height="389.244" rx="8.76676" fill="white"/>
<path d="M161.204 43.7069C165.219 43.7069 167.691 46.0564 167.691 49.8436C167.691 53.6308 165.219 55.9277 161.204 55.9277H157.399V43.7069H161.204ZM158.994 54.6127H161.204C164.395 54.6127 166.06 52.8243 166.06 49.8436C166.06 46.8629 164.395 45.0044 161.204 45.0044H158.994V54.6127ZM174.758 47.5116C173.197 47.5116 171.9 48.5461 171.724 50.4222H177.791C177.808 48.5461 176.406 47.5116 174.758 47.5116ZM179.246 52.9646C178.755 54.7179 177.212 56.0855 174.828 56.0855C172.093 56.0855 170.076 54.1568 170.076 51.106C170.076 48.0727 172.022 46.1616 174.828 46.1616C177.616 46.1616 179.439 48.1253 179.439 50.7553C179.439 51.106 179.422 51.3866 179.386 51.7197H171.707C171.83 53.6659 173.197 54.7355 174.828 54.7355C176.266 54.7355 177.177 53.999 177.528 52.9646H179.246ZM181.282 46.3194H183L185.999 54.4549L188.979 46.3194H190.68L186.91 55.9277H185.052L181.282 46.3194ZM193.127 55.9277V46.3194H194.722V55.9277H193.127ZM193.951 44.7589C193.337 44.7589 192.864 44.2855 192.864 43.6718C192.864 43.0581 193.337 42.5847 193.951 42.5847C194.53 42.5847 195.003 43.0581 195.003 43.6718C195.003 44.2855 194.53 44.7589 193.951 44.7589ZM197.722 51.106C197.722 48.0903 199.669 46.1616 202.404 46.1616C204.788 46.1616 206.349 47.3889 206.84 49.4053H205.121C204.788 48.2481 203.824 47.5116 202.404 47.5116C200.65 47.5116 199.353 48.7565 199.353 51.106C199.353 53.4906 200.65 54.7355 202.404 54.7355C203.824 54.7355 204.771 54.0516 205.121 52.8418H206.84C206.349 54.753 204.788 56.0855 202.404 56.0855C199.669 56.0855 197.722 54.1568 197.722 51.106ZM213.931 47.5116C212.37 47.5116 211.073 48.5461 210.897 50.4222H216.964C216.981 48.5461 215.579 47.5116 213.931 47.5116ZM218.419 52.9646C217.928 54.7179 216.385 56.0855 214.001 56.0855C211.266 56.0855 209.249 54.1568 209.249 51.106C209.249 48.0727 211.195 46.1616 214.001 46.1616C216.789 46.1616 218.612 48.1253 218.612 50.7553C218.612 51.106 218.595 51.3866 218.559 51.7197H210.88C211.003 53.6659 212.37 54.7355 214.001 54.7355C215.439 54.7355 216.35 53.999 216.701 52.9646H218.419ZM226.392 45.0044V43.7069H234.668V45.0044H231.336V55.9277H229.741V45.0044H226.392ZM241.156 54.1042L244.136 46.3194H245.784L239.998 60.4514H238.35L240.244 55.8225L236.369 46.3194H238.14L241.156 54.1042ZM249.861 48.0903C250.439 47.0733 251.702 46.1616 253.455 46.1616C256.032 46.1616 258.014 48.0903 258.014 51.0885C258.014 54.0692 256.032 56.0855 253.455 56.0855C251.702 56.0855 250.457 55.1387 249.861 54.1568V60.4864H248.265V46.3194H249.861V48.0903ZM256.383 51.0885C256.383 48.8267 254.893 47.5467 253.122 47.5467C251.386 47.5467 249.861 48.8793 249.861 51.106C249.861 53.3678 251.386 54.6829 253.122 54.6829C254.893 54.6829 256.383 53.3503 256.383 51.0885ZM265.076 47.5116C263.515 47.5116 262.218 48.5461 262.042 50.4222H268.109C268.127 48.5461 266.724 47.5116 265.076 47.5116ZM269.564 52.9646C269.073 54.7179 267.53 56.0855 265.146 56.0855C262.411 56.0855 260.394 54.1568 260.394 51.106C260.394 48.0727 262.341 46.1616 265.146 46.1616C267.934 46.1616 269.757 48.1253 269.757 50.7553C269.757 51.106 269.74 51.3866 269.705 51.7197H262.025C262.148 53.6659 263.515 54.7355 265.146 54.7355C266.584 54.7355 267.495 53.999 267.846 52.9646H269.564Z" fill="#282636"/>
<path d="M56.957 236.451L46.7557 236.451L46.7557 233.004C46.7557 232.204 46.9002 231.55 47.1891 231.042C47.4747 230.53 47.8615 230.152 48.3497 229.906C48.8378 229.66 49.3824 229.537 49.9835 229.537C50.5845 229.537 51.1308 229.66 51.6223 229.906C52.1137 230.148 52.5056 230.524 52.7978 231.032C53.0867 231.54 53.2312 232.191 53.2312 232.984L53.2312 235.455L52.1353 235.455L52.1353 233.024C52.1353 232.476 52.0407 232.036 51.8514 231.704C51.6621 231.372 51.4064 231.131 51.0843 230.982C50.7589 230.829 50.3919 230.753 49.9835 230.753C49.575 230.753 49.2097 230.829 48.8876 230.982C48.5655 231.131 48.3131 231.374 48.1305 231.709C47.9445 232.045 47.8516 232.49 47.8516 233.044L47.8516 235.216L56.957 235.216L56.957 236.451ZM57.1164 224.581C57.1164 225.318 56.9537 225.954 56.6283 226.489C56.2995 227.02 55.8413 227.43 55.2535 227.719C54.6624 228.005 53.975 228.148 53.1913 228.148C52.4076 228.148 51.7169 228.005 51.1192 227.719C50.5181 227.43 50.0499 227.029 49.7145 226.514C49.3758 225.996 49.2064 225.391 49.2064 224.701C49.2064 224.302 49.2728 223.909 49.4057 223.52C49.5385 223.132 49.7543 222.778 50.0532 222.459C50.3488 222.14 50.7406 221.886 51.2288 221.697C51.7169 221.508 52.318 221.413 53.0319 221.413L53.53 221.413L53.53 227.311L52.5139 227.311L52.5139 222.609C52.0822 222.609 51.697 222.695 51.3583 222.868C51.0195 223.037 50.7522 223.279 50.5563 223.595C50.3604 223.907 50.2624 224.276 50.2624 224.701C50.2624 225.169 50.3786 225.574 50.6111 225.916C50.8402 226.255 51.1391 226.516 51.5077 226.698C51.8763 226.881 52.2715 226.972 52.6932 226.972L53.3706 226.972C53.9484 226.972 54.4382 226.873 54.8401 226.673C55.2385 226.471 55.5424 226.19 55.7516 225.831C55.9575 225.473 56.0604 225.056 56.0604 224.581C56.0604 224.272 56.0173 223.993 55.9309 223.744C55.8413 223.492 55.7084 223.275 55.5324 223.092C55.3531 222.909 55.1306 222.768 54.865 222.668L55.1838 221.533C55.569 221.652 55.9077 221.853 56.1999 222.135C56.4888 222.418 56.7146 222.766 56.8773 223.182C57.0367 223.597 57.1164 224.063 57.1164 224.581ZM56.957 219.625L49.306 219.625L49.306 218.489L50.4617 218.489L50.4617 218.41C50.0831 218.27 49.7759 218.018 49.5402 217.652C49.3044 217.287 49.1865 216.875 49.1865 216.417C49.1865 216.331 49.1882 216.223 49.1915 216.093C49.1948 215.964 49.1998 215.866 49.2064 215.8L50.4019 215.8C50.3919 215.839 50.377 215.931 50.3571 216.073C50.3338 216.213 50.3222 216.361 50.3222 216.517C50.3222 216.889 50.4002 217.221 50.5563 217.513C50.7091 217.802 50.9216 218.031 51.1939 218.2C51.4629 218.366 51.77 218.449 52.1154 218.449L56.957 218.449L56.957 219.625ZM57.1164 211.531C57.1164 212.248 56.9471 212.866 56.6084 213.384C56.2696 213.902 55.8031 214.3 55.2087 214.579C54.6142 214.858 53.9352 214.998 53.1714 214.998C52.3943 214.998 51.7086 214.855 51.1142 214.569C50.5165 214.28 50.0499 213.878 49.7145 213.364C49.3758 212.846 49.2064 212.241 49.2064 211.551C49.2064 211.013 49.306 210.528 49.5053 210.096C49.7045 209.664 49.9835 209.311 50.3421 209.035C50.7008 208.76 51.1192 208.589 51.5974 208.522L51.5974 209.698C51.2487 209.787 50.9398 209.987 50.6709 210.295C50.3986 210.601 50.2624 211.013 50.2624 211.531C50.2624 211.989 50.382 212.391 50.6211 212.736C50.8568 213.078 51.1906 213.345 51.6223 213.538C52.0506 213.727 52.5537 213.822 53.1315 213.822C53.7226 213.822 54.2373 213.729 54.6757 213.543C55.114 213.354 55.4544 213.088 55.6968 212.746C55.9392 212.401 56.0604 211.996 56.0604 211.531C56.0604 211.225 56.0073 210.948 55.901 210.699C55.7948 210.45 55.642 210.239 55.4428 210.066C55.2435 209.894 55.0044 209.771 54.7255 209.698L54.7255 208.522C55.1771 208.589 55.5839 208.753 55.9459 209.015C56.3045 209.274 56.5901 209.618 56.8026 210.046C57.0118 210.471 57.1164 210.966 57.1164 211.531ZM57.1164 203.596C57.1164 204.333 56.9537 204.969 56.6283 205.504C56.2995 206.035 55.8413 206.445 55.2535 206.734C54.6624 207.019 53.975 207.162 53.1913 207.162C52.4076 207.162 51.7169 207.019 51.1192 206.734C50.5181 206.445 50.0499 206.043 49.7145 205.528C49.3758 205.01 49.2064 204.406 49.2064 203.715C49.2064 203.317 49.2728 202.923 49.4057 202.535C49.5385 202.146 49.7543 201.793 50.0532 201.474C50.3488 201.155 50.7406 200.901 51.2288 200.712C51.7169 200.522 52.318 200.428 53.0319 200.428L53.53 200.428L53.53 206.325L52.5139 206.325L52.5139 201.623C52.0822 201.623 51.697 201.71 51.3583 201.882C51.0195 202.052 50.7522 202.294 50.5563 202.61C50.3604 202.922 50.2624 203.29 50.2624 203.715C50.2624 204.184 50.3786 204.589 50.6111 204.931C50.8402 205.269 51.1391 205.53 51.5077 205.713C51.8763 205.895 52.2715 205.987 52.6932 205.987L53.3706 205.987C53.9484 205.987 54.4382 205.887 54.8401 205.688C55.2385 205.485 55.5424 205.205 55.7516 204.846C55.9575 204.487 56.0604 204.071 56.0604 203.596C56.0604 203.287 56.0173 203.008 55.9309 202.759C55.8413 202.507 55.7084 202.289 55.5324 202.106C55.3531 201.924 55.1306 201.783 54.865 201.683L55.1838 200.547C55.569 200.667 55.9077 200.868 56.1999 201.15C56.4888 201.432 56.7146 201.781 56.8773 202.196C57.0367 202.611 57.1164 203.078 57.1164 203.596ZM52.3545 197.464L56.957 197.464L56.957 198.64L49.306 198.64L49.306 197.504L50.5015 197.504L50.5015 197.404C50.113 197.225 49.8008 196.953 49.5651 196.587C49.326 196.222 49.2064 195.751 49.2064 195.173C49.2064 194.655 49.3127 194.201 49.5252 193.813C49.7344 193.424 50.0532 193.122 50.4816 192.906C50.9066 192.69 51.4446 192.583 52.0955 192.583L56.957 192.583L56.957 193.758L52.1752 193.758C51.5741 193.758 51.1059 193.914 50.7705 194.226C50.4318 194.538 50.2624 194.967 50.2624 195.511C50.2624 195.887 50.3438 196.222 50.5065 196.518C50.6692 196.81 50.9066 197.041 51.2188 197.21C51.5309 197.379 51.9095 197.464 52.3545 197.464ZM49.306 187.107L50.3023 187.107L50.3023 191.072L49.306 191.072L49.306 187.107ZM47.473 189.916L47.473 188.741L54.7653 188.741C55.0974 188.741 55.3465 188.693 55.5125 188.596C55.6752 188.497 55.7848 188.371 55.8413 188.218C55.8944 188.062 55.921 187.897 55.921 187.725C55.921 187.595 55.9143 187.489 55.901 187.406C55.8844 187.323 55.8711 187.257 55.8612 187.207L56.9172 186.968C56.9471 187.047 56.977 187.159 57.0068 187.301C57.04 187.444 57.0567 187.625 57.0567 187.844C57.0567 188.176 56.9853 188.502 56.8425 188.821C56.6997 189.136 56.4822 189.398 56.1899 189.608C55.8977 189.813 55.5291 189.916 55.0841 189.916L47.473 189.916ZM57.1363 183.087C57.1363 183.572 57.045 184.012 56.8624 184.407C56.6764 184.802 56.4091 185.116 56.0604 185.349C55.7084 185.581 55.2834 185.697 54.7853 185.697C54.3469 185.697 53.9916 185.611 53.7193 185.438C53.4437 185.266 53.2278 185.035 53.0718 184.746C52.9157 184.457 52.7995 184.138 52.7231 183.79C52.6434 183.438 52.5803 183.084 52.5338 182.729C52.474 182.264 52.4292 181.887 52.3993 181.598C52.3661 181.306 52.3113 181.093 52.2349 180.96C52.1586 180.824 52.0257 180.756 51.8364 180.756L51.7966 180.756C51.3051 180.756 50.9232 180.891 50.6509 181.16C50.3786 181.425 50.2425 181.829 50.2425 182.37C50.2425 182.931 50.3654 183.371 50.6111 183.69C50.8568 184.009 51.1192 184.233 51.3981 184.362L50.9996 185.478C50.5347 185.279 50.1728 185.013 49.9137 184.681C49.6514 184.346 49.4688 183.981 49.3658 183.585C49.2596 183.187 49.2064 182.795 49.2064 182.41C49.2064 182.164 49.2363 181.882 49.2961 181.563C49.3525 181.241 49.4704 180.93 49.6497 180.632C49.8291 180.329 50.0997 180.079 50.4617 179.879C50.8236 179.68 51.3084 179.581 51.9161 179.581L56.957 179.581L56.957 180.756L55.921 180.756L55.921 180.816C56.087 180.896 56.2647 181.028 56.4539 181.214C56.6432 181.4 56.8043 181.648 56.9371 181.957C57.0699 182.265 57.1363 182.642 57.1363 183.087ZM56.0804 182.908C56.0804 182.443 55.989 182.051 55.8064 181.732C55.6238 181.41 55.388 181.168 55.0991 181.005C54.8102 180.839 54.5063 180.756 54.1875 180.756L53.1116 180.756C53.1714 180.806 53.2262 180.916 53.276 181.085C53.3225 181.251 53.364 181.444 53.4005 181.663C53.4337 181.879 53.4636 182.089 53.4902 182.295C53.5134 182.498 53.5333 182.662 53.5499 182.788C53.5898 183.094 53.6546 183.38 53.7442 183.645C53.8306 183.908 53.9617 184.12 54.1377 184.283C54.3104 184.442 54.5462 184.522 54.845 184.522C55.2535 184.522 55.5623 184.371 55.7715 184.069C55.9774 183.763 56.0804 183.376 56.0804 182.908ZM59.9855 174.347C59.9855 174.915 59.9125 175.403 59.7664 175.811C59.6236 176.22 59.4343 176.56 59.1985 176.832C58.9661 177.101 58.717 177.315 58.4514 177.475L57.7939 176.538C57.9333 176.432 58.0927 176.298 58.272 176.135C58.4547 175.972 58.6124 175.75 58.7452 175.467C58.8814 175.182 58.9495 174.808 58.9495 174.347C58.9495 173.729 58.8 173.219 58.5012 172.818C58.2023 172.416 57.7341 172.215 57.0965 172.215L55.5424 172.215L55.5424 172.314C55.6819 172.401 55.8545 172.524 56.0604 172.683C56.263 172.839 56.444 173.065 56.6034 173.36C56.7594 173.653 56.8375 174.048 56.8375 174.546C56.8375 175.164 56.6914 175.718 56.3991 176.21C56.1069 176.698 55.6819 177.085 55.124 177.37C54.5661 177.653 53.8887 177.794 53.0917 177.794C52.308 177.794 51.6256 177.656 51.0444 177.38C50.46 177.105 50.0084 176.721 49.6896 176.23C49.3675 175.738 49.2064 175.17 49.2064 174.526C49.2064 174.028 49.2894 173.633 49.4555 173.341C49.6182 173.045 49.8042 172.819 50.0134 172.663C50.2192 172.504 50.3886 172.381 50.5214 172.294L50.5214 172.175L49.306 172.175L49.306 171.039L57.1762 171.039C57.8337 171.039 58.3683 171.189 58.7801 171.488C59.1952 171.783 59.4991 172.182 59.6917 172.683C59.8876 173.181 59.9855 173.736 59.9855 174.347ZM55.7815 174.387C55.7815 173.915 55.6736 173.517 55.4577 173.191C55.2419 172.866 54.9314 172.618 54.5262 172.449C54.1211 172.28 53.6363 172.195 53.0718 172.195C52.5205 172.195 52.034 172.278 51.6123 172.444C51.1906 172.61 50.8601 172.856 50.6211 173.181C50.382 173.507 50.2624 173.908 50.2624 174.387C50.2624 174.885 50.3886 175.3 50.641 175.632C50.8934 175.961 51.2321 176.208 51.6571 176.374C52.0822 176.537 52.5537 176.618 53.0718 176.618C53.6031 176.618 54.073 176.535 54.4814 176.369C54.8865 176.2 55.2053 175.951 55.4378 175.622C55.6669 175.29 55.7815 174.878 55.7815 174.387ZM57.1164 165.68C57.1164 166.417 56.9537 167.053 56.6283 167.587C56.2995 168.119 55.8413 168.529 55.2535 168.818C54.6624 169.103 53.975 169.246 53.1913 169.246C52.4076 169.246 51.7169 169.103 51.1192 168.818C50.5181 168.529 50.0499 168.127 49.7145 167.612C49.3758 167.094 49.2064 166.49 49.2064 165.799C49.2064 165.401 49.2728 165.007 49.4057 164.619C49.5385 164.23 49.7543 163.876 50.0532 163.558C50.3488 163.239 50.7406 162.985 51.2287 162.796C51.7169 162.606 52.318 162.512 53.0319 162.512L53.53 162.512L53.53 168.409L52.5139 168.409L52.5139 163.707C52.0822 163.707 51.697 163.793 51.3583 163.966C51.0195 164.135 50.7522 164.378 50.5563 164.693C50.3604 165.005 50.2624 165.374 50.2624 165.799C50.2624 166.267 50.3786 166.672 50.6111 167.015C50.8402 167.353 51.1391 167.614 51.5077 167.797C51.8763 167.979 52.2715 168.071 52.6932 168.071L53.3706 168.071C53.9484 168.071 54.4382 167.971 54.8401 167.772C55.2385 167.569 55.5424 167.288 55.7516 166.93C55.9575 166.571 56.0604 166.154 56.0604 165.68C56.0604 165.371 56.0173 165.092 55.9309 164.843C55.8413 164.59 55.7084 164.373 55.5324 164.19C55.3531 164.008 55.1306 163.866 54.865 163.767L55.1838 162.631C55.569 162.751 55.9077 162.952 56.1999 163.234C56.4888 163.516 56.7146 163.865 56.8773 164.28C57.0367 164.695 57.1164 165.162 57.1164 165.68Z" fill="black"/>
<path d="M200.758 350.751H197.61V340.55H200.898C201.887 340.55 202.734 340.754 203.438 341.162C204.142 341.567 204.682 342.15 205.057 342.911C205.432 343.668 205.62 344.574 205.62 345.63C205.62 346.693 205.431 347.608 205.052 348.375C204.674 349.139 204.122 349.727 203.398 350.138C202.674 350.547 201.794 350.751 200.758 350.751ZM198.846 349.655H200.679C201.522 349.655 202.221 349.492 202.776 349.167C203.33 348.842 203.744 348.378 204.016 347.777C204.288 347.176 204.424 346.461 204.424 345.63C204.424 344.807 204.29 344.098 204.021 343.503C203.752 342.906 203.35 342.447 202.816 342.129C202.281 341.807 201.615 341.646 200.818 341.646H198.846V349.655ZM210.741 350.91C210.003 350.91 209.367 350.748 208.833 350.422C208.301 350.093 207.891 349.635 207.602 349.047C207.317 348.456 207.174 347.769 207.174 346.985C207.174 346.202 207.317 345.511 207.602 344.913C207.891 344.312 208.293 343.844 208.808 343.508C209.326 343.17 209.93 343 210.621 343C211.019 343 211.413 343.067 211.802 343.2C212.19 343.332 212.544 343.548 212.862 343.847C213.181 344.143 213.435 344.535 213.625 345.023C213.814 345.511 213.909 346.112 213.909 346.826V347.324H208.011V346.308H212.713C212.713 345.876 212.627 345.491 212.454 345.152C212.285 344.813 212.042 344.546 211.727 344.35C211.415 344.154 211.046 344.056 210.621 344.056C210.153 344.056 209.748 344.173 209.406 344.405C209.067 344.634 208.806 344.933 208.624 345.302C208.441 345.67 208.35 346.065 208.35 346.487V347.165C208.35 347.742 208.449 348.232 208.648 348.634C208.851 349.032 209.132 349.336 209.49 349.546C209.849 349.751 210.266 349.854 210.741 349.854C211.049 349.854 211.328 349.811 211.577 349.725C211.83 349.635 212.047 349.502 212.23 349.326C212.413 349.147 212.554 348.925 212.653 348.659L213.789 348.978C213.669 349.363 213.469 349.702 213.186 349.994C212.904 350.283 212.555 350.509 212.14 350.671C211.725 350.831 211.259 350.91 210.741 350.91ZM221.72 343.1L218.891 350.751H217.695L214.866 343.1H216.141L218.253 349.197H218.333L220.445 343.1H221.72ZM223.272 350.751V343.1H224.447V350.751H223.272ZM223.869 341.825C223.64 341.825 223.443 341.747 223.277 341.591C223.114 341.435 223.033 341.247 223.033 341.028C223.033 340.809 223.114 340.621 223.277 340.465C223.443 340.309 223.64 340.231 223.869 340.231C224.099 340.231 224.295 340.309 224.457 340.465C224.623 340.621 224.706 340.809 224.706 341.028C224.706 341.247 224.623 341.435 224.457 341.591C224.295 341.747 224.099 341.825 223.869 341.825ZM229.709 350.91C228.991 350.91 228.374 350.741 227.856 350.402C227.338 350.064 226.939 349.597 226.66 349.003C226.381 348.408 226.242 347.729 226.242 346.965C226.242 346.188 226.385 345.503 226.67 344.908C226.959 344.31 227.361 343.844 227.876 343.508C228.394 343.17 228.998 343 229.689 343C230.227 343 230.711 343.1 231.143 343.299C231.575 343.498 231.929 343.777 232.204 344.136C232.48 344.495 232.651 344.913 232.717 345.391H231.542C231.452 345.043 231.253 344.734 230.944 344.465C230.638 344.193 230.227 344.056 229.709 344.056C229.25 344.056 228.849 344.176 228.503 344.415C228.161 344.651 227.894 344.985 227.701 345.416C227.512 345.845 227.417 346.348 227.417 346.925C227.417 347.517 227.51 348.031 227.696 348.47C227.886 348.908 228.151 349.248 228.493 349.491C228.839 349.733 229.244 349.854 229.709 349.854C230.014 349.854 230.291 349.801 230.54 349.695C230.789 349.589 231 349.436 231.173 349.237C231.346 349.037 231.469 348.798 231.542 348.519H232.717C232.651 348.971 232.486 349.378 232.224 349.74C231.965 350.098 231.621 350.384 231.193 350.597C230.768 350.806 230.273 350.91 229.709 350.91ZM237.644 350.91C236.906 350.91 236.27 350.748 235.736 350.422C235.204 350.093 234.794 349.635 234.505 349.047C234.22 348.456 234.077 347.769 234.077 346.985C234.077 346.202 234.22 345.511 234.505 344.913C234.794 344.312 235.196 343.844 235.711 343.508C236.229 343.17 236.833 343 237.524 343C237.922 343 238.316 343.067 238.704 343.2C239.093 343.332 239.447 343.548 239.765 343.847C240.084 344.143 240.338 344.535 240.528 345.023C240.717 345.511 240.811 346.112 240.811 346.826V347.324H234.914V346.308H239.616C239.616 345.876 239.53 345.491 239.357 345.152C239.188 344.813 238.945 344.546 238.63 344.35C238.318 344.154 237.949 344.056 237.524 344.056C237.056 344.056 236.651 344.173 236.309 344.405C235.97 344.634 235.709 344.933 235.527 345.302C235.344 345.67 235.253 346.065 235.253 346.487V347.165C235.253 347.742 235.352 348.232 235.551 348.634C235.754 349.032 236.035 349.336 236.393 349.546C236.752 349.751 237.169 349.854 237.644 349.854C237.952 349.854 238.231 349.811 238.48 349.725C238.733 349.635 238.95 349.502 239.133 349.326C239.316 349.147 239.457 348.925 239.556 348.659L240.692 348.978C240.572 349.363 240.371 349.702 240.089 349.994C239.807 350.283 239.458 350.509 239.043 350.671C238.628 350.831 238.162 350.91 237.644 350.91ZM246.146 341.646V340.55H253.797V341.646H250.589V350.751H249.354V341.646H246.146ZM255.425 353.62C255.226 353.62 255.048 353.603 254.892 353.57C254.736 353.54 254.628 353.511 254.568 353.481L254.867 352.445C255.153 352.518 255.405 352.544 255.624 352.524C255.843 352.504 256.038 352.406 256.207 352.23C256.38 352.058 256.537 351.777 256.68 351.389L256.899 350.791L254.07 343.1H255.345L257.457 349.197H257.537L259.649 343.1H260.924L257.676 351.867C257.53 352.262 257.349 352.589 257.133 352.848C256.918 353.11 256.667 353.305 256.381 353.431C256.099 353.557 255.78 353.62 255.425 353.62ZM262.476 353.62V343.1H263.611V344.315H263.751C263.837 344.183 263.957 344.013 264.109 343.807C264.265 343.598 264.488 343.412 264.777 343.249C265.069 343.083 265.464 343 265.962 343C266.607 343 267.174 343.161 267.666 343.484C268.157 343.806 268.541 344.262 268.817 344.853C269.092 345.444 269.23 346.142 269.23 346.945C269.23 347.756 269.092 348.458 268.817 349.052C268.541 349.644 268.159 350.102 267.671 350.427C267.183 350.749 266.62 350.91 265.982 350.91C265.491 350.91 265.097 350.829 264.802 350.666C264.506 350.5 264.279 350.313 264.119 350.103C263.96 349.891 263.837 349.715 263.751 349.575H263.651V353.62H262.476ZM263.631 346.925C263.631 347.503 263.716 348.013 263.885 348.455C264.055 348.893 264.302 349.237 264.627 349.486C264.953 349.732 265.351 349.854 265.823 349.854C266.314 349.854 266.724 349.725 267.053 349.466C267.385 349.204 267.634 348.852 267.8 348.41C267.97 347.965 268.054 347.47 268.054 346.925C268.054 346.388 267.971 345.903 267.805 345.471C267.643 345.036 267.395 344.692 267.063 344.44C266.734 344.184 266.321 344.056 265.823 344.056C265.345 344.056 264.943 344.178 264.617 344.42C264.292 344.659 264.046 344.994 263.88 345.426C263.714 345.855 263.631 346.354 263.631 346.925ZM274.231 350.91C273.494 350.91 272.858 350.748 272.323 350.422C271.792 350.093 271.382 349.635 271.093 349.047C270.807 348.456 270.665 347.769 270.665 346.985C270.665 346.202 270.807 345.511 271.093 344.913C271.382 344.312 271.784 343.844 272.298 343.508C272.816 343.17 273.421 343 274.111 343C274.51 343 274.903 343.067 275.292 343.2C275.681 343.332 276.034 343.548 276.353 343.847C276.672 344.143 276.926 344.535 277.115 345.023C277.304 345.511 277.399 346.112 277.399 346.826V347.324H271.501V346.308H276.204C276.204 345.876 276.117 345.491 275.945 345.152C275.775 344.813 275.533 344.546 275.217 344.35C274.905 344.154 274.537 344.056 274.111 344.056C273.643 344.056 273.238 344.173 272.896 344.405C272.557 344.634 272.297 344.933 272.114 345.302C271.931 345.67 271.84 346.065 271.84 346.487V347.165C271.84 347.742 271.94 348.232 272.139 348.634C272.342 349.032 272.622 349.336 272.981 349.546C273.339 349.751 273.756 349.854 274.231 349.854C274.54 349.854 274.819 349.811 275.068 349.725C275.32 349.635 275.538 349.502 275.72 349.326C275.903 349.147 276.044 348.925 276.144 348.659L277.279 348.978C277.16 349.363 276.959 349.702 276.677 349.994C276.394 350.283 276.046 350.509 275.631 350.671C275.216 350.831 274.749 350.91 274.231 350.91Z" fill="black"/>
<path d="M72.1209 127.546C71.6809 127.546 71.2886 127.465 70.9441 127.303C70.6016 127.141 70.3297 126.918 70.1284 126.634C69.9271 126.35 69.8223 126.024 69.814 125.656H71.1215C71.136 125.903 71.2398 126.104 71.4328 126.257C71.6259 126.411 71.8552 126.488 72.1209 126.488C72.3325 126.488 72.5193 126.441 72.6812 126.348C72.8452 126.252 72.9728 126.12 73.0641 125.952C73.1575 125.782 73.2042 125.587 73.2042 125.367C73.2042 125.143 73.1565 124.946 73.061 124.775C72.9676 124.605 72.8379 124.472 72.6719 124.377C72.5058 124.281 72.3159 124.233 72.1022 124.231C71.9154 124.231 71.7338 124.269 71.5574 124.346C71.383 124.423 71.2471 124.527 71.1495 124.66L69.951 124.445L70.2529 121.083H74.1507V122.185H71.3643L71.1993 123.782H71.2367C71.3488 123.625 71.5179 123.494 71.7442 123.39C71.9704 123.286 72.2236 123.234 72.5038 123.234C72.8877 123.234 73.2302 123.325 73.5311 123.505C73.8321 123.686 74.0697 123.934 74.244 124.249C74.4184 124.563 74.5045 124.924 74.5024 125.333C74.5045 125.762 74.4049 126.144 74.2036 126.478C74.0043 126.81 73.7252 127.072 73.3661 127.263C73.0091 127.452 72.5941 127.546 72.1209 127.546ZM77.9425 127.599C77.4071 127.597 76.9463 127.465 76.5603 127.204C76.1763 126.942 75.8806 126.563 75.673 126.067C75.4675 125.571 75.3658 124.975 75.3679 124.277C75.3679 123.582 75.4706 122.989 75.6761 122.5C75.8837 122.01 76.1794 121.637 76.5634 121.382C76.9494 121.125 77.4091 120.996 77.9425 120.996C78.4759 120.996 78.9346 121.125 79.3186 121.382C79.7046 121.639 80.0014 122.013 80.2089 122.503C80.4165 122.991 80.5192 123.582 80.5171 124.277C80.5171 124.977 80.4134 125.574 80.2058 126.07C80.0003 126.567 79.7056 126.945 79.3217 127.207C78.9377 127.468 78.478 127.599 77.9425 127.599ZM77.9425 126.481C78.3078 126.481 78.5994 126.298 78.8173 125.93C79.0353 125.563 79.1432 125.012 79.1411 124.277C79.1411 123.794 79.0913 123.391 78.9917 123.069C78.8941 122.748 78.7551 122.506 78.5745 122.344C78.396 122.182 78.1854 122.101 77.9425 122.101C77.5793 122.101 77.2888 122.283 77.0708 122.646C76.8529 123.009 76.7429 123.553 76.7408 124.277C76.7408 124.767 76.7896 125.176 76.8872 125.504C76.9868 125.83 77.1269 126.075 77.3074 126.239C77.488 126.4 77.6997 126.481 77.9425 126.481Z" fill="#767676"/>
<path d="M69.6957 163.638V162.576L72.3575 158.383H73.2727V159.852H72.731L71.053 162.508V162.558H74.8356V163.638H69.6957ZM72.7559 164.759V163.314L72.7808 162.844V158.383H74.0448V164.759H72.7559ZM78.2336 164.899C77.6981 164.897 77.2374 164.765 76.8514 164.504C76.4674 164.242 76.1716 163.863 75.9641 163.367C75.7586 162.871 75.6569 162.274 75.659 161.577C75.659 160.882 75.7617 160.289 75.9672 159.799C76.1747 159.31 76.4705 158.937 76.8545 158.682C77.2405 158.424 77.7002 158.296 78.2336 158.296C78.767 158.296 79.2257 158.424 79.6096 158.682C79.9957 158.939 80.2925 159.313 80.5 159.803C80.7076 160.29 80.8103 160.882 80.8082 161.577C80.8082 162.277 80.7044 162.874 80.4969 163.37C80.2914 163.866 79.9967 164.245 79.6128 164.507C79.2288 164.768 78.7691 164.899 78.2336 164.899ZM78.2336 163.781C78.5989 163.781 78.8905 163.598 79.1084 163.23C79.3263 162.863 79.4343 162.312 79.4322 161.577C79.4322 161.094 79.3824 160.691 79.2828 160.369C79.1852 160.047 79.0462 159.806 78.8656 159.644C78.6871 159.482 78.4764 159.401 78.2336 159.401C77.8704 159.401 77.5798 159.583 77.3619 159.946C77.144 160.309 77.034 160.853 77.0319 161.577C77.0319 162.067 77.0807 162.476 77.1782 162.804C77.2779 163.13 77.418 163.374 77.5985 163.538C77.7791 163.7 77.9908 163.781 78.2336 163.781Z" fill="#767676"/>
<path d="M72.1489 202.147C71.684 202.147 71.2699 202.067 70.9067 201.907C70.5456 201.745 70.2602 201.523 70.0506 201.241C69.843 200.956 69.7361 200.629 69.7299 200.257H71.0873C71.0956 200.413 71.1464 200.55 71.2398 200.668C71.3353 200.784 71.4619 200.874 71.6196 200.939C71.7774 201.003 71.9548 201.035 72.152 201.035C72.3575 201.035 72.5391 200.999 72.6968 200.926C72.8545 200.854 72.978 200.753 73.0673 200.624C73.1565 200.496 73.2011 200.347 73.2011 200.179C73.2011 200.009 73.1534 199.859 73.0579 199.728C72.9645 199.595 72.8296 199.491 72.6532 199.416C72.4789 199.342 72.2713 199.304 72.0306 199.304H71.4359V198.314H72.0306C72.234 198.314 72.4135 198.279 72.5692 198.209C72.7269 198.138 72.8493 198.04 72.9365 197.916C73.0237 197.789 73.0673 197.642 73.0673 197.474C73.0673 197.314 73.0289 197.174 72.9521 197.054C72.8774 196.931 72.7715 196.836 72.6345 196.767C72.4996 196.699 72.3419 196.664 72.1613 196.664C71.9787 196.664 71.8116 196.698 71.6601 196.764C71.5086 196.828 71.3872 196.921 71.2959 197.041C71.2045 197.161 71.1558 197.303 71.1495 197.464H69.8576C69.8638 197.097 69.9686 196.773 70.172 196.493C70.3754 196.213 70.6493 195.994 70.9939 195.836C71.3405 195.676 71.7317 195.597 72.1675 195.597C72.6075 195.597 72.9925 195.676 73.3225 195.836C73.6525 195.996 73.9089 196.212 74.0915 196.484C74.2762 196.754 74.3675 197.057 74.3655 197.393C74.3675 197.75 74.2565 198.048 74.0324 198.286C73.8103 198.525 73.5208 198.677 73.1638 198.741V198.791C73.6328 198.851 73.9898 199.014 74.2347 199.279C74.4817 199.543 74.6041 199.873 74.6021 200.269C74.6041 200.633 74.4993 200.955 74.2876 201.238C74.078 201.52 73.7885 201.742 73.4191 201.904C73.0496 202.066 72.6262 202.147 72.1489 202.147ZM78.0709 202.2C77.5355 202.198 77.0747 202.066 76.6887 201.804C76.3047 201.543 76.009 201.164 75.8014 200.668C75.596 200.172 75.4943 199.575 75.4963 198.878C75.4963 198.183 75.5991 197.59 75.8045 197.1C76.0121 196.61 76.3078 196.238 76.6918 195.983C77.0778 195.725 77.5375 195.597 78.0709 195.597C78.6043 195.597 79.063 195.725 79.447 195.983C79.833 196.24 80.1298 196.614 80.3373 197.103C80.5449 197.591 80.6476 198.183 80.6456 198.878C80.6456 199.577 80.5418 200.175 80.3342 200.671C80.1288 201.167 79.8341 201.546 79.4501 201.807C79.0661 202.069 78.6064 202.2 78.0709 202.2ZM78.0709 201.082C78.4362 201.082 78.7278 200.898 78.9458 200.531C79.1637 200.164 79.2716 199.613 79.2695 198.878C79.2695 198.394 79.2197 197.992 79.1201 197.67C79.0225 197.348 78.8835 197.106 78.7029 196.945C78.5244 196.783 78.3138 196.702 78.0709 196.702C77.7077 196.702 77.4172 196.883 77.1992 197.247C76.9813 197.61 76.8713 198.154 76.8693 198.878C76.8693 199.368 76.918 199.777 77.0156 200.104C77.1152 200.43 77.2553 200.675 77.4359 200.839C77.6164 201.001 77.8281 201.082 78.0709 201.082Z" fill="#767676"/>
<path d="M69.7922 239.359V238.388L72.0617 236.287C72.2547 236.1 72.4166 235.932 72.5474 235.782C72.6802 235.633 72.7808 235.487 72.8493 235.343C72.9178 235.198 72.9521 235.041 72.9521 234.873C72.9521 234.686 72.9095 234.526 72.8244 234.391C72.7393 234.254 72.6231 234.149 72.4758 234.076C72.3284 234.002 72.1613 233.964 71.9745 233.964C71.7794 233.964 71.6092 234.004 71.464 234.083C71.3187 234.161 71.2066 234.274 71.1277 234.422C71.0489 234.569 71.0094 234.745 71.0094 234.948H69.7299C69.7299 234.531 69.8244 234.169 70.0132 233.861C70.2021 233.554 70.4667 233.317 70.8071 233.149C71.1475 232.98 71.5397 232.896 71.9839 232.896C72.4405 232.896 72.8379 232.977 73.1762 233.139C73.5166 233.299 73.7812 233.521 73.9701 233.805C74.159 234.09 74.2534 234.416 74.2534 234.783C74.2534 235.024 74.2057 235.261 74.1102 235.496C74.0168 235.73 73.8497 235.991 73.609 236.277C73.3682 236.562 73.0289 236.903 72.5909 237.302L71.6601 238.214V238.257H74.3374V239.359H69.7922ZM77.8141 239.499C77.2786 239.497 76.8179 239.366 76.4318 239.104C76.0479 238.843 75.7521 238.464 75.5446 237.968C75.3391 237.472 75.2374 236.875 75.2395 236.178C75.2395 235.482 75.3422 234.89 75.5477 234.4C75.7552 233.91 76.051 233.538 76.435 233.282C76.821 233.025 77.2807 232.896 77.8141 232.896C78.3475 232.896 78.8062 233.025 79.1901 233.282C79.5762 233.54 79.873 233.913 80.0805 234.403C80.2881 234.891 80.3908 235.482 80.3887 236.178C80.3887 236.877 80.2849 237.475 80.0774 237.971C79.8719 238.467 79.5772 238.846 79.1933 239.107C78.8093 239.369 78.3496 239.499 77.8141 239.499ZM77.8141 238.382C78.1794 238.382 78.471 238.198 78.6889 237.831C78.9068 237.463 79.0148 236.912 79.0127 236.178C79.0127 235.694 78.9629 235.291 78.8633 234.97C78.7657 234.648 78.6266 234.406 78.4461 234.244C78.2676 234.083 78.0569 234.002 77.8141 234.002C77.4509 234.002 77.1603 234.183 76.9424 234.546C76.7245 234.91 76.6145 235.453 76.6124 236.178C76.6124 236.667 76.6612 237.076 76.7587 237.404C76.8584 237.73 76.9984 237.975 77.179 238.139C77.3596 238.301 77.5713 238.382 77.8141 238.382Z" fill="#767676"/>
<path d="M73.566 270.284V276.66H72.218V271.564H72.1807L70.7206 272.479V271.284L72.299 270.284H73.566ZM77.5813 276.8C77.0458 276.798 76.5851 276.666 76.199 276.405C75.8151 276.143 75.5193 275.765 75.3118 275.269C75.1063 274.773 75.0046 274.176 75.0067 273.478C75.0067 272.783 75.1094 272.191 75.3149 271.701C75.5224 271.211 75.8182 270.838 76.2021 270.583C76.5882 270.326 77.0479 270.197 77.5813 270.197C78.1147 270.197 78.5734 270.326 78.9573 270.583C79.3433 270.841 79.6401 271.214 79.8477 271.704C80.0552 272.192 80.158 272.783 80.1559 273.478C80.1559 274.178 80.0521 274.776 79.8446 275.272C79.6391 275.768 79.3444 276.146 78.9604 276.408C78.5765 276.669 78.1167 276.8 77.5813 276.8ZM77.5813 275.683C77.9466 275.683 78.2382 275.499 78.4561 275.132C78.674 274.764 78.7819 274.213 78.7799 273.478C78.7799 272.995 78.73 272.592 78.6304 272.271C78.5329 271.949 78.3938 271.707 78.2133 271.545C78.0348 271.383 77.8241 271.302 77.5813 271.302C77.2181 271.302 76.9275 271.484 76.7096 271.847C76.4917 272.21 76.3817 272.754 76.3796 273.478C76.3796 273.968 76.4284 274.377 76.5259 274.705C76.6255 275.031 76.7656 275.276 76.9462 275.44C77.1268 275.602 77.3385 275.683 77.5813 275.683Z" fill="#767676"/>
<path d="M77.2921 314.1C76.7566 314.098 76.2959 313.966 75.9098 313.705C75.5259 313.443 75.2301 313.064 75.0226 312.568C74.8171 312.072 74.7154 311.476 74.7175 310.778C74.7175 310.083 74.8202 309.49 75.0257 309.001C75.2332 308.511 75.529 308.138 75.9129 307.883C76.299 307.626 76.7587 307.497 77.2921 307.497C77.8255 307.497 78.2841 307.626 78.6681 307.883C79.0541 308.14 79.3509 308.514 79.5585 309.004C79.766 309.491 79.8688 310.083 79.8667 310.778C79.8667 311.478 79.7629 312.075 79.5554 312.571C79.3499 313.068 79.0552 313.446 78.6712 313.708C78.2873 313.969 77.8275 314.1 77.2921 314.1ZM77.2921 312.982C77.6574 312.982 77.949 312.799 78.1669 312.431C78.3848 312.064 78.4927 311.513 78.4907 310.778C78.4907 310.295 78.4408 309.892 78.3412 309.57C78.2437 309.249 78.1046 309.007 77.9241 308.845C77.7456 308.683 77.5349 308.602 77.2921 308.602C76.9289 308.602 76.6383 308.784 76.4204 309.147C76.2025 309.51 76.0925 310.054 76.0904 310.778C76.0904 311.268 76.1392 311.677 76.2367 312.005C76.3363 312.331 76.4764 312.576 76.657 312.74C76.8375 312.901 77.0492 312.982 77.2921 312.982Z" fill="#767676"/>
<line opacity="0.5" x1="94.2422" y1="125.097" x2="383.961" y2="125.097" stroke="#B1B1B1" stroke-width="0.750566" stroke-dasharray="1.5 1.5"/>
<line opacity="0.5" x1="94.2422" y1="161.918" x2="383.961" y2="161.918" stroke="#B1B1B1" stroke-width="0.750566" stroke-dasharray="1.5 1.5"/>
<line opacity="0.5" x1="94.2422" y1="198.738" x2="383.961" y2="198.738" stroke="#B1B1B1" stroke-width="0.750566" stroke-dasharray="1.5 1.5"/>
<line opacity="0.5" x1="94.2422" y1="235.558" x2="383.961" y2="235.558" stroke="#B1B1B1" stroke-width="0.750566" stroke-dasharray="1.5 1.5"/>
<line opacity="0.5" x1="94.2422" y1="272.379" x2="383.961" y2="272.379" stroke="#B1B1B1" stroke-width="0.750566" stroke-dasharray="1.5 1.5"/>
<line opacity="0.5" x1="94.2422" y1="309.289" x2="380.038" y2="309.289" stroke="#B1B1B1" stroke-width="0.569691"/>
<rect x="106.953" y="122.843" width="70.134" height="186.732" rx="4.14213" fill="#D299FF"/>
<rect x="202.511" y="198.237" width="70.134" height="111.338" rx="4.14213" fill="#D299FF"/>
<rect x="298.068" y="235.934" width="70.134" height="73.6407" rx="4.14213" fill="#D299FF"/>
<path d="M128.111 318.335H129.773L131.529 322.619H131.604L133.36 318.335H135.022V324.711H133.715V320.561H133.662L132.012 324.68H131.121L129.471 320.545H129.418V324.711H128.111V318.335ZM138.268 324.804C137.785 324.804 137.367 324.702 137.014 324.496C136.663 324.289 136.392 324 136.201 323.631C136.01 323.259 135.915 322.828 135.915 322.339C135.915 321.845 136.01 321.413 136.201 321.044C136.392 320.672 136.663 320.384 137.014 320.178C137.367 319.971 137.785 319.867 138.268 319.867C138.752 319.867 139.169 319.971 139.52 320.178C139.873 320.384 140.145 320.672 140.336 321.044C140.526 321.413 140.622 321.845 140.622 322.339C140.622 322.828 140.526 323.259 140.336 323.631C140.145 324 139.873 324.289 139.52 324.496C139.169 324.702 138.752 324.804 138.268 324.804ZM138.275 323.777C138.495 323.777 138.678 323.715 138.826 323.59C138.973 323.464 139.084 323.291 139.159 323.073C139.236 322.855 139.274 322.607 139.274 322.329C139.274 322.051 139.236 321.803 139.159 321.585C139.084 321.367 138.973 321.195 138.826 321.068C138.678 320.942 138.495 320.879 138.275 320.879C138.053 320.879 137.866 320.942 137.714 321.068C137.565 321.195 137.452 321.367 137.375 321.585C137.3 321.803 137.263 322.051 137.263 322.329C137.263 322.607 137.3 322.855 137.375 323.073C137.452 323.291 137.565 323.464 137.714 323.59C137.866 323.715 138.053 323.777 138.275 323.777ZM141.509 324.711V318.335H142.835V320.732H142.876C142.934 320.604 143.018 320.473 143.128 320.34C143.24 320.205 143.385 320.093 143.564 320.004C143.744 319.912 143.969 319.867 144.236 319.867C144.585 319.867 144.907 319.958 145.201 320.141C145.496 320.321 145.732 320.594 145.908 320.96C146.085 321.323 146.173 321.778 146.173 322.326C146.173 322.86 146.087 323.31 145.914 323.677C145.744 324.043 145.512 324.32 145.217 324.509C144.924 324.695 144.596 324.789 144.233 324.789C143.976 324.789 143.757 324.746 143.576 324.661C143.398 324.576 143.252 324.469 143.137 324.34C143.023 324.21 142.936 324.078 142.876 323.945H142.817V324.711H141.509ZM142.807 322.32C142.807 322.604 142.847 322.852 142.926 323.064C143.005 323.276 143.119 323.441 143.268 323.559C143.418 323.675 143.599 323.733 143.813 323.733C144.029 323.733 144.211 323.674 144.361 323.556C144.51 323.436 144.623 323.27 144.7 323.058C144.779 322.844 144.819 322.598 144.819 322.32C144.819 322.044 144.78 321.801 144.703 321.592C144.627 321.382 144.513 321.218 144.364 321.1C144.215 320.981 144.031 320.922 143.813 320.922C143.597 320.922 143.414 320.979 143.265 321.093C143.118 321.208 143.005 321.369 142.926 321.579C142.847 321.789 142.807 322.036 142.807 322.32ZM147.058 324.711V319.929H148.384V324.711H147.058ZM147.724 319.313C147.527 319.313 147.358 319.247 147.216 319.117C147.077 318.984 147.008 318.825 147.008 318.64C147.008 318.458 147.077 318.301 147.216 318.17C147.358 318.037 147.527 317.971 147.724 317.971C147.921 317.971 148.089 318.037 148.228 318.17C148.369 318.301 148.44 318.458 148.44 318.64C148.44 318.825 148.369 318.984 148.228 319.117C148.089 319.247 147.921 319.313 147.724 319.313ZM150.773 318.335V324.711H149.446V318.335H150.773ZM154.014 324.804C153.522 324.804 153.099 324.705 152.744 324.505C152.391 324.304 152.119 324.02 151.928 323.652C151.737 323.283 151.642 322.846 151.642 322.342C151.642 321.85 151.737 321.418 151.928 321.047C152.119 320.675 152.388 320.386 152.735 320.178C153.083 319.971 153.492 319.867 153.961 319.867C154.277 319.867 154.57 319.918 154.842 320.019C155.116 320.119 155.355 320.269 155.558 320.471C155.764 320.672 155.924 320.925 156.038 321.23C156.152 321.533 156.209 321.888 156.209 322.295V322.659H152.171V321.837H154.961C154.961 321.647 154.919 321.477 154.836 321.33C154.753 321.183 154.638 321.067 154.49 320.984C154.345 320.899 154.176 320.857 153.983 320.857C153.782 320.857 153.603 320.904 153.448 320.997C153.294 321.088 153.174 321.212 153.086 321.367C152.999 321.521 152.955 321.692 152.953 321.881V322.662C152.953 322.899 152.996 323.103 153.083 323.276C153.173 323.448 153.298 323.581 153.46 323.674C153.622 323.768 153.814 323.814 154.036 323.814C154.183 323.814 154.318 323.794 154.441 323.752C154.563 323.711 154.668 323.648 154.755 323.565C154.842 323.482 154.909 323.381 154.954 323.26L156.181 323.341C156.119 323.636 155.991 323.893 155.798 324.113C155.607 324.331 155.36 324.501 155.057 324.624C154.756 324.744 154.408 324.804 154.014 324.804Z" fill="#767676"/>
<path d="M220.738 324.711H218.478V318.335H220.757C221.398 318.335 221.95 318.463 222.413 318.718C222.876 318.971 223.232 319.335 223.481 319.811C223.732 320.286 223.858 320.855 223.858 321.517C223.858 322.181 223.732 322.752 223.481 323.229C223.232 323.706 222.874 324.073 222.407 324.328C221.942 324.583 221.386 324.711 220.738 324.711ZM219.826 323.556H220.682C221.081 323.556 221.416 323.485 221.688 323.344C221.962 323.201 222.167 322.98 222.304 322.681C222.443 322.38 222.513 321.992 222.513 321.517C222.513 321.046 222.443 320.661 222.304 320.362C222.167 320.063 221.963 319.843 221.691 319.702C221.419 319.561 221.084 319.49 220.685 319.49H219.826V323.556ZM227.01 324.804C226.519 324.804 226.095 324.705 225.74 324.505C225.387 324.304 225.116 324.02 224.925 323.652C224.734 323.283 224.638 322.846 224.638 322.342C224.638 321.85 224.734 321.418 224.925 321.047C225.116 320.675 225.384 320.386 225.731 320.178C226.08 319.971 226.488 319.867 226.958 319.867C227.273 319.867 227.567 319.918 227.839 320.019C228.113 320.119 228.351 320.269 228.555 320.471C228.76 320.672 228.92 320.925 229.034 321.23C229.148 321.533 229.205 321.888 229.205 322.295V322.659H225.167V321.837H227.957C227.957 321.647 227.915 321.477 227.832 321.33C227.749 321.183 227.634 321.067 227.487 320.984C227.342 320.899 227.172 320.857 226.979 320.857C226.778 320.857 226.6 320.904 226.444 320.997C226.29 321.088 226.17 321.212 226.083 321.367C225.996 321.521 225.951 321.692 225.949 321.881V322.662C225.949 322.899 225.992 323.103 226.08 323.276C226.169 323.448 226.294 323.581 226.456 323.674C226.618 323.768 226.81 323.814 227.032 323.814C227.18 323.814 227.315 323.794 227.437 323.752C227.559 323.711 227.664 323.648 227.751 323.565C227.839 323.482 227.905 323.381 227.951 323.26L229.177 323.341C229.115 323.636 228.987 323.893 228.794 324.113C228.603 324.331 228.356 324.501 228.053 324.624C227.752 324.744 227.405 324.804 227.01 324.804ZM234.049 321.293L232.835 321.367C232.814 321.264 232.77 321.17 232.701 321.087C232.633 321.002 232.543 320.935 232.431 320.885C232.321 320.833 232.189 320.807 232.035 320.807C231.83 320.807 231.656 320.851 231.515 320.938C231.374 321.023 231.304 321.137 231.304 321.28C231.304 321.394 231.349 321.491 231.441 321.57C231.532 321.649 231.689 321.712 231.911 321.76L232.776 321.934C233.241 322.029 233.588 322.183 233.816 322.395C234.044 322.606 234.158 322.885 234.158 323.229C234.158 323.542 234.066 323.817 233.881 324.054C233.699 324.291 233.448 324.475 233.128 324.608C232.81 324.739 232.444 324.804 232.029 324.804C231.396 324.804 230.892 324.673 230.516 324.409C230.142 324.143 229.923 323.782 229.859 323.326L231.163 323.257C231.203 323.45 231.298 323.597 231.45 323.699C231.601 323.799 231.795 323.849 232.032 323.849C232.265 323.849 232.451 323.804 232.592 323.715C232.736 323.623 232.808 323.506 232.81 323.363C232.808 323.243 232.757 323.144 232.658 323.067C232.558 322.988 232.405 322.928 232.197 322.887L231.369 322.722C230.902 322.628 230.554 322.466 230.326 322.236C230.1 322.006 229.987 321.712 229.987 321.355C229.987 321.048 230.07 320.783 230.236 320.561C230.404 320.339 230.639 320.168 230.942 320.047C231.248 319.927 231.605 319.867 232.013 319.867C232.617 319.867 233.093 319.994 233.439 320.25C233.788 320.505 233.991 320.853 234.049 321.293ZM236.195 323.335L236.198 321.744H236.391L237.923 319.929H239.445L237.388 322.332H237.073L236.195 323.335ZM234.993 324.711V318.335H236.32V324.711H234.993ZM237.982 324.711L236.575 322.628L237.459 321.691L239.536 324.711H237.982ZM242.639 319.929V320.925H239.76V319.929H242.639ZM240.414 318.783H241.74V323.242C241.74 323.364 241.758 323.459 241.796 323.528C241.833 323.594 241.885 323.641 241.951 323.668C242.02 323.695 242.099 323.708 242.188 323.708C242.25 323.708 242.313 323.703 242.375 323.693C242.437 323.68 242.485 323.671 242.518 323.665L242.727 324.652C242.66 324.673 242.567 324.696 242.446 324.723C242.326 324.752 242.18 324.77 242.008 324.776C241.688 324.789 241.408 324.746 241.167 324.649C240.928 324.551 240.743 324.4 240.61 324.194C240.477 323.989 240.411 323.729 240.414 323.416V318.783ZM245.613 324.804C245.129 324.804 244.711 324.702 244.358 324.496C244.007 324.289 243.736 324 243.545 323.631C243.354 323.259 243.259 322.828 243.259 322.339C243.259 321.845 243.354 321.413 243.545 321.044C243.736 320.672 244.007 320.384 244.358 320.178C244.711 319.971 245.129 319.867 245.613 319.867C246.096 319.867 246.513 319.971 246.864 320.178C247.217 320.384 247.489 320.672 247.68 321.044C247.871 321.413 247.966 321.845 247.966 322.339C247.966 322.828 247.871 323.259 247.68 323.631C247.489 324 247.217 324.289 246.864 324.496C246.513 324.702 246.096 324.804 245.613 324.804ZM245.619 323.777C245.839 323.777 246.022 323.715 246.17 323.59C246.317 323.464 246.428 323.291 246.503 323.073C246.58 322.855 246.618 322.607 246.618 322.329C246.618 322.051 246.58 321.803 246.503 321.585C246.428 321.367 246.317 321.195 246.17 321.068C246.022 320.942 245.839 320.879 245.619 320.879C245.397 320.879 245.21 320.942 245.058 321.068C244.909 321.195 244.796 321.367 244.719 321.585C244.644 321.803 244.607 322.051 244.607 322.329C244.607 322.607 244.644 322.855 244.719 323.073C244.796 323.291 244.909 323.464 245.058 323.59C245.21 323.715 245.397 323.777 245.619 323.777ZM248.829 326.504V319.929H250.136V320.732H250.195C250.253 320.604 250.337 320.473 250.447 320.34C250.559 320.205 250.705 320.093 250.883 320.004C251.064 319.912 251.288 319.867 251.556 319.867C251.904 319.867 252.226 319.958 252.521 320.141C252.815 320.321 253.051 320.594 253.227 320.96C253.404 321.323 253.492 321.778 253.492 322.326C253.492 322.86 253.406 323.31 253.234 323.677C253.063 324.043 252.831 324.32 252.536 324.509C252.244 324.695 251.916 324.789 251.553 324.789C251.295 324.789 251.076 324.746 250.896 324.661C250.717 324.576 250.571 324.469 250.457 324.34C250.343 324.21 250.255 324.078 250.195 323.945H250.155V326.504H248.829ZM250.127 322.32C250.127 322.604 250.166 322.852 250.245 323.064C250.324 323.276 250.438 323.441 250.587 323.559C250.737 323.675 250.919 323.733 251.132 323.733C251.348 323.733 251.531 323.674 251.68 323.556C251.83 323.436 251.943 323.27 252.02 323.058C252.098 322.844 252.138 322.598 252.138 322.32C252.138 322.044 252.099 321.801 252.023 321.592C251.946 321.382 251.833 321.218 251.683 321.1C251.534 320.981 251.35 320.922 251.132 320.922C250.916 320.922 250.734 320.979 250.584 321.093C250.437 321.208 250.324 321.369 250.245 321.579C250.166 321.789 250.127 322.036 250.127 322.32Z" fill="#767676"/>
<path d="M315.602 319.447V318.335H320.839V319.447H318.887V324.711H317.554V319.447H315.602ZM322.389 324.801C322.084 324.801 321.812 324.748 321.573 324.642C321.335 324.535 321.146 324.376 321.007 324.166C320.87 323.954 320.801 323.691 320.801 323.375C320.801 323.11 320.85 322.887 320.948 322.706C321.045 322.525 321.178 322.38 321.346 322.27C321.514 322.16 321.705 322.077 321.919 322.021C322.135 321.965 322.361 321.926 322.598 321.903C322.876 321.874 323.1 321.847 323.27 321.822C323.44 321.795 323.564 321.755 323.641 321.704C323.717 321.652 323.756 321.575 323.756 321.473V321.455C323.756 321.257 323.694 321.105 323.569 320.997C323.447 320.889 323.272 320.835 323.046 320.835C322.807 320.835 322.617 320.888 322.476 320.994C322.335 321.098 322.242 321.228 322.196 321.386L320.969 321.286C321.032 320.996 321.154 320.745 321.337 320.533C321.519 320.319 321.755 320.155 322.044 320.041C322.334 319.925 322.67 319.867 323.052 319.867C323.318 319.867 323.572 319.898 323.815 319.96C324.06 320.022 324.277 320.119 324.466 320.25C324.657 320.38 324.807 320.549 324.917 320.754C325.027 320.957 325.082 321.201 325.082 321.486V324.711H323.824V324.048H323.787C323.71 324.197 323.607 324.329 323.479 324.443C323.35 324.555 323.195 324.643 323.015 324.708C322.834 324.77 322.626 324.801 322.389 324.801ZM322.769 323.886C322.964 323.886 323.136 323.848 323.286 323.771C323.435 323.692 323.552 323.586 323.637 323.453C323.723 323.32 323.765 323.17 323.765 323.002V322.494C323.724 322.521 323.667 322.546 323.594 322.569C323.523 322.59 323.443 322.61 323.354 322.628C323.265 322.645 323.176 322.66 323.086 322.675C322.997 322.687 322.916 322.699 322.844 322.709C322.688 322.732 322.552 322.768 322.436 322.818C322.32 322.868 322.229 322.935 322.165 323.02C322.101 323.103 322.068 323.207 322.068 323.332C322.068 323.512 322.134 323.65 322.265 323.746C322.397 323.839 322.566 323.886 322.769 323.886ZM326.136 324.711V318.335H327.462V320.732H327.503C327.561 320.604 327.645 320.473 327.755 320.34C327.867 320.205 328.012 320.093 328.191 320.004C328.371 319.912 328.595 319.867 328.863 319.867C329.212 319.867 329.533 319.958 329.828 320.141C330.123 320.321 330.358 320.594 330.535 320.96C330.711 321.323 330.799 321.778 330.799 322.326C330.799 322.86 330.713 323.31 330.541 323.677C330.371 324.043 330.138 324.32 329.844 324.509C329.551 324.695 329.223 324.789 328.86 324.789C328.603 324.789 328.384 324.746 328.203 324.661C328.025 324.576 327.878 324.469 327.764 324.34C327.65 324.21 327.563 324.078 327.503 323.945H327.443V324.711H326.136ZM327.434 322.32C327.434 322.604 327.473 322.852 327.552 323.064C327.631 323.276 327.745 323.441 327.895 323.559C328.044 323.675 328.226 323.733 328.44 323.733C328.655 323.733 328.838 323.674 328.988 323.556C329.137 323.436 329.25 323.27 329.327 323.058C329.406 322.844 329.445 322.598 329.445 322.32C329.445 322.044 329.407 321.801 329.33 321.592C329.253 321.382 329.14 321.218 328.991 321.1C328.841 320.981 328.658 320.922 328.44 320.922C328.224 320.922 328.041 320.979 327.892 321.093C327.744 321.208 327.631 321.369 327.552 321.579C327.473 321.789 327.434 322.036 327.434 322.32ZM333.011 318.335V324.711H331.684V318.335H333.011ZM336.252 324.804C335.76 324.804 335.337 324.705 334.982 324.505C334.629 324.304 334.357 324.02 334.166 323.652C333.975 323.283 333.88 322.846 333.88 322.342C333.88 321.85 333.975 321.418 334.166 321.047C334.357 320.675 334.626 320.386 334.973 320.178C335.321 319.971 335.73 319.867 336.199 319.867C336.515 319.867 336.808 319.918 337.08 320.019C337.354 320.119 337.593 320.269 337.796 320.471C338.002 320.672 338.162 320.925 338.276 321.23C338.39 321.533 338.447 321.888 338.447 322.295V322.659H334.409V321.837H337.199C337.199 321.647 337.157 321.477 337.074 321.33C336.991 321.183 336.876 321.067 336.728 320.984C336.583 320.899 336.414 320.857 336.221 320.857C336.02 320.857 335.841 320.904 335.686 320.997C335.532 321.088 335.412 321.212 335.324 321.367C335.237 321.521 335.193 321.692 335.191 321.881V322.662C335.191 322.899 335.234 323.103 335.321 323.276C335.411 323.448 335.536 323.581 335.698 323.674C335.86 323.768 336.052 323.814 336.274 323.814C336.421 323.814 336.556 323.794 336.679 323.752C336.801 323.711 336.906 323.648 336.993 323.565C337.08 323.482 337.147 323.381 337.192 323.26L338.419 323.341C338.357 323.636 338.229 323.893 338.036 324.113C337.845 324.331 337.598 324.501 337.295 324.624C336.994 324.744 336.646 324.804 336.252 324.804ZM341.856 319.929V320.925H338.976V319.929H341.856ZM339.63 318.783H340.956V323.242C340.956 323.364 340.975 323.459 341.012 323.528C341.05 323.594 341.101 323.641 341.168 323.668C341.236 323.695 341.315 323.708 341.404 323.708C341.467 323.708 341.529 323.703 341.591 323.693C341.654 323.68 341.701 323.671 341.734 323.665L341.943 324.652C341.877 324.673 341.783 324.696 341.663 324.723C341.543 324.752 341.396 324.77 341.224 324.776C340.904 324.789 340.624 324.746 340.383 324.649C340.145 324.551 339.959 324.4 339.826 324.194C339.693 323.989 339.628 323.729 339.63 323.416V318.783Z" fill="#767676"/>
<line opacity="0.5" x1="93.5198" y1="308.697" x2="93.5198" y2="120.212" stroke="#B1B1B1" stroke-width="0.569691"/>
</svg>
