<svg width="61" height="58" viewBox="0 0 61 58" fill="none" xmlns="http://www.w3.org/2000/svg">
<rect width="61" height="58" rx="8" fill="#FF1494"/>
<path d="M46.7805 26.6276L45.8551 25.4796C45.3902 24.9017 45.1543 24.1757 45.1908 23.4349L45.2646 21.9625C45.3608 20.0308 44.0758 18.2628 42.2095 17.7572L40.7862 17.3717C40.07 17.1786 39.4528 16.7293 39.0469 16.1085L38.2409 14.8741C37.1834 13.255 35.105 12.5795 33.2976 13.2676L31.92 13.7928C31.227 14.0568 30.463 14.0568 29.77 13.7928L28.3924 13.2676C26.5857 12.5795 24.5066 13.255 23.4491 14.8741L22.6431 16.1085C22.2372 16.7293 21.62 17.1786 20.9038 17.3717L19.4805 17.7572C17.6142 18.2628 16.3292 20.0308 16.4254 21.9625L16.4992 23.4349C16.5357 24.1757 16.2998 24.9017 15.8349 25.4796L14.9095 26.6276C13.6968 28.133 13.6968 30.3196 14.9095 31.825L15.8349 32.973C16.2682 33.5123 16.5027 34.18 16.5027 34.8682C16.5027 34.9776 16.5074 34.8519 16.4254 36.4902C16.3292 38.4218 17.6142 40.1898 19.4805 40.6954L20.9038 41.0809C21.62 41.274 22.2372 41.7234 22.6431 42.3441L23.4491 43.5785C24.2285 44.7721 25.5626 45.4525 26.9333 45.4525C28.9272 45.4525 29.9742 43.9185 31.92 44.6598L33.2976 45.185C35.105 45.8731 37.1834 45.1976 38.2409 43.5785L39.0469 42.3441C39.4528 41.7234 40.07 41.274 40.7862 41.0809L42.2095 40.6954C44.0758 40.1898 45.3608 38.4218 45.2646 36.4902L45.1908 35.0177C45.1543 34.2769 45.3902 33.5509 45.8551 32.973L46.7805 31.825C47.9932 30.3196 47.9932 28.133 46.7805 26.6276ZM30.845 41.5141C24.0948 41.5141 18.5572 35.9749 18.5572 29.2263C18.5572 22.4761 24.0964 16.9385 30.845 16.9385C37.5952 16.9385 43.1328 22.4777 43.1328 29.2263C43.1328 35.9765 37.5937 41.5141 30.845 41.5141ZM30.845 18.062C24.6889 18.062 19.6807 23.0703 19.6807 29.2263C19.6807 35.3824 24.6889 40.3907 30.845 40.3907C37.001 40.3907 42.0093 35.3824 42.0093 29.2263C42.0093 23.0703 37.001 18.062 30.845 18.062ZM31.2102 26.9092C31.2102 26.599 31.4617 26.3474 31.7719 26.3474H34.5525C34.8627 26.3474 35.1142 26.599 35.1142 26.9092C35.1142 27.2194 34.8627 27.4709 34.5525 27.4709H32.3336V28.6646H33.6256C33.9358 28.6646 34.1874 28.9161 34.1874 29.2263C34.1874 29.5365 33.9358 29.788 33.6256 29.788H32.3336V30.9817H34.5525C34.8627 30.9817 35.1142 31.2332 35.1142 31.5434C35.1142 31.8536 34.8627 32.1052 34.5525 32.1052H31.7719C31.4617 32.1052 31.2102 31.8536 31.2102 31.5434V26.9092ZM26.5759 26.9092C26.5759 26.599 26.8274 26.3474 27.1377 26.3474H28.7597C29.7082 26.3474 30.4799 27.1192 30.4799 28.0677C30.4799 28.776 30.0497 29.3858 29.4367 29.6491L30.3999 31.2544C30.6259 31.6311 30.3503 32.1052 29.9188 32.1052C29.7279 32.1052 29.5419 32.008 29.4365 31.8324L28.0463 29.5153C27.8219 29.1415 28.092 28.6646 28.5279 28.6646H28.7597C29.0888 28.6646 29.3565 28.3968 29.3565 28.0677C29.3565 27.7386 29.0888 27.4709 28.7597 27.4709H27.6994V31.5434C27.6994 31.8536 27.4479 32.1052 27.1377 32.1052C26.8274 32.1052 26.5759 31.8536 26.5759 31.5434V26.9092ZM25.2839 27.4709H23.0651V28.6646H24.8205C25.1307 28.6646 25.3822 28.9161 25.3822 29.2263C25.3822 29.5365 25.1307 29.788 24.8205 29.788H23.0651V31.5434C23.0651 31.8536 22.8135 32.1052 22.5033 32.1052C22.1931 32.1052 21.9416 31.8536 21.9416 31.5434V26.9092C21.9416 26.599 22.1931 26.3474 22.5033 26.3474H25.2839C25.5941 26.3474 25.8456 26.599 25.8456 26.9092C25.8456 27.2194 25.5942 27.4709 25.2839 27.4709ZM35.058 35.6862H26.632C26.3218 35.6862 26.0703 35.4347 26.0703 35.1245C26.0703 34.8142 26.3218 34.5627 26.632 34.5627H35.058C35.3682 34.5627 35.6197 34.8142 35.6197 35.1245C35.6197 35.4347 35.3682 35.6862 35.058 35.6862ZM39.7484 26.9092C39.7484 27.2194 39.4969 27.4709 39.1867 27.4709H36.9678V28.6646H38.2598C38.57 28.6646 38.8215 28.9161 38.8215 29.2263C38.8215 29.5365 38.57 29.788 38.2598 29.788H36.9678V30.9817H39.1867C39.4969 30.9817 39.7484 31.2332 39.7484 31.5434C39.7484 31.8536 39.4969 32.1052 39.1867 32.1052H36.4061C36.0959 32.1052 35.8444 31.8536 35.8444 31.5434V26.9092C35.8444 26.599 36.0959 26.3474 36.4061 26.3474H39.1867C39.4969 26.3474 39.7484 26.5989 39.7484 26.9092Z" fill="white"/>
</svg>
