<svg width="34" height="25" viewBox="0 0 34 25" fill="none" xmlns="http://www.w3.org/2000/svg">
<path d="M32.7014 2.93423C31.5014 1.50768 29.2857 0.925781 25.0544 0.925781H9.69451C5.36629 0.925781 3.11312 1.54522 1.91758 3.06399C0.751953 4.5448 0.751953 6.72666 0.751953 9.7464V15.502C0.751953 21.3522 2.13496 24.3225 9.69451 24.3225H25.0545C28.7239 24.3225 30.7572 23.8091 32.0727 22.5501C33.4217 21.2591 33.9972 19.1513 33.9972 15.502V9.7464C33.9972 6.56182 33.9071 4.3671 32.7014 2.93423ZM22.0955 13.4188L15.1207 17.0641C14.9647 17.1456 14.7942 17.1861 14.6239 17.1861C14.4311 17.1861 14.2387 17.1341 14.0683 17.031C13.7474 16.8365 13.5515 16.4888 13.5515 16.1136V8.84642C13.5515 8.47193 13.7469 8.12446 14.0671 7.92992C14.3875 7.73538 14.7859 7.72208 15.1182 7.89474L22.0931 11.5166C22.4479 11.7008 22.6708 12.0671 22.6713 12.4668C22.6718 12.8668 22.4499 13.2337 22.0955 13.4188Z" fill="black"/>
</svg>
