<svg width="31" height="31" viewBox="0 0 31 31" fill="none" xmlns="http://www.w3.org/2000/svg">
<path fill-rule="evenodd" clip-rule="evenodd" d="M28.2208 3.13811C28.9966 3.89198 29.6019 4.795 29.9981 5.78938C30.4548 6.9691 30.6985 8.21665 30.7184 9.47701C30.8143 11.0688 30.8143 11.5845 30.8143 15.648C30.8143 19.7115 30.792 20.2189 30.7184 21.819C30.6928 23.0632 30.4515 24.2907 30.0015 25.4551C29.6048 26.4493 28.9993 27.3523 28.2236 28.1064C27.4478 28.8604 26.5189 29.449 25.496 29.8346C24.2986 30.2706 23.0339 30.5063 21.7555 30.5316C20.1213 30.623 19.5857 30.623 15.4071 30.623C11.2285 30.623 10.7066 30.6014 9.05879 30.5316C7.77778 30.4906 6.51335 30.2375 5.31995 29.7831C4.29679 29.3981 3.36749 28.81 2.59142 28.0561C1.81535 27.3023 1.20957 26.3994 0.812793 25.4051C0.362762 24.2391 0.121491 23.0116 0.095824 21.7674C0 20.1756 0 19.6583 0 15.5964C0 11.5329 0.0222449 11.0256 0.095824 9.42544C0.120832 8.18266 0.363284 6.95307 0.812793 5.78938C1.20846 4.79474 1.81365 3.89149 2.58953 3.13757C3.36542 2.38364 4.29486 1.7957 5.31823 1.41147C6.51391 0.973349 7.77781 0.73708 9.05537 0.712867C10.6895 0.623047 11.2251 0.623047 15.4037 0.623047C19.5823 0.623047 20.1042 0.643007 21.7521 0.712867C23.0306 0.738385 24.2954 0.974605 25.4926 1.41147C26.5157 1.79615 27.4449 2.38425 28.2208 3.13811ZM27.3817 24.4521C27.7229 23.5526 27.9029 22.6029 27.9139 21.6443V21.646H27.9327C28.0063 20.0559 28.0063 19.6201 28.0063 15.5685V15.5682C28.0063 11.5146 27.9875 11.0705 27.9139 9.48865C27.898 8.54081 27.7181 7.60234 27.3817 6.71253C27.1246 6.06561 26.7311 5.4781 26.2266 4.9877C25.7222 4.4973 25.1178 4.11485 24.4522 3.8649C23.5374 3.53401 22.5707 3.35901 21.5946 3.3476C19.94 3.25611 19.5122 3.25611 15.3421 3.25611C11.1721 3.25611 10.7152 3.27607 9.08788 3.3476C8.11257 3.36084 7.14674 3.53579 6.23199 3.8649C4.88189 4.36723 3.81243 5.40016 3.29053 6.71253C2.94942 7.61144 2.76942 8.56054 2.75836 9.51859C2.66767 11.1304 2.66767 11.5445 2.66767 15.5981C2.66767 19.65 2.68478 20.0958 2.75836 21.6759C2.7743 22.6238 2.9542 23.5623 3.29053 24.4521C3.54863 25.1001 3.94381 25.6883 4.4505 26.1785C4.95719 26.6688 5.5641 27.0502 6.23199 27.298C7.14629 27.6287 8.11241 27.8037 9.08788 27.8153C10.7443 27.9068 11.1703 27.9068 15.3421 27.9068C19.5105 27.9068 19.969 27.8885 21.5946 27.8153C22.5706 27.8031 23.5372 27.6281 24.4522 27.298C25.1178 27.0486 25.7223 26.6666 26.2268 26.1764C26.7313 25.6863 27.1248 25.0989 27.3817 24.4521ZM23.6195 9.40511C24.6383 9.40511 25.4641 8.60231 25.4641 7.61201C25.4641 6.62172 24.6383 5.81892 23.6195 5.81892C22.6008 5.81892 21.7749 6.62172 21.7749 7.61201C21.7749 8.60231 22.6008 9.40511 23.6195 9.40511ZM15.3952 7.89534C13.2967 7.89534 11.2842 8.70566 9.80037 10.1481C8.31653 11.5904 7.48291 13.5468 7.48291 15.5866C7.48291 17.6264 8.31653 19.5828 9.80037 21.0251C11.2842 22.4675 13.2967 23.2779 15.3952 23.2779C17.4937 23.2779 19.5062 22.4675 20.9901 21.0251C22.4739 19.5828 23.3075 17.6264 23.3075 15.5866C23.3075 13.5468 22.4739 11.5904 20.9901 10.1481C19.5062 8.70566 17.4937 7.89534 15.3952 7.89534ZM15.3952 20.5816C14.0319 20.5816 12.7245 20.0552 11.7605 19.1181C10.7965 18.1811 10.255 16.9101 10.255 15.5849C10.255 14.2597 10.7965 12.9888 11.7605 12.0518C12.7245 11.1147 14.0319 10.5883 15.3952 10.5883C16.7585 10.5883 18.066 11.1147 19.0299 12.0518C19.9939 12.9888 20.5355 14.2597 20.5355 15.5849C20.5355 16.9101 19.9939 18.1811 19.0299 19.1181C18.066 20.0552 16.7585 20.5816 15.3952 20.5816Z" fill="black"/>
</svg>
