<svg width="28" height="28" viewBox="0 0 28 28" fill="none" xmlns="http://www.w3.org/2000/svg">
<g clip-path="url(#clip0_1076_755)">
<path d="M23.3814 0.144531H3.77733C2.80246 0.144531 1.86751 0.531799 1.17817 1.22114C0.48883 1.91048 0.101563 2.84543 0.101562 3.8203L0.101563 23.4244C0.101563 24.3993 0.48883 25.3342 1.17817 26.0236C1.86751 26.7129 2.80246 27.1002 3.77733 27.1002H23.3814C24.3563 27.1002 25.2913 26.7129 25.9806 26.0236C26.6699 25.3342 27.0572 24.3993 27.0572 23.4244V3.8203C27.0572 2.84543 26.6699 1.91048 25.9806 1.22114C25.2913 0.531799 24.3563 0.144531 23.3814 0.144531ZM9.29099 21.4762C9.29119 21.551 9.27664 21.625 9.24817 21.6942C9.21971 21.7633 9.17789 21.8261 9.1251 21.879C9.07232 21.9319 9.00961 21.9739 8.94057 22.0026C8.87153 22.0312 8.79752 22.046 8.72277 22.046H6.30136C6.22648 22.0462 6.15231 22.0316 6.08309 22.003C6.01387 21.9745 5.95098 21.9325 5.89804 21.8796C5.84509 21.8266 5.80313 21.7637 5.77457 21.6945C5.74601 21.6253 5.73141 21.5511 5.73162 21.4762V11.325C5.73162 11.1739 5.79164 11.029 5.89849 10.9221C6.00534 10.8153 6.15025 10.7553 6.30136 10.7553H8.72277C8.87361 10.7557 9.01814 10.8159 9.12465 10.9227C9.23117 11.0295 9.29099 11.1742 9.29099 11.325V21.4762ZM7.5113 9.79343C7.05693 9.79343 6.61276 9.65869 6.23496 9.40625C5.85716 9.15382 5.5627 8.79502 5.38882 8.37523C5.21494 7.95544 5.16944 7.49352 5.25809 7.04788C5.34673 6.60223 5.56553 6.19288 5.88683 5.87159C6.20812 5.5503 6.61747 5.3315 7.06311 5.24286C7.50875 5.15421 7.97067 5.19971 8.39046 5.37359C8.81025 5.54747 9.16905 5.84193 9.42148 6.21973C9.67392 6.59753 9.80866 7.0417 9.80866 7.49607C9.80866 8.10537 9.56662 8.68971 9.13578 9.12055C8.70494 9.55138 8.1206 9.79343 7.5113 9.79343ZM21.9479 21.5161C21.9481 21.5849 21.9347 21.6531 21.9084 21.7168C21.8822 21.7804 21.8436 21.8382 21.7949 21.8869C21.7462 21.9356 21.6884 21.9742 21.6248 22.0004C21.5611 22.0267 21.4929 22.0401 21.4241 22.0399H18.8204C18.7516 22.0401 18.6834 22.0267 18.6197 22.0004C18.5561 21.9742 18.4983 21.9356 18.4496 21.8869C18.4009 21.8382 18.3623 21.7804 18.3361 21.7168C18.3098 21.6531 18.2964 21.5849 18.2966 21.5161V16.7605C18.2966 16.0499 18.5049 13.6484 16.4388 13.6484C14.8383 13.6484 14.5121 15.2918 14.4478 16.03V21.5222C14.4478 21.6598 14.3937 21.7919 14.2971 21.8899C14.2005 21.9879 14.0692 22.044 13.9316 22.046H11.4168C11.3481 22.046 11.2801 22.0324 11.2166 22.0061C11.1531 21.9797 11.0955 21.9411 11.047 21.8925C10.9984 21.8438 10.96 21.7861 10.9339 21.7225C10.9077 21.659 10.8943 21.5909 10.8945 21.5222V11.2806C10.8943 11.2119 10.9077 11.1438 10.9339 11.0802C10.96 11.0167 10.9984 10.959 11.047 10.9103C11.0955 10.8616 11.1531 10.823 11.2166 10.7967C11.2801 10.7703 11.3481 10.7568 11.4168 10.7568H13.9316C14.0706 10.7568 14.2038 10.812 14.302 10.9102C14.4003 11.0084 14.4554 11.1417 14.4554 11.2806V12.1658C15.0497 11.2729 15.9303 10.5868 17.8096 10.5868C21.9724 10.5868 21.9448 14.4739 21.9448 16.6089L21.9479 21.5161Z" fill="black"/>
</g>
<defs>
<clipPath id="clip0_1076_755">
<rect width="26.9556" height="26.9556" fill="white" transform="translate(0.103516 0.144531)"/>
</clipPath>
</defs>
</svg>
