<svg width="31" height="28" viewBox="0 0 31 28" fill="none" xmlns="http://www.w3.org/2000/svg">
<path d="M30.8142 3.31245C29.681 3.85439 28.4637 4.22057 27.184 4.38608C28.5044 3.53332 29.4923 2.19118 29.9633 0.610084C28.7227 1.4054 27.365 1.96522 25.949 2.26519C24.9969 1.16794 23.7357 0.440657 22.3613 0.196269C20.9869 -0.0481192 19.5762 0.204057 18.3483 0.913647C17.1203 1.62324 16.1437 2.75054 15.5702 4.12053C14.9966 5.49053 14.8582 7.02656 15.1764 8.49016C12.6626 8.35394 10.2035 7.64877 7.95859 6.42041C5.71367 5.19204 3.73316 3.46795 2.14557 1.36001C1.60273 2.37065 1.2906 3.54241 1.2906 4.79034C1.28999 5.91375 1.54632 7.01996 2.03684 8.01082C2.52735 9.00167 3.23689 9.84653 4.1025 10.4704C3.09863 10.436 2.1169 10.1432 1.23903 9.61652V9.7044C1.23893 11.28 1.74391 12.8072 2.6683 14.0267C3.59269 15.2463 4.87954 16.0831 6.3105 16.3951C5.37924 16.6672 4.40288 16.7072 3.45517 16.5123C3.8589 17.8681 4.64533 19.0536 5.70437 19.903C6.76341 20.7524 8.04204 21.2231 9.36125 21.2492C7.12181 23.1465 4.35613 24.1758 1.50909 24.1712C1.00477 24.1714 0.500872 24.1396 0 24.076C2.8899 26.0815 6.25396 27.1458 9.68967 27.1416C21.32 27.1416 27.678 16.7452 27.678 7.72852C27.678 7.43558 27.6712 7.13971 27.659 6.84677C28.8957 5.8815 29.9632 4.68619 30.8115 3.31685L30.8142 3.31245Z" fill="black"/>
</svg>
