<svg width="30" height="31" viewBox="0 0 30 31" fill="none" xmlns="http://www.w3.org/2000/svg">
<g clip-path="url(#clip0_1230_1691)">
<g clip-path="url(#clip1_1230_1691)">
<path d="M1.87464 2.54137C-0.482861 4.99012 -0.000361279 7.59137 -0.000361279 15.4939C-0.000361279 22.0564 -1.14536 28.6351 4.84714 30.1839C6.71839 30.6651 23.2984 30.6651 25.1671 30.1814C27.6621 29.5376 29.6921 27.5139 29.9696 23.9851C30.0084 23.4926 30.0084 7.50387 29.9684 7.00137C29.6734 3.24262 27.3596 1.07637 24.3109 0.637619C23.6121 0.536369 23.4721 0.506369 19.8871 0.500119C7.17089 0.506369 4.38339 -0.0598811 1.87464 2.54137Z" fill="url(#paint0_linear_1230_1691)"/>
<path d="M14.9973 4.42378C10.4585 4.42378 6.14852 4.02003 4.50227 8.24503C3.82227 9.99003 3.92102 12.2563 3.92102 15.5013C3.92102 18.3488 3.82977 21.025 4.50227 22.7563C6.14477 26.9838 10.4898 26.5788 14.9948 26.5788C19.341 26.5788 23.8223 27.0313 25.4885 22.7563C26.1698 20.9938 26.0698 18.7613 26.0698 15.5013C26.0698 11.1738 26.3085 8.38003 24.2098 6.28253C22.0848 4.15753 19.211 4.42378 14.9923 4.42378H14.9973ZM14.0048 6.42003C23.4723 6.40503 24.6773 5.35253 24.0123 19.9738C23.776 25.145 19.8385 24.5775 14.9985 24.5775C6.17352 24.5775 5.91977 24.325 5.91977 15.4963C5.91977 6.56503 6.61977 6.42503 14.0048 6.41753V6.42003ZM20.9098 8.25878C20.176 8.25878 19.581 8.85378 19.581 9.58753C19.581 10.3213 20.176 10.9163 20.9098 10.9163C21.6435 10.9163 22.2385 10.3213 22.2385 9.58753C22.2385 8.85378 21.6435 8.25878 20.9098 8.25878ZM14.9973 9.81253C11.856 9.81253 9.30977 12.36 9.30977 15.5013C9.30977 18.6425 11.856 21.1888 14.9973 21.1888C18.1385 21.1888 20.6835 18.6425 20.6835 15.5013C20.6835 12.36 18.1385 9.81253 14.9973 9.81253ZM14.9973 11.8088C19.8785 11.8088 19.8848 19.1938 14.9973 19.1938C10.1173 19.1938 10.1098 11.8088 14.9973 11.8088Z" fill="white"/>
</g>
</g>
<defs>
<linearGradient id="paint0_linear_1230_1691" x1="1.93216" y1="28.584" x2="29.814" y2="4.45259" gradientUnits="userSpaceOnUse">
<stop stop-color="#FFDD55"/>
<stop offset="0.5" stop-color="#FF543E"/>
<stop offset="1" stop-color="#C837AB"/>
</linearGradient>
<clipPath id="clip0_1230_1691">
<rect width="30" height="30" fill="white" transform="translate(0 0.5)"/>
</clipPath>
<clipPath id="clip1_1230_1691">
<rect width="30" height="30" fill="white" transform="translate(0 0.5)"/>
</clipPath>
</defs>
</svg>
