<svg width="22" height="23" viewBox="0 0 22 23" fill="none" xmlns="http://www.w3.org/2000/svg">
<mask id="mask0_155_1521" style="mask-type:luminance" maskUnits="userSpaceOnUse" x="0" y="0" width="22" height="23">
<path fill-rule="evenodd" clip-rule="evenodd" d="M21.7442 9.27051H11.2558V13.5205H17.293C16.7302 16.2205 14.3767 17.7705 11.2558 17.7705C7.57209 17.7705 4.60465 14.8705 4.60465 11.2705C4.60465 7.67051 7.57209 4.77051 11.2558 4.77051C12.8419 4.77051 14.2744 5.32051 15.4 6.22051L18.6744 3.02051C16.6791 1.32051 14.1209 0.270508 11.2558 0.270508C5.01395 0.270508 0 5.17051 0 11.2705C0 17.3705 5.01395 22.2705 11.2558 22.2705C16.8837 22.2705 22 18.2705 22 11.2705C22 10.6205 21.8977 9.92051 21.7442 9.27051Z" fill="white"/>
</mask>
<g mask="url(#mask0_155_1521)">
<path d="M-1.02319 17.7705V4.77051L7.67448 11.2705L-1.02319 17.7705Z" fill="#FBBC05"/>
</g>
<mask id="mask1_155_1521" style="mask-type:luminance" maskUnits="userSpaceOnUse" x="0" y="0" width="22" height="23">
<path fill-rule="evenodd" clip-rule="evenodd" d="M21.7442 9.27051H11.2558V13.5205H17.293C16.7302 16.2205 14.3767 17.7705 11.2558 17.7705C7.57209 17.7705 4.60465 14.8705 4.60465 11.2705C4.60465 7.67051 7.57209 4.77051 11.2558 4.77051C12.8419 4.77051 14.2744 5.32051 15.4 6.22051L18.6744 3.02051C16.6791 1.32051 14.1209 0.270508 11.2558 0.270508C5.01395 0.270508 0 5.17051 0 11.2705C0 17.3705 5.01395 22.2705 11.2558 22.2705C16.8837 22.2705 22 18.2705 22 11.2705C22 10.6205 21.8977 9.92051 21.7442 9.27051Z" fill="white"/>
</mask>
<g mask="url(#mask1_155_1521)">
<path d="M-1.02319 4.77051L7.67448 11.2705L11.2559 8.22051L23.5349 6.27051V-0.729492H-1.02319V4.77051Z" fill="#EA4335"/>
</g>
<mask id="mask2_155_1521" style="mask-type:luminance" maskUnits="userSpaceOnUse" x="0" y="0" width="22" height="23">
<path fill-rule="evenodd" clip-rule="evenodd" d="M21.7442 9.27051H11.2558V13.5205H17.293C16.7302 16.2205 14.3767 17.7705 11.2558 17.7705C7.57209 17.7705 4.60465 14.8705 4.60465 11.2705C4.60465 7.67051 7.57209 4.77051 11.2558 4.77051C12.8419 4.77051 14.2744 5.32051 15.4 6.22051L18.6744 3.02051C16.6791 1.32051 14.1209 0.270508 11.2558 0.270508C5.01395 0.270508 0 5.17051 0 11.2705C0 17.3705 5.01395 22.2705 11.2558 22.2705C16.8837 22.2705 22 18.2705 22 11.2705C22 10.6205 21.8977 9.92051 21.7442 9.27051Z" fill="white"/>
</mask>
<g mask="url(#mask2_155_1521)">
<path d="M-1.02319 17.7705L14.3256 6.27051L18.3675 6.77051L23.5349 -0.729492V23.2705H-1.02319V17.7705Z" fill="#34A853"/>
</g>
<mask id="mask3_155_1521" style="mask-type:luminance" maskUnits="userSpaceOnUse" x="0" y="0" width="22" height="23">
<path fill-rule="evenodd" clip-rule="evenodd" d="M21.7442 9.27051H11.2558V13.5205H17.293C16.7302 16.2205 14.3767 17.7705 11.2558 17.7705C7.57209 17.7705 4.60465 14.8705 4.60465 11.2705C4.60465 7.67051 7.57209 4.77051 11.2558 4.77051C12.8419 4.77051 14.2744 5.32051 15.4 6.22051L18.6744 3.02051C16.6791 1.32051 14.1209 0.270508 11.2558 0.270508C5.01395 0.270508 0 5.17051 0 11.2705C0 17.3705 5.01395 22.2705 11.2558 22.2705C16.8837 22.2705 22 18.2705 22 11.2705C22 10.6205 21.8977 9.92051 21.7442 9.27051Z" fill="white"/>
</mask>
<g mask="url(#mask3_155_1521)">
<path d="M23.5349 23.2705L7.67444 11.2705L5.62793 9.77051L23.5349 4.77051V23.2705Z" fill="#4285F4"/>
</g>
</svg>
