<svg width="23" height="23" viewBox="0 0 23 23" fill="none" xmlns="http://www.w3.org/2000/svg">
<g clip-path="url(#clip0_155_1552)">
<path d="M19.5 0.270508H3.5C1.84315 0.270508 0.5 1.61365 0.5 3.27051V19.2705C0.5 20.9274 1.84315 22.2705 3.5 22.2705H19.5C21.1569 22.2705 22.5 20.9274 22.5 19.2705V3.27051C22.5 1.61365 21.1569 0.270508 19.5 0.270508Z" fill="#0077B5"/>
<path d="M8.42505 6.27051C8.42505 6.64135 8.31508 7.00386 8.10906 7.3122C7.90303 7.62054 7.61019 7.86087 7.26758 8.00278C6.92497 8.1447 6.54797 8.18183 6.18426 8.10948C5.82054 8.03713 5.48645 7.85856 5.22422 7.59633C4.962 7.33411 4.78342 7.00002 4.71108 6.6363C4.63873 6.27259 4.67586 5.89559 4.81778 5.55298C4.95969 5.21037 5.20001 4.91753 5.50836 4.7115C5.8167 4.50547 6.17921 4.39551 6.55005 4.39551C7.04733 4.39551 7.52424 4.59305 7.87588 4.94468C8.22751 5.29631 8.42505 5.77323 8.42505 6.27051Z" fill="white"/>
<path d="M7.99997 9.39554V17.6793C8.0003 17.7404 7.98855 17.801 7.96539 17.8575C7.94223 17.9141 7.90813 17.9655 7.86503 18.0088C7.82193 18.0522 7.7707 18.0865 7.71427 18.11C7.65784 18.1335 7.59733 18.1455 7.53622 18.1455H5.55997C5.49886 18.1457 5.43832 18.1338 5.38183 18.1105C5.32534 18.0872 5.27401 18.0529 5.2308 18.0097C5.18759 17.9665 5.15334 17.9152 5.13003 17.8587C5.10672 17.8022 5.09481 17.7417 5.09497 17.6805V9.39554C5.09497 9.27222 5.14396 9.15394 5.23117 9.06674C5.31837 8.97953 5.43665 8.93054 5.55997 8.93054H7.53622C7.65933 8.93087 7.77729 8.98001 7.86422 9.06718C7.95115 9.15435 7.99997 9.27243 7.99997 9.39554Z" fill="white"/>
<path d="M18.3301 13.708V17.718C18.3303 17.7742 18.3193 17.8298 18.2979 17.8818C18.2765 17.9337 18.245 17.9809 18.2052 18.0206C18.1655 18.0604 18.1183 18.0918 18.0664 18.1133C18.0144 18.1347 17.9588 18.1456 17.9026 18.1455H15.7776C15.7214 18.1456 15.6657 18.1347 15.6138 18.1133C15.5619 18.0918 15.5147 18.0604 15.4749 18.0206C15.4352 17.9809 15.4037 17.9337 15.3823 17.8818C15.3609 17.8298 15.3499 17.7742 15.3501 17.718V13.8317C15.3501 13.2517 15.5201 11.2917 13.8338 11.2917C12.5276 11.2917 12.2613 12.633 12.2088 13.2355V17.718C12.2089 17.8303 12.1647 17.9381 12.0858 18.0181C12.007 18.0981 11.8999 18.1438 11.7876 18.1455H9.73509C9.67901 18.1455 9.62348 18.1344 9.57168 18.1129C9.51989 18.0914 9.47284 18.0599 9.43324 18.0202C9.39365 17.9805 9.36227 17.9333 9.34093 17.8815C9.31958 17.8296 9.30868 17.774 9.30884 17.718V9.35922C9.30868 9.30314 9.31958 9.24758 9.34093 9.19572C9.36227 9.14386 9.39365 9.09672 9.43324 9.05701C9.47284 9.01729 9.51989 8.98578 9.57168 8.96428C9.62348 8.94278 9.67901 8.93172 9.73509 8.93172H11.7876C11.901 8.93172 12.0097 8.97676 12.0899 9.05693C12.17 9.1371 12.2151 9.24584 12.2151 9.35922V10.0817C12.7001 9.35422 13.4188 8.79297 14.9526 8.79297C18.3501 8.79297 18.3301 11.9655 18.3301 13.708Z" fill="white"/>
</g>
<defs>
<clipPath id="clip0_155_1552">
<rect width="22" height="22" fill="white" transform="translate(0.5 0.270508)"/>
</clipPath>
</defs>
</svg>
