<svg width="81" height="31" viewBox="0 0 81 31" fill="none" xmlns="http://www.w3.org/2000/svg">
<path d="M15.4998 0C6.95308 0 0 6.95323 0 15.5C0 24.0468 6.95308 31 15.4998 31C24.0466 31 30.9998 24.0468 30.9998 15.5C30.9998 6.95323 24.0466 0 15.4998 0ZM10.8221 24.1377V6.86231L25.7334 15.5L10.8221 24.1377Z" fill="#84FF82"/>
<path d="M13.9609 12.3115V18.6897L19.4662 15.5006L13.9609 12.3115Z" fill="#84FF82"/>
<path d="M31.7891 3.55176C34.2518 6.90071 35.7092 11.0326 35.7092 15.499C35.7092 20.1238 34.1468 24.3898 31.5234 27.7994H80.3972V3.55176H31.7891ZM47.3193 23.5902H39.6081V7.40776H42.7486V20.4498H47.3193V23.5902ZM52.2618 23.5959H49.1212V7.40226H52.2618V23.5959ZM61.7865 23.4977H58.9568L53.637 8.099L56.6053 7.07344L60.3407 17.8861L63.9197 7.10925L66.9001 8.09916L61.7865 23.4977ZM76.8781 10.6024H71.4282V13.9287H76.4762V17.0693H71.4282V20.3956H76.8781V23.5362H68.2877V7.46177H76.8781V10.6024Z" fill="#84FF82"/>
</svg>
