<svg width="41" height="41" viewBox="0 0 41 41" fill="none" xmlns="http://www.w3.org/2000/svg">
<path d="M25.2951 18.65L20.0898 15.645C19.4185 15.2555 18.6207 15.2572 17.9527 15.645C17.2848 16.0311 16.8867 16.7212 16.8867 17.4934V23.505C16.8867 24.2755 17.2848 24.9691 17.9527 25.3535C18.2876 25.5482 18.6548 25.6439 19.0204 25.6439C19.3877 25.6439 19.755 25.5482 20.0898 25.3535L25.2951 22.3502C25.9631 21.9624 26.3628 21.2705 26.3628 20.5001C26.3628 19.7279 25.9631 19.036 25.2951 18.65Z" fill="white"/>
<path d="M28.6479 12.3467C28.1474 11.8496 27.3342 11.8513 26.8354 12.3553C26.3382 12.8575 26.3416 13.669 26.8439 14.1661C28.5386 15.8454 29.4713 18.0953 29.4713 20.5006C29.4713 22.9059 28.5386 25.1558 26.8439 26.8351C26.3416 27.3322 26.3382 28.1437 26.8354 28.6476C27.0865 28.8988 27.4162 29.0252 27.7459 29.0252C28.0722 29.0252 28.3985 28.9022 28.6479 28.6545C30.8311 26.4917 32.0338 23.5944 32.0338 20.5006C32.0338 17.4051 30.8311 14.5112 28.6479 12.3467Z" fill="white"/>
<path d="M14.1655 12.3553C13.6667 11.8513 12.8552 11.8496 12.353 12.3467C10.1697 14.5112 8.96875 17.4068 8.96875 20.5006C8.96875 23.5961 10.1697 26.4917 12.353 28.6562C12.6024 28.9022 12.9287 29.0252 13.255 29.0252C13.5847 29.0252 13.9161 28.8988 14.1655 28.6476C14.6643 28.1437 14.6609 27.3322 14.157 26.8351C12.4623 25.1558 11.5312 22.9059 11.5312 20.5006C11.5312 18.0953 12.4623 15.8454 14.157 14.1678C14.6609 13.669 14.6643 12.8575 14.1655 12.3553Z" fill="white"/>
<path d="M33.4848 7.51701C32.9843 7.01647 32.1728 7.01647 31.6723 7.51701C31.1717 8.01755 31.1717 8.82901 31.6723 9.32955C34.6584 12.3157 36.3036 16.2825 36.3036 20.5003C36.3036 24.7182 34.6584 28.6867 31.6723 31.6728C31.1717 32.1734 31.1717 32.9848 31.6723 33.4854C31.9234 33.7348 32.2514 33.8595 32.5794 33.8595C32.9074 33.8595 33.2354 33.7348 33.4848 33.4854C36.9544 30.0141 38.8661 25.4016 38.8661 20.5003C38.8661 15.5974 36.9544 10.9866 33.4848 7.51701Z" fill="white"/>
<path d="M4.69922 20.5003C4.69922 16.2825 6.34264 12.314 9.3288 9.32784C9.82934 8.8273 9.82934 8.01755 9.3288 7.51701C8.82826 7.01647 8.01851 7.01647 7.51797 7.51701C4.04834 10.9866 2.13672 15.5974 2.13672 20.5003C2.13672 25.4016 4.04834 30.0141 7.51797 33.4854C7.76739 33.7348 8.09539 33.8595 8.42339 33.8595C8.75139 33.8595 9.07939 33.7348 9.3288 33.4854C9.82934 32.9848 9.82934 32.1734 9.3288 31.6728C6.34264 28.6867 4.69922 24.7182 4.69922 20.5003Z" fill="white"/>
</svg>
