<svg width="764" height="442" viewBox="0 0 764 442" fill="none" xmlns="http://www.w3.org/2000/svg">
<g filter="url(#filter0_d_823_915)">
<g filter="url(#filter1_d_823_915)">
<rect x="40.5" y="35" width="683" height="362" rx="18" fill="white"/>
</g>
<rect x="40.5" y="84.2158" width="680.15" height="97.5216" rx="18" fill="white"/>
<rect x="40.5" y="180.957" width="680.15" height="0.780172" rx="0.390086" fill="#ECECEC"/>
<path d="M605.669 126.379C605.669 129.505 603.223 131.369 600.252 131.369C597.262 131.369 594.835 129.466 594.835 126.457C594.835 124.826 595.456 123.564 596.369 122.205L599.689 117.254H603.63L600.252 121.952L600.194 122.049C600.446 121.952 600.854 121.894 601.164 121.894C603.572 121.894 605.669 123.7 605.669 126.379ZM602.407 126.457C602.407 125.214 601.553 124.302 600.271 124.302C598.99 124.302 598.097 125.195 598.097 126.476C598.097 127.66 598.951 128.651 600.252 128.651C601.533 128.651 602.407 127.758 602.407 126.457ZM617.755 119.855L612.493 131H608.707L614.28 120.049H607.775V117.254H617.755V119.855ZM630.365 131H620.424V128.282L625.783 123.428C626.463 122.787 626.909 122.146 626.909 121.311C626.909 120.341 626.23 119.661 625.201 119.661C624.113 119.661 623.395 120.515 623.259 121.739L620.133 121.311C620.444 118.535 622.696 116.885 625.375 116.885C627.899 116.885 630.346 118.224 630.346 121.098C630.346 123.059 629.2 124.204 627.938 125.331L624.754 128.165H630.365V131ZM639.403 125.699L643.286 131H639.345L636.18 126.36H636.122V131H632.918V116.322H636.122V125.253H636.18L639.267 121.331H643.131L639.403 125.699Z" fill="#1D1B23"/>
<rect width="5.24901" height="15.7813" rx="2.62451" transform="matrix(-1 0 0 1 536.347 125.073)" fill="#09BD3C"/>
<rect width="5.24901" height="21.8372" rx="2.62451" transform="matrix(-1 0 0 1 510.102 128.319)" fill="#09BD3C"/>
<rect width="5.24901" height="23.6078" rx="2.62451" transform="matrix(-1 0 0 1 496.979 113.859)" fill="#09BD3C"/>
<rect width="5.24901" height="39.8381" rx="2.62451" transform="matrix(-1 0 0 1 523.224 121.827)" fill="#09BD3C"/>
<rect width="5.24901" height="33.346" rx="2.62451" transform="matrix(-1 0 0 1 549.469 112.089)" fill="#09BD3C"/>
<path d="M595.101 144.378L598.227 152.736H598.254L601.38 144.378H602.426L598.743 154H597.71L594.041 144.378H595.101ZM604.39 147.639V154H603.466V147.639H604.39ZM604.58 145.193C604.58 145.574 604.254 145.845 603.928 145.845C603.602 145.845 603.276 145.574 603.276 145.193C603.276 144.812 603.602 144.541 603.928 144.541C604.254 144.541 604.58 144.812 604.58 145.193ZM610.941 148.618L610.234 149.148C609.962 148.618 609.378 148.251 608.671 148.251C608.005 148.251 607.326 148.536 607.326 149.243C607.326 149.841 607.801 150.113 608.848 150.33C610.343 150.643 611.05 151.2 611.05 152.192C611.05 153.647 609.826 154.163 608.658 154.163C607.693 154.163 606.728 153.783 606.143 152.926L606.877 152.383C607.203 152.94 607.896 153.375 608.644 153.375C609.432 153.375 610.139 153.089 610.139 152.26C610.139 151.594 609.473 151.323 608.263 151.037C607.516 150.86 606.442 150.534 606.442 149.325C606.442 148.034 607.557 147.476 608.712 147.476C609.595 147.476 610.533 147.898 610.941 148.618ZM613.827 147.639V154H612.903V147.639H613.827ZM614.017 145.193C614.017 145.574 613.691 145.845 613.365 145.845C613.038 145.845 612.712 145.574 612.712 145.193C612.712 144.812 613.038 144.541 613.365 144.541C613.691 144.541 614.017 144.812 614.017 145.193ZM619.154 147.639V148.414H617.36V152.124C617.36 153.076 617.755 153.293 618.312 153.293C618.57 153.293 618.869 153.212 619.114 153.089L619.154 153.891C618.828 154.014 618.489 154.082 618.067 154.082C617.388 154.082 616.436 153.783 616.436 152.383V148.414H615.118V147.639H616.436V145.845H617.36V147.639H619.154ZM626.92 150.82C626.92 152.736 625.507 154.163 623.522 154.163C621.552 154.163 620.138 152.736 620.138 150.82C620.138 148.903 621.552 147.476 623.522 147.476C625.507 147.476 626.92 148.903 626.92 150.82ZM625.942 150.82C625.942 149.393 625.004 148.251 623.522 148.251C622.055 148.251 621.117 149.393 621.117 150.82C621.117 152.247 622.055 153.375 623.522 153.375C625.004 153.375 625.942 152.247 625.942 150.82ZM628.909 149.039C628.909 148.699 628.895 148.074 628.855 147.639H629.738C629.765 147.979 629.792 148.455 629.792 148.727H629.82C630.173 147.993 630.961 147.476 631.858 147.476C632.089 147.476 632.28 147.49 632.47 147.544L632.348 148.414C632.239 148.373 631.94 148.333 631.695 148.333C630.717 148.333 629.833 149.039 629.833 150.738V154H628.909V149.039ZM637.897 148.618L637.191 149.148C636.919 148.618 636.334 148.251 635.628 148.251C634.962 148.251 634.282 148.536 634.282 149.243C634.282 149.841 634.758 150.113 635.804 150.33C637.299 150.643 638.006 151.2 638.006 152.192C638.006 153.647 636.783 154.163 635.614 154.163C634.649 154.163 633.684 153.783 633.1 152.926L633.834 152.383C634.16 152.94 634.853 153.375 635.601 153.375C636.389 153.375 637.096 153.089 637.096 152.26C637.096 151.594 636.43 151.323 635.22 151.037C634.472 150.86 633.399 150.534 633.399 149.325C633.399 148.034 634.513 147.476 635.669 147.476C636.552 147.476 637.49 147.898 637.897 148.618Z" fill="#717579"/>
<path d="M86.577 120.273L85.727 121.123C84.894 120.239 83.738 119.729 82.242 119.729C79.148 119.729 77.244 122.177 77.244 124.982C77.244 127.787 79.148 130.218 82.242 130.218C83.602 130.218 84.792 129.895 85.489 129.436V125.781H82.684V124.71H86.713V130.133C85.404 130.915 83.857 131.306 82.225 131.306C78.587 131.306 75.952 128.637 75.952 124.982C75.952 121.327 78.638 118.658 82.225 118.658C84.129 118.658 85.557 119.27 86.577 120.273ZM94.793 126.121V125.866C94.793 124.489 94.045 123.809 92.668 123.809C91.733 123.809 90.866 124.183 90.305 124.744L89.659 123.979C90.305 123.333 91.427 122.84 92.787 122.84C94.504 122.84 95.881 123.792 95.881 125.73V129.215C95.881 129.827 95.932 130.558 96.017 131H94.98C94.912 130.609 94.861 130.133 94.861 129.708H94.827C94.096 130.762 93.212 131.204 91.937 131.204C90.73 131.204 89.183 130.558 89.183 128.79C89.183 126.342 91.886 126.121 94.793 126.121ZM94.793 127.022H94.453C92.566 127.022 90.373 127.226 90.373 128.739C90.373 129.878 91.342 130.252 92.243 130.252C93.875 130.252 94.793 129.028 94.793 127.617V127.022ZM99.9981 124.404C100.457 123.486 101.477 122.84 102.616 122.84C103.483 122.84 104.537 123.163 105.064 124.523C105.608 123.435 106.577 122.84 107.852 122.84C109.875 122.84 110.878 124.149 110.878 126.121V131H109.722V126.597C109.722 124.931 109.161 123.809 107.665 123.809C105.999 123.809 105.404 125.288 105.404 126.767V131H104.248V126.359C104.248 124.812 103.874 123.809 102.327 123.809C101.222 123.809 100.015 124.795 100.015 126.92V131H98.8591V124.795C98.8591 124.37 98.8421 123.588 98.7911 123.044H99.8961C99.9301 123.469 99.9641 124.064 99.9641 124.404H99.9981ZM114.513 126.41H119.936C119.868 124.914 118.95 123.809 117.301 123.809C115.754 123.809 114.615 125.05 114.513 126.41ZM121.109 126.784C121.109 126.937 121.109 127.124 121.092 127.328H114.496C114.53 128.926 115.771 130.218 117.403 130.218C118.593 130.218 119.511 129.555 119.953 128.841L120.82 129.521C119.885 130.711 118.712 131.204 117.403 131.204C115.04 131.204 113.289 129.419 113.289 127.022C113.289 124.625 115.04 122.84 117.301 122.84C119.8 122.84 121.109 124.608 121.109 126.784ZM139.813 124.982C139.813 128.637 137.127 131.306 133.54 131.306C129.953 131.306 127.267 128.637 127.267 124.982C127.267 121.327 129.953 118.658 133.54 118.658C137.127 118.658 139.813 121.327 139.813 124.982ZM138.521 124.982C138.521 122.177 136.634 119.729 133.54 119.729C130.446 119.729 128.559 122.177 128.559 124.982C128.559 127.787 130.446 130.218 133.54 130.218C136.634 130.218 138.521 127.787 138.521 124.982ZM142.221 123.044H143.326C143.36 123.469 143.394 124.064 143.394 124.404H143.428C143.87 123.486 145.026 122.84 146.148 122.84C148.171 122.84 149.174 124.149 149.174 126.121V131H148.018V126.597C148.018 124.931 147.525 123.809 145.859 123.809C144.635 123.809 143.445 124.795 143.445 126.92V131H142.289V124.795C142.289 124.37 142.272 123.588 142.221 123.044ZM153.357 118.148V131H152.201V118.148H153.357ZM157.623 123.044V131H156.467V123.044H157.623ZM157.861 119.984C157.861 120.46 157.453 120.8 157.045 120.8C156.637 120.8 156.229 120.46 156.229 119.984C156.229 119.508 156.637 119.168 157.045 119.168C157.453 119.168 157.861 119.508 157.861 119.984ZM160.632 123.044H161.737C161.771 123.469 161.805 124.064 161.805 124.404H161.839C162.281 123.486 163.437 122.84 164.559 122.84C166.582 122.84 167.585 124.149 167.585 126.121V131H166.429V126.597C166.429 124.931 165.936 123.809 164.27 123.809C163.046 123.809 161.856 124.795 161.856 126.92V131H160.7V124.795C160.7 124.37 160.683 123.588 160.632 123.044ZM171.224 126.41H176.647C176.579 124.914 175.661 123.809 174.012 123.809C172.465 123.809 171.326 125.05 171.224 126.41ZM177.82 126.784C177.82 126.937 177.82 127.124 177.803 127.328H171.207C171.241 128.926 172.482 130.218 174.114 130.218C175.304 130.218 176.222 129.555 176.664 128.841L177.531 129.521C176.596 130.711 175.423 131.204 174.114 131.204C171.751 131.204 170 129.419 170 127.022C170 124.625 171.751 122.84 174.012 122.84C176.511 122.84 177.82 124.608 177.82 126.784ZM184.105 118.964L188.015 129.419H188.049L191.959 118.964H193.268L188.661 131H187.369L182.779 118.964H184.105ZM202.04 127.022C202.04 129.419 200.272 131.204 197.79 131.204C195.325 131.204 193.557 129.419 193.557 127.022C193.557 124.625 195.325 122.84 197.79 122.84C200.272 122.84 202.04 124.625 202.04 127.022ZM200.816 127.022C200.816 125.237 199.643 123.809 197.79 123.809C195.954 123.809 194.781 125.237 194.781 127.022C194.781 128.807 195.954 130.218 197.79 130.218C199.643 130.218 200.816 128.807 200.816 127.022ZM211.413 131H210.308C210.274 130.575 210.24 129.98 210.24 129.64H210.206C209.764 130.558 208.608 131.204 207.486 131.204C205.463 131.204 204.46 129.895 204.46 127.923V123.044H205.616V127.447C205.616 129.113 206.109 130.235 207.775 130.235C208.999 130.235 210.189 129.249 210.189 127.124V123.044H211.345V129.249C211.345 129.674 211.362 130.456 211.413 131ZM221.036 124.217L220.135 124.863C219.761 124.251 218.962 123.809 218.095 123.809C216.242 123.809 215.052 125.203 215.052 127.022C215.052 128.824 216.225 130.218 218.078 130.218C219.081 130.218 219.778 129.793 220.237 129.181L221.104 129.827C220.424 130.66 219.455 131.204 218.078 131.204C215.511 131.204 213.828 129.419 213.828 127.022C213.828 124.625 215.511 122.84 218.078 122.84C219.149 122.84 220.356 123.299 221.036 124.217ZM224.096 124.353H224.13C224.555 123.435 225.677 122.84 226.799 122.84C228.822 122.84 229.825 124.149 229.825 126.121V131H228.669V126.597C228.669 124.931 228.176 123.809 226.51 123.809C225.286 123.809 224.096 124.795 224.096 126.92V131H222.94V118.148H224.096V124.353ZM233.463 126.41H238.886C238.818 124.914 237.9 123.809 236.251 123.809C234.704 123.809 233.565 125.05 233.463 126.41ZM240.059 126.784C240.059 126.937 240.059 127.124 240.042 127.328H233.446C233.48 128.926 234.721 130.218 236.353 130.218C237.543 130.218 238.461 129.555 238.903 128.841L239.77 129.521C238.835 130.711 237.662 131.204 236.353 131.204C233.99 131.204 232.239 129.419 232.239 127.022C232.239 124.625 233.99 122.84 236.251 122.84C238.75 122.84 240.059 124.608 240.059 126.784ZM242.546 124.795C242.546 124.37 242.529 123.588 242.478 123.044H243.583C243.617 123.469 243.651 124.064 243.651 124.404H243.685C244.127 123.486 245.113 122.84 246.235 122.84C246.524 122.84 246.762 122.857 247 122.925L246.847 124.013C246.711 123.962 246.337 123.911 246.031 123.911C244.807 123.911 243.702 124.795 243.702 126.92V131H242.546V124.795ZM253.789 124.268L252.905 124.931C252.565 124.268 251.834 123.809 250.95 123.809C250.117 123.809 249.267 124.166 249.267 125.05C249.267 125.798 249.862 126.138 251.171 126.41C253.041 126.801 253.925 127.498 253.925 128.739C253.925 130.558 252.395 131.204 250.933 131.204C249.726 131.204 248.519 130.728 247.788 129.657L248.706 128.977C249.114 129.674 249.981 130.218 250.916 130.218C251.902 130.218 252.786 129.861 252.786 128.824C252.786 127.991 251.953 127.651 250.44 127.294C249.505 127.073 248.162 126.665 248.162 125.152C248.162 123.537 249.556 122.84 251.001 122.84C252.106 122.84 253.279 123.367 253.789 124.268ZM267.513 129.912V131H259.812V129.725L264.742 124.744C265.473 123.996 266.187 123.095 266.187 121.99C266.187 120.596 265.099 119.695 263.807 119.695C262.515 119.695 261.58 120.596 261.325 121.837L260.118 121.599C260.458 119.899 261.92 118.658 263.807 118.658C265.745 118.658 267.428 119.78 267.428 121.973C267.428 123.52 266.527 124.557 265.473 125.611L261.138 129.912H267.513ZM273.737 118.658C276.729 118.658 277.681 121.871 277.681 124.999C277.681 128.127 276.729 131.306 273.737 131.306C270.711 131.306 269.793 128.127 269.793 124.999C269.793 121.871 270.711 118.658 273.737 118.658ZM273.737 119.695C271.595 119.695 271.034 122.602 271.034 124.999C271.034 127.396 271.595 130.252 273.737 130.252C275.845 130.252 276.44 127.396 276.44 124.999C276.44 122.602 275.845 119.695 273.737 119.695ZM285.298 121.735C285.298 123.401 283.989 124.71 282.306 124.71C280.623 124.71 279.314 123.401 279.314 121.735C279.314 120.069 280.623 118.76 282.306 118.76C283.989 118.76 285.298 120.069 285.298 121.735ZM284.278 121.735C284.278 120.613 283.377 119.78 282.306 119.78C281.235 119.78 280.334 120.613 280.334 121.735C280.334 122.857 281.235 123.69 282.306 123.69C283.377 123.69 284.278 122.857 284.278 121.735ZM292.183 128.229C292.183 129.895 290.874 131.204 289.191 131.204C287.508 131.204 286.199 129.895 286.199 128.229C286.199 126.563 287.508 125.254 289.191 125.254C290.874 125.254 292.183 126.563 292.183 128.229ZM291.163 128.229C291.163 127.107 290.262 126.274 289.191 126.274C288.12 126.274 287.219 127.107 287.219 128.229C287.219 129.351 288.12 130.184 289.191 130.184C290.262 130.184 291.163 129.351 291.163 128.229ZM290.007 118.896L282.357 131.527L281.473 131.068L289.14 118.437L290.007 118.896ZM310.577 124.982C310.577 128.637 307.891 131.306 304.304 131.306C300.717 131.306 298.031 128.637 298.031 124.982C298.031 121.327 300.717 118.658 304.304 118.658C307.891 118.658 310.577 121.327 310.577 124.982ZM309.285 124.982C309.285 122.177 307.398 119.729 304.304 119.729C301.21 119.729 299.323 122.177 299.323 124.982C299.323 127.787 301.21 130.218 304.304 130.218C307.398 130.218 309.285 127.787 309.285 124.982ZM314.344 125.305V131H313.12V118.964H320.379V120.052H314.344V124.234H319.954V125.305H314.344ZM323.89 125.305V131H322.666V118.964H329.925V120.052H323.89V124.234H329.5V125.305H323.89Z" fill="#1D1B23"/>
<path d="M76.316 155V145.088H79.116C81.132 145.088 82.462 145.956 82.462 147.734C82.462 149.512 81.104 150.394 79.088 150.394H77.324V155H76.316ZM77.324 145.956V149.54H79.032C80.6 149.54 81.454 148.91 81.454 147.734C81.454 146.516 80.558 145.956 79.032 145.956H77.324ZM89.3812 155H88.4712C88.4432 154.65 88.4152 154.16 88.4152 153.88H88.3872C88.0232 154.636 87.0712 155.168 86.1472 155.168C84.4812 155.168 83.6552 154.09 83.6552 152.466V148.448H84.6072V152.074C84.6072 153.446 85.0132 154.37 86.3852 154.37C87.3932 154.37 88.3732 153.558 88.3732 151.808V148.448H89.3252V153.558C89.3252 153.908 89.3392 154.552 89.3812 155ZM92.8539 153.894H92.8259V155H91.8739V144.416H92.8259V149.582H92.8539C93.4139 148.728 94.3939 148.28 95.3319 148.28C97.3759 148.28 98.7199 149.792 98.7199 151.724C98.7199 153.656 97.3759 155.168 95.3319 155.168C94.3939 155.168 93.4139 154.72 92.8539 153.894ZM97.7119 151.724C97.7119 150.268 96.8159 149.078 95.2339 149.078C93.7639 149.078 92.7139 150.226 92.7139 151.724C92.7139 153.222 93.7639 154.356 95.2339 154.356C96.8159 154.356 97.7119 153.18 97.7119 151.724ZM101.74 144.416V155H100.788V144.416H101.74ZM105.253 148.448V155H104.301V148.448H105.253ZM105.449 145.928C105.449 146.32 105.113 146.6 104.777 146.6C104.441 146.6 104.105 146.32 104.105 145.928C104.105 145.536 104.441 145.256 104.777 145.256C105.113 145.256 105.449 145.536 105.449 145.928ZM112.001 149.456L111.273 150.002C110.993 149.456 110.391 149.078 109.663 149.078C108.977 149.078 108.277 149.372 108.277 150.1C108.277 150.716 108.767 150.996 109.845 151.22C111.385 151.542 112.113 152.116 112.113 153.138C112.113 154.636 110.853 155.168 109.649 155.168C108.655 155.168 107.661 154.776 107.059 153.894L107.815 153.334C108.151 153.908 108.865 154.356 109.635 154.356C110.447 154.356 111.175 154.062 111.175 153.208C111.175 152.522 110.489 152.242 109.243 151.948C108.473 151.766 107.367 151.43 107.367 150.184C107.367 148.854 108.515 148.28 109.705 148.28C110.615 148.28 111.581 148.714 112.001 149.456ZM114.988 149.526H115.016C115.366 148.77 116.29 148.28 117.214 148.28C118.88 148.28 119.706 149.358 119.706 150.982V155H118.754V151.374C118.754 150.002 118.348 149.078 116.976 149.078C115.968 149.078 114.988 149.89 114.988 151.64V155H114.036V144.416H114.988V149.526ZM122.702 151.22H127.168C127.112 149.988 126.356 149.078 124.998 149.078C123.724 149.078 122.786 150.1 122.702 151.22ZM128.134 151.528C128.134 151.654 128.134 151.808 128.12 151.976H122.688C122.716 153.292 123.738 154.356 125.082 154.356C126.062 154.356 126.818 153.81 127.182 153.222L127.896 153.782C127.126 154.762 126.16 155.168 125.082 155.168C123.136 155.168 121.694 153.698 121.694 151.724C121.694 149.75 123.136 148.28 124.998 148.28C127.056 148.28 128.134 149.736 128.134 151.528ZM135.572 153.894C135.012 154.72 134.032 155.168 133.094 155.168C131.05 155.168 129.706 153.656 129.706 151.724C129.706 149.792 131.05 148.28 133.094 148.28C134.032 148.28 135.012 148.728 135.572 149.582H135.6V144.416H136.552V155H135.6V153.894H135.572ZM130.714 151.724C130.714 153.18 131.61 154.356 133.192 154.356C134.662 154.356 135.712 153.222 135.712 151.724C135.712 150.226 134.662 149.078 133.192 149.078C131.61 149.078 130.714 150.268 130.714 151.724ZM149.106 151.724C149.106 153.698 147.65 155.168 145.606 155.168C143.576 155.168 142.12 153.698 142.12 151.724C142.12 149.75 143.576 148.28 145.606 148.28C147.65 148.28 149.106 149.75 149.106 151.724ZM148.098 151.724C148.098 150.254 147.132 149.078 145.606 149.078C144.094 149.078 143.128 150.254 143.128 151.724C143.128 153.194 144.094 154.356 145.606 154.356C147.132 154.356 148.098 153.194 148.098 151.724ZM151.099 148.448H152.009C152.037 148.798 152.065 149.288 152.065 149.568H152.093C152.457 148.812 153.409 148.28 154.333 148.28C155.999 148.28 156.825 149.358 156.825 150.982V155H155.873V151.374C155.873 150.002 155.467 149.078 154.095 149.078C153.087 149.078 152.107 149.89 152.107 151.64V155H151.155V149.89C151.155 149.54 151.141 148.896 151.099 148.448ZM168.179 145.088V145.984H164.049L163.979 149.05C164.399 148.896 164.903 148.826 165.351 148.826C167.213 148.826 168.571 150.086 168.571 151.934C168.571 153.852 167.241 155.252 165.281 155.252C163.853 155.252 162.859 154.538 162.313 153.446L163.223 153.04C163.573 153.852 164.357 154.384 165.225 154.384C166.569 154.384 167.549 153.376 167.549 152.032C167.549 150.562 166.499 149.652 165.085 149.652C164.371 149.652 163.657 149.862 163.027 150.198L163.125 145.088H168.179ZM173.336 153.236L174.274 152.984C174.428 153.754 175.002 154.37 175.884 154.37C177.27 154.37 177.634 153.264 177.634 152.074V145.088H178.642V152.144C178.642 153.432 178.166 155.252 175.996 155.252C174.568 155.252 173.574 154.412 173.336 153.236ZM186.807 155H185.897C185.869 154.65 185.841 154.16 185.841 153.88H185.813C185.449 154.636 184.497 155.168 183.573 155.168C181.907 155.168 181.081 154.09 181.081 152.466V148.448H182.033V152.074C182.033 153.446 182.439 154.37 183.811 154.37C184.819 154.37 185.799 153.558 185.799 151.808V148.448H186.751V153.558C186.751 153.908 186.765 154.552 186.807 155ZM189.216 148.448H190.126C190.154 148.798 190.182 149.288 190.182 149.568H190.21C190.574 148.812 191.526 148.28 192.45 148.28C194.116 148.28 194.942 149.358 194.942 150.982V155H193.99V151.374C193.99 150.002 193.584 149.078 192.212 149.078C191.204 149.078 190.224 149.89 190.224 151.64V155H189.272V149.89C189.272 149.54 189.258 148.896 189.216 148.448ZM197.938 151.22H202.404C202.348 149.988 201.592 149.078 200.234 149.078C198.96 149.078 198.022 150.1 197.938 151.22ZM203.37 151.528C203.37 151.654 203.37 151.808 203.356 151.976H197.924C197.952 153.292 198.974 154.356 200.318 154.356C201.298 154.356 202.054 153.81 202.418 153.222L203.132 153.782C202.362 154.762 201.396 155.168 200.318 155.168C198.372 155.168 196.93 153.698 196.93 151.724C196.93 149.75 198.372 148.28 200.234 148.28C202.292 148.28 203.37 149.736 203.37 151.528ZM214.714 154.104V155H208.372V153.95L212.432 149.848C213.034 149.232 213.622 148.49 213.622 147.58C213.622 146.432 212.726 145.69 211.662 145.69C210.598 145.69 209.828 146.432 209.618 147.454L208.624 147.258C208.904 145.858 210.108 144.836 211.662 144.836C213.258 144.836 214.644 145.76 214.644 147.566C214.644 148.84 213.902 149.694 213.034 150.562L209.464 154.104H214.714ZM219.839 144.836C222.303 144.836 223.087 147.482 223.087 150.058C223.087 152.634 222.303 155.252 219.839 155.252C217.347 155.252 216.591 152.634 216.591 150.058C216.591 147.482 217.347 144.836 219.839 144.836ZM219.839 145.69C218.075 145.69 217.613 148.084 217.613 150.058C217.613 152.032 218.075 154.384 219.839 154.384C221.575 154.384 222.065 152.032 222.065 150.058C222.065 148.084 221.575 145.69 219.839 145.69ZM230.956 154.104V155H224.614V153.95L228.674 149.848C229.276 149.232 229.864 148.49 229.864 147.58C229.864 146.432 228.968 145.69 227.904 145.69C226.84 145.69 226.07 146.432 225.86 147.454L224.866 147.258C225.146 145.858 226.35 144.836 227.904 144.836C229.5 144.836 230.886 145.76 230.886 147.566C230.886 148.84 230.144 149.694 229.276 150.562L225.706 154.104H230.956ZM236.081 144.836C238.545 144.836 239.329 147.482 239.329 150.058C239.329 152.634 238.545 155.252 236.081 155.252C233.589 155.252 232.833 152.634 232.833 150.058C232.833 147.482 233.589 144.836 236.081 144.836ZM236.081 145.69C234.317 145.69 233.855 148.084 233.855 150.058C233.855 152.032 234.317 154.384 236.081 154.384C237.817 154.384 238.307 152.032 238.307 150.058C238.307 148.084 237.817 145.69 236.081 145.69Z" fill="#717579"/>
<rect x="40.5" y="181.737" width="680.15" height="97.5216" rx="18" fill="white"/>
<rect x="40.5" y="278.479" width="680.15" height="0.780172" rx="0.390086" fill="#ECECEC"/>
<rect x="40.5" y="278.479" width="680.15" height="0.780172" rx="0.390086" fill="#ECECEC"/>
<path d="M605.669 223.379C605.669 226.505 603.223 228.369 600.252 228.369C597.262 228.369 594.835 226.466 594.835 223.457C594.835 221.826 595.456 220.564 596.369 219.205L599.689 214.254H603.63L600.252 218.952L600.194 219.049C600.446 218.952 600.854 218.894 601.164 218.894C603.572 218.894 605.669 220.7 605.669 223.379ZM602.407 223.457C602.407 222.214 601.553 221.302 600.271 221.302C598.99 221.302 598.097 222.195 598.097 223.476C598.097 224.66 598.951 225.651 600.252 225.651C601.533 225.651 602.407 224.758 602.407 223.457ZM617.755 216.855L612.493 228H608.707L614.28 217.049H607.775V214.254H617.755V216.855ZM630.365 228H620.424V225.282L625.783 220.428C626.463 219.787 626.909 219.146 626.909 218.311C626.909 217.341 626.23 216.661 625.201 216.661C624.113 216.661 623.395 217.515 623.259 218.739L620.133 218.311C620.444 215.535 622.696 213.885 625.375 213.885C627.899 213.885 630.346 215.224 630.346 218.098C630.346 220.059 629.2 221.204 627.938 222.331L624.754 225.165H630.365V228ZM639.403 222.699L643.286 228H639.345L636.18 223.36H636.122V228H632.918V213.322H636.122V222.253H636.18L639.267 218.331H643.131L639.403 222.699Z" fill="#1D1B23"/>
<rect width="5.24901" height="15.7813" rx="2.62451" transform="matrix(1 0 0 -1 504.646 246.202)" fill="#09BD3C"/>
<rect width="5.24901" height="21.8372" rx="2.62451" transform="matrix(1 0 0 -1 530.891 242.956)" fill="#09BD3C"/>
<rect width="5.24901" height="23.6078" rx="2.62451" transform="matrix(1 0 0 -1 544.014 257.416)" fill="#09BD3C"/>
<rect width="5.24901" height="39.8381" rx="2.62451" transform="matrix(1 0 0 -1 517.769 249.448)" fill="#09BD3C"/>
<rect width="5.24901" height="33.346" rx="2.62451" transform="matrix(1 0 0 -1 491.524 259.187)" fill="#09BD3C"/>
<path d="M595.101 241.378L598.227 249.736H598.254L601.38 241.378H602.426L598.743 251H597.71L594.041 241.378H595.101ZM604.39 244.639V251H603.466V244.639H604.39ZM604.58 242.193C604.58 242.574 604.254 242.845 603.928 242.845C603.602 242.845 603.276 242.574 603.276 242.193C603.276 241.812 603.602 241.541 603.928 241.541C604.254 241.541 604.58 241.812 604.58 242.193ZM610.941 245.618L610.234 246.148C609.962 245.618 609.378 245.251 608.671 245.251C608.005 245.251 607.326 245.536 607.326 246.243C607.326 246.841 607.801 247.113 608.848 247.33C610.343 247.643 611.05 248.2 611.05 249.192C611.05 250.647 609.826 251.163 608.658 251.163C607.693 251.163 606.728 250.783 606.143 249.926L606.877 249.383C607.203 249.94 607.896 250.375 608.644 250.375C609.432 250.375 610.139 250.089 610.139 249.26C610.139 248.594 609.473 248.323 608.263 248.037C607.516 247.86 606.442 247.534 606.442 246.325C606.442 245.034 607.557 244.476 608.712 244.476C609.595 244.476 610.533 244.898 610.941 245.618ZM613.827 244.639V251H612.903V244.639H613.827ZM614.017 242.193C614.017 242.574 613.691 242.845 613.365 242.845C613.038 242.845 612.712 242.574 612.712 242.193C612.712 241.812 613.038 241.541 613.365 241.541C613.691 241.541 614.017 241.812 614.017 242.193ZM619.154 244.639V245.414H617.36V249.124C617.36 250.076 617.755 250.293 618.312 250.293C618.57 250.293 618.869 250.212 619.114 250.089L619.154 250.891C618.828 251.014 618.489 251.082 618.067 251.082C617.388 251.082 616.436 250.783 616.436 249.383V245.414H615.118V244.639H616.436V242.845H617.36V244.639H619.154ZM626.92 247.82C626.92 249.736 625.507 251.163 623.522 251.163C621.552 251.163 620.138 249.736 620.138 247.82C620.138 245.903 621.552 244.476 623.522 244.476C625.507 244.476 626.92 245.903 626.92 247.82ZM625.942 247.82C625.942 246.393 625.004 245.251 623.522 245.251C622.055 245.251 621.117 246.393 621.117 247.82C621.117 249.247 622.055 250.375 623.522 250.375C625.004 250.375 625.942 249.247 625.942 247.82ZM628.909 246.039C628.909 245.699 628.895 245.074 628.855 244.639H629.738C629.765 244.979 629.792 245.455 629.792 245.727H629.82C630.173 244.993 630.961 244.476 631.858 244.476C632.089 244.476 632.28 244.49 632.47 244.544L632.348 245.414C632.239 245.373 631.94 245.333 631.695 245.333C630.717 245.333 629.833 246.039 629.833 247.738V251H628.909V246.039ZM637.897 245.618L637.191 246.148C636.919 245.618 636.334 245.251 635.628 245.251C634.962 245.251 634.282 245.536 634.282 246.243C634.282 246.841 634.758 247.113 635.804 247.33C637.299 247.643 638.006 248.2 638.006 249.192C638.006 250.647 636.783 251.163 635.614 251.163C634.649 251.163 633.684 250.783 633.1 249.926L633.834 249.383C634.16 249.94 634.853 250.375 635.601 250.375C636.389 250.375 637.096 250.089 637.096 249.26C637.096 248.594 636.43 248.323 635.22 248.037C634.472 247.86 633.399 247.534 633.399 246.325C633.399 245.034 634.513 244.476 635.669 244.476C636.552 244.476 637.49 244.898 637.897 245.618Z" fill="#717579"/>
<path d="M81.086 216.964V229H79.862V218.477L77.686 220.33L76.938 219.48L79.998 216.964H81.086ZM92.9363 216.964V218.052H87.9213L87.8363 221.775C88.3463 221.588 88.9583 221.503 89.5023 221.503C91.7633 221.503 93.4123 223.033 93.4123 225.277C93.4123 227.606 91.7973 229.306 89.4173 229.306C87.6833 229.306 86.4763 228.439 85.8133 227.113L86.9183 226.62C87.3433 227.606 88.2953 228.252 89.3493 228.252C90.9813 228.252 92.1713 227.028 92.1713 225.396C92.1713 223.611 90.8963 222.506 89.1793 222.506C88.3123 222.506 87.4453 222.761 86.6803 223.169L86.7993 216.964H92.9363ZM101.353 219.735C101.353 221.401 100.044 222.71 98.3607 222.71C96.6777 222.71 95.3687 221.401 95.3687 219.735C95.3687 218.069 96.6777 216.76 98.3607 216.76C100.044 216.76 101.353 218.069 101.353 219.735ZM100.333 219.735C100.333 218.613 99.4317 217.78 98.3607 217.78C97.2897 217.78 96.3887 218.613 96.3887 219.735C96.3887 220.857 97.2897 221.69 98.3607 221.69C99.4317 221.69 100.333 220.857 100.333 219.735ZM108.238 226.229C108.238 227.895 106.929 229.204 105.246 229.204C103.563 229.204 102.254 227.895 102.254 226.229C102.254 224.563 103.563 223.254 105.246 223.254C106.929 223.254 108.238 224.563 108.238 226.229ZM107.218 226.229C107.218 225.107 106.317 224.274 105.246 224.274C104.175 224.274 103.274 225.107 103.274 226.229C103.274 227.351 104.175 228.184 105.246 228.184C106.317 228.184 107.218 227.351 107.218 226.229ZM106.062 216.896L98.4117 229.527L97.5277 229.068L105.195 216.437L106.062 216.896ZM126.632 222.982C126.632 226.637 123.946 229.306 120.359 229.306C116.772 229.306 114.086 226.637 114.086 222.982C114.086 219.327 116.772 216.658 120.359 216.658C123.946 216.658 126.632 219.327 126.632 222.982ZM125.34 222.982C125.34 220.177 123.453 217.729 120.359 217.729C117.265 217.729 115.378 220.177 115.378 222.982C115.378 225.787 117.265 228.218 120.359 228.218C123.453 228.218 125.34 225.787 125.34 222.982ZM130.399 223.305V229H129.175V216.964H136.434V218.052H130.399V222.234H136.009V223.305H130.399ZM139.945 223.305V229H138.721V216.964H145.98V218.052H139.945V222.234H145.555V223.305H139.945ZM162.496 218.273L161.646 219.123C160.813 218.239 159.657 217.729 158.161 217.729C155.067 217.729 153.163 220.177 153.163 222.982C153.163 225.787 155.067 228.218 158.161 228.218C159.521 228.218 160.711 227.895 161.408 227.436V223.781H158.603V222.71H162.632V228.133C161.323 228.915 159.776 229.306 158.144 229.306C154.506 229.306 151.871 226.637 151.871 222.982C151.871 219.327 154.557 216.658 158.144 216.658C160.048 216.658 161.476 217.27 162.496 218.273ZM165.697 222.795C165.697 222.37 165.68 221.588 165.629 221.044H166.734C166.768 221.469 166.802 222.064 166.802 222.404H166.836C167.278 221.486 168.264 220.84 169.386 220.84C169.675 220.84 169.913 220.857 170.151 220.925L169.998 222.013C169.862 221.962 169.488 221.911 169.182 221.911C167.958 221.911 166.853 222.795 166.853 224.92V229H165.697V222.795ZM176.639 224.121V223.866C176.639 222.489 175.891 221.809 174.514 221.809C173.579 221.809 172.712 222.183 172.151 222.744L171.505 221.979C172.151 221.333 173.273 220.84 174.633 220.84C176.35 220.84 177.727 221.792 177.727 223.73V227.215C177.727 227.827 177.778 228.558 177.863 229H176.826C176.758 228.609 176.707 228.133 176.707 227.708H176.673C175.942 228.762 175.058 229.204 173.783 229.204C172.576 229.204 171.029 228.558 171.029 226.79C171.029 224.342 173.732 224.121 176.639 224.121ZM176.639 225.022H176.299C174.412 225.022 172.219 225.226 172.219 226.739C172.219 227.878 173.188 228.252 174.089 228.252C175.721 228.252 176.639 227.028 176.639 225.617V225.022ZM180.637 221.044H181.742C181.776 221.469 181.81 222.064 181.81 222.404H181.844C182.286 221.486 183.442 220.84 184.564 220.84C186.587 220.84 187.59 222.149 187.59 224.121V229H186.434V224.597C186.434 222.931 185.941 221.809 184.275 221.809C183.051 221.809 181.861 222.795 181.861 224.92V229H180.705V222.795C180.705 222.37 180.688 221.588 180.637 221.044ZM191.756 221.044V229H190.6V221.044H191.756ZM191.994 217.984C191.994 218.46 191.586 218.8 191.178 218.8C190.77 218.8 190.362 218.46 190.362 217.984C190.362 217.508 190.77 217.168 191.178 217.168C191.586 217.168 191.994 217.508 191.994 217.984ZM198.42 221.044V222.013H196.176V226.654C196.176 227.844 196.669 228.116 197.366 228.116C197.689 228.116 198.063 228.014 198.369 227.861L198.42 228.864C198.012 229.017 197.587 229.102 197.06 229.102C196.21 229.102 195.02 228.728 195.02 226.977V222.013H193.371V221.044H195.02V218.8H196.176V221.044H198.42ZM200.874 224.41H206.297C206.229 222.914 205.311 221.809 203.662 221.809C202.115 221.809 200.976 223.05 200.874 224.41ZM207.47 224.784C207.47 224.937 207.47 225.124 207.453 225.328H200.857C200.891 226.926 202.132 228.218 203.764 228.218C204.954 228.218 205.872 227.555 206.314 226.841L207.181 227.521C206.246 228.711 205.073 229.204 203.764 229.204C201.401 229.204 199.65 227.419 199.65 225.022C199.65 222.625 201.401 220.84 203.662 220.84C206.161 220.84 207.47 222.608 207.47 224.784ZM221.075 218.12L220.106 218.902C219.596 218.171 218.763 217.695 217.624 217.695C216.434 217.695 215.057 218.409 215.057 219.956C215.057 221.486 216.332 221.877 217.675 222.319C219.375 222.88 221.245 223.424 221.245 225.838C221.245 228.252 219.222 229.306 217.318 229.306C215.856 229.306 214.394 228.711 213.527 227.521L214.581 226.739C215.108 227.589 216.077 228.252 217.335 228.252C218.576 228.252 220.004 227.47 220.004 225.923C220.004 224.24 218.593 223.815 217.063 223.339C215.465 222.846 213.833 222.149 213.833 219.973C213.833 217.644 215.907 216.658 217.675 216.658C219.29 216.658 220.497 217.338 221.075 218.12ZM227.29 221.044V222.013H225.046V226.654C225.046 227.844 225.539 228.116 226.236 228.116C226.559 228.116 226.933 228.014 227.239 227.861L227.29 228.864C226.882 229.017 226.457 229.102 225.93 229.102C225.08 229.102 223.89 228.728 223.89 226.977V222.013H222.241V221.044H223.89V218.8H225.046V221.044H227.29ZM237.003 225.022C237.003 227.419 235.235 229.204 232.753 229.204C230.288 229.204 228.52 227.419 228.52 225.022C228.52 222.625 230.288 220.84 232.753 220.84C235.235 220.84 237.003 222.625 237.003 225.022ZM235.779 225.022C235.779 223.237 234.606 221.809 232.753 221.809C230.917 221.809 229.744 223.237 229.744 225.022C229.744 226.807 230.917 228.218 232.753 228.218C234.606 228.218 235.779 226.807 235.779 225.022ZM239.423 221.044H240.528C240.562 221.469 240.596 222.064 240.596 222.404H240.63C241.072 221.486 242.228 220.84 243.35 220.84C245.373 220.84 246.376 222.149 246.376 224.121V229H245.22V224.597C245.22 222.931 244.727 221.809 243.061 221.809C241.837 221.809 240.647 222.795 240.647 224.92V229H239.491V222.795C239.491 222.37 239.474 221.588 239.423 221.044ZM250.015 224.41H255.438C255.37 222.914 254.452 221.809 252.803 221.809C251.256 221.809 250.117 223.05 250.015 224.41ZM256.611 224.784C256.611 224.937 256.611 225.124 256.594 225.328H249.998C250.032 226.926 251.273 228.218 252.905 228.218C254.095 228.218 255.013 227.555 255.455 226.841L256.322 227.521C255.387 228.711 254.214 229.204 252.905 229.204C250.542 229.204 248.791 227.419 248.791 225.022C248.791 222.625 250.542 220.84 252.803 220.84C255.302 220.84 256.611 222.608 256.611 224.784Z" fill="#1D1B23"/>
<path d="M76.316 252V242.088H79.116C81.132 242.088 82.462 242.956 82.462 244.734C82.462 246.512 81.104 247.394 79.088 247.394H77.324V252H76.316ZM77.324 242.956V246.54H79.032C80.6 246.54 81.454 245.91 81.454 244.734C81.454 243.516 80.558 242.956 79.032 242.956H77.324ZM89.3812 252H88.4712C88.4432 251.65 88.4152 251.16 88.4152 250.88H88.3872C88.0232 251.636 87.0712 252.168 86.1472 252.168C84.4812 252.168 83.6552 251.09 83.6552 249.466V245.448H84.6072V249.074C84.6072 250.446 85.0132 251.37 86.3852 251.37C87.3932 251.37 88.3732 250.558 88.3732 248.808V245.448H89.3252V250.558C89.3252 250.908 89.3392 251.552 89.3812 252ZM92.8539 250.894H92.8259V252H91.8739V241.416H92.8259V246.582H92.8539C93.4139 245.728 94.3939 245.28 95.3319 245.28C97.3759 245.28 98.7199 246.792 98.7199 248.724C98.7199 250.656 97.3759 252.168 95.3319 252.168C94.3939 252.168 93.4139 251.72 92.8539 250.894ZM97.7119 248.724C97.7119 247.268 96.8159 246.078 95.2339 246.078C93.7639 246.078 92.7139 247.226 92.7139 248.724C92.7139 250.222 93.7639 251.356 95.2339 251.356C96.8159 251.356 97.7119 250.18 97.7119 248.724ZM101.74 241.416V252H100.788V241.416H101.74ZM105.253 245.448V252H104.301V245.448H105.253ZM105.449 242.928C105.449 243.32 105.113 243.6 104.777 243.6C104.441 243.6 104.105 243.32 104.105 242.928C104.105 242.536 104.441 242.256 104.777 242.256C105.113 242.256 105.449 242.536 105.449 242.928ZM112.001 246.456L111.273 247.002C110.993 246.456 110.391 246.078 109.663 246.078C108.977 246.078 108.277 246.372 108.277 247.1C108.277 247.716 108.767 247.996 109.845 248.22C111.385 248.542 112.113 249.116 112.113 250.138C112.113 251.636 110.853 252.168 109.649 252.168C108.655 252.168 107.661 251.776 107.059 250.894L107.815 250.334C108.151 250.908 108.865 251.356 109.635 251.356C110.447 251.356 111.175 251.062 111.175 250.208C111.175 249.522 110.489 249.242 109.243 248.948C108.473 248.766 107.367 248.43 107.367 247.184C107.367 245.854 108.515 245.28 109.705 245.28C110.615 245.28 111.581 245.714 112.001 246.456ZM114.988 246.526H115.016C115.366 245.77 116.29 245.28 117.214 245.28C118.88 245.28 119.706 246.358 119.706 247.982V252H118.754V248.374C118.754 247.002 118.348 246.078 116.976 246.078C115.968 246.078 114.988 246.89 114.988 248.64V252H114.036V241.416H114.988V246.526ZM122.702 248.22H127.168C127.112 246.988 126.356 246.078 124.998 246.078C123.724 246.078 122.786 247.1 122.702 248.22ZM128.134 248.528C128.134 248.654 128.134 248.808 128.12 248.976H122.688C122.716 250.292 123.738 251.356 125.082 251.356C126.062 251.356 126.818 250.81 127.182 250.222L127.896 250.782C127.126 251.762 126.16 252.168 125.082 252.168C123.136 252.168 121.694 250.698 121.694 248.724C121.694 246.75 123.136 245.28 124.998 245.28C127.056 245.28 128.134 246.736 128.134 248.528ZM135.572 250.894C135.012 251.72 134.032 252.168 133.094 252.168C131.05 252.168 129.706 250.656 129.706 248.724C129.706 246.792 131.05 245.28 133.094 245.28C134.032 245.28 135.012 245.728 135.572 246.582H135.6V241.416H136.552V252H135.6V250.894H135.572ZM130.714 248.724C130.714 250.18 131.61 251.356 133.192 251.356C134.662 251.356 135.712 250.222 135.712 248.724C135.712 247.226 134.662 246.078 133.192 246.078C131.61 246.078 130.714 247.268 130.714 248.724ZM149.106 248.724C149.106 250.698 147.65 252.168 145.606 252.168C143.576 252.168 142.12 250.698 142.12 248.724C142.12 246.75 143.576 245.28 145.606 245.28C147.65 245.28 149.106 246.75 149.106 248.724ZM148.098 248.724C148.098 247.254 147.132 246.078 145.606 246.078C144.094 246.078 143.128 247.254 143.128 248.724C143.128 250.194 144.094 251.356 145.606 251.356C147.132 251.356 148.098 250.194 148.098 248.724ZM151.099 245.448H152.009C152.037 245.798 152.065 246.288 152.065 246.568H152.093C152.457 245.812 153.409 245.28 154.333 245.28C155.999 245.28 156.825 246.358 156.825 247.982V252H155.873V248.374C155.873 247.002 155.467 246.078 154.095 246.078C153.087 246.078 152.107 246.89 152.107 248.64V252H151.155V246.89C151.155 246.54 151.141 245.896 151.099 245.448ZM168.179 242.088V242.984H164.049L163.979 246.05C164.399 245.896 164.903 245.826 165.351 245.826C167.213 245.826 168.571 247.086 168.571 248.934C168.571 250.852 167.241 252.252 165.281 252.252C163.853 252.252 162.859 251.538 162.313 250.446L163.223 250.04C163.573 250.852 164.357 251.384 165.225 251.384C166.569 251.384 167.549 250.376 167.549 249.032C167.549 247.562 166.499 246.652 165.085 246.652C164.371 246.652 163.657 246.862 163.027 247.198L163.125 242.088H168.179ZM173.336 250.236L174.274 249.984C174.428 250.754 175.002 251.37 175.884 251.37C177.27 251.37 177.634 250.264 177.634 249.074V242.088H178.642V249.144C178.642 250.432 178.166 252.252 175.996 252.252C174.568 252.252 173.574 251.412 173.336 250.236ZM186.807 252H185.897C185.869 251.65 185.841 251.16 185.841 250.88H185.813C185.449 251.636 184.497 252.168 183.573 252.168C181.907 252.168 181.081 251.09 181.081 249.466V245.448H182.033V249.074C182.033 250.446 182.439 251.37 183.811 251.37C184.819 251.37 185.799 250.558 185.799 248.808V245.448H186.751V250.558C186.751 250.908 186.765 251.552 186.807 252ZM189.216 245.448H190.126C190.154 245.798 190.182 246.288 190.182 246.568H190.21C190.574 245.812 191.526 245.28 192.45 245.28C194.116 245.28 194.942 246.358 194.942 247.982V252H193.99V248.374C193.99 247.002 193.584 246.078 192.212 246.078C191.204 246.078 190.224 246.89 190.224 248.64V252H189.272V246.89C189.272 246.54 189.258 245.896 189.216 245.448ZM197.938 248.22H202.404C202.348 246.988 201.592 246.078 200.234 246.078C198.96 246.078 198.022 247.1 197.938 248.22ZM203.37 248.528C203.37 248.654 203.37 248.808 203.356 248.976H197.924C197.952 250.292 198.974 251.356 200.318 251.356C201.298 251.356 202.054 250.81 202.418 250.222L203.132 250.782C202.362 251.762 201.396 252.168 200.318 252.168C198.372 252.168 196.93 250.698 196.93 248.724C196.93 246.75 198.372 245.28 200.234 245.28C202.292 245.28 203.37 246.736 203.37 248.528ZM214.714 251.104V252H208.372V250.95L212.432 246.848C213.034 246.232 213.622 245.49 213.622 244.58C213.622 243.432 212.726 242.69 211.662 242.69C210.598 242.69 209.828 243.432 209.618 244.454L208.624 244.258C208.904 242.858 210.108 241.836 211.662 241.836C213.258 241.836 214.644 242.76 214.644 244.566C214.644 245.84 213.902 246.694 213.034 247.562L209.464 251.104H214.714ZM219.839 241.836C222.303 241.836 223.087 244.482 223.087 247.058C223.087 249.634 222.303 252.252 219.839 252.252C217.347 252.252 216.591 249.634 216.591 247.058C216.591 244.482 217.347 241.836 219.839 241.836ZM219.839 242.69C218.075 242.69 217.613 245.084 217.613 247.058C217.613 249.032 218.075 251.384 219.839 251.384C221.575 251.384 222.065 249.032 222.065 247.058C222.065 245.084 221.575 242.69 219.839 242.69ZM230.956 251.104V252H224.614V250.95L228.674 246.848C229.276 246.232 229.864 245.49 229.864 244.58C229.864 243.432 228.968 242.69 227.904 242.69C226.84 242.69 226.07 243.432 225.86 244.454L224.866 244.258C225.146 242.858 226.35 241.836 227.904 241.836C229.5 241.836 230.886 242.76 230.886 244.566C230.886 245.84 230.144 246.694 229.276 247.562L225.706 251.104H230.956ZM236.081 241.836C238.545 241.836 239.329 244.482 239.329 247.058C239.329 249.634 238.545 252.252 236.081 252.252C233.589 252.252 232.833 249.634 232.833 247.058C232.833 244.482 233.589 241.836 236.081 241.836ZM236.081 242.69C234.317 242.69 233.855 245.084 233.855 247.058C233.855 249.032 234.317 251.384 236.081 251.384C237.817 251.384 238.307 249.032 238.307 247.058C238.307 245.084 237.817 242.69 236.081 242.69Z" fill="#717579"/>
<rect x="40.5" y="279.259" width="680.15" height="97.5216" rx="18" fill="white"/>
<rect x="40.5" y="376" width="680.15" height="0.780172" rx="0.390086" fill="#ECECEC"/>
<path d="M605.669 321.159C605.669 324.285 603.223 326.149 600.252 326.149C597.262 326.149 594.835 324.246 594.835 321.237C594.835 319.606 595.456 318.344 596.369 316.985L599.689 312.034H603.63L600.252 316.732L600.194 316.83C600.446 316.732 600.854 316.674 601.164 316.674C603.572 316.674 605.669 318.48 605.669 321.159ZM602.407 321.237C602.407 319.994 601.553 319.082 600.271 319.082C598.99 319.082 598.097 319.975 598.097 321.256C598.097 322.441 598.951 323.431 600.252 323.431C601.533 323.431 602.407 322.538 602.407 321.237ZM617.755 314.636L612.493 325.78H608.707L614.28 314.83H607.775V312.034H617.755V314.636ZM630.365 325.78H620.424V323.062L625.783 318.208C626.463 317.567 626.909 316.927 626.909 316.092C626.909 315.121 626.23 314.441 625.201 314.441C624.113 314.441 623.395 315.296 623.259 316.519L620.133 316.092C620.444 313.315 622.696 311.665 625.375 311.665C627.899 311.665 630.346 313.005 630.346 315.878C630.346 317.839 629.2 318.985 627.938 320.111L624.754 322.946H630.365V325.78ZM639.403 320.48L643.286 325.78H639.345L636.18 321.14H636.122V325.78H632.918V311.102H636.122V320.033H636.18L639.267 316.111H643.131L639.403 320.48Z" fill="#1D1B23"/>
<rect x="505.596" y="320.116" width="5.24901" height="15.7813" rx="2.62451" fill="#09BD3C"/>
<rect x="531.841" y="323.362" width="5.24901" height="21.8372" rx="2.62451" fill="#09BD3C"/>
<rect x="544.964" y="308.902" width="5.24901" height="23.6078" rx="2.62451" fill="#09BD3C"/>
<rect x="518.719" y="316.87" width="5.24901" height="39.8381" rx="2.62451" fill="#09BD3C"/>
<rect x="492.474" y="307.132" width="5.24901" height="33.346" rx="2.62451" fill="#09BD3C"/>
<path d="M595.101 339.158L598.227 347.516H598.254L601.38 339.158H602.426L598.743 348.78H597.71L594.041 339.158H595.101ZM604.39 342.42V348.78H603.466V342.42H604.39ZM604.58 339.973C604.58 340.354 604.254 340.626 603.928 340.626C603.602 340.626 603.276 340.354 603.276 339.973C603.276 339.593 603.602 339.321 603.928 339.321C604.254 339.321 604.58 339.593 604.58 339.973ZM610.941 343.398L610.234 343.928C609.962 343.398 609.378 343.031 608.671 343.031C608.005 343.031 607.326 343.317 607.326 344.023C607.326 344.621 607.801 344.893 608.848 345.111C610.343 345.423 611.05 345.981 611.05 346.973C611.05 348.427 609.826 348.943 608.658 348.943C607.693 348.943 606.728 348.563 606.143 347.707L606.877 347.163C607.203 347.72 607.896 348.155 608.644 348.155C609.432 348.155 610.139 347.87 610.139 347.041C610.139 346.375 609.473 346.103 608.263 345.817C607.516 345.641 606.442 345.315 606.442 344.105C606.442 342.814 607.557 342.257 608.712 342.257C609.595 342.257 610.533 342.678 610.941 343.398ZM613.827 342.42V348.78H612.903V342.42H613.827ZM614.017 339.973C614.017 340.354 613.691 340.626 613.365 340.626C613.038 340.626 612.712 340.354 612.712 339.973C612.712 339.593 613.038 339.321 613.365 339.321C613.691 339.321 614.017 339.593 614.017 339.973ZM619.154 342.42V343.194H617.36V346.905C617.36 347.856 617.755 348.074 618.312 348.074C618.57 348.074 618.869 347.992 619.114 347.87L619.154 348.672C618.828 348.794 618.489 348.862 618.067 348.862C617.388 348.862 616.436 348.563 616.436 347.163V343.194H615.118V342.42H616.436V340.626H617.36V342.42H619.154ZM626.92 345.6C626.92 347.516 625.507 348.943 623.522 348.943C621.552 348.943 620.138 347.516 620.138 345.6C620.138 343.684 621.552 342.257 623.522 342.257C625.507 342.257 626.92 343.684 626.92 345.6ZM625.942 345.6C625.942 344.173 625.004 343.031 623.522 343.031C622.055 343.031 621.117 344.173 621.117 345.6C621.117 347.027 622.055 348.155 623.522 348.155C625.004 348.155 625.942 347.027 625.942 345.6ZM628.909 343.82C628.909 343.48 628.895 342.855 628.855 342.42H629.738C629.765 342.759 629.792 343.235 629.792 343.507H629.82C630.173 342.773 630.961 342.257 631.858 342.257C632.089 342.257 632.28 342.27 632.47 342.325L632.348 343.194C632.239 343.154 631.94 343.113 631.695 343.113C630.717 343.113 629.833 343.82 629.833 345.518V348.78H628.909V343.82ZM637.897 343.398L637.191 343.928C636.919 343.398 636.334 343.031 635.628 343.031C634.962 343.031 634.282 343.317 634.282 344.023C634.282 344.621 634.758 344.893 635.804 345.111C637.299 345.423 638.006 345.981 638.006 346.973C638.006 348.427 636.783 348.943 635.614 348.943C634.649 348.943 633.684 348.563 633.1 347.707L633.834 347.163C634.16 347.72 634.853 348.155 635.601 348.155C636.389 348.155 637.096 347.87 637.096 347.041C637.096 346.375 636.43 346.103 635.22 345.817C634.472 345.641 633.399 345.315 633.399 344.105C633.399 342.814 634.513 342.257 635.669 342.257C636.552 342.257 637.49 342.678 637.897 343.398Z" fill="#717579"/>
<path d="M83.075 313.744V314.832H78.06L77.975 318.555C78.485 318.368 79.097 318.283 79.641 318.283C81.902 318.283 83.551 319.813 83.551 322.057C83.551 324.386 81.936 326.086 79.556 326.086C77.822 326.086 76.615 325.219 75.952 323.893L77.057 323.4C77.482 324.386 78.434 325.032 79.488 325.032C81.12 325.032 82.31 323.808 82.31 322.176C82.31 320.391 81.035 319.286 79.318 319.286C78.451 319.286 77.584 319.541 76.819 319.949L76.938 313.744H83.075ZM89.7913 313.438C92.7833 313.438 93.7353 316.651 93.7353 319.779C93.7353 322.907 92.7833 326.086 89.7913 326.086C86.7653 326.086 85.8473 322.907 85.8473 319.779C85.8473 316.651 86.7653 313.438 89.7913 313.438ZM89.7913 314.475C87.6493 314.475 87.0883 317.382 87.0883 319.779C87.0883 322.176 87.6493 325.032 89.7913 325.032C91.8993 325.032 92.4943 322.176 92.4943 319.779C92.4943 317.382 91.8993 314.475 89.7913 314.475ZM101.353 316.515C101.353 318.181 100.044 319.49 98.3607 319.49C96.6777 319.49 95.3687 318.181 95.3687 316.515C95.3687 314.849 96.6777 313.54 98.3607 313.54C100.044 313.54 101.353 314.849 101.353 316.515ZM100.333 316.515C100.333 315.393 99.4317 314.56 98.3607 314.56C97.2897 314.56 96.3887 315.393 96.3887 316.515C96.3887 317.637 97.2897 318.47 98.3607 318.47C99.4317 318.47 100.333 317.637 100.333 316.515ZM108.238 323.009C108.238 324.675 106.929 325.984 105.246 325.984C103.563 325.984 102.254 324.675 102.254 323.009C102.254 321.343 103.563 320.034 105.246 320.034C106.929 320.034 108.238 321.343 108.238 323.009ZM107.218 323.009C107.218 321.887 106.317 321.054 105.246 321.054C104.175 321.054 103.274 321.887 103.274 323.009C103.274 324.131 104.175 324.964 105.246 324.964C106.317 324.964 107.218 324.131 107.218 323.009ZM106.062 313.676L98.4117 326.307L97.5277 325.848L105.195 313.217L106.062 313.676ZM126.632 319.762C126.632 323.417 123.946 326.086 120.359 326.086C116.772 326.086 114.086 323.417 114.086 319.762C114.086 316.107 116.772 313.438 120.359 313.438C123.946 313.438 126.632 316.107 126.632 319.762ZM125.34 319.762C125.34 316.957 123.453 314.509 120.359 314.509C117.265 314.509 115.378 316.957 115.378 319.762C115.378 322.567 117.265 324.998 120.359 324.998C123.453 324.998 125.34 322.567 125.34 319.762ZM130.399 320.085V325.78H129.175V313.744H136.434V314.832H130.399V319.014H136.009V320.085H130.399ZM139.945 320.085V325.78H138.721V313.744H145.98V314.832H139.945V319.014H145.555V320.085H139.945ZM153.741 320.085V325.78H152.517V313.744H159.776V314.832H153.741V319.014H159.351V320.085H153.741ZM163.185 312.928V325.78H162.029V312.928H163.185ZM174.183 321.802C174.183 324.199 172.415 325.984 169.933 325.984C167.468 325.984 165.7 324.199 165.7 321.802C165.7 319.405 167.468 317.62 169.933 317.62C172.415 317.62 174.183 319.405 174.183 321.802ZM172.959 321.802C172.959 320.017 171.786 318.589 169.933 318.589C168.097 318.589 166.924 320.017 166.924 321.802C166.924 323.587 168.097 324.998 169.933 324.998C171.786 324.998 172.959 323.587 172.959 321.802ZM184.576 321.802C184.576 324.199 182.808 325.984 180.326 325.984C177.861 325.984 176.093 324.199 176.093 321.802C176.093 319.405 177.861 317.62 180.326 317.62C182.808 317.62 184.576 319.405 184.576 321.802ZM183.352 321.802C183.352 320.017 182.179 318.589 180.326 318.589C178.49 318.589 177.317 320.017 177.317 321.802C177.317 323.587 178.49 324.998 180.326 324.998C182.179 324.998 183.352 323.587 183.352 321.802ZM187.063 319.575C187.063 319.15 187.046 318.368 186.995 317.824H188.1C188.134 318.249 188.168 318.844 188.168 319.184H188.202C188.644 318.266 189.63 317.62 190.752 317.62C191.041 317.62 191.279 317.637 191.517 317.705L191.364 318.793C191.228 318.742 190.854 318.691 190.548 318.691C189.324 318.691 188.219 319.575 188.219 321.7V325.78H187.063V319.575ZM198.731 313.744V324.692H204.341V325.78H197.507V313.744H198.731ZM211.12 320.901V320.646C211.12 319.269 210.372 318.589 208.995 318.589C208.06 318.589 207.193 318.963 206.632 319.524L205.986 318.759C206.632 318.113 207.754 317.62 209.114 317.62C210.831 317.62 212.208 318.572 212.208 320.51V323.995C212.208 324.607 212.259 325.338 212.344 325.78H211.307C211.239 325.389 211.188 324.913 211.188 324.488H211.154C210.423 325.542 209.539 325.984 208.264 325.984C207.057 325.984 205.51 325.338 205.51 323.57C205.51 321.122 208.213 320.901 211.12 320.901ZM211.12 321.802H210.78C208.893 321.802 206.7 322.006 206.7 323.519C206.7 324.658 207.669 325.032 208.57 325.032C210.202 325.032 211.12 323.808 211.12 322.397V321.802ZM216.325 319.184C216.784 318.266 217.804 317.62 218.943 317.62C219.81 317.62 220.864 317.943 221.391 319.303C221.935 318.215 222.904 317.62 224.179 317.62C226.202 317.62 227.205 318.929 227.205 320.901V325.78H226.049V321.377C226.049 319.711 225.488 318.589 223.992 318.589C222.326 318.589 221.731 320.068 221.731 321.547V325.78H220.575V321.139C220.575 319.592 220.201 318.589 218.654 318.589C217.549 318.589 216.342 319.575 216.342 321.7V325.78H215.186V319.575C215.186 319.15 215.169 318.368 215.118 317.824H216.223C216.257 318.249 216.291 318.844 216.291 319.184H216.325ZM231.35 324.437V329.86H230.194V317.824H231.35V319.201H231.401C232.064 318.164 233.254 317.62 234.393 317.62C236.875 317.62 238.507 319.456 238.507 321.802C238.507 324.148 236.875 325.984 234.393 325.984C233.254 325.984 232.064 325.423 231.401 324.437H231.35ZM237.283 321.802C237.283 320.034 236.195 318.589 234.274 318.589C232.489 318.589 231.214 319.983 231.214 321.802C231.214 323.621 232.489 324.998 234.274 324.998C236.195 324.998 237.283 323.57 237.283 321.802ZM255.282 315.053L254.432 315.903C253.599 315.019 252.443 314.509 250.947 314.509C247.853 314.509 245.949 316.957 245.949 319.762C245.949 322.567 247.853 324.998 250.947 324.998C252.307 324.998 253.497 324.675 254.194 324.216V320.561H251.389V319.49H255.418V324.913C254.109 325.695 252.562 326.086 250.93 326.086C247.292 326.086 244.657 323.417 244.657 319.762C244.657 316.107 247.343 313.438 250.93 313.438C252.834 313.438 254.262 314.05 255.282 315.053ZM259.129 321.19H264.552C264.484 319.694 263.566 318.589 261.917 318.589C260.37 318.589 259.231 319.83 259.129 321.19ZM265.725 321.564C265.725 321.717 265.725 321.904 265.708 322.108H259.112C259.146 323.706 260.387 324.998 262.019 324.998C263.209 324.998 264.127 324.335 264.569 323.621L265.436 324.301C264.501 325.491 263.328 325.984 262.019 325.984C259.656 325.984 257.905 324.199 257.905 321.802C257.905 319.405 259.656 317.62 261.917 317.62C264.416 317.62 265.725 319.388 265.725 321.564ZM271.799 317.824V318.793H269.555V323.434C269.555 324.624 270.048 324.896 270.745 324.896C271.068 324.896 271.442 324.794 271.748 324.641L271.799 325.644C271.391 325.797 270.966 325.882 270.439 325.882C269.589 325.882 268.399 325.508 268.399 323.757V318.793H266.75V317.824H268.399V315.58H269.555V317.824H271.799ZM279.03 317.824V325.78H277.874V317.824H279.03ZM279.268 314.764C279.268 315.24 278.86 315.58 278.452 315.58C278.044 315.58 277.636 315.24 277.636 314.764C277.636 314.288 278.044 313.948 278.452 313.948C278.86 313.948 279.268 314.288 279.268 314.764ZM285.694 317.824V318.793H283.45V323.434C283.45 324.624 283.943 324.896 284.64 324.896C284.963 324.896 285.337 324.794 285.643 324.641L285.694 325.644C285.286 325.797 284.861 325.882 284.334 325.882C283.484 325.882 282.294 325.508 282.294 323.757V318.793H280.645V317.824H282.294V315.58H283.45V317.824H285.694ZM293.351 313.744L300.355 323.995H300.389V313.744H301.613V325.78H300.083L293.079 315.427H293.045V325.78H291.821V313.744H293.351ZM312.64 321.802C312.64 324.199 310.872 325.984 308.39 325.984C305.925 325.984 304.157 324.199 304.157 321.802C304.157 319.405 305.925 317.62 308.39 317.62C310.872 317.62 312.64 319.405 312.64 321.802ZM311.416 321.802C311.416 320.017 310.243 318.589 308.39 318.589C306.554 318.589 305.381 320.017 305.381 321.802C305.381 323.587 306.554 324.998 308.39 324.998C310.243 324.998 311.416 323.587 311.416 321.802ZM314.04 317.824H315.281L317.202 324.284H317.236L319.378 317.824H320.5L322.676 324.284H322.71L324.614 317.824H325.838L323.322 325.78H322.064L319.939 319.337H319.905L317.814 325.78H316.556L314.04 317.824ZM329.681 313.744V322.516H328.457V313.744H329.681ZM329.987 324.964C329.987 325.44 329.613 325.882 329.069 325.882C328.525 325.882 328.151 325.44 328.151 324.964C328.151 324.488 328.525 324.046 329.069 324.046C329.613 324.046 329.987 324.488 329.987 324.964Z" fill="#1D1B23"/>
<path d="M76.316 349.78V339.868H79.116C81.132 339.868 82.462 340.736 82.462 342.514C82.462 344.292 81.104 345.174 79.088 345.174H77.324V349.78H76.316ZM77.324 340.736V344.32H79.032C80.6 344.32 81.454 343.69 81.454 342.514C81.454 341.296 80.558 340.736 79.032 340.736H77.324ZM89.3812 349.78H88.4712C88.4432 349.43 88.4152 348.94 88.4152 348.66H88.3872C88.0232 349.416 87.0712 349.948 86.1472 349.948C84.4812 349.948 83.6552 348.87 83.6552 347.246V343.228H84.6072V346.854C84.6072 348.226 85.0132 349.15 86.3852 349.15C87.3932 349.15 88.3732 348.338 88.3732 346.588V343.228H89.3252V348.338C89.3252 348.688 89.3392 349.332 89.3812 349.78ZM92.8539 348.674H92.8259V349.78H91.8739V339.196H92.8259V344.362H92.8539C93.4139 343.508 94.3939 343.06 95.3319 343.06C97.3759 343.06 98.7199 344.572 98.7199 346.504C98.7199 348.436 97.3759 349.948 95.3319 349.948C94.3939 349.948 93.4139 349.5 92.8539 348.674ZM97.7119 346.504C97.7119 345.048 96.8159 343.858 95.2339 343.858C93.7639 343.858 92.7139 345.006 92.7139 346.504C92.7139 348.002 93.7639 349.136 95.2339 349.136C96.8159 349.136 97.7119 347.96 97.7119 346.504ZM101.74 339.196V349.78H100.788V339.196H101.74ZM105.253 343.228V349.78H104.301V343.228H105.253ZM105.449 340.708C105.449 341.1 105.113 341.38 104.777 341.38C104.441 341.38 104.105 341.1 104.105 340.708C104.105 340.316 104.441 340.036 104.777 340.036C105.113 340.036 105.449 340.316 105.449 340.708ZM112.001 344.236L111.273 344.782C110.993 344.236 110.391 343.858 109.663 343.858C108.977 343.858 108.277 344.152 108.277 344.88C108.277 345.496 108.767 345.776 109.845 346C111.385 346.322 112.113 346.896 112.113 347.918C112.113 349.416 110.853 349.948 109.649 349.948C108.655 349.948 107.661 349.556 107.059 348.674L107.815 348.114C108.151 348.688 108.865 349.136 109.635 349.136C110.447 349.136 111.175 348.842 111.175 347.988C111.175 347.302 110.489 347.022 109.243 346.728C108.473 346.546 107.367 346.21 107.367 344.964C107.367 343.634 108.515 343.06 109.705 343.06C110.615 343.06 111.581 343.494 112.001 344.236ZM114.988 344.306H115.016C115.366 343.55 116.29 343.06 117.214 343.06C118.88 343.06 119.706 344.138 119.706 345.762V349.78H118.754V346.154C118.754 344.782 118.348 343.858 116.976 343.858C115.968 343.858 114.988 344.67 114.988 346.42V349.78H114.036V339.196H114.988V344.306ZM122.702 346H127.168C127.112 344.768 126.356 343.858 124.998 343.858C123.724 343.858 122.786 344.88 122.702 346ZM128.134 346.308C128.134 346.434 128.134 346.588 128.12 346.756H122.688C122.716 348.072 123.738 349.136 125.082 349.136C126.062 349.136 126.818 348.59 127.182 348.002L127.896 348.562C127.126 349.542 126.16 349.948 125.082 349.948C123.136 349.948 121.694 348.478 121.694 346.504C121.694 344.53 123.136 343.06 124.998 343.06C127.056 343.06 128.134 344.516 128.134 346.308ZM135.572 348.674C135.012 349.5 134.032 349.948 133.094 349.948C131.05 349.948 129.706 348.436 129.706 346.504C129.706 344.572 131.05 343.06 133.094 343.06C134.032 343.06 135.012 343.508 135.572 344.362H135.6V339.196H136.552V349.78H135.6V348.674H135.572ZM130.714 346.504C130.714 347.96 131.61 349.136 133.192 349.136C134.662 349.136 135.712 348.002 135.712 346.504C135.712 345.006 134.662 343.858 133.192 343.858C131.61 343.858 130.714 345.048 130.714 346.504ZM149.106 346.504C149.106 348.478 147.65 349.948 145.606 349.948C143.576 349.948 142.12 348.478 142.12 346.504C142.12 344.53 143.576 343.06 145.606 343.06C147.65 343.06 149.106 344.53 149.106 346.504ZM148.098 346.504C148.098 345.034 147.132 343.858 145.606 343.858C144.094 343.858 143.128 345.034 143.128 346.504C143.128 347.974 144.094 349.136 145.606 349.136C147.132 349.136 148.098 347.974 148.098 346.504ZM151.099 343.228H152.009C152.037 343.578 152.065 344.068 152.065 344.348H152.093C152.457 343.592 153.409 343.06 154.333 343.06C155.999 343.06 156.825 344.138 156.825 345.762V349.78H155.873V346.154C155.873 344.782 155.467 343.858 154.095 343.858C153.087 343.858 152.107 344.67 152.107 346.42V349.78H151.155V344.67C151.155 344.32 151.141 343.676 151.099 343.228ZM168.179 339.868V340.764H164.049L163.979 343.83C164.399 343.676 164.903 343.606 165.351 343.606C167.213 343.606 168.571 344.866 168.571 346.714C168.571 348.632 167.241 350.032 165.281 350.032C163.853 350.032 162.859 349.318 162.313 348.226L163.223 347.82C163.573 348.632 164.357 349.164 165.225 349.164C166.569 349.164 167.549 348.156 167.549 346.812C167.549 345.342 166.499 344.432 165.085 344.432C164.371 344.432 163.657 344.642 163.027 344.978L163.125 339.868H168.179ZM173.336 348.016L174.274 347.764C174.428 348.534 175.002 349.15 175.884 349.15C177.27 349.15 177.634 348.044 177.634 346.854V339.868H178.642V346.924C178.642 348.212 178.166 350.032 175.996 350.032C174.568 350.032 173.574 349.192 173.336 348.016ZM186.807 349.78H185.897C185.869 349.43 185.841 348.94 185.841 348.66H185.813C185.449 349.416 184.497 349.948 183.573 349.948C181.907 349.948 181.081 348.87 181.081 347.246V343.228H182.033V346.854C182.033 348.226 182.439 349.15 183.811 349.15C184.819 349.15 185.799 348.338 185.799 346.588V343.228H186.751V348.338C186.751 348.688 186.765 349.332 186.807 349.78ZM189.216 343.228H190.126C190.154 343.578 190.182 344.068 190.182 344.348H190.21C190.574 343.592 191.526 343.06 192.45 343.06C194.116 343.06 194.942 344.138 194.942 345.762V349.78H193.99V346.154C193.99 344.782 193.584 343.858 192.212 343.858C191.204 343.858 190.224 344.67 190.224 346.42V349.78H189.272V344.67C189.272 344.32 189.258 343.676 189.216 343.228ZM197.938 346H202.404C202.348 344.768 201.592 343.858 200.234 343.858C198.96 343.858 198.022 344.88 197.938 346ZM203.37 346.308C203.37 346.434 203.37 346.588 203.356 346.756H197.924C197.952 348.072 198.974 349.136 200.318 349.136C201.298 349.136 202.054 348.59 202.418 348.002L203.132 348.562C202.362 349.542 201.396 349.948 200.318 349.948C198.372 349.948 196.93 348.478 196.93 346.504C196.93 344.53 198.372 343.06 200.234 343.06C202.292 343.06 203.37 344.516 203.37 346.308ZM214.714 348.884V349.78H208.372V348.73L212.432 344.628C213.034 344.012 213.622 343.27 213.622 342.36C213.622 341.212 212.726 340.47 211.662 340.47C210.598 340.47 209.828 341.212 209.618 342.234L208.624 342.038C208.904 340.638 210.108 339.616 211.662 339.616C213.258 339.616 214.644 340.54 214.644 342.346C214.644 343.62 213.902 344.474 213.034 345.342L209.464 348.884H214.714ZM219.839 339.616C222.303 339.616 223.087 342.262 223.087 344.838C223.087 347.414 222.303 350.032 219.839 350.032C217.347 350.032 216.591 347.414 216.591 344.838C216.591 342.262 217.347 339.616 219.839 339.616ZM219.839 340.47C218.075 340.47 217.613 342.864 217.613 344.838C217.613 346.812 218.075 349.164 219.839 349.164C221.575 349.164 222.065 346.812 222.065 344.838C222.065 342.864 221.575 340.47 219.839 340.47ZM230.956 348.884V349.78H224.614V348.73L228.674 344.628C229.276 344.012 229.864 343.27 229.864 342.36C229.864 341.212 228.968 340.47 227.904 340.47C226.84 340.47 226.07 341.212 225.86 342.234L224.866 342.038C225.146 340.638 226.35 339.616 227.904 339.616C229.5 339.616 230.886 340.54 230.886 342.346C230.886 343.62 230.144 344.474 229.276 345.342L225.706 348.884H230.956ZM236.081 339.616C238.545 339.616 239.329 342.262 239.329 344.838C239.329 347.414 238.545 350.032 236.081 350.032C233.589 350.032 232.833 347.414 232.833 344.838C232.833 342.262 233.589 339.616 236.081 339.616ZM236.081 340.47C234.317 340.47 233.855 342.864 233.855 344.838C233.855 346.812 234.317 349.164 236.081 349.164C237.817 349.164 238.307 346.812 238.307 344.838C238.307 342.864 237.817 340.47 236.081 340.47Z" fill="#717579"/>
<path d="M66.778 64.408V76H65.482V64.408H61.216V63.256H71.044V64.408H66.778ZM79.533 71.788C79.533 74.326 77.661 76.216 75.033 76.216C72.423 76.216 70.551 74.326 70.551 71.788C70.551 69.25 72.423 67.36 75.033 67.36C77.661 67.36 79.533 69.25 79.533 71.788ZM78.237 71.788C78.237 69.898 76.995 68.386 75.033 68.386C73.089 68.386 71.847 69.898 71.847 71.788C71.847 73.678 73.089 75.172 75.033 75.172C76.995 75.172 78.237 73.678 78.237 71.788ZM83.3909 74.578V80.32H82.1669V67.576H83.3909V69.034H83.4449C84.1469 67.936 85.4069 67.36 86.6129 67.36C89.2409 67.36 90.9689 69.304 90.9689 71.788C90.9689 74.272 89.2409 76.216 86.6129 76.216C85.4069 76.216 84.1469 75.622 83.4449 74.578H83.3909ZM89.6729 71.788C89.6729 69.916 88.5209 68.386 86.4869 68.386C84.5969 68.386 83.2469 69.862 83.2469 71.788C83.2469 73.714 84.5969 75.172 86.4869 75.172C88.5209 75.172 89.6729 73.66 89.6729 71.788ZM99.3167 74.578V80.32H98.0927V67.576H99.3167V69.034H99.3707C100.073 67.936 101.333 67.36 102.539 67.36C105.167 67.36 106.895 69.304 106.895 71.788C106.895 74.272 105.167 76.216 102.539 76.216C101.333 76.216 100.073 75.622 99.3707 74.578H99.3167ZM105.599 71.788C105.599 69.916 104.447 68.386 102.413 68.386C100.523 68.386 99.1727 69.862 99.1727 71.788C99.1727 73.714 100.523 75.172 102.413 75.172C104.447 75.172 105.599 73.66 105.599 71.788ZM117.888 71.788C117.888 74.326 116.016 76.216 113.388 76.216C110.778 76.216 108.906 74.326 108.906 71.788C108.906 69.25 110.778 67.36 113.388 67.36C116.016 67.36 117.888 69.25 117.888 71.788ZM116.592 71.788C116.592 69.898 115.35 68.386 113.388 68.386C111.444 68.386 110.202 69.898 110.202 71.788C110.202 73.678 111.444 75.172 113.388 75.172C115.35 75.172 116.592 73.678 116.592 71.788ZM125.94 68.872L125.004 69.574C124.644 68.872 123.87 68.386 122.934 68.386C122.052 68.386 121.152 68.764 121.152 69.7C121.152 70.492 121.782 70.852 123.168 71.14C125.148 71.554 126.084 72.292 126.084 73.606C126.084 75.532 124.464 76.216 122.916 76.216C121.638 76.216 120.36 75.712 119.586 74.578L120.558 73.858C120.99 74.596 121.908 75.172 122.898 75.172C123.942 75.172 124.878 74.794 124.878 73.696C124.878 72.814 123.996 72.454 122.394 72.076C121.404 71.842 119.982 71.41 119.982 69.808C119.982 68.098 121.458 67.36 122.988 67.36C124.158 67.36 125.4 67.918 125.94 68.872ZM132.318 67.576V68.602H129.942V73.516C129.942 74.776 130.464 75.064 131.202 75.064C131.544 75.064 131.94 74.956 132.264 74.794L132.318 75.856C131.886 76.018 131.436 76.108 130.878 76.108C129.978 76.108 128.718 75.712 128.718 73.858V68.602H126.972V67.576H128.718V65.2H129.942V67.576H132.318ZM139.651 68.872L138.715 69.574C138.355 68.872 137.581 68.386 136.645 68.386C135.763 68.386 134.863 68.764 134.863 69.7C134.863 70.492 135.493 70.852 136.879 71.14C138.859 71.554 139.795 72.292 139.795 73.606C139.795 75.532 138.175 76.216 136.627 76.216C135.349 76.216 134.071 75.712 133.297 74.578L134.269 73.858C134.701 74.596 135.619 75.172 136.609 75.172C137.653 75.172 138.589 74.794 138.589 73.696C138.589 72.814 137.707 72.454 136.105 72.076C135.115 71.842 133.693 71.41 133.693 69.808C133.693 68.098 135.169 67.36 136.699 67.36C137.869 67.36 139.111 67.918 139.651 68.872Z" fill="black"/>
</g>
<defs>
<filter id="filter0_d_823_915" x="0.5" y="0" width="763" height="442" filterUnits="userSpaceOnUse" color-interpolation-filters="sRGB">
<feFlood flood-opacity="0" result="BackgroundImageFix"/>
<feColorMatrix in="SourceAlpha" type="matrix" values="0 0 0 0 0 0 0 0 0 0 0 0 0 0 0 0 0 0 127 0" result="hardAlpha"/>
<feOffset dy="5"/>
<feGaussianBlur stdDeviation="20"/>
<feComposite in2="hardAlpha" operator="out"/>
<feColorMatrix type="matrix" values="0 0 0 0 0 0 0 0 0 0.105882 0 0 0 0 0.419608 0 0 0 0.08 0"/>
<feBlend mode="normal" in2="BackgroundImageFix" result="effect1_dropShadow_823_915"/>
<feBlend mode="normal" in="SourceGraphic" in2="effect1_dropShadow_823_915" result="shape"/>
</filter>
<filter id="filter1_d_823_915" x="34.6752" y="33.0584" width="694.65" height="373.65" filterUnits="userSpaceOnUse" color-interpolation-filters="sRGB">
<feFlood flood-opacity="0" result="BackgroundImageFix"/>
<feColorMatrix in="SourceAlpha" type="matrix" values="0 0 0 0 0 0 0 0 0 0 0 0 0 0 0 0 0 0 127 0" result="hardAlpha"/>
<feOffset dy="3.88317"/>
<feGaussianBlur stdDeviation="2.91238"/>
<feColorMatrix type="matrix" values="0 0 0 0 0.243137 0 0 0 0 0.286275 0 0 0 0 0.329412 0 0 0 0.04 0"/>
<feBlend mode="normal" in2="BackgroundImageFix" result="effect1_dropShadow_823_915"/>
<feBlend mode="normal" in="SourceGraphic" in2="effect1_dropShadow_823_915" result="shape"/>
</filter>
</defs>
</svg>
