<svg width="420" height="442" viewBox="0 0 420 442" fill="none" xmlns="http://www.w3.org/2000/svg">
<g filter="url(#filter0_d_823_985)">
<g clip-path="url(#clip0_823_985)">
<rect x="40.5" y="35" width="339" height="362" rx="18" fill="white"/>
<path d="M68.1264 77.3L69.1344 77.948C68.2884 79.226 66.6504 80.324 64.3644 80.324C60.5124 80.324 57.7224 77.498 57.7224 73.628C57.7224 69.758 60.5664 66.932 64.3644 66.932C66.2364 66.932 68.0184 67.706 68.9004 68.948L67.8204 69.74C67.2804 68.912 66.0024 68.066 64.3824 68.066C61.0884 68.066 59.0904 70.658 59.0904 73.628C59.0904 76.598 61.1064 79.19 64.3824 79.19C65.8404 79.19 67.2444 78.614 68.1264 77.3ZM78.5794 80H77.4094C77.3734 79.55 77.3374 78.92 77.3374 78.56H77.3014C76.8334 79.532 75.6094 80.216 74.4214 80.216C72.2794 80.216 71.2174 78.83 71.2174 76.742V71.576H72.4414V76.238C72.4414 78.002 72.9634 79.19 74.7274 79.19C76.0234 79.19 77.2834 78.146 77.2834 75.896V71.576H78.5074V78.146C78.5074 78.596 78.5254 79.424 78.5794 80ZM87.1664 72.872L86.2304 73.574C85.8704 72.872 85.0964 72.386 84.1604 72.386C83.2784 72.386 82.3784 72.764 82.3784 73.7C82.3784 74.492 83.0084 74.852 84.3944 75.14C86.3744 75.554 87.3104 76.292 87.3104 77.606C87.3104 79.532 85.6904 80.216 84.1424 80.216C82.8644 80.216 81.5864 79.712 80.8124 78.578L81.7844 77.858C82.2164 78.596 83.1344 79.172 84.1244 79.172C85.1684 79.172 86.1044 78.794 86.1044 77.696C86.1044 76.814 85.2224 76.454 83.6204 76.076C82.6304 75.842 81.2084 75.41 81.2084 73.808C81.2084 72.098 82.6844 71.36 84.2144 71.36C85.3844 71.36 86.6264 71.918 87.1664 72.872ZM93.5445 71.576V72.602H91.1685V77.516C91.1685 78.776 91.6905 79.064 92.4285 79.064C92.7705 79.064 93.1665 78.956 93.4905 78.794L93.5445 79.856C93.1125 80.018 92.6625 80.108 92.1045 80.108C91.2045 80.108 89.9445 79.712 89.9445 77.858V72.602H88.1985V71.576H89.9445V69.2H91.1685V71.576H93.5445ZM103.829 75.788C103.829 78.326 101.957 80.216 99.3294 80.216C96.7194 80.216 94.8474 78.326 94.8474 75.788C94.8474 73.25 96.7194 71.36 99.3294 71.36C101.957 71.36 103.829 73.25 103.829 75.788ZM102.533 75.788C102.533 73.898 101.291 72.386 99.3294 72.386C97.3854 72.386 96.1434 73.898 96.1434 75.788C96.1434 77.678 97.3854 79.172 99.3294 79.172C101.291 79.172 102.533 77.678 102.533 75.788ZM107.669 73.016C108.155 72.044 109.235 71.36 110.441 71.36C111.359 71.36 112.475 71.702 113.033 73.142C113.609 71.99 114.635 71.36 115.985 71.36C118.127 71.36 119.189 72.746 119.189 74.834V80H117.965V75.338C117.965 73.574 117.371 72.386 115.787 72.386C114.023 72.386 113.393 73.952 113.393 75.518V80H112.169V75.086C112.169 73.448 111.773 72.386 110.135 72.386C108.965 72.386 107.687 73.43 107.687 75.68V80H106.463V73.43C106.463 72.98 106.445 72.152 106.391 71.576H107.561C107.597 72.026 107.633 72.656 107.633 73.016H107.669ZM123.596 71.576V80H122.372V71.576H123.596ZM123.848 68.336C123.848 68.84 123.416 69.2 122.984 69.2C122.552 69.2 122.12 68.84 122.12 68.336C122.12 67.832 122.552 67.472 122.984 67.472C123.416 67.472 123.848 67.832 123.848 68.336ZM132.452 71.576V72.44L127.412 78.938H132.632V80H125.792V79.136L130.814 72.602H126.044V71.576H132.452ZM135.501 75.14H141.243C141.171 73.556 140.199 72.386 138.453 72.386C136.815 72.386 135.609 73.7 135.501 75.14ZM142.485 75.536C142.485 75.698 142.485 75.896 142.467 76.112H135.483C135.519 77.804 136.833 79.172 138.561 79.172C139.821 79.172 140.793 78.47 141.261 77.714L142.179 78.434C141.189 79.694 139.947 80.216 138.561 80.216C136.059 80.216 134.205 78.326 134.205 75.788C134.205 73.25 136.059 71.36 138.453 71.36C141.099 71.36 142.485 73.232 142.485 75.536ZM149.407 67.256L152.557 78.218H152.593L155.779 67.256H157.327L160.513 78.218H160.549L163.663 67.256H165.031L161.269 80H159.757L156.553 69.056H156.517L153.313 80H151.801L148.039 67.256H149.407ZM168.139 71.576V80H166.915V71.576H168.139ZM168.391 68.336C168.391 68.84 167.959 69.2 167.527 69.2C167.095 69.2 166.663 68.84 166.663 68.336C166.663 67.832 167.095 67.472 167.527 67.472C167.959 67.472 168.391 67.832 168.391 68.336ZM178.327 78.578C177.607 79.64 176.347 80.216 175.141 80.216C172.513 80.216 170.785 78.272 170.785 75.788C170.785 73.304 172.513 71.36 175.141 71.36C176.347 71.36 177.607 71.936 178.327 73.034H178.363V66.392H179.587V80H178.363V78.578H178.327ZM172.081 75.788C172.081 77.66 173.233 79.172 175.267 79.172C177.157 79.172 178.507 77.714 178.507 75.788C178.507 73.862 177.157 72.386 175.267 72.386C173.233 72.386 172.081 73.916 172.081 75.788ZM182.426 82.628L183.308 81.692C183.974 82.556 185.252 83.24 186.53 83.24C188.942 83.24 189.824 81.746 189.824 79.928V78.344H189.788C189.14 79.388 187.826 80 186.602 80C183.974 80 182.246 78.182 182.246 75.716C182.246 73.322 183.974 71.36 186.602 71.36C187.826 71.36 189.122 71.954 189.788 73.034H189.824V71.576H191.048V79.928C191.048 81.764 190.202 84.32 186.476 84.32C184.928 84.32 183.416 83.672 182.426 82.628ZM183.542 75.68C183.542 77.444 184.694 78.956 186.728 78.956C188.618 78.956 189.968 77.624 189.968 75.68C189.968 73.916 188.618 72.386 186.728 72.386C184.694 72.386 183.542 73.916 183.542 75.68ZM194.915 75.14H200.657C200.585 73.556 199.613 72.386 197.867 72.386C196.229 72.386 195.023 73.7 194.915 75.14ZM201.899 75.536C201.899 75.698 201.899 75.896 201.881 76.112H194.897C194.933 77.804 196.247 79.172 197.975 79.172C199.235 79.172 200.207 78.47 200.675 77.714L201.593 78.434C200.603 79.694 199.361 80.216 197.975 80.216C195.473 80.216 193.619 78.326 193.619 75.788C193.619 73.25 195.473 71.36 197.867 71.36C200.513 71.36 201.899 73.232 201.899 75.536ZM208.33 71.576V72.602H205.954V77.516C205.954 78.776 206.476 79.064 207.214 79.064C207.556 79.064 207.952 78.956 208.276 78.794L208.33 79.856C207.898 80.018 207.448 80.108 206.89 80.108C205.99 80.108 204.73 79.712 204.73 77.858V72.602H202.984V71.576H204.73V69.2H205.954V71.576H208.33ZM215.663 72.872L214.727 73.574C214.367 72.872 213.593 72.386 212.657 72.386C211.775 72.386 210.875 72.764 210.875 73.7C210.875 74.492 211.505 74.852 212.891 75.14C214.871 75.554 215.807 76.292 215.807 77.606C215.807 79.532 214.187 80.216 212.639 80.216C211.361 80.216 210.083 79.712 209.309 78.578L210.281 77.858C210.713 78.596 211.631 79.172 212.621 79.172C213.665 79.172 214.601 78.794 214.601 77.696C214.601 76.814 213.719 76.454 212.117 76.076C211.127 75.842 209.705 75.41 209.705 73.808C209.705 72.098 211.181 71.36 212.711 71.36C213.881 71.36 215.123 71.918 215.663 72.872Z" fill="black"/>
<rect x="61" y="97" width="127" height="150" rx="10" fill="#F5F4F4"/>
<rect x="61" y="257" width="95" height="115" rx="10" fill="#F5F4F4"/>
<rect x="165" y="257" width="95" height="115" rx="10" fill="#F5F4F4"/>
<rect x="270" y="257" width="95" height="115" rx="10" fill="#F5F4F4"/>
<rect x="199" y="97" width="166" height="150" rx="10" fill="#F5F4F4"/>
</g>
</g>
<defs>
<filter id="filter0_d_823_985" x="0.5" y="0" width="419" height="442" filterUnits="userSpaceOnUse" color-interpolation-filters="sRGB">
<feFlood flood-opacity="0" result="BackgroundImageFix"/>
<feColorMatrix in="SourceAlpha" type="matrix" values="0 0 0 0 0 0 0 0 0 0 0 0 0 0 0 0 0 0 127 0" result="hardAlpha"/>
<feOffset dy="5"/>
<feGaussianBlur stdDeviation="20"/>
<feComposite in2="hardAlpha" operator="out"/>
<feColorMatrix type="matrix" values="0 0 0 0 0 0 0 0 0 0.105882 0 0 0 0 0.419608 0 0 0 0.08 0"/>
<feBlend mode="normal" in2="BackgroundImageFix" result="effect1_dropShadow_823_985"/>
<feBlend mode="normal" in="SourceGraphic" in2="effect1_dropShadow_823_985" result="shape"/>
</filter>
<clipPath id="clip0_823_985">
<rect x="40.5" y="35" width="339" height="362" rx="18" fill="white"/>
</clipPath>
</defs>
</svg>
