<svg width="667" height="361" viewBox="0 0 667 361" fill="none" xmlns="http://www.w3.org/2000/svg">
<g filter="url(#filter0_d_1006_3403)">
<g clip-path="url(#clip0_1006_3403)">
<rect x="37.7695" y="-20.3896" width="645.361" height="344.692" rx="15.7029" fill="white"/>
<g clip-path="url(#clip1_1006_3403)">
<path d="M144.037 290.241C142.733 290.241 141.778 289.747 141.16 289.05L141.71 288.342C142.205 288.893 143.014 289.41 144.071 289.41C145.408 289.41 145.835 288.69 145.835 288.117C145.835 286.184 141.396 287.251 141.396 284.576C141.396 283.34 142.497 282.497 143.97 282.497C145.116 282.497 146.004 282.879 146.633 283.542L146.071 284.228C145.509 283.61 144.723 283.329 143.902 283.329C143.003 283.329 142.362 283.812 142.362 284.52C142.362 286.206 146.802 285.24 146.802 288.038C146.802 289.129 146.06 290.241 144.037 290.241ZM150.836 290.241C150.095 290.241 149.443 289.893 149.004 289.286V292.175H148.161V284.678H149.004V285.487C149.398 284.936 150.072 284.543 150.836 284.543C152.264 284.543 153.253 285.622 153.253 287.386C153.253 289.14 152.264 290.241 150.836 290.241ZM150.623 289.488C151.713 289.488 152.365 288.589 152.365 287.386C152.365 286.184 151.713 285.296 150.623 285.296C149.96 285.296 149.297 285.689 149.004 286.161V288.612C149.297 289.084 149.96 289.488 150.623 289.488ZM155.437 290.106H154.594V284.678H155.437V285.554C155.875 284.981 156.504 284.565 157.246 284.565V285.431C157.145 285.408 157.044 285.397 156.909 285.397C156.392 285.397 155.684 285.824 155.437 286.262V290.106ZM158.72 283.902C158.416 283.902 158.158 283.655 158.158 283.34C158.158 283.025 158.416 282.767 158.72 282.767C159.034 282.767 159.293 283.025 159.293 283.34C159.293 283.655 159.034 283.902 158.72 283.902ZM159.147 290.106H158.304V284.678H159.147V290.106ZM165.335 290.106H164.492V286.555C164.492 285.599 164.009 285.296 163.279 285.296C162.615 285.296 161.986 285.7 161.671 286.139V290.106H160.828V284.678H161.671V285.464C162.053 285.015 162.795 284.543 163.604 284.543C164.74 284.543 165.335 285.116 165.335 286.296V290.106ZM169.2 292.309C168.278 292.309 167.648 292.13 167.008 291.5L167.435 290.871C167.884 291.41 168.424 291.613 169.2 291.613C170.099 291.613 170.942 291.174 170.942 289.983V289.207C170.548 289.758 169.885 290.174 169.121 290.174C167.705 290.174 166.704 289.117 166.704 287.364C166.704 285.622 167.693 284.543 169.121 284.543C169.851 284.543 170.503 284.902 170.942 285.498V284.678H171.785V289.949C171.785 291.747 170.526 292.309 169.2 292.309ZM169.323 289.432C169.998 289.432 170.649 289.016 170.942 288.544V286.172C170.649 285.7 169.998 285.296 169.323 285.296C168.233 285.296 167.581 286.161 167.581 287.364C167.581 288.555 168.233 289.432 169.323 289.432ZM178.091 290.241C177.203 290.241 176.45 289.972 175.899 289.387L176.337 288.78C176.697 289.196 177.383 289.556 178.124 289.556C178.956 289.556 179.406 289.162 179.406 288.623C179.406 287.308 176.045 288.117 176.045 286.105C176.045 285.262 176.776 284.543 178.068 284.543C178.99 284.543 179.642 284.891 180.08 285.329L179.687 285.914C179.361 285.521 178.765 285.228 178.068 285.228C177.326 285.228 176.866 285.599 176.866 286.083C176.866 287.274 180.226 286.487 180.226 288.6C180.226 289.511 179.496 290.241 178.091 290.241ZM185.833 290.106H184.99V289.488C184.541 289.983 183.922 290.241 183.192 290.241C182.27 290.241 181.292 289.623 181.292 288.443C181.292 287.229 182.27 286.656 183.192 286.656C183.934 286.656 184.552 286.892 184.99 287.398V286.42C184.99 285.689 184.406 285.273 183.619 285.273C182.967 285.273 182.439 285.509 181.955 286.026L181.562 285.442C182.147 284.835 182.843 284.543 183.731 284.543C184.878 284.543 185.833 285.06 185.833 286.375V290.106ZM183.495 289.634C184.091 289.634 184.664 289.41 184.99 288.96V287.937C184.664 287.488 184.091 287.263 183.495 287.263C182.709 287.263 182.158 287.757 182.158 288.454C182.158 289.14 182.709 289.634 183.495 289.634ZM188.366 290.106H187.523V282.609H188.366V290.106ZM192.498 290.241C190.891 290.241 189.733 289.084 189.733 287.386C189.733 285.813 190.857 284.543 192.408 284.543C194.049 284.543 195.016 285.824 195.016 287.454V287.667H190.621C190.688 288.69 191.408 289.544 192.577 289.544C193.195 289.544 193.824 289.297 194.251 288.859L194.656 289.41C194.117 289.949 193.386 290.241 192.498 290.241ZM194.184 287.049C194.173 286.24 193.633 285.24 192.397 285.24C191.239 285.24 190.666 286.217 190.621 287.049H194.184ZM201.37 290.106H200.437V283.846L199.234 285.116L198.672 284.543L200.549 282.609H201.37V290.106Z" fill="#6B6B6B"/>
<path d="M266.92 290.241C265.616 290.241 264.661 289.747 264.042 289.05L264.593 288.342C265.088 288.893 265.897 289.41 266.954 289.41C268.291 289.41 268.718 288.69 268.718 288.117C268.718 286.184 264.278 287.251 264.278 284.576C264.278 283.34 265.38 282.497 266.852 282.497C267.999 282.497 268.887 282.879 269.516 283.542L268.954 284.228C268.392 283.61 267.605 283.329 266.785 283.329C265.886 283.329 265.245 283.812 265.245 284.52C265.245 286.206 269.685 285.24 269.685 288.038C269.685 289.129 268.943 290.241 266.92 290.241ZM273.719 290.241C272.977 290.241 272.325 289.893 271.887 289.286V292.175H271.044V284.678H271.887V285.487C272.281 284.936 272.955 284.543 273.719 284.543C275.147 284.543 276.136 285.622 276.136 287.386C276.136 289.14 275.147 290.241 273.719 290.241ZM273.506 289.488C274.596 289.488 275.248 288.589 275.248 287.386C275.248 286.184 274.596 285.296 273.506 285.296C272.843 285.296 272.179 285.689 271.887 286.161V288.612C272.179 289.084 272.843 289.488 273.506 289.488ZM278.319 290.106H277.476V284.678H278.319V285.554C278.758 284.981 279.387 284.565 280.129 284.565V285.431C280.028 285.408 279.927 285.397 279.792 285.397C279.275 285.397 278.567 285.824 278.319 286.262V290.106ZM281.602 283.902C281.299 283.902 281.04 283.655 281.04 283.34C281.04 283.025 281.299 282.767 281.602 282.767C281.917 282.767 282.176 283.025 282.176 283.34C282.176 283.655 281.917 283.902 281.602 283.902ZM282.029 290.106H281.186V284.678H282.029V290.106ZM288.218 290.106H287.375V286.555C287.375 285.599 286.892 285.296 286.161 285.296C285.498 285.296 284.869 285.7 284.554 286.139V290.106H283.711V284.678H284.554V285.464C284.936 285.015 285.678 284.543 286.487 284.543C287.623 284.543 288.218 285.116 288.218 286.296V290.106ZM292.082 292.309C291.161 292.309 290.531 292.13 289.891 291.5L290.318 290.871C290.767 291.41 291.307 291.613 292.082 291.613C292.982 291.613 293.825 291.174 293.825 289.983V289.207C293.431 289.758 292.768 290.174 292.004 290.174C290.587 290.174 289.587 289.117 289.587 287.364C289.587 285.622 290.576 284.543 292.004 284.543C292.734 284.543 293.386 284.902 293.825 285.498V284.678H294.668V289.949C294.668 291.747 293.409 292.309 292.082 292.309ZM292.206 289.432C292.88 289.432 293.532 289.016 293.825 288.544V286.172C293.532 285.7 292.88 285.296 292.206 285.296C291.116 285.296 290.464 286.161 290.464 287.364C290.464 288.555 291.116 289.432 292.206 289.432ZM300.973 290.241C300.086 290.241 299.332 289.972 298.782 289.387L299.22 288.78C299.58 289.196 300.265 289.556 301.007 289.556C301.839 289.556 302.289 289.162 302.289 288.623C302.289 287.308 298.928 288.117 298.928 286.105C298.928 285.262 299.658 284.543 300.951 284.543C301.873 284.543 302.525 284.891 302.963 285.329L302.57 285.914C302.244 285.521 301.648 285.228 300.951 285.228C300.209 285.228 299.748 285.599 299.748 286.083C299.748 287.274 303.109 286.487 303.109 288.6C303.109 289.511 302.378 290.241 300.973 290.241ZM308.716 290.106H307.873V289.488C307.423 289.983 306.805 290.241 306.075 290.241C305.153 290.241 304.175 289.623 304.175 288.443C304.175 287.229 305.153 286.656 306.075 286.656C306.817 286.656 307.435 286.892 307.873 287.398V286.42C307.873 285.689 307.289 285.273 306.502 285.273C305.85 285.273 305.322 285.509 304.838 286.026L304.445 285.442C305.029 284.835 305.726 284.543 306.614 284.543C307.761 284.543 308.716 285.06 308.716 286.375V290.106ZM306.378 289.634C306.974 289.634 307.547 289.41 307.873 288.96V287.937C307.547 287.488 306.974 287.263 306.378 287.263C305.591 287.263 305.041 287.757 305.041 288.454C305.041 289.14 305.591 289.634 306.378 289.634ZM311.249 290.106H310.406V282.609H311.249V290.106ZM315.381 290.241C313.774 290.241 312.616 289.084 312.616 287.386C312.616 285.813 313.74 284.543 315.291 284.543C316.932 284.543 317.899 285.824 317.899 287.454V287.667H313.504C313.571 288.69 314.291 289.544 315.46 289.544C316.078 289.544 316.707 289.297 317.134 288.859L317.539 289.41C316.999 289.949 316.269 290.241 315.381 290.241ZM317.067 287.049C317.056 286.24 316.516 285.24 315.28 285.24C314.122 285.24 313.549 286.217 313.504 287.049H317.067ZM327.074 290.106H321.926V289.365C324.623 287.24 326.085 285.993 326.085 284.7C326.085 283.745 325.298 283.329 324.522 283.329C323.623 283.329 322.926 283.711 322.488 284.273L321.914 283.677C322.488 282.924 323.466 282.497 324.522 282.497C325.77 282.497 327.04 283.205 327.04 284.7C327.04 286.229 325.489 287.622 323.398 289.275H327.074V290.106Z" fill="#6B6B6B"/>
<path d="M392.803 290.241C391.499 290.241 390.543 289.747 389.925 289.05L390.476 288.342C390.97 288.893 391.78 289.41 392.836 289.41C394.174 289.41 394.601 288.69 394.601 288.117C394.601 286.184 390.161 287.251 390.161 284.576C390.161 283.34 391.263 282.497 392.735 282.497C393.882 282.497 394.77 282.879 395.399 283.542L394.837 284.228C394.275 283.61 393.488 283.329 392.668 283.329C391.769 283.329 391.128 283.812 391.128 284.52C391.128 286.206 395.568 285.24 395.568 288.038C395.568 289.129 394.826 290.241 392.803 290.241ZM399.602 290.241C398.86 290.241 398.208 289.893 397.77 289.286V292.175H396.927V284.678H397.77V285.487C398.163 284.936 398.838 284.543 399.602 284.543C401.03 284.543 402.019 285.622 402.019 287.386C402.019 289.14 401.03 290.241 399.602 290.241ZM399.389 289.488C400.479 289.488 401.131 288.589 401.131 287.386C401.131 286.184 400.479 285.296 399.389 285.296C398.725 285.296 398.062 285.689 397.77 286.161V288.612C398.062 289.084 398.725 289.488 399.389 289.488ZM404.202 290.106H403.359V284.678H404.202V285.554C404.641 284.981 405.27 284.565 406.012 284.565V285.431C405.911 285.408 405.809 285.397 405.675 285.397C405.158 285.397 404.449 285.824 404.202 286.262V290.106ZM407.485 283.902C407.182 283.902 406.923 283.655 406.923 283.34C406.923 283.025 407.182 282.767 407.485 282.767C407.8 282.767 408.058 283.025 408.058 283.34C408.058 283.655 407.8 283.902 407.485 283.902ZM407.912 290.106H407.069V284.678H407.912V290.106ZM414.101 290.106H413.258V286.555C413.258 285.599 412.775 285.296 412.044 285.296C411.381 285.296 410.752 285.7 410.437 286.139V290.106H409.594V284.678H410.437V285.464C410.819 285.015 411.561 284.543 412.37 284.543C413.505 284.543 414.101 285.116 414.101 286.296V290.106ZM417.965 292.309C417.043 292.309 416.414 292.13 415.773 291.5L416.2 290.871C416.65 291.41 417.19 291.613 417.965 291.613C418.864 291.613 419.707 291.174 419.707 289.983V289.207C419.314 289.758 418.651 290.174 417.886 290.174C416.47 290.174 415.47 289.117 415.47 287.364C415.47 285.622 416.459 284.543 417.886 284.543C418.617 284.543 419.269 284.902 419.707 285.498V284.678H420.55V289.949C420.55 291.747 419.291 292.309 417.965 292.309ZM418.089 289.432C418.763 289.432 419.415 289.016 419.707 288.544V286.172C419.415 285.7 418.763 285.296 418.089 285.296C416.999 285.296 416.347 286.161 416.347 287.364C416.347 288.555 416.999 289.432 418.089 289.432ZM426.856 290.241C425.968 290.241 425.215 289.972 424.665 289.387L425.103 288.78C425.463 289.196 426.148 289.556 426.89 289.556C427.722 289.556 428.171 289.162 428.171 288.623C428.171 287.308 424.811 288.117 424.811 286.105C424.811 285.262 425.541 284.543 426.834 284.543C427.756 284.543 428.407 284.891 428.846 285.329L428.452 285.914C428.126 285.521 427.531 285.228 426.834 285.228C426.092 285.228 425.631 285.599 425.631 286.083C425.631 287.274 428.992 286.487 428.992 288.6C428.992 289.511 428.261 290.241 426.856 290.241ZM434.599 290.106H433.756V289.488C433.306 289.983 432.688 290.241 431.957 290.241C431.036 290.241 430.058 289.623 430.058 288.443C430.058 287.229 431.036 286.656 431.957 286.656C432.699 286.656 433.318 286.892 433.756 287.398V286.42C433.756 285.689 433.171 285.273 432.385 285.273C431.733 285.273 431.204 285.509 430.721 286.026L430.328 285.442C430.912 284.835 431.609 284.543 432.497 284.543C433.643 284.543 434.599 285.06 434.599 286.375V290.106ZM432.261 289.634C432.857 289.634 433.43 289.41 433.756 288.96V287.937C433.43 287.488 432.857 287.263 432.261 287.263C431.474 287.263 430.923 287.757 430.923 288.454C430.923 289.14 431.474 289.634 432.261 289.634ZM437.132 290.106H436.289V282.609H437.132V290.106ZM441.264 290.241C439.656 290.241 438.499 289.084 438.499 287.386C438.499 285.813 439.623 284.543 441.174 284.543C442.815 284.543 443.781 285.824 443.781 287.454V287.667H439.387C439.454 288.69 440.173 289.544 441.342 289.544C441.961 289.544 442.59 289.297 443.017 288.859L443.422 289.41C442.882 289.949 442.152 290.241 441.264 290.241ZM442.95 287.049C442.938 286.24 442.399 285.24 441.162 285.24C440.005 285.24 439.432 286.217 439.387 287.049H442.95ZM450.191 290.241C448.921 290.241 447.988 289.679 447.528 289.005L448.078 288.42C448.517 289.005 449.281 289.41 450.169 289.41C451.259 289.41 451.922 288.87 451.922 288.005C451.922 287.072 451.158 286.678 450.057 286.678C449.742 286.678 449.393 286.678 449.281 286.689V285.835C449.405 285.847 449.753 285.847 450.057 285.847C451.001 285.847 451.799 285.476 451.799 284.61C451.799 283.778 451.034 283.329 450.124 283.329C449.303 283.329 448.696 283.643 448.146 284.239L447.629 283.655C448.168 283.003 449.034 282.497 450.191 282.497C451.63 282.497 452.732 283.228 452.732 284.498C452.732 285.577 451.821 286.116 451.113 286.24C451.799 286.296 452.844 286.881 452.844 288.083C452.844 289.331 451.844 290.241 450.191 290.241Z" fill="#6B6B6B"/>
<path d="M517.685 290.241C516.382 290.241 515.426 289.747 514.808 289.05L515.359 288.342C515.853 288.893 516.663 289.41 517.719 289.41C519.057 289.41 519.484 288.69 519.484 288.117C519.484 286.184 515.044 287.251 515.044 284.576C515.044 283.34 516.146 282.497 517.618 282.497C518.764 282.497 519.652 282.879 520.282 283.542L519.72 284.228C519.158 283.61 518.371 283.329 517.551 283.329C516.651 283.329 516.011 283.812 516.011 284.52C516.011 286.206 520.45 285.24 520.45 288.038C520.45 289.129 519.709 290.241 517.685 290.241ZM524.485 290.241C523.743 290.241 523.091 289.893 522.653 289.286V292.175H521.81V284.678H522.653V285.487C523.046 284.936 523.721 284.543 524.485 284.543C525.912 284.543 526.901 285.622 526.901 287.386C526.901 289.14 525.912 290.241 524.485 290.241ZM524.271 289.488C525.362 289.488 526.014 288.589 526.014 287.386C526.014 286.184 525.362 285.296 524.271 285.296C523.608 285.296 522.945 285.689 522.653 286.161V288.612C522.945 289.084 523.608 289.488 524.271 289.488ZM529.085 290.106H528.242V284.678H529.085V285.554C529.523 284.981 530.153 284.565 530.895 284.565V285.431C530.793 285.408 530.692 285.397 530.557 285.397C530.04 285.397 529.332 285.824 529.085 286.262V290.106ZM532.368 283.902C532.064 283.902 531.806 283.655 531.806 283.34C531.806 283.025 532.064 282.767 532.368 282.767C532.683 282.767 532.941 283.025 532.941 283.34C532.941 283.655 532.683 283.902 532.368 283.902ZM532.795 290.106H531.952V284.678H532.795V290.106ZM538.984 290.106H538.141V286.555C538.141 285.599 537.658 285.296 536.927 285.296C536.264 285.296 535.634 285.7 535.32 286.139V290.106H534.477V284.678H535.32V285.464C535.702 285.015 536.444 284.543 537.253 284.543C538.388 284.543 538.984 285.116 538.984 286.296V290.106ZM542.848 292.309C541.926 292.309 541.297 292.13 540.656 291.5L541.083 290.871C541.533 291.41 542.072 291.613 542.848 291.613C543.747 291.613 544.59 291.174 544.59 289.983V289.207C544.197 289.758 543.534 290.174 542.769 290.174C541.353 290.174 540.353 289.117 540.353 287.364C540.353 285.622 541.342 284.543 542.769 284.543C543.5 284.543 544.152 284.902 544.59 285.498V284.678H545.433V289.949C545.433 291.747 544.174 292.309 542.848 292.309ZM542.972 289.432C543.646 289.432 544.298 289.016 544.59 288.544V286.172C544.298 285.7 543.646 285.296 542.972 285.296C541.881 285.296 541.229 286.161 541.229 287.364C541.229 288.555 541.881 289.432 542.972 289.432ZM551.739 290.241C550.851 290.241 550.098 289.972 549.547 289.387L549.986 288.78C550.345 289.196 551.031 289.556 551.773 289.556C552.605 289.556 553.054 289.162 553.054 288.623C553.054 287.308 549.693 288.117 549.693 286.105C549.693 285.262 550.424 284.543 551.717 284.543C552.638 284.543 553.29 284.891 553.729 285.329L553.335 285.914C553.009 285.521 552.414 285.228 551.717 285.228C550.975 285.228 550.514 285.599 550.514 286.083C550.514 287.274 553.875 286.487 553.875 288.6C553.875 289.511 553.144 290.241 551.739 290.241ZM559.482 290.106H558.639V289.488C558.189 289.983 557.571 290.241 556.84 290.241C555.919 290.241 554.941 289.623 554.941 288.443C554.941 287.229 555.919 286.656 556.84 286.656C557.582 286.656 558.2 286.892 558.639 287.398V286.42C558.639 285.689 558.054 285.273 557.267 285.273C556.616 285.273 556.087 285.509 555.604 286.026L555.211 285.442C555.795 284.835 556.492 284.543 557.38 284.543C558.526 284.543 559.482 285.06 559.482 286.375V290.106ZM557.144 289.634C557.739 289.634 558.313 289.41 558.639 288.96V287.937C558.313 287.488 557.739 287.263 557.144 287.263C556.357 287.263 555.806 287.757 555.806 288.454C555.806 289.14 556.357 289.634 557.144 289.634ZM562.015 290.106H561.172V282.609H562.015V290.106ZM566.146 290.241C564.539 290.241 563.381 289.084 563.381 287.386C563.381 285.813 564.505 284.543 566.057 284.543C567.698 284.543 568.664 285.824 568.664 287.454V287.667H564.269C564.337 288.69 565.056 289.544 566.225 289.544C566.843 289.544 567.473 289.297 567.9 288.859L568.305 289.41C567.765 289.949 567.034 290.241 566.146 290.241ZM567.832 287.049C567.821 286.24 567.282 285.24 566.045 285.24C564.888 285.24 564.314 286.217 564.269 287.049H567.832ZM576.94 290.106H576.007V288.207H572.444V287.431L575.659 282.609H576.94V287.386H577.997V288.207H576.94V290.106ZM576.007 287.386V283.475L573.377 287.386H576.007Z" fill="#6B6B6B"/>
<path d="M60.708 227.389C58.6174 227.389 57.8193 225.557 57.8193 223.522C57.8193 221.488 58.7635 219.644 60.8654 219.644C61.832 219.644 62.4839 220.015 62.9447 220.544L62.4727 221.241C62.0905 220.791 61.6522 220.476 60.8654 220.476C59.4154 220.476 58.7522 221.949 58.7522 223.421C58.7522 223.522 58.7522 223.612 58.7635 223.713C59.0894 223.196 59.9212 222.544 60.8878 222.544C62.2366 222.544 63.3381 223.342 63.3381 224.938C63.3381 226.242 62.349 227.389 60.708 227.389ZM60.6743 226.557C61.832 226.557 62.394 225.692 62.394 224.972C62.394 223.871 61.6297 223.354 60.663 223.354C59.9212 223.354 59.2018 223.814 58.786 224.478C58.8759 225.411 59.3704 226.557 60.6743 226.557ZM67.3263 227.389C65.2694 227.389 64.4601 225.332 64.4601 223.511C64.4601 221.679 65.2694 219.644 67.3263 219.644C69.372 219.644 70.1925 221.679 70.1925 223.511C70.1925 225.332 69.372 227.389 67.3263 227.389ZM67.3263 226.557C68.7538 226.557 69.2371 225.006 69.2371 223.511C69.2371 222.016 68.7538 220.476 67.3263 220.476C65.8988 220.476 65.4155 222.016 65.4155 223.511C65.4155 225.006 65.8988 226.557 67.3263 226.557ZM72.3961 226.984C72.3961 227.67 71.9915 228.31 71.4745 228.681L71.0586 228.333C71.4183 228.097 71.7442 227.659 71.7892 227.288C71.7667 227.299 71.688 227.31 71.6318 227.31C71.3171 227.31 71.0923 227.074 71.0923 226.737C71.0923 226.411 71.3508 226.13 71.688 226.13C72.0589 226.13 72.3961 226.445 72.3961 226.984ZM76.0965 227.389C74.0396 227.389 73.2304 225.332 73.2304 223.511C73.2304 221.679 74.0396 219.644 76.0965 219.644C78.1422 219.644 78.9627 221.679 78.9627 223.511C78.9627 225.332 78.1422 227.389 76.0965 227.389ZM76.0965 226.557C77.524 226.557 78.0073 225.006 78.0073 223.511C78.0073 222.016 77.524 220.476 76.0965 220.476C74.6691 220.476 74.1858 222.016 74.1858 223.511C74.1858 225.006 74.6691 226.557 76.0965 226.557ZM82.9788 227.389C80.9219 227.389 80.1126 225.332 80.1126 223.511C80.1126 221.679 80.9219 219.644 82.9788 219.644C85.0245 219.644 85.845 221.679 85.845 223.511C85.845 225.332 85.0245 227.389 82.9788 227.389ZM82.9788 226.557C84.4063 226.557 84.8896 225.006 84.8896 223.511C84.8896 222.016 84.4063 220.476 82.9788 220.476C81.5513 220.476 81.068 222.016 81.068 223.511C81.068 225.006 81.5513 226.557 82.9788 226.557ZM89.8611 227.389C87.8042 227.389 86.9949 225.332 86.9949 223.511C86.9949 221.679 87.8042 219.644 89.8611 219.644C91.9068 219.644 92.7273 221.679 92.7273 223.511C92.7273 225.332 91.9068 227.389 89.8611 227.389ZM89.8611 226.557C91.2886 226.557 91.7719 225.006 91.7719 223.511C91.7719 222.016 91.2886 220.476 89.8611 220.476C88.4336 220.476 87.9503 222.016 87.9503 223.511C87.9503 225.006 88.4336 226.557 89.8611 226.557Z" fill="#6B6B6B"/>
<path d="M62.1018 261.317H61.1688V259.418H57.6058V258.642L60.8204 253.82H62.1018V258.597H63.1583V259.418H62.1018V261.317ZM61.1688 258.597V254.686L58.5387 258.597H61.1688ZM66.9531 261.452C64.8962 261.452 64.0869 259.395 64.0869 257.574C64.0869 255.742 64.8962 253.708 66.9531 253.708C68.9988 253.708 69.8193 255.742 69.8193 257.574C69.8193 259.395 68.9988 261.452 66.9531 261.452ZM66.9531 260.621C68.3806 260.621 68.8639 259.069 68.8639 257.574C68.8639 256.08 68.3806 254.54 66.9531 254.54C65.5256 254.54 65.0423 256.08 65.0423 257.574C65.0423 259.069 65.5256 260.621 66.9531 260.621ZM72.0229 261.048C72.0229 261.733 71.6183 262.374 71.1013 262.745L70.6854 262.396C71.0451 262.16 71.371 261.722 71.416 261.351C71.3935 261.362 71.3148 261.374 71.2586 261.374C70.9439 261.374 70.7191 261.138 70.7191 260.8C70.7191 260.474 70.9776 260.193 71.3148 260.193C71.6857 260.193 72.0229 260.508 72.0229 261.048ZM75.7233 261.452C73.6664 261.452 72.8572 259.395 72.8572 257.574C72.8572 255.742 73.6664 253.708 75.7233 253.708C77.769 253.708 78.5895 255.742 78.5895 257.574C78.5895 259.395 77.769 261.452 75.7233 261.452ZM75.7233 260.621C77.1508 260.621 77.6341 259.069 77.6341 257.574C77.6341 256.08 77.1508 254.54 75.7233 254.54C74.2959 254.54 73.8126 256.08 73.8126 257.574C73.8126 259.069 74.2959 260.621 75.7233 260.621ZM82.6056 261.452C80.5487 261.452 79.7394 259.395 79.7394 257.574C79.7394 255.742 80.5487 253.708 82.6056 253.708C84.6513 253.708 85.4718 255.742 85.4718 257.574C85.4718 259.395 84.6513 261.452 82.6056 261.452ZM82.6056 260.621C84.0331 260.621 84.5164 259.069 84.5164 257.574C84.5164 256.08 84.0331 254.54 82.6056 254.54C81.1781 254.54 80.6948 256.08 80.6948 257.574C80.6948 259.069 81.1781 260.621 82.6056 260.621ZM89.4879 261.452C87.431 261.452 86.6217 259.395 86.6217 257.574C86.6217 255.742 87.431 253.708 89.4879 253.708C91.5336 253.708 92.3541 255.742 92.3541 257.574C92.3541 259.395 91.5336 261.452 89.4879 261.452ZM89.4879 260.621C90.9154 260.621 91.3987 259.069 91.3987 257.574C91.3987 256.08 90.9154 254.54 89.4879 254.54C88.0604 254.54 87.5771 256.08 87.5771 257.574C87.5771 259.069 88.0604 260.621 89.4879 260.621Z" fill="#6B6B6B"/>
<path d="M93.4912 289.552C91.3893 289.552 90.4901 287.562 90.4901 285.674C90.4901 283.786 91.3893 281.808 93.4912 281.808C95.5931 281.808 96.4923 283.786 96.4923 285.674C96.4923 287.562 95.5931 289.552 93.4912 289.552ZM93.4912 288.383C94.7164 288.383 95.1547 287.102 95.1547 285.674C95.1547 284.247 94.7164 282.977 93.4912 282.977C92.266 282.977 91.8277 284.247 91.8277 285.674C91.8277 287.102 92.266 288.383 93.4912 288.383Z" fill="#6B6B6B"/>
<path d="M59.8841 195.197C58.4004 195.197 57.1978 194.444 57.1978 193.163C57.1978 192.163 58.052 191.477 58.9849 191.196C58.1194 190.949 57.3214 190.387 57.3214 189.398C57.3214 188.049 58.6365 187.453 59.8841 187.453C61.1205 187.453 62.4581 188.049 62.4581 189.398C62.4581 190.387 61.6488 190.949 60.7833 191.196C61.7162 191.477 62.5705 192.163 62.5705 193.163C62.5705 194.433 61.3565 195.197 59.8841 195.197ZM59.8841 190.814C60.3449 190.735 61.5139 190.432 61.5139 189.521C61.5139 188.746 60.7833 188.285 59.8841 188.285C58.9737 188.285 58.2543 188.746 58.2543 189.521C58.2543 190.432 59.4345 190.735 59.8841 190.814ZM59.8841 194.366C60.8058 194.366 61.6263 193.871 61.6263 193.062C61.6263 192.084 60.3449 191.668 59.8841 191.612C59.4233 191.668 58.1307 192.084 58.1307 193.062C58.1307 193.871 58.9512 194.366 59.8841 194.366ZM66.5837 195.197C64.5268 195.197 63.7175 193.14 63.7175 191.32C63.7175 189.487 64.5268 187.453 66.5837 187.453C68.6294 187.453 69.4499 189.487 69.4499 191.32C69.4499 193.14 68.6294 195.197 66.5837 195.197ZM66.5837 194.366C68.0112 194.366 68.4945 192.815 68.4945 191.32C68.4945 189.825 68.0112 188.285 66.5837 188.285C65.1563 188.285 64.6729 189.825 64.6729 191.32C64.6729 192.815 65.1563 194.366 66.5837 194.366ZM71.6536 194.793C71.6536 195.478 71.2489 196.119 70.7319 196.49L70.316 196.142C70.6757 195.905 71.0016 195.467 71.0466 195.096C71.0241 195.107 70.9454 195.119 70.8892 195.119C70.5745 195.119 70.3497 194.883 70.3497 194.545C70.3497 194.22 70.6082 193.939 70.9454 193.939C71.3164 193.939 71.6536 194.253 71.6536 194.793ZM75.354 195.197C73.2971 195.197 72.4878 193.14 72.4878 191.32C72.4878 189.487 73.2971 187.453 75.354 187.453C77.3996 187.453 78.2202 189.487 78.2202 191.32C78.2202 193.14 77.3996 195.197 75.354 195.197ZM75.354 194.366C76.7814 194.366 77.2648 192.815 77.2648 191.32C77.2648 189.825 76.7814 188.285 75.354 188.285C73.9265 188.285 73.4432 189.825 73.4432 191.32C73.4432 192.815 73.9265 194.366 75.354 194.366ZM82.2362 195.197C80.1793 195.197 79.3701 193.14 79.3701 191.32C79.3701 189.487 80.1793 187.453 82.2362 187.453C84.2819 187.453 85.1024 189.487 85.1024 191.32C85.1024 193.14 84.2819 195.197 82.2362 195.197ZM82.2362 194.366C83.6637 194.366 84.147 192.815 84.147 191.32C84.147 189.825 83.6637 188.285 82.2362 188.285C80.8088 188.285 80.3255 189.825 80.3255 191.32C80.3255 192.815 80.8088 194.366 82.2362 194.366ZM89.1185 195.197C87.0616 195.197 86.2523 193.14 86.2523 191.32C86.2523 189.487 87.0616 187.453 89.1185 187.453C91.1642 187.453 91.9847 189.487 91.9847 191.32C91.9847 193.14 91.1642 195.197 89.1185 195.197ZM89.1185 194.366C90.546 194.366 91.0293 192.815 91.0293 191.32C91.0293 189.825 90.546 188.285 89.1185 188.285C87.691 188.285 87.2077 189.825 87.2077 191.32C87.2077 192.815 87.691 194.366 89.1185 194.366Z" fill="#6B6B6B"/>
<path d="M58.6094 163.808H57.6765V157.547L56.4738 158.817L55.9118 158.244L57.7889 156.311H58.6094V163.808ZM62.9241 163.942C60.8671 163.942 60.0579 161.886 60.0579 160.065C60.0579 158.233 60.8671 156.198 62.9241 156.198C64.9697 156.198 65.7902 158.233 65.7902 160.065C65.7902 161.886 64.9697 163.942 62.9241 163.942ZM62.9241 163.111C64.3515 163.111 64.8348 161.56 64.8348 160.065C64.8348 158.57 64.3515 157.03 62.9241 157.03C61.4966 157.03 61.0133 158.57 61.0133 160.065C61.0133 161.56 61.4966 163.111 62.9241 163.111ZM69.8063 163.942C67.7494 163.942 66.9401 161.886 66.9401 160.065C66.9401 158.233 67.7494 156.198 69.8063 156.198C71.852 156.198 72.6725 158.233 72.6725 160.065C72.6725 161.886 71.852 163.942 69.8063 163.942ZM69.8063 163.111C71.2338 163.111 71.7171 161.56 71.7171 160.065C71.7171 158.57 71.2338 157.03 69.8063 157.03C68.3789 157.03 67.8955 158.57 67.8955 160.065C67.8955 161.56 68.3789 163.111 69.8063 163.111ZM74.8762 163.538C74.8762 164.223 74.4715 164.864 73.9545 165.235L73.5386 164.887C73.8983 164.651 74.2242 164.212 74.2692 163.841C74.2467 163.853 74.168 163.864 74.1118 163.864C73.7971 163.864 73.5723 163.628 73.5723 163.291C73.5723 162.965 73.8308 162.684 74.168 162.684C74.539 162.684 74.8762 162.998 74.8762 163.538ZM78.5766 163.942C76.5197 163.942 75.7104 161.886 75.7104 160.065C75.7104 158.233 76.5197 156.198 78.5766 156.198C80.6222 156.198 81.4428 158.233 81.4428 160.065C81.4428 161.886 80.6222 163.942 78.5766 163.942ZM78.5766 163.111C80.004 163.111 80.4874 161.56 80.4874 160.065C80.4874 158.57 80.004 157.03 78.5766 157.03C77.1491 157.03 76.6658 158.57 76.6658 160.065C76.6658 161.56 77.1491 163.111 78.5766 163.111ZM85.4588 163.942C83.4019 163.942 82.5927 161.886 82.5927 160.065C82.5927 158.233 83.4019 156.198 85.4588 156.198C87.5045 156.198 88.325 158.233 88.325 160.065C88.325 161.886 87.5045 163.942 85.4588 163.942ZM85.4588 163.111C86.8863 163.111 87.3696 161.56 87.3696 160.065C87.3696 158.57 86.8863 157.03 85.4588 157.03C84.0314 157.03 83.5481 158.57 83.5481 160.065C83.5481 161.56 84.0314 163.111 85.4588 163.111ZM92.3411 163.942C90.2842 163.942 89.4749 161.886 89.4749 160.065C89.4749 158.233 90.2842 156.198 92.3411 156.198C94.3868 156.198 95.2073 158.233 95.2073 160.065C95.2073 161.886 94.3868 163.942 92.3411 163.942ZM92.3411 163.111C93.7686 163.111 94.2519 161.56 94.2519 160.065C94.2519 158.57 93.7686 157.03 92.3411 157.03C90.9136 157.03 90.4303 158.57 90.4303 160.065C90.4303 161.56 90.9136 163.111 92.3411 163.111Z" fill="#6B6B6B"/>
<path d="M58.6094 132.554H57.6765V126.293L56.4738 127.563L55.9118 126.99L57.7889 125.057H58.6094V132.554ZM65.2395 132.554H60.0916V131.812C62.7892 129.688 64.2504 128.44 64.2504 127.147C64.2504 126.192 63.4636 125.776 62.688 125.776C61.7888 125.776 61.0919 126.158 60.6536 126.72L60.0803 126.124C60.6536 125.371 61.6315 124.944 62.688 124.944C63.9357 124.944 65.2058 125.652 65.2058 127.147C65.2058 128.676 63.6547 130.07 61.564 131.722H65.2395V132.554ZM69.5319 132.689C67.475 132.689 66.6657 130.632 66.6657 128.811C66.6657 126.979 67.475 124.944 69.5319 124.944C71.5776 124.944 72.3981 126.979 72.3981 128.811C72.3981 130.632 71.5776 132.689 69.5319 132.689ZM69.5319 131.857C70.9594 131.857 71.4427 130.306 71.4427 128.811C71.4427 127.316 70.9594 125.776 69.5319 125.776C68.1044 125.776 67.6211 127.316 67.6211 128.811C67.6211 130.306 68.1044 131.857 69.5319 131.857ZM74.6018 132.284C74.6018 132.97 74.1971 133.61 73.6801 133.981L73.2642 133.633C73.6239 133.397 73.9498 132.958 73.9948 132.587C73.9723 132.599 73.8936 132.61 73.8374 132.61C73.5227 132.61 73.2979 132.374 73.2979 132.037C73.2979 131.711 73.5564 131.43 73.8936 131.43C74.2646 131.43 74.6018 131.744 74.6018 132.284ZM78.3022 132.689C76.2452 132.689 75.436 130.632 75.436 128.811C75.436 126.979 76.2452 124.944 78.3022 124.944C80.3478 124.944 81.1683 126.979 81.1683 128.811C81.1683 130.632 80.3478 132.689 78.3022 132.689ZM78.3022 131.857C79.7296 131.857 80.2129 130.306 80.2129 128.811C80.2129 127.316 79.7296 125.776 78.3022 125.776C76.8747 125.776 76.3914 127.316 76.3914 128.811C76.3914 130.306 76.8747 131.857 78.3022 131.857ZM85.1844 132.689C83.1275 132.689 82.3182 130.632 82.3182 128.811C82.3182 126.979 83.1275 124.944 85.1844 124.944C87.2301 124.944 88.0506 126.979 88.0506 128.811C88.0506 130.632 87.2301 132.689 85.1844 132.689ZM85.1844 131.857C86.6119 131.857 87.0952 130.306 87.0952 128.811C87.0952 127.316 86.6119 125.776 85.1844 125.776C83.757 125.776 83.2736 127.316 83.2736 128.811C83.2736 130.306 83.757 131.857 85.1844 131.857ZM92.0667 132.689C90.0098 132.689 89.2005 130.632 89.2005 128.811C89.2005 126.979 90.0098 124.944 92.0667 124.944C94.1124 124.944 94.9329 126.979 94.9329 128.811C94.9329 130.632 94.1124 132.689 92.0667 132.689ZM92.0667 131.857C93.4942 131.857 93.9775 130.306 93.9775 128.811C93.9775 127.316 93.4942 125.776 92.0667 125.776C90.6392 125.776 90.1559 127.316 90.1559 128.811C90.1559 130.306 90.6392 131.857 92.0667 131.857Z" fill="#6B6B6B"/>
<path d="M58.6094 98.4902H57.6765V92.2296L56.4738 93.4997L55.9118 92.9265L57.7889 90.9932H58.6094V98.4902ZM64.3403 98.4902H63.4074V96.5907H59.8443V95.8151L63.0589 90.9932H64.3403V95.7702H65.3968V96.5907H64.3403V98.4902ZM63.4074 95.7702V91.8587L60.7772 95.7702H63.4074ZM69.1916 98.6251C67.1347 98.6251 66.3255 96.5682 66.3255 94.7473C66.3255 92.9152 67.1347 90.8808 69.1916 90.8808C71.2373 90.8808 72.0578 92.9152 72.0578 94.7473C72.0578 96.5682 71.2373 98.6251 69.1916 98.6251ZM69.1916 97.7934C70.6191 97.7934 71.1024 96.2422 71.1024 94.7473C71.1024 93.2524 70.6191 91.7125 69.1916 91.7125C67.7642 91.7125 67.2809 93.2524 67.2809 94.7473C67.2809 96.2422 67.7642 97.7934 69.1916 97.7934ZM74.2615 98.2205C74.2615 98.9061 73.8568 99.5468 73.3398 99.9177L72.9239 99.5693C73.2836 99.3332 73.6096 98.8949 73.6545 98.524C73.632 98.5352 73.5534 98.5464 73.4972 98.5464C73.1824 98.5464 72.9576 98.3104 72.9576 97.9732C72.9576 97.6472 73.2162 97.3662 73.5534 97.3662C73.9243 97.3662 74.2615 97.681 74.2615 98.2205ZM77.9619 98.6251C75.905 98.6251 75.0957 96.5682 75.0957 94.7473C75.0957 92.9152 75.905 90.8808 77.9619 90.8808C80.0076 90.8808 80.8281 92.9152 80.8281 94.7473C80.8281 96.5682 80.0076 98.6251 77.9619 98.6251ZM77.9619 97.7934C79.3894 97.7934 79.8727 96.2422 79.8727 94.7473C79.8727 93.2524 79.3894 91.7125 77.9619 91.7125C76.5344 91.7125 76.0511 93.2524 76.0511 94.7473C76.0511 96.2422 76.5344 97.7934 77.9619 97.7934ZM84.8442 98.6251C82.7872 98.6251 81.978 96.5682 81.978 94.7473C81.978 92.9152 82.7872 90.8808 84.8442 90.8808C86.8898 90.8808 87.7103 92.9152 87.7103 94.7473C87.7103 96.5682 86.8898 98.6251 84.8442 98.6251ZM84.8442 97.7934C86.2716 97.7934 86.7549 96.2422 86.7549 94.7473C86.7549 93.2524 86.2716 91.7125 84.8442 91.7125C83.4167 91.7125 82.9334 93.2524 82.9334 94.7473C82.9334 96.2422 83.4167 97.7934 84.8442 97.7934ZM91.7264 98.6251C89.6695 98.6251 88.8602 96.5682 88.8602 94.7473C88.8602 92.9152 89.6695 90.8808 91.7264 90.8808C93.7721 90.8808 94.5926 92.9152 94.5926 94.7473C94.5926 96.5682 93.7721 98.6251 91.7264 98.6251ZM91.7264 97.7934C93.1539 97.7934 93.6372 96.2422 93.6372 94.7473C93.6372 93.2524 93.1539 91.7125 91.7264 91.7125C90.299 91.7125 89.8156 93.2524 89.8156 94.7473C89.8156 96.2422 90.299 97.7934 91.7264 97.7934Z" fill="#6B6B6B"/>
<path d="M58.6094 68.1719H57.6765V61.9112L56.4738 63.1813L55.9118 62.6081L57.7889 60.6748H58.6094V68.1719ZM62.9465 68.3068C60.8559 68.3068 60.0579 66.4746 60.0579 64.4402C60.0579 62.4058 61.002 60.5624 63.1039 60.5624C64.0705 60.5624 64.7224 60.9333 65.1833 61.4616L64.7112 62.1585C64.3291 61.7089 63.8907 61.3942 63.1039 61.3942C61.6539 61.3942 60.9908 62.8666 60.9908 64.3391C60.9908 64.4402 60.9908 64.5301 61.002 64.6313C61.328 64.1143 62.1597 63.4623 63.1264 63.4623C64.4752 63.4623 65.5767 64.2604 65.5767 65.8564C65.5767 67.1603 64.5876 68.3068 62.9465 68.3068ZM62.9128 67.475C64.0705 67.475 64.6325 66.6095 64.6325 65.8902C64.6325 64.7886 63.8682 64.2716 62.9016 64.2716C62.1597 64.2716 61.4404 64.7324 61.0245 65.3956C61.1144 66.3285 61.609 67.475 62.9128 67.475ZM69.5648 68.3068C67.5079 68.3068 66.6987 66.2498 66.6987 64.429C66.6987 62.5969 67.5079 60.5624 69.5648 60.5624C71.6105 60.5624 72.431 62.5969 72.431 64.429C72.431 66.2498 71.6105 68.3068 69.5648 68.3068ZM69.5648 67.475C70.9923 67.475 71.4756 65.9239 71.4756 64.429C71.4756 62.9341 70.9923 61.3942 69.5648 61.3942C68.1374 61.3942 67.6541 62.9341 67.6541 64.429C67.6541 65.9239 68.1374 67.475 69.5648 67.475ZM74.6347 67.9021C74.6347 68.5878 74.23 69.2284 73.713 69.5993L73.2971 69.2509C73.6568 69.0149 73.9828 68.5765 74.0277 68.2056C74.0052 68.2168 73.9266 68.2281 73.8704 68.2281C73.5556 68.2281 73.3308 67.992 73.3308 67.6548C73.3308 67.3289 73.5894 67.0479 73.9266 67.0479C74.2975 67.0479 74.6347 67.3626 74.6347 67.9021ZM78.3351 68.3068C76.2782 68.3068 75.4689 66.2498 75.4689 64.429C75.4689 62.5969 76.2782 60.5624 78.3351 60.5624C80.3808 60.5624 81.2013 62.5969 81.2013 64.429C81.2013 66.2498 80.3808 68.3068 78.3351 68.3068ZM78.3351 67.475C79.7626 67.475 80.2459 65.9239 80.2459 64.429C80.2459 62.9341 79.7626 61.3942 78.3351 61.3942C76.9076 61.3942 76.4243 62.9341 76.4243 64.429C76.4243 65.9239 76.9076 67.475 78.3351 67.475ZM85.2174 68.3068C83.1604 68.3068 82.3512 66.2498 82.3512 64.429C82.3512 62.5969 83.1604 60.5624 85.2174 60.5624C87.263 60.5624 88.0835 62.5969 88.0835 64.429C88.0835 66.2498 87.263 68.3068 85.2174 68.3068ZM85.2174 67.475C86.6448 67.475 87.1281 65.9239 87.1281 64.429C87.1281 62.9341 86.6448 61.3942 85.2174 61.3942C83.7899 61.3942 83.3066 62.9341 83.3066 64.429C83.3066 65.9239 83.7899 67.475 85.2174 67.475ZM92.0996 68.3068C90.0427 68.3068 89.2334 66.2498 89.2334 64.429C89.2334 62.5969 90.0427 60.5624 92.0996 60.5624C94.1453 60.5624 94.9658 62.5969 94.9658 64.429C94.9658 66.2498 94.1453 68.3068 92.0996 68.3068ZM92.0996 67.475C93.5271 67.475 94.0104 65.9239 94.0104 64.429C94.0104 62.9341 93.5271 61.3942 92.0996 61.3942C90.6722 61.3942 90.1888 62.9341 90.1888 64.429C90.1888 65.9239 90.6722 67.475 92.0996 67.475Z" fill="#6B6B6B"/>
<g clip-path="url(#clip2_1006_3403)">
<path d="M127.689 63.1934H652.165" stroke="#DEE4DF" stroke-width="0.392572" stroke-dasharray="5.63"/>
<path d="M127.689 127.575H652.165" stroke="#DEE4DF" stroke-width="0.392572" stroke-dasharray="5.63"/>
<path d="M127.689 95.3838H652.165" stroke="#DEE4DF" stroke-width="0.392572" stroke-dasharray="5.63"/>
<path d="M127.689 159.766H652.165" stroke="#DEE4DF" stroke-width="0.392572" stroke-dasharray="5.63"/>
<path d="M127.689 191.957H652.165" stroke="#DEE4DF" stroke-width="0.392572" stroke-dasharray="5.63"/>
<path d="M127.689 224.147H652.165" stroke="#DEE4DF" stroke-width="0.392572" stroke-dasharray="5.63"/>
<path d="M127.689 257.516H365.795H652.165" stroke="#DEE4DF" stroke-width="0.392572" stroke-dasharray="5.63"/>
<rect width="18.7333" height="175.156" rx="4.68331" transform="matrix(-1 0 0 1 159.535 83.4062)" fill="#8F00FF"/>
<rect width="18.7333" height="81.4896" rx="4.68331" transform="matrix(-1 0 0 1 182.953 177.072)" fill="#553EF2"/>
<rect width="18.7333" height="33.7199" rx="4.68331" transform="matrix(-1 0 0 1 207.307 224.843)" fill="#FF1494"/>
<path d="M290.668 103.545C290.668 100.958 288.571 98.8613 285.985 98.8613H276.618C274.032 98.8613 271.935 100.958 271.935 103.545V269.334C271.935 271.92 274.032 274.017 276.618 274.017H285.985C288.571 274.017 290.668 271.92 290.668 269.334V103.545Z" fill="#8F00FF"/>
<path d="M314.086 193.933C314.086 192.898 313.247 192.06 312.213 192.06H297.226C296.191 192.06 295.353 192.898 295.353 193.933V258.563H314.086V193.933Z" fill="#553EF2"/>
<rect width="18.7333" height="99.2862" rx="4.68331" transform="matrix(-1 0 0 1 338.439 159.276)" fill="#FF1494"/>
<path d="M552.934 103.545C552.934 100.958 550.837 98.8613 548.25 98.8613H538.884C536.297 98.8613 534.2 100.958 534.2 103.545V269.334C534.2 271.92 536.297 274.017 538.884 274.017H548.25C550.837 274.017 552.934 271.92 552.934 269.334V103.545Z" fill="#8F00FF"/>
<rect width="18.7333" height="66.503" rx="4.68331" transform="matrix(-1 0 0 1 576.352 192.06)" fill="#553EF2"/>
<rect width="18.7333" height="99.2862" rx="4.68331" transform="matrix(-1 0 0 1 600.705 159.276)" fill="#FF1494"/>
<path d="M421.801 68.4197C421.801 65.8331 419.704 63.7363 417.117 63.7363H407.751C405.164 63.7363 403.068 65.8331 403.068 68.4196V269.802C403.068 272.389 405.164 274.485 407.751 274.485H417.117C419.704 274.485 421.801 272.389 421.801 269.802V68.4197Z" fill="#8F00FF"/>
<rect width="18.7333" height="98.3496" rx="4.68331" transform="matrix(-1 0 0 1 445.219 160.213)" fill="#553EF2"/>
<rect width="18.7333" height="138.626" rx="4.68331" transform="matrix(-1 0 0 1 469.572 119.937)" fill="#FF1494"/>
</g>
<g filter="url(#filter1_d_1006_3403)">
<ellipse cx="320.812" cy="139.533" rx="5.88858" ry="5.87235" fill="white"/>
</g>
</g>
</g>
</g>
<defs>
<filter id="filter0_d_1006_3403" x="0.303028" y="0.21681" width="665.966" height="360.615" filterUnits="userSpaceOnUse" color-interpolation-filters="sRGB">
<feFlood flood-opacity="0" result="BackgroundImageFix"/>
<feColorMatrix in="SourceAlpha" type="matrix" values="0 0 0 0 0 0 0 0 0 0 0 0 0 0 0 0 0 0 127 0" result="hardAlpha"/>
<feOffset dy="4.68331"/>
<feGaussianBlur stdDeviation="18.7333"/>
<feComposite in2="hardAlpha" operator="out"/>
<feColorMatrix type="matrix" values="0 0 0 0 0 0 0 0 0 0.105882 0 0 0 0 0.419608 0 0 0 0.08 0"/>
<feBlend mode="normal" in2="BackgroundImageFix" result="effect1_dropShadow_1006_3403"/>
<feBlend mode="normal" in="SourceGraphic" in2="effect1_dropShadow_1006_3403" result="shape"/>
</filter>
<filter id="filter1_d_1006_3403" x="291.37" y="114.032" width="58.886" height="58.8537" filterUnits="userSpaceOnUse" color-interpolation-filters="sRGB">
<feFlood flood-opacity="0" result="BackgroundImageFix"/>
<feColorMatrix in="SourceAlpha" type="matrix" values="0 0 0 0 0 0 0 0 0 0 0 0 0 0 0 0 0 0 127 0" result="hardAlpha"/>
<feOffset dy="3.92572"/>
<feGaussianBlur stdDeviation="11.7772"/>
<feColorMatrix type="matrix" values="0 0 0 0 0 0 0 0 0 0 0 0 0 0 0 0 0 0 0.15 0"/>
<feBlend mode="normal" in2="BackgroundImageFix" result="effect1_dropShadow_1006_3403"/>
<feBlend mode="normal" in="SourceGraphic" in2="effect1_dropShadow_1006_3403" result="shape"/>
</filter>
<clipPath id="clip0_1006_3403">
<rect x="37.7695" y="33" width="591.034" height="285.682" rx="15.7029" fill="white"/>
</clipPath>
<clipPath id="clip1_1006_3403">
<rect width="549.821" height="238.191" fill="white" transform="translate(56.5039 55.3066)"/>
</clipPath>
<clipPath id="clip2_1006_3403">
<rect width="501.115" height="195.762" fill="white" transform="translate(127.689 62.8008)"/>
</clipPath>
</defs>
</svg>
