<svg width="762" height="442" viewBox="0 0 762 442" fill="none" xmlns="http://www.w3.org/2000/svg">
<g filter="url(#filter0_d_505_3076)">
<g clip-path="url(#clip0_505_3076)">
<rect x="40" y="35" width="689" height="368" rx="16.7647" fill="white"/>
<g clip-path="url(#clip1_505_3076)">
<path d="M155.855 358.135L155.171 358.687C154.811 358.171 154.223 357.835 153.419 357.835C152.579 357.835 151.607 358.339 151.607 359.431C151.607 360.511 152.507 360.787 153.455 361.099C154.655 361.495 155.975 361.879 155.975 363.583C155.975 365.287 154.547 366.031 153.203 366.031C152.171 366.031 151.139 365.611 150.527 364.771L151.271 364.219C151.643 364.819 152.327 365.287 153.215 365.287C154.091 365.287 155.099 364.735 155.099 363.643C155.099 362.455 154.103 362.155 153.023 361.819C151.895 361.471 150.743 360.979 150.743 359.443C150.743 357.799 152.207 357.103 153.455 357.103C154.595 357.103 155.447 357.583 155.855 358.135ZM158.596 364.867V368.695H157.78V360.199H158.596V361.171H158.632C159.1 360.439 159.94 360.055 160.744 360.055C162.496 360.055 163.648 361.351 163.648 363.007C163.648 364.663 162.496 365.959 160.744 365.959C159.94 365.959 159.1 365.563 158.632 364.867H158.596ZM162.784 363.007C162.784 361.759 162.016 360.739 160.66 360.739C159.4 360.739 158.5 361.723 158.5 363.007C158.5 364.291 159.4 365.263 160.66 365.263C162.016 365.263 162.784 364.255 162.784 363.007ZM165.397 361.435C165.397 361.135 165.385 360.583 165.349 360.199H166.129C166.153 360.499 166.177 360.919 166.177 361.159H166.201C166.513 360.511 167.209 360.055 168.001 360.055C168.205 360.055 168.373 360.067 168.541 360.115L168.433 360.883C168.337 360.847 168.073 360.811 167.857 360.811C166.993 360.811 166.213 361.435 166.213 362.935V365.815H165.397V361.435ZM170.549 360.199V365.815H169.733V360.199H170.549ZM170.717 358.039C170.717 358.375 170.429 358.615 170.141 358.615C169.853 358.615 169.565 358.375 169.565 358.039C169.565 357.703 169.853 357.463 170.141 357.463C170.429 357.463 170.717 357.703 170.717 358.039ZM172.673 360.199H173.453C173.477 360.499 173.501 360.919 173.501 361.159H173.525C173.837 360.511 174.653 360.055 175.445 360.055C176.873 360.055 177.581 360.979 177.581 362.371V365.815H176.765V362.707C176.765 361.531 176.417 360.739 175.241 360.739C174.377 360.739 173.537 361.435 173.537 362.935V365.815H172.721V361.435C172.721 361.135 172.709 360.583 172.673 360.199ZM179.406 367.567L179.994 366.943C180.438 367.519 181.29 367.975 182.142 367.975C183.75 367.975 184.338 366.979 184.338 365.767V364.711H184.314C183.882 365.407 183.006 365.815 182.19 365.815C180.438 365.815 179.286 364.603 179.286 362.959C179.286 361.363 180.438 360.055 182.19 360.055C183.006 360.055 183.87 360.451 184.314 361.171H184.338V360.199H185.154V365.767C185.154 366.991 184.59 368.695 182.106 368.695C181.074 368.695 180.066 368.263 179.406 367.567ZM180.15 362.935C180.15 364.111 180.918 365.119 182.274 365.119C183.534 365.119 184.434 364.231 184.434 362.935C184.434 361.759 183.534 360.739 182.274 360.739C180.918 360.739 180.15 361.759 180.15 362.935ZM193.888 361.063L193.264 361.531C193.024 361.063 192.508 360.739 191.884 360.739C191.296 360.739 190.696 360.991 190.696 361.615C190.696 362.143 191.116 362.383 192.04 362.575C193.36 362.851 193.984 363.343 193.984 364.219C193.984 365.503 192.904 365.959 191.872 365.959C191.02 365.959 190.168 365.623 189.652 364.867L190.3 364.387C190.588 364.879 191.2 365.263 191.86 365.263C192.556 365.263 193.18 365.011 193.18 364.279C193.18 363.691 192.592 363.451 191.524 363.199C190.864 363.043 189.916 362.755 189.916 361.687C189.916 360.547 190.9 360.055 191.92 360.055C192.7 360.055 193.528 360.427 193.888 361.063ZM199.148 362.371V362.191C199.148 361.219 198.62 360.739 197.648 360.739C196.988 360.739 196.376 361.003 195.98 361.399L195.524 360.859C195.98 360.403 196.772 360.055 197.732 360.055C198.944 360.055 199.916 360.727 199.916 362.095V364.555C199.916 364.987 199.952 365.503 200.012 365.815H199.28C199.232 365.539 199.196 365.203 199.196 364.903H199.172C198.656 365.647 198.032 365.959 197.132 365.959C196.28 365.959 195.188 365.503 195.188 364.255C195.188 362.527 197.096 362.371 199.148 362.371ZM199.148 363.007H198.908C197.576 363.007 196.028 363.151 196.028 364.219C196.028 365.023 196.712 365.287 197.348 365.287C198.5 365.287 199.148 364.423 199.148 363.427V363.007ZM202.858 356.743V365.815H202.042V356.743H202.858ZM205.498 362.575H209.326C209.278 361.519 208.63 360.739 207.466 360.739C206.374 360.739 205.57 361.615 205.498 362.575ZM210.154 362.839C210.154 362.947 210.154 363.079 210.142 363.223H205.486C205.51 364.351 206.386 365.263 207.538 365.263C208.378 365.263 209.026 364.795 209.338 364.291L209.95 364.771C209.29 365.611 208.462 365.959 207.538 365.959C205.87 365.959 204.634 364.699 204.634 363.007C204.634 361.315 205.87 360.055 207.466 360.055C209.23 360.055 210.154 361.303 210.154 362.839ZM218.125 357.319V365.815H217.261V358.387L215.725 359.695L215.197 359.095L217.357 357.319H218.125Z" fill="#6B6B6B"/>
<path d="M291.855 358.135L291.171 358.687C290.811 358.171 290.223 357.835 289.419 357.835C288.579 357.835 287.607 358.339 287.607 359.431C287.607 360.511 288.507 360.787 289.455 361.099C290.655 361.495 291.975 361.879 291.975 363.583C291.975 365.287 290.547 366.031 289.203 366.031C288.171 366.031 287.139 365.611 286.527 364.771L287.271 364.219C287.643 364.819 288.327 365.287 289.215 365.287C290.091 365.287 291.099 364.735 291.099 363.643C291.099 362.455 290.103 362.155 289.023 361.819C287.895 361.471 286.743 360.979 286.743 359.443C286.743 357.799 288.207 357.103 289.455 357.103C290.595 357.103 291.447 357.583 291.855 358.135ZM294.596 364.867V368.695H293.78V360.199H294.596V361.171H294.632C295.1 360.439 295.94 360.055 296.744 360.055C298.496 360.055 299.648 361.351 299.648 363.007C299.648 364.663 298.496 365.959 296.744 365.959C295.94 365.959 295.1 365.563 294.632 364.867H294.596ZM298.784 363.007C298.784 361.759 298.016 360.739 296.66 360.739C295.4 360.739 294.5 361.723 294.5 363.007C294.5 364.291 295.4 365.263 296.66 365.263C298.016 365.263 298.784 364.255 298.784 363.007ZM301.397 361.435C301.397 361.135 301.385 360.583 301.349 360.199H302.129C302.153 360.499 302.177 360.919 302.177 361.159H302.201C302.513 360.511 303.209 360.055 304.001 360.055C304.205 360.055 304.373 360.067 304.541 360.115L304.433 360.883C304.337 360.847 304.073 360.811 303.857 360.811C302.993 360.811 302.213 361.435 302.213 362.935V365.815H301.397V361.435ZM306.549 360.199V365.815H305.733V360.199H306.549ZM306.717 358.039C306.717 358.375 306.429 358.615 306.141 358.615C305.853 358.615 305.565 358.375 305.565 358.039C305.565 357.703 305.853 357.463 306.141 357.463C306.429 357.463 306.717 357.703 306.717 358.039ZM308.673 360.199H309.453C309.477 360.499 309.501 360.919 309.501 361.159H309.525C309.837 360.511 310.653 360.055 311.445 360.055C312.873 360.055 313.581 360.979 313.581 362.371V365.815H312.765V362.707C312.765 361.531 312.417 360.739 311.241 360.739C310.377 360.739 309.537 361.435 309.537 362.935V365.815H308.721V361.435C308.721 361.135 308.709 360.583 308.673 360.199ZM315.406 367.567L315.994 366.943C316.438 367.519 317.29 367.975 318.142 367.975C319.75 367.975 320.338 366.979 320.338 365.767V364.711H320.314C319.882 365.407 319.006 365.815 318.19 365.815C316.438 365.815 315.286 364.603 315.286 362.959C315.286 361.363 316.438 360.055 318.19 360.055C319.006 360.055 319.87 360.451 320.314 361.171H320.338V360.199H321.154V365.767C321.154 366.991 320.59 368.695 318.106 368.695C317.074 368.695 316.066 368.263 315.406 367.567ZM316.15 362.935C316.15 364.111 316.918 365.119 318.274 365.119C319.534 365.119 320.434 364.231 320.434 362.935C320.434 361.759 319.534 360.739 318.274 360.739C316.918 360.739 316.15 361.759 316.15 362.935ZM329.888 361.063L329.264 361.531C329.024 361.063 328.508 360.739 327.884 360.739C327.296 360.739 326.696 360.991 326.696 361.615C326.696 362.143 327.116 362.383 328.04 362.575C329.36 362.851 329.984 363.343 329.984 364.219C329.984 365.503 328.904 365.959 327.872 365.959C327.02 365.959 326.168 365.623 325.652 364.867L326.3 364.387C326.588 364.879 327.2 365.263 327.86 365.263C328.556 365.263 329.18 365.011 329.18 364.279C329.18 363.691 328.592 363.451 327.524 363.199C326.864 363.043 325.916 362.755 325.916 361.687C325.916 360.547 326.9 360.055 327.92 360.055C328.7 360.055 329.528 360.427 329.888 361.063ZM335.148 362.371V362.191C335.148 361.219 334.62 360.739 333.648 360.739C332.988 360.739 332.376 361.003 331.98 361.399L331.524 360.859C331.98 360.403 332.772 360.055 333.732 360.055C334.944 360.055 335.916 360.727 335.916 362.095V364.555C335.916 364.987 335.952 365.503 336.012 365.815H335.28C335.232 365.539 335.196 365.203 335.196 364.903H335.172C334.656 365.647 334.032 365.959 333.132 365.959C332.28 365.959 331.188 365.503 331.188 364.255C331.188 362.527 333.096 362.371 335.148 362.371ZM335.148 363.007H334.908C333.576 363.007 332.028 363.151 332.028 364.219C332.028 365.023 332.712 365.287 333.348 365.287C334.5 365.287 335.148 364.423 335.148 363.427V363.007ZM338.858 356.743V365.815H338.042V356.743H338.858ZM341.498 362.575H345.326C345.278 361.519 344.63 360.739 343.466 360.739C342.374 360.739 341.57 361.615 341.498 362.575ZM346.154 362.839C346.154 362.947 346.154 363.079 346.142 363.223H341.486C341.51 364.351 342.386 365.263 343.538 365.263C344.378 365.263 345.026 364.795 345.338 364.291L345.95 364.771C345.29 365.611 344.462 365.959 343.538 365.959C341.87 365.959 340.634 364.699 340.634 363.007C340.634 361.315 341.87 360.055 343.466 360.055C345.23 360.055 346.154 361.303 346.154 362.839ZM355.877 365.047V365.815H350.441V364.915L353.921 361.399C354.437 360.871 354.941 360.235 354.941 359.455C354.941 358.471 354.173 357.835 353.261 357.835C352.349 357.835 351.689 358.471 351.509 359.347L350.657 359.179C350.897 357.979 351.929 357.103 353.261 357.103C354.629 357.103 355.817 357.895 355.817 359.443C355.817 360.535 355.181 361.267 354.437 362.011L351.377 365.047H355.877Z" fill="#6B6B6B"/>
<path d="M427.855 358.135L427.171 358.687C426.811 358.171 426.223 357.835 425.419 357.835C424.579 357.835 423.607 358.339 423.607 359.431C423.607 360.511 424.507 360.787 425.455 361.099C426.655 361.495 427.975 361.879 427.975 363.583C427.975 365.287 426.547 366.031 425.203 366.031C424.171 366.031 423.139 365.611 422.527 364.771L423.271 364.219C423.643 364.819 424.327 365.287 425.215 365.287C426.091 365.287 427.099 364.735 427.099 363.643C427.099 362.455 426.103 362.155 425.023 361.819C423.895 361.471 422.743 360.979 422.743 359.443C422.743 357.799 424.207 357.103 425.455 357.103C426.595 357.103 427.447 357.583 427.855 358.135ZM430.596 364.867V368.695H429.78V360.199H430.596V361.171H430.632C431.1 360.439 431.94 360.055 432.744 360.055C434.496 360.055 435.648 361.351 435.648 363.007C435.648 364.663 434.496 365.959 432.744 365.959C431.94 365.959 431.1 365.563 430.632 364.867H430.596ZM434.784 363.007C434.784 361.759 434.016 360.739 432.66 360.739C431.4 360.739 430.5 361.723 430.5 363.007C430.5 364.291 431.4 365.263 432.66 365.263C434.016 365.263 434.784 364.255 434.784 363.007ZM437.397 361.435C437.397 361.135 437.385 360.583 437.349 360.199H438.129C438.153 360.499 438.177 360.919 438.177 361.159H438.201C438.513 360.511 439.209 360.055 440.001 360.055C440.205 360.055 440.373 360.067 440.541 360.115L440.433 360.883C440.337 360.847 440.073 360.811 439.857 360.811C438.993 360.811 438.213 361.435 438.213 362.935V365.815H437.397V361.435ZM442.549 360.199V365.815H441.733V360.199H442.549ZM442.717 358.039C442.717 358.375 442.429 358.615 442.141 358.615C441.853 358.615 441.565 358.375 441.565 358.039C441.565 357.703 441.853 357.463 442.141 357.463C442.429 357.463 442.717 357.703 442.717 358.039ZM444.673 360.199H445.453C445.477 360.499 445.501 360.919 445.501 361.159H445.525C445.837 360.511 446.653 360.055 447.445 360.055C448.873 360.055 449.581 360.979 449.581 362.371V365.815H448.765V362.707C448.765 361.531 448.417 360.739 447.241 360.739C446.377 360.739 445.537 361.435 445.537 362.935V365.815H444.721V361.435C444.721 361.135 444.709 360.583 444.673 360.199ZM451.406 367.567L451.994 366.943C452.438 367.519 453.29 367.975 454.142 367.975C455.75 367.975 456.338 366.979 456.338 365.767V364.711H456.314C455.882 365.407 455.006 365.815 454.19 365.815C452.438 365.815 451.286 364.603 451.286 362.959C451.286 361.363 452.438 360.055 454.19 360.055C455.006 360.055 455.87 360.451 456.314 361.171H456.338V360.199H457.154V365.767C457.154 366.991 456.59 368.695 454.106 368.695C453.074 368.695 452.066 368.263 451.406 367.567ZM452.15 362.935C452.15 364.111 452.918 365.119 454.274 365.119C455.534 365.119 456.434 364.231 456.434 362.935C456.434 361.759 455.534 360.739 454.274 360.739C452.918 360.739 452.15 361.759 452.15 362.935ZM465.888 361.063L465.264 361.531C465.024 361.063 464.508 360.739 463.884 360.739C463.296 360.739 462.696 360.991 462.696 361.615C462.696 362.143 463.116 362.383 464.04 362.575C465.36 362.851 465.984 363.343 465.984 364.219C465.984 365.503 464.904 365.959 463.872 365.959C463.02 365.959 462.168 365.623 461.652 364.867L462.3 364.387C462.588 364.879 463.2 365.263 463.86 365.263C464.556 365.263 465.18 365.011 465.18 364.279C465.18 363.691 464.592 363.451 463.524 363.199C462.864 363.043 461.916 362.755 461.916 361.687C461.916 360.547 462.9 360.055 463.92 360.055C464.7 360.055 465.528 360.427 465.888 361.063ZM471.148 362.371V362.191C471.148 361.219 470.62 360.739 469.648 360.739C468.988 360.739 468.376 361.003 467.98 361.399L467.524 360.859C467.98 360.403 468.772 360.055 469.732 360.055C470.944 360.055 471.916 360.727 471.916 362.095V364.555C471.916 364.987 471.952 365.503 472.012 365.815H471.28C471.232 365.539 471.196 365.203 471.196 364.903H471.172C470.656 365.647 470.032 365.959 469.132 365.959C468.28 365.959 467.188 365.503 467.188 364.255C467.188 362.527 469.096 362.371 471.148 362.371ZM471.148 363.007H470.908C469.576 363.007 468.028 363.151 468.028 364.219C468.028 365.023 468.712 365.287 469.348 365.287C470.5 365.287 471.148 364.423 471.148 363.427V363.007ZM474.858 356.743V365.815H474.042V356.743H474.858ZM477.498 362.575H481.326C481.278 361.519 480.63 360.739 479.466 360.739C478.374 360.739 477.57 361.615 477.498 362.575ZM482.154 362.839C482.154 362.947 482.154 363.079 482.142 363.223H477.486C477.51 364.351 478.386 365.263 479.538 365.263C480.378 365.263 481.026 364.795 481.338 364.291L481.95 364.771C481.29 365.611 480.462 365.959 479.538 365.959C477.87 365.959 476.634 364.699 476.634 363.007C476.634 361.315 477.87 360.055 479.466 360.055C481.23 360.055 482.154 361.303 482.154 362.839ZM488.397 361.735V360.991H488.769C489.861 360.991 490.749 360.559 490.749 359.431C490.749 358.483 489.981 357.835 489.069 357.835C488.361 357.835 487.785 358.183 487.449 358.831L486.717 358.447C487.245 357.535 488.085 357.103 489.117 357.103C490.449 357.103 491.601 357.907 491.601 359.383C491.601 360.379 490.965 361.099 490.125 361.327V361.351C491.097 361.555 491.841 362.323 491.841 363.463C491.841 365.083 490.581 366.031 489.105 366.031C487.869 366.031 486.897 365.407 486.417 364.291L487.233 363.991C487.521 364.795 488.241 365.287 489.105 365.287C490.077 365.287 490.977 364.603 490.977 363.463C490.977 362.179 489.885 361.735 488.769 361.735H488.397Z" fill="#6B6B6B"/>
<path d="M563.855 358.135L563.171 358.687C562.811 358.171 562.223 357.835 561.419 357.835C560.579 357.835 559.607 358.339 559.607 359.431C559.607 360.511 560.507 360.787 561.455 361.099C562.655 361.495 563.975 361.879 563.975 363.583C563.975 365.287 562.547 366.031 561.203 366.031C560.171 366.031 559.139 365.611 558.527 364.771L559.271 364.219C559.643 364.819 560.327 365.287 561.215 365.287C562.091 365.287 563.099 364.735 563.099 363.643C563.099 362.455 562.103 362.155 561.023 361.819C559.895 361.471 558.743 360.979 558.743 359.443C558.743 357.799 560.207 357.103 561.455 357.103C562.595 357.103 563.447 357.583 563.855 358.135ZM566.596 364.867V368.695H565.78V360.199H566.596V361.171H566.632C567.1 360.439 567.94 360.055 568.744 360.055C570.496 360.055 571.648 361.351 571.648 363.007C571.648 364.663 570.496 365.959 568.744 365.959C567.94 365.959 567.1 365.563 566.632 364.867H566.596ZM570.784 363.007C570.784 361.759 570.016 360.739 568.66 360.739C567.4 360.739 566.5 361.723 566.5 363.007C566.5 364.291 567.4 365.263 568.66 365.263C570.016 365.263 570.784 364.255 570.784 363.007ZM573.397 361.435C573.397 361.135 573.385 360.583 573.349 360.199H574.129C574.153 360.499 574.177 360.919 574.177 361.159H574.201C574.513 360.511 575.209 360.055 576.001 360.055C576.205 360.055 576.373 360.067 576.541 360.115L576.433 360.883C576.337 360.847 576.073 360.811 575.857 360.811C574.993 360.811 574.213 361.435 574.213 362.935V365.815H573.397V361.435ZM578.549 360.199V365.815H577.733V360.199H578.549ZM578.717 358.039C578.717 358.375 578.429 358.615 578.141 358.615C577.853 358.615 577.565 358.375 577.565 358.039C577.565 357.703 577.853 357.463 578.141 357.463C578.429 357.463 578.717 357.703 578.717 358.039ZM580.673 360.199H581.453C581.477 360.499 581.501 360.919 581.501 361.159H581.525C581.837 360.511 582.653 360.055 583.445 360.055C584.873 360.055 585.581 360.979 585.581 362.371V365.815H584.765V362.707C584.765 361.531 584.417 360.739 583.241 360.739C582.377 360.739 581.537 361.435 581.537 362.935V365.815H580.721V361.435C580.721 361.135 580.709 360.583 580.673 360.199ZM587.406 367.567L587.994 366.943C588.438 367.519 589.29 367.975 590.142 367.975C591.75 367.975 592.338 366.979 592.338 365.767V364.711H592.314C591.882 365.407 591.006 365.815 590.19 365.815C588.438 365.815 587.286 364.603 587.286 362.959C587.286 361.363 588.438 360.055 590.19 360.055C591.006 360.055 591.87 360.451 592.314 361.171H592.338V360.199H593.154V365.767C593.154 366.991 592.59 368.695 590.106 368.695C589.074 368.695 588.066 368.263 587.406 367.567ZM588.15 362.935C588.15 364.111 588.918 365.119 590.274 365.119C591.534 365.119 592.434 364.231 592.434 362.935C592.434 361.759 591.534 360.739 590.274 360.739C588.918 360.739 588.15 361.759 588.15 362.935ZM601.888 361.063L601.264 361.531C601.024 361.063 600.508 360.739 599.884 360.739C599.296 360.739 598.696 360.991 598.696 361.615C598.696 362.143 599.116 362.383 600.04 362.575C601.36 362.851 601.984 363.343 601.984 364.219C601.984 365.503 600.904 365.959 599.872 365.959C599.02 365.959 598.168 365.623 597.652 364.867L598.3 364.387C598.588 364.879 599.2 365.263 599.86 365.263C600.556 365.263 601.18 365.011 601.18 364.279C601.18 363.691 600.592 363.451 599.524 363.199C598.864 363.043 597.916 362.755 597.916 361.687C597.916 360.547 598.9 360.055 599.92 360.055C600.7 360.055 601.528 360.427 601.888 361.063ZM607.148 362.371V362.191C607.148 361.219 606.62 360.739 605.648 360.739C604.988 360.739 604.376 361.003 603.98 361.399L603.524 360.859C603.98 360.403 604.772 360.055 605.732 360.055C606.944 360.055 607.916 360.727 607.916 362.095V364.555C607.916 364.987 607.952 365.503 608.012 365.815H607.28C607.232 365.539 607.196 365.203 607.196 364.903H607.172C606.656 365.647 606.032 365.959 605.132 365.959C604.28 365.959 603.188 365.503 603.188 364.255C603.188 362.527 605.096 362.371 607.148 362.371ZM607.148 363.007H606.908C605.576 363.007 604.028 363.151 604.028 364.219C604.028 365.023 604.712 365.287 605.348 365.287C606.5 365.287 607.148 364.423 607.148 363.427V363.007ZM610.858 356.743V365.815H610.042V356.743H610.858ZM613.498 362.575H617.326C617.278 361.519 616.63 360.739 615.466 360.739C614.374 360.739 613.57 361.615 613.498 362.575ZM618.154 362.839C618.154 362.947 618.154 363.079 618.142 363.223H613.486C613.51 364.351 614.386 365.263 615.538 365.263C616.378 365.263 617.026 364.795 617.338 364.291L617.95 364.771C617.29 365.611 616.462 365.959 615.538 365.959C613.87 365.959 612.634 364.699 612.634 363.007C612.634 361.315 613.87 360.055 615.466 360.055C617.23 360.055 618.154 361.303 618.154 362.839ZM627.061 357.319V363.007H628.309V363.763H627.061V365.815H626.221V363.763H622.333V362.923L625.933 357.319H627.061ZM626.221 363.007V358.291H626.197L623.233 363.007H626.221Z" fill="#6B6B6B"/>
<path d="M65.5942 290.216L63.2062 293.924L63.2302 293.948C63.4822 293.756 64.0102 293.636 64.4422 293.636C65.9182 293.636 67.0342 294.704 67.0342 296.252C67.0342 297.836 65.8702 298.928 64.2742 298.928C62.6782 298.928 61.5142 297.836 61.5142 296.252C61.5142 295.376 61.8622 294.632 62.2822 293.948L64.5982 290.216H65.5942ZM62.3782 296.252C62.3782 297.356 63.1582 298.196 64.2742 298.196C65.3902 298.196 66.1702 297.356 66.1702 296.252C66.1702 295.16 65.4382 294.332 64.2742 294.332C63.1102 294.332 62.3782 295.16 62.3782 296.252ZM71.2351 290C73.3471 290 74.0191 292.268 74.0191 294.476C74.0191 296.684 73.3471 298.928 71.2351 298.928C69.0991 298.928 68.4511 296.684 68.4511 294.476C68.4511 292.268 69.0991 290 71.2351 290ZM71.2351 290.732C69.7231 290.732 69.3271 292.784 69.3271 294.476C69.3271 296.168 69.7231 298.184 71.2351 298.184C72.7231 298.184 73.1431 296.168 73.1431 294.476C73.1431 292.784 72.7231 290.732 71.2351 290.732ZM76.9121 297.572L75.9401 300.392H75.2561L76.0601 297.572H76.9121ZM81.3133 290C83.4253 290 84.0973 292.268 84.0973 294.476C84.0973 296.684 83.4253 298.928 81.3133 298.928C79.1773 298.928 78.5293 296.684 78.5293 294.476C78.5293 292.268 79.1773 290 81.3133 290ZM81.3133 290.732C79.8013 290.732 79.4053 292.784 79.4053 294.476C79.4053 296.168 79.8013 298.184 81.3133 298.184C82.8013 298.184 83.2213 296.168 83.2213 294.476C83.2213 292.784 82.8013 290.732 81.3133 290.732ZM88.2742 290C90.3862 290 91.0582 292.268 91.0582 294.476C91.0582 296.684 90.3862 298.928 88.2742 298.928C86.1382 298.928 85.4902 296.684 85.4902 294.476C85.4902 292.268 86.1382 290 88.2742 290ZM88.2742 290.732C86.7622 290.732 86.3662 292.784 86.3662 294.476C86.3662 296.168 86.7622 298.184 88.2742 298.184C89.7622 298.184 90.1822 296.168 90.1822 294.476C90.1822 292.784 89.7622 290.732 88.2742 290.732ZM95.2351 290C97.3471 290 98.0191 292.268 98.0191 294.476C98.0191 296.684 97.3471 298.928 95.2351 298.928C93.0991 298.928 92.4511 296.684 92.4511 294.476C92.4511 292.268 93.0991 290 95.2351 290ZM95.2351 290.732C93.7231 290.732 93.3271 292.784 93.3271 294.476C93.3271 296.168 93.7231 298.184 95.2351 298.184C96.7231 298.184 97.1431 296.168 97.1431 294.476C97.1431 292.784 96.7231 290.732 95.2351 290.732Z" fill="#6B6B6B"/>
<path d="M66.0262 326.584V332.272H67.2742V333.028H66.0262V335.08H65.1862V333.028H61.2982V332.188L64.8982 326.584H66.0262ZM65.1862 332.272V327.556H65.1622L62.1982 332.272H65.1862ZM71.2351 326.368C73.3471 326.368 74.0191 328.636 74.0191 330.844C74.0191 333.052 73.3471 335.296 71.2351 335.296C69.0991 335.296 68.4511 333.052 68.4511 330.844C68.4511 328.636 69.0991 326.368 71.2351 326.368ZM71.2351 327.1C69.7231 327.1 69.3271 329.152 69.3271 330.844C69.3271 332.536 69.7231 334.552 71.2351 334.552C72.7231 334.552 73.1431 332.536 73.1431 330.844C73.1431 329.152 72.7231 327.1 71.2351 327.1ZM76.9121 333.94L75.9401 336.76H75.2561L76.0601 333.94H76.9121ZM81.3133 326.368C83.4253 326.368 84.0973 328.636 84.0973 330.844C84.0973 333.052 83.4253 335.296 81.3133 335.296C79.1773 335.296 78.5293 333.052 78.5293 330.844C78.5293 328.636 79.1773 326.368 81.3133 326.368ZM81.3133 327.1C79.8013 327.1 79.4053 329.152 79.4053 330.844C79.4053 332.536 79.8013 334.552 81.3133 334.552C82.8013 334.552 83.2213 332.536 83.2213 330.844C83.2213 329.152 82.8013 327.1 81.3133 327.1ZM88.2742 326.368C90.3862 326.368 91.0582 328.636 91.0582 330.844C91.0582 333.052 90.3862 335.296 88.2742 335.296C86.1382 335.296 85.4902 333.052 85.4902 330.844C85.4902 328.636 86.1382 326.368 88.2742 326.368ZM88.2742 327.1C86.7622 327.1 86.3662 329.152 86.3662 330.844C86.3662 332.536 86.7622 334.552 88.2742 334.552C89.7622 334.552 90.1822 332.536 90.1822 330.844C90.1822 329.152 89.7622 327.1 88.2742 327.1ZM95.2351 326.368C97.3471 326.368 98.0191 328.636 98.0191 330.844C98.0191 333.052 97.3471 335.296 95.2351 335.296C93.0991 335.296 92.4511 333.052 92.4511 330.844C92.4511 328.636 93.0991 326.368 95.2351 326.368ZM95.2351 327.1C93.7231 327.1 93.3271 329.152 93.3271 330.844C93.3271 332.536 93.7231 334.552 95.2351 334.552C96.7231 334.552 97.1431 332.536 97.1431 330.844C97.1431 329.152 96.7231 327.1 95.2351 327.1Z" fill="#6B6B6B"/>
<path d="M96.5142 361.592C96.5142 359.096 97.1862 357.176 99.6342 357.176C102.082 357.176 102.754 359.096 102.754 361.592C102.754 364.136 102.082 366.056 99.6342 366.056C97.1862 366.056 96.5142 364.136 96.5142 361.592ZM101.41 361.592C101.41 359.96 101.23 358.424 99.6342 358.424C98.0382 358.424 97.8582 359.96 97.8582 361.592C97.8582 363.308 98.0382 364.808 99.6342 364.808C101.23 364.808 101.41 363.308 101.41 361.592Z" fill="#6B6B6B"/>
<path d="M64.7137 259.845C65.6377 260.109 66.3217 260.973 66.3217 262.113C66.3217 263.601 65.0497 264.561 63.5977 264.561C62.1457 264.561 60.8737 263.601 60.8737 262.113C60.8737 260.973 61.5577 260.121 62.4817 259.845V259.821C61.7257 259.569 61.1977 258.777 61.1977 257.901C61.1977 256.521 62.3017 255.633 63.5977 255.633C64.8937 255.633 65.9977 256.521 65.9977 257.901C65.9977 258.777 65.4697 259.569 64.7137 259.821V259.845ZM62.0377 257.949C62.0377 258.837 62.7337 259.473 63.5977 259.473C64.4617 259.473 65.1577 258.837 65.1577 257.949C65.1577 257.037 64.4857 256.365 63.5977 256.365C62.7097 256.365 62.0377 257.037 62.0377 257.949ZM61.7377 262.017C61.7377 263.049 62.4817 263.829 63.5977 263.829C64.7137 263.829 65.4577 263.049 65.4577 262.017C65.4577 260.997 64.7137 260.241 63.5977 260.241C62.4817 260.241 61.7377 260.997 61.7377 262.017ZM70.5586 255.633C72.6706 255.633 73.3426 257.901 73.3426 260.109C73.3426 262.317 72.6706 264.561 70.5586 264.561C68.4226 264.561 67.7746 262.317 67.7746 260.109C67.7746 257.901 68.4226 255.633 70.5586 255.633ZM70.5586 256.365C69.0466 256.365 68.6506 258.417 68.6506 260.109C68.6506 261.801 69.0466 263.817 70.5586 263.817C72.0466 263.817 72.4666 261.801 72.4666 260.109C72.4666 258.417 72.0466 256.365 70.5586 256.365ZM76.2356 263.205L75.2636 266.025H74.5796L75.3836 263.205H76.2356ZM80.6367 255.633C82.7487 255.633 83.4207 257.901 83.4207 260.109C83.4207 262.317 82.7487 264.561 80.6367 264.561C78.5007 264.561 77.8527 262.317 77.8527 260.109C77.8527 257.901 78.5007 255.633 80.6367 255.633ZM80.6367 256.365C79.1247 256.365 78.7287 258.417 78.7287 260.109C78.7287 261.801 79.1247 263.817 80.6367 263.817C82.1247 263.817 82.5447 261.801 82.5447 260.109C82.5447 258.417 82.1247 256.365 80.6367 256.365ZM87.5977 255.633C89.7097 255.633 90.3817 257.901 90.3817 260.109C90.3817 262.317 89.7097 264.561 87.5977 264.561C85.4617 264.561 84.8137 262.317 84.8137 260.109C84.8137 257.901 85.4617 255.633 87.5977 255.633ZM87.5977 256.365C86.0857 256.365 85.6897 258.417 85.6897 260.109C85.6897 261.801 86.0857 263.817 87.5977 263.817C89.0857 263.817 89.5057 261.801 89.5057 260.109C89.5057 258.417 89.0857 256.365 87.5977 256.365ZM94.5586 255.633C96.6706 255.633 97.3426 257.901 97.3426 260.109C97.3426 262.317 96.6706 264.561 94.5586 264.561C92.4226 264.561 91.7746 262.317 91.7746 260.109C91.7746 257.901 92.4226 255.633 94.5586 255.633ZM94.5586 256.365C93.0466 256.365 92.6506 258.417 92.6506 260.109C92.6506 261.801 93.0466 263.817 94.5586 263.817C96.0466 263.817 96.4666 261.801 96.4666 260.109C96.4666 258.417 96.0466 256.365 94.5586 256.365Z" fill="#6B6B6B"/>
<path d="M63.4137 222.481V230.977H62.5497V223.549L61.0137 224.857L60.4857 224.257L62.6457 222.481H63.4137ZM69.5586 222.265C71.6706 222.265 72.3426 224.533 72.3426 226.741C72.3426 228.949 71.6706 231.193 69.5586 231.193C67.4226 231.193 66.7746 228.949 66.7746 226.741C66.7746 224.533 67.4226 222.265 69.5586 222.265ZM69.5586 222.997C68.0466 222.997 67.6506 225.049 67.6506 226.741C67.6506 228.433 68.0466 230.449 69.5586 230.449C71.0466 230.449 71.4666 228.433 71.4666 226.741C71.4666 225.049 71.0466 222.997 69.5586 222.997ZM76.5196 222.265C78.6316 222.265 79.3036 224.533 79.3036 226.741C79.3036 228.949 78.6316 231.193 76.5196 231.193C74.3836 231.193 73.7356 228.949 73.7356 226.741C73.7356 224.533 74.3836 222.265 76.5196 222.265ZM76.5196 222.997C75.0076 222.997 74.6116 225.049 74.6116 226.741C74.6116 228.433 75.0076 230.449 76.5196 230.449C78.0076 230.449 78.4276 228.433 78.4276 226.741C78.4276 225.049 78.0076 222.997 76.5196 222.997ZM82.1965 229.837L81.2245 232.657H80.5405L81.3445 229.837H82.1965ZM86.5977 222.265C88.7097 222.265 89.3817 224.533 89.3817 226.741C89.3817 228.949 88.7097 231.193 86.5977 231.193C84.4617 231.193 83.8137 228.949 83.8137 226.741C83.8137 224.533 84.4617 222.265 86.5977 222.265ZM86.5977 222.997C85.0857 222.997 84.6897 225.049 84.6897 226.741C84.6897 228.433 85.0857 230.449 86.5977 230.449C88.0857 230.449 88.5057 228.433 88.5057 226.741C88.5057 225.049 88.0857 222.997 86.5977 222.997ZM93.5586 222.265C95.6706 222.265 96.3426 224.533 96.3426 226.741C96.3426 228.949 95.6706 231.193 93.5586 231.193C91.4226 231.193 90.7746 228.949 90.7746 226.741C90.7746 224.533 91.4226 222.265 93.5586 222.265ZM93.5586 222.997C92.0466 222.997 91.6506 225.049 91.6506 226.741C91.6506 228.433 92.0466 230.449 93.5586 230.449C95.0466 230.449 95.4666 228.433 95.4666 226.741C95.4666 225.049 95.0466 222.997 93.5586 222.997ZM100.52 222.265C102.632 222.265 103.304 224.533 103.304 226.741C103.304 228.949 102.632 231.193 100.52 231.193C98.3836 231.193 97.7356 228.949 97.7356 226.741C97.7356 224.533 98.3836 222.265 100.52 222.265ZM100.52 222.997C99.0076 222.997 98.6116 225.049 98.6116 226.741C98.6116 228.433 99.0076 230.449 100.52 230.449C102.008 230.449 102.428 228.433 102.428 226.741C102.428 225.049 102.008 222.997 100.52 222.997Z" fill="#6B6B6B"/>
<path d="M63.4137 189.113V197.609H62.5497V190.181L61.0137 191.489L60.4857 190.889L62.6457 189.113H63.4137ZM72.1266 196.841V197.609H66.6906V196.709L70.1706 193.193C70.6866 192.665 71.1906 192.029 71.1906 191.249C71.1906 190.265 70.4226 189.629 69.5106 189.629C68.5986 189.629 67.9386 190.265 67.7586 191.141L66.9066 190.973C67.1466 189.773 68.1786 188.897 69.5106 188.897C70.8786 188.897 72.0666 189.689 72.0666 191.237C72.0666 192.329 71.4306 193.061 70.6866 193.805L67.6266 196.841H72.1266ZM76.5196 188.897C78.6316 188.897 79.3036 191.165 79.3036 193.373C79.3036 195.581 78.6316 197.825 76.5196 197.825C74.3836 197.825 73.7356 195.581 73.7356 193.373C73.7356 191.165 74.3836 188.897 76.5196 188.897ZM76.5196 189.629C75.0076 189.629 74.6116 191.681 74.6116 193.373C74.6116 195.065 75.0076 197.081 76.5196 197.081C78.0076 197.081 78.4276 195.065 78.4276 193.373C78.4276 191.681 78.0076 189.629 76.5196 189.629ZM82.1965 196.469L81.2245 199.289H80.5405L81.3445 196.469H82.1965ZM86.5977 188.897C88.7097 188.897 89.3817 191.165 89.3817 193.373C89.3817 195.581 88.7097 197.825 86.5977 197.825C84.4617 197.825 83.8137 195.581 83.8137 193.373C83.8137 191.165 84.4617 188.897 86.5977 188.897ZM86.5977 189.629C85.0857 189.629 84.6897 191.681 84.6897 193.373C84.6897 195.065 85.0857 197.081 86.5977 197.081C88.0857 197.081 88.5057 195.065 88.5057 193.373C88.5057 191.681 88.0857 189.629 86.5977 189.629ZM93.5586 188.897C95.6706 188.897 96.3426 191.165 96.3426 193.373C96.3426 195.581 95.6706 197.825 93.5586 197.825C91.4226 197.825 90.7746 195.581 90.7746 193.373C90.7746 191.165 91.4226 188.897 93.5586 188.897ZM93.5586 189.629C92.0466 189.629 91.6506 191.681 91.6506 193.373C91.6506 195.065 92.0466 197.081 93.5586 197.081C95.0466 197.081 95.4666 195.065 95.4666 193.373C95.4666 191.681 95.0466 189.629 93.5586 189.629ZM100.52 188.897C102.632 188.897 103.304 191.165 103.304 193.373C103.304 195.581 102.632 197.825 100.52 197.825C98.3836 197.825 97.7356 195.581 97.7356 193.373C97.7356 191.165 98.3836 188.897 100.52 188.897ZM100.52 189.629C99.0076 189.629 98.6116 191.681 98.6116 193.373C98.6116 195.065 99.0076 197.081 100.52 197.081C102.008 197.081 102.428 195.065 102.428 193.373C102.428 191.681 102.008 189.629 100.52 189.629Z" fill="#6B6B6B"/>
<path d="M63.4137 152.746V161.242H62.5497V153.814L61.0137 155.122L60.4857 154.522L62.6457 152.746H63.4137ZM71.3106 152.746V158.434H72.5586V159.19H71.3106V161.242H70.4706V159.19H66.5826V158.35L70.1826 152.746H71.3106ZM70.4706 158.434V153.718H70.4466L67.4826 158.434H70.4706ZM76.5196 152.53C78.6316 152.53 79.3036 154.798 79.3036 157.006C79.3036 159.214 78.6316 161.458 76.5196 161.458C74.3836 161.458 73.7356 159.214 73.7356 157.006C73.7356 154.798 74.3836 152.53 76.5196 152.53ZM76.5196 153.262C75.0076 153.262 74.6116 155.314 74.6116 157.006C74.6116 158.698 75.0076 160.714 76.5196 160.714C78.0076 160.714 78.4276 158.698 78.4276 157.006C78.4276 155.314 78.0076 153.262 76.5196 153.262ZM82.1965 160.102L81.2245 162.922H80.5405L81.3445 160.102H82.1965ZM86.5977 152.53C88.7097 152.53 89.3817 154.798 89.3817 157.006C89.3817 159.214 88.7097 161.458 86.5977 161.458C84.4617 161.458 83.8137 159.214 83.8137 157.006C83.8137 154.798 84.4617 152.53 86.5977 152.53ZM86.5977 153.262C85.0857 153.262 84.6897 155.314 84.6897 157.006C84.6897 158.698 85.0857 160.714 86.5977 160.714C88.0857 160.714 88.5057 158.698 88.5057 157.006C88.5057 155.314 88.0857 153.262 86.5977 153.262ZM93.5586 152.53C95.6706 152.53 96.3426 154.798 96.3426 157.006C96.3426 159.214 95.6706 161.458 93.5586 161.458C91.4226 161.458 90.7746 159.214 90.7746 157.006C90.7746 154.798 91.4226 152.53 93.5586 152.53ZM93.5586 153.262C92.0466 153.262 91.6506 155.314 91.6506 157.006C91.6506 158.698 92.0466 160.714 93.5586 160.714C95.0466 160.714 95.4666 158.698 95.4666 157.006C95.4666 155.314 95.0466 153.262 93.5586 153.262ZM100.52 152.53C102.632 152.53 103.304 154.798 103.304 157.006C103.304 159.214 102.632 161.458 100.52 161.458C98.3836 161.458 97.7356 159.214 97.7356 157.006C97.7356 154.798 98.3836 152.53 100.52 152.53ZM100.52 153.262C99.0076 153.262 98.6116 155.314 98.6116 157.006C98.6116 158.698 99.0076 160.714 100.52 160.714C102.008 160.714 102.428 158.698 102.428 157.006C102.428 155.314 102.008 153.262 100.52 153.262Z" fill="#6B6B6B"/>
<path d="M63.4137 120.378V128.874H62.5497V121.446L61.0137 122.754L60.4857 122.154L62.6457 120.378H63.4137ZM70.8786 120.378L68.4906 124.086L68.5146 124.11C68.7666 123.918 69.2946 123.798 69.7266 123.798C71.2026 123.798 72.3186 124.866 72.3186 126.414C72.3186 127.998 71.1546 129.09 69.5586 129.09C67.9626 129.09 66.7986 127.998 66.7986 126.414C66.7986 125.538 67.1466 124.794 67.5666 124.11L69.8826 120.378H70.8786ZM67.6626 126.414C67.6626 127.518 68.4426 128.358 69.5586 128.358C70.6746 128.358 71.4546 127.518 71.4546 126.414C71.4546 125.322 70.7226 124.494 69.5586 124.494C68.3946 124.494 67.6626 125.322 67.6626 126.414ZM76.5196 120.162C78.6316 120.162 79.3036 122.43 79.3036 124.638C79.3036 126.846 78.6316 129.09 76.5196 129.09C74.3836 129.09 73.7356 126.846 73.7356 124.638C73.7356 122.43 74.3836 120.162 76.5196 120.162ZM76.5196 120.894C75.0076 120.894 74.6116 122.946 74.6116 124.638C74.6116 126.33 75.0076 128.346 76.5196 128.346C78.0076 128.346 78.4276 126.33 78.4276 124.638C78.4276 122.946 78.0076 120.894 76.5196 120.894ZM82.1965 127.734L81.2245 130.554H80.5405L81.3445 127.734H82.1965ZM86.5977 120.162C88.7097 120.162 89.3817 122.43 89.3817 124.638C89.3817 126.846 88.7097 129.09 86.5977 129.09C84.4617 129.09 83.8137 126.846 83.8137 124.638C83.8137 122.43 84.4617 120.162 86.5977 120.162ZM86.5977 120.894C85.0857 120.894 84.6897 122.946 84.6897 124.638C84.6897 126.33 85.0857 128.346 86.5977 128.346C88.0857 128.346 88.5057 126.33 88.5057 124.638C88.5057 122.946 88.0857 120.894 86.5977 120.894ZM93.5586 120.162C95.6706 120.162 96.3426 122.43 96.3426 124.638C96.3426 126.846 95.6706 129.09 93.5586 129.09C91.4226 129.09 90.7746 126.846 90.7746 124.638C90.7746 122.43 91.4226 120.162 93.5586 120.162ZM93.5586 120.894C92.0466 120.894 91.6506 122.946 91.6506 124.638C91.6506 126.33 92.0466 128.346 93.5586 128.346C95.0466 128.346 95.4666 126.33 95.4666 124.638C95.4666 122.946 95.0466 120.894 93.5586 120.894ZM100.52 120.162C102.632 120.162 103.304 122.43 103.304 124.638C103.304 126.846 102.632 129.09 100.52 129.09C98.3836 129.09 97.7356 126.846 97.7356 124.638C97.7356 122.43 98.3836 120.162 100.52 120.162ZM100.52 120.894C99.0076 120.894 98.6116 122.946 98.6116 124.638C98.6116 126.33 99.0076 128.346 100.52 128.346C102.008 128.346 102.428 126.33 102.428 124.638C102.428 122.946 102.008 120.894 100.52 120.894Z" fill="#6B6B6B"/>
<g clip-path="url(#clip2_505_3076)">
<path d="M136 124.235H695.941" stroke="#DEE4DF" stroke-width="0.419118" stroke-dasharray="6.01"/>
<path d="M136 192.97H695.941" stroke="#DEE4DF" stroke-width="0.419118" stroke-dasharray="6.01"/>
<path d="M136 158.602H695.941" stroke="#DEE4DF" stroke-width="0.419118" stroke-dasharray="6.01"/>
<path d="M136 227.337H695.941" stroke="#DEE4DF" stroke-width="0.419118" stroke-dasharray="6.01"/>
<path d="M136 261.705H695.941" stroke="#DEE4DF" stroke-width="0.419118" stroke-dasharray="6.01"/>
<path d="M136 296.072H695.941" stroke="#DEE4DF" stroke-width="0.419118" stroke-dasharray="6.01"/>
<path d="M136 331.698H390.206H695.941" stroke="#DEE4DF" stroke-width="0.419118" stroke-dasharray="6.01"/>
<rect width="20" height="187" rx="5" transform="matrix(-1 0 0 1 170 145.815)" fill="#8F00FF"/>
<rect width="20" height="87" rx="5" transform="matrix(-1 0 0 1 195 245.815)" fill="#553EF2"/>
<rect width="20" height="36" rx="5" transform="matrix(-1 0 0 1 221 296.815)" fill="#FF1494"/>
<path d="M310 167.315C310 164.554 307.761 162.315 305 162.315H295C292.239 162.315 290 164.554 290 167.315V344.315C290 347.077 292.239 349.315 295 349.315H305C307.761 349.315 310 347.077 310 344.315V167.315Z" fill="#8F00FF"/>
<path d="M335 263.815C335 262.711 334.105 261.815 333 261.815H317C315.895 261.815 315 262.711 315 263.815V332.815H335V263.815Z" fill="#553EF2"/>
<rect width="20" height="106" rx="5" transform="matrix(-1 0 0 1 361 226.815)" fill="#FF1494"/>
<path d="M590 167.315C590 164.554 587.761 162.315 585 162.315H575C572.239 162.315 570 164.554 570 167.315V344.315C570 347.077 572.239 349.315 575 349.315H585C587.761 349.315 590 347.077 590 344.315V167.315Z" fill="#8F00FF"/>
<rect width="20" height="71" rx="5" transform="matrix(-1 0 0 1 615 261.815)" fill="#553EF2"/>
<rect width="20" height="106" rx="5" transform="matrix(-1 0 0 1 641 226.815)" fill="#FF1494"/>
<path d="M450 129.815C450 127.054 447.761 124.815 445 124.815H435C432.239 124.815 430 127.054 430 129.815V344.815C430 347.577 432.239 349.815 435 349.815H445C447.761 349.815 450 347.577 450 344.815V129.815Z" fill="#8F00FF"/>
<rect width="20" height="105" rx="5" transform="matrix(-1 0 0 1 475 227.815)" fill="#553EF2"/>
<rect width="20" height="148" rx="5" transform="matrix(-1 0 0 1 501 184.815)" fill="#FF1494"/>
</g>
<g filter="url(#filter1_d_505_3076)">
<ellipse cx="342.184" cy="205.736" rx="6.28676" ry="6.26945" fill="white"/>
</g>
</g>
<path d="M65.8957 65.408V77H64.5997V65.408H60.3337V64.256H70.1617V65.408H65.8957ZM78.6506 72.788C78.6506 75.326 76.7786 77.216 74.1506 77.216C71.5406 77.216 69.6686 75.326 69.6686 72.788C69.6686 70.25 71.5406 68.36 74.1506 68.36C76.7786 68.36 78.6506 70.25 78.6506 72.788ZM77.3546 72.788C77.3546 70.898 76.1126 69.386 74.1506 69.386C72.2066 69.386 70.9646 70.898 70.9646 72.788C70.9646 74.678 72.2066 76.172 74.1506 76.172C76.1126 76.172 77.3546 74.678 77.3546 72.788ZM82.5086 75.578V81.32H81.2846V68.576H82.5086V70.034H82.5626C83.2646 68.936 84.5246 68.36 85.7306 68.36C88.3586 68.36 90.0866 70.304 90.0866 72.788C90.0866 75.272 88.3586 77.216 85.7306 77.216C84.5246 77.216 83.2646 76.622 82.5626 75.578H82.5086ZM88.7906 72.788C88.7906 70.916 87.6386 69.386 85.6046 69.386C83.7146 69.386 82.3646 70.862 82.3646 72.788C82.3646 74.714 83.7146 76.172 85.6046 76.172C87.6386 76.172 88.7906 74.66 88.7906 72.788ZM97.2823 77V64.256H100.882C103.474 64.256 105.184 65.372 105.184 67.658C105.184 69.944 103.438 71.078 100.846 71.078H98.5783V77H97.2823ZM98.5783 65.372V69.98H100.774C102.79 69.98 103.888 69.17 103.888 67.658C103.888 66.092 102.736 65.372 100.774 65.372H98.5783ZM107.035 72.14H112.777C112.705 70.556 111.733 69.386 109.987 69.386C108.349 69.386 107.143 70.7 107.035 72.14ZM114.019 72.536C114.019 72.698 114.019 72.896 114.001 73.112H107.017C107.053 74.804 108.367 76.172 110.095 76.172C111.355 76.172 112.327 75.47 112.795 74.714L113.713 75.434C112.723 76.694 111.481 77.216 110.095 77.216C107.593 77.216 105.739 75.326 105.739 72.788C105.739 70.25 107.593 68.36 109.987 68.36C112.633 68.36 114.019 70.232 114.019 72.536ZM116.652 70.43C116.652 69.98 116.634 69.152 116.58 68.576H117.75C117.786 69.026 117.822 69.656 117.822 70.016H117.858C118.326 69.044 119.37 68.36 120.558 68.36C120.864 68.36 121.116 68.378 121.368 68.45L121.206 69.602C121.062 69.548 120.666 69.494 120.342 69.494C119.046 69.494 117.876 70.43 117.876 72.68V77H116.652V70.43ZM126.702 68.576V69.602H124.722V77H123.498V69.602H121.734V68.576H123.498V66.272C123.498 64.364 124.434 63.176 126.36 63.176C126.666 63.176 127.062 63.212 127.368 63.302L127.152 64.382C126.9 64.31 126.63 64.256 126.306 64.256C124.992 64.256 124.722 65.192 124.722 66.416V68.576H126.702ZM136.817 72.788C136.817 75.326 134.945 77.216 132.317 77.216C129.707 77.216 127.835 75.326 127.835 72.788C127.835 70.25 129.707 68.36 132.317 68.36C134.945 68.36 136.817 70.25 136.817 72.788ZM135.521 72.788C135.521 70.898 134.279 69.386 132.317 69.386C130.373 69.386 129.131 70.898 129.131 72.788C129.131 74.678 130.373 76.172 132.317 76.172C134.279 76.172 135.521 74.678 135.521 72.788ZM139.451 70.43C139.451 69.98 139.433 69.152 139.379 68.576H140.549C140.585 69.026 140.621 69.656 140.621 70.016H140.657C141.125 69.044 142.169 68.36 143.357 68.36C143.663 68.36 143.915 68.378 144.167 68.45L144.005 69.602C143.861 69.548 143.465 69.494 143.141 69.494C141.845 69.494 140.675 70.43 140.675 72.68V77H139.451V70.43ZM147.143 70.016C147.629 69.044 148.709 68.36 149.915 68.36C150.833 68.36 151.949 68.702 152.507 70.142C153.083 68.99 154.109 68.36 155.459 68.36C157.601 68.36 158.663 69.746 158.663 71.834V77H157.439V72.338C157.439 70.574 156.845 69.386 155.261 69.386C153.497 69.386 152.867 70.952 152.867 72.518V77H151.643V72.086C151.643 70.448 151.247 69.386 149.609 69.386C148.439 69.386 147.161 70.43 147.161 72.68V77H145.937V70.43C145.937 69.98 145.919 69.152 145.865 68.576H147.035C147.071 69.026 147.107 69.656 147.107 70.016H147.143ZM163.07 68.576V77H161.846V68.576H163.07ZM163.322 65.336C163.322 65.84 162.89 66.2 162.458 66.2C162.026 66.2 161.594 65.84 161.594 65.336C161.594 64.832 162.026 64.472 162.458 64.472C162.89 64.472 163.322 64.832 163.322 65.336ZM166.256 68.576H167.426C167.462 69.026 167.498 69.656 167.498 70.016H167.534C168.002 69.044 169.226 68.36 170.414 68.36C172.556 68.36 173.618 69.746 173.618 71.834V77H172.394V72.338C172.394 70.574 171.872 69.386 170.108 69.386C168.812 69.386 167.552 70.43 167.552 72.68V77H166.328V70.43C166.328 69.98 166.31 69.152 166.256 68.576ZM176.355 79.628L177.237 78.692C177.903 79.556 179.181 80.24 180.459 80.24C182.871 80.24 183.753 78.746 183.753 76.928V75.344H183.717C183.069 76.388 181.755 77 180.531 77C177.903 77 176.175 75.182 176.175 72.716C176.175 70.322 177.903 68.36 180.531 68.36C181.755 68.36 183.051 68.954 183.717 70.034H183.753V68.576H184.977V76.928C184.977 78.764 184.131 81.32 180.405 81.32C178.857 81.32 177.345 80.672 176.355 79.628ZM177.471 72.68C177.471 74.444 178.623 75.956 180.657 75.956C182.547 75.956 183.897 74.624 183.897 72.68C183.897 70.916 182.547 69.386 180.657 69.386C178.623 69.386 177.471 70.916 177.471 72.68ZM193.711 73.652L192.325 77H190.903L196.411 64.256H197.671L203.143 77H201.703L200.299 73.652H193.711ZM197.005 65.696L194.197 72.464H199.813L197.005 65.696ZM211.877 75.578C211.157 76.64 209.897 77.216 208.691 77.216C206.063 77.216 204.335 75.272 204.335 72.788C204.335 70.304 206.063 68.36 208.691 68.36C209.897 68.36 211.157 68.936 211.877 70.034H211.913V63.392H213.137V77H211.913V75.578H211.877ZM205.631 72.788C205.631 74.66 206.783 76.172 208.817 76.172C210.707 76.172 212.057 74.714 212.057 72.788C212.057 70.862 210.707 69.386 208.817 69.386C206.783 69.386 205.631 70.916 205.631 72.788ZM221.826 69.872L220.89 70.574C220.53 69.872 219.756 69.386 218.82 69.386C217.938 69.386 217.038 69.764 217.038 70.7C217.038 71.492 217.668 71.852 219.054 72.14C221.034 72.554 221.97 73.292 221.97 74.606C221.97 76.532 220.35 77.216 218.802 77.216C217.524 77.216 216.246 76.712 215.472 75.578L216.444 74.858C216.876 75.596 217.794 76.172 218.784 76.172C219.828 76.172 220.764 75.794 220.764 74.696C220.764 73.814 219.882 73.454 218.28 73.076C217.29 72.842 215.868 72.41 215.868 70.808C215.868 69.098 217.344 68.36 218.874 68.36C220.044 68.36 221.286 68.918 221.826 69.872Z" fill="black"/>
<rect x="290" y="72" width="24" height="6" rx="1" fill="#8F00FF"/>
<path d="M324.324 69.088V79H323.316V69.088H324.324ZM328.395 73.568C328.773 72.812 329.613 72.28 330.551 72.28C331.265 72.28 332.133 72.546 332.567 73.666C333.015 72.77 333.813 72.28 334.863 72.28C336.529 72.28 337.355 73.358 337.355 74.982V79H336.403V75.374C336.403 74.002 335.941 73.078 334.709 73.078C333.337 73.078 332.847 74.296 332.847 75.514V79H331.895V75.178C331.895 73.904 331.587 73.078 330.313 73.078C329.403 73.078 328.409 73.89 328.409 75.64V79H327.457V73.89C327.457 73.54 327.443 72.896 327.401 72.448H328.311C328.339 72.798 328.367 73.288 328.367 73.568H328.395ZM341.328 77.894V82.36H340.376V72.448H341.328V73.582H341.37C341.916 72.728 342.896 72.28 343.834 72.28C345.878 72.28 347.222 73.792 347.222 75.724C347.222 77.656 345.878 79.168 343.834 79.168C342.896 79.168 341.916 78.706 341.37 77.894H341.328ZM346.214 75.724C346.214 74.268 345.318 73.078 343.736 73.078C342.266 73.078 341.216 74.226 341.216 75.724C341.216 77.222 342.266 78.356 343.736 78.356C345.318 78.356 346.214 77.18 346.214 75.724ZM349.823 73.89C349.823 73.54 349.809 72.896 349.767 72.448H350.677C350.705 72.798 350.733 73.288 350.733 73.568H350.761C351.125 72.812 351.937 72.28 352.861 72.28C353.099 72.28 353.295 72.294 353.491 72.35L353.365 73.246C353.253 73.204 352.945 73.162 352.693 73.162C351.685 73.162 350.775 73.89 350.775 75.64V79H349.823V73.89ZM355.714 75.22H360.18C360.124 73.988 359.368 73.078 358.01 73.078C356.736 73.078 355.798 74.1 355.714 75.22ZM361.146 75.528C361.146 75.654 361.146 75.808 361.132 75.976H355.7C355.728 77.292 356.75 78.356 358.094 78.356C359.074 78.356 359.83 77.81 360.194 77.222L360.908 77.782C360.138 78.762 359.172 79.168 358.094 79.168C356.148 79.168 354.706 77.698 354.706 75.724C354.706 73.75 356.148 72.28 358.01 72.28C360.068 72.28 361.146 73.736 361.146 75.528ZM367.967 73.456L367.239 74.002C366.959 73.456 366.357 73.078 365.629 73.078C364.943 73.078 364.243 73.372 364.243 74.1C364.243 74.716 364.733 74.996 365.811 75.22C367.351 75.542 368.079 76.116 368.079 77.138C368.079 78.636 366.819 79.168 365.615 79.168C364.621 79.168 363.627 78.776 363.025 77.894L363.781 77.334C364.117 77.908 364.831 78.356 365.601 78.356C366.413 78.356 367.141 78.062 367.141 77.208C367.141 76.522 366.455 76.242 365.209 75.948C364.439 75.766 363.333 75.43 363.333 74.184C363.333 72.854 364.481 72.28 365.671 72.28C366.581 72.28 367.547 72.714 367.967 73.456ZM374.748 73.456L374.02 74.002C373.74 73.456 373.138 73.078 372.41 73.078C371.724 73.078 371.024 73.372 371.024 74.1C371.024 74.716 371.514 74.996 372.592 75.22C374.132 75.542 374.86 76.116 374.86 77.138C374.86 78.636 373.6 79.168 372.396 79.168C371.402 79.168 370.408 78.776 369.806 77.894L370.562 77.334C370.898 77.908 371.612 78.356 372.382 78.356C373.194 78.356 373.922 78.062 373.922 77.208C373.922 76.522 373.236 76.242 371.99 75.948C371.22 75.766 370.114 75.43 370.114 74.184C370.114 72.854 371.262 72.28 372.452 72.28C373.362 72.28 374.328 72.714 374.748 73.456ZM378.281 72.448V79H377.329V72.448H378.281ZM378.477 69.928C378.477 70.32 378.141 70.6 377.805 70.6C377.469 70.6 377.133 70.32 377.133 69.928C377.133 69.536 377.469 69.256 377.805 69.256C378.141 69.256 378.477 69.536 378.477 69.928ZM387.885 75.724C387.885 77.698 386.429 79.168 384.385 79.168C382.355 79.168 380.899 77.698 380.899 75.724C380.899 73.75 382.355 72.28 384.385 72.28C386.429 72.28 387.885 73.75 387.885 75.724ZM386.877 75.724C386.877 74.254 385.911 73.078 384.385 73.078C382.873 73.078 381.907 74.254 381.907 75.724C381.907 77.194 382.873 78.356 384.385 78.356C385.911 78.356 386.877 77.194 386.877 75.724ZM390.437 72.448H391.347C391.375 72.798 391.403 73.288 391.403 73.568H391.431C391.795 72.812 392.747 72.28 393.671 72.28C395.337 72.28 396.163 73.358 396.163 74.982V79H395.211V75.374C395.211 74.002 394.805 73.078 393.433 73.078C392.425 73.078 391.445 73.89 391.445 75.64V79H390.493V73.89C390.493 73.54 390.479 72.896 390.437 72.448Z" fill="#717171"/>
<rect x="414" y="72" width="24" height="6" rx="1" fill="#0000FF"/>
<path d="M454.876 76.9L455.66 77.404C455.002 78.398 453.728 79.252 451.95 79.252C448.954 79.252 446.784 77.054 446.784 74.044C446.784 71.034 448.996 68.836 451.95 68.836C453.406 68.836 454.792 69.438 455.478 70.404L454.638 71.02C454.218 70.376 453.224 69.718 451.964 69.718C449.402 69.718 447.848 71.734 447.848 74.044C447.848 76.354 449.416 78.37 451.964 78.37C453.098 78.37 454.19 77.922 454.876 76.9ZM458.876 68.416V79H457.924V68.416H458.876ZM462.95 72.448V79H461.998V72.448H462.95ZM463.146 69.928C463.146 70.32 462.81 70.6 462.474 70.6C462.138 70.6 461.802 70.32 461.802 69.928C461.802 69.536 462.138 69.256 462.474 69.256C462.81 69.256 463.146 69.536 463.146 69.928ZM471.504 73.414L470.762 73.946C470.454 73.442 469.796 73.078 469.082 73.078C467.556 73.078 466.576 74.226 466.576 75.724C466.576 77.208 467.542 78.356 469.068 78.356C469.894 78.356 470.468 78.006 470.846 77.502L471.56 78.034C471 78.72 470.202 79.168 469.068 79.168C466.954 79.168 465.568 77.698 465.568 75.724C465.568 73.75 466.954 72.28 469.068 72.28C469.95 72.28 470.944 72.658 471.504 73.414ZM474.584 68.416V75.402H474.626L477.65 72.448H479.022L475.718 75.444L479.358 79H477.958L474.626 75.556H474.584V79H473.632V68.416H474.584ZM485.432 73.456L484.704 74.002C484.424 73.456 483.822 73.078 483.094 73.078C482.408 73.078 481.708 73.372 481.708 74.1C481.708 74.716 482.198 74.996 483.276 75.22C484.816 75.542 485.544 76.116 485.544 77.138C485.544 78.636 484.284 79.168 483.08 79.168C482.086 79.168 481.092 78.776 480.49 77.894L481.246 77.334C481.582 77.908 482.296 78.356 483.066 78.356C483.878 78.356 484.606 78.062 484.606 77.208C484.606 76.522 483.92 76.242 482.674 75.948C481.904 75.766 480.798 75.43 480.798 74.184C480.798 72.854 481.946 72.28 483.136 72.28C484.046 72.28 485.012 72.714 485.432 73.456Z" fill="#717171"/>
<rect x="503" y="72" width="24" height="6" rx="1" fill="#0000FF"/>
<path d="M543.876 76.9L544.66 77.404C544.002 78.398 542.728 79.252 540.95 79.252C537.954 79.252 535.784 77.054 535.784 74.044C535.784 71.034 537.996 68.836 540.95 68.836C542.406 68.836 543.792 69.438 544.478 70.404L543.638 71.02C543.218 70.376 542.224 69.718 540.964 69.718C538.402 69.718 536.848 71.734 536.848 74.044C536.848 76.354 538.416 78.37 540.964 78.37C542.098 78.37 543.19 77.922 543.876 76.9ZM553.242 75.724C553.242 77.698 551.786 79.168 549.742 79.168C547.712 79.168 546.256 77.698 546.256 75.724C546.256 73.75 547.712 72.28 549.742 72.28C551.786 72.28 553.242 73.75 553.242 75.724ZM552.234 75.724C552.234 74.254 551.268 73.078 549.742 73.078C548.23 73.078 547.264 74.254 547.264 75.724C547.264 77.194 548.23 78.356 549.742 78.356C551.268 78.356 552.234 77.194 552.234 75.724ZM555.795 72.448H556.705C556.733 72.798 556.761 73.288 556.761 73.568H556.789C557.153 72.812 558.105 72.28 559.029 72.28C560.695 72.28 561.521 73.358 561.521 74.982V79H560.569V75.374C560.569 74.002 560.163 73.078 558.791 73.078C557.783 73.078 556.803 73.89 556.803 75.64V79H555.851V73.89C555.851 73.54 555.837 72.896 555.795 72.448ZM569.893 72.448L567.233 79H566.183L563.509 72.448H564.573L566.701 77.992H566.729L568.871 72.448H569.893ZM572.473 75.22H576.939C576.883 73.988 576.127 73.078 574.769 73.078C573.495 73.078 572.557 74.1 572.473 75.22ZM577.905 75.528C577.905 75.654 577.905 75.808 577.891 75.976H572.459C572.487 77.292 573.509 78.356 574.853 78.356C575.833 78.356 576.589 77.81 576.953 77.222L577.667 77.782C576.897 78.762 575.931 79.168 574.853 79.168C572.907 79.168 571.465 77.698 571.465 75.724C571.465 73.75 572.907 72.28 574.769 72.28C576.827 72.28 577.905 73.736 577.905 75.528ZM580.513 73.89C580.513 73.54 580.499 72.896 580.457 72.448H581.367C581.395 72.798 581.423 73.288 581.423 73.568H581.451C581.815 72.812 582.627 72.28 583.551 72.28C583.789 72.28 583.985 72.294 584.181 72.35L584.055 73.246C583.943 73.204 583.635 73.162 583.383 73.162C582.375 73.162 581.465 73.89 581.465 75.64V79H580.513V73.89ZM590.332 73.456L589.604 74.002C589.324 73.456 588.722 73.078 587.994 73.078C587.308 73.078 586.608 73.372 586.608 74.1C586.608 74.716 587.098 74.996 588.176 75.22C589.716 75.542 590.444 76.116 590.444 77.138C590.444 78.636 589.184 79.168 587.98 79.168C586.986 79.168 585.992 78.776 585.39 77.894L586.146 77.334C586.482 77.908 587.196 78.356 587.966 78.356C588.778 78.356 589.506 78.062 589.506 77.208C589.506 76.522 588.82 76.242 587.574 75.948C586.804 75.766 585.698 75.43 585.698 74.184C585.698 72.854 586.846 72.28 588.036 72.28C588.946 72.28 589.912 72.714 590.332 73.456ZM597.029 74.982V74.772C597.029 73.638 596.413 73.078 595.279 73.078C594.509 73.078 593.795 73.386 593.333 73.848L592.801 73.218C593.333 72.686 594.257 72.28 595.377 72.28C596.791 72.28 597.925 73.064 597.925 74.66V77.53C597.925 78.034 597.967 78.636 598.037 79H597.183C597.127 78.678 597.085 78.286 597.085 77.936H597.057C596.455 78.804 595.727 79.168 594.677 79.168C593.683 79.168 592.409 78.636 592.409 77.18C592.409 75.164 594.635 74.982 597.029 74.982ZM597.029 75.724H596.749C595.195 75.724 593.389 75.892 593.389 77.138C593.389 78.076 594.187 78.384 594.929 78.384C596.273 78.384 597.029 77.376 597.029 76.214V75.724ZM603.755 72.448V73.246H601.907V77.068C601.907 78.048 602.313 78.272 602.887 78.272C603.153 78.272 603.461 78.188 603.713 78.062L603.755 78.888C603.419 79.014 603.069 79.084 602.635 79.084C601.935 79.084 600.955 78.776 600.955 77.334V73.246H599.597V72.448H600.955V70.6H601.907V72.448H603.755ZM606.77 72.448V79H605.818V72.448H606.77ZM606.966 69.928C606.966 70.32 606.63 70.6 606.294 70.6C605.958 70.6 605.622 70.32 605.622 69.928C605.622 69.536 605.958 69.256 606.294 69.256C606.63 69.256 606.966 69.536 606.966 69.928ZM616.374 75.724C616.374 77.698 614.918 79.168 612.874 79.168C610.844 79.168 609.388 77.698 609.388 75.724C609.388 73.75 610.844 72.28 612.874 72.28C614.918 72.28 616.374 73.75 616.374 75.724ZM615.366 75.724C615.366 74.254 614.4 73.078 612.874 73.078C611.362 73.078 610.396 74.254 610.396 75.724C610.396 77.194 611.362 78.356 612.874 78.356C614.4 78.356 615.366 77.194 615.366 75.724ZM618.927 72.448H619.837C619.865 72.798 619.893 73.288 619.893 73.568H619.921C620.285 72.812 621.237 72.28 622.161 72.28C623.827 72.28 624.653 73.358 624.653 74.982V79H623.701V75.374C623.701 74.002 623.295 73.078 621.923 73.078C620.915 73.078 619.935 73.89 619.935 75.64V79H618.983V73.89C618.983 73.54 618.969 72.896 618.927 72.448Z" fill="#717171"/>
</g>
</g>
<defs>
<filter id="filter0_d_505_3076" x="0" y="0" width="762" height="442" filterUnits="userSpaceOnUse" color-interpolation-filters="sRGB">
<feFlood flood-opacity="0" result="BackgroundImageFix"/>
<feColorMatrix in="SourceAlpha" type="matrix" values="0 0 0 0 0 0 0 0 0 0 0 0 0 0 0 0 0 0 127 0" result="hardAlpha"/>
<feOffset dy="5"/>
<feGaussianBlur stdDeviation="20"/>
<feComposite in2="hardAlpha" operator="out"/>
<feColorMatrix type="matrix" values="0 0 0 0 0 0 0 0 0 0.105882 0 0 0 0 0.419608 0 0 0 0.08 0"/>
<feBlend mode="normal" in2="BackgroundImageFix" result="effect1_dropShadow_505_3076"/>
<feBlend mode="normal" in="SourceGraphic" in2="effect1_dropShadow_505_3076" result="shape"/>
</filter>
<filter id="filter1_d_505_3076" x="310.75" y="178.511" width="62.8676" height="62.8329" filterUnits="userSpaceOnUse" color-interpolation-filters="sRGB">
<feFlood flood-opacity="0" result="BackgroundImageFix"/>
<feColorMatrix in="SourceAlpha" type="matrix" values="0 0 0 0 0 0 0 0 0 0 0 0 0 0 0 0 0 0 127 0" result="hardAlpha"/>
<feOffset dy="4.19118"/>
<feGaussianBlur stdDeviation="12.5735"/>
<feColorMatrix type="matrix" values="0 0 0 0 0 0 0 0 0 0 0 0 0 0 0 0 0 0 0.15 0"/>
<feBlend mode="normal" in2="BackgroundImageFix" result="effect1_dropShadow_505_3076"/>
<feBlend mode="normal" in="SourceGraphic" in2="effect1_dropShadow_505_3076" result="shape"/>
</filter>
<clipPath id="clip0_505_3076">
<rect x="40" y="35" width="682" height="362" rx="16.7647" fill="white"/>
</clipPath>
<clipPath id="clip1_505_3076">
<rect width="587" height="254.298" fill="white" transform="translate(60 115.815)"/>
</clipPath>
<clipPath id="clip2_505_3076">
<rect width="535" height="209" fill="white" transform="translate(136 123.815)"/>
</clipPath>
</defs>
</svg>
