<svg width="65" height="77" viewBox="0 0 65 77" fill="none" xmlns="http://www.w3.org/2000/svg">
<path d="M19.228 35.5751L23.4489 27.2228V27.1532H18.532V25.3933H25.6761V27.1781L21.4503 35.5751H19.228ZM30.7335 35.7143C30.0308 35.7143 29.4044 35.585 28.8542 35.3265C28.3074 35.068 27.8732 34.7117 27.5517 34.2576C27.2302 33.8035 27.0628 33.2832 27.0495 32.6965H29.1376C29.1608 33.0909 29.3265 33.4108 29.6348 33.656C29.943 33.9013 30.3092 34.0239 30.7335 34.0239C31.0716 34.0239 31.3699 33.9494 31.6284 33.8002C31.8902 33.6478 32.094 33.4373 32.2399 33.1688C32.389 32.897 32.4636 32.5855 32.4636 32.2342C32.4636 31.8762 32.3874 31.5613 32.2349 31.2896C32.0858 31.0178 31.8786 30.8057 31.6135 30.6532C31.3483 30.5007 31.045 30.4228 30.7037 30.4195C30.4054 30.4195 30.1154 30.4808 29.8336 30.6035C29.5552 30.7261 29.3381 30.8935 29.1824 31.1056L27.2683 30.7626L27.7505 25.3933H33.975V27.1532H29.5254L29.2619 29.7036H29.3216C29.5005 29.4517 29.7707 29.2429 30.1319 29.0772C30.4932 28.9115 30.8975 28.8286 31.345 28.8286C31.9582 28.8286 32.505 28.9728 32.9856 29.2612C33.4662 29.5495 33.8457 29.9456 34.1241 30.4494C34.4025 30.9498 34.5401 31.5265 34.5368 32.1795C34.5401 32.8656 34.381 33.4754 34.0595 34.009C33.7413 34.5393 33.2955 34.9569 32.7221 35.2619C32.152 35.5635 31.4892 35.7143 30.7335 35.7143ZM37.9771 33.3776L37.9821 30.8371H38.2903L40.7363 27.9387H43.1674L39.8812 31.7768H39.3791L37.9771 33.3776ZM36.0581 35.5751V25.3933H38.176V35.5751H36.0581ZM40.8308 35.5751L38.5836 32.2491L39.9956 30.7526L43.3116 35.5751H40.8308Z" fill="black"/>
<path d="M2.27557 62.5202V71.2474H0.958807V62.5202H2.27557ZM4.09091 71.2474V64.702H5.31392V65.7673H5.39489C5.53125 65.4065 5.75426 65.1253 6.06392 64.9236C6.37358 64.719 6.74432 64.6168 7.17614 64.6168C7.61364 64.6168 7.98011 64.719 8.27557 64.9236C8.57386 65.1281 8.79403 65.4094 8.93608 65.7673H9.00426C9.16051 65.4179 9.40909 65.1395 9.75 64.9321C10.0909 64.7219 10.4972 64.6168 10.9688 64.6168C11.5625 64.6168 12.0469 64.8028 12.4219 65.175C12.7997 65.5472 12.9886 66.1082 12.9886 66.8582V71.2474H11.7145V66.9776C11.7145 66.5344 11.5938 66.2133 11.3523 66.0145C11.1108 65.8156 10.8224 65.7162 10.4872 65.7162C10.0724 65.7162 9.75 65.844 9.51989 66.0997C9.28977 66.3526 9.17472 66.6778 9.17472 67.0756V71.2474H7.90483V66.8966C7.90483 66.5415 7.79403 66.256 7.57244 66.0401C7.35085 65.8241 7.0625 65.7162 6.70739 65.7162C6.46591 65.7162 6.2429 65.7801 6.03835 65.9079C5.83665 66.0329 5.6733 66.2077 5.5483 66.4321C5.42614 66.6565 5.36506 66.9165 5.36506 67.2119V71.2474H4.09091ZM14.6964 73.702V64.702H15.9407V65.7631H16.0472C16.1211 65.6267 16.2276 65.469 16.3668 65.2901C16.506 65.1111 16.6992 64.9548 16.9464 64.8213C17.1935 64.6849 17.5202 64.6168 17.9265 64.6168C18.4549 64.6168 18.9265 64.7503 19.3413 65.0173C19.756 65.2844 20.0813 65.6693 20.3171 66.1722C20.5558 66.675 20.6751 67.2801 20.6751 67.9875C20.6751 68.6949 20.5572 69.3014 20.3214 69.8071C20.0856 70.3099 19.7617 70.6977 19.3498 70.9704C18.9379 71.2403 18.4677 71.3753 17.9393 71.3753C17.5415 71.3753 17.2163 71.3085 16.9634 71.175C16.7134 71.0415 16.5174 70.8852 16.3754 70.7062C16.2333 70.5273 16.1239 70.3682 16.0472 70.229H15.9705V73.702H14.6964ZM15.945 67.9747C15.945 68.4349 16.0117 68.8383 16.1452 69.1849C16.2788 69.5315 16.4719 69.8028 16.7248 69.9989C16.9776 70.192 17.2873 70.2886 17.6538 70.2886C18.0344 70.2886 18.3526 70.1878 18.6083 69.9861C18.864 69.7815 19.0572 69.5045 19.1879 69.1551C19.3214 68.8057 19.3881 68.4122 19.3881 67.9747C19.3881 67.5429 19.3228 67.1551 19.1921 66.8114C19.0643 66.4676 18.8711 66.1963 18.6126 65.9974C18.3569 65.7986 18.0373 65.6991 17.6538 65.6991C17.2844 65.6991 16.9719 65.7943 16.7163 65.9847C16.4634 66.175 16.2717 66.4406 16.141 66.7815C16.0103 67.1224 15.945 67.5202 15.945 67.9747ZM22.1026 71.2474V64.702H23.3342V65.7418H23.4023C23.5217 65.3895 23.7319 65.1125 24.033 64.9108C24.337 64.7062 24.6808 64.604 25.0643 64.604C25.1438 64.604 25.2376 64.6068 25.3455 64.6125C25.4563 64.6182 25.543 64.6253 25.6055 64.6338V65.8526C25.5543 65.8383 25.4634 65.8227 25.3327 65.8057C25.2021 65.7858 25.0714 65.7758 24.9407 65.7758C24.6396 65.7758 24.3711 65.8398 24.1353 65.9676C23.9023 66.0926 23.7177 66.2673 23.5813 66.4918C23.445 66.7133 23.3768 66.9662 23.3768 67.2503V71.2474H22.1026ZM29.2947 71.3795C28.6499 71.3795 28.0945 71.2418 27.6286 70.9662C27.1655 70.6878 26.8075 70.2972 26.5547 69.7943C26.3047 69.2886 26.1797 68.6963 26.1797 68.0173C26.1797 67.3469 26.3047 66.756 26.5547 66.2446C26.8075 65.7332 27.1598 65.3341 27.6115 65.0472C28.0661 64.7602 28.5973 64.6168 29.2053 64.6168C29.5746 64.6168 29.9325 64.6778 30.2791 64.8C30.6257 64.9222 30.9368 65.1139 31.2124 65.3753C31.4879 65.6366 31.7053 65.9761 31.8643 66.3937C32.0234 66.8085 32.103 67.3128 32.103 67.9065V68.3582H26.8999V67.4037H30.8544C30.8544 67.0685 30.7862 66.7716 30.6499 66.5131C30.5135 66.2517 30.3217 66.0457 30.0746 65.8952C29.8303 65.7446 29.5433 65.6693 29.2138 65.6693C28.8558 65.6693 28.5433 65.7574 28.2763 65.9335C28.0121 66.1068 27.8075 66.3341 27.6626 66.6153C27.5206 66.8937 27.4496 67.1963 27.4496 67.523V68.2687C27.4496 68.7062 27.5263 69.0784 27.6797 69.3852C27.8359 69.692 28.0533 69.9264 28.3317 70.0883C28.6101 70.2474 28.9354 70.327 29.3075 70.327C29.549 70.327 29.7692 70.2929 29.968 70.2247C30.1669 70.1537 30.3388 70.0486 30.4837 69.9094C30.6286 69.7702 30.7393 69.5983 30.8161 69.3937L32.022 69.6111C31.9254 69.9662 31.7521 70.2773 31.5021 70.5443C31.255 70.8085 30.9439 71.0145 30.5689 71.1622C30.1967 71.3071 29.772 71.3795 29.2947 71.3795ZM38.4215 66.3L37.2667 66.5045C37.2184 66.3568 37.1417 66.2162 37.0366 66.0827C36.9343 65.9491 36.7951 65.8398 36.619 65.7545C36.4428 65.6693 36.2227 65.6267 35.9585 65.6267C35.5977 65.6267 35.2965 65.7077 35.055 65.8696C34.8136 66.0287 34.6928 66.2347 34.6928 66.4875C34.6928 66.7062 34.7738 66.8824 34.9357 67.0159C35.0977 67.1494 35.359 67.2588 35.7198 67.344L36.7596 67.5827C37.3619 67.7219 37.8107 67.9364 38.1062 68.2261C38.4016 68.5159 38.5494 68.8923 38.5494 69.3554C38.5494 69.7474 38.4357 70.0969 38.2085 70.4037C37.984 70.7077 37.6701 70.9463 37.2667 71.1196C36.8661 71.2929 36.4016 71.3795 35.8732 71.3795C35.1403 71.3795 34.5423 71.2233 34.0792 70.9108C33.6161 70.5954 33.332 70.148 33.2269 69.5685L34.4585 69.381C34.5352 69.702 34.6928 69.9449 34.9315 70.1097C35.1701 70.2716 35.4812 70.3526 35.8647 70.3526C36.2823 70.3526 36.6161 70.2659 36.8661 70.0926C37.1161 69.9165 37.2411 69.702 37.2411 69.4491C37.2411 69.2446 37.1644 69.0727 37.011 68.9335C36.8604 68.7943 36.6289 68.6892 36.3164 68.6182L35.2085 68.3753C34.5977 68.2361 34.146 68.0145 33.8533 67.7105C33.5636 67.4065 33.4187 67.0216 33.4187 66.5557C33.4187 66.1693 33.5266 65.8312 33.7425 65.5415C33.9585 65.2517 34.2567 65.0258 34.6374 64.8639C35.0181 64.6991 35.4542 64.6168 35.9457 64.6168C36.6531 64.6168 37.2099 64.7702 37.6161 65.077C38.0224 65.381 38.2908 65.7886 38.4215 66.3ZM44.8551 66.3L43.7003 66.5045C43.652 66.3568 43.5753 66.2162 43.4702 66.0827C43.3679 65.9491 43.2287 65.8398 43.0526 65.7545C42.8764 65.6693 42.6563 65.6267 42.392 65.6267C42.0313 65.6267 41.7301 65.7077 41.4886 65.8696C41.2472 66.0287 41.1264 66.2347 41.1264 66.4875C41.1264 66.7062 41.2074 66.8824 41.3693 67.0159C41.5313 67.1494 41.7926 67.2588 42.1534 67.344L43.1932 67.5827C43.7955 67.7219 44.2443 67.9364 44.5398 68.2261C44.8352 68.5159 44.983 68.8923 44.983 69.3554C44.983 69.7474 44.8693 70.0969 44.642 70.4037C44.4176 70.7077 44.1037 70.9463 43.7003 71.1196C43.2997 71.2929 42.8352 71.3795 42.3068 71.3795C41.5739 71.3795 40.9759 71.2233 40.5128 70.9108C40.0497 70.5954 39.7656 70.148 39.6605 69.5685L40.892 69.381C40.9688 69.702 41.1264 69.9449 41.3651 70.1097C41.6037 70.2716 41.9148 70.3526 42.2983 70.3526C42.7159 70.3526 43.0497 70.2659 43.2997 70.0926C43.5497 69.9165 43.6747 69.702 43.6747 69.4491C43.6747 69.2446 43.598 69.0727 43.4446 68.9335C43.294 68.7943 43.0625 68.6892 42.75 68.6182L41.642 68.3753C41.0313 68.2361 40.5795 68.0145 40.2869 67.7105C39.9972 67.4065 39.8523 67.0216 39.8523 66.5557C39.8523 66.1693 39.9602 65.8312 40.1761 65.5415C40.392 65.2517 40.6903 65.0258 41.071 64.8639C41.4517 64.6991 41.8878 64.6168 42.3793 64.6168C43.0866 64.6168 43.6435 64.7702 44.0497 65.077C44.456 65.381 44.7244 65.7886 44.8551 66.3ZM46.3839 71.2474V64.702H47.658V71.2474H46.3839ZM47.0273 63.692C46.8058 63.692 46.6154 63.6182 46.4563 63.4704C46.3001 63.3199 46.2219 63.1409 46.2219 62.9335C46.2219 62.7233 46.3001 62.5443 46.4563 62.3966C46.6154 62.246 46.8058 62.1707 47.0273 62.1707C47.2489 62.1707 47.4379 62.246 47.5941 62.3966C47.7532 62.5443 47.8327 62.7233 47.8327 62.9335C47.8327 63.1409 47.7532 63.3199 47.5941 63.4704C47.4379 63.6182 47.2489 63.692 47.0273 63.692ZM52.1293 71.3795C51.5156 71.3795 50.9801 71.2389 50.5227 70.9577C50.0653 70.6764 49.7102 70.2829 49.4574 69.7773C49.2045 69.2716 49.0781 68.6807 49.0781 68.0045C49.0781 67.3256 49.2045 66.7318 49.4574 66.2233C49.7102 65.7148 50.0653 65.3199 50.5227 65.0386C50.9801 64.7574 51.5156 64.6168 52.1293 64.6168C52.7429 64.6168 53.2784 64.7574 53.7358 65.0386C54.1932 65.3199 54.5483 65.7148 54.8011 66.2233C55.054 66.7318 55.1804 67.3256 55.1804 68.0045C55.1804 68.6807 55.054 69.2716 54.8011 69.7773C54.5483 70.2829 54.1932 70.6764 53.7358 70.9577C53.2784 71.2389 52.7429 71.3795 52.1293 71.3795ZM52.1335 70.3099C52.5313 70.3099 52.8608 70.2048 53.1222 69.9946C53.3835 69.7844 53.5767 69.5045 53.7017 69.1551C53.8295 68.8057 53.8935 68.4207 53.8935 68.0003C53.8935 67.5827 53.8295 67.1991 53.7017 66.8497C53.5767 66.4974 53.3835 66.2148 53.1222 66.0017C52.8608 65.7886 52.5313 65.6821 52.1335 65.6821C51.733 65.6821 51.4006 65.7886 51.1364 66.0017C50.875 66.2148 50.6804 66.4974 50.5526 66.8497C50.4276 67.1991 50.3651 67.5827 50.3651 68.0003C50.3651 68.4207 50.4276 68.8057 50.5526 69.1551C50.6804 69.5045 50.875 69.7844 51.1364 69.9946C51.4006 70.2048 51.733 70.3099 52.1335 70.3099ZM57.8768 67.3611V71.2474H56.6026V64.702H57.8256V65.7673H57.9066C58.0572 65.4207 58.293 65.1423 58.614 64.9321C58.9379 64.7219 59.3455 64.6168 59.837 64.6168C60.283 64.6168 60.6737 64.7105 61.0089 64.898C61.3441 65.0827 61.604 65.3582 61.7887 65.7247C61.9734 66.0912 62.0657 66.5443 62.0657 67.0841V71.2474H60.7915V67.2375C60.7915 66.7631 60.668 66.3923 60.4208 66.1253C60.1737 65.8554 59.8342 65.7204 59.4023 65.7204C59.1069 65.7204 58.8441 65.7844 58.614 65.9122C58.3867 66.04 58.2063 66.2275 58.0728 66.4747C57.9421 66.719 57.8768 67.0145 57.8768 67.3611Z" fill="black"/>
<path d="M58 28.513C58 43.8401 45.464 56.2652 30 56.2652C14.536 56.2652 2 43.8401 2 28.513C2 13.1858 14.536 0.760742 30 0.760742C45.464 0.760742 58 13.1858 58 28.513ZM5.948 28.513C5.948 41.679 16.7164 52.3521 30 52.3521C43.2836 52.3521 54.052 41.679 54.052 28.513C54.052 15.347 43.2836 4.6738 30 4.6738C16.7164 4.6738 5.948 15.347 5.948 28.513Z" fill="#FF1494"/>
<path d="M55.0155 40.9804C56.6674 37.7244 57.656 34.1778 57.925 30.5431C58.194 26.9084 57.738 23.2567 56.5831 19.7967C55.4283 16.3366 53.5971 13.1359 51.1943 10.3773C48.7914 7.61862 45.8638 5.35608 42.5788 3.71884L40.8051 7.21481C43.627 8.6212 46.1418 10.5647 48.2059 12.9344C50.2699 15.3041 51.8429 18.0535 52.8349 21.0257C53.8269 23.9979 54.2186 27.1346 53.9876 30.2568C53.7565 33.379 52.9073 36.4256 51.4883 39.2225L55.0155 40.9804Z" fill="#8F00FF"/>
</svg>
