<svg width="419" height="442" viewBox="0 0 419 442" fill="none" xmlns="http://www.w3.org/2000/svg">
<g filter="url(#filter0_d_505_3132)">
<rect x="40" y="35" width="339" height="362" rx="18" fill="white"/>
</g>
<path d="M62.6043 81.324C58.7883 81.324 57.8343 78.372 57.8343 76.248V68.256H59.1303V76.104C59.1303 78.156 60.0123 80.172 62.6043 80.172C65.1963 80.172 66.0783 78.156 66.0783 76.104V68.256H67.3743V76.248C67.3743 78.372 66.4203 81.324 62.6043 81.324ZM71.8376 79.578V85.32H70.6136V72.576H71.8376V74.034H71.8916C72.5936 72.936 73.8536 72.36 75.0596 72.36C77.6876 72.36 79.4156 74.304 79.4156 76.788C79.4156 79.272 77.6876 81.216 75.0596 81.216C73.8536 81.216 72.5936 80.622 71.8916 79.578H71.8376ZM78.1196 76.788C78.1196 74.916 76.9676 73.386 74.9336 73.386C73.0436 73.386 71.6936 74.862 71.6936 76.788C71.6936 78.714 73.0436 80.172 74.9336 80.172C76.9676 80.172 78.1196 78.66 78.1196 76.788ZM89.0594 73.818L88.1054 74.502C87.7094 73.854 86.8634 73.386 85.9454 73.386C83.9834 73.386 82.7234 74.862 82.7234 76.788C82.7234 78.696 83.9654 80.172 85.9274 80.172C86.9894 80.172 87.7274 79.722 88.2134 79.074L89.1314 79.758C88.4114 80.64 87.3854 81.216 85.9274 81.216C83.2094 81.216 81.4274 79.326 81.4274 76.788C81.4274 74.25 83.2094 72.36 85.9274 72.36C87.0614 72.36 88.3394 72.846 89.0594 73.818ZM99.4094 76.788C99.4094 79.326 97.5374 81.216 94.9094 81.216C92.2994 81.216 90.4274 79.326 90.4274 76.788C90.4274 74.25 92.2994 72.36 94.9094 72.36C97.5374 72.36 99.4094 74.25 99.4094 76.788ZM98.1134 76.788C98.1134 74.898 96.8714 73.386 94.9094 73.386C92.9654 73.386 91.7234 74.898 91.7234 76.788C91.7234 78.678 92.9654 80.172 94.9094 80.172C96.8714 80.172 98.1134 78.678 98.1134 76.788ZM103.249 74.016C103.735 73.044 104.815 72.36 106.021 72.36C106.939 72.36 108.055 72.702 108.613 74.142C109.189 72.99 110.215 72.36 111.565 72.36C113.707 72.36 114.769 73.746 114.769 75.834V81H113.545V76.338C113.545 74.574 112.951 73.386 111.367 73.386C109.603 73.386 108.973 74.952 108.973 76.518V81H107.749V76.086C107.749 74.448 107.353 73.386 105.715 73.386C104.545 73.386 103.267 74.43 103.267 76.68V81H102.043V74.43C102.043 73.98 102.025 73.152 101.971 72.576H103.141C103.177 73.026 103.213 73.656 103.213 74.016H103.249ZM119.176 72.576V81H117.952V72.576H119.176ZM119.428 69.336C119.428 69.84 118.996 70.2 118.564 70.2C118.132 70.2 117.7 69.84 117.7 69.336C117.7 68.832 118.132 68.472 118.564 68.472C118.996 68.472 119.428 68.832 119.428 69.336ZM122.362 72.576H123.532C123.568 73.026 123.604 73.656 123.604 74.016H123.64C124.108 73.044 125.332 72.36 126.52 72.36C128.662 72.36 129.724 73.746 129.724 75.834V81H128.5V76.338C128.5 74.574 127.978 73.386 126.214 73.386C124.918 73.386 123.658 74.43 123.658 76.68V81H122.434V74.43C122.434 73.98 122.416 73.152 122.362 72.576ZM132.461 83.628L133.343 82.692C134.009 83.556 135.287 84.24 136.565 84.24C138.977 84.24 139.859 82.746 139.859 80.928V79.344H139.823C139.175 80.388 137.861 81 136.637 81C134.009 81 132.281 79.182 132.281 76.716C132.281 74.322 134.009 72.36 136.637 72.36C137.861 72.36 139.157 72.954 139.823 74.034H139.859V72.576H141.083V80.928C141.083 82.764 140.237 85.32 136.511 85.32C134.963 85.32 133.451 84.672 132.461 83.628ZM133.577 76.68C133.577 78.444 134.729 79.956 136.763 79.956C138.653 79.956 140.003 78.624 140.003 76.68C140.003 74.916 138.653 73.386 136.763 73.386C134.729 73.386 133.577 74.916 133.577 76.68ZM149.818 77.652L148.432 81H147.01L152.518 68.256H153.778L159.25 81H157.81L156.406 77.652H149.818ZM153.112 69.696L150.304 76.464H155.92L153.112 69.696ZM167.983 79.578C167.263 80.64 166.003 81.216 164.797 81.216C162.169 81.216 160.441 79.272 160.441 76.788C160.441 74.304 162.169 72.36 164.797 72.36C166.003 72.36 167.263 72.936 167.983 74.034H168.019V67.392H169.243V81H168.019V79.578H167.983ZM161.737 76.788C161.737 78.66 162.889 80.172 164.923 80.172C166.813 80.172 168.163 78.714 168.163 76.788C168.163 74.862 166.813 73.386 164.923 73.386C162.889 73.386 161.737 74.916 161.737 76.788ZM184.286 69.48L183.26 70.308C182.72 69.534 181.838 69.03 180.632 69.03C179.372 69.03 177.914 69.786 177.914 71.424C177.914 73.044 179.264 73.458 180.686 73.926C182.486 74.52 184.466 75.096 184.466 77.652C184.466 80.208 182.324 81.324 180.308 81.324C178.76 81.324 177.212 80.694 176.294 79.434L177.41 78.606C177.968 79.506 178.994 80.208 180.326 80.208C181.64 80.208 183.152 79.38 183.152 77.742C183.152 75.96 181.658 75.51 180.038 75.006C178.346 74.484 176.618 73.746 176.618 71.442C176.618 68.976 178.814 67.932 180.686 67.932C182.396 67.932 183.674 68.652 184.286 69.48ZM194.194 73.818L193.24 74.502C192.844 73.854 191.998 73.386 191.08 73.386C189.118 73.386 187.858 74.862 187.858 76.788C187.858 78.696 189.1 80.172 191.062 80.172C192.124 80.172 192.862 79.722 193.348 79.074L194.266 79.758C193.546 80.64 192.52 81.216 191.062 81.216C188.344 81.216 186.562 79.326 186.562 76.788C186.562 74.25 188.344 72.36 191.062 72.36C192.196 72.36 193.474 72.846 194.194 73.818ZM197.434 73.962H197.47C197.92 72.99 199.108 72.36 200.296 72.36C202.438 72.36 203.5 73.746 203.5 75.834V81H202.276V76.338C202.276 74.574 201.754 73.386 199.99 73.386C198.694 73.386 197.434 74.43 197.434 76.68V81H196.21V67.392H197.434V73.962ZM207.352 76.14H213.094C213.022 74.556 212.05 73.386 210.304 73.386C208.666 73.386 207.46 74.7 207.352 76.14ZM214.336 76.536C214.336 76.698 214.336 76.896 214.318 77.112H207.334C207.37 78.804 208.684 80.172 210.412 80.172C211.672 80.172 212.644 79.47 213.112 78.714L214.03 79.434C213.04 80.694 211.798 81.216 210.412 81.216C207.91 81.216 206.056 79.326 206.056 76.788C206.056 74.25 207.91 72.36 210.304 72.36C212.95 72.36 214.336 74.232 214.336 76.536ZM223.899 79.578C223.179 80.64 221.919 81.216 220.713 81.216C218.085 81.216 216.357 79.272 216.357 76.788C216.357 74.304 218.085 72.36 220.713 72.36C221.919 72.36 223.179 72.936 223.899 74.034H223.935V67.392H225.159V81H223.935V79.578H223.899ZM217.653 76.788C217.653 78.66 218.805 80.172 220.839 80.172C222.729 80.172 224.079 78.714 224.079 76.788C224.079 74.862 222.729 73.386 220.839 73.386C218.805 73.386 217.653 74.916 217.653 76.788ZM235.72 81H234.55C234.514 80.55 234.478 79.92 234.478 79.56H234.442C233.974 80.532 232.75 81.216 231.562 81.216C229.42 81.216 228.358 79.83 228.358 77.742V72.576H229.582V77.238C229.582 79.002 230.104 80.19 231.868 80.19C233.164 80.19 234.424 79.146 234.424 76.896V72.576H235.648V79.146C235.648 79.596 235.666 80.424 235.72 81ZM240.149 67.392V81H238.925V67.392H240.149ZM244.108 76.14H249.85C249.778 74.556 248.806 73.386 247.06 73.386C245.422 73.386 244.216 74.7 244.108 76.14ZM251.092 76.536C251.092 76.698 251.092 76.896 251.074 77.112H244.09C244.126 78.804 245.44 80.172 247.168 80.172C248.428 80.172 249.4 79.47 249.868 78.714L250.786 79.434C249.796 80.694 248.554 81.216 247.168 81.216C244.666 81.216 242.812 79.326 242.812 76.788C242.812 74.25 244.666 72.36 247.06 72.36C249.706 72.36 251.092 74.232 251.092 76.536ZM259.143 73.872L258.207 74.574C257.847 73.872 257.073 73.386 256.137 73.386C255.255 73.386 254.355 73.764 254.355 74.7C254.355 75.492 254.985 75.852 256.371 76.14C258.351 76.554 259.287 77.292 259.287 78.606C259.287 80.532 257.667 81.216 256.119 81.216C254.841 81.216 253.563 80.712 252.789 79.578L253.761 78.858C254.193 79.596 255.111 80.172 256.101 80.172C257.145 80.172 258.081 79.794 258.081 78.696C258.081 77.814 257.199 77.454 255.597 77.076C254.607 76.842 253.185 76.41 253.185 74.808C253.185 73.098 254.661 72.36 256.191 72.36C257.361 72.36 258.603 72.918 259.143 73.872Z" fill="black"/>
<path d="M337.436 117.354H82.2143C72.2732 117.354 64.2143 125.413 64.2143 135.354V365.052C64.2143 374.993 72.2732 383.052 82.2143 383.052H337.436C347.377 383.052 355.436 374.993 355.436 365.052V135.354C355.436 125.413 347.377 117.354 337.436 117.354Z" fill="#FFFEFF"/>
<path d="M337.436 117.354H82.2143C72.2732 117.354 64.2143 125.413 64.2143 135.354V143.693C64.2143 153.634 72.2732 161.693 82.2143 161.693H337.436C347.377 161.693 355.436 153.634 355.436 143.693V135.354C355.436 125.413 347.377 117.354 337.436 117.354Z" fill="url(#paint0_linear_505_3132)"/>
<path d="M184.008 134.998H185.914L189.228 143.091H189.35L192.664 134.998H194.571V145.409H193.076V137.875H192.98L189.909 145.393H188.669L185.599 137.87H185.502V145.409H184.008V134.998ZM205.897 140.203C205.897 141.315 205.694 142.271 205.287 143.07C204.881 143.867 204.323 144.48 203.615 144.911C202.91 145.338 202.109 145.551 201.211 145.551C200.309 145.551 199.504 145.338 198.796 144.911C198.091 144.48 197.535 143.865 197.129 143.065C196.722 142.266 196.519 141.312 196.519 140.203C196.519 139.092 196.722 138.138 197.129 137.342C197.535 136.542 198.091 135.929 198.796 135.502C199.504 135.071 200.309 134.856 201.211 134.856C202.109 134.856 202.91 135.071 203.615 135.502C204.323 135.929 204.881 136.542 205.287 137.342C205.694 138.138 205.897 139.092 205.897 140.203ZM204.342 140.203C204.342 139.356 204.205 138.643 203.93 138.063C203.659 137.481 203.286 137.04 202.812 136.742C202.341 136.44 201.807 136.289 201.211 136.289C200.611 136.289 200.075 136.44 199.604 136.742C199.133 137.04 198.761 137.481 198.486 138.063C198.215 138.643 198.079 139.356 198.079 140.203C198.079 141.051 198.215 141.766 198.486 142.349C198.761 142.928 199.133 143.369 199.604 143.67C200.075 143.968 200.611 144.118 201.211 144.118C201.807 144.118 202.341 143.968 202.812 143.67C203.286 143.369 203.659 142.928 203.93 142.349C204.205 141.766 204.342 141.051 204.342 140.203ZM216.258 134.998V145.409H214.815L209.523 137.774H209.426V145.409H207.856V134.998H209.309L214.606 142.643H214.703V134.998H216.258ZM218.036 136.35V134.998H226.093V136.35H222.845V145.409H221.279V136.35H218.036ZM227.873 145.409V134.998H229.444V139.522H234.634V134.998H236.21V145.409H234.634V140.869H229.444V145.409H227.873Z" fill="#FEFEFE"/>
<path d="M93.9978 141.078C93.9978 142.765 92.1757 143.822 90.7118 142.984C89.2376 142.141 89.2376 140.015 90.7118 139.172C92.1757 138.335 93.9978 139.392 93.9978 141.078Z" fill="#FEFEFE"/>
<path d="M327.644 141.078C327.644 139.394 329.466 138.341 330.926 139.18C332.389 140.022 332.389 142.134 330.926 142.976C329.466 143.816 327.644 142.762 327.644 141.078Z" fill="#FEFEFE"/>
<path d="M64.2142 161.693H355.398" stroke="#FEFEFE" stroke-width="1.74142" stroke-miterlimit="10"/>
<path d="M301.396 117.053V161.693" stroke="#FEFEFE" stroke-width="1.74142" stroke-miterlimit="10"/>
<path d="M119.195 117.053V161.693" stroke="#FEFEFE" stroke-width="1.74142" stroke-miterlimit="10"/>
<path d="M96.9567 188.471H98.8169L102.051 196.367H102.17L105.404 188.471H107.264V198.629H105.806V191.278H105.712L102.716 198.615H101.505L98.5093 191.273H98.4151V198.629H96.9567V188.471Z" fill="#90AFD4"/>
<path d="M134.964 189.79V188.471H142.826V189.79H139.657V198.629H138.129V189.79H134.964Z" fill="#90AFD4"/>
<path d="M169.382 198.629L166.564 188.471H168.176L170.156 196.338H170.25L172.308 188.471H173.906L175.964 196.343H176.058L178.033 188.471H179.65L176.827 198.629H175.285L173.147 191.02H173.067L170.929 198.629H169.382Z" fill="#90AFD4"/>
<path d="M206.416 189.79V188.471H214.278V189.79H211.108V198.629H209.581V189.79H206.416Z" fill="#90AFD4"/>
<path d="M242.192 198.629V188.471H248.491V189.79H243.725V192.885H248.04V194.2H243.725V198.629H242.192Z" fill="#90AFD4"/>
<path d="M283.608 191.139C283.555 190.67 283.337 190.306 282.953 190.048C282.57 189.787 282.087 189.656 281.505 189.656C281.088 189.656 280.728 189.722 280.424 189.855C280.119 189.983 279.883 190.162 279.714 190.39C279.549 190.615 279.466 190.871 279.466 191.159C279.466 191.4 279.522 191.609 279.635 191.784C279.751 191.959 279.901 192.107 280.086 192.226C280.275 192.341 280.476 192.439 280.691 192.518C280.906 192.594 281.113 192.657 281.311 192.707L282.304 192.965C282.628 193.044 282.96 193.151 283.301 193.287C283.641 193.423 283.957 193.601 284.248 193.823C284.539 194.044 284.774 194.319 284.952 194.646C285.134 194.974 285.225 195.365 285.225 195.822C285.225 196.397 285.076 196.908 284.779 197.355C284.484 197.801 284.056 198.153 283.494 198.411C282.935 198.669 282.259 198.798 281.465 198.798C280.705 198.798 280.047 198.677 279.491 198.436C278.935 198.195 278.501 197.852 278.186 197.409C277.872 196.963 277.699 196.434 277.666 195.822H279.203C279.233 196.189 279.352 196.495 279.56 196.739C279.772 196.981 280.042 197.161 280.369 197.28C280.7 197.396 281.062 197.454 281.455 197.454C281.889 197.454 282.274 197.386 282.611 197.25C282.952 197.112 283.22 196.92 283.415 196.675C283.61 196.427 283.707 196.138 283.707 195.807C283.707 195.506 283.621 195.26 283.449 195.068C283.281 194.876 283.051 194.717 282.76 194.592C282.472 194.466 282.146 194.355 281.783 194.259L280.582 193.932C279.769 193.71 279.124 193.385 278.648 192.955C278.175 192.525 277.938 191.956 277.938 191.248C277.938 190.663 278.097 190.152 278.415 189.716C278.732 189.279 279.162 188.94 279.704 188.699C280.247 188.454 280.858 188.332 281.54 188.332C282.227 188.332 282.834 188.452 283.36 188.694C283.889 188.935 284.306 189.268 284.61 189.691C284.914 190.111 285.073 190.594 285.086 191.139H283.608Z" fill="#90AFD4"/>
<path d="M319.334 191.139C319.281 190.67 319.063 190.306 318.679 190.048C318.296 189.787 317.813 189.656 317.231 189.656C316.814 189.656 316.454 189.722 316.149 189.855C315.845 189.983 315.609 190.162 315.44 190.39C315.275 190.615 315.192 190.871 315.192 191.159C315.192 191.4 315.248 191.609 315.361 191.784C315.476 191.959 315.627 192.107 315.812 192.226C316.001 192.341 316.202 192.439 316.417 192.518C316.632 192.594 316.839 192.657 317.037 192.707L318.029 192.965C318.353 193.044 318.686 193.151 319.026 193.287C319.367 193.423 319.683 193.601 319.974 193.823C320.265 194.044 320.5 194.319 320.678 194.646C320.86 194.974 320.951 195.365 320.951 195.822C320.951 196.397 320.802 196.908 320.505 197.355C320.21 197.801 319.782 198.153 319.22 198.411C318.661 198.669 317.985 198.798 317.191 198.798C316.43 198.798 315.772 198.677 315.217 198.436C314.661 198.195 314.226 197.852 313.912 197.409C313.598 196.963 313.424 196.434 313.391 195.822H314.929C314.959 196.189 315.078 196.495 315.286 196.739C315.498 196.981 315.767 197.161 316.095 197.28C316.425 197.396 316.788 197.454 317.181 197.454C317.614 197.454 318 197.386 318.337 197.25C318.677 197.112 318.945 196.92 319.14 196.675C319.336 196.427 319.433 196.138 319.433 195.807C319.433 195.506 319.347 195.26 319.175 195.068C319.006 194.876 318.777 194.717 318.486 194.592C318.198 194.466 317.872 194.355 317.508 194.259L316.308 193.932C315.495 193.71 314.85 193.385 314.374 192.955C313.901 192.525 313.664 191.956 313.664 191.248C313.664 190.663 313.823 190.152 314.14 189.716C314.458 189.279 314.888 188.94 315.43 188.699C315.972 188.454 316.584 188.332 317.265 188.332C317.953 188.332 318.56 188.452 319.086 188.694C319.615 188.935 320.032 189.268 320.336 189.691C320.64 190.111 320.799 190.594 320.812 191.139H319.334Z" fill="#90AFD4"/>
<path d="M247.863 219.692V229.851H246.325V221.23H246.266L243.835 222.817V221.349L246.37 219.692H247.863Z" fill="#90AFD4"/>
<path d="M278.268 229.851V228.74L281.706 225.178C282.073 224.791 282.375 224.452 282.613 224.161C282.855 223.867 283.035 223.588 283.154 223.323C283.273 223.058 283.333 222.777 283.333 222.48C283.333 222.142 283.253 221.851 283.095 221.607C282.936 221.359 282.719 221.169 282.445 221.036C282.17 220.901 281.861 220.833 281.517 220.833C281.153 220.833 280.836 220.907 280.565 221.056C280.294 221.205 280.085 221.415 279.94 221.686C279.794 221.957 279.722 222.275 279.722 222.638H278.258C278.258 222.02 278.4 221.479 278.685 221.016C278.969 220.553 279.359 220.195 279.855 219.94C280.352 219.682 280.915 219.553 281.547 219.553C282.185 219.553 282.747 219.68 283.233 219.935C283.723 220.186 284.105 220.53 284.379 220.967C284.654 221.4 284.791 221.889 284.791 222.435C284.791 222.812 284.72 223.181 284.578 223.541C284.439 223.902 284.196 224.303 283.849 224.747C283.501 225.186 283.019 225.72 282.4 226.349L280.381 228.462V228.536H284.955V229.851H278.268Z" fill="#90AFD4"/>
<path d="M317.568 229.99C316.887 229.99 316.279 229.872 315.743 229.638C315.211 229.403 314.789 229.077 314.478 228.66C314.171 228.24 314.005 227.754 313.982 227.202H315.54C315.559 227.503 315.66 227.764 315.842 227.986C316.027 228.204 316.269 228.373 316.566 228.492C316.864 228.611 317.195 228.67 317.558 228.67C317.959 228.67 318.312 228.601 318.62 228.462C318.931 228.323 319.174 228.13 319.349 227.882C319.524 227.63 319.612 227.341 319.612 227.013C319.612 226.673 319.524 226.374 319.349 226.116C319.177 225.854 318.924 225.649 318.59 225.501C318.26 225.352 317.859 225.277 317.39 225.277H316.532V224.027H317.39C317.767 224.027 318.097 223.96 318.382 223.824C318.67 223.688 318.894 223.5 319.056 223.259C319.219 223.014 319.3 222.728 319.3 222.4C319.3 222.086 319.228 221.813 319.086 221.582C318.947 221.347 318.749 221.164 318.491 221.031C318.236 220.899 317.935 220.833 317.588 220.833C317.258 220.833 316.948 220.894 316.661 221.016C316.376 221.135 316.145 221.307 315.966 221.532C315.788 221.754 315.692 222.02 315.678 222.331H314.195C314.212 221.782 314.374 221.299 314.681 220.882C314.992 220.466 315.402 220.14 315.912 219.905C316.421 219.671 316.986 219.553 317.608 219.553C318.26 219.553 318.822 219.68 319.295 219.935C319.771 220.186 320.138 220.522 320.396 220.942C320.657 221.362 320.786 221.822 320.783 222.321C320.786 222.89 320.627 223.373 320.307 223.769C319.989 224.166 319.566 224.432 319.037 224.568V224.647C319.711 224.75 320.234 225.018 320.604 225.451C320.978 225.884 321.163 226.422 321.16 227.063C321.163 227.622 321.008 228.123 320.693 228.566C320.383 229.009 319.958 229.358 319.419 229.613C318.88 229.864 318.263 229.99 317.568 229.99Z" fill="#90AFD4"/>
<path d="M223.4 285.82C223.4 293.316 217.308 299.388 209.787 299.388C202.266 299.388 196.174 293.316 196.174 285.82C196.174 278.324 202.266 272.252 209.787 272.252C217.308 272.252 223.4 278.324 223.4 285.82Z" fill="#8F00FF"/>
<path d="M98.7482 259.088V257.848L103.138 250.914H104.115V252.739H103.495L100.355 257.709V257.789H106.372V259.088H98.7482ZM103.565 261.073V258.711L103.575 258.146V250.914H105.028V261.073H103.565Z" fill="#90AFD4"/>
<path d="M138.717 261.211C138.096 261.211 137.537 261.092 137.041 260.854C136.548 260.613 136.154 260.282 135.86 259.862C135.566 259.442 135.409 258.962 135.389 258.423H136.877C136.913 258.86 137.107 259.219 137.457 259.5C137.808 259.781 138.228 259.921 138.717 259.921C139.107 259.921 139.453 259.832 139.754 259.654C140.058 259.472 140.296 259.222 140.468 258.905C140.644 258.587 140.731 258.225 140.731 257.818C140.731 257.405 140.642 257.036 140.463 256.712C140.285 256.388 140.038 256.133 139.724 255.948C139.413 255.763 139.056 255.669 138.653 255.665C138.345 255.665 138.036 255.718 137.725 255.824C137.414 255.93 137.163 256.069 136.971 256.241L135.567 256.033L136.138 250.913H141.723V252.228H137.413L137.09 255.07H137.15C137.348 254.878 137.611 254.718 137.938 254.589C138.269 254.46 138.623 254.396 139 254.396C139.618 254.396 140.169 254.543 140.652 254.837C141.138 255.131 141.52 255.533 141.798 256.042C142.079 256.548 142.218 257.13 142.214 257.789C142.218 258.447 142.069 259.034 141.768 259.549C141.47 260.065 141.057 260.472 140.528 260.77C140.002 261.064 139.398 261.211 138.717 261.211Z" fill="#90AFD4"/>
<path d="M174.336 261.211C173.883 261.205 173.437 261.122 172.997 260.963C172.561 260.804 172.164 260.54 171.807 260.169C171.449 259.799 171.163 259.301 170.948 258.676C170.737 258.051 170.631 257.271 170.631 256.335C170.631 255.449 170.719 254.662 170.894 253.974C171.072 253.286 171.329 252.706 171.663 252.233C171.997 251.757 172.4 251.395 172.873 251.147C173.346 250.899 173.877 250.775 174.465 250.775C175.07 250.775 175.608 250.894 176.077 251.132C176.547 251.37 176.927 251.699 177.218 252.119C177.513 252.539 177.699 253.017 177.779 253.552H176.266C176.163 253.129 175.96 252.783 175.656 252.516C175.352 252.248 174.955 252.114 174.465 252.114C173.721 252.114 173.141 252.438 172.724 253.086C172.311 253.734 172.103 254.635 172.099 255.789H172.174C172.349 255.502 172.564 255.257 172.818 255.055C173.076 254.85 173.364 254.693 173.682 254.584C174.002 254.472 174.34 254.415 174.694 254.415C175.282 254.415 175.815 254.559 176.291 254.847C176.77 255.131 177.152 255.525 177.437 256.028C177.721 256.53 177.863 257.106 177.863 257.754C177.863 258.402 177.716 258.989 177.422 259.515C177.131 260.041 176.721 260.457 176.192 260.765C175.662 261.069 175.044 261.218 174.336 261.211ZM174.331 259.921C174.722 259.921 175.07 259.826 175.378 259.634C175.686 259.442 175.929 259.184 176.107 258.86C176.286 258.536 176.375 258.174 176.375 257.774C176.375 257.383 176.287 257.028 176.112 256.707C175.94 256.386 175.702 256.132 175.398 255.943C175.097 255.755 174.753 255.661 174.366 255.661C174.072 255.661 173.799 255.717 173.548 255.829C173.3 255.942 173.081 256.097 172.893 256.295C172.704 256.494 172.556 256.722 172.446 256.98C172.341 257.235 172.288 257.504 172.288 257.789C172.288 258.169 172.375 258.521 172.551 258.845C172.729 259.169 172.972 259.43 173.28 259.629C173.591 259.824 173.941 259.921 174.331 259.921Z" fill="#90AFD4"/>
<path d="M207.007 261.072L211.442 252.302V252.228H206.313V250.913H213.029V252.273L208.61 261.072H207.007Z" fill="#90AFD4"/>
<path d="M245.486 261.211C244.775 261.211 244.146 261.089 243.601 260.844C243.058 260.599 242.633 260.262 242.326 259.832C242.018 259.402 241.866 258.913 241.87 258.364C241.866 257.934 241.954 257.539 242.132 257.178C242.314 256.815 242.561 256.512 242.872 256.271C243.182 256.026 243.53 255.87 243.913 255.804V255.745C243.407 255.622 243.002 255.351 242.698 254.931C242.394 254.511 242.243 254.029 242.247 253.483C242.243 252.964 242.381 252.501 242.658 252.094C242.939 251.684 243.325 251.362 243.814 251.127C244.303 250.892 244.861 250.775 245.486 250.775C246.104 250.775 246.656 250.894 247.142 251.132C247.632 251.366 248.017 251.689 248.298 252.099C248.579 252.506 248.722 252.967 248.725 253.483C248.722 254.029 248.566 254.511 248.259 254.931C247.951 255.351 247.551 255.622 247.058 255.745V255.804C247.438 255.87 247.781 256.026 248.085 256.271C248.392 256.512 248.637 256.815 248.819 257.178C249.004 257.539 249.098 257.934 249.102 258.364C249.098 258.913 248.943 259.402 248.636 259.832C248.328 260.262 247.901 260.599 247.356 260.844C246.813 261.089 246.19 261.211 245.486 261.211ZM245.486 259.956C245.906 259.956 246.269 259.887 246.577 259.748C246.885 259.606 247.123 259.409 247.291 259.158C247.46 258.903 247.546 258.605 247.549 258.265C247.546 257.911 247.453 257.598 247.271 257.327C247.093 257.056 246.85 256.843 246.542 256.687C246.235 256.532 245.883 256.454 245.486 256.454C245.086 256.454 244.73 256.532 244.419 256.687C244.108 256.843 243.864 257.056 243.685 257.327C243.507 257.598 243.419 257.911 243.422 258.265C243.419 258.605 243.5 258.903 243.665 259.158C243.834 259.409 244.074 259.606 244.384 259.748C244.695 259.887 245.062 259.956 245.486 259.956ZM245.486 255.229C245.823 255.229 246.122 255.161 246.384 255.026C246.645 254.89 246.85 254.701 246.999 254.46C247.151 254.219 247.228 253.936 247.232 253.612C247.228 253.294 247.152 253.017 247.004 252.779C246.858 252.54 246.655 252.357 246.393 252.228C246.132 252.096 245.83 252.03 245.486 252.03C245.135 252.03 244.828 252.096 244.563 252.228C244.302 252.357 244.098 252.54 243.953 252.779C243.807 253.017 243.736 253.294 243.74 253.612C243.736 253.936 243.809 254.219 243.958 254.46C244.107 254.701 244.312 254.89 244.573 255.026C244.838 255.161 245.142 255.229 245.486 255.229Z" fill="#8F00FF"/>
<path d="M281.345 250.775C281.798 250.778 282.245 250.861 282.684 251.023C283.124 251.185 283.521 251.449 283.875 251.816C284.232 252.183 284.517 252.679 284.728 253.304C284.943 253.926 285.052 254.7 285.056 255.626C285.056 256.515 284.966 257.307 284.788 258.002C284.609 258.693 284.353 259.277 284.019 259.753C283.688 260.229 283.286 260.591 282.813 260.839C282.341 261.087 281.808 261.211 281.216 261.211C280.611 261.211 280.074 261.092 279.604 260.854C279.135 260.616 278.753 260.287 278.458 259.867C278.164 259.444 277.98 258.957 277.908 258.409H279.421C279.52 258.845 279.721 259.199 280.026 259.47C280.333 259.738 280.73 259.872 281.216 259.872C281.96 259.872 282.541 259.548 282.957 258.9C283.374 258.248 283.584 257.339 283.587 256.171H283.508C283.336 256.456 283.121 256.701 282.863 256.906C282.608 257.111 282.322 257.269 282.005 257.382C281.687 257.494 281.349 257.55 280.988 257.55C280.403 257.55 279.87 257.407 279.391 257.119C278.911 256.831 278.529 256.436 278.245 255.933C277.961 255.431 277.818 254.857 277.818 254.212C277.818 253.571 277.964 252.989 278.255 252.466C278.549 251.944 278.959 251.53 279.485 251.226C280.014 250.918 280.634 250.768 281.345 250.775ZM281.35 252.064C280.963 252.064 280.614 252.16 280.304 252.352C279.996 252.54 279.753 252.797 279.574 253.121C279.396 253.442 279.306 253.799 279.306 254.192C279.306 254.586 279.392 254.943 279.564 255.264C279.74 255.581 279.978 255.834 280.279 256.023C280.583 256.208 280.93 256.3 281.32 256.3C281.611 256.3 281.883 256.244 282.134 256.132C282.385 256.019 282.605 255.864 282.794 255.665C282.982 255.464 283.129 255.236 283.235 254.981C283.341 254.726 283.394 254.458 283.394 254.177C283.394 253.804 283.305 253.456 283.126 253.136C282.951 252.815 282.709 252.557 282.402 252.362C282.094 252.163 281.744 252.064 281.35 252.064Z" fill="#90AFD4"/>
<path d="M314.087 250.913V261.072H312.549V252.451H312.49L310.059 254.038V252.57L312.594 250.913H314.087ZM320.372 261.241C319.588 261.238 318.918 261.031 318.363 260.621C317.807 260.211 317.382 259.614 317.088 258.83C316.794 258.046 316.646 257.102 316.646 255.998C316.646 254.897 316.794 253.956 317.088 253.175C317.385 252.395 317.812 251.8 318.368 251.39C318.926 250.98 319.594 250.775 320.372 250.775C321.149 250.775 321.815 250.981 322.371 251.395C322.926 251.805 323.351 252.4 323.645 253.18C323.943 253.957 324.092 254.897 324.092 255.998C324.092 257.106 323.945 258.051 323.65 258.835C323.356 259.616 322.931 260.212 322.376 260.626C321.82 261.036 321.152 261.241 320.372 261.241ZM320.372 259.916C321.059 259.916 321.597 259.581 321.984 258.91C322.374 258.238 322.569 257.268 322.569 255.998C322.569 255.155 322.48 254.442 322.301 253.86C322.126 253.275 321.873 252.831 321.542 252.531C321.215 252.226 320.825 252.074 320.372 252.074C319.687 252.074 319.15 252.411 318.759 253.086C318.369 253.761 318.173 254.731 318.169 255.998C318.169 256.844 318.257 257.56 318.432 258.146C318.611 258.728 318.864 259.169 319.191 259.47C319.518 259.768 319.912 259.916 320.372 259.916Z" fill="#90AFD4"/>
<path d="M101.875 282.135V292.294H100.338V283.673H100.278L97.8476 285.26V283.792L100.382 282.135H101.875ZM108.478 282.135V292.294H106.94V283.673H106.88L104.45 285.26V283.792L106.985 282.135H108.478Z" fill="#90AFD4"/>
<path d="M136.097 282.136V292.294H134.56V283.673H134.5L132.07 285.261V283.792L134.604 282.136H136.097ZM138.845 292.294V291.183L142.283 287.622C142.65 287.235 142.953 286.896 143.191 286.605C143.432 286.311 143.612 286.031 143.731 285.767C143.851 285.502 143.91 285.221 143.91 284.923C143.91 284.586 143.831 284.295 143.672 284.05C143.513 283.802 143.297 283.612 143.022 283.48C142.748 283.344 142.438 283.276 142.095 283.276C141.731 283.276 141.413 283.351 141.142 283.5C140.871 283.649 140.663 283.859 140.517 284.13C140.372 284.401 140.299 284.718 140.299 285.082H138.836C138.836 284.464 138.978 283.923 139.262 283.46C139.547 282.997 139.937 282.638 140.433 282.384C140.929 282.126 141.493 281.997 142.124 281.997C142.763 281.997 143.325 282.124 143.811 282.379C144.3 282.63 144.682 282.974 144.957 283.41C145.231 283.844 145.368 284.333 145.368 284.879C145.368 285.256 145.297 285.624 145.155 285.985C145.016 286.345 144.773 286.747 144.426 287.19C144.079 287.63 143.596 288.164 142.977 288.792L140.959 290.906V290.98H145.532V292.294H138.845Z" fill="#90AFD4"/>
<path d="M171.899 282.136V292.294H170.361V283.673H170.301L167.871 285.261V283.792L170.406 282.136H171.899ZM178.183 292.433C177.502 292.433 176.894 292.316 176.358 292.081C175.826 291.846 175.404 291.521 175.093 291.104C174.786 290.684 174.62 290.198 174.597 289.646H176.155C176.174 289.947 176.275 290.208 176.457 290.429C176.642 290.648 176.884 290.816 177.181 290.935C177.479 291.054 177.81 291.114 178.174 291.114C178.574 291.114 178.928 291.044 179.235 290.906C179.546 290.767 179.789 290.573 179.964 290.325C180.139 290.074 180.227 289.784 180.227 289.457C180.227 289.116 180.139 288.817 179.964 288.559C179.792 288.298 179.539 288.093 179.205 287.944C178.875 287.795 178.474 287.721 178.005 287.721H177.147V286.471H178.005C178.382 286.471 178.713 286.403 178.997 286.268C179.285 286.132 179.51 285.944 179.672 285.702C179.834 285.457 179.915 285.171 179.915 284.844C179.915 284.53 179.844 284.257 179.701 284.026C179.562 283.791 179.364 283.607 179.106 283.475C178.851 283.343 178.551 283.276 178.203 283.276C177.873 283.276 177.563 283.338 177.276 283.46C176.991 283.579 176.76 283.751 176.581 283.976C176.403 284.197 176.307 284.464 176.294 284.775H174.81C174.827 284.226 174.989 283.743 175.297 283.326C175.607 282.909 176.017 282.584 176.527 282.349C177.036 282.114 177.601 281.997 178.223 281.997C178.875 281.997 179.437 282.124 179.91 282.379C180.386 282.63 180.753 282.966 181.011 283.386C181.272 283.806 181.401 284.265 181.398 284.765C181.401 285.333 181.242 285.816 180.922 286.213C180.604 286.61 180.181 286.876 179.652 287.012V287.091C180.326 287.194 180.849 287.461 181.219 287.895C181.593 288.328 181.778 288.865 181.775 289.507C181.778 290.066 181.623 290.567 181.308 291.01C180.998 291.453 180.573 291.802 180.034 292.056C179.495 292.308 178.878 292.433 178.183 292.433Z" fill="#90AFD4"/>
<path d="M206.947 282.136V292.294H205.409V283.673H205.35L202.919 285.261V283.792L205.454 282.136H206.947ZM209.482 290.31V289.07L213.872 282.136H214.849V283.961H214.229L211.089 288.931V289.011H217.106V290.31H209.482ZM214.298 292.294V289.933L214.308 289.368V282.136H215.761V292.294H214.298Z" fill="#FEFEFE"/>
<path d="M243.35 282.136V292.294H241.812V283.673H241.753L239.322 285.261V283.792L241.857 282.136H243.35ZM249.451 292.433C248.83 292.433 248.271 292.314 247.775 292.076C247.282 291.835 246.888 291.504 246.594 291.084C246.3 290.664 246.143 290.185 246.123 289.646H247.611C247.647 290.082 247.841 290.441 248.191 290.722C248.542 291.003 248.962 291.144 249.451 291.144C249.842 291.144 250.187 291.054 250.488 290.876C250.792 290.694 251.03 290.444 251.202 290.127C251.378 289.809 251.465 289.447 251.465 289.04C251.465 288.627 251.376 288.258 251.197 287.934C251.019 287.61 250.772 287.356 250.458 287.17C250.147 286.985 249.79 286.891 249.387 286.888C249.079 286.888 248.77 286.941 248.459 287.046C248.148 287.152 247.897 287.291 247.705 287.463L246.301 287.255L246.872 282.136H252.457V283.45H248.147L247.824 286.292H247.884C248.082 286.101 248.345 285.94 248.673 285.811C249.003 285.682 249.357 285.618 249.734 285.618C250.352 285.618 250.903 285.765 251.386 286.059C251.872 286.354 252.254 286.755 252.532 287.265C252.813 287.771 252.952 288.353 252.948 289.011C252.952 289.669 252.803 290.256 252.502 290.772C252.204 291.287 251.791 291.694 251.262 291.992C250.736 292.286 250.133 292.433 249.451 292.433Z" fill="#90AFD4"/>
<path d="M278.775 282.136V292.294H277.237V283.673H277.178L274.747 285.261V283.792L277.282 282.136H278.775ZM285.069 292.433C284.616 292.427 284.17 292.344 283.73 292.185C283.294 292.027 282.897 291.762 282.54 291.392C282.183 291.021 281.896 290.524 281.682 289.899C281.47 289.274 281.364 288.493 281.364 287.557C281.364 286.671 281.452 285.884 281.627 285.196C281.806 284.508 282.062 283.928 282.396 283.455C282.73 282.979 283.133 282.617 283.606 282.369C284.079 282.121 284.61 281.997 285.198 281.997C285.804 281.997 286.341 282.116 286.811 282.354C287.28 282.592 287.66 282.921 287.951 283.341C288.246 283.761 288.433 284.239 288.512 284.775H286.999C286.897 284.351 286.693 284.006 286.389 283.738C286.085 283.47 285.688 283.336 285.198 283.336C284.454 283.336 283.874 283.66 283.457 284.308C283.044 284.956 282.836 285.858 282.832 287.012H282.907C283.082 286.724 283.297 286.479 283.552 286.278C283.81 286.072 284.097 285.915 284.415 285.806C284.735 285.694 285.073 285.638 285.427 285.638C286.015 285.638 286.548 285.781 287.024 286.069C287.503 286.354 287.885 286.747 288.17 287.25C288.454 287.752 288.596 288.328 288.596 288.976C288.596 289.624 288.449 290.211 288.155 290.737C287.864 291.263 287.454 291.679 286.925 291.987C286.396 292.291 285.777 292.44 285.069 292.433ZM285.065 291.144C285.455 291.144 285.804 291.048 286.111 290.856C286.419 290.664 286.662 290.406 286.84 290.082C287.019 289.758 287.108 289.396 287.108 288.996C287.108 288.606 287.021 288.25 286.845 287.929C286.673 287.609 286.435 287.354 286.131 287.165C285.83 286.977 285.486 286.883 285.099 286.883C284.805 286.883 284.532 286.939 284.281 287.051C284.033 287.164 283.814 287.319 283.626 287.518C283.438 287.716 283.289 287.944 283.18 288.202C283.074 288.457 283.021 288.726 283.021 289.011C283.021 289.391 283.108 289.743 283.284 290.067C283.462 290.391 283.705 290.653 284.013 290.851C284.324 291.046 284.674 291.144 285.065 291.144Z" fill="#90AFD4"/>
<path d="M314.651 282.136V292.294H313.114V283.673H313.054L310.623 285.261V283.792L313.158 282.136H314.651ZM317.742 292.294L322.176 283.525V283.45H317.047V282.136H323.763V283.495L319.344 292.294H317.742Z" fill="#90AFD4"/>
<path d="M99.8823 313.393V323.552H98.3446V314.931H98.2851L95.8545 316.518V315.05L98.3892 313.393H99.8823ZM106.063 323.691C105.352 323.691 104.724 323.569 104.178 323.324C103.636 323.079 103.211 322.742 102.903 322.312C102.596 321.882 102.444 321.393 102.447 320.844C102.444 320.414 102.531 320.019 102.71 319.658C102.892 319.294 103.138 318.992 103.449 318.75C103.76 318.506 104.107 318.35 104.49 318.284V318.225C103.985 318.102 103.579 317.831 103.275 317.411C102.971 316.991 102.82 316.508 102.824 315.963C102.82 315.443 102.958 314.98 103.236 314.574C103.517 314.164 103.902 313.841 104.391 313.606C104.881 313.372 105.438 313.254 106.063 313.254C106.681 313.254 107.234 313.373 107.72 313.611C108.209 313.846 108.594 314.169 108.875 314.579C109.157 314.985 109.299 315.447 109.302 315.963C109.299 316.508 109.143 316.991 108.836 317.411C108.528 317.831 108.128 318.102 107.635 318.225V318.284C108.016 318.35 108.358 318.506 108.662 318.75C108.97 318.992 109.214 319.294 109.396 319.658C109.581 320.019 109.676 320.414 109.679 320.844C109.676 321.393 109.52 321.882 109.213 322.312C108.905 322.742 108.479 323.079 107.933 323.324C107.391 323.569 106.767 323.691 106.063 323.691ZM106.063 322.436C106.483 322.436 106.847 322.366 107.154 322.228C107.462 322.085 107.7 321.889 107.868 321.637C108.037 321.383 108.123 321.085 108.126 320.744C108.123 320.391 108.031 320.078 107.849 319.807C107.67 319.536 107.427 319.322 107.119 319.167C106.812 319.012 106.46 318.934 106.063 318.934C105.663 318.934 105.307 319.012 104.996 319.167C104.686 319.322 104.441 319.536 104.262 319.807C104.084 320.078 103.996 320.391 103.999 320.744C103.996 321.085 104.077 321.383 104.242 321.637C104.411 321.889 104.651 322.085 104.962 322.228C105.273 322.366 105.64 322.436 106.063 322.436ZM106.063 317.709C106.4 317.709 106.7 317.641 106.961 317.505C107.222 317.37 107.427 317.181 107.576 316.94C107.728 316.698 107.806 316.416 107.809 316.092C107.806 315.774 107.73 315.496 107.581 315.258C107.435 315.02 107.232 314.837 106.971 314.708C106.709 314.575 106.407 314.509 106.063 314.509C105.712 314.509 105.405 314.575 105.14 314.708C104.879 314.837 104.676 315.02 104.53 315.258C104.385 315.496 104.314 315.774 104.317 316.092C104.314 316.416 104.386 316.698 104.535 316.94C104.684 317.181 104.889 317.37 105.15 317.505C105.415 317.641 105.719 317.709 106.063 317.709Z" fill="#90AFD4"/>
<path d="M135.834 313.393V323.552H134.296V314.931H134.237L131.806 316.518V315.05L134.341 313.393H135.834ZM141.96 313.255C142.413 313.258 142.859 313.341 143.299 313.503C143.739 313.665 144.136 313.929 144.49 314.296C144.847 314.663 145.131 315.159 145.343 315.784C145.558 316.406 145.667 317.18 145.67 318.106C145.67 318.995 145.581 319.787 145.402 320.482C145.224 321.173 144.967 321.757 144.633 322.233C144.303 322.709 143.901 323.071 143.428 323.319C142.955 323.567 142.423 323.691 141.831 323.691C141.226 323.691 140.688 323.572 140.219 323.334C139.749 323.096 139.367 322.767 139.073 322.347C138.779 321.924 138.595 321.437 138.522 320.889H140.035C140.134 321.325 140.336 321.679 140.64 321.95C140.948 322.218 141.345 322.352 141.831 322.352C142.575 322.352 143.155 322.028 143.572 321.38C143.989 320.728 144.199 319.819 144.202 318.651H144.123C143.951 318.936 143.736 319.181 143.478 319.386C143.223 319.591 142.937 319.749 142.62 319.862C142.302 319.974 141.963 320.03 141.603 320.03C141.017 320.03 140.485 319.887 140.005 319.599C139.526 319.311 139.144 318.916 138.86 318.413C138.575 317.911 138.433 317.337 138.433 316.692C138.433 316.051 138.579 315.468 138.87 314.946C139.164 314.424 139.574 314.01 140.1 313.706C140.629 313.398 141.249 313.248 141.96 313.255ZM141.965 314.544C141.578 314.544 141.229 314.64 140.918 314.832C140.611 315.02 140.368 315.277 140.189 315.601C140.01 315.922 139.921 316.279 139.921 316.672C139.921 317.066 140.007 317.423 140.179 317.744C140.354 318.061 140.592 318.314 140.893 318.503C141.198 318.688 141.545 318.78 141.935 318.78C142.226 318.78 142.497 318.724 142.749 318.612C143 318.499 143.22 318.344 143.408 318.145C143.597 317.944 143.744 317.716 143.85 317.461C143.956 317.206 144.008 316.938 144.008 316.657C144.008 316.284 143.919 315.936 143.741 315.616C143.565 315.295 143.324 315.037 143.016 314.842C142.709 314.643 142.358 314.544 141.965 314.544Z" fill="#8F00FF"/>
<path d="M164.396 323.552V322.441L167.833 318.88C168.2 318.493 168.503 318.154 168.741 317.863C168.982 317.568 169.162 317.289 169.281 317.024C169.401 316.76 169.46 316.479 169.46 316.181C169.46 315.844 169.381 315.553 169.222 315.308C169.063 315.06 168.847 314.87 168.572 314.738C168.298 314.602 167.988 314.534 167.645 314.534C167.281 314.534 166.963 314.609 166.692 314.758C166.421 314.906 166.213 315.116 166.067 315.387C165.922 315.659 165.849 315.976 165.849 316.34H164.386C164.386 315.721 164.528 315.181 164.812 314.718C165.097 314.255 165.487 313.896 165.983 313.641C166.479 313.383 167.043 313.255 167.674 313.255C168.313 313.255 168.875 313.382 169.361 313.636C169.85 313.888 170.232 314.232 170.507 314.668C170.781 315.101 170.918 315.591 170.918 316.136C170.918 316.513 170.847 316.882 170.705 317.243C170.566 317.603 170.323 318.005 169.976 318.448C169.629 318.888 169.146 319.422 168.528 320.05L166.509 322.163V322.238H171.082V323.552H164.396ZM176.499 323.721C175.715 323.718 175.045 323.511 174.49 323.101C173.934 322.691 173.509 322.094 173.215 321.31C172.921 320.526 172.774 319.582 172.774 318.478C172.774 317.377 172.921 316.436 173.215 315.655C173.513 314.875 173.939 314.28 174.495 313.87C175.054 313.46 175.722 313.255 176.499 313.255C177.276 313.255 177.942 313.461 178.498 313.875C179.053 314.285 179.478 314.88 179.773 315.66C180.07 316.437 180.219 317.377 180.219 318.478C180.219 319.586 180.072 320.531 179.778 321.315C179.483 322.096 179.058 322.692 178.503 323.106C177.947 323.516 177.279 323.721 176.499 323.721ZM176.499 322.396C177.187 322.396 177.724 322.061 178.111 321.39C178.501 320.718 178.696 319.748 178.696 318.478C178.696 317.635 178.607 316.922 178.428 316.34C178.253 315.755 178 315.311 177.669 315.01C177.342 314.706 176.952 314.554 176.499 314.554C175.814 314.554 175.277 314.891 174.887 315.566C174.496 316.241 174.3 317.211 174.296 318.478C174.296 319.324 174.384 320.04 174.559 320.626C174.738 321.208 174.991 321.649 175.318 321.95C175.646 322.248 176.039 322.396 176.499 322.396Z" fill="#90AFD4"/>
<path d="M203.731 323.552V322.441L207.169 318.88C207.536 318.493 207.839 318.154 208.077 317.863C208.318 317.568 208.498 317.289 208.617 317.024C208.736 316.76 208.796 316.479 208.796 316.181C208.796 315.844 208.717 315.553 208.558 315.308C208.399 315.06 208.182 314.87 207.908 314.738C207.633 314.602 207.324 314.534 206.98 314.534C206.617 314.534 206.299 314.609 206.028 314.758C205.757 314.906 205.548 315.116 205.403 315.387C205.257 315.659 205.185 315.976 205.185 316.34H203.721C203.721 315.721 203.864 315.181 204.148 314.718C204.432 314.255 204.823 313.896 205.319 313.641C205.815 313.383 206.379 313.255 207.01 313.255C207.648 313.255 208.211 313.382 208.697 313.636C209.186 313.888 209.568 314.232 209.843 314.668C210.117 315.101 210.254 315.591 210.254 316.136C210.254 316.513 210.183 316.882 210.041 317.243C209.902 317.603 209.659 318.005 209.312 318.448C208.965 318.888 208.482 319.422 207.863 320.05L205.844 322.163V322.238H210.418V323.552H203.731ZM216.152 313.393V323.552H214.614V314.931H214.555L212.124 316.518V315.05L214.659 313.393H216.152Z" fill="#90AFD4"/>
<path d="M237.239 323.552V322.441L240.677 318.88C241.044 318.493 241.346 318.154 241.584 317.863C241.826 317.568 242.006 317.289 242.125 317.024C242.244 316.76 242.304 316.479 242.304 316.181C242.304 315.844 242.224 315.553 242.066 315.308C241.907 315.06 241.69 314.87 241.416 314.738C241.141 314.602 240.832 314.534 240.488 314.534C240.124 314.534 239.807 314.609 239.536 314.758C239.265 314.906 239.056 315.116 238.911 315.387C238.765 315.659 238.693 315.976 238.693 316.34H237.229C237.229 315.721 237.371 315.181 237.656 314.718C237.94 314.255 238.33 313.896 238.826 313.641C239.323 313.383 239.886 313.255 240.518 313.255C241.156 313.255 241.718 313.382 242.204 313.636C242.694 313.888 243.076 314.232 243.35 314.668C243.625 315.101 243.762 315.591 243.762 316.136C243.762 316.513 243.691 316.882 243.549 317.243C243.41 317.603 243.167 318.005 242.82 318.448C242.472 318.888 241.99 319.422 241.371 320.05L239.352 322.163V322.238H243.926V323.552H237.239ZM245.806 323.552V322.441L249.243 318.88C249.61 318.493 249.913 318.154 250.151 317.863C250.392 317.568 250.573 317.289 250.692 317.024C250.811 316.76 250.87 316.479 250.87 316.181C250.87 315.844 250.791 315.553 250.632 315.308C250.473 315.06 250.257 314.87 249.982 314.738C249.708 314.602 249.399 314.534 249.055 314.534C248.691 314.534 248.374 314.609 248.102 314.758C247.831 314.906 247.623 315.116 247.477 315.387C247.332 315.659 247.259 315.976 247.259 316.34H245.796C245.796 315.721 245.938 315.181 246.222 314.718C246.507 314.255 246.897 313.896 247.393 313.641C247.889 313.383 248.453 313.255 249.085 313.255C249.723 313.255 250.285 313.382 250.771 313.636C251.26 313.888 251.642 314.232 251.917 314.668C252.191 315.101 252.329 315.591 252.329 316.136C252.329 316.513 252.257 316.882 252.115 317.243C251.976 317.603 251.733 318.005 251.386 318.448C251.039 318.888 250.556 319.422 249.938 320.05L247.919 322.163V322.238H252.492V323.552H245.806Z" fill="#90AFD4"/>
<path d="M272.852 323.552V322.441L276.29 318.88C276.657 318.493 276.959 318.154 277.197 317.863C277.439 317.568 277.619 317.289 277.738 317.024C277.857 316.76 277.917 316.479 277.917 316.181C277.917 315.844 277.837 315.553 277.678 315.308C277.52 315.06 277.303 314.87 277.029 314.738C276.754 314.602 276.445 314.534 276.101 314.534C275.737 314.534 275.42 314.609 275.149 314.758C274.877 314.906 274.669 315.116 274.524 315.387C274.378 315.659 274.305 315.976 274.305 316.34H272.842C272.842 315.721 272.984 315.181 273.269 314.718C273.553 314.255 273.943 313.896 274.439 313.641C274.935 313.383 275.499 313.255 276.131 313.255C276.769 313.255 277.331 313.382 277.817 313.636C278.307 313.888 278.689 314.232 278.963 314.668C279.238 315.101 279.375 315.591 279.375 316.136C279.375 316.513 279.304 316.882 279.162 317.243C279.023 317.603 278.78 318.005 278.432 318.448C278.085 318.888 277.602 319.422 276.984 320.05L274.965 322.163V322.238H279.539V323.552H272.852ZM284.955 323.691C284.274 323.691 283.666 323.574 283.13 323.339C282.597 323.104 282.176 322.778 281.865 322.362C281.557 321.942 281.392 321.456 281.369 320.903H282.927C282.946 321.204 283.047 321.466 283.229 321.687C283.414 321.905 283.656 322.074 283.953 322.193C284.251 322.312 284.582 322.372 284.945 322.372C285.346 322.372 285.699 322.302 286.007 322.163C286.318 322.024 286.561 321.831 286.736 321.583C286.911 321.332 286.999 321.042 286.999 320.715C286.999 320.374 286.911 320.075 286.736 319.817C286.564 319.556 286.311 319.351 285.977 319.202C285.646 319.053 285.246 318.979 284.777 318.979H283.919V317.729H284.777C285.154 317.729 285.484 317.661 285.769 317.525C286.057 317.39 286.281 317.201 286.443 316.96C286.605 316.715 286.686 316.429 286.686 316.102C286.686 315.788 286.615 315.515 286.473 315.283C286.334 315.049 286.136 314.865 285.878 314.733C285.623 314.6 285.322 314.534 284.975 314.534C284.644 314.534 284.335 314.595 284.048 314.718C283.763 314.837 283.532 315.009 283.353 315.234C283.175 315.455 283.079 315.721 283.065 316.032H281.582C281.599 315.483 281.761 315.001 282.068 314.584C282.379 314.167 282.789 313.841 283.299 313.607C283.808 313.372 284.373 313.255 284.995 313.255C285.646 313.255 286.209 313.382 286.682 313.636C287.158 313.888 287.525 314.223 287.783 314.643C288.044 315.063 288.173 315.523 288.17 316.022C288.173 316.591 288.014 317.074 287.693 317.471C287.376 317.868 286.953 318.134 286.424 318.269V318.349C287.098 318.451 287.621 318.719 287.991 319.152C288.365 319.586 288.55 320.123 288.547 320.765C288.55 321.323 288.394 321.824 288.08 322.268C287.769 322.711 287.345 323.06 286.806 323.314C286.266 323.565 285.65 323.691 284.955 323.691Z" fill="#90AFD4"/>
<path d="M313.429 323.552V322.441L316.867 318.88C317.234 318.493 317.536 318.154 317.774 317.863C318.016 317.568 318.196 317.289 318.315 317.024C318.434 316.76 318.494 316.479 318.494 316.181C318.494 315.844 318.414 315.553 318.255 315.308C318.097 315.06 317.88 314.87 317.606 314.738C317.331 314.602 317.022 314.534 316.678 314.534C316.314 314.534 315.997 314.609 315.726 314.758C315.454 314.906 315.246 315.116 315.101 315.387C314.955 315.659 314.882 315.976 314.882 316.34H313.419C313.419 315.721 313.561 315.181 313.846 314.718C314.13 314.255 314.52 313.896 315.016 313.641C315.512 313.383 316.076 313.255 316.708 313.255C317.346 313.255 317.908 313.382 318.394 313.636C318.884 313.888 319.266 314.232 319.54 314.668C319.815 315.101 319.952 315.591 319.952 316.136C319.952 316.513 319.881 316.882 319.739 317.243C319.6 317.603 319.357 318.005 319.009 318.448C318.662 318.888 318.179 319.422 317.561 320.05L315.542 322.163V322.238H320.116V323.552H313.429Z" fill="#90AFD4"/>
<path d="M94.1855 354.774V353.663L97.623 350.101C97.9901 349.714 98.2927 349.375 98.5308 349.084C98.7722 348.79 98.9524 348.51 99.0715 348.246C99.1905 347.981 99.25 347.7 99.25 347.403C99.25 347.065 99.1707 346.774 99.0119 346.53C98.8532 346.282 98.6366 346.091 98.3621 345.959C98.0877 345.824 97.7785 345.756 97.4345 345.756C97.0708 345.756 96.7533 345.83 96.4822 345.979C96.211 346.128 96.0027 346.338 95.8571 346.609C95.7116 346.88 95.6389 347.198 95.6389 347.561H94.1756C94.1756 346.943 94.3178 346.402 94.6022 345.939C94.8866 345.476 95.2768 345.117 95.7728 344.863C96.2689 344.605 96.8327 344.476 97.4643 344.476C98.1025 344.476 98.6647 344.603 99.1508 344.858C99.6403 345.109 100.022 345.453 100.297 345.89C100.571 346.323 100.708 346.812 100.708 347.358C100.708 347.735 100.637 348.104 100.495 348.464C100.356 348.825 100.113 349.226 99.7659 349.669C99.4187 350.109 98.9359 350.643 98.3175 351.272L96.2986 353.385V353.459H100.872V354.774H94.1855ZM106.105 354.913C105.484 354.913 104.925 354.794 104.429 354.555C103.936 354.314 103.542 353.983 103.248 353.563C102.954 353.143 102.797 352.664 102.777 352.125H104.265C104.301 352.561 104.495 352.92 104.845 353.201C105.196 353.482 105.616 353.623 106.105 353.623C106.495 353.623 106.841 353.534 107.142 353.355C107.446 353.173 107.684 352.923 107.856 352.606C108.032 352.289 108.119 351.926 108.119 351.52C108.119 351.106 108.03 350.738 107.851 350.414C107.673 350.089 107.426 349.835 107.112 349.65C106.801 349.464 106.444 349.37 106.041 349.367C105.733 349.367 105.424 349.42 105.113 349.526C104.802 349.631 104.551 349.77 104.359 349.942L102.955 349.734L103.526 344.615H109.111V345.929H104.801L104.478 348.772H104.538C104.736 348.58 104.999 348.419 105.326 348.29C105.657 348.162 106.011 348.097 106.388 348.097C107.006 348.097 107.557 348.244 108.04 348.538C108.526 348.833 108.908 349.235 109.186 349.744C109.467 350.25 109.606 350.832 109.602 351.49C109.606 352.148 109.457 352.735 109.156 353.251C108.858 353.767 108.445 354.173 107.916 354.471C107.39 354.765 106.786 354.913 106.105 354.913Z" fill="#90AFD4"/>
<path d="M129.497 354.774V353.663L132.935 350.101C133.302 349.714 133.604 349.375 133.842 349.084C134.084 348.79 134.264 348.51 134.383 348.246C134.502 347.981 134.562 347.7 134.562 347.403C134.562 347.065 134.482 346.774 134.323 346.53C134.165 346.282 133.948 346.091 133.674 345.959C133.399 345.824 133.09 345.756 132.746 345.756C132.382 345.756 132.065 345.83 131.794 345.979C131.522 346.128 131.314 346.338 131.169 346.609C131.023 346.88 130.95 347.198 130.95 347.561H129.487C129.487 346.943 129.629 346.402 129.914 345.939C130.198 345.476 130.588 345.117 131.084 344.863C131.58 344.605 132.144 344.476 132.776 344.476C133.414 344.476 133.976 344.603 134.462 344.858C134.952 345.109 135.334 345.453 135.608 345.89C135.883 346.323 136.02 346.812 136.02 347.358C136.02 347.735 135.949 348.104 135.807 348.464C135.668 348.825 135.425 349.226 135.077 349.669C134.73 350.109 134.247 350.643 133.629 351.272L131.61 353.385V353.459H136.184V354.774H129.497ZM141.61 354.913C141.157 354.906 140.711 354.823 140.271 354.665C139.834 354.506 139.438 354.241 139.08 353.871C138.723 353.501 138.437 353.003 138.222 352.378C138.011 351.753 137.905 350.972 137.905 350.037C137.905 349.15 137.992 348.363 138.168 347.675C138.346 346.988 138.603 346.407 138.937 345.934C139.271 345.458 139.674 345.096 140.147 344.848C140.62 344.6 141.151 344.476 141.739 344.476C142.344 344.476 142.882 344.595 143.351 344.833C143.821 345.071 144.201 345.4 144.492 345.82C144.786 346.24 144.973 346.718 145.053 347.254H143.54C143.437 346.83 143.234 346.485 142.93 346.217C142.625 345.949 142.229 345.815 141.739 345.815C140.995 345.815 140.415 346.139 139.998 346.787C139.585 347.436 139.376 348.337 139.373 349.491H139.447C139.623 349.203 139.838 348.958 140.092 348.757C140.35 348.552 140.638 348.395 140.955 348.286C141.276 348.173 141.613 348.117 141.967 348.117C142.556 348.117 143.088 348.261 143.565 348.548C144.044 348.833 144.426 349.226 144.71 349.729C144.995 350.232 145.137 350.807 145.137 351.455C145.137 352.103 144.99 352.69 144.696 353.216C144.405 353.742 143.994 354.159 143.465 354.466C142.936 354.77 142.318 354.919 141.61 354.913ZM141.605 353.623C141.995 353.623 142.344 353.527 142.652 353.335C142.959 353.143 143.202 352.885 143.381 352.561C143.56 352.237 143.649 351.875 143.649 351.475C143.649 351.085 143.561 350.729 143.386 350.409C143.214 350.088 142.976 349.833 142.672 349.645C142.371 349.456 142.027 349.362 141.64 349.362C141.346 349.362 141.073 349.418 140.821 349.531C140.573 349.643 140.355 349.798 140.167 349.997C139.978 350.195 139.829 350.423 139.72 350.681C139.614 350.936 139.562 351.206 139.562 351.49C139.562 351.87 139.649 352.222 139.824 352.546C140.003 352.871 140.246 353.132 140.554 353.33C140.864 353.525 141.215 353.623 141.605 353.623Z" fill="#90AFD4"/>
<path d="M165.675 354.774V353.663L169.112 350.101C169.479 349.714 169.782 349.375 170.02 349.084C170.261 348.79 170.441 348.51 170.561 348.246C170.68 347.981 170.739 347.7 170.739 347.403C170.739 347.065 170.66 346.774 170.501 346.53C170.342 346.282 170.126 346.091 169.851 345.959C169.577 345.824 169.268 345.756 168.924 345.756C168.56 345.756 168.242 345.83 167.971 345.979C167.7 346.128 167.492 346.338 167.346 346.609C167.201 346.88 167.128 347.198 167.128 347.561H165.665C165.665 346.943 165.807 346.402 166.091 345.939C166.376 345.476 166.766 345.117 167.262 344.863C167.758 344.605 168.322 344.476 168.953 344.476C169.592 344.476 170.154 344.603 170.64 344.858C171.129 345.109 171.511 345.453 171.786 345.89C172.06 346.323 172.197 346.812 172.197 347.358C172.197 347.735 172.126 348.104 171.984 348.464C171.845 348.825 171.602 349.226 171.255 349.669C170.908 350.109 170.425 350.643 169.807 351.272L167.788 353.385V353.459H172.361V354.774H165.675ZM174.583 354.774L179.018 346.004V345.929H173.889V344.615H180.605V345.974L176.186 354.774H174.583Z" fill="#90AFD4"/>
<path d="M200.573 354.774V353.663L204.011 350.101C204.378 349.714 204.68 349.375 204.918 349.084C205.16 348.79 205.34 348.51 205.459 348.246C205.578 347.981 205.638 347.7 205.638 347.403C205.638 347.065 205.558 346.774 205.4 346.53C205.241 346.282 205.024 346.091 204.75 345.959C204.475 345.824 204.166 345.756 203.822 345.756C203.458 345.756 203.141 345.83 202.87 345.979C202.599 346.128 202.39 346.338 202.245 346.609C202.099 346.88 202.027 347.198 202.027 347.561H200.563C200.563 346.943 200.705 346.402 200.99 345.939C201.274 345.476 201.664 345.117 202.16 344.863C202.656 344.605 203.22 344.476 203.852 344.476C204.49 344.476 205.052 344.603 205.538 344.858C206.028 345.109 206.41 345.453 206.684 345.89C206.959 346.323 207.096 346.812 207.096 347.358C207.096 347.735 207.025 348.104 206.883 348.464C206.744 348.825 206.501 349.226 206.154 349.669C205.806 350.109 205.324 350.643 204.705 351.272L202.686 353.385V353.459H207.26V354.774H200.573ZM212.572 354.913C211.861 354.913 211.233 354.79 210.687 354.546C210.145 354.301 209.72 353.963 209.413 353.534C209.105 353.104 208.953 352.614 208.956 352.065C208.953 351.635 209.04 351.24 209.219 350.88C209.401 350.516 209.647 350.213 209.958 349.972C210.269 349.727 210.616 349.572 211 349.506V349.446C210.494 349.324 210.089 349.053 209.785 348.633C209.48 348.213 209.33 347.73 209.333 347.184C209.33 346.665 209.467 346.202 209.745 345.795C210.026 345.385 210.411 345.063 210.901 344.828C211.39 344.593 211.947 344.476 212.572 344.476C213.191 344.476 213.743 344.595 214.229 344.833C214.718 345.068 215.104 345.39 215.385 345.8C215.666 346.207 215.808 346.668 215.811 347.184C215.808 347.73 215.653 348.213 215.345 348.633C215.038 349.053 214.637 349.324 214.145 349.446V349.506C214.525 349.572 214.867 349.727 215.172 349.972C215.479 350.213 215.724 350.516 215.906 350.88C216.091 351.24 216.185 351.635 216.188 352.065C216.185 352.614 216.03 353.104 215.722 353.534C215.415 353.963 214.988 354.301 214.442 354.546C213.9 354.79 213.277 354.913 212.572 354.913ZM212.572 353.658C212.992 353.658 213.356 353.588 213.664 353.449C213.971 353.307 214.209 353.11 214.378 352.859C214.546 352.604 214.632 352.307 214.636 351.966C214.632 351.612 214.54 351.3 214.358 351.029C214.179 350.757 213.936 350.544 213.629 350.389C213.321 350.233 212.969 350.156 212.572 350.156C212.172 350.156 211.817 350.233 211.506 350.389C211.195 350.544 210.95 350.757 210.772 351.029C210.593 351.3 210.505 351.612 210.509 351.966C210.505 352.307 210.586 352.604 210.752 352.859C210.92 353.11 211.16 353.307 211.471 353.449C211.782 353.588 212.149 353.658 212.572 353.658ZM212.572 348.93C212.91 348.93 213.209 348.863 213.47 348.727C213.731 348.591 213.936 348.403 214.085 348.162C214.237 347.92 214.315 347.637 214.318 347.313C214.315 346.996 214.239 346.718 214.09 346.48C213.945 346.242 213.741 346.058 213.48 345.929C213.219 345.797 212.916 345.731 212.572 345.731C212.222 345.731 211.914 345.797 211.65 345.929C211.388 346.058 211.185 346.242 211.04 346.48C210.894 346.718 210.823 346.996 210.826 347.313C210.823 347.637 210.896 347.92 211.044 348.162C211.193 348.403 211.398 348.591 211.66 348.727C211.924 348.863 212.228 348.93 212.572 348.93Z" fill="#90AFD4"/>
<path d="M236.525 354.774V353.663L239.962 350.101C240.329 349.714 240.632 349.375 240.87 349.084C241.111 348.79 241.292 348.51 241.411 348.246C241.53 347.981 241.589 347.7 241.589 347.403C241.589 347.065 241.51 346.774 241.351 346.53C241.193 346.282 240.976 346.091 240.701 345.959C240.427 345.824 240.118 345.756 239.774 345.756C239.41 345.756 239.093 345.83 238.821 345.979C238.55 346.128 238.342 346.338 238.196 346.609C238.051 346.88 237.978 347.198 237.978 347.561H236.515C236.515 346.943 236.657 346.402 236.941 345.939C237.226 345.476 237.616 345.117 238.112 344.863C238.608 344.605 239.172 344.476 239.804 344.476C240.442 344.476 241.004 344.603 241.49 344.858C241.98 345.109 242.361 345.453 242.636 345.89C242.91 346.323 243.048 346.812 243.048 347.358C243.048 347.735 242.977 348.104 242.834 348.464C242.695 348.825 242.452 349.226 242.105 349.669C241.758 350.109 241.275 350.643 240.657 351.272L238.638 353.385V353.459H243.211V354.774H236.525ZM248.469 344.476C248.922 344.479 249.369 344.562 249.809 344.724C250.248 344.886 250.645 345.151 250.999 345.518C251.356 345.885 251.641 346.381 251.852 347.006C252.067 347.627 252.176 348.401 252.18 349.327C252.18 350.217 252.09 351.009 251.912 351.703C251.733 352.394 251.477 352.978 251.143 353.454C250.812 353.93 250.411 354.293 249.938 354.541C249.465 354.789 248.932 354.913 248.34 354.913C247.735 354.913 247.198 354.794 246.728 354.555C246.259 354.317 245.877 353.988 245.582 353.568C245.288 353.145 245.105 352.659 245.032 352.11H246.545C246.644 352.546 246.846 352.9 247.15 353.171C247.457 353.439 247.854 353.573 248.34 353.573C249.084 353.573 249.665 353.249 250.081 352.601C250.498 351.95 250.708 351.04 250.711 349.873H250.632C250.46 350.157 250.245 350.402 249.987 350.607C249.733 350.812 249.447 350.971 249.129 351.083C248.812 351.196 248.473 351.252 248.112 351.252C247.527 351.252 246.994 351.108 246.515 350.82C246.035 350.533 245.654 350.137 245.369 349.635C245.085 349.132 244.943 348.558 244.943 347.913C244.943 347.272 245.088 346.69 245.379 346.167C245.673 345.645 246.083 345.232 246.609 344.927C247.138 344.62 247.758 344.469 248.469 344.476ZM248.474 345.766C248.087 345.766 247.739 345.862 247.428 346.053C247.12 346.242 246.877 346.498 246.699 346.822C246.52 347.143 246.431 347.5 246.431 347.894C246.431 348.287 246.517 348.644 246.689 348.965C246.864 349.283 247.102 349.536 247.403 349.724C247.707 349.909 248.054 350.002 248.445 350.002C248.736 350.002 249.007 349.946 249.258 349.833C249.509 349.721 249.729 349.565 249.918 349.367C250.106 349.165 250.253 348.937 250.359 348.682C250.465 348.428 250.518 348.16 250.518 347.879C250.518 347.505 250.429 347.158 250.25 346.837C250.075 346.516 249.833 346.258 249.526 346.063C249.218 345.865 248.868 345.766 248.474 345.766Z" fill="#8F00FF"/>
<path d="M274.189 349.256C276.41 349.312 277.499 350.43 277.499 352.022C277.499 353.642 276.326 354.844 274.077 354.844C272.638 354.844 271.311 354.313 270.627 353.53L270.99 352.986C271.591 353.67 272.736 354.187 274.077 354.187C275.837 354.187 276.773 353.349 276.773 352.022C276.773 350.709 275.879 349.857 273.923 349.857H273.309V349.34L276.2 345.638H270.99V344.996H277.122V345.499L274.189 349.256ZM282.83 354.844C280.581 354.844 279.003 352.944 279.003 349.885C279.003 346.826 280.581 344.926 282.83 344.926C285.079 344.926 286.657 346.826 286.657 349.885C286.657 352.944 285.079 354.844 282.83 354.844ZM282.83 354.187C284.674 354.187 285.945 352.609 285.945 349.885C285.945 347.161 284.674 345.582 282.83 345.582C280.986 345.582 279.715 347.161 279.715 349.885C279.715 352.609 280.986 354.187 282.83 354.187Z" fill="#90AFD4"/>
<path d="M314.483 354.913C313.802 354.913 313.194 354.795 312.658 354.56C312.125 354.326 311.704 354 311.393 353.583C311.085 353.163 310.92 352.677 310.897 352.125H312.455C312.474 352.426 312.575 352.687 312.757 352.909C312.942 353.127 313.184 353.295 313.481 353.415C313.779 353.534 314.11 353.593 314.473 353.593C314.874 353.593 315.227 353.524 315.535 353.385C315.846 353.246 316.089 353.052 316.264 352.804C316.439 352.553 316.527 352.264 316.527 351.936C316.527 351.596 316.439 351.296 316.264 351.039C316.092 350.777 315.839 350.572 315.505 350.423C315.174 350.275 314.774 350.2 314.305 350.2H313.447V348.95H314.305C314.682 348.95 315.012 348.882 315.297 348.747C315.584 348.611 315.809 348.423 315.971 348.181C316.133 347.937 316.214 347.651 316.214 347.323C316.214 347.009 316.143 346.736 316.001 346.505C315.862 346.27 315.664 346.086 315.406 345.954C315.151 345.822 314.85 345.756 314.503 345.756C314.172 345.756 313.863 345.817 313.576 345.939C313.291 346.058 313.06 346.23 312.881 346.455C312.703 346.677 312.607 346.943 312.593 347.254H311.11C311.127 346.705 311.289 346.222 311.596 345.805C311.907 345.389 312.317 345.063 312.827 344.828C313.336 344.593 313.901 344.476 314.523 344.476C315.174 344.476 315.737 344.603 316.21 344.858C316.686 345.109 317.053 345.445 317.311 345.865C317.572 346.285 317.701 346.744 317.698 347.244C317.701 347.813 317.542 348.295 317.221 348.692C316.904 349.089 316.481 349.355 315.952 349.491V349.57C316.626 349.673 317.149 349.941 317.519 350.374C317.893 350.807 318.078 351.344 318.075 351.986C318.078 352.545 317.922 353.046 317.608 353.489C317.297 353.932 316.873 354.281 316.334 354.536C315.794 354.787 315.178 354.913 314.483 354.913ZM323.804 344.615V354.774H322.266V346.153H322.207L319.776 347.74V346.272L322.311 344.615H323.804Z" fill="#90AFD4"/>
<defs>
<filter id="filter0_d_505_3132" x="0" y="0" width="419" height="442" filterUnits="userSpaceOnUse" color-interpolation-filters="sRGB">
<feFlood flood-opacity="0" result="BackgroundImageFix"/>
<feColorMatrix in="SourceAlpha" type="matrix" values="0 0 0 0 0 0 0 0 0 0 0 0 0 0 0 0 0 0 127 0" result="hardAlpha"/>
<feOffset dy="5"/>
<feGaussianBlur stdDeviation="20"/>
<feComposite in2="hardAlpha" operator="out"/>
<feColorMatrix type="matrix" values="0 0 0 0 0 0 0 0 0 0.105882 0 0 0 0 0.419608 0 0 0 0.08 0"/>
<feBlend mode="normal" in2="BackgroundImageFix" result="effect1_dropShadow_505_3132"/>
<feBlend mode="normal" in="SourceGraphic" in2="effect1_dropShadow_505_3132" result="shape"/>
</filter>
<linearGradient id="paint0_linear_505_3132" x1="64.2143" y1="139.542" x2="355.398" y2="139.542" gradientUnits="userSpaceOnUse">
<stop stop-color="#0000FF"/>
<stop offset="0.49" stop-color="#8F00FF"/>
<stop offset="1" stop-color="#FF1494"/>
</linearGradient>
</defs>
</svg>
