<svg width="400" height="365" viewBox="0 0 400 365" fill="none" xmlns="http://www.w3.org/2000/svg">
<rect y="0.0859375" width="399.079" height="364.59" rx="8.21149" fill="white"/>
<path d="M150.994 41.1274C154.755 41.1274 157.071 43.3281 157.071 46.8754C157.071 50.4228 154.755 52.5742 150.994 52.5742H147.431V41.1274H150.994ZM148.925 51.3425H150.994C153.983 51.3425 155.544 49.6674 155.544 46.8754C155.544 44.0835 153.983 42.3427 150.994 42.3427H148.925V51.3425ZM163.69 44.6912C162.228 44.6912 161.013 45.6601 160.849 47.4174H166.531C166.547 45.6601 165.234 44.6912 163.69 44.6912ZM167.894 49.7987C167.434 51.441 165.989 52.722 163.756 52.722C161.194 52.722 159.305 50.9155 159.305 48.0579C159.305 45.2167 161.128 43.4266 163.756 43.4266C166.367 43.4266 168.075 45.266 168.075 47.7294C168.075 48.0579 168.058 48.3207 168.026 48.6327H160.832C160.947 50.4557 162.228 51.4575 163.756 51.4575C165.102 51.4575 165.956 50.7677 166.285 49.7987H167.894ZM169.801 43.5744H171.411L174.219 51.1947L177.011 43.5744H178.604L175.073 52.5742H173.332L169.801 43.5744ZM180.896 52.5742V43.5744H182.39V52.5742H180.896ZM181.668 42.1128C181.093 42.1128 180.649 41.6694 180.649 41.0946C180.649 40.5197 181.093 40.0763 181.668 40.0763C182.209 40.0763 182.653 40.5197 182.653 41.0946C182.653 41.6694 182.209 42.1128 181.668 42.1128ZM185.2 48.0579C185.2 45.2331 187.023 43.4266 189.585 43.4266C191.818 43.4266 193.28 44.5762 193.74 46.4649H192.13C191.818 45.381 190.915 44.6912 189.585 44.6912C187.943 44.6912 186.727 45.8572 186.727 48.0579C186.727 50.2914 187.943 51.4575 189.585 51.4575C190.915 51.4575 191.802 50.817 192.13 49.6838H193.74C193.28 51.4739 191.818 52.722 189.585 52.722C187.023 52.722 185.2 50.9155 185.2 48.0579ZM200.382 44.6912C198.92 44.6912 197.705 45.6601 197.541 47.4174H203.223C203.239 45.6601 201.926 44.6912 200.382 44.6912ZM204.586 49.7987C204.126 51.441 202.681 52.722 200.447 52.722C197.885 52.722 195.997 50.9155 195.997 48.0579C195.997 45.2167 197.82 43.4266 200.447 43.4266C203.059 43.4266 204.767 45.266 204.767 47.7294C204.767 48.0579 204.75 48.3207 204.717 48.6327H197.524C197.639 50.4557 198.92 51.4575 200.447 51.4575C201.794 51.4575 202.648 50.7677 202.977 49.7987H204.586ZM212.054 42.3427V41.1274H219.806V42.3427H216.685V52.5742H215.191V42.3427H212.054ZM225.882 50.8662L228.674 43.5744H230.218L224.798 56.8113H223.255L225.028 52.4757L221.399 43.5744H223.058L225.882 50.8662ZM234.036 45.2331C234.578 44.2806 235.76 43.4266 237.403 43.4266C239.817 43.4266 241.673 45.2331 241.673 48.0415C241.673 50.8334 239.817 52.722 237.403 52.722C235.76 52.722 234.594 51.8352 234.036 50.9155V56.8442H232.541V43.5744H234.036V45.2331ZM240.145 48.0415C240.145 45.9229 238.749 44.724 237.091 44.724C235.465 44.724 234.036 45.9722 234.036 48.0579C234.036 50.1765 235.465 51.4082 237.091 51.4082C238.749 51.4082 240.145 50.16 240.145 48.0415ZM248.287 44.6912C246.826 44.6912 245.611 45.6601 245.446 47.4174H251.129C251.145 45.6601 249.831 44.6912 248.287 44.6912ZM252.492 49.7987C252.032 51.441 250.587 52.722 248.353 52.722C245.791 52.722 243.903 50.9155 243.903 48.0579C243.903 45.2167 245.725 43.4266 248.353 43.4266C250.964 43.4266 252.672 45.266 252.672 47.7294C252.672 48.0579 252.656 48.3207 252.623 48.6327H245.43C245.545 50.4557 246.826 51.4575 248.353 51.4575C249.7 51.4575 250.554 50.7677 250.882 49.7987H252.492Z" fill="#282636"/>
<path d="M53.2363 221.461L43.6811 221.461L43.6811 218.232C43.6811 217.483 43.8164 216.87 44.087 216.394C44.3545 215.915 44.7169 215.561 45.1741 215.33C45.6314 215.1 46.1415 214.985 46.7045 214.985C47.2674 214.985 47.7791 215.1 48.2394 215.33C48.6998 215.558 49.0668 215.909 49.3405 216.385C49.6111 216.861 49.7464 217.47 49.7464 218.214L49.7464 220.528L48.72 220.528L48.72 218.251C48.72 217.738 48.6314 217.326 48.4541 217.015C48.2768 216.704 48.0373 216.478 47.7356 216.338C47.4307 216.195 47.087 216.124 46.7045 216.124C46.3219 216.124 45.9797 216.195 45.678 216.338C45.3763 216.478 45.1399 216.705 44.9688 217.019C44.7947 217.334 44.7076 217.75 44.7076 218.27L44.7076 220.304L53.2363 220.304L53.2363 221.461ZM53.3856 210.343C53.3856 211.033 53.2332 211.629 52.9284 212.13C52.6205 212.628 52.1912 213.012 51.6407 213.282C51.087 213.55 50.4432 213.683 49.7091 213.683C48.9751 213.683 48.3281 213.55 47.7682 213.282C47.2052 213.012 46.7667 212.635 46.4525 212.153C46.1353 211.668 45.9766 211.102 45.9766 210.455C45.9766 210.082 46.0388 209.713 46.1632 209.349C46.2877 208.985 46.4898 208.654 46.7698 208.355C47.0466 208.057 47.4136 207.819 47.8709 207.642C48.3281 207.464 48.8911 207.376 49.5598 207.376L50.0264 207.376L50.0264 212.9L49.0746 212.9L49.0746 208.495C48.6702 208.495 48.3094 208.576 47.9922 208.738C47.6749 208.897 47.4245 209.124 47.241 209.419C47.0575 209.712 46.9657 210.057 46.9657 210.455C46.9657 210.893 47.0746 211.273 47.2923 211.593C47.5069 211.911 47.7869 212.155 48.1321 212.326C48.4774 212.497 48.8475 212.582 49.2426 212.582L49.8771 212.582C50.4183 212.582 50.8771 212.489 51.2534 212.302C51.6267 212.113 51.9113 211.85 52.1072 211.514C52.3001 211.178 52.3965 210.788 52.3965 210.343C52.3965 210.054 52.3561 209.792 52.2752 209.559C52.1912 209.323 52.0668 209.119 51.902 208.948C51.734 208.777 51.5256 208.645 51.2768 208.551L51.5754 207.488C51.9362 207.6 52.2534 207.788 52.5272 208.052C52.7978 208.316 53.0093 208.643 53.1617 209.032C53.311 209.421 53.3856 209.858 53.3856 210.343ZM53.2363 205.701L46.0699 205.701L46.0699 204.637L47.1524 204.637L47.1524 204.562C46.7978 204.432 46.5101 204.195 46.2892 203.853C46.0684 203.511 45.958 203.125 45.958 202.696C45.958 202.615 45.9595 202.514 45.9626 202.393C45.9657 202.271 45.9704 202.18 45.9766 202.117L47.0964 202.117C47.087 202.155 47.073 202.24 47.0544 202.374C47.0326 202.505 47.0217 202.643 47.0217 202.789C47.0217 203.138 47.0948 203.449 47.241 203.722C47.3841 203.993 47.5831 204.208 47.8382 204.366C48.0901 204.522 48.3779 204.6 48.7013 204.6L53.2363 204.6L53.2363 205.701ZM53.3856 198.119C53.3856 198.791 53.227 199.369 52.9097 199.855C52.5925 200.34 52.1555 200.713 51.5987 200.974C51.0419 201.236 50.4059 201.366 49.6905 201.366C48.9626 201.366 48.3203 201.233 47.7636 200.965C47.2037 200.694 46.7667 200.318 46.4525 199.836C46.1353 199.351 45.9766 198.785 45.9766 198.138C45.9766 197.634 46.0699 197.18 46.2566 196.775C46.4432 196.371 46.7045 196.04 47.0404 195.782C47.3763 195.523 47.7682 195.363 48.2161 195.301L48.2161 196.402C47.8895 196.486 47.6003 196.673 47.3483 196.962C47.0933 197.248 46.9657 197.634 46.9657 198.119C46.9657 198.548 47.0777 198.925 47.3017 199.248C47.5225 199.568 47.8351 199.819 48.2394 199.999C48.6407 200.177 49.1119 200.265 49.6531 200.265C50.2068 200.265 50.6889 200.178 51.0995 200.004C51.51 199.827 51.8289 199.578 52.0559 199.257C52.283 198.934 52.3965 198.554 52.3965 198.119C52.3965 197.833 52.3467 197.573 52.2472 197.34C52.1477 197.107 52.0046 196.909 51.818 196.747C51.6314 196.586 51.4074 196.47 51.1461 196.402L51.1461 195.301C51.5691 195.363 51.9502 195.517 52.2892 195.763C52.6251 196.005 52.8926 196.327 53.0917 196.729C53.2876 197.127 53.3856 197.59 53.3856 198.119ZM53.3856 190.687C53.3856 191.377 53.2332 191.973 52.9284 192.474C52.6205 192.971 52.1912 193.355 51.6407 193.626C51.087 193.893 50.4432 194.027 49.7091 194.027C48.9751 194.027 48.3281 193.893 47.7682 193.626C47.2052 193.355 46.7667 192.979 46.4525 192.497C46.1353 192.012 45.9766 191.446 45.9766 190.799C45.9766 190.425 46.0388 190.057 46.1632 189.693C46.2877 189.329 46.4898 188.998 46.7698 188.699C47.0466 188.401 47.4136 188.163 47.8709 187.985C48.3281 187.808 48.8911 187.719 49.5598 187.719L50.0264 187.719L50.0264 193.243L49.0746 193.243L49.0746 188.839C48.6702 188.839 48.3094 188.92 47.9922 189.082C47.6749 189.24 47.4245 189.467 47.241 189.763C47.0575 190.055 46.9657 190.4 46.9657 190.799C46.9657 191.237 47.0746 191.617 47.2923 191.937C47.5069 192.254 47.7869 192.498 48.1321 192.67C48.4774 192.841 48.8475 192.926 49.2426 192.926L49.8771 192.926C50.4183 192.926 50.8771 192.833 51.2534 192.646C51.6267 192.456 51.9113 192.194 52.1072 191.858C52.3001 191.522 52.3965 191.131 52.3965 190.687C52.3965 190.397 52.3561 190.136 52.2752 189.903C52.1912 189.666 52.0668 189.463 51.902 189.292C51.734 189.121 51.5256 188.988 51.2768 188.895L51.5754 187.831C51.9362 187.943 52.2534 188.131 52.5272 188.396C52.7978 188.66 53.0093 188.987 53.1617 189.376C53.311 189.764 53.3856 190.201 53.3856 190.687ZM48.9253 184.943L53.2363 184.943L53.2363 186.044L46.0699 186.044L46.0699 184.981L47.1897 184.981L47.1897 184.887C46.8258 184.719 46.5334 184.464 46.3125 184.122C46.0886 183.78 45.9766 183.338 45.9766 182.797C45.9766 182.312 46.0762 181.887 46.2752 181.523C46.4712 181.159 46.7698 180.876 47.171 180.674C47.5692 180.472 48.073 180.371 48.6827 180.371L53.2363 180.371L53.2363 181.472L48.7573 181.472C48.1943 181.472 47.7558 181.618 47.4416 181.911C47.1244 182.203 46.9657 182.604 46.9657 183.114C46.9657 183.466 47.0419 183.78 47.1943 184.057C47.3468 184.331 47.5692 184.547 47.8615 184.705C48.1539 184.864 48.5085 184.943 48.9253 184.943ZM46.0699 175.242L47.0031 175.242L47.0031 178.956L46.0699 178.956L46.0699 175.242ZM44.353 177.874L44.353 176.773L51.1835 176.773C51.4945 176.773 51.7278 176.728 51.8833 176.637C52.0357 176.544 52.1383 176.426 52.1912 176.283C52.241 176.137 52.2659 175.983 52.2659 175.821C52.2659 175.7 52.2597 175.6 52.2472 175.522C52.2317 175.444 52.2192 175.382 52.2099 175.336L53.199 175.112C53.227 175.186 53.255 175.29 53.283 175.424C53.3141 175.558 53.3296 175.728 53.3296 175.933C53.3296 176.244 53.2628 176.549 53.129 176.847C52.9953 177.143 52.7915 177.388 52.5178 177.584C52.2441 177.777 51.8988 177.874 51.4821 177.874L44.353 177.874ZM53.4043 171.477C53.4043 171.931 53.3188 172.343 53.1477 172.714C52.9735 173.084 52.7231 173.378 52.3965 173.595C52.0668 173.813 51.6687 173.922 51.2021 173.922C50.7915 173.922 50.4587 173.841 50.2037 173.679C49.9455 173.518 49.7433 173.301 49.5971 173.031C49.451 172.76 49.3421 172.462 49.2705 172.135C49.1959 171.805 49.1368 171.474 49.0933 171.141C49.0373 170.706 48.9953 170.353 48.9673 170.082C48.9362 169.808 48.8849 169.609 48.8133 169.485C48.7418 169.357 48.6174 169.294 48.4401 169.294L48.4027 169.294C47.9424 169.294 47.5847 169.42 47.3296 169.672C47.0746 169.92 46.9471 170.298 46.9471 170.805C46.9471 171.331 47.0622 171.743 47.2923 172.042C47.5225 172.34 47.7682 172.55 48.0295 172.672L47.6562 173.717C47.2208 173.53 46.8817 173.281 46.6391 172.97C46.3934 172.656 46.2223 172.314 46.1259 171.944C46.0264 171.57 45.9766 171.203 45.9766 170.843C45.9766 170.612 46.0046 170.348 46.0606 170.049C46.1135 169.748 46.2239 169.457 46.3919 169.177C46.5598 168.894 46.8133 168.659 47.1524 168.472C47.4914 168.286 47.9455 168.193 48.5147 168.193L53.2363 168.193L53.2363 169.294L52.2659 169.294L52.2659 169.35C52.4214 169.424 52.5878 169.549 52.7651 169.723C52.9424 169.897 53.0932 170.129 53.2177 170.418C53.3421 170.707 53.4043 171.06 53.4043 171.477ZM52.4152 171.309C52.4152 170.874 52.3296 170.507 52.1586 170.208C51.9875 169.906 51.7667 169.679 51.496 169.527C51.2254 169.371 50.9408 169.294 50.6422 169.294L49.6345 169.294C49.6905 169.34 49.7418 169.443 49.7884 169.602C49.832 169.757 49.8709 169.937 49.9051 170.143C49.9362 170.345 49.9642 170.542 49.9891 170.735C50.0108 170.925 50.0295 171.079 50.045 171.197C50.0824 171.483 50.143 171.751 50.227 172C50.3079 172.245 50.4307 172.444 50.5956 172.597C50.7573 172.746 50.9782 172.821 51.2581 172.821C51.6407 172.821 51.93 172.679 52.1259 172.396C52.3188 172.11 52.4152 171.748 52.4152 171.309ZM56.073 163.29C56.073 163.822 56.0046 164.279 55.8677 164.662C55.734 165.044 55.5567 165.363 55.3359 165.618C55.1181 165.87 54.8848 166.071 54.636 166.22L54.0201 165.343C54.1508 165.243 54.3001 165.117 54.468 164.965C54.6391 164.813 54.7869 164.604 54.9113 164.34C55.0388 164.072 55.1026 163.722 55.1026 163.29C55.1026 162.712 54.9626 162.234 54.6827 161.858C54.4027 161.481 53.9642 161.293 53.367 161.293L51.9113 161.293L51.9113 161.387C52.0419 161.467 52.2037 161.583 52.3965 161.732C52.5862 161.878 52.7558 162.09 52.9051 162.366C53.0513 162.64 53.1244 163.01 53.1244 163.477C53.1244 164.055 52.9875 164.575 52.7138 165.035C52.4401 165.492 52.0419 165.855 51.5194 166.122C50.9968 166.387 50.3623 166.519 49.6158 166.519C48.8817 166.519 48.2426 166.39 47.6982 166.131C47.1508 165.873 46.7278 165.514 46.4292 165.054C46.1275 164.593 45.9766 164.062 45.9766 163.458C45.9766 162.992 46.0544 162.621 46.2099 162.348C46.3623 162.071 46.5365 161.859 46.7324 161.713C46.9253 161.564 47.0839 161.449 47.2083 161.368L47.2083 161.256L46.0699 161.256L46.0699 160.192L53.4416 160.192C54.0575 160.192 54.5583 160.332 54.9439 160.612C55.3327 160.889 55.6173 161.262 55.7978 161.732C55.9813 162.198 56.073 162.718 56.073 163.29ZM52.1352 163.327C52.1352 162.886 52.0342 162.513 51.832 162.208C51.6298 161.903 51.339 161.671 50.9595 161.513C50.58 161.354 50.1259 161.275 49.5971 161.275C49.0808 161.275 48.6251 161.352 48.2301 161.508C47.8351 161.663 47.5256 161.894 47.3017 162.198C47.0777 162.503 46.9657 162.88 46.9657 163.327C46.9657 163.794 47.0839 164.183 47.3203 164.494C47.5567 164.802 47.874 165.034 48.2721 165.189C48.6702 165.341 49.1119 165.418 49.5971 165.418C50.0948 165.418 50.5349 165.34 50.9175 165.184C51.297 165.026 51.5956 164.792 51.8133 164.485C52.0279 164.173 52.1352 163.788 52.1352 163.327ZM53.3856 155.172C53.3856 155.862 53.2332 156.458 52.9284 156.959C52.6205 157.457 52.1912 157.841 51.6407 158.111C51.087 158.379 50.4432 158.513 49.7091 158.513C48.9751 158.513 48.3281 158.379 47.7682 158.111C47.2052 157.841 46.7667 157.464 46.4525 156.982C46.1353 156.497 45.9766 155.931 45.9766 155.284C45.9766 154.911 46.0388 154.542 46.1632 154.178C46.2877 153.814 46.4898 153.483 46.7698 153.184C47.0466 152.886 47.4136 152.648 47.8709 152.471C48.3281 152.293 48.8911 152.205 49.5598 152.205L50.0264 152.205L50.0264 157.729L49.0746 157.729L49.0746 153.324C48.6702 153.324 48.3094 153.405 47.9922 153.567C47.6749 153.726 47.4245 153.953 47.241 154.248C47.0575 154.541 46.9657 154.886 46.9657 155.284C46.9657 155.722 47.0746 156.102 47.2923 156.422C47.5069 156.74 47.7869 156.984 48.1321 157.155C48.4774 157.326 48.8475 157.411 49.2426 157.411L49.8771 157.411C50.4183 157.411 50.8771 157.318 51.2534 157.132C51.6267 156.942 51.9113 156.679 52.1072 156.343C52.3001 156.007 52.3965 155.617 52.3965 155.172C52.3965 154.883 52.3561 154.621 52.2752 154.388C52.1912 154.152 52.0668 153.948 51.902 153.777C51.734 153.606 51.5256 153.474 51.2768 153.38L51.5754 152.317C51.9362 152.429 52.2534 152.617 52.5272 152.881C52.7978 153.146 53.0093 153.472 53.1617 153.861C53.311 154.25 53.3856 154.687 53.3856 155.172Z" fill="black"/>
<path d="M188.043 328.408H185.095V318.853H188.174C189.101 318.853 189.894 319.044 190.553 319.427C191.213 319.806 191.718 320.352 192.07 321.065C192.421 321.774 192.597 322.623 192.597 323.612C192.597 324.607 192.42 325.464 192.065 326.183C191.71 326.898 191.194 327.449 190.516 327.834C189.838 328.217 189.014 328.408 188.043 328.408ZM186.252 327.382H187.969C188.759 327.382 189.413 327.229 189.933 326.925C190.452 326.62 190.84 326.186 191.095 325.623C191.35 325.06 191.477 324.39 191.477 323.612C191.477 322.841 191.351 322.176 191.099 321.62C190.847 321.06 190.471 320.631 189.97 320.332C189.469 320.03 188.846 319.879 188.099 319.879H186.252V327.382ZM197.393 328.558C196.703 328.558 196.107 328.405 195.606 328.1C195.109 327.792 194.724 327.363 194.454 326.813C194.186 326.259 194.053 325.615 194.053 324.881C194.053 324.147 194.186 323.5 194.454 322.94C194.724 322.377 195.101 321.939 195.583 321.624C196.068 321.307 196.634 321.148 197.281 321.148C197.654 321.148 198.023 321.211 198.387 321.335C198.751 321.46 199.082 321.662 199.381 321.942C199.679 322.218 199.917 322.586 200.095 323.043C200.272 323.5 200.36 324.063 200.36 324.732V325.198H194.836V324.246H199.241C199.241 323.842 199.16 323.481 198.998 323.164C198.839 322.847 198.612 322.596 198.317 322.413C198.025 322.229 197.679 322.138 197.281 322.138C196.843 322.138 196.463 322.246 196.143 322.464C195.826 322.679 195.581 322.959 195.41 323.304C195.239 323.649 195.154 324.019 195.154 324.414V325.049C195.154 325.59 195.247 326.049 195.434 326.425C195.623 326.799 195.886 327.083 196.222 327.279C196.558 327.472 196.948 327.568 197.393 327.568C197.682 327.568 197.944 327.528 198.177 327.447C198.413 327.363 198.617 327.239 198.788 327.074C198.959 326.906 199.091 326.697 199.185 326.449L200.249 326.747C200.137 327.108 199.948 327.425 199.684 327.699C199.42 327.97 199.093 328.181 198.704 328.334C198.315 328.483 197.878 328.558 197.393 328.558ZM207.677 321.242L205.027 328.408H203.908L201.257 321.242H202.452L204.43 326.953H204.505L206.483 321.242H207.677ZM209.131 328.408V321.242H210.232V328.408H209.131ZM209.691 320.047C209.476 320.047 209.291 319.974 209.135 319.828C208.983 319.682 208.907 319.506 208.907 319.301C208.907 319.096 208.983 318.92 209.135 318.774C209.291 318.628 209.476 318.554 209.691 318.554C209.905 318.554 210.089 318.628 210.241 318.774C210.397 318.92 210.474 319.096 210.474 319.301C210.474 319.506 210.397 319.682 210.241 319.828C210.089 319.974 209.905 320.047 209.691 320.047ZM215.16 328.558C214.488 328.558 213.909 328.399 213.424 328.082C212.939 327.764 212.566 327.327 212.304 326.771C212.043 326.214 211.913 325.578 211.913 324.862C211.913 324.134 212.046 323.492 212.314 322.935C212.584 322.376 212.961 321.939 213.443 321.624C213.928 321.307 214.494 321.148 215.141 321.148C215.645 321.148 216.099 321.242 216.504 321.428C216.908 321.615 217.239 321.876 217.497 322.212C217.755 322.548 217.916 322.94 217.978 323.388H216.877C216.793 323.061 216.606 322.772 216.317 322.52C216.031 322.265 215.645 322.138 215.16 322.138C214.731 322.138 214.354 322.25 214.031 322.474C213.71 322.694 213.46 323.007 213.28 323.411C213.102 323.813 213.014 324.284 213.014 324.825C213.014 325.379 213.101 325.861 213.275 326.271C213.452 326.682 213.701 327.001 214.021 327.228C214.345 327.455 214.724 327.568 215.16 327.568C215.446 327.568 215.706 327.519 215.939 327.419C216.172 327.32 216.37 327.176 216.532 326.99C216.693 326.803 216.808 326.579 216.877 326.318H217.978C217.916 326.741 217.762 327.122 217.516 327.461C217.273 327.797 216.951 328.065 216.55 328.264C216.152 328.46 215.689 328.558 215.16 328.558ZM222.592 328.558C221.902 328.558 221.306 328.405 220.805 328.1C220.308 327.792 219.923 327.363 219.653 326.813C219.385 326.259 219.252 325.615 219.252 324.881C219.252 324.147 219.385 323.5 219.653 322.94C219.923 322.377 220.3 321.939 220.782 321.624C221.267 321.307 221.833 321.148 222.48 321.148C222.853 321.148 223.222 321.211 223.586 321.335C223.95 321.46 224.281 321.662 224.58 321.942C224.878 322.218 225.116 322.586 225.294 323.043C225.471 323.5 225.56 324.063 225.56 324.732V325.198H220.035V324.246H224.44C224.44 323.842 224.359 323.481 224.197 323.164C224.039 322.847 223.811 322.596 223.516 322.413C223.224 322.229 222.878 322.138 222.48 322.138C222.042 322.138 221.662 322.246 221.342 322.464C221.025 322.679 220.78 322.959 220.609 323.304C220.438 323.649 220.353 324.019 220.353 324.414V325.049C220.353 325.59 220.446 326.049 220.633 326.425C220.822 326.799 221.085 327.083 221.421 327.279C221.757 327.472 222.147 327.568 222.592 327.568C222.881 327.568 223.143 327.528 223.376 327.447C223.612 327.363 223.816 327.239 223.987 327.074C224.158 326.906 224.29 326.697 224.384 326.449L225.448 326.747C225.336 327.108 225.147 327.425 224.883 327.699C224.619 327.97 224.292 328.181 223.903 328.334C223.514 328.483 223.077 328.558 222.592 328.558ZM230.556 319.879V318.853H237.723V319.879H234.718V328.408H233.561V319.879H230.556ZM239.247 331.096C239.061 331.096 238.894 331.08 238.748 331.049C238.602 331.021 238.501 330.993 238.445 330.965L238.725 329.995C238.992 330.063 239.229 330.088 239.434 330.069C239.639 330.051 239.821 329.959 239.98 329.794C240.142 329.632 240.289 329.369 240.423 329.005L240.628 328.446L237.978 321.242H239.173L241.151 326.953H241.225L243.204 321.242H244.398L241.356 329.453C241.219 329.823 241.05 330.13 240.848 330.372C240.645 330.618 240.411 330.8 240.143 330.918C239.879 331.037 239.58 331.096 239.247 331.096ZM245.851 331.096V321.242H246.915V322.38H247.046C247.127 322.256 247.239 322.097 247.382 321.904C247.528 321.708 247.736 321.534 248.007 321.382C248.281 321.226 248.651 321.148 249.117 321.148C249.721 321.148 250.253 321.299 250.713 321.601C251.173 321.903 251.533 322.33 251.791 322.884C252.049 323.438 252.178 324.091 252.178 324.844C252.178 325.603 252.049 326.26 251.791 326.817C251.533 327.371 251.175 327.8 250.718 328.105C250.26 328.407 249.733 328.558 249.136 328.558C248.676 328.558 248.307 328.481 248.03 328.329C247.753 328.173 247.54 327.998 247.391 327.802C247.242 327.603 247.127 327.438 247.046 327.307H246.953V331.096H245.851ZM246.934 324.825C246.934 325.366 247.013 325.844 247.172 326.257C247.33 326.668 247.562 326.99 247.867 327.223C248.172 327.453 248.545 327.568 248.987 327.568C249.447 327.568 249.831 327.447 250.139 327.204C250.45 326.959 250.683 326.629 250.839 326.215C250.998 325.799 251.077 325.335 251.077 324.825C251.077 324.321 250.999 323.867 250.844 323.463C250.691 323.055 250.46 322.733 250.148 322.497C249.841 322.257 249.453 322.138 248.987 322.138C248.539 322.138 248.162 322.251 247.858 322.478C247.553 322.702 247.323 323.016 247.167 323.421C247.012 323.822 246.934 324.29 246.934 324.825ZM256.862 328.558C256.172 328.558 255.576 328.405 255.075 328.1C254.578 327.792 254.194 327.363 253.923 326.813C253.655 326.259 253.522 325.615 253.522 324.881C253.522 324.147 253.655 323.5 253.923 322.94C254.194 322.377 254.57 321.939 255.052 321.624C255.537 321.307 256.103 321.148 256.75 321.148C257.124 321.148 257.492 321.211 257.856 321.335C258.22 321.46 258.551 321.662 258.85 321.942C259.148 322.218 259.386 322.586 259.564 323.043C259.741 323.5 259.83 324.063 259.83 324.732V325.198H254.306V324.246H258.71C258.71 323.842 258.629 323.481 258.467 323.164C258.309 322.847 258.082 322.596 257.786 322.413C257.494 322.229 257.148 322.138 256.75 322.138C256.312 322.138 255.932 322.246 255.612 322.464C255.295 322.679 255.051 322.959 254.879 323.304C254.708 323.649 254.623 324.019 254.623 324.414V325.049C254.623 325.59 254.716 326.049 254.903 326.425C255.092 326.799 255.355 327.083 255.691 327.279C256.027 327.472 256.418 327.568 256.862 327.568C257.152 327.568 257.413 327.528 257.646 327.447C257.883 327.363 258.086 327.239 258.257 327.074C258.428 326.906 258.561 326.697 258.654 326.449L259.718 326.747C259.606 327.108 259.418 327.425 259.153 327.699C258.889 327.97 258.562 328.181 258.173 328.334C257.785 328.483 257.348 328.558 256.862 328.558Z" fill="black"/>
<path d="M68.5539 119.024C68.1418 119.024 67.7744 118.948 67.4517 118.797C67.1309 118.645 66.8762 118.436 66.6877 118.17C66.4991 117.903 66.4009 117.598 66.3931 117.254H67.6179C67.6315 117.485 67.7287 117.673 67.9095 117.817C68.0903 117.961 68.3051 118.033 68.5539 118.033C68.7522 118.033 68.9272 117.989 69.0788 117.901C69.2324 117.812 69.3519 117.688 69.4375 117.531C69.5249 117.372 69.5687 117.189 69.5687 116.983C69.5687 116.773 69.524 116.588 69.4345 116.429C69.3471 116.269 69.2256 116.145 69.07 116.056C68.9145 115.966 68.7366 115.92 68.5364 115.918C68.3615 115.918 68.1914 115.954 68.0261 116.026C67.8628 116.098 67.7355 116.196 67.6441 116.321L66.5214 116.12L66.8043 112.97H70.4551V114.003H67.8453L67.6908 115.499H67.7258C67.8307 115.351 67.9892 115.228 68.2011 115.131C68.413 115.034 68.6501 114.985 68.9126 114.985C69.2722 114.985 69.593 115.07 69.8749 115.239C70.1567 115.408 70.3793 115.64 70.5426 115.936C70.7059 116.23 70.7866 116.568 70.7847 116.951C70.7866 117.353 70.6933 117.711 70.5047 118.024C70.3181 118.335 70.0566 118.58 69.7203 118.759C69.3859 118.936 68.9971 119.024 68.5539 119.024ZM74.0069 119.074C73.5053 119.072 73.0737 118.948 72.7121 118.703C72.3525 118.458 72.0755 118.104 71.8811 117.639C71.6886 117.174 71.5934 116.615 71.5953 115.962C71.5953 115.311 71.6915 114.756 71.884 114.297C72.0784 113.838 72.3554 113.489 72.7151 113.25C73.0766 113.009 73.5072 112.889 74.0069 112.889C74.5065 112.889 74.9361 113.009 75.2957 113.25C75.6573 113.491 75.9353 113.841 76.1297 114.3C76.3241 114.757 76.4203 115.311 76.4184 115.962C76.4184 116.617 76.3212 117.177 76.1268 117.642C75.9343 118.106 75.6583 118.461 75.2986 118.706C74.939 118.951 74.5084 119.074 74.0069 119.074ZM74.0069 118.027C74.349 118.027 74.6221 117.855 74.8263 117.511C75.0304 117.167 75.1315 116.65 75.1295 115.962C75.1295 115.509 75.0829 115.132 74.9895 114.831C74.8982 114.529 74.7679 114.303 74.5988 114.151C74.4316 114 74.2343 113.924 74.0069 113.924C73.6667 113.924 73.3945 114.094 73.1904 114.434C72.9862 114.774 72.8832 115.284 72.8813 115.962C72.8813 116.421 72.927 116.804 73.0183 117.111C73.1116 117.416 73.2429 117.646 73.412 117.799C73.5811 117.951 73.7794 118.027 74.0069 118.027Z" fill="#767676"/>
<path d="M65.2823 152.527V151.533L67.7755 147.605H68.6328V148.982H68.1254L66.5537 151.469V151.516H70.0967V152.527H65.2823ZM68.1488 153.577V152.224L68.1721 151.784V147.605H69.356V153.577H68.1488ZM73.2795 153.708C72.7779 153.706 72.3464 153.583 71.9848 153.338C71.6251 153.093 71.3481 152.738 71.1537 152.274C70.9613 151.809 70.866 151.25 70.868 150.597C70.868 149.946 70.9642 149.391 71.1566 148.932C71.351 148.473 71.6281 148.124 71.9877 147.885C72.3493 147.644 72.7799 147.524 73.2795 147.524C73.7791 147.524 74.2087 147.644 74.5684 147.885C74.93 148.126 75.208 148.476 75.4024 148.935C75.5968 149.392 75.693 149.946 75.691 150.597C75.691 151.252 75.5938 151.812 75.3994 152.277C75.207 152.741 74.9309 153.096 74.5713 153.341C74.2117 153.586 73.7811 153.708 73.2795 153.708ZM73.2795 152.662C73.6216 152.662 73.8948 152.489 74.0989 152.145C74.303 151.801 74.4041 151.285 74.4022 150.597C74.4022 150.144 74.3555 149.767 74.2622 149.466C74.1708 149.164 74.0406 148.938 73.8714 148.786C73.7043 148.635 73.5069 148.559 73.2795 148.559C72.9393 148.559 72.6671 148.729 72.463 149.069C72.2589 149.409 72.1559 149.919 72.1539 150.597C72.1539 151.056 72.1996 151.439 72.291 151.746C72.3843 152.051 72.5155 152.28 72.6846 152.434C72.8538 152.586 73.0521 152.662 73.2795 152.662Z" fill="#767676"/>
<path d="M67.5802 188.293C67.1447 188.293 66.7569 188.218 66.4167 188.068C66.0784 187.916 65.8111 187.708 65.6148 187.444C65.4204 187.178 65.3202 186.871 65.3144 186.523H66.5858C66.5936 186.668 66.6412 186.797 66.7287 186.907C66.8181 187.016 66.9367 187.101 67.0844 187.161C67.2322 187.221 67.3984 187.252 67.5831 187.252C67.7755 187.252 67.9456 187.218 68.0934 187.15C68.2411 187.081 68.3568 186.987 68.4404 186.867C68.524 186.746 68.5658 186.607 68.5658 186.45C68.5658 186.29 68.5211 186.149 68.4316 186.027C68.3441 185.902 68.2178 185.805 68.0525 185.735C67.8892 185.665 67.6948 185.63 67.4693 185.63H66.9124V184.703H67.4693C67.6599 184.703 67.828 184.67 67.9738 184.604C68.1216 184.538 68.2363 184.446 68.3179 184.33C68.3996 184.211 68.4404 184.073 68.4404 183.916C68.4404 183.766 68.4044 183.635 68.3325 183.522C68.2625 183.407 68.1634 183.318 68.035 183.254C67.9087 183.19 67.7609 183.157 67.5918 183.157C67.4207 183.157 67.2643 183.189 67.1223 183.251C66.9804 183.311 66.8667 183.398 66.7812 183.51C66.6956 183.623 66.6499 183.755 66.6441 183.907H65.434C65.4398 183.563 65.538 183.26 65.7285 182.997C65.919 182.735 66.1756 182.53 66.4983 182.382C66.823 182.232 67.1894 182.157 67.5976 182.157C68.0098 182.157 68.3704 182.232 68.6795 182.382C68.9886 182.532 69.2287 182.734 69.3997 182.988C69.5728 183.241 69.6583 183.525 69.6564 183.84C69.6583 184.174 69.5543 184.453 69.3443 184.677C69.1363 184.9 68.8651 185.042 68.5308 185.102V185.149C68.9701 185.206 69.3045 185.358 69.5339 185.607C69.7652 185.854 69.8799 186.163 69.878 186.534C69.8799 186.874 69.7817 187.177 69.5835 187.441C69.3871 187.705 69.1159 187.914 68.7699 188.065C68.4239 188.217 68.0273 188.293 67.5802 188.293ZM73.1271 188.342C72.6256 188.34 72.194 188.217 71.8324 187.972C71.4728 187.727 71.1958 187.372 71.0014 186.907C70.8089 186.443 70.7137 185.884 70.7156 185.231C70.7156 184.58 70.8118 184.025 71.0043 183.566C71.1987 183.107 71.4757 182.758 71.8353 182.519C72.1969 182.278 72.6275 182.157 73.1271 182.157C73.6267 182.157 74.0564 182.278 74.416 182.519C74.7776 182.76 75.0556 183.11 75.25 183.569C75.4444 184.025 75.5406 184.58 75.5387 185.231C75.5387 185.886 75.4415 186.446 75.2471 186.91C75.0546 187.375 74.7786 187.73 74.4189 187.975C74.0593 188.22 73.6287 188.342 73.1271 188.342ZM73.1271 187.295C73.4693 187.295 73.7424 187.123 73.9465 186.779C74.1507 186.435 74.2517 185.919 74.2498 185.231C74.2498 184.778 74.2031 184.401 74.1098 184.099C74.0185 183.798 73.8882 183.572 73.7191 183.42C73.5519 183.268 73.3546 183.192 73.1271 183.192C72.7869 183.192 72.5148 183.363 72.3107 183.703C72.1065 184.043 72.0035 184.552 72.0016 185.231C72.0016 185.69 72.0472 186.073 72.1386 186.38C72.2319 186.685 72.3631 186.914 72.5323 187.068C72.7014 187.219 72.8997 187.295 73.1271 187.295Z" fill="#767676"/>
<path d="M66.3727 222.846V221.936L68.4985 219.968C68.6793 219.793 68.8309 219.635 68.9534 219.495C69.0778 219.355 69.1721 219.218 69.2363 219.084C69.3004 218.948 69.3325 218.801 69.3325 218.644C69.3325 218.469 69.2926 218.318 69.2129 218.192C69.1332 218.063 69.0244 217.965 68.8863 217.897C68.7483 217.827 68.5918 217.792 68.4169 217.792C68.2341 217.792 68.0747 217.829 67.9386 217.903C67.8025 217.977 67.6976 218.083 67.6237 218.221C67.5498 218.359 67.5129 218.523 67.5129 218.714H66.3144C66.3144 218.323 66.4029 217.984 66.5798 217.696C66.7567 217.408 67.0045 217.186 67.3234 217.028C67.6422 216.871 68.0096 216.792 68.4256 216.792C68.8533 216.792 69.2256 216.868 69.5424 217.02C69.8613 217.169 70.1091 217.377 70.286 217.644C70.4629 217.91 70.5514 218.215 70.5514 218.559C70.5514 218.785 70.5067 219.007 70.4172 219.227C70.3298 219.447 70.1733 219.691 69.9478 219.959C69.7223 220.225 69.4044 220.545 68.9942 220.918L68.1223 221.773V221.813H70.6301V222.846H66.3727ZM73.8866 222.977C73.385 222.975 72.9534 222.852 72.5919 222.607C72.2322 222.362 71.9552 222.007 71.7608 221.542C71.5683 221.078 71.4731 220.519 71.475 219.866C71.475 219.214 71.5713 218.659 71.7637 218.2C71.9581 217.742 72.2351 217.393 72.5948 217.154C72.9564 216.913 73.387 216.792 73.8866 216.792C74.3862 216.792 74.8158 216.913 75.1754 217.154C75.537 217.395 75.815 217.745 76.0094 218.203C76.2038 218.66 76.3001 219.214 76.2981 219.866C76.2981 220.521 76.2009 221.081 76.0065 221.545C75.8141 222.01 75.538 222.365 75.1784 222.61C74.8187 222.854 74.3881 222.977 73.8866 222.977ZM73.8866 221.93C74.2287 221.93 74.5018 221.758 74.706 221.414C74.9101 221.07 75.0112 220.554 75.0092 219.866C75.0092 219.413 74.9626 219.035 74.8693 218.734C74.7779 218.433 74.6476 218.206 74.4785 218.055C74.3113 217.903 74.114 217.827 73.8866 217.827C73.5464 217.827 73.2742 217.997 73.0701 218.338C72.866 218.678 72.7629 219.187 72.761 219.866C72.761 220.324 72.8067 220.707 72.898 221.014C72.9914 221.32 73.1226 221.549 73.2917 221.703C73.4608 221.854 73.6591 221.93 73.8866 221.93Z" fill="#767676"/>
<path d="M69.9709 251.508V257.48H68.7083V252.707H68.6733L67.3057 253.564V252.445L68.7841 251.508H69.9709ZM73.7318 257.612C73.2303 257.61 72.7987 257.486 72.4371 257.241C72.0775 256.996 71.8005 256.642 71.6061 256.177C71.4136 255.712 71.3183 255.153 71.3203 254.5C71.3203 253.849 71.4165 253.294 71.609 252.835C71.8034 252.376 72.0804 252.028 72.44 251.788C72.8016 251.547 73.2322 251.427 73.7318 251.427C74.2314 251.427 74.6611 251.547 75.0207 251.788C75.3823 252.029 75.6603 252.379 75.8547 252.838C76.0491 253.295 76.1453 253.849 76.1434 254.5C76.1434 255.155 76.0462 255.715 75.8518 256.18C75.6593 256.645 75.3833 256.999 75.0236 257.244C74.664 257.489 74.2334 257.612 73.7318 257.612ZM73.7318 256.565C74.074 256.565 74.3471 256.393 74.5512 256.049C74.7553 255.705 74.8564 255.188 74.8545 254.5C74.8545 254.047 74.8078 253.67 74.7145 253.369C74.6232 253.068 74.4929 252.841 74.3238 252.689C74.1566 252.538 73.9593 252.462 73.7318 252.462C73.3916 252.462 73.1195 252.632 72.9153 252.972C72.7112 253.313 72.6082 253.822 72.6062 254.5C72.6062 254.959 72.6519 255.342 72.7433 255.649C72.8366 255.954 72.9678 256.184 73.137 256.337C73.3061 256.489 73.5044 256.565 73.7318 256.565Z" fill="#767676"/>
<path d="M73.7143 292.246C73.2127 292.245 72.7812 292.121 72.4196 291.876C72.0599 291.631 71.7829 291.276 71.5885 290.812C71.3961 290.347 71.3008 289.788 71.3027 289.135C71.3027 288.484 71.399 287.929 71.5914 287.47C71.7858 287.011 72.0629 286.662 72.4225 286.423C72.7841 286.182 73.2147 286.062 73.7143 286.062C74.2139 286.062 74.6435 286.182 75.0032 286.423C75.3648 286.664 75.6427 287.014 75.8371 287.473C76.0315 287.93 76.1278 288.484 76.1258 289.135C76.1258 289.79 76.0286 290.35 75.8342 290.815C75.6418 291.279 75.3657 291.634 75.0061 291.879C74.6464 292.124 74.2158 292.246 73.7143 292.246ZM73.7143 291.2C74.0564 291.2 74.3296 291.028 74.5337 290.683C74.7378 290.339 74.8389 289.823 74.837 289.135C74.837 288.682 74.7903 288.305 74.697 288.004C74.6056 287.702 74.4754 287.476 74.3062 287.324C74.1391 287.173 73.9417 287.097 73.7143 287.097C73.3741 287.097 73.1019 287.267 72.8978 287.607C72.6937 287.947 72.5907 288.457 72.5887 289.135C72.5887 289.594 72.6344 289.977 72.7258 290.284C72.8191 290.589 72.9503 290.819 73.1194 290.972C73.2886 291.124 73.4868 291.2 73.7143 291.2Z" fill="#767676"/>
<line opacity="0.5" x1="88.2734" y1="117.16" x2="359.642" y2="117.16" stroke="#B1B1B1" stroke-width="0.703027" stroke-dasharray="1.41 1.41"/>
<line opacity="0.5" x1="88.2734" y1="151.648" x2="359.642" y2="151.648" stroke="#B1B1B1" stroke-width="0.703027" stroke-dasharray="1.41 1.41"/>
<line opacity="0.5" x1="88.2734" y1="186.137" x2="359.642" y2="186.137" stroke="#B1B1B1" stroke-width="0.703027" stroke-dasharray="1.41 1.41"/>
<line opacity="0.5" x1="88.2734" y1="220.625" x2="359.642" y2="220.625" stroke="#B1B1B1" stroke-width="0.703027" stroke-dasharray="1.41 1.41"/>
<line opacity="0.5" x1="88.2734" y1="255.113" x2="359.642" y2="255.113" stroke="#B1B1B1" stroke-width="0.703027" stroke-dasharray="1.41 1.41"/>
<line opacity="0.5" x1="88.2734" y1="289.686" x2="355.968" y2="289.686" stroke="#B1B1B1" stroke-width="0.533608"/>
<rect x="100.178" y="115.049" width="65.6919" height="174.905" rx="3.87978" fill="#D299FF"/>
<rect x="189.684" y="185.668" width="65.6919" height="104.286" rx="3.87978" fill="#D299FF"/>
<rect x="279.188" y="220.978" width="65.6919" height="68.9765" rx="3.87978" fill="#D299FF"/>
<path d="M119.998 297.729H121.555L123.199 301.742H123.269L124.914 297.729H126.471V303.701H125.246V299.814H125.197L123.651 303.672H122.817L121.272 299.8H121.222V303.701H119.998V297.729ZM129.512 303.789C129.059 303.789 128.667 303.692 128.337 303.5C128.008 303.306 127.754 303.035 127.576 302.689C127.397 302.341 127.307 301.938 127.307 301.479C127.307 301.016 127.397 300.612 127.576 300.266C127.754 299.918 128.008 299.648 128.337 299.455C128.667 299.261 129.059 299.164 129.512 299.164C129.965 299.164 130.355 299.261 130.684 299.455C131.015 299.648 131.269 299.918 131.448 300.266C131.627 300.612 131.716 301.016 131.716 301.479C131.716 301.938 131.627 302.341 131.448 302.689C131.269 303.035 131.015 303.306 130.684 303.5C130.355 303.692 129.965 303.789 129.512 303.789ZM129.518 302.826C129.724 302.826 129.896 302.768 130.034 302.651C130.172 302.533 130.276 302.371 130.346 302.167C130.418 301.963 130.454 301.731 130.454 301.47C130.454 301.21 130.418 300.978 130.346 300.773C130.276 300.569 130.172 300.408 130.034 300.289C129.896 300.171 129.724 300.112 129.518 300.112C129.31 300.112 129.135 300.171 128.993 300.289C128.853 300.408 128.747 300.569 128.675 300.773C128.605 300.978 128.57 301.21 128.57 301.47C128.57 301.731 128.605 301.963 128.675 302.167C128.747 302.371 128.853 302.533 128.993 302.651C129.135 302.768 129.31 302.826 129.518 302.826ZM132.547 303.701V297.729H133.79V299.975H133.827C133.882 299.854 133.961 299.732 134.064 299.607C134.169 299.481 134.305 299.376 134.472 299.292C134.641 299.207 134.851 299.164 135.102 299.164C135.428 299.164 135.73 299.249 136.006 299.42C136.282 299.59 136.502 299.845 136.668 300.187C136.833 300.528 136.916 300.954 136.916 301.468C136.916 301.967 136.835 302.389 136.674 302.733C136.514 303.075 136.296 303.335 136.02 303.512C135.746 303.687 135.439 303.774 135.099 303.774C134.858 303.774 134.653 303.734 134.484 303.655C134.316 303.575 134.179 303.475 134.072 303.354C133.966 303.232 133.884 303.108 133.827 302.984H133.772V303.701H132.547ZM133.763 301.462C133.763 301.728 133.8 301.96 133.874 302.159C133.948 302.357 134.055 302.511 134.195 302.622C134.335 302.731 134.505 302.786 134.705 302.786C134.907 302.786 135.078 302.73 135.218 302.619C135.358 302.507 135.464 302.351 135.536 302.153C135.61 301.953 135.647 301.722 135.647 301.462C135.647 301.203 135.611 300.976 135.539 300.779C135.467 300.583 135.361 300.429 135.221 300.319C135.081 300.208 134.909 300.152 134.705 300.152C134.503 300.152 134.332 300.206 134.192 300.313C134.054 300.42 133.948 300.571 133.874 300.768C133.8 300.964 133.763 301.195 133.763 301.462ZM137.744 303.701V299.222H138.987V303.701H137.744ZM138.368 298.645C138.184 298.645 138.025 298.584 137.893 298.461C137.763 298.337 137.698 298.188 137.698 298.015C137.698 297.844 137.763 297.697 137.893 297.575C138.025 297.45 138.184 297.388 138.368 297.388C138.553 297.388 138.711 297.45 138.841 297.575C138.973 297.697 139.039 297.844 139.039 298.015C139.039 298.188 138.973 298.337 138.841 298.461C138.711 298.584 138.553 298.645 138.368 298.645ZM141.224 297.729V303.701H139.982V297.729H141.224ZM144.26 303.789C143.8 303.789 143.403 303.695 143.071 303.509C142.74 303.32 142.485 303.054 142.307 302.71C142.128 302.364 142.038 301.954 142.038 301.482C142.038 301.021 142.128 300.617 142.307 300.269C142.485 299.921 142.737 299.65 143.062 299.455C143.388 299.261 143.771 299.164 144.211 299.164C144.506 299.164 144.781 299.211 145.036 299.307C145.293 299.4 145.516 299.541 145.707 299.73C145.899 299.918 146.049 300.155 146.156 300.441C146.263 300.725 146.316 301.057 146.316 301.438V301.78H142.534V301.01H145.147C145.147 300.831 145.108 300.672 145.03 300.534C144.952 300.396 144.844 300.288 144.706 300.211C144.57 300.131 144.412 300.091 144.231 300.091C144.043 300.091 143.875 300.135 143.73 300.222C143.586 300.308 143.473 300.424 143.391 300.569C143.31 300.713 143.268 300.874 143.266 301.051V301.782C143.266 302.004 143.307 302.196 143.388 302.357C143.472 302.518 143.59 302.643 143.741 302.73C143.893 302.818 144.073 302.861 144.281 302.861C144.419 302.861 144.545 302.842 144.66 302.803C144.774 302.764 144.873 302.706 144.954 302.628C145.036 302.55 145.098 302.455 145.141 302.342L146.29 302.418C146.231 302.694 146.112 302.935 145.931 303.141C145.752 303.345 145.521 303.505 145.237 303.62C144.955 303.732 144.63 303.789 144.26 303.789Z" fill="#767676"/>
<path d="M207.595 303.701H205.478V297.729H207.613C208.213 297.729 208.73 297.849 209.164 298.088C209.597 298.325 209.931 298.666 210.164 299.111C210.399 299.557 210.517 300.089 210.517 300.709C210.517 301.331 210.399 301.866 210.164 302.313C209.931 302.76 209.595 303.103 209.158 303.343C208.723 303.582 208.202 303.701 207.595 303.701ZM206.741 302.619H207.543C207.916 302.619 208.23 302.553 208.484 302.421C208.741 302.287 208.934 302.08 209.062 301.8C209.192 301.518 209.257 301.155 209.257 300.709C209.257 300.268 209.192 299.907 209.062 299.628C208.934 299.348 208.742 299.141 208.487 299.009C208.233 298.877 207.919 298.811 207.545 298.811H206.741V302.619ZM213.47 303.789C213.009 303.789 212.613 303.695 212.28 303.509C211.95 303.32 211.695 303.054 211.516 302.71C211.338 302.364 211.248 301.954 211.248 301.482C211.248 301.021 211.338 300.617 211.516 300.269C211.695 299.921 211.947 299.65 212.272 299.455C212.598 299.261 212.981 299.164 213.421 299.164C213.716 299.164 213.991 299.211 214.246 299.307C214.502 299.4 214.726 299.541 214.916 299.73C215.109 299.918 215.259 300.155 215.366 300.441C215.472 300.725 215.526 301.057 215.526 301.438V301.78H211.744V301.01H214.357C214.357 300.831 214.318 300.672 214.24 300.534C214.162 300.396 214.054 300.288 213.916 300.211C213.78 300.131 213.622 300.091 213.441 300.091C213.252 300.091 213.085 300.135 212.939 300.222C212.796 300.308 212.683 300.424 212.601 300.569C212.519 300.713 212.478 300.874 212.476 301.051V301.782C212.476 302.004 212.517 302.196 212.598 302.357C212.682 302.518 212.799 302.643 212.951 302.73C213.103 302.818 213.283 302.861 213.491 302.861C213.629 302.861 213.755 302.842 213.87 302.803C213.984 302.764 214.082 302.706 214.164 302.628C214.246 302.55 214.308 302.455 214.351 302.342L215.5 302.418C215.441 302.694 215.322 302.935 215.141 303.141C214.962 303.345 214.731 303.505 214.447 303.62C214.165 303.732 213.839 303.789 213.47 303.789ZM220.063 300.499L218.926 300.569C218.907 300.472 218.865 300.385 218.801 300.307C218.736 300.227 218.652 300.164 218.547 300.117C218.444 300.069 218.32 300.044 218.177 300.044C217.984 300.044 217.822 300.085 217.69 300.167C217.557 300.247 217.491 300.354 217.491 300.488C217.491 300.595 217.534 300.685 217.62 300.759C217.705 300.833 217.852 300.892 218.06 300.937L218.871 301.1C219.306 301.19 219.631 301.333 219.845 301.532C220.058 301.73 220.165 301.99 220.165 302.313C220.165 302.607 220.079 302.864 219.906 303.086C219.735 303.308 219.499 303.481 219.2 303.605C218.903 303.727 218.56 303.789 218.171 303.789C217.578 303.789 217.105 303.665 216.754 303.418C216.404 303.169 216.199 302.831 216.138 302.404L217.36 302.339C217.397 302.52 217.486 302.658 217.628 302.753C217.77 302.847 217.952 302.893 218.174 302.893C218.391 302.893 218.566 302.852 218.699 302.768C218.833 302.683 218.901 302.573 218.903 302.439C218.901 302.326 218.853 302.233 218.76 302.162C218.666 302.088 218.523 302.031 218.328 301.992L217.553 301.838C217.115 301.75 216.789 301.599 216.576 301.383C216.364 301.167 216.258 300.892 216.258 300.558C216.258 300.27 216.336 300.022 216.491 299.814C216.649 299.606 216.869 299.446 217.153 299.333C217.439 299.22 217.773 299.164 218.156 299.164C218.722 299.164 219.167 299.283 219.492 299.523C219.818 299.762 220.009 300.087 220.063 300.499ZM222.073 302.412L222.076 300.922H222.257L223.691 299.222H225.117L223.19 301.473H222.895L222.073 302.412ZM220.947 303.701V297.729H222.19V303.701H220.947ZM223.747 303.701L222.429 301.75L223.257 300.873L225.202 303.701H223.747ZM228.109 299.222V300.155H225.412V299.222H228.109ZM226.024 298.149H227.266V302.325C227.266 302.44 227.284 302.529 227.319 302.593C227.354 302.655 227.403 302.699 227.465 302.724C227.529 302.75 227.603 302.762 227.686 302.762C227.745 302.762 227.803 302.757 227.861 302.748C227.92 302.736 227.964 302.727 227.995 302.721L228.191 303.646C228.129 303.665 228.041 303.688 227.928 303.713C227.816 303.74 227.679 303.757 227.517 303.762C227.218 303.774 226.955 303.734 226.73 303.643C226.506 303.551 226.332 303.41 226.208 303.217C226.084 303.025 226.022 302.782 226.024 302.488V298.149ZM230.894 303.789C230.441 303.789 230.049 303.692 229.719 303.5C229.39 303.306 229.137 303.035 228.958 302.689C228.779 302.341 228.689 301.938 228.689 301.479C228.689 301.016 228.779 300.612 228.958 300.266C229.137 299.918 229.39 299.648 229.719 299.455C230.049 299.261 230.441 299.164 230.894 299.164C231.347 299.164 231.738 299.261 232.066 299.455C232.397 299.648 232.651 299.918 232.83 300.266C233.009 300.612 233.099 301.016 233.099 301.479C233.099 301.938 233.009 302.341 232.83 302.689C232.651 303.035 232.397 303.306 232.066 303.5C231.738 303.692 231.347 303.789 230.894 303.789ZM230.9 302.826C231.106 302.826 231.278 302.768 231.416 302.651C231.554 302.533 231.658 302.371 231.728 302.167C231.8 301.963 231.836 301.731 231.836 301.47C231.836 301.21 231.8 300.978 231.728 300.773C231.658 300.569 231.554 300.408 231.416 300.289C231.278 300.171 231.106 300.112 230.9 300.112C230.692 300.112 230.517 300.171 230.375 300.289C230.235 300.408 230.129 300.569 230.057 300.773C229.987 300.978 229.952 301.21 229.952 301.47C229.952 301.731 229.987 301.963 230.057 302.167C230.129 302.371 230.235 302.533 230.375 302.651C230.517 302.768 230.692 302.826 230.9 302.826ZM233.906 305.381V299.222H235.131V299.975H235.186C235.241 299.854 235.32 299.732 235.423 299.607C235.528 299.481 235.664 299.376 235.831 299.292C236 299.207 236.21 299.164 236.461 299.164C236.787 299.164 237.089 299.249 237.365 299.42C237.641 299.59 237.861 299.845 238.027 300.187C238.192 300.528 238.274 300.954 238.274 301.468C238.274 301.967 238.194 302.389 238.032 302.733C237.873 303.075 237.655 303.335 237.379 303.512C237.105 303.687 236.798 303.774 236.458 303.774C236.217 303.774 236.012 303.734 235.842 303.655C235.675 303.575 235.538 303.475 235.431 303.354C235.324 303.232 235.243 303.108 235.186 302.984H235.148V305.381H233.906ZM235.122 301.462C235.122 301.728 235.159 301.96 235.233 302.159C235.307 302.357 235.414 302.511 235.554 302.622C235.694 302.731 235.864 302.786 236.064 302.786C236.266 302.786 236.437 302.73 236.577 302.619C236.717 302.507 236.823 302.351 236.895 302.153C236.969 301.953 237.006 301.722 237.006 301.462C237.006 301.203 236.97 300.976 236.898 300.779C236.826 300.583 236.72 300.429 236.58 300.319C236.44 300.208 236.268 300.152 236.064 300.152C235.862 300.152 235.691 300.206 235.551 300.313C235.413 300.42 235.307 300.571 235.233 300.768C235.159 300.964 235.122 301.195 235.122 301.462Z" fill="#767676"/>
<path d="M296.731 298.77V297.729H301.636V298.77H299.807V303.701H298.559V298.77H296.731ZM303.088 303.786C302.802 303.786 302.548 303.736 302.324 303.637C302.1 303.536 301.924 303.387 301.793 303.191C301.665 302.993 301.601 302.746 301.601 302.45C301.601 302.201 301.646 301.992 301.738 301.823C301.829 301.654 301.954 301.518 302.111 301.415C302.269 301.312 302.447 301.234 302.648 301.182C302.85 301.129 303.062 301.092 303.283 301.071C303.544 301.044 303.754 301.018 303.913 300.995C304.073 300.97 304.188 300.933 304.26 300.884C304.332 300.836 304.368 300.764 304.368 300.669V300.651C304.368 300.466 304.31 300.323 304.193 300.222C304.078 300.121 303.915 300.071 303.703 300.071C303.48 300.071 303.302 300.12 303.17 300.219C303.037 300.317 302.95 300.439 302.907 300.587L301.758 300.494C301.817 300.221 301.931 299.986 302.102 299.788C302.273 299.588 302.494 299.434 302.764 299.327C303.036 299.218 303.351 299.164 303.709 299.164C303.958 299.164 304.196 299.193 304.423 299.251C304.653 299.31 304.856 299.4 305.033 299.523C305.212 299.645 305.353 299.802 305.456 299.995C305.559 300.185 305.61 300.414 305.61 300.68V303.701H304.432V303.08H304.397C304.325 303.22 304.229 303.343 304.109 303.45C303.988 303.555 303.843 303.638 303.674 303.698C303.505 303.757 303.31 303.786 303.088 303.786ZM303.444 302.928C303.626 302.928 303.788 302.892 303.928 302.821C304.068 302.747 304.178 302.648 304.257 302.523C304.337 302.399 304.377 302.258 304.377 302.1V301.625C304.338 301.65 304.285 301.674 304.216 301.695C304.15 301.714 304.076 301.733 303.992 301.75C303.908 301.766 303.825 301.78 303.741 301.794C303.658 301.806 303.582 301.816 303.514 301.826C303.368 301.848 303.241 301.882 303.132 301.928C303.023 301.975 302.938 302.038 302.878 302.118C302.818 302.196 302.788 302.293 302.788 302.409C302.788 302.579 302.849 302.708 302.971 302.797C303.096 302.885 303.253 302.928 303.444 302.928ZM306.597 303.701V297.729H307.84V299.975H307.878C307.932 299.854 308.011 299.732 308.114 299.607C308.219 299.481 308.355 299.376 308.522 299.292C308.691 299.207 308.901 299.164 309.152 299.164C309.478 299.164 309.78 299.249 310.056 299.42C310.332 299.59 310.552 299.845 310.718 300.187C310.883 300.528 310.966 300.954 310.966 301.468C310.966 301.967 310.885 302.389 310.724 302.733C310.564 303.075 310.346 303.335 310.07 303.512C309.796 303.687 309.489 303.774 309.149 303.774C308.908 303.774 308.703 303.734 308.534 303.655C308.366 303.575 308.229 303.475 308.122 303.354C308.016 303.232 307.934 303.108 307.878 302.984H307.822V303.701H306.597ZM307.813 301.462C307.813 301.728 307.85 301.96 307.924 302.159C307.998 302.357 308.105 302.511 308.245 302.622C308.385 302.731 308.555 302.786 308.755 302.786C308.957 302.786 309.128 302.73 309.268 302.619C309.408 302.507 309.514 302.351 309.586 302.153C309.66 301.953 309.697 301.722 309.697 301.462C309.697 301.203 309.661 300.976 309.589 300.779C309.517 300.583 309.411 300.429 309.271 300.319C309.131 300.208 308.959 300.152 308.755 300.152C308.553 300.152 308.382 300.206 308.242 300.313C308.104 300.42 307.998 300.571 307.924 300.768C307.85 300.964 307.813 301.195 307.813 301.462ZM313.037 297.729V303.701H311.794V297.729H313.037ZM316.073 303.789C315.612 303.789 315.216 303.695 314.883 303.509C314.553 303.32 314.298 303.054 314.119 302.71C313.94 302.364 313.851 301.954 313.851 301.482C313.851 301.021 313.94 300.617 314.119 300.269C314.298 299.921 314.55 299.65 314.874 299.455C315.201 299.261 315.584 299.164 316.023 299.164C316.319 299.164 316.594 299.211 316.849 299.307C317.105 299.4 317.329 299.541 317.519 299.73C317.712 299.918 317.861 300.155 317.968 300.441C318.075 300.725 318.129 301.057 318.129 301.438V301.78H314.347V301.01H316.959C316.959 300.831 316.921 300.672 316.843 300.534C316.765 300.396 316.657 300.288 316.519 300.211C316.383 300.131 316.225 300.091 316.044 300.091C315.855 300.091 315.688 300.135 315.542 300.222C315.398 300.308 315.286 300.424 315.204 300.569C315.122 300.713 315.081 300.874 315.079 301.051V301.782C315.079 302.004 315.119 302.196 315.201 302.357C315.285 302.518 315.402 302.643 315.554 302.73C315.706 302.818 315.885 302.861 316.093 302.861C316.231 302.861 316.358 302.842 316.472 302.803C316.587 302.764 316.685 302.706 316.767 302.628C316.849 302.55 316.911 302.455 316.954 302.342L318.103 302.418C318.044 302.694 317.925 302.935 317.744 303.141C317.565 303.345 317.334 303.505 317.05 303.62C316.768 303.732 316.442 303.789 316.073 303.789ZM321.322 299.222V300.155H318.624V299.222H321.322ZM319.237 298.149H320.479V302.325C320.479 302.44 320.497 302.529 320.532 302.593C320.567 302.655 320.615 302.699 320.677 302.724C320.742 302.75 320.815 302.762 320.899 302.762C320.957 302.762 321.016 302.757 321.074 302.748C321.132 302.736 321.177 302.727 321.208 302.721L321.403 303.646C321.341 303.665 321.254 303.688 321.141 303.713C321.028 303.74 320.891 303.757 320.73 303.762C320.43 303.774 320.168 303.734 319.943 303.643C319.719 303.551 319.545 303.41 319.421 303.217C319.296 303.025 319.235 302.782 319.237 302.488V298.149Z" fill="#767676"/>
<line opacity="0.5" x1="87.5965" y1="289.132" x2="87.5965" y2="112.585" stroke="#B1B1B1" stroke-width="0.533608"/>
</svg>
