<svg width="419" height="442" viewBox="0 0 419 442" fill="none" xmlns="http://www.w3.org/2000/svg">
<g filter="url(#filter0_d_505_3195)">
<path d="M40 53C40 43.0589 48.0589 35 58 35H360.609C370.55 35 378.609 43.0589 378.609 53V379C378.609 388.941 370.55 397 360.609 397H58C48.0589 397 40 388.941 40 379V53Z" fill="white"/>
</g>
<path d="M74.292 73.628C74.292 77.498 71.448 80.324 67.65 80.324C63.852 80.324 61.008 77.498 61.008 73.628C61.008 69.758 63.852 66.932 67.65 66.932C71.448 66.932 74.292 69.758 74.292 73.628ZM72.924 73.628C72.924 70.658 70.926 68.066 67.65 68.066C64.374 68.066 62.376 70.658 62.376 73.628C62.376 76.598 64.374 79.172 67.65 79.172C70.926 79.172 72.924 76.598 72.924 73.628ZM83.789 71.576L80.369 80H79.019L75.581 71.576H76.949L79.685 78.704H79.721L82.475 71.576H83.789ZM86.386 75.14H92.128C92.056 73.556 91.084 72.386 89.338 72.386C87.7 72.386 86.494 73.7 86.386 75.14ZM93.37 75.536C93.37 75.698 93.37 75.896 93.352 76.112H86.368C86.404 77.804 87.718 79.172 89.446 79.172C90.706 79.172 91.678 78.47 92.146 77.714L93.064 78.434C92.074 79.694 90.832 80.216 89.446 80.216C86.944 80.216 85.09 78.326 85.09 75.788C85.09 73.25 86.944 71.36 89.338 71.36C91.984 71.36 93.37 73.232 93.37 75.536ZM96.0028 73.43C96.0028 72.98 95.9848 72.152 95.9308 71.576H97.1008C97.1368 72.026 97.1728 72.656 97.1728 73.016H97.2088C97.6768 72.044 98.7208 71.36 99.9088 71.36C100.215 71.36 100.467 71.378 100.719 71.45L100.557 72.602C100.413 72.548 100.017 72.494 99.6928 72.494C98.3968 72.494 97.2268 73.43 97.2268 75.68V80H96.0028V73.43ZM107.588 74.834V74.564C107.588 73.106 106.796 72.386 105.338 72.386C104.348 72.386 103.43 72.782 102.836 73.376L102.152 72.566C102.836 71.882 104.024 71.36 105.464 71.36C107.282 71.36 108.74 72.368 108.74 74.42V78.11C108.74 78.758 108.794 79.532 108.884 80H107.786C107.714 79.586 107.66 79.082 107.66 78.632H107.624C106.85 79.748 105.914 80.216 104.564 80.216C103.286 80.216 101.648 79.532 101.648 77.66C101.648 75.068 104.51 74.834 107.588 74.834ZM107.588 75.788H107.228C105.23 75.788 102.908 76.004 102.908 77.606C102.908 78.812 103.934 79.208 104.888 79.208C106.616 79.208 107.588 77.912 107.588 76.418V75.788ZM113.153 66.392V80H111.929V66.392H113.153ZM117.689 66.392V80H116.465V66.392H117.689ZM125.536 80V67.256H129.136C131.728 67.256 133.438 68.372 133.438 70.658C133.438 72.944 131.692 74.078 129.1 74.078H126.832V80H125.536ZM126.832 68.372V72.98H129.028C131.044 72.98 132.142 72.17 132.142 70.658C132.142 69.092 130.99 68.372 129.028 68.372H126.832ZM142.974 75.788C142.974 78.326 141.102 80.216 138.474 80.216C135.864 80.216 133.992 78.326 133.992 75.788C133.992 73.25 135.864 71.36 138.474 71.36C141.102 71.36 142.974 73.25 142.974 75.788ZM141.678 75.788C141.678 73.898 140.436 72.386 138.474 72.386C136.53 72.386 135.288 73.898 135.288 75.788C135.288 77.678 136.53 79.172 138.474 79.172C140.436 79.172 141.678 77.678 141.678 75.788ZM151.026 72.872L150.09 73.574C149.73 72.872 148.956 72.386 148.02 72.386C147.138 72.386 146.238 72.764 146.238 73.7C146.238 74.492 146.868 74.852 148.254 75.14C150.234 75.554 151.17 76.292 151.17 77.606C151.17 79.532 149.55 80.216 148.002 80.216C146.724 80.216 145.446 79.712 144.672 78.578L145.644 77.858C146.076 78.596 146.994 79.172 147.984 79.172C149.028 79.172 149.964 78.794 149.964 77.696C149.964 76.814 149.082 76.454 147.48 76.076C146.49 75.842 145.068 75.41 145.068 73.808C145.068 72.098 146.544 71.36 148.074 71.36C149.244 71.36 150.486 71.918 151.026 72.872ZM157.404 71.576V72.602H155.028V77.516C155.028 78.776 155.55 79.064 156.288 79.064C156.63 79.064 157.026 78.956 157.35 78.794L157.404 79.856C156.972 80.018 156.522 80.108 155.964 80.108C155.064 80.108 153.804 79.712 153.804 77.858V72.602H152.058V71.576H153.804V69.2H155.028V71.576H157.404ZM163.891 80V67.256H167.491C170.083 67.256 171.793 68.372 171.793 70.658C171.793 72.944 170.047 74.078 167.455 74.078H165.187V80H163.891ZM165.187 68.372V72.98H167.383C169.399 72.98 170.497 72.17 170.497 70.658C170.497 69.092 169.345 68.372 167.383 68.372H165.187ZM173.644 75.14H179.386C179.314 73.556 178.342 72.386 176.596 72.386C174.958 72.386 173.752 73.7 173.644 75.14ZM180.628 75.536C180.628 75.698 180.628 75.896 180.61 76.112H173.626C173.662 77.804 174.976 79.172 176.704 79.172C177.964 79.172 178.936 78.47 179.404 77.714L180.322 78.434C179.332 79.694 178.09 80.216 176.704 80.216C174.202 80.216 172.348 78.326 172.348 75.788C172.348 73.25 174.202 71.36 176.596 71.36C179.242 71.36 180.628 73.232 180.628 75.536ZM183.261 73.43C183.261 72.98 183.243 72.152 183.189 71.576H184.359C184.395 72.026 184.431 72.656 184.431 73.016H184.467C184.935 72.044 185.979 71.36 187.167 71.36C187.473 71.36 187.725 71.378 187.977 71.45L187.815 72.602C187.671 72.548 187.275 72.494 186.951 72.494C185.655 72.494 184.485 73.43 184.485 75.68V80H183.261V73.43ZM193.311 71.576V72.602H191.331V80H190.107V72.602H188.343V71.576H190.107V69.272C190.107 67.364 191.043 66.176 192.969 66.176C193.275 66.176 193.671 66.212 193.977 66.302L193.761 67.382C193.509 67.31 193.239 67.256 192.915 67.256C191.601 67.256 191.331 68.192 191.331 69.416V71.576H193.311ZM203.426 75.788C203.426 78.326 201.554 80.216 198.926 80.216C196.316 80.216 194.444 78.326 194.444 75.788C194.444 73.25 196.316 71.36 198.926 71.36C201.554 71.36 203.426 73.25 203.426 75.788ZM202.13 75.788C202.13 73.898 200.888 72.386 198.926 72.386C196.982 72.386 195.74 73.898 195.74 75.788C195.74 77.678 196.982 79.172 198.926 79.172C200.888 79.172 202.13 77.678 202.13 75.788ZM206.059 73.43C206.059 72.98 206.041 72.152 205.987 71.576H207.157C207.193 72.026 207.229 72.656 207.229 73.016H207.265C207.733 72.044 208.777 71.36 209.965 71.36C210.271 71.36 210.523 71.378 210.775 71.45L210.613 72.602C210.469 72.548 210.073 72.494 209.749 72.494C208.453 72.494 207.283 73.43 207.283 75.68V80H206.059V73.43ZM213.752 73.016C214.238 72.044 215.318 71.36 216.524 71.36C217.442 71.36 218.558 71.702 219.116 73.142C219.692 71.99 220.718 71.36 222.068 71.36C224.21 71.36 225.272 72.746 225.272 74.834V80H224.048V75.338C224.048 73.574 223.454 72.386 221.87 72.386C220.106 72.386 219.476 73.952 219.476 75.518V80H218.252V75.086C218.252 73.448 217.856 72.386 216.218 72.386C215.048 72.386 213.77 73.43 213.77 75.68V80H212.546V73.43C212.546 72.98 212.528 72.152 212.474 71.576H213.644C213.68 72.026 213.716 72.656 213.716 73.016H213.752ZM233.746 74.834V74.564C233.746 73.106 232.954 72.386 231.496 72.386C230.506 72.386 229.588 72.782 228.994 73.376L228.31 72.566C228.994 71.882 230.182 71.36 231.622 71.36C233.44 71.36 234.898 72.368 234.898 74.42V78.11C234.898 78.758 234.952 79.532 235.042 80H233.944C233.872 79.586 233.818 79.082 233.818 78.632H233.782C233.008 79.748 232.072 80.216 230.722 80.216C229.444 80.216 227.806 79.532 227.806 77.66C227.806 75.068 230.668 74.834 233.746 74.834ZM233.746 75.788H233.386C231.388 75.788 229.066 76.004 229.066 77.606C229.066 78.812 230.092 79.208 231.046 79.208C232.774 79.208 233.746 77.912 233.746 76.418V75.788ZM237.98 71.576H239.15C239.186 72.026 239.222 72.656 239.222 73.016H239.258C239.726 72.044 240.95 71.36 242.138 71.36C244.28 71.36 245.342 72.746 245.342 74.834V80H244.118V75.338C244.118 73.574 243.596 72.386 241.832 72.386C240.536 72.386 239.276 73.43 239.276 75.68V80H238.052V73.43C238.052 72.98 238.034 72.152 237.98 71.576ZM255.531 72.818L254.577 73.502C254.181 72.854 253.335 72.386 252.417 72.386C250.455 72.386 249.195 73.862 249.195 75.788C249.195 77.696 250.437 79.172 252.399 79.172C253.461 79.172 254.199 78.722 254.685 78.074L255.603 78.758C254.883 79.64 253.857 80.216 252.399 80.216C249.681 80.216 247.899 78.326 247.899 75.788C247.899 73.25 249.681 71.36 252.399 71.36C253.533 71.36 254.811 71.846 255.531 72.818ZM258.195 75.14H263.937C263.865 73.556 262.893 72.386 261.147 72.386C259.509 72.386 258.303 73.7 258.195 75.14ZM265.179 75.536C265.179 75.698 265.179 75.896 265.161 76.112H258.177C258.213 77.804 259.527 79.172 261.255 79.172C262.515 79.172 263.487 78.47 263.955 77.714L264.873 78.434C263.883 79.694 262.641 80.216 261.255 80.216C258.753 80.216 256.899 78.326 256.899 75.788C256.899 73.25 258.753 71.36 261.147 71.36C263.793 71.36 265.179 73.232 265.179 75.536Z" fill="black"/>
<path d="M69.892 103.48L68.866 104.308C68.326 103.534 67.444 103.03 66.238 103.03C64.978 103.03 63.52 103.786 63.52 105.424C63.52 107.044 64.87 107.458 66.292 107.926C68.092 108.52 70.072 109.096 70.072 111.652C70.072 114.208 67.93 115.324 65.914 115.324C64.366 115.324 62.818 114.694 61.9 113.434L63.016 112.606C63.574 113.506 64.6 114.208 65.932 114.208C67.246 114.208 68.758 113.38 68.758 111.742C68.758 109.96 67.264 109.51 65.644 109.006C63.952 108.484 62.224 107.746 62.224 105.442C62.224 102.976 64.42 101.932 66.292 101.932C68.002 101.932 69.28 102.652 69.892 103.48ZM80.0702 115H78.9002C78.8642 114.55 78.8282 113.92 78.8282 113.56H78.7922C78.3242 114.532 77.1002 115.216 75.9122 115.216C73.7702 115.216 72.7082 113.83 72.7082 111.742V106.576H73.9322V111.238C73.9322 113.002 74.4542 114.19 76.2182 114.19C77.5142 114.19 78.7742 113.146 78.7742 110.896V106.576H79.9982V113.146C79.9982 113.596 80.0162 114.424 80.0702 115ZM84.4451 108.016C84.9311 107.044 86.0111 106.36 87.2171 106.36C88.1351 106.36 89.2511 106.702 89.8091 108.142C90.3851 106.99 91.4111 106.36 92.7611 106.36C94.9031 106.36 95.9651 107.746 95.9651 109.834V115H94.7411V110.338C94.7411 108.574 94.1471 107.386 92.5631 107.386C90.7991 107.386 90.1691 108.952 90.1691 110.518V115H88.9451V110.086C88.9451 108.448 88.5491 107.386 86.9111 107.386C85.7411 107.386 84.4631 108.43 84.4631 110.68V115H83.2391V108.43C83.2391 107.98 83.2211 107.152 83.1671 106.576H84.3371C84.3731 107.026 84.4091 107.656 84.4091 108.016H84.4451ZM100.336 108.016C100.822 107.044 101.902 106.36 103.108 106.36C104.026 106.36 105.142 106.702 105.7 108.142C106.276 106.99 107.302 106.36 108.652 106.36C110.794 106.36 111.856 107.746 111.856 109.834V115H110.632V110.338C110.632 108.574 110.038 107.386 108.454 107.386C106.69 107.386 106.06 108.952 106.06 110.518V115H104.836V110.086C104.836 108.448 104.44 107.386 102.802 107.386C101.632 107.386 100.354 108.43 100.354 110.68V115H99.1298V108.43C99.1298 107.98 99.1118 107.152 99.0578 106.576H100.228C100.264 107.026 100.3 107.656 100.3 108.016H100.336ZM115.704 110.14H121.446C121.374 108.556 120.402 107.386 118.656 107.386C117.018 107.386 115.812 108.7 115.704 110.14ZM122.688 110.536C122.688 110.698 122.688 110.896 122.67 111.112H115.686C115.722 112.804 117.036 114.172 118.764 114.172C120.024 114.172 120.996 113.47 121.464 112.714L122.382 113.434C121.392 114.694 120.15 115.216 118.764 115.216C116.262 115.216 114.408 113.326 114.408 110.788C114.408 108.25 116.262 106.36 118.656 106.36C121.302 106.36 122.688 108.232 122.688 110.536ZM125.321 108.43C125.321 107.98 125.303 107.152 125.249 106.576H126.419C126.455 107.026 126.491 107.656 126.491 108.016H126.527C126.995 107.044 128.039 106.36 129.227 106.36C129.533 106.36 129.785 106.378 130.037 106.45L129.875 107.602C129.731 107.548 129.335 107.494 129.011 107.494C127.715 107.494 126.545 108.43 126.545 110.68V115H125.321V108.43ZM141.726 107.872L140.79 108.574C140.43 107.872 139.656 107.386 138.72 107.386C137.838 107.386 136.938 107.764 136.938 108.7C136.938 109.492 137.568 109.852 138.954 110.14C140.934 110.554 141.87 111.292 141.87 112.606C141.87 114.532 140.25 115.216 138.702 115.216C137.424 115.216 136.146 114.712 135.372 113.578L136.344 112.858C136.776 113.596 137.694 114.172 138.684 114.172C139.728 114.172 140.664 113.794 140.664 112.696C140.664 111.814 139.782 111.454 138.18 111.076C137.19 110.842 135.768 110.41 135.768 108.808C135.768 107.098 137.244 106.36 138.774 106.36C139.944 106.36 141.186 106.918 141.726 107.872ZM144.99 110.14H150.732C150.66 108.556 149.688 107.386 147.942 107.386C146.304 107.386 145.098 108.7 144.99 110.14ZM151.974 110.536C151.974 110.698 151.974 110.896 151.956 111.112H144.972C145.008 112.804 146.322 114.172 148.05 114.172C149.31 114.172 150.282 113.47 150.75 112.714L151.668 113.434C150.678 114.694 149.436 115.216 148.05 115.216C145.548 115.216 143.694 113.326 143.694 110.788C143.694 108.25 145.548 106.36 147.942 106.36C150.588 106.36 151.974 108.232 151.974 110.536ZM159.811 109.834V109.564C159.811 108.106 159.019 107.386 157.561 107.386C156.571 107.386 155.653 107.782 155.059 108.376L154.375 107.566C155.059 106.882 156.247 106.36 157.687 106.36C159.505 106.36 160.963 107.368 160.963 109.42V113.11C160.963 113.758 161.017 114.532 161.107 115H160.009C159.937 114.586 159.883 114.082 159.883 113.632H159.847C159.073 114.748 158.137 115.216 156.787 115.216C155.509 115.216 153.871 114.532 153.871 112.66C153.871 110.068 156.733 109.834 159.811 109.834ZM159.811 110.788H159.451C157.453 110.788 155.131 111.004 155.131 112.606C155.131 113.812 156.157 114.208 157.111 114.208C158.839 114.208 159.811 112.912 159.811 111.418V110.788ZM169.534 107.872L168.598 108.574C168.238 107.872 167.464 107.386 166.528 107.386C165.646 107.386 164.746 107.764 164.746 108.7C164.746 109.492 165.376 109.852 166.762 110.14C168.742 110.554 169.678 111.292 169.678 112.606C169.678 114.532 168.058 115.216 166.51 115.216C165.232 115.216 163.954 114.712 163.18 113.578L164.152 112.858C164.584 113.596 165.502 114.172 166.492 114.172C167.536 114.172 168.472 113.794 168.472 112.696C168.472 111.814 167.59 111.454 165.988 111.076C164.998 110.842 163.576 110.41 163.576 108.808C163.576 107.098 165.052 106.36 166.582 106.36C167.752 106.36 168.994 106.918 169.534 107.872ZM180.484 110.788C180.484 113.326 178.612 115.216 175.984 115.216C173.374 115.216 171.502 113.326 171.502 110.788C171.502 108.25 173.374 106.36 175.984 106.36C178.612 106.36 180.484 108.25 180.484 110.788ZM179.188 110.788C179.188 108.898 177.946 107.386 175.984 107.386C174.04 107.386 172.798 108.898 172.798 110.788C172.798 112.678 174.04 114.172 175.984 114.172C177.946 114.172 179.188 112.678 179.188 110.788ZM183.046 106.576H184.216C184.252 107.026 184.288 107.656 184.288 108.016H184.324C184.792 107.044 186.016 106.36 187.204 106.36C189.346 106.36 190.408 107.746 190.408 109.834V115H189.184V110.338C189.184 108.574 188.662 107.386 186.898 107.386C185.602 107.386 184.342 108.43 184.342 110.68V115H183.118V108.43C183.118 107.98 183.1 107.152 183.046 106.576ZM200.129 102.256L204.449 112.804H204.467L208.733 102.256H210.713V115H209.417V103.93H209.381L204.773 115H204.089L199.481 103.93H199.445V115H198.149V102.256H200.129ZM219.33 109.834V109.564C219.33 108.106 218.538 107.386 217.08 107.386C216.09 107.386 215.172 107.782 214.578 108.376L213.894 107.566C214.578 106.882 215.766 106.36 217.206 106.36C219.024 106.36 220.482 107.368 220.482 109.42V113.11C220.482 113.758 220.536 114.532 220.626 115H219.528C219.456 114.586 219.402 114.082 219.402 113.632H219.366C218.592 114.748 217.656 115.216 216.306 115.216C215.028 115.216 213.39 114.532 213.39 112.66C213.39 110.068 216.252 109.834 219.33 109.834ZM219.33 110.788H218.97C216.972 110.788 214.65 111.004 214.65 112.606C214.65 113.812 215.676 114.208 216.63 114.208C218.358 114.208 219.33 112.912 219.33 111.418V110.788ZM223.636 108.43C223.636 107.98 223.618 107.152 223.564 106.576H224.734C224.77 107.026 224.806 107.656 224.806 108.016H224.842C225.31 107.044 226.354 106.36 227.542 106.36C227.848 106.36 228.1 106.378 228.352 106.45L228.19 107.602C228.046 107.548 227.65 107.494 227.326 107.494C226.03 107.494 224.86 108.43 224.86 110.68V115H223.636V108.43ZM231.382 101.392V110.374H231.436L235.324 106.576H237.088L232.84 110.428L237.52 115H235.72L231.436 110.572H231.382V115H230.158V101.392H231.382ZM239.665 110.14H245.407C245.335 108.556 244.363 107.386 242.617 107.386C240.979 107.386 239.773 108.7 239.665 110.14ZM246.649 110.536C246.649 110.698 246.649 110.896 246.631 111.112H239.647C239.683 112.804 240.997 114.172 242.725 114.172C243.985 114.172 244.957 113.47 245.425 112.714L246.343 113.434C245.353 114.694 244.111 115.216 242.725 115.216C240.223 115.216 238.369 113.326 238.369 110.788C238.369 108.25 240.223 106.36 242.617 106.36C245.263 106.36 246.649 108.232 246.649 110.536ZM253.08 106.576V107.602H250.704V112.516C250.704 113.776 251.226 114.064 251.964 114.064C252.306 114.064 252.702 113.956 253.026 113.794L253.08 114.856C252.648 115.018 252.198 115.108 251.64 115.108C250.74 115.108 249.48 114.712 249.48 112.858V107.602H247.734V106.576H249.48V104.2H250.704V106.576H253.08ZM256.237 106.576V115H255.013V106.576H256.237ZM256.489 103.336C256.489 103.84 256.057 104.2 255.625 104.2C255.193 104.2 254.761 103.84 254.761 103.336C254.761 102.832 255.193 102.472 255.625 102.472C256.057 102.472 256.489 102.832 256.489 103.336ZM259.423 106.576H260.593C260.629 107.026 260.665 107.656 260.665 108.016H260.701C261.169 107.044 262.393 106.36 263.581 106.36C265.723 106.36 266.785 107.746 266.785 109.834V115H265.561V110.338C265.561 108.574 265.039 107.386 263.275 107.386C261.979 107.386 260.719 108.43 260.719 110.68V115H259.495V108.43C259.495 107.98 259.477 107.152 259.423 106.576ZM269.522 117.628L270.404 116.692C271.07 117.556 272.348 118.24 273.626 118.24C276.038 118.24 276.92 116.746 276.92 114.928V113.344H276.884C276.236 114.388 274.922 115 273.698 115C271.07 115 269.342 113.182 269.342 110.716C269.342 108.322 271.07 106.36 273.698 106.36C274.922 106.36 276.218 106.954 276.884 108.034H276.92V106.576H278.144V114.928C278.144 116.764 277.298 119.32 273.572 119.32C272.024 119.32 270.512 118.672 269.522 117.628ZM270.638 110.68C270.638 112.444 271.79 113.956 273.824 113.956C275.714 113.956 277.064 112.624 277.064 110.68C277.064 108.916 275.714 107.386 273.824 107.386C271.79 107.386 270.638 108.916 270.638 110.68ZM69.64 131.818L68.686 132.502C68.29 131.854 67.444 131.386 66.526 131.386C64.564 131.386 63.304 132.862 63.304 134.788C63.304 136.696 64.546 138.172 66.508 138.172C67.57 138.172 68.308 137.722 68.794 137.074L69.712 137.758C68.992 138.64 67.966 139.216 66.508 139.216C63.79 139.216 62.008 137.326 62.008 134.788C62.008 132.25 63.79 130.36 66.508 130.36C67.642 130.36 68.92 130.846 69.64 131.818ZM76.93 133.834V133.564C76.93 132.106 76.138 131.386 74.68 131.386C73.69 131.386 72.772 131.782 72.178 132.376L71.494 131.566C72.178 130.882 73.366 130.36 74.806 130.36C76.624 130.36 78.082 131.368 78.082 133.42V137.11C78.082 137.758 78.136 138.532 78.226 139H77.128C77.056 138.586 77.002 138.082 77.002 137.632H76.966C76.192 138.748 75.256 139.216 73.906 139.216C72.628 139.216 70.99 138.532 70.99 136.66C70.99 134.068 73.852 133.834 76.93 133.834ZM76.93 134.788H76.57C74.572 134.788 72.25 135.004 72.25 136.606C72.25 137.812 73.276 138.208 74.23 138.208C75.958 138.208 76.93 136.912 76.93 135.418V134.788ZM82.4412 132.016C82.9272 131.044 84.0072 130.36 85.2132 130.36C86.1312 130.36 87.2472 130.702 87.8052 132.142C88.3812 130.99 89.4072 130.36 90.7572 130.36C92.8992 130.36 93.9612 131.746 93.9612 133.834V139H92.7372V134.338C92.7372 132.574 92.1432 131.386 90.5592 131.386C88.7952 131.386 88.1652 132.952 88.1652 134.518V139H86.9412V134.086C86.9412 132.448 86.5452 131.386 84.9072 131.386C83.7372 131.386 82.4592 132.43 82.4592 134.68V139H81.2352V132.43C81.2352 131.98 81.2172 131.152 81.1632 130.576H82.3332C82.3692 131.026 82.4052 131.656 82.4052 132.016H82.4412ZM98.3499 137.578V143.32H97.1259V130.576H98.3499V132.034H98.4039C99.1059 130.936 100.366 130.36 101.572 130.36C104.2 130.36 105.928 132.304 105.928 134.788C105.928 137.272 104.2 139.216 101.572 139.216C100.366 139.216 99.1059 138.622 98.4039 137.578H98.3499ZM104.632 134.788C104.632 132.916 103.48 131.386 101.446 131.386C99.5559 131.386 98.2059 132.862 98.2059 134.788C98.2059 136.714 99.5559 138.172 101.446 138.172C103.48 138.172 104.632 136.66 104.632 134.788ZM113.862 133.834V133.564C113.862 132.106 113.07 131.386 111.612 131.386C110.622 131.386 109.704 131.782 109.11 132.376L108.426 131.566C109.11 130.882 110.298 130.36 111.738 130.36C113.556 130.36 115.014 131.368 115.014 133.42V137.11C115.014 137.758 115.068 138.532 115.158 139H114.06C113.988 138.586 113.934 138.082 113.934 137.632H113.898C113.124 138.748 112.188 139.216 110.838 139.216C109.56 139.216 107.922 138.532 107.922 136.66C107.922 134.068 110.784 133.834 113.862 133.834ZM113.862 134.788H113.502C111.504 134.788 109.182 135.004 109.182 136.606C109.182 137.812 110.208 138.208 111.162 138.208C112.89 138.208 113.862 136.912 113.862 135.418V134.788ZM119.409 130.576V139H118.185V130.576H119.409ZM119.661 127.336C119.661 127.84 119.229 128.2 118.797 128.2C118.365 128.2 117.933 127.84 117.933 127.336C117.933 126.832 118.365 126.472 118.797 126.472C119.229 126.472 119.661 126.832 119.661 127.336ZM122.235 141.628L123.117 140.692C123.783 141.556 125.061 142.24 126.339 142.24C128.751 142.24 129.633 140.746 129.633 138.928V137.344H129.597C128.949 138.388 127.635 139 126.411 139C123.783 139 122.055 137.182 122.055 134.716C122.055 132.322 123.783 130.36 126.411 130.36C127.635 130.36 128.931 130.954 129.597 132.034H129.633V130.576H130.857V138.928C130.857 140.764 130.011 143.32 126.285 143.32C124.737 143.32 123.225 142.672 122.235 141.628ZM123.351 134.68C123.351 136.444 124.503 137.956 126.537 137.956C128.427 137.956 129.777 136.624 129.777 134.68C129.777 132.916 128.427 131.386 126.537 131.386C124.503 131.386 123.351 132.916 123.351 134.68ZM133.968 130.576H135.138C135.174 131.026 135.21 131.656 135.21 132.016H135.246C135.714 131.044 136.938 130.36 138.126 130.36C140.268 130.36 141.33 131.746 141.33 133.834V139H140.106V134.338C140.106 132.574 139.584 131.386 137.82 131.386C136.524 131.386 135.264 132.43 135.264 134.68V139H134.04V132.43C134.04 131.98 134.022 131.152 133.968 130.576Z" fill="#6C6C6C"/>
<path fill-rule="evenodd" clip-rule="evenodd" d="M227.114 352.907C275.153 341.148 304.202 294.101 291.996 247.824C279.791 201.546 230.953 173.563 182.914 185.321C134.875 197.079 105.826 244.126 118.032 290.403C130.237 336.681 179.075 364.665 227.114 352.907ZM217.169 315.2C190.748 321.666 163.887 306.275 157.174 280.823C150.46 255.37 166.438 229.494 192.859 223.027C219.28 216.56 246.141 231.951 252.854 257.404C259.567 282.856 243.591 308.732 217.169 315.2Z" fill="#553EF2"/>
<path d="M183.254 281.385L193.908 260.065V259.917H181.632V257.998H196.146V260.008L185.504 281.385H183.254ZM207.226 281.705C205.924 281.705 204.759 281.442 203.732 280.917C202.712 280.384 201.897 279.653 201.288 278.724C200.686 277.796 200.367 276.734 200.329 275.538H202.396C202.464 276.779 202.951 277.799 203.857 278.599C204.763 279.39 205.886 279.786 207.226 279.786C208.269 279.786 209.198 279.539 210.012 279.044C210.827 278.542 211.462 277.856 211.919 276.989C212.384 276.113 212.616 275.127 212.616 274.031C212.608 272.889 212.361 271.884 211.874 271.016C211.386 270.141 210.724 269.456 209.887 268.961C209.057 268.466 208.124 268.219 207.089 268.219C206.305 268.211 205.536 268.34 204.782 268.607C204.029 268.873 203.4 269.216 202.898 269.635L200.763 269.361L202.167 257.998H213.724V259.917H203.96L203.024 267.739H203.138C203.656 267.305 204.284 266.951 205.022 266.677C205.768 266.403 206.556 266.266 207.386 266.266C208.764 266.266 210.001 266.597 211.097 267.259C212.201 267.922 213.073 268.835 213.712 270C214.359 271.157 214.683 272.489 214.683 273.997C214.683 275.474 214.359 276.794 213.712 277.959C213.073 279.116 212.19 280.03 211.063 280.7C209.944 281.37 208.665 281.705 207.226 281.705ZM231.372 277.046V275.984C231.372 275.108 231.547 274.32 231.897 273.62C232.247 272.912 232.746 272.352 233.393 271.941C234.04 271.53 234.809 271.325 235.7 271.325C236.598 271.325 237.367 271.53 238.007 271.941C238.646 272.352 239.137 272.912 239.48 273.62C239.822 274.32 239.994 275.108 239.994 275.984V277.046C239.994 277.921 239.818 278.709 239.468 279.409C239.126 280.11 238.635 280.669 237.995 281.088C237.356 281.499 236.591 281.705 235.7 281.705C234.794 281.705 234.017 281.499 233.37 281.088C232.731 280.669 232.236 280.11 231.886 279.409C231.543 278.709 231.372 277.921 231.372 277.046ZM233.165 275.984V277.046C233.165 277.906 233.374 278.641 233.793 279.25C234.219 279.851 234.855 280.152 235.7 280.152C236.522 280.152 237.143 279.851 237.561 279.25C237.98 278.641 238.189 277.906 238.189 277.046V275.984C238.189 275.123 237.984 274.393 237.573 273.791C237.162 273.182 236.537 272.878 235.7 272.878C234.87 272.878 234.238 273.182 233.804 273.791C233.378 274.393 233.165 275.123 233.165 275.984ZM219.587 263.4V262.338C219.587 261.462 219.762 260.674 220.113 259.974C220.463 259.273 220.961 258.718 221.609 258.307C222.256 257.888 223.025 257.679 223.915 257.679C224.814 257.679 225.582 257.888 226.222 258.307C226.861 258.718 227.352 259.273 227.695 259.974C228.038 260.674 228.209 261.462 228.209 262.338V263.4C228.209 264.275 228.034 265.067 227.684 265.775C227.341 266.475 226.85 267.031 226.21 267.442C225.571 267.853 224.806 268.059 223.915 268.059C223.009 268.059 222.233 267.853 221.586 267.442C220.946 267.031 220.451 266.475 220.101 265.775C219.759 265.067 219.587 264.275 219.587 263.4ZM221.38 262.338V263.4C221.38 264.26 221.589 264.995 222.008 265.604C222.435 266.205 223.07 266.506 223.915 266.506C224.737 266.506 225.358 266.205 225.777 265.604C226.195 264.995 226.405 264.26 226.405 263.4V262.338C226.405 261.477 226.199 260.747 225.788 260.145C225.377 259.536 224.753 259.232 223.915 259.232C223.085 259.232 222.454 259.536 222.02 260.145C221.593 260.747 221.38 261.477 221.38 262.338ZM220.638 281.385L236.705 257.998H238.726L222.659 281.385H220.638Z" fill="black"/>
<path d="M269.371 300.339C278.131 304.585 288.897 301.117 291.533 291.746C293.03 286.424 293.999 280.965 294.42 275.439C295.282 264.114 293.821 252.735 290.121 241.954C286.421 231.172 280.554 221.199 272.856 212.603C269.016 208.316 264.759 204.413 260.149 200.945C252.371 195.092 241.672 198.72 237.17 207.351L235.653 210.26C230.959 219.258 235.016 230.203 241.871 237.687C241.993 237.819 242.114 237.953 242.234 238.087C246.461 242.807 249.682 248.282 251.713 254.202C253.745 260.121 254.547 266.368 254.073 272.587C253.303 282.706 256.505 294.102 265.637 298.529L269.371 300.339Z" fill="#FF1494"/>
<ellipse cx="77.6666" cy="363.991" rx="4.56566" ry="4.40122" fill="#FF1494"/>
<defs>
<filter id="filter0_d_505_3195" x="0" y="0" width="418.609" height="442" filterUnits="userSpaceOnUse" color-interpolation-filters="sRGB">
<feFlood flood-opacity="0" result="BackgroundImageFix"/>
<feColorMatrix in="SourceAlpha" type="matrix" values="0 0 0 0 0 0 0 0 0 0 0 0 0 0 0 0 0 0 127 0" result="hardAlpha"/>
<feOffset dy="5"/>
<feGaussianBlur stdDeviation="20"/>
<feComposite in2="hardAlpha" operator="out"/>
<feColorMatrix type="matrix" values="0 0 0 0 0 0 0 0 0 0.105882 0 0 0 0 0.419608 0 0 0 0.08 0"/>
<feBlend mode="normal" in2="BackgroundImageFix" result="effect1_dropShadow_505_3195"/>
<feBlend mode="normal" in="SourceGraphic" in2="effect1_dropShadow_505_3195" result="shape"/>
</filter>
</defs>
</svg>
