<svg width="119" height="118" viewBox="0 0 119 118" fill="none" xmlns="http://www.w3.org/2000/svg">
<path d="M14.4615 83.5714L9.06414 31.5724C9.00107 30.9634 9.21116 30.3753 9.65211 29.9343L12.0042 27.5192C12.0251 27.5526 12.046 27.5861 12.0669 27.6195C13.0431 26.9851 12.4436 27.4122 26.1628 26.9654L25.4901 19.3458C25.3972 18.1034 26.4604 17.0962 27.5902 17.1872L41.8043 17.8734L41.1835 10.8407C41.079 9.66808 42.0216 8.60424 43.2714 8.66881L77.6957 10.3526C78.7273 10.4028 79.5436 11.2181 79.5949 12.2497L81.9042 59.2871C81.9555 60.3679 81.1207 61.3062 80.0399 61.378L76.7026 61.6019C78.1963 76.7778 78.4784 76.0974 78.071 77.0816C111.59 98.5494 109.579 97.1297 109.825 97.6546C109.98 97.9842 109.96 98.2672 109.869 98.5241C109.87 98.5241 109.869 98.5241 109.869 98.5241C109.722 98.8691 108.751 101.15 108.841 100.939C108.547 101.632 107.917 102.137 107.182 102.221L46.9503 109.424C46.4253 109.487 45.8792 109.319 45.4593 108.983L15.2175 84.9574C14.7974 84.6215 14.5244 84.1175 14.4615 83.5714ZM77.4139 77.915C76.4225 78.6594 79.9373 77.8827 19.4208 83.2936C22.321 85.5465 8.98211 75.1849 47.5208 105.122L108.837 98.2164C109.115 98.083 109.678 98.5749 77.4139 77.915ZM65.9405 62.3238L66.2086 67.8147C66.264 68.8966 65.4519 69.8123 64.3526 69.8984L32.1083 72.0621C31.0508 72.1243 30.0994 71.3339 29.9836 70.2399L26.5983 31.8981C17.3214 32.1878 17.4339 31.891 17.028 32.3506C16.5922 32.8401 16.6529 30.1879 21.4313 77.6642C21.4682 78.0713 21.823 78.3441 22.2291 78.3235C74.8816 73.6648 71.9506 74.2129 72.3326 73.7429C72.694 73.3057 72.449 73.4806 71.306 61.9639L65.9405 62.3238ZM27.541 18.2352C26.9077 18.2258 26.4996 18.7314 26.536 19.2617L27.6026 31.3374C27.6029 31.3427 27.6085 31.3455 27.6086 31.3507C27.6088 31.3547 27.6047 31.357 27.6047 31.361L31.0295 70.1384C31.0808 70.6573 31.5464 71.0531 32.0468 71.0141L64.2767 68.8515C64.7976 68.8104 65.1852 68.3787 65.1586 67.867L64.8913 62.3942L47.7998 63.5407C47.7526 63.5437 47.7075 63.5448 47.6623 63.5448C46.6287 63.5448 45.7694 62.7685 45.675 61.7236L45.1684 55.9839L35.3036 56.1441H35.2954C35.0083 56.1441 34.7745 55.9144 34.7704 55.6273C34.7663 55.3381 34.996 55.0991 35.2872 55.094L45.0759 54.9351L44.1741 44.7195H35.2954C35.0062 44.7195 34.7704 44.4847 34.7704 44.1945C34.7704 43.9043 35.0062 43.6695 35.2954 43.6695H44.0815L43.2091 33.7864L34.6494 33.5678C34.3602 33.5606 34.1305 33.3196 34.1387 33.0294C34.1469 32.7443 34.3807 32.5177 34.6637 32.5177C34.6678 32.5177 34.6719 32.5177 34.6781 32.5177L43.116 32.7333L41.8974 18.9282L27.541 18.2352ZM80.8541 59.3384L78.5448 12.301C78.5222 11.8118 78.1346 11.4252 77.6445 11.4006C65.8837 10.8256 42.9255 9.71579 43.1729 9.71579C42.6183 9.71579 42.1795 10.1915 42.2295 10.7474L44.2185 33.2805C44.2185 33.2829 44.2211 33.2844 44.2209 33.2868C44.2209 33.2882 44.2194 33.2888 44.2194 33.2903L46.721 61.6302C46.7682 62.1481 47.1865 62.546 47.73 62.4926C49.2103 62.3933 58.7577 61.7529 79.9702 60.33C80.4829 60.2961 80.8787 59.8511 80.8541 59.3384ZM75.6524 61.6723L72.3562 61.8934L73.5345 73.0722C73.6535 74.0757 72.9179 74.9751 71.9019 75.0636C20.5819 79.5182 22.3889 79.3767 22.1594 79.3767C21.2488 79.3767 20.4695 78.6825 20.3854 77.7657L15.7872 33.0243C15.6994 32.0098 16.4773 31.0776 17.5367 31.0472L26.5058 30.8494L26.2554 28.0138L13.117 28.3175C12.5473 28.3175 12.139 28.8259 12.192 29.3562C17.9682 84.5694 17.3174 81.6196 17.8821 82.0982L17.9195 82.1273C18.4628 82.5411 15.1297 82.5234 76.3196 77.295C76.8461 77.2407 77.2495 76.7666 77.1933 76.2347L75.6524 61.6723Z" fill="black"/>
<path d="M87.3292 90.8655C37.4572 95.5729 40.2817 95.4802 39.7257 95.0719L28.2755 86.5934C27.4455 85.981 27.8158 84.66 28.8457 84.5723L75.2247 80.5156C75.9628 80.4477 75.5947 80.5685 87.8562 88.8197C88.7241 89.411 88.3766 90.7661 87.3292 90.8655ZM87.2656 89.6872L75.317 81.5616L28.9359 85.6182C28.9359 85.6182 28.899 85.7495 28.899 85.7505L40.4004 94.2423L87.2943 89.7662C87.3066 89.7159 87.2779 89.6965 87.2656 89.6872Z" fill="black"/>
<path d="M59.2678 86.4493C58.6033 86.4493 58.5587 85.4645 59.2186 85.4013L74.1491 83.9749C74.8677 83.933 74.918 84.9566 74.2476 85.0208L59.317 86.4472C59.3006 86.4483 59.2842 86.4493 59.2678 86.4493Z" fill="black"/>
<path d="M43.6162 90.6087L58.998 89.1084C59.7183 89.071 59.7756 90.0874 59.1005 90.1544C58.8042 90.1833 43.9072 91.6332 43.6675 91.6567C43.4009 91.6567 43.1712 91.4536 43.1445 91.1829C43.1158 90.8937 43.327 90.6374 43.6162 90.6087Z" fill="black"/>
<path d="M103.692 97.4673C103.311 97.5026 94.7567 98.2983 93.5093 98.4142L93.6795 98.1169C95.5597 97.9159 97.3856 97.2289 98.9319 96.1406C98.4437 95.9577 97.9097 95.8982 97.3933 95.9694C97.8717 95.4401 98.35 94.911 98.8284 94.3817C98.4935 94.4547 98.1584 94.5275 97.8235 94.6003C97.7404 93.5797 97.3689 92.604 96.8008 91.752C98.4408 92.7677 99.4604 93.3991 103.289 95.7704C103.712 96.0326 104.342 96.2803 104.386 96.8525C104.402 97.0551 104.334 97.3566 104.131 97.4264C104.005 97.4697 103.825 97.4549 103.692 97.4673Z" fill="black"/>
<path d="M62.5129 95.5767C78.7885 93.802 78.0535 93.7003 78.3811 93.9376L84.2942 98.4229C84.7046 98.7197 84.5323 99.3661 84.0288 99.4193C67.5973 101.101 68.3145 101.219 67.9825 100.964L62.2323 96.5645C61.8347 96.2604 62.0148 95.6265 62.5129 95.5767ZM83.1229 98.7746C83.2006 98.6786 83.2252 98.5423 83.1857 98.4252C83.1181 98.2242 83.292 98.4219 79.1441 95.2147C79.2285 95.627 79.1855 96.0645 78.9927 96.4387C79.1792 96.4501 79.3657 96.4615 79.5522 96.4729C79.1483 96.7778 78.7444 97.0827 78.3406 97.3876C78.6163 97.4079 78.892 97.4281 79.1678 97.4482C78.8117 97.8315 78.3183 98.0521 77.8369 98.2567C76.506 98.8222 75.1916 99.3412 73.8248 99.8137C83.1612 98.8836 82.9526 98.9848 83.1229 98.7746ZM65.5422 97.1616C65.5578 97.0232 65.1586 96.9785 65.1433 97.117C65.1368 97.1748 65.5269 97.3001 65.5422 97.1616ZM65.288 96.2747C65.3092 96.0834 64.7908 96.0255 64.7693 96.2168C64.7604 96.2966 65.2665 96.466 65.288 96.2747ZM64.3723 96.6975C64.3861 96.5724 63.9974 96.5285 63.9833 96.654C63.9774 96.7063 64.3582 96.823 64.3723 96.6975Z" fill="black"/>
<path d="M81.1419 87.9521C81.2419 87.3226 81.0802 86.6739 80.7431 86.1328L84.6543 89.1383L79.0433 89.63C80.0739 89.2256 80.9732 88.7317 81.8293 88.0296C81.6001 88.0039 81.3709 87.978 81.1419 87.9521Z" fill="black"/>
<path d="M51.79 48.0861L73.0066 47.1458C73.263 47.1366 73.5419 47.3581 73.5542 47.6472C73.5665 47.9374 73.343 48.1825 73.0517 48.1948C68.6598 48.3893 51.6004 49.1352 51.8126 49.1352C51.5337 49.1352 51.2999 48.9147 51.2876 48.6337C51.2753 48.3435 51.4988 48.0984 51.79 48.0861Z" fill="black"/>
<path d="M73.725 54.1004C58.7871 54.9347 63.5501 54.6681 62.5886 54.7218C61.912 54.7218 61.8846 53.7111 62.5599 53.6728L73.6676 53.0524C74.3601 52.9903 74.4231 54.0608 73.725 54.1004Z" fill="black"/>
<path d="M69.5809 59.7076C72.3256 59.3382 75.2487 57.9487 77.5298 56.3777C76.8601 56.4705 76.1904 56.5633 75.5207 56.6561C76.445 55.7317 77.3693 54.8071 78.2936 53.8827C77.766 54.0128 77.2384 54.1429 76.7107 54.273C77.8041 52.739 78.6045 50.9058 79.0872 49.085C79.5313 58.7012 79.4815 57.6198 79.4911 57.8369C79.5162 58.401 79.1041 59.1058 78.499 59.1796C78.3675 59.1957 79.4139 59.1002 69.5809 59.7076Z" fill="black"/>
<path d="M73.572 39.4427L50.4406 39.5518C50.0836 39.5758 49.7731 39.3101 49.7416 38.9537L48.1568 17.1684C48.1216 16.7712 48.4454 16.4344 48.8438 16.4539L72.5298 17.1353C72.8677 17.1519 73.1378 17.422 73.1544 17.7598L74.1847 38.7545C74.2023 39.1127 73.9298 39.4188 73.572 39.4427ZM48.9319 19.4267C48.9319 19.9093 49.4111 19.9097 49.4111 19.4267C49.4111 19.2253 48.9319 18.944 48.9319 19.4267ZM60.4428 36.4279C60.8713 37.2679 61.9074 37.6668 62.757 37.3186C63.6066 36.9705 63.9479 36.0073 63.5194 35.1672C63.0909 34.3271 62.0548 33.9284 61.2052 34.2765C60.3556 34.6247 60.0143 35.5878 60.4428 36.4279ZM50.1197 18.1243C50.1197 18.8687 50.7867 18.8691 50.7867 18.1243C50.7867 17.3792 50.1197 17.38 50.1197 18.1243ZM50.349 20.2082C50.349 20.9802 51.0575 20.9807 51.0575 20.2082C51.0575 19.4364 50.349 19.4357 50.349 20.2082ZM60.9707 19.5343C58.8637 19.4688 57.368 21.2678 57.878 23.2539L59.9092 31.163C60.1252 32.004 60.9494 32.6081 61.8367 32.5757C62.6568 32.5458 63.3059 31.9785 63.4052 31.2046L64.416 23.332C64.6634 21.406 63.0234 19.5981 60.9707 19.5343ZM72.9489 37.0384C72.8661 35.5137 72.7835 33.9891 72.7007 32.4644C72.0473 33.3237 71.49 34.1945 70.8366 35.0538C71.2266 34.9782 71.6166 34.9024 72.0067 34.8268C71.3328 35.3902 70.659 35.9535 69.9851 36.5167C70.5361 36.4616 71.0869 36.4064 71.6378 36.3513C70.2553 37.3171 68.4224 37.9585 66.7886 38.3766C66.9762 38.3286 67.2394 38.3766 67.4313 38.3766C68.4028 38.3766 70.862 38.3766 71.7829 38.3766C72.2532 38.3766 72.9187 38.3649 72.9868 37.7368C73.0107 37.5154 72.961 37.2608 72.9489 37.0384Z" fill="black"/>
<path d="M31.8242 24.7842C31.1489 24.7842 30.6014 23.8903 30.6014 22.7877C30.6014 21.685 31.1489 20.791 31.8242 20.791C32.4994 20.791 33.0469 21.685 33.0469 22.7877C33.0469 23.8903 32.4994 24.7842 31.8242 24.7842Z" fill="black"/>
<path d="M29.3525 28.0032C29.1514 28.0032 28.9883 27.567 28.9883 27.029C28.9883 26.4909 29.1514 26.0547 29.3525 26.0547C29.5536 26.0547 29.7168 26.4909 29.7168 27.029C29.7168 27.567 29.5536 28.0032 29.3525 28.0032Z" fill="black"/>
<path d="M34.8504 28.0032C34.6016 28.0032 34.3999 27.567 34.3999 27.029C34.3999 26.4909 34.6016 26.0547 34.8504 26.0547C35.0992 26.0547 35.3008 26.4909 35.3008 27.029C35.3008 27.567 35.0992 28.0032 34.8504 28.0032Z" fill="black"/>
<path d="M108.602 23.0493C105.155 24.6671 101.814 25.6333 98.4441 26.6953C95.0509 27.6599 91.6216 28.6889 87.8033 28.8553C93.1128 24.3746 101.728 21.5401 108.602 23.0493Z" fill="black"/>
<path d="M95.8961 33.6167C98.1001 34.4482 100.223 35.4518 102.33 36.6201C98.4495 36.7772 95.6607 35.8595 93.5021 35.7852C91.505 35.4766 89.7888 34.4865 88.9178 32.6449C92.1799 31.5608 94.3528 33.0992 95.8961 33.6167Z" fill="black"/>
<path d="M89.6855 23.239C88.2851 24.543 86.5933 25.0808 84.8186 24.5498C85.7875 21.4523 88.0945 20.9182 89.3578 20.1215C91.1957 19.0686 93.1125 18.1806 95.1562 17.4219C93.1449 20.3006 90.8682 21.8141 89.6855 23.239Z" fill="black"/>
</svg>
