<svg width="474" height="75" viewBox="0 0 474 75" fill="none" xmlns="http://www.w3.org/2000/svg">
<path d="M65.6391 30H62.7329V14.4358H65.6391V30ZM68.5359 30V18.9565H70.1612C70.5056 18.9565 70.7317 19.118 70.8393 19.4409L71.0115 20.2589C71.2053 20.0436 71.4062 19.8463 71.6143 19.6669C71.8296 19.4875 72.0556 19.3332 72.2924 19.2041C72.5364 19.0749 72.7947 18.9744 73.0674 18.9027C73.3472 18.8238 73.6522 18.7843 73.9823 18.7843C74.6783 18.7843 75.2488 18.9744 75.6937 19.3548C76.1458 19.7279 76.483 20.2266 76.7055 20.8509C76.8777 20.4849 77.093 20.1728 77.3513 19.9145C77.6096 19.649 77.8931 19.4337 78.2016 19.2687C78.5102 19.1036 78.8367 18.9816 79.1811 18.9027C79.5327 18.8238 79.8844 18.7843 80.236 18.7843C80.8459 18.7843 81.3877 18.8776 81.8613 19.0641C82.3349 19.2507 82.7331 19.5234 83.056 19.8822C83.3789 20.241 83.6229 20.6787 83.788 21.1953C83.9602 21.712 84.0463 22.304 84.0463 22.9713V30H81.3877V22.9713C81.3877 22.2681 81.2334 21.7407 80.9248 21.3891C80.6163 21.0303 80.1642 20.8509 79.5686 20.8509C79.2959 20.8509 79.0412 20.8976 78.8044 20.9908C78.5748 21.0841 78.3703 21.2205 78.1909 21.3999C78.0187 21.5721 77.8823 21.7909 77.7819 22.0564C77.6814 22.3219 77.6312 22.6269 77.6312 22.9713V30H74.9618V22.9713C74.9618 22.2322 74.8111 21.6941 74.5097 21.3568C74.2155 21.0195 73.7814 20.8509 73.2073 20.8509C72.8198 20.8509 72.4574 20.9478 72.1202 21.1415C71.7901 21.3281 71.4815 21.5864 71.1945 21.9165V30H68.5359ZM89.232 27.1369C89.5334 27.5028 89.8599 27.7612 90.2115 27.9119C90.5703 28.0625 90.9578 28.1379 91.374 28.1379C91.7758 28.1379 92.1382 28.0625 92.4611 27.9119C92.784 27.7612 93.0567 27.5315 93.2791 27.223C93.5088 26.9144 93.6846 26.5269 93.8066 26.0605C93.9285 25.5869 93.9895 25.0308 93.9895 24.3921C93.9895 23.7463 93.9357 23.201 93.8281 22.7561C93.7276 22.304 93.5805 21.938 93.3868 21.6582C93.193 21.3783 92.9562 21.1738 92.6764 21.0447C92.4037 20.9155 92.0915 20.8509 91.7399 20.8509C91.1874 20.8509 90.7174 20.9693 90.3299 21.2061C89.9424 21.4357 89.5764 21.7622 89.232 22.1856V27.1369ZM89.0921 20.4634C89.5442 19.9539 90.0572 19.5413 90.6313 19.2256C91.2053 18.9099 91.8799 18.752 92.6548 18.752C93.2576 18.752 93.8066 18.8776 94.3017 19.1287C94.804 19.3799 95.2345 19.7458 95.5933 20.2266C95.9593 20.7002 96.2391 21.2886 96.4329 21.9919C96.6338 22.6879 96.7343 23.488 96.7343 24.3921C96.7343 25.2174 96.623 25.9816 96.4006 26.6848C96.1781 27.388 95.8588 27.998 95.4426 28.5146C95.0336 29.0313 94.5349 29.4367 93.9465 29.7309C93.3652 30.0179 92.7123 30.1615 91.9875 30.1615C91.3704 30.1615 90.843 30.0682 90.4052 29.8816C89.9675 29.6879 89.5764 29.4224 89.232 29.0851V33.6058H86.5734V18.9565H88.1987C88.5431 18.9565 88.7692 19.118 88.8768 19.4409L89.0921 20.4634ZM101.317 20.8724C101.661 20.2123 102.07 19.6956 102.544 19.3225C103.017 18.9422 103.577 18.752 104.223 18.752C104.732 18.752 105.141 18.8632 105.45 19.0857L105.278 21.0769C105.242 21.2061 105.188 21.2994 105.116 21.3568C105.052 21.407 104.962 21.4321 104.847 21.4321C104.739 21.4321 104.578 21.4142 104.363 21.3783C104.155 21.3424 103.95 21.3245 103.749 21.3245C103.455 21.3245 103.193 21.3676 102.963 21.4537C102.734 21.5398 102.526 21.6654 102.339 21.8304C102.16 21.9883 101.998 22.182 101.855 22.4116C101.718 22.6413 101.589 22.9032 101.467 23.1974V30H98.8086V18.9565H100.369C100.642 18.9565 100.832 19.0067 100.94 19.1072C101.047 19.2005 101.119 19.3727 101.155 19.6239L101.317 20.8724ZM113.639 23.2081C113.639 22.8637 113.588 22.5408 113.488 22.2394C113.395 21.9309 113.251 21.6618 113.057 21.4321C112.864 21.2025 112.616 21.0231 112.315 20.894C112.021 20.7576 111.676 20.6895 111.281 20.6895C110.514 20.6895 109.907 20.9083 109.462 21.346C109.025 21.7838 108.745 22.4045 108.623 23.2081H113.639ZM108.569 24.8119C108.612 25.3788 108.713 25.8704 108.87 26.2865C109.028 26.6956 109.236 27.0364 109.495 27.3091C109.753 27.5746 110.058 27.7755 110.41 27.9119C110.768 28.041 111.163 28.1056 111.594 28.1056C112.024 28.1056 112.394 28.0554 112.702 27.9549C113.018 27.8544 113.291 27.7432 113.52 27.6212C113.757 27.4992 113.962 27.388 114.134 27.2876C114.313 27.1871 114.485 27.1369 114.651 27.1369C114.873 27.1369 115.038 27.2194 115.146 27.3844L115.91 28.3532C115.616 28.6976 115.286 28.9882 114.92 29.225C114.554 29.4546 114.17 29.6412 113.768 29.7847C113.373 29.9211 112.968 30.0179 112.552 30.0753C112.143 30.1328 111.744 30.1615 111.357 30.1615C110.589 30.1615 109.875 30.0359 109.215 29.7847C108.555 29.5264 107.981 29.1497 107.493 28.6545C107.005 28.1522 106.621 27.5351 106.341 26.8032C106.061 26.0641 105.921 25.2102 105.921 24.2415C105.921 23.488 106.043 22.7812 106.287 22.121C106.531 21.4537 106.879 20.876 107.331 20.3881C107.79 19.8929 108.347 19.5019 109 19.2148C109.66 18.9278 110.402 18.7843 111.228 18.7843C111.924 18.7843 112.566 18.8955 113.154 19.118C113.743 19.3404 114.249 19.6669 114.672 20.0975C115.095 20.5208 115.425 21.0447 115.662 21.6689C115.906 22.2861 116.028 22.9929 116.028 23.7894C116.028 24.1912 115.985 24.4639 115.899 24.6074C115.813 24.7438 115.648 24.8119 115.404 24.8119H108.569ZM124.761 21.1092C124.69 21.224 124.614 21.3066 124.535 21.3568C124.456 21.3999 124.356 21.4214 124.234 21.4214C124.105 21.4214 123.965 21.3855 123.814 21.3137C123.671 21.242 123.502 21.1631 123.308 21.0769C123.115 20.9837 122.892 20.9011 122.641 20.8294C122.397 20.7576 122.106 20.7217 121.769 20.7217C121.245 20.7217 120.833 20.833 120.531 21.0554C120.237 21.2779 120.09 21.5685 120.09 21.9273C120.09 22.1641 120.165 22.365 120.316 22.53C120.474 22.6879 120.678 22.8278 120.93 22.9498C121.188 23.0718 121.479 23.183 121.801 23.2835C122.124 23.3768 122.451 23.4808 122.781 23.5956C123.118 23.7104 123.448 23.8432 123.771 23.9939C124.094 24.1374 124.381 24.324 124.632 24.5536C124.891 24.776 125.095 25.0451 125.246 25.3609C125.404 25.6766 125.483 26.0569 125.483 26.5018C125.483 27.0328 125.386 27.5244 125.192 27.9764C125.005 28.4213 124.726 28.8088 124.352 29.1389C123.979 29.4618 123.516 29.7166 122.964 29.9031C122.419 30.0825 121.787 30.1722 121.07 30.1722C120.689 30.1722 120.316 30.1363 119.95 30.0646C119.591 30 119.243 29.9067 118.906 29.7847C118.576 29.6627 118.267 29.5192 117.98 29.3542C117.7 29.1891 117.453 29.0097 117.238 28.816L117.851 27.8042C117.93 27.6822 118.023 27.5889 118.131 27.5244C118.239 27.4598 118.375 27.4275 118.54 27.4275C118.705 27.4275 118.859 27.4741 119.003 27.5674C119.154 27.6607 119.326 27.7612 119.52 27.8688C119.713 27.9764 119.939 28.0769 120.198 28.1702C120.463 28.2635 120.797 28.3101 121.199 28.3101C121.514 28.3101 121.783 28.2742 122.006 28.2025C122.236 28.1235 122.422 28.0231 122.566 27.9011C122.716 27.7791 122.824 27.6392 122.889 27.4813C122.96 27.3163 122.996 27.1476 122.996 26.9754C122.996 26.7171 122.917 26.5054 122.759 26.3404C122.609 26.1753 122.404 26.0318 122.146 25.9098C121.895 25.7878 121.604 25.6802 121.274 25.5869C120.951 25.4864 120.617 25.3788 120.273 25.264C119.936 25.1492 119.602 25.0164 119.272 24.8657C118.949 24.7079 118.658 24.5105 118.4 24.2737C118.149 24.0369 117.944 23.7463 117.787 23.4019C117.636 23.0575 117.561 22.6413 117.561 22.1533C117.561 21.7012 117.65 21.2707 117.83 20.8617C118.009 20.4527 118.271 20.0975 118.615 19.7961C118.967 19.4875 119.401 19.2435 119.918 19.0641C120.442 18.8776 121.044 18.7843 121.726 18.7843C122.487 18.7843 123.179 18.9099 123.803 19.161C124.428 19.4122 124.948 19.7423 125.364 20.1513L124.761 21.1092ZM134.222 21.1092C134.15 21.224 134.075 21.3066 133.996 21.3568C133.917 21.3999 133.816 21.4214 133.694 21.4214C133.565 21.4214 133.425 21.3855 133.274 21.3137C133.131 21.242 132.962 21.1631 132.769 21.0769C132.575 20.9837 132.352 20.9011 132.101 20.8294C131.857 20.7576 131.567 20.7217 131.229 20.7217C130.706 20.7217 130.293 20.833 129.992 21.0554C129.697 21.2779 129.55 21.5685 129.55 21.9273C129.55 22.1641 129.626 22.365 129.776 22.53C129.934 22.6879 130.139 22.8278 130.39 22.9498C130.648 23.0718 130.939 23.183 131.262 23.2835C131.585 23.3768 131.911 23.4808 132.241 23.5956C132.578 23.7104 132.908 23.8432 133.231 23.9939C133.554 24.1374 133.841 24.324 134.092 24.5536C134.351 24.776 134.555 25.0451 134.706 25.3609C134.864 25.6766 134.943 26.0569 134.943 26.5018C134.943 27.0328 134.846 27.5244 134.652 27.9764C134.466 28.4213 134.186 28.8088 133.813 29.1389C133.439 29.4618 132.977 29.7166 132.424 29.9031C131.879 30.0825 131.247 30.1722 130.53 30.1722C130.149 30.1722 129.776 30.1363 129.41 30.0646C129.052 30 128.703 29.9067 128.366 29.7847C128.036 29.6627 127.728 29.5192 127.441 29.3542C127.161 29.1891 126.913 29.0097 126.698 28.816L127.311 27.8042C127.39 27.6822 127.484 27.5889 127.591 27.5244C127.699 27.4598 127.835 27.4275 128 27.4275C128.165 27.4275 128.32 27.4741 128.463 27.5674C128.614 27.6607 128.786 27.7612 128.98 27.8688C129.174 27.9764 129.4 28.0769 129.658 28.1702C129.923 28.2635 130.257 28.3101 130.659 28.3101C130.975 28.3101 131.244 28.2742 131.466 28.2025C131.696 28.1235 131.882 28.0231 132.026 27.9011C132.177 27.7791 132.284 27.6392 132.349 27.4813C132.421 27.3163 132.456 27.1476 132.456 26.9754C132.456 26.7171 132.377 26.5054 132.22 26.3404C132.069 26.1753 131.864 26.0318 131.606 25.9098C131.355 25.7878 131.064 25.6802 130.734 25.5869C130.411 25.4864 130.078 25.3788 129.733 25.264C129.396 25.1492 129.062 25.0164 128.732 24.8657C128.409 24.7079 128.119 24.5105 127.86 24.2737C127.609 24.0369 127.405 23.7463 127.247 23.4019C127.096 23.0575 127.021 22.6413 127.021 22.1533C127.021 21.7012 127.11 21.2707 127.29 20.8617C127.469 20.4527 127.731 20.0975 128.076 19.7961C128.427 19.4875 128.861 19.2435 129.378 19.0641C129.902 18.8776 130.505 18.7843 131.186 18.7843C131.947 18.7843 132.639 18.9099 133.264 19.161C133.888 19.4122 134.408 19.7423 134.824 20.1513L134.222 21.1092ZM139.699 18.9565V30H137.03V18.9565H139.699ZM140.065 15.7382C140.065 15.9678 140.019 16.1831 139.925 16.384C139.832 16.5849 139.707 16.7607 139.549 16.9114C139.398 17.0621 139.219 17.1841 139.01 17.2774C138.802 17.3635 138.58 17.4065 138.343 17.4065C138.113 17.4065 137.895 17.3635 137.687 17.2774C137.486 17.1841 137.31 17.0621 137.159 16.9114C137.008 16.7607 136.886 16.5849 136.793 16.384C136.707 16.1831 136.664 15.9678 136.664 15.7382C136.664 15.5014 136.707 15.2789 136.793 15.0708C136.886 14.8627 137.008 14.6833 137.159 14.5327C137.31 14.382 137.486 14.2636 137.687 14.1775C137.895 14.0842 138.113 14.0375 138.343 14.0375C138.58 14.0375 138.802 14.0842 139.01 14.1775C139.219 14.2636 139.398 14.382 139.549 14.5327C139.707 14.6833 139.832 14.8627 139.925 15.0708C140.019 15.2789 140.065 15.5014 140.065 15.7382ZM147.296 18.7843C148.114 18.7843 148.857 18.917 149.525 19.1825C150.199 19.448 150.773 19.8248 151.247 20.3127C151.727 20.8007 152.097 21.3963 152.355 22.0995C152.614 22.8027 152.743 23.5885 152.743 24.4567C152.743 25.3322 152.614 26.1215 152.355 26.8247C152.097 27.528 151.727 28.1271 151.247 28.6223C150.773 29.1174 150.199 29.4977 149.525 29.7632C148.857 30.0287 148.114 30.1615 147.296 30.1615C146.471 30.1615 145.721 30.0287 145.047 29.7632C144.372 29.4977 143.795 29.1174 143.314 28.6223C142.84 28.1271 142.471 27.528 142.205 26.8247C141.947 26.1215 141.818 25.3322 141.818 24.4567C141.818 23.5885 141.947 22.8027 142.205 22.0995C142.471 21.3963 142.84 20.8007 143.314 20.3127C143.795 19.8248 144.372 19.448 145.047 19.1825C145.721 18.917 146.471 18.7843 147.296 18.7843ZM147.296 28.1164C148.215 28.1164 148.893 27.8078 149.331 27.1907C149.776 26.5736 149.998 25.6694 149.998 24.4783C149.998 23.2871 149.776 22.3793 149.331 21.7551C148.893 21.1308 148.215 20.8186 147.296 20.8186C146.364 20.8186 145.671 21.1344 145.219 21.7658C144.774 22.3901 144.552 23.2943 144.552 24.4783C144.552 25.6623 144.774 26.5664 145.219 27.1907C145.671 27.8078 146.364 28.1164 147.296 28.1164ZM157.258 20.3127C157.48 20.0903 157.713 19.8858 157.957 19.6992C158.208 19.5055 158.47 19.344 158.743 19.2148C159.023 19.0785 159.321 18.9744 159.636 18.9027C159.952 18.8238 160.296 18.7843 160.67 18.7843C161.272 18.7843 161.807 18.8883 162.273 19.0964C162.74 19.2974 163.127 19.5844 163.436 19.9575C163.752 20.3235 163.988 20.7648 164.146 21.2815C164.311 21.7909 164.394 22.3542 164.394 22.9713V30H161.735V22.9713C161.735 22.2968 161.581 21.7766 161.272 21.4106C160.964 21.0375 160.494 20.8509 159.862 20.8509C159.403 20.8509 158.973 20.955 158.571 21.1631C158.169 21.3712 157.789 21.6546 157.43 22.0134V30H154.771V18.9565H156.396C156.741 18.9565 156.967 19.118 157.075 19.4409L157.258 20.3127Z" fill="#161A41" fill-opacity="0.46"/>
<rect x="1" y="15" width="45" height="15" rx="6.72727" fill="#FFA1D4"/>
<path d="M73.6576 59.3296C73.8154 59.3296 73.9554 59.3906 74.0773 59.5126L75.2183 60.7504C74.5868 61.5326 73.8083 62.1317 72.8826 62.5479C71.9641 62.9641 70.859 63.1722 69.5674 63.1722C68.4121 63.1722 67.3716 62.9749 66.4459 62.5802C65.5274 62.1856 64.7417 61.6366 64.0887 60.9334C63.4357 60.2302 62.9334 59.3906 62.5818 58.4147C62.2373 57.4388 62.0651 56.3732 62.0651 55.2179C62.0651 54.0482 62.2517 52.9791 62.6248 52.0103C62.998 51.0344 63.5218 50.1949 64.1963 49.4916C64.878 48.7884 65.6889 48.2431 66.6289 47.8556C67.5689 47.4609 68.6094 47.2636 69.7504 47.2636C70.8841 47.2636 71.8887 47.4501 72.7642 47.8233C73.6468 48.1964 74.3967 48.6844 75.0138 49.2871L74.0451 50.6326C73.9877 50.7187 73.9123 50.794 73.819 50.8586C73.7329 50.9232 73.6109 50.9555 73.4531 50.9555C73.3454 50.9555 73.2342 50.9268 73.1194 50.8694C73.0046 50.8048 72.879 50.7295 72.7427 50.6433C72.6063 50.5501 72.4485 50.4496 72.2691 50.342C72.0897 50.2343 71.8816 50.1375 71.6448 50.0513C71.408 49.9581 71.1317 49.8827 70.816 49.8253C70.5074 49.7607 70.1486 49.7284 69.7396 49.7284C69.0436 49.7284 68.4049 49.854 67.8237 50.1052C67.2496 50.3491 66.7545 50.7079 66.3383 51.1815C65.9221 51.648 65.5992 52.222 65.3696 52.9037C65.1399 53.5782 65.0251 54.3496 65.0251 55.2179C65.0251 56.0933 65.1471 56.8719 65.3911 57.5536C65.6422 58.2353 65.9795 58.8094 66.4029 59.2758C66.8262 59.7422 67.325 60.101 67.899 60.3521C68.4731 60.5961 69.0902 60.7181 69.7504 60.7181C70.145 60.7181 70.5002 60.6966 70.816 60.6535C71.1389 60.6105 71.4331 60.5423 71.6986 60.449C71.9713 60.3557 72.226 60.2373 72.4628 60.0938C72.7068 59.9431 72.9472 59.7601 73.184 59.5449C73.2557 59.4803 73.3311 59.4301 73.41 59.3942C73.4889 59.3511 73.5715 59.3296 73.6576 59.3296ZM81.4373 51.7843C82.2554 51.7843 82.998 51.917 83.6654 52.1825C84.3399 52.448 84.914 52.8248 85.3876 53.3127C85.8683 53.8007 86.2379 54.3963 86.4962 55.0995C86.7546 55.8027 86.8837 56.5885 86.8837 57.4567C86.8837 58.3322 86.7546 59.1215 86.4962 59.8247C86.2379 60.528 85.8683 61.1271 85.3876 61.6223C84.914 62.1174 84.3399 62.4977 83.6654 62.7632C82.998 63.0287 82.2554 63.1615 81.4373 63.1615C80.6121 63.1615 79.8622 63.0287 79.1877 62.7632C78.5132 62.4977 77.9355 62.1174 77.4548 61.6223C76.9812 61.1271 76.6116 60.528 76.3461 59.8247C76.0878 59.1215 75.9586 58.3322 75.9586 57.4567C75.9586 56.5885 76.0878 55.8027 76.3461 55.0995C76.6116 54.3963 76.9812 53.8007 77.4548 53.3127C77.9355 52.8248 78.5132 52.448 79.1877 52.1825C79.8622 51.917 80.6121 51.7843 81.4373 51.7843ZM81.4373 61.1164C82.3558 61.1164 83.0339 60.8078 83.4716 60.1907C83.9165 59.5736 84.139 58.6694 84.139 57.4783C84.139 56.2871 83.9165 55.3793 83.4716 54.7551C83.0339 54.1308 82.3558 53.8186 81.4373 53.8186C80.5045 53.8186 79.812 54.1344 79.3599 54.7658C78.915 55.3901 78.6926 56.2943 78.6926 57.4783C78.6926 58.6623 78.915 59.5664 79.3599 60.1907C79.812 60.8078 80.5045 61.1164 81.4373 61.1164ZM91.3984 53.3127C91.6208 53.0903 91.8541 52.8858 92.098 52.6992C92.3492 52.5055 92.6111 52.344 92.8838 52.2148C93.1636 52.0785 93.4614 51.9744 93.7772 51.9027C94.0929 51.8238 94.4373 51.7843 94.8105 51.7843C95.4132 51.7843 95.9478 51.8883 96.4142 52.0964C96.8807 52.2974 97.2682 52.5844 97.5767 52.9575C97.8925 53.3235 98.1293 53.7648 98.2871 54.2815C98.4522 54.7909 98.5347 55.3542 98.5347 55.9713V63H95.8761V55.9713C95.8761 55.2968 95.7218 54.7766 95.4132 54.4106C95.1047 54.0375 94.6347 53.8509 94.0032 53.8509C93.5439 53.8509 93.1134 53.955 92.7116 54.1631C92.3097 54.3712 91.9294 54.6546 91.5706 55.0134V63H88.912V51.9565H90.5373C90.8817 51.9565 91.1078 52.118 91.2154 52.4409L91.3984 53.3127ZM110.767 51.9565L106.386 63H103.975L99.5946 51.9565H101.79C101.991 51.9565 102.156 52.0032 102.285 52.0964C102.422 52.1897 102.512 52.3081 102.555 52.4516L104.686 58.3501C104.801 58.6945 104.901 59.0318 104.987 59.3619C105.073 59.692 105.149 60.0221 105.213 60.3521C105.285 60.0221 105.364 59.692 105.45 59.3619C105.536 59.0318 105.64 58.6945 105.762 58.3501L107.936 52.4516C107.987 52.3081 108.076 52.1897 108.205 52.0964C108.335 52.0032 108.489 51.9565 108.668 51.9565H110.767ZM118.963 56.2081C118.963 55.8637 118.912 55.5408 118.812 55.2394C118.719 54.9309 118.575 54.6618 118.381 54.4321C118.188 54.2025 117.94 54.0231 117.639 53.894C117.344 53.7576 117 53.6895 116.605 53.6895C115.838 53.6895 115.231 53.9083 114.786 54.346C114.349 54.7838 114.069 55.4045 113.947 56.2081H118.963ZM113.893 57.8119C113.936 58.3788 114.036 58.8704 114.194 59.2865C114.352 59.6956 114.56 60.0364 114.819 60.3091C115.077 60.5746 115.382 60.7755 115.733 60.9119C116.092 61.041 116.487 61.1056 116.917 61.1056C117.348 61.1056 117.718 61.0554 118.026 60.9549C118.342 60.8544 118.615 60.7432 118.844 60.6212C119.081 60.4992 119.285 60.388 119.458 60.2876C119.637 60.1871 119.809 60.1369 119.974 60.1369C120.197 60.1369 120.362 60.2194 120.469 60.3844L121.234 61.3532C120.939 61.6976 120.609 61.9882 120.243 62.225C119.877 62.4546 119.494 62.6412 119.092 62.7847C118.697 62.9211 118.292 63.0179 117.875 63.0753C117.466 63.1328 117.068 63.1615 116.681 63.1615C115.913 63.1615 115.199 63.0359 114.539 62.7847C113.879 62.5264 113.304 62.1497 112.817 61.6545C112.329 61.1522 111.945 60.5351 111.665 59.8032C111.385 59.0641 111.245 58.2102 111.245 57.2415C111.245 56.488 111.367 55.7812 111.611 55.121C111.855 54.4537 112.203 53.876 112.655 53.3881C113.114 52.8929 113.67 52.5019 114.323 52.2148C114.984 51.9278 115.726 51.7843 116.551 51.7843C117.248 51.7843 117.89 51.8955 118.478 52.118C119.067 52.3404 119.572 52.6669 119.996 53.0975C120.419 53.5208 120.749 54.0447 120.986 54.6689C121.23 55.2861 121.352 55.9929 121.352 56.7894C121.352 57.1912 121.309 57.4639 121.223 57.6074C121.137 57.7438 120.972 57.8119 120.728 57.8119H113.893ZM125.855 53.8724C126.2 53.2123 126.609 52.6956 127.082 52.3225C127.556 51.9422 128.116 51.752 128.761 51.752C129.271 51.752 129.68 51.8632 129.988 52.0857L129.816 54.0769C129.78 54.2061 129.726 54.2994 129.655 54.3568C129.59 54.407 129.5 54.4321 129.386 54.4321C129.278 54.4321 129.117 54.4142 128.901 54.3783C128.693 54.3424 128.489 54.3245 128.288 54.3245C127.994 54.3245 127.732 54.3676 127.502 54.4537C127.272 54.5398 127.064 54.6654 126.878 54.8304C126.698 54.9883 126.537 55.182 126.393 55.4116C126.257 55.6413 126.128 55.9032 126.006 56.1974V63H123.347V51.9565H124.908C125.181 51.9565 125.371 52.0067 125.478 52.1072C125.586 52.2005 125.658 52.3727 125.694 52.6239L125.855 53.8724ZM138.074 54.1092C138.002 54.224 137.927 54.3066 137.848 54.3568C137.769 54.3999 137.668 54.4214 137.546 54.4214C137.417 54.4214 137.277 54.3855 137.127 54.3137C136.983 54.242 136.815 54.1631 136.621 54.0769C136.427 53.9837 136.205 53.9011 135.953 53.8294C135.709 53.7576 135.419 53.7217 135.082 53.7217C134.558 53.7217 134.145 53.833 133.844 54.0554C133.55 54.2779 133.402 54.5685 133.402 54.9273C133.402 55.1641 133.478 55.365 133.629 55.53C133.786 55.6879 133.991 55.8278 134.242 55.9498C134.5 56.0718 134.791 56.183 135.114 56.2835C135.437 56.3768 135.763 56.4808 136.093 56.5956C136.431 56.7104 136.761 56.8432 137.084 56.9939C137.407 57.1374 137.694 57.324 137.945 57.5536C138.203 57.776 138.408 58.0451 138.558 58.3609C138.716 58.6766 138.795 59.0569 138.795 59.5018C138.795 60.0328 138.698 60.5244 138.504 60.9764C138.318 61.4213 138.038 61.8088 137.665 62.1389C137.292 62.4618 136.829 62.7166 136.276 62.9031C135.731 63.0825 135.1 63.1722 134.382 63.1722C134.002 63.1722 133.629 63.1363 133.263 63.0646C132.904 63 132.556 62.9067 132.218 62.7847C131.888 62.6627 131.58 62.5192 131.293 62.3542C131.013 62.1891 130.765 62.0097 130.55 61.816L131.164 60.8042C131.243 60.6822 131.336 60.5889 131.443 60.5244C131.551 60.4598 131.687 60.4275 131.853 60.4275C132.018 60.4275 132.172 60.4741 132.315 60.5674C132.466 60.6607 132.638 60.7612 132.832 60.8688C133.026 60.9764 133.252 61.0769 133.51 61.1702C133.776 61.2635 134.109 61.3101 134.511 61.3101C134.827 61.3101 135.096 61.2742 135.318 61.2025C135.548 61.1235 135.735 61.0231 135.878 60.9011C136.029 60.7791 136.136 60.6392 136.201 60.4813C136.273 60.3163 136.309 60.1476 136.309 59.9754C136.309 59.7171 136.23 59.5054 136.072 59.3404C135.921 59.1753 135.717 59.0318 135.458 58.9098C135.207 58.7878 134.917 58.6802 134.586 58.5869C134.264 58.4864 133.93 58.3788 133.585 58.264C133.248 58.1492 132.915 58.0164 132.584 57.8657C132.262 57.7079 131.971 57.5105 131.713 57.2737C131.461 57.0369 131.257 56.7463 131.099 56.4019C130.948 56.0575 130.873 55.6413 130.873 55.1533C130.873 54.7012 130.963 54.2707 131.142 53.8617C131.322 53.4527 131.583 53.0975 131.928 52.7961C132.279 52.4875 132.714 52.2435 133.23 52.0641C133.754 51.8776 134.357 51.7843 135.039 51.7843C135.799 51.7843 136.492 51.9099 137.116 52.161C137.74 52.4122 138.26 52.7423 138.677 53.1513L138.074 54.1092ZM146.63 58.2855C145.862 58.3214 145.216 58.3896 144.693 58.49C144.169 58.5833 143.749 58.7053 143.433 58.856C143.117 59.0067 142.891 59.1825 142.755 59.3834C142.619 59.5843 142.551 59.8032 142.551 60.04C142.551 60.5064 142.687 60.8401 142.96 61.041C143.239 61.2419 143.602 61.3424 144.047 61.3424C144.592 61.3424 145.062 61.2455 145.457 61.0518C145.859 60.8509 146.25 60.5495 146.63 60.1476V58.2855ZM140.538 53.4957C141.808 52.3332 143.336 51.752 145.123 51.752C145.769 51.752 146.347 51.8596 146.856 52.0749C147.365 52.283 147.796 52.5772 148.148 52.9575C148.499 53.3307 148.765 53.7792 148.944 54.303C149.131 54.8268 149.224 55.4009 149.224 56.0252V63H148.018C147.767 63 147.574 62.9641 147.437 62.8924C147.301 62.8134 147.193 62.6592 147.114 62.4295L146.878 61.633C146.598 61.8842 146.325 62.1066 146.059 62.3004C145.794 62.4869 145.518 62.6448 145.231 62.774C144.944 62.9031 144.635 63 144.305 63.0646C143.982 63.1363 143.623 63.1722 143.229 63.1722C142.762 63.1722 142.332 63.1112 141.937 62.9892C141.542 62.8601 141.202 62.6699 140.914 62.4188C140.627 62.1676 140.405 61.8555 140.247 61.4823C140.089 61.1092 140.01 60.6751 140.01 60.1799C140.01 59.9001 140.057 59.6238 140.15 59.3511C140.244 59.0713 140.394 58.8058 140.602 58.5546C140.818 58.3035 141.094 58.0667 141.431 57.8442C141.768 57.6218 142.181 57.428 142.669 57.263C143.164 57.0979 143.738 56.9652 144.391 56.8647C145.044 56.7571 145.79 56.6925 146.63 56.671V56.0252C146.63 55.2861 146.472 54.7407 146.156 54.3891C145.841 54.0303 145.385 53.8509 144.789 53.8509C144.359 53.8509 144 53.9011 143.713 54.0016C143.433 54.1021 143.186 54.2169 142.97 54.346C142.755 54.468 142.558 54.5792 142.378 54.6797C142.206 54.7802 142.012 54.8304 141.797 54.8304C141.611 54.8304 141.453 54.7838 141.323 54.6905C141.194 54.59 141.09 54.4752 141.011 54.346L140.538 53.4957ZM162.721 63H160.062V53.9478H154.939V59.9324C154.939 60.2768 155.022 60.5459 155.187 60.7396C155.359 60.9334 155.592 61.0303 155.886 61.0303C156.051 61.0303 156.188 61.0123 156.295 60.9764C156.41 60.9334 156.507 60.8903 156.586 60.8473C156.672 60.8042 156.747 60.7648 156.812 60.7289C156.876 60.6858 156.941 60.6643 157.006 60.6643C157.085 60.6643 157.149 60.6858 157.199 60.7289C157.25 60.7648 157.303 60.8222 157.361 60.9011L158.157 62.1927C157.77 62.5156 157.325 62.7596 156.823 62.9247C156.32 63.0897 155.8 63.1722 155.262 63.1722C154.3 63.1722 153.561 62.9031 153.045 62.3649C152.535 61.8196 152.28 61.0697 152.28 60.1153V53.9478H151.15C151.007 53.9478 150.885 53.9011 150.784 53.8079C150.684 53.7146 150.634 53.5746 150.634 53.3881V52.3332L152.41 52.0319L152.969 49.0288C153.005 48.8853 153.073 48.7741 153.174 48.6951C153.274 48.6162 153.403 48.5767 153.561 48.5767H154.939V52.0534H162.721V63ZM163.184 48.6951C163.184 48.9248 163.137 49.1436 163.044 49.3517C162.951 49.5526 162.825 49.7284 162.667 49.8791C162.517 50.0298 162.334 50.1518 162.118 50.2451C161.91 50.3312 161.688 50.3743 161.451 50.3743C161.221 50.3743 161.006 50.3312 160.805 50.2451C160.604 50.1518 160.428 50.0298 160.278 49.8791C160.127 49.7284 160.005 49.5526 159.912 49.3517C159.826 49.1436 159.783 48.9248 159.783 48.6951C159.783 48.4583 159.826 48.2395 159.912 48.0385C160.005 47.8304 160.127 47.6511 160.278 47.5004C160.428 47.3425 160.604 47.2205 160.805 47.1344C161.006 47.0411 161.221 46.9945 161.451 46.9945C161.688 46.9945 161.91 47.0411 162.118 47.1344C162.334 47.2205 162.517 47.3425 162.667 47.5004C162.825 47.6511 162.951 47.8304 163.044 48.0385C163.137 48.2395 163.184 48.4583 163.184 48.6951ZM170.321 51.7843C171.139 51.7843 171.882 51.917 172.549 52.1825C173.224 52.448 173.798 52.8248 174.272 53.3127C174.752 53.8007 175.122 54.3963 175.38 55.0995C175.639 55.8027 175.768 56.5885 175.768 57.4567C175.768 58.3322 175.639 59.1215 175.38 59.8247C175.122 60.528 174.752 61.1271 174.272 61.6223C173.798 62.1174 173.224 62.4977 172.549 62.7632C171.882 63.0287 171.139 63.1615 170.321 63.1615C169.496 63.1615 168.746 63.0287 168.072 62.7632C167.397 62.4977 166.82 62.1174 166.339 61.6223C165.865 61.1271 165.496 60.528 165.23 59.8247C164.972 59.1215 164.843 58.3322 164.843 57.4567C164.843 56.5885 164.972 55.8027 165.23 55.0995C165.496 54.3963 165.865 53.8007 166.339 53.3127C166.82 52.8248 167.397 52.448 168.072 52.1825C168.746 51.917 169.496 51.7843 170.321 51.7843ZM170.321 61.1164C171.24 61.1164 171.918 60.8078 172.356 60.1907C172.801 59.5736 173.023 58.6694 173.023 57.4783C173.023 56.2871 172.801 55.3793 172.356 54.7551C171.918 54.1308 171.24 53.8186 170.321 53.8186C169.389 53.8186 168.696 54.1344 168.244 54.7658C167.799 55.3901 167.577 56.2943 167.577 57.4783C167.577 58.6623 167.799 59.5664 168.244 60.1907C168.696 60.8078 169.389 61.1164 170.321 61.1164ZM180.282 53.3127C180.505 53.0903 180.738 52.8858 180.982 52.6992C181.233 52.5055 181.495 52.344 181.768 52.2148C182.048 52.0785 182.346 51.9744 182.661 51.9027C182.977 51.8238 183.321 51.7843 183.695 51.7843C184.297 51.7843 184.832 51.8883 185.298 52.0964C185.765 52.2974 186.152 52.5844 186.461 52.9575C186.777 53.3235 187.013 53.7648 187.171 54.2815C187.336 54.7909 187.419 55.3542 187.419 55.9713V63H184.76V55.9713C184.76 55.2968 184.606 54.7766 184.297 54.4106C183.989 54.0375 183.519 53.8509 182.887 53.8509C182.428 53.8509 181.997 53.955 181.596 54.1631C181.194 54.3712 180.813 54.6546 180.455 55.0134V63H177.796V51.9565H179.421C179.766 51.9565 179.992 52.118 180.099 52.4409L180.282 53.3127ZM196.685 54.1092C196.613 54.224 196.538 54.3066 196.459 54.3568C196.38 54.3999 196.28 54.4214 196.158 54.4214C196.029 54.4214 195.889 54.3855 195.738 54.3137C195.595 54.242 195.426 54.1631 195.232 54.0769C195.038 53.9837 194.816 53.9011 194.565 53.8294C194.321 53.7576 194.03 53.7217 193.693 53.7217C193.169 53.7217 192.757 53.833 192.455 54.0554C192.161 54.2779 192.014 54.5685 192.014 54.9273C192.014 55.1641 192.089 55.365 192.24 55.53C192.398 55.6879 192.602 55.8278 192.853 55.9498C193.112 56.0718 193.402 56.183 193.725 56.2835C194.048 56.3768 194.375 56.4808 194.705 56.5956C195.042 56.7104 195.372 56.8432 195.695 56.9939C196.018 57.1374 196.305 57.324 196.556 57.5536C196.814 57.776 197.019 58.0451 197.17 58.3609C197.327 58.6766 197.406 59.0569 197.406 59.5018C197.406 60.0328 197.31 60.5244 197.116 60.9764C196.929 61.4213 196.649 61.8088 196.276 62.1389C195.903 62.4618 195.44 62.7166 194.888 62.9031C194.342 63.0825 193.711 63.1722 192.993 63.1722C192.613 63.1722 192.24 63.1363 191.874 63.0646C191.515 63 191.167 62.9067 190.83 62.7847C190.5 62.6627 190.191 62.5192 189.904 62.3542C189.624 62.1891 189.377 62.0097 189.161 61.816L189.775 60.8042C189.854 60.6822 189.947 60.5889 190.055 60.5244C190.162 60.4598 190.299 60.4275 190.464 60.4275C190.629 60.4275 190.783 60.4741 190.927 60.5674C191.077 60.6607 191.25 60.7612 191.443 60.8688C191.637 60.9764 191.863 61.0769 192.121 61.1702C192.387 61.2635 192.721 61.3101 193.122 61.3101C193.438 61.3101 193.707 61.2742 193.93 61.2025C194.159 61.1235 194.346 61.0231 194.489 60.9011C194.64 60.7791 194.748 60.6392 194.812 60.4813C194.884 60.3163 194.92 60.1476 194.92 59.9754C194.92 59.7171 194.841 59.5054 194.683 59.3404C194.533 59.1753 194.328 59.0318 194.07 58.9098C193.819 58.7878 193.528 58.6802 193.198 58.5869C192.875 58.4864 192.541 58.3788 192.197 58.264C191.86 58.1492 191.526 58.0164 191.196 57.8657C190.873 57.7079 190.582 57.5105 190.324 57.2737C190.073 57.0369 189.868 56.7463 189.71 56.4019C189.56 56.0575 189.484 55.6413 189.484 55.1533C189.484 54.7012 189.574 54.2707 189.753 53.8617C189.933 53.4527 190.195 53.0975 190.539 52.7961C190.891 52.4875 191.325 52.2435 191.842 52.0641C192.365 51.8776 192.968 51.7843 193.65 51.7843C194.411 51.7843 195.103 51.9099 195.727 52.161C196.352 52.4122 196.872 52.7423 197.288 53.1513L196.685 54.1092Z" fill="#161A41" fill-opacity="0.46"/>
<rect x="0.690918" y="46" width="45.7455" height="15" rx="6.72727" fill="#E9CCFF"/>
<path d="M336.021 26.2749C336.179 26.2749 336.319 26.3359 336.441 26.4579L337.582 27.6957C336.95 28.4779 336.172 29.077 335.246 29.4932C334.328 29.9094 333.223 30.1175 331.931 30.1175C330.776 30.1175 329.735 29.9202 328.809 29.5255C327.891 29.1309 327.105 28.5819 326.452 27.8787C325.799 27.1755 325.297 26.3359 324.945 25.36C324.601 24.3841 324.429 23.3185 324.429 22.1632C324.429 20.9936 324.615 19.9244 324.988 18.9556C325.362 17.9797 325.885 17.1402 326.56 16.4369C327.242 15.7337 328.052 15.1884 328.992 14.8009C329.932 14.4062 330.973 14.2089 332.114 14.2089C333.248 14.2089 334.252 14.3954 335.128 14.7686C336.01 15.1417 336.76 15.6297 337.377 16.2324L336.409 17.5779C336.351 17.664 336.276 17.7393 336.183 17.8039C336.096 17.8685 335.974 17.9008 335.817 17.9008C335.709 17.9008 335.598 17.8721 335.483 17.8147C335.368 17.7501 335.243 17.6748 335.106 17.5887C334.97 17.4954 334.812 17.3949 334.633 17.2873C334.453 17.1796 334.245 17.0828 334.008 16.9967C333.771 16.9034 333.495 16.828 333.179 16.7706C332.871 16.706 332.512 16.6737 332.103 16.6737C331.407 16.6737 330.768 16.7993 330.187 17.0505C329.613 17.2945 329.118 17.6532 328.702 18.1268C328.286 18.5933 327.963 19.1673 327.733 19.849C327.503 20.5235 327.389 21.2949 327.389 22.1632C327.389 23.0386 327.511 23.8172 327.755 24.4989C328.006 25.1806 328.343 25.7547 328.766 26.2211C329.19 26.6875 329.688 27.0463 330.263 27.2975C330.837 27.5414 331.454 27.6634 332.114 27.6634C332.509 27.6634 332.864 27.6419 333.179 27.5988C333.502 27.5558 333.797 27.4876 334.062 27.3943C334.335 27.301 334.59 27.1826 334.826 27.0391C335.07 26.8884 335.311 26.7055 335.547 26.4902C335.619 26.4256 335.695 26.3754 335.774 26.3395C335.852 26.2964 335.935 26.2749 336.021 26.2749ZM341.836 13.9505V29.9453H339.178V13.9505H341.836ZM347.241 18.9018V29.9453H344.571V18.9018H347.241ZM347.607 15.6835C347.607 15.9131 347.56 16.1284 347.467 16.3293C347.373 16.5302 347.248 16.706 347.09 16.8567C346.939 17.0074 346.76 17.1294 346.552 17.2227C346.344 17.3088 346.121 17.3519 345.884 17.3519C345.655 17.3519 345.436 17.3088 345.228 17.2227C345.027 17.1294 344.851 17.0074 344.7 16.8567C344.55 16.706 344.428 16.5302 344.334 16.3293C344.248 16.1284 344.205 15.9131 344.205 15.6835C344.205 15.4467 344.248 15.2242 344.334 15.0161C344.428 14.8081 344.55 14.6287 344.7 14.478C344.851 14.3273 345.027 14.2089 345.228 14.1228C345.436 14.0295 345.655 13.9828 345.884 13.9828C346.121 13.9828 346.344 14.0295 346.552 14.1228C346.76 14.2089 346.939 14.3273 347.09 14.478C347.248 14.6287 347.373 14.8081 347.467 15.0161C347.56 15.2242 347.607 15.4467 347.607 15.6835ZM357.862 21.2375C357.783 21.338 357.704 21.4169 357.626 21.4743C357.554 21.5317 357.446 21.5604 357.303 21.5604C357.166 21.5604 357.034 21.521 356.904 21.442C356.775 21.3559 356.621 21.2626 356.442 21.1622C356.262 21.0545 356.047 20.9613 355.796 20.8823C355.552 20.7962 355.247 20.7532 354.881 20.7532C354.414 20.7532 354.005 20.8393 353.654 21.0115C353.302 21.1765 353.008 21.4169 352.771 21.7327C352.542 22.0484 352.369 22.4323 352.255 22.8844C352.14 23.3293 352.082 23.8352 352.082 24.402C352.082 24.9905 352.143 25.5143 352.265 25.9735C352.394 26.4328 352.577 26.8203 352.814 27.136C353.051 27.4446 353.338 27.6814 353.675 27.8464C354.013 28.0043 354.393 28.0832 354.816 28.0832C355.24 28.0832 355.58 28.033 355.839 27.9325C356.104 27.8249 356.327 27.7101 356.506 27.5881C356.686 27.4589 356.84 27.3441 356.969 27.2436C357.105 27.136 357.256 27.0822 357.421 27.0822C357.636 27.0822 357.798 27.1647 357.905 27.3297L358.67 28.2985C358.375 28.6429 358.056 28.9335 357.712 29.1703C357.367 29.4 357.008 29.5865 356.635 29.73C356.269 29.8664 355.889 29.9633 355.494 30.0207C355.107 30.0781 354.719 30.1068 354.332 30.1068C353.65 30.1068 353.008 29.9812 352.405 29.73C351.802 29.4717 351.275 29.0986 350.823 28.6106C350.371 28.1227 350.012 27.5271 349.747 26.8239C349.488 26.1135 349.359 25.3062 349.359 24.402C349.359 23.5912 349.474 22.8413 349.704 22.1524C349.94 21.4564 350.285 20.8572 350.737 20.3549C351.189 19.8454 351.749 19.4472 352.416 19.1601C353.083 18.8731 353.851 18.7296 354.719 18.7296C355.545 18.7296 356.266 18.8624 356.883 19.1279C357.507 19.3934 358.067 19.7737 358.562 20.2688L357.862 21.2375ZM362.995 13.9505V23.1104H363.49C363.669 23.1104 363.809 23.0889 363.91 23.0458C364.017 22.9956 364.125 22.8987 364.233 22.7552L366.977 19.3647C367.092 19.214 367.218 19.0992 367.354 19.0202C367.498 18.9413 367.681 18.9018 367.903 18.9018H370.336L366.902 23.0028C366.658 23.3257 366.393 23.5732 366.106 23.7455C366.256 23.8531 366.389 23.9787 366.504 24.1222C366.626 24.2657 366.741 24.42 366.848 24.585L370.529 29.9453H368.129C367.921 29.9453 367.742 29.913 367.591 29.8484C367.44 29.7767 367.315 29.6511 367.214 29.4717L364.394 25.2847C364.294 25.1196 364.19 25.012 364.082 24.9617C363.974 24.9115 363.813 24.8864 363.598 24.8864H362.995V29.9453H360.336V13.9505H362.995ZM378.574 21.0545C378.502 21.1694 378.427 21.2519 378.348 21.3021C378.269 21.3452 378.168 21.3667 378.046 21.3667C377.917 21.3667 377.777 21.3308 377.627 21.2591C377.483 21.1873 377.314 21.1084 377.121 21.0223C376.927 20.929 376.704 20.8465 376.453 20.7747C376.209 20.7029 375.919 20.6671 375.581 20.6671C375.058 20.6671 374.645 20.7783 374.344 21.0007C374.049 21.2232 373.902 21.5138 373.902 21.8726C373.902 22.1094 373.978 22.3103 374.128 22.4753C374.286 22.6332 374.491 22.7731 374.742 22.8951C375 23.0171 375.291 23.1283 375.614 23.2288C375.937 23.3221 376.263 23.4261 376.593 23.5409C376.931 23.6558 377.261 23.7885 377.584 23.9392C377.906 24.0827 378.193 24.2693 378.445 24.4989C378.703 24.7214 378.907 24.9905 379.058 25.3062C379.216 25.6219 379.295 26.0022 379.295 26.4471C379.295 26.9781 379.198 27.4697 379.004 27.9217C378.818 28.3666 378.538 28.7541 378.165 29.0842C377.792 29.4071 377.329 29.6619 376.776 29.8484C376.231 30.0278 375.599 30.1175 374.882 30.1175C374.502 30.1175 374.128 30.0817 373.762 30.0099C373.404 29.9453 373.056 29.852 372.718 29.73C372.388 29.6081 372.08 29.4645 371.793 29.2995C371.513 29.1345 371.265 28.9551 371.05 28.7613L371.664 27.7495C371.742 27.6275 371.836 27.5343 371.943 27.4697C372.051 27.4051 372.187 27.3728 372.352 27.3728C372.517 27.3728 372.672 27.4194 372.815 27.5127C372.966 27.606 373.138 27.7065 373.332 27.8141C373.526 27.9217 373.752 28.0222 374.01 28.1155C374.276 28.2088 374.609 28.2554 375.011 28.2554C375.327 28.2554 375.596 28.2195 375.818 28.1478C376.048 28.0689 376.234 27.9684 376.378 27.8464C376.529 27.7244 376.636 27.5845 376.701 27.4266C376.773 27.2616 376.809 27.0929 376.809 26.9207C376.809 26.6624 376.73 26.4507 376.572 26.2857C376.421 26.1206 376.217 25.9771 375.958 25.8551C375.707 25.7331 375.416 25.6255 375.086 25.5322C374.763 25.4318 374.43 25.3241 374.085 25.2093C373.748 25.0945 373.414 24.9617 373.084 24.8111C372.761 24.6532 372.471 24.4559 372.212 24.2191C371.961 23.9823 371.757 23.6916 371.599 23.3472C371.448 23.0028 371.373 22.5866 371.373 22.0986C371.373 21.6465 371.463 21.216 371.642 20.807C371.821 20.398 372.083 20.0428 372.428 19.7414C372.779 19.4328 373.213 19.1889 373.73 19.0095C374.254 18.8229 374.857 18.7296 375.538 18.7296C376.299 18.7296 376.992 18.8552 377.616 19.1063C378.24 19.3575 378.76 19.6876 379.177 20.0966L378.574 21.0545Z" fill="#161A41" fill-opacity="0.46"/>
<rect x="267.091" y="15" width="45" height="15" rx="6.72727" fill="#6666FF"/>
<path d="M333.621 50.2666C333.535 50.4173 333.441 50.5285 333.341 50.6003C333.248 50.6649 333.129 50.6972 332.986 50.6972C332.835 50.6972 332.67 50.6433 332.491 50.5357C332.318 50.4209 332.11 50.2953 331.866 50.159C331.622 50.0226 331.335 49.9007 331.005 49.793C330.682 49.6782 330.298 49.6208 329.854 49.6208C329.452 49.6208 329.1 49.671 328.799 49.7715C328.497 49.8648 328.243 49.9975 328.034 50.1697C327.834 50.342 327.683 50.5501 327.582 50.794C327.482 51.0308 327.432 51.2928 327.432 51.5798C327.432 51.9457 327.532 52.2507 327.733 52.4947C327.941 52.7387 328.214 52.9468 328.551 53.119C328.888 53.2912 329.272 53.4455 329.703 53.5818C330.133 53.7182 330.575 53.8653 331.027 54.0231C331.479 54.1738 331.92 54.3532 332.351 54.5613C332.781 54.7622 333.165 55.0206 333.502 55.3363C333.84 55.6448 334.109 56.0252 334.31 56.4772C334.518 56.9293 334.622 57.4783 334.622 58.1241C334.622 58.8273 334.5 59.4875 334.256 60.1046C334.019 60.7145 333.667 61.2491 333.201 61.7084C332.742 62.1604 332.178 62.5192 331.511 62.7847C330.844 63.0431 330.08 63.1722 329.218 63.1722C328.723 63.1722 328.235 63.122 327.755 63.0215C327.274 62.9282 326.811 62.7919 326.366 62.6125C325.928 62.4331 325.516 62.2178 325.128 61.9667C324.741 61.7155 324.396 61.4357 324.095 61.1271L324.945 59.7386C325.017 59.6382 325.11 59.5556 325.225 59.4911C325.34 59.4193 325.462 59.3834 325.591 59.3834C325.771 59.3834 325.964 59.4588 326.172 59.6095C326.38 59.753 326.628 59.9144 326.915 60.0938C327.202 60.2732 327.536 60.4383 327.916 60.5889C328.304 60.7325 328.766 60.8042 329.305 60.8042C330.13 60.8042 330.768 60.6105 331.221 60.223C331.673 59.8283 331.899 59.265 331.899 58.5331C331.899 58.1241 331.795 57.7904 331.586 57.5321C331.386 57.2737 331.116 57.0585 330.779 56.8863C330.442 56.7069 330.058 56.5562 329.627 56.4342C329.197 56.3122 328.759 56.1794 328.314 56.0359C327.869 55.8924 327.432 55.7202 327.001 55.5193C326.571 55.3184 326.187 55.0564 325.849 54.7335C325.512 54.4106 325.24 54.0088 325.031 53.528C324.83 53.04 324.73 52.4409 324.73 51.7305C324.73 51.1636 324.841 50.6111 325.064 50.0729C325.293 49.5347 325.623 49.0575 326.054 48.6413C326.485 48.2251 327.016 47.8914 327.647 47.6403C328.278 47.3891 329.003 47.2636 329.821 47.2636C330.74 47.2636 331.586 47.4071 332.361 47.6941C333.136 47.9811 333.797 48.383 334.342 48.8996L333.621 50.2666ZM339.176 60.1369C339.478 60.5028 339.804 60.7612 340.156 60.9119C340.514 61.0625 340.902 61.1379 341.318 61.1379C341.72 61.1379 342.082 61.0625 342.405 60.9119C342.728 60.7612 343.001 60.5315 343.223 60.223C343.453 59.9144 343.629 59.5269 343.751 59.0605C343.873 58.5869 343.934 58.0308 343.934 57.3921C343.934 56.7463 343.88 56.201 343.772 55.7561C343.672 55.304 343.525 54.938 343.331 54.6582C343.137 54.3783 342.9 54.1738 342.621 54.0447C342.348 53.9155 342.036 53.8509 341.684 53.8509C341.132 53.8509 340.662 53.9693 340.274 54.2061C339.887 54.4357 339.521 54.7622 339.176 55.1856V60.1369ZM339.036 53.4634C339.488 52.9539 340.001 52.5413 340.575 52.2256C341.15 51.9099 341.824 51.752 342.599 51.752C343.202 51.752 343.751 51.8776 344.246 52.1287C344.748 52.3799 345.179 52.7458 345.537 53.2266C345.903 53.7002 346.183 54.2886 346.377 54.9919C346.578 55.6879 346.678 56.488 346.678 57.3921C346.678 58.2174 346.567 58.9816 346.345 59.6848C346.122 60.388 345.803 60.998 345.387 61.5146C344.978 62.0313 344.479 62.4367 343.891 62.7309C343.309 63.0179 342.656 63.1615 341.932 63.1615C341.315 63.1615 340.787 63.0682 340.349 62.8816C339.912 62.6879 339.521 62.4224 339.176 62.0851V66.6058H336.518V51.9565H338.143C338.487 51.9565 338.713 52.118 338.821 52.4409L339.036 53.4634ZM355.868 56.2081C355.868 55.8637 355.817 55.5408 355.717 55.2394C355.624 54.9309 355.48 54.6618 355.286 54.4321C355.093 54.2025 354.845 54.0231 354.544 53.894C354.249 53.7576 353.905 53.6895 353.51 53.6895C352.743 53.6895 352.136 53.9083 351.691 54.346C351.254 54.7838 350.974 55.4045 350.852 56.2081H355.868ZM350.798 57.8119C350.841 58.3788 350.941 58.8704 351.099 59.2865C351.257 59.6956 351.465 60.0364 351.724 60.3091C351.982 60.5746 352.287 60.7755 352.638 60.9119C352.997 61.041 353.392 61.1056 353.822 61.1056C354.253 61.1056 354.623 61.0554 354.931 60.9549C355.247 60.8544 355.52 60.7432 355.749 60.6212C355.986 60.4992 356.19 60.388 356.363 60.2876C356.542 60.1871 356.714 60.1369 356.879 60.1369C357.102 60.1369 357.267 60.2194 357.374 60.3844L358.139 61.3532C357.844 61.6976 357.514 61.9882 357.148 62.225C356.782 62.4546 356.399 62.6412 355.997 62.7847C355.602 62.9211 355.197 63.0179 354.78 63.0753C354.371 63.1328 353.973 63.1615 353.586 63.1615C352.818 63.1615 352.104 63.0359 351.444 62.7847C350.784 62.5264 350.209 62.1497 349.722 61.6545C349.234 61.1522 348.85 60.5351 348.57 59.8032C348.29 59.0641 348.15 58.2102 348.15 57.2415C348.15 56.488 348.272 55.7812 348.516 55.121C348.76 54.4537 349.108 53.876 349.56 53.3881C350.019 52.8929 350.575 52.5019 351.228 52.2148C351.889 51.9278 352.631 51.7843 353.456 51.7843C354.153 51.7843 354.795 51.8955 355.383 52.118C355.972 52.3404 356.477 52.6669 356.901 53.0975C357.324 53.5208 357.654 54.0447 357.891 54.6689C358.135 55.2861 358.257 55.9929 358.257 56.7894C358.257 57.1912 358.214 57.4639 358.128 57.6074C358.042 57.7438 357.877 57.8119 357.633 57.8119H350.798ZM367.367 56.2081C367.367 55.8637 367.317 55.5408 367.216 55.2394C367.123 54.9309 366.979 54.6618 366.786 54.4321C366.592 54.2025 366.344 54.0231 366.043 53.894C365.749 53.7576 365.404 53.6895 365.01 53.6895C364.242 53.6895 363.636 53.9083 363.191 54.346C362.753 54.7838 362.473 55.4045 362.351 56.2081H367.367ZM362.297 57.8119C362.34 58.3788 362.441 58.8704 362.599 59.2865C362.757 59.6956 362.965 60.0364 363.223 60.3091C363.481 60.5746 363.786 60.7755 364.138 60.9119C364.497 61.041 364.891 61.1056 365.322 61.1056C365.752 61.1056 366.122 61.0554 366.431 60.9549C366.746 60.8544 367.019 60.7432 367.249 60.6212C367.485 60.4992 367.69 60.388 367.862 60.2876C368.042 60.1871 368.214 60.1369 368.379 60.1369C368.601 60.1369 368.766 60.2194 368.874 60.3844L369.638 61.3532C369.344 61.6976 369.014 61.9882 368.648 62.225C368.282 62.4546 367.898 62.6412 367.496 62.7847C367.101 62.9211 366.696 63.0179 366.28 63.0753C365.871 63.1328 365.473 63.1615 365.085 63.1615C364.317 63.1615 363.603 63.0359 362.943 62.7847C362.283 62.5264 361.709 62.1497 361.221 61.6545C360.733 61.1522 360.349 60.5351 360.069 59.8032C359.789 59.0641 359.649 58.2102 359.649 57.2415C359.649 56.488 359.771 55.7812 360.015 55.121C360.259 54.4537 360.607 53.876 361.059 53.3881C361.519 52.8929 362.075 52.5019 362.728 52.2148C363.388 51.9278 364.131 51.7843 364.956 51.7843C365.652 51.7843 366.294 51.8955 366.883 52.118C367.471 52.3404 367.977 52.6669 368.4 53.0975C368.824 53.5208 369.154 54.0447 369.391 54.6689C369.635 55.2861 369.757 55.9929 369.757 56.7894C369.757 57.1912 369.713 57.4639 369.627 57.6074C369.541 57.7438 369.376 57.8119 369.132 57.8119H362.297ZM378.683 54.7766C378.382 54.4106 378.052 54.1523 377.693 54.0016C377.342 53.8509 376.961 53.7756 376.552 53.7756C376.15 53.7756 375.788 53.8509 375.465 54.0016C375.142 54.1523 374.866 54.3819 374.636 54.6905C374.407 54.9919 374.231 55.3793 374.109 55.8529C373.987 56.3194 373.926 56.8719 373.926 57.5105C373.926 58.1564 373.976 58.7053 374.077 59.1574C374.184 59.6023 374.335 59.9682 374.529 60.2553C374.722 60.5351 374.959 60.7396 375.239 60.8688C375.519 60.9908 375.831 61.0518 376.176 61.0518C376.728 61.0518 377.198 60.937 377.586 60.7073C377.973 60.4777 378.339 60.1512 378.683 59.7279V54.7766ZM381.342 47.0052V63H379.717C379.365 63 379.143 62.8385 379.049 62.5156L378.823 61.45C378.378 61.9595 377.865 62.3721 377.284 62.6879C376.71 63.0036 376.039 63.1615 375.271 63.1615C374.669 63.1615 374.116 63.0359 373.614 62.7847C373.111 62.5336 372.677 62.1712 372.311 61.6976C371.953 61.2168 371.673 60.6248 371.472 59.9216C371.278 59.2184 371.181 58.4147 371.181 57.5105C371.181 56.6925 371.292 55.9319 371.515 55.2287C371.737 54.5254 372.057 53.9155 372.473 53.3988C372.889 52.8822 373.388 52.4803 373.969 52.1933C374.55 51.8991 375.203 51.752 375.928 51.752C376.545 51.752 377.072 51.8489 377.51 52.0426C377.948 52.2364 378.339 52.4983 378.683 52.8284V47.0052H381.342Z" fill="#161A41" fill-opacity="0.46"/>
<rect x="267.091" y="46" width="45.7455" height="15" rx="6.72727" fill="#CC1076"/>
</svg>
