<svg width="429" height="393" viewBox="0 0 429 393" fill="none" xmlns="http://www.w3.org/2000/svg">
<rect x="0.304688" y="0.367188" width="428.694" height="391.647" rx="8.82087" fill="white"/>
<path d="M163.369 43.9786C165.962 43.9786 168.114 45.3194 169.032 47.6834H167.109C166.438 46.2544 165.098 45.4252 163.369 45.4252C160.775 45.4252 158.835 47.2952 158.835 50.259C158.835 53.2052 160.775 55.0752 163.369 55.0752C165.786 55.0752 167.444 53.5228 167.691 51.0882H162.787V49.7827H169.402V51.0176C169.12 54.0697 166.703 56.5219 163.369 56.5219C159.911 56.5219 157.194 53.9462 157.194 50.259C157.194 46.5719 159.911 43.9786 163.369 43.9786ZM176.518 47.948C174.947 47.948 173.642 48.9888 173.465 50.8765H179.57C179.587 48.9888 178.176 47.948 176.518 47.948ZM181.034 53.4346C180.54 55.1987 178.987 56.5748 176.588 56.5748C173.836 56.5748 171.807 54.6342 171.807 51.5645C171.807 48.5125 173.765 46.5896 176.588 46.5896C179.393 46.5896 181.228 48.5654 181.228 51.2117C181.228 51.5645 181.21 51.8468 181.175 52.182H173.448C173.571 54.1402 174.947 55.2164 176.588 55.2164C178.035 55.2164 178.952 54.4754 179.305 53.4346H181.034ZM193.403 51.5645C193.403 54.6342 191.198 56.5748 188.445 56.5748C185.711 56.5748 183.629 54.6342 183.629 51.5645C183.629 48.5125 185.781 46.5896 188.516 46.5896C191.268 46.5896 193.403 48.5125 193.403 51.5645ZM185.27 51.5645C185.27 54.0167 186.769 55.1635 188.445 55.1635C190.121 55.1635 191.762 54.0167 191.762 51.5645C191.762 49.13 190.157 47.9833 188.498 47.9833C186.805 47.9833 185.27 49.13 185.27 51.5645ZM196.396 56.416V43.3611H198.001V56.416H196.396ZM210.793 51.5645C210.793 54.6342 208.588 56.5748 205.836 56.5748C203.101 56.5748 201.019 54.6342 201.019 51.5645C201.019 48.5125 203.172 46.5896 205.906 46.5896C208.658 46.5896 210.793 48.5125 210.793 51.5645ZM202.66 51.5645C202.66 54.0167 204.16 55.1635 205.836 55.1635C207.512 55.1635 209.152 54.0167 209.152 51.5645C209.152 49.13 207.547 47.9833 205.889 47.9833C204.195 47.9833 202.66 49.13 202.66 51.5645ZM213.186 51.5645C213.186 48.5302 215.144 46.5896 217.896 46.5896C220.296 46.5896 221.866 47.8245 222.36 49.8533H220.631C220.296 48.6889 219.325 47.948 217.896 47.948C216.132 47.948 214.827 49.2005 214.827 51.5645C214.827 53.9638 216.132 55.2164 217.896 55.2164C219.325 55.2164 220.278 54.5283 220.631 53.3111H222.36C221.866 55.234 220.296 56.5748 217.896 56.5748C215.144 56.5748 213.186 54.6342 213.186 51.5645ZM224.784 51.5469C224.784 48.5302 226.778 46.5896 229.371 46.5896C231.17 46.5896 232.405 47.5069 232.97 48.5125V46.7483H234.593V56.416H232.97V54.6166C232.388 55.6574 231.135 56.5748 229.353 56.5748C226.778 56.5748 224.784 54.546 224.784 51.5469ZM232.97 51.5645C232.97 49.324 231.453 47.9833 229.688 47.9833C227.924 47.9833 226.425 49.2711 226.425 51.5469C226.425 53.8227 227.924 55.1635 229.688 55.1635C231.453 55.1635 232.97 53.8403 232.97 51.5645ZM238.541 53.7698V48.0715H237.288V46.7483H238.541V44.3138H240.146V46.7483H242.669V48.0715H240.146V53.7698C240.146 54.7224 240.499 55.0576 241.487 55.0576H242.669V56.416H241.222C239.511 56.416 238.541 55.7103 238.541 53.7698ZM245.496 56.416V46.7483H247.102V56.416H245.496ZM246.325 45.1782C245.708 45.1782 245.232 44.7019 245.232 44.0844C245.232 43.467 245.708 42.9906 246.325 42.9906C246.908 42.9906 247.384 43.467 247.384 44.0844C247.384 44.7019 246.908 45.1782 246.325 45.1782ZM259.893 51.5645C259.893 54.6342 257.688 56.5748 254.936 56.5748C252.202 56.5748 250.12 54.6342 250.12 51.5645C250.12 48.5125 252.272 46.5896 255.007 46.5896C257.759 46.5896 259.893 48.5125 259.893 51.5645ZM251.761 51.5645C251.761 54.0167 253.26 55.1635 254.936 55.1635C256.612 55.1635 258.253 54.0167 258.253 51.5645C258.253 49.13 256.647 47.9833 254.989 47.9833C253.295 47.9833 251.761 49.13 251.761 51.5645ZM269.961 56.416V50.9471C269.961 48.9712 268.885 47.9656 267.262 47.9656C265.621 47.9656 264.492 48.9888 264.492 51.0706V56.416H262.886V46.7483H264.492V48.1244C265.127 47.1188 266.291 46.5719 267.597 46.5719C269.837 46.5719 271.548 47.948 271.548 50.7177V56.416H269.961Z" fill="#282636"/>
<path d="M57.5293 238.171L47.265 238.171L47.265 234.703C47.265 233.898 47.4104 233.239 47.701 232.728C47.9884 232.214 48.3776 231.833 48.8688 231.586C49.36 231.338 49.9079 231.215 50.5127 231.215C51.1175 231.215 51.6671 231.338 52.1616 231.586C52.6561 231.829 53.0504 232.207 53.3444 232.718C53.6351 233.229 53.7804 233.884 53.7804 234.683L53.7804 237.169L52.6778 237.169L52.6778 234.723C52.6778 234.172 52.5826 233.729 52.3921 233.395C52.2017 233.061 51.9444 232.818 51.6203 232.668C51.2929 232.514 50.9237 232.438 50.5127 232.438C50.1017 232.438 49.7342 232.514 49.4101 232.668C49.086 232.818 48.832 233.062 48.6483 233.4C48.4612 233.737 48.3676 234.185 48.3676 234.743L48.3676 236.928L57.5293 236.928L57.5293 238.171ZM57.6897 226.228C57.6897 226.97 57.526 227.609 57.1985 228.147C56.8677 228.682 56.4066 229.095 55.8152 229.385C55.2205 229.673 54.5289 229.816 53.7403 229.816C52.9518 229.816 52.2568 229.673 51.6554 229.385C51.0506 229.095 50.5795 228.69 50.2421 228.172C49.9012 227.651 49.7308 227.043 49.7308 226.348C49.7308 225.947 49.7977 225.551 49.9313 225.16C50.065 224.769 50.2821 224.414 50.5829 224.093C50.8802 223.772 51.2745 223.516 51.7657 223.326C52.2568 223.136 52.8616 223.04 53.58 223.04L54.0811 223.04L54.0811 228.974L53.0587 228.974L53.0587 224.243C52.6244 224.243 52.2368 224.33 51.896 224.504C51.5552 224.674 51.2862 224.918 51.0891 225.236C50.8919 225.55 50.7934 225.92 50.7934 226.348C50.7934 226.819 50.9103 227.227 51.1442 227.571C51.3747 227.912 51.6754 228.174 52.0463 228.358C52.4172 228.542 52.8148 228.634 53.2391 228.634L53.9208 228.634C54.5021 228.634 54.995 228.533 55.3993 228.333C55.8002 228.129 56.1059 227.847 56.3164 227.486C56.5236 227.125 56.6272 226.706 56.6272 226.228C56.6272 225.917 56.5837 225.636 56.4969 225.386C56.4066 225.132 56.273 224.913 56.0959 224.729C55.9155 224.546 55.6916 224.404 55.4243 224.303L55.7451 223.161C56.1327 223.281 56.4735 223.483 56.7675 223.767C57.0582 224.051 57.2854 224.402 57.4491 224.82C57.6095 225.237 57.6897 225.707 57.6897 226.228ZM57.5293 221.241L49.8311 221.241L49.8311 220.098L50.9938 220.098L50.9938 220.018C50.6129 219.878 50.3039 219.624 50.0666 219.256C49.8294 218.889 49.7108 218.475 49.7108 218.013C49.7108 217.927 49.7125 217.818 49.7158 217.688C49.7191 217.557 49.7242 217.459 49.7308 217.392L50.9337 217.392C50.9237 217.432 50.9086 217.524 50.8886 217.668C50.8652 217.808 50.8535 217.957 50.8535 218.114C50.8535 218.488 50.932 218.822 51.0891 219.116C51.2428 219.407 51.4566 219.637 51.7306 219.808C52.0012 219.975 52.3103 220.058 52.6578 220.058L57.5293 220.058L57.5293 221.241ZM57.6897 213.097C57.6897 213.818 57.5193 214.44 57.1785 214.961C56.8377 215.482 56.3682 215.883 55.7701 216.164C55.1721 216.445 54.4888 216.585 53.7203 216.585C52.9384 216.585 52.2485 216.441 51.6504 216.154C51.049 215.863 50.5795 215.459 50.2421 214.941C49.9012 214.42 49.7308 213.812 49.7308 213.117C49.7308 212.576 49.8311 212.088 50.0316 211.653C50.232 211.219 50.5127 210.863 50.8735 210.586C51.2344 210.309 51.6554 210.136 52.1365 210.07L52.1365 211.252C51.7857 211.343 51.475 211.543 51.2043 211.854C50.9303 212.161 50.7934 212.576 50.7934 213.097C50.7934 213.558 50.9136 213.962 51.1542 214.31C51.3914 214.654 51.7272 214.923 52.1616 215.117C52.5926 215.307 53.0988 215.402 53.6802 215.402C54.2749 215.402 54.7928 215.309 55.2339 215.122C55.6749 214.931 56.0174 214.664 56.2613 214.32C56.5052 213.972 56.6272 213.565 56.6272 213.097C56.6272 212.789 56.5737 212.51 56.4668 212.26C56.3599 212.009 56.2062 211.797 56.0057 211.623C55.8052 211.45 55.5646 211.326 55.284 211.252L55.284 210.07C55.7384 210.136 56.1477 210.302 56.5119 210.566C56.8727 210.826 57.1601 211.172 57.3739 211.603C57.5844 212.031 57.6897 212.529 57.6897 213.097ZM57.6897 205.113C57.6897 205.855 57.526 206.495 57.1985 207.032C56.8677 207.567 56.4066 207.98 55.8152 208.27C55.2205 208.558 54.5289 208.701 53.7403 208.701C52.9518 208.701 52.2568 208.558 51.6554 208.27C51.0506 207.98 50.5795 207.575 50.2421 207.057C49.9012 206.536 49.7308 205.928 49.7308 205.233C49.7308 204.832 49.7977 204.436 49.9313 204.045C50.065 203.654 50.2821 203.299 50.5829 202.978C50.8802 202.657 51.2745 202.401 51.7657 202.211C52.2568 202.021 52.8616 201.925 53.5799 201.925L54.0811 201.925L54.0811 207.859L53.0587 207.859L53.0587 203.128C52.6244 203.128 52.2368 203.215 51.896 203.389C51.5552 203.559 51.2862 203.803 51.0891 204.121C50.8919 204.435 50.7934 204.806 50.7934 205.233C50.7934 205.704 50.9103 206.112 51.1442 206.456C51.3747 206.797 51.6754 207.059 52.0463 207.243C52.4172 207.427 52.8148 207.519 53.2391 207.519L53.9208 207.519C54.5021 207.519 54.995 207.418 55.3993 207.218C55.8002 207.014 56.1059 206.732 56.3164 206.371C56.5236 206.01 56.6272 205.591 56.6272 205.113C56.6272 204.802 56.5837 204.521 56.4969 204.271C56.4066 204.017 56.273 203.798 56.0959 203.614C55.9155 203.431 55.6916 203.289 55.4243 203.188L55.7451 202.046C56.1327 202.166 56.4735 202.368 56.7675 202.652C57.0582 202.936 57.2854 203.287 57.4491 203.705C57.6095 204.122 57.6897 204.592 57.6897 205.113ZM52.8983 198.943L57.5293 198.943L57.5293 200.126L49.8311 200.126L49.8311 198.983L51.0339 198.983L51.0339 198.883C50.643 198.703 50.3289 198.429 50.0917 198.061C49.8511 197.694 49.7308 197.219 49.7308 196.638C49.7308 196.117 49.8378 195.661 50.0516 195.27C50.2621 194.879 50.5829 194.575 51.0139 194.357C51.4416 194.14 51.9828 194.032 52.6377 194.032L57.5293 194.032L57.5293 195.214L52.7179 195.214C52.1131 195.214 51.642 195.372 51.3046 195.686C50.9638 196 50.7934 196.431 50.7934 196.979C50.7934 197.356 50.8752 197.694 51.0389 197.991C51.2027 198.285 51.4416 198.517 51.7556 198.688C52.0697 198.858 52.4506 198.943 52.8983 198.943ZM49.8311 188.522L50.8335 188.522L50.8335 192.512L49.8311 192.512L49.8311 188.522ZM47.9867 191.349L47.9867 190.166L55.3241 190.166C55.6582 190.166 55.9088 190.118 56.0759 190.021C56.2396 189.921 56.3498 189.794 56.4066 189.64C56.4601 189.483 56.4868 189.318 56.4868 189.144C56.4868 189.014 56.4801 188.907 56.4668 188.823C56.4501 188.74 56.4367 188.673 56.4267 188.623L57.4892 188.382C57.5193 188.462 57.5493 188.574 57.5794 188.718C57.6128 188.862 57.6295 189.044 57.6295 189.264C57.6295 189.598 57.5577 189.926 57.414 190.246C57.2703 190.564 57.0515 190.828 56.7575 191.038C56.4634 191.245 56.0926 191.349 55.6448 191.349L47.9867 191.349ZM57.7097 184.478C57.7097 184.966 57.6178 185.408 57.4341 185.806C57.247 186.204 56.978 186.519 56.6272 186.753C56.273 186.987 55.8453 187.104 55.3441 187.104C54.9031 187.104 54.5456 187.017 54.2716 186.843C53.9943 186.67 53.7771 186.437 53.62 186.147C53.463 185.856 53.3461 185.535 53.2692 185.184C53.189 184.83 53.1255 184.474 53.0788 184.117C53.0186 183.649 52.9735 183.27 52.9434 182.979C52.91 182.685 52.8549 182.471 52.7781 182.338C52.7012 182.201 52.5676 182.132 52.3771 182.132L52.337 182.132C51.8425 182.132 51.4583 182.268 51.1843 182.538C50.9103 182.806 50.7733 183.211 50.7733 183.756C50.7733 184.321 50.8969 184.763 51.1442 185.084C51.3914 185.405 51.6554 185.631 51.9361 185.761L51.5351 186.884C51.0673 186.683 50.7031 186.416 50.4425 186.082C50.1786 185.744 49.9948 185.377 49.8912 184.979C49.7843 184.578 49.7308 184.184 49.7308 183.796C49.7308 183.549 49.7609 183.265 49.8211 182.944C49.8779 182.62 49.9965 182.308 50.1769 182.007C50.3573 181.703 50.6296 181.451 50.9938 181.25C51.358 181.05 51.8458 180.949 52.4573 180.949L57.5293 180.949L57.5293 182.132L56.4868 182.132L56.4868 182.192C56.6539 182.273 56.8326 182.406 57.0231 182.593C57.2135 182.78 57.3756 183.029 57.5092 183.34C57.6429 183.651 57.7097 184.03 57.7097 184.478ZM56.6472 184.297C56.6472 183.83 56.5553 183.435 56.3716 183.115C56.1878 182.79 55.9506 182.547 55.6599 182.383C55.3692 182.216 55.0635 182.132 54.7427 182.132L53.6601 182.132C53.7203 182.182 53.7754 182.293 53.8255 182.463C53.8723 182.63 53.9141 182.824 53.9508 183.044C53.9842 183.262 54.0143 183.474 54.041 183.681C54.0644 183.885 54.0845 184.05 54.1012 184.177C54.1413 184.485 54.2064 184.772 54.2966 185.039C54.3835 185.303 54.5155 185.517 54.6926 185.681C54.8663 185.841 55.1036 185.921 55.4043 185.921C55.8152 185.921 56.126 185.769 56.3365 185.465C56.5436 185.158 56.6472 184.769 56.6472 184.297ZM60.5765 175.683C60.5765 176.255 60.503 176.746 60.356 177.157C60.2123 177.568 60.0219 177.91 59.7846 178.184C59.5507 178.455 59.3002 178.67 59.0329 178.831L58.3713 177.888C58.5116 177.782 58.672 177.646 58.8524 177.483C59.0362 177.319 59.1949 177.095 59.3286 176.811C59.4655 176.524 59.534 176.148 59.534 175.683C59.534 175.062 59.3837 174.549 59.083 174.145C58.7823 173.74 58.3111 173.538 57.6696 173.538L56.1059 173.538L56.1059 173.638C56.2463 173.725 56.42 173.849 56.6272 174.009C56.831 174.166 57.0131 174.394 57.1735 174.691C57.3305 174.985 57.409 175.383 57.409 175.884C57.409 176.505 57.262 177.063 56.968 177.558C56.6739 178.049 56.2463 178.438 55.6849 178.725C55.1236 179.009 54.442 179.151 53.6401 179.151C52.8516 179.151 52.1649 179.013 51.5802 178.735C50.9922 178.458 50.5378 178.072 50.217 177.578C49.8929 177.083 49.7308 176.512 49.7308 175.864C49.7308 175.363 49.8144 174.965 49.9814 174.671C50.1452 174.373 50.3323 174.146 50.5428 173.989C50.7499 173.829 50.9203 173.705 51.054 173.618L51.054 173.498L49.8311 173.498L49.8311 172.355L57.7498 172.355C58.4114 172.355 58.9493 172.506 59.3636 172.806C59.7813 173.104 60.087 173.505 60.2808 174.009C60.4779 174.51 60.5765 175.068 60.5765 175.683ZM56.3465 175.723C56.3465 175.249 56.2379 174.848 56.0207 174.521C55.8035 174.193 55.4911 173.944 55.0835 173.774C54.6759 173.603 54.1881 173.518 53.62 173.518C53.0654 173.518 52.5759 173.602 52.1516 173.769C51.7272 173.936 51.3948 174.183 51.1542 174.51C50.9136 174.838 50.7934 175.242 50.7934 175.723C50.7934 176.225 50.9203 176.642 51.1743 176.976C51.4282 177.307 51.769 177.556 52.1967 177.723C52.6244 177.887 53.0988 177.969 53.62 177.969C54.1546 177.969 54.6274 177.885 55.0384 177.718C55.446 177.548 55.7668 177.297 56.0007 176.966C56.2312 176.632 56.3465 176.218 56.3465 175.723ZM57.6897 166.963C57.6897 167.704 57.526 168.344 57.1985 168.882C56.8677 169.417 56.4066 169.829 55.8152 170.12C55.2205 170.407 54.5289 170.551 53.7403 170.551C52.9518 170.551 52.2568 170.407 51.6554 170.12C51.0506 169.829 50.5795 169.425 50.2421 168.907C49.9012 168.386 49.7308 167.778 49.7308 167.083C49.7308 166.682 49.7977 166.286 49.9313 165.895C50.065 165.504 50.2821 165.148 50.5829 164.828C50.8802 164.507 51.2745 164.251 51.7657 164.061C52.2568 163.87 52.8616 163.775 53.5799 163.775L54.0811 163.775L54.0811 169.709L53.0587 169.709L53.0587 164.978C52.6244 164.978 52.2368 165.065 51.896 165.239C51.5552 165.409 51.2862 165.653 51.0891 165.97C50.8919 166.284 50.7934 166.655 50.7934 167.083C50.7934 167.554 50.9103 167.962 51.1442 168.306C51.3747 168.647 51.6754 168.909 52.0463 169.093C52.4172 169.276 52.8148 169.368 53.2391 169.368L53.9208 169.368C54.5021 169.368 54.995 169.268 55.3993 169.068C55.8002 168.864 56.1059 168.581 56.3164 168.221C56.5236 167.86 56.6272 167.44 56.6272 166.963C56.6272 166.652 56.5837 166.371 56.4969 166.121C56.4066 165.867 56.273 165.648 56.0959 165.464C55.9155 165.28 55.6916 165.138 55.4243 165.038L55.7451 163.895C56.1327 164.016 56.4735 164.218 56.7675 164.502C57.0582 164.786 57.2854 165.137 57.4491 165.554C57.6095 165.972 57.6897 166.441 57.6897 166.963Z" fill="black"/>
<path d="M212.69 346.033H211.447C211.374 345.676 211.245 345.362 211.061 345.091C210.881 344.82 210.66 344.593 210.4 344.409C210.142 344.222 209.857 344.082 209.543 343.988C209.228 343.895 208.901 343.848 208.56 343.848C207.939 343.848 207.376 344.005 206.871 344.319C206.37 344.633 205.971 345.096 205.673 345.707C205.379 346.319 205.232 347.069 205.232 347.958C205.232 348.846 205.379 349.597 205.673 350.208C205.971 350.819 206.37 351.282 206.871 351.596C207.376 351.91 207.939 352.067 208.56 352.067C208.901 352.067 209.228 352.021 209.543 351.927C209.857 351.834 210.142 351.695 210.4 351.511C210.66 351.324 210.881 351.095 211.061 350.824C211.245 350.551 211.374 350.236 211.447 349.882H212.69C212.596 350.407 212.426 350.876 212.179 351.291C211.932 351.705 211.624 352.057 211.257 352.348C210.889 352.635 210.476 352.854 210.019 353.005C209.564 353.155 209.078 353.23 208.56 353.23C207.685 353.23 206.906 353.016 206.225 352.589C205.543 352.161 205.007 351.553 204.616 350.764C204.225 349.976 204.029 349.04 204.029 347.958C204.029 346.875 204.225 345.94 204.616 345.151C205.007 344.363 205.543 343.754 206.225 343.327C206.906 342.899 207.685 342.685 208.56 342.685C209.078 342.685 209.564 342.76 210.019 342.911C210.476 343.061 210.889 343.282 211.257 343.572C211.624 343.86 211.932 344.21 212.179 344.625C212.426 345.036 212.596 345.505 212.69 346.033ZM217.666 353.25C216.971 353.25 216.361 353.085 215.836 352.754C215.315 352.423 214.907 351.961 214.613 351.366C214.323 350.771 214.177 350.076 214.177 349.281C214.177 348.479 214.323 347.779 214.613 347.181C214.907 346.583 215.315 346.118 215.836 345.788C216.361 345.457 216.971 345.291 217.666 345.291C218.36 345.291 218.969 345.457 219.49 345.788C220.014 346.118 220.422 346.583 220.713 347.181C221.007 347.779 221.154 348.479 221.154 349.281C221.154 350.076 221.007 350.771 220.713 351.366C220.422 351.961 220.014 352.423 219.49 352.754C218.969 353.085 218.36 353.25 217.666 353.25ZM217.666 352.188C218.193 352.188 218.628 352.052 218.969 351.782C219.309 351.511 219.562 351.155 219.725 350.714C219.889 350.273 219.971 349.795 219.971 349.281C219.971 348.766 219.889 348.287 219.725 347.842C219.562 347.398 219.309 347.039 218.969 346.765C218.628 346.491 218.193 346.354 217.666 346.354C217.138 346.354 216.703 346.491 216.362 346.765C216.022 347.039 215.769 347.398 215.606 347.842C215.442 348.287 215.36 348.766 215.36 349.281C215.36 349.795 215.442 350.273 215.606 350.714C215.769 351.155 216.022 351.511 216.362 351.782C216.703 352.052 217.138 352.188 217.666 352.188ZM227.811 349.942V345.392H228.994V353.09H227.811V351.787H227.731C227.55 352.178 227.269 352.51 226.889 352.784C226.508 353.055 226.027 353.19 225.445 353.19C224.964 353.19 224.536 353.085 224.162 352.874C223.788 352.66 223.494 352.34 223.28 351.912C223.066 351.481 222.959 350.938 222.959 350.283V345.392H224.142V350.203C224.142 350.764 224.299 351.212 224.613 351.546C224.931 351.88 225.335 352.047 225.826 352.047C226.12 352.047 226.419 351.972 226.723 351.822C227.031 351.671 227.288 351.441 227.495 351.13C227.706 350.819 227.811 350.424 227.811 349.942ZM232.343 348.459V353.09H231.16V345.392H232.303V346.594H232.403C232.583 346.204 232.857 345.889 233.225 345.652C233.592 345.412 234.067 345.291 234.648 345.291C235.169 345.291 235.626 345.398 236.016 345.612C236.407 345.823 236.711 346.143 236.929 346.574C237.146 347.002 237.254 347.543 237.254 348.198V353.09H236.072V348.278C236.072 347.674 235.915 347.203 235.6 346.865C235.286 346.524 234.855 346.354 234.307 346.354C233.93 346.354 233.592 346.436 233.295 346.599C233.001 346.763 232.769 347.002 232.598 347.316C232.428 347.63 232.343 348.011 232.343 348.459ZM242.764 345.392V346.394H238.774V345.392H242.764ZM239.937 343.547H241.12V350.885C241.12 351.219 241.168 351.469 241.265 351.636C241.365 351.8 241.492 351.91 241.646 351.967C241.803 352.021 241.968 352.047 242.142 352.047C242.272 352.047 242.379 352.041 242.463 352.027C242.546 352.011 242.613 351.997 242.663 351.987L242.904 353.05C242.824 353.08 242.712 353.11 242.568 353.14C242.425 353.173 242.242 353.19 242.022 353.19C241.688 353.19 241.36 353.118 241.04 352.975C240.722 352.831 240.458 352.612 240.248 352.318C240.041 352.024 239.937 351.653 239.937 351.205V343.547ZM244.543 353.09V345.392H245.686V346.554H245.766C245.906 346.173 246.16 345.864 246.528 345.627C246.895 345.39 247.309 345.271 247.77 345.271C247.857 345.271 247.966 345.273 248.096 345.276C248.227 345.28 248.325 345.285 248.392 345.291V346.494C248.352 346.484 248.26 346.469 248.116 346.449C247.976 346.426 247.827 346.414 247.67 346.414C247.296 346.414 246.962 346.493 246.668 346.65C246.377 346.803 246.147 347.017 245.976 347.291C245.809 347.562 245.726 347.871 245.726 348.218V353.09H244.543ZM250.79 355.977C250.59 355.977 250.411 355.96 250.254 355.927C250.097 355.896 249.988 355.866 249.928 355.836L250.229 354.794C250.516 354.867 250.77 354.894 250.991 354.874C251.211 354.854 251.407 354.755 251.577 354.578C251.751 354.405 251.909 354.122 252.053 353.731L252.274 353.13L249.427 345.392H250.71L252.835 351.526H252.915L255.04 345.392H256.323L253.055 354.213C252.908 354.61 252.726 354.939 252.509 355.2C252.292 355.464 252.04 355.659 251.752 355.786C251.468 355.913 251.148 355.977 250.79 355.977Z" fill="black"/>
<path d="M70.4346 128.205V127.137L73.1128 122.918H74.0337V124.396H73.4887L71.8003 127.068V127.118H75.6062V128.205H70.4346ZM73.5138 129.333V127.88L73.5388 127.407V122.918H74.8106V129.333H73.5138ZM79.0252 129.474C78.4865 129.472 78.0229 129.339 77.6344 129.076C77.2481 128.813 76.9505 128.432 76.7417 127.933C76.535 127.434 76.4326 126.833 76.4347 126.132C76.4347 125.432 76.5381 124.836 76.7448 124.343C76.9537 123.85 77.2512 123.475 77.6376 123.219C78.026 122.96 78.4885 122.83 79.0252 122.83C79.5619 122.83 80.0234 122.96 80.4098 123.219C80.7982 123.477 81.0968 123.853 81.3056 124.346C81.5145 124.837 81.6178 125.432 81.6157 126.132C81.6157 126.835 81.5113 127.437 81.3025 127.936C81.0958 128.435 80.7992 128.816 80.4129 129.079C80.0266 129.342 79.564 129.474 79.0252 129.474ZM79.0252 128.349C79.3928 128.349 79.6862 128.165 79.9054 127.795C80.1247 127.425 80.2333 126.871 80.2312 126.132C80.2312 125.645 80.1811 125.24 80.0809 124.916C79.9827 124.593 79.8428 124.349 79.6611 124.186C79.4815 124.024 79.2696 123.942 79.0252 123.942C78.6598 123.942 78.3674 124.125 78.1482 124.49C77.9289 124.856 77.8182 125.403 77.8161 126.132C77.8161 126.625 77.8652 127.036 77.9633 127.366C78.0636 127.694 78.2045 127.94 78.3862 128.105C78.5679 128.268 78.7809 128.349 79.0252 128.349Z" fill="#767676"/>
<path d="M73.9029 166.884C73.4352 166.884 73.0186 166.803 72.6531 166.642C72.2897 166.48 72.0026 166.256 71.7917 165.972C71.5829 165.686 71.4753 165.356 71.4691 164.982H72.8348C72.8431 165.139 72.8943 165.277 72.9883 165.396C73.0843 165.513 73.2117 165.603 73.3704 165.668C73.5291 165.733 73.7077 165.765 73.9061 165.765C74.1128 165.765 74.2955 165.729 74.4542 165.656C74.6129 165.583 74.7372 165.481 74.827 165.352C74.9168 165.222 74.9617 165.073 74.9617 164.904C74.9617 164.733 74.9137 164.581 74.8176 164.45C74.7236 164.316 74.5879 164.212 74.4104 164.136C74.235 164.061 74.0261 164.024 73.7839 164.024H73.1856V163.028H73.7839C73.9886 163.028 74.1692 162.992 74.3258 162.921C74.4845 162.85 74.6077 162.752 74.6954 162.627C74.7831 162.499 74.827 162.351 74.827 162.182C74.827 162.021 74.7884 161.88 74.7111 161.759C74.6359 161.636 74.5294 161.54 74.3916 161.471C74.2559 161.402 74.0971 161.367 73.9155 161.367C73.7317 161.367 73.5636 161.401 73.4111 161.468C73.2587 161.532 73.1365 161.625 73.0447 161.746C72.9528 161.868 72.9037 162.01 72.8974 162.172H71.5975C71.6037 161.803 71.7092 161.477 71.9139 161.195C72.1185 160.913 72.3942 160.693 72.7408 160.534C73.0896 160.373 73.4832 160.293 73.9217 160.293C74.3644 160.293 74.7518 160.373 75.0839 160.534C75.4159 160.695 75.6738 160.912 75.8576 161.186C76.0434 161.457 76.1353 161.762 76.1332 162.1C76.1353 162.46 76.0236 162.759 75.798 162.999C75.5746 163.24 75.2833 163.392 74.9241 163.457V163.507C75.3961 163.567 75.7552 163.731 76.0017 163.999C76.2502 164.264 76.3734 164.596 76.3713 164.995C76.3734 165.36 76.2679 165.685 76.0549 165.969C75.844 166.253 75.5527 166.476 75.181 166.639C74.8092 166.802 74.3832 166.884 73.9029 166.884ZM79.8616 166.937C79.3228 166.935 78.8592 166.802 78.4708 166.539C78.0844 166.276 77.7869 165.895 77.578 165.396C77.3713 164.897 77.269 164.296 77.2711 163.595C77.2711 162.895 77.3744 162.299 77.5812 161.806C77.79 161.313 78.0876 160.938 78.4739 160.681C78.8623 160.422 79.3249 160.293 79.8616 160.293C80.3983 160.293 80.8598 160.422 81.2461 160.681C81.6345 160.94 81.9331 161.316 82.142 161.809C82.3508 162.3 82.4542 162.895 82.4521 163.595C82.4521 164.298 82.3477 164.9 82.1388 165.399C81.9321 165.898 81.6356 166.279 81.2492 166.542C80.8629 166.805 80.4003 166.937 79.8616 166.937ZM79.8616 165.812C80.2291 165.812 80.5225 165.628 80.7418 165.258C80.961 164.888 81.0696 164.334 81.0675 163.595C81.0675 163.108 81.0174 162.703 80.9172 162.379C80.819 162.056 80.6791 161.812 80.4974 161.649C80.3179 161.486 80.1059 161.405 79.8616 161.405C79.4961 161.405 79.2038 161.588 78.9845 161.953C78.7652 162.319 78.6545 162.866 78.6525 163.595C78.6525 164.087 78.7015 164.499 78.7997 164.829C78.8999 165.157 79.0409 165.403 79.2226 165.568C79.4042 165.731 79.6172 165.812 79.8616 165.812Z" fill="#767676"/>
<path d="M71.5317 204.258V203.28L73.8152 201.166C74.0094 200.978 74.1723 200.809 74.3039 200.659C74.4375 200.508 74.5388 200.361 74.6077 200.217C74.6766 200.071 74.7111 199.913 74.7111 199.744C74.7111 199.556 74.6683 199.394 74.5827 199.258C74.497 199.121 74.3801 199.015 74.2318 198.942C74.0836 198.867 73.9155 198.829 73.7275 198.829C73.5312 198.829 73.36 198.869 73.2138 198.948C73.0676 199.028 72.9549 199.142 72.8755 199.29C72.7961 199.438 72.7565 199.615 72.7565 199.819H71.4691C71.4691 199.399 71.5641 199.035 71.7541 198.726C71.9441 198.417 72.2104 198.178 72.5529 198.009C72.8953 197.839 73.29 197.755 73.7369 197.755C74.1963 197.755 74.5962 197.836 74.9366 197.999C75.2791 198.16 75.5454 198.383 75.7354 198.67C75.9254 198.956 76.0204 199.284 76.0204 199.653C76.0204 199.895 75.9724 200.135 75.8764 200.37C75.7824 200.606 75.6143 200.869 75.372 201.157C75.1298 201.443 74.7884 201.786 74.3477 202.187L73.4111 203.105V203.149H76.105V204.258H71.5317ZM79.6031 204.399C79.0644 204.397 78.6008 204.264 78.2124 204.001C77.826 203.738 77.5284 203.357 77.3196 202.858C77.1129 202.359 77.0105 201.758 77.0126 201.056C77.0126 200.357 77.116 199.761 77.3227 199.268C77.5316 198.775 77.8292 198.4 78.2155 198.143C78.6039 197.884 79.0665 197.755 79.6031 197.755C80.1398 197.755 80.6013 197.884 80.9877 198.143C81.3761 198.402 81.6747 198.778 81.8835 199.271C82.0924 199.762 82.1957 200.357 82.1936 201.056C82.1936 201.76 82.0892 202.362 81.8804 202.861C81.6737 203.36 81.3771 203.741 80.9908 204.004C80.6045 204.267 80.1419 204.399 79.6031 204.399ZM79.6031 203.274C79.9707 203.274 80.2641 203.089 80.4833 202.72C80.7026 202.35 80.8112 201.796 80.8091 201.056C80.8091 200.57 80.759 200.165 80.6588 199.841C80.5606 199.517 80.4207 199.274 80.239 199.111C80.0594 198.948 79.8475 198.867 79.6031 198.867C79.2377 198.867 78.9453 199.05 78.7261 199.415C78.5068 199.781 78.3961 200.328 78.394 201.056C78.394 201.549 78.4431 201.961 78.5413 202.291C78.6415 202.619 78.7824 202.865 78.9641 203.03C79.1458 203.193 79.3588 203.274 79.6031 203.274Z" fill="#767676"/>
<path d="M75.3227 235.306V241.721H73.9663V236.593H73.9288L72.4597 237.514V236.311L74.0478 235.306H75.3227ZM79.3627 241.862C78.8239 241.86 78.3603 241.727 77.9719 241.464C77.5856 241.201 77.288 240.82 77.0792 240.321C76.8724 239.821 76.7701 239.221 76.7722 238.519C76.7722 237.82 76.8756 237.224 77.0823 236.731C77.2911 236.238 77.5887 235.863 77.975 235.606C78.3635 235.347 78.826 235.218 79.3627 235.218C79.8994 235.218 80.3609 235.347 80.7472 235.606C81.1357 235.865 81.4343 236.241 81.6431 236.734C81.8519 237.225 81.9553 237.82 81.9532 238.519C81.9532 239.223 81.8488 239.825 81.64 240.324C81.4332 240.823 81.1367 241.204 80.7504 241.467C80.364 241.73 79.9015 241.862 79.3627 241.862ZM79.3627 240.737C79.7302 240.737 80.0236 240.552 80.2429 240.183C80.4622 239.813 80.5708 239.259 80.5687 238.519C80.5687 238.033 80.5186 237.628 80.4183 237.304C80.3202 236.98 80.1803 236.737 79.9986 236.574C79.819 236.411 79.607 236.33 79.3627 236.33C78.9973 236.33 78.7049 236.513 78.4856 236.878C78.2664 237.243 78.1557 237.791 78.1536 238.519C78.1536 239.012 78.2027 239.424 78.3008 239.754C78.4011 240.081 78.542 240.328 78.7237 240.493C78.9054 240.656 79.1184 240.737 79.3627 240.737Z" fill="#767676"/>
<path d="M79.047 279.325C78.5083 279.322 78.0447 279.19 77.6562 278.927C77.2699 278.664 76.9723 278.283 76.7635 277.783C76.5568 277.284 76.4544 276.684 76.4565 275.982C76.4565 275.283 76.5599 274.686 76.7666 274.194C76.9755 273.701 77.273 273.326 77.6594 273.069C78.0478 272.81 78.5103 272.681 79.047 272.681C79.5837 272.681 80.0452 272.81 80.4316 273.069C80.82 273.328 81.1186 273.704 81.3274 274.197C81.5362 274.688 81.6396 275.283 81.6375 275.982C81.6375 276.686 81.5331 277.287 81.3243 277.787C81.1176 278.286 80.821 278.667 80.4347 278.93C80.0484 279.193 79.5858 279.325 79.047 279.325ZM79.047 278.2C79.4146 278.2 79.708 278.015 79.9272 277.646C80.1465 277.276 80.2551 276.722 80.253 275.982C80.253 275.496 80.2029 275.091 80.1026 274.767C80.0045 274.443 79.8646 274.2 79.6829 274.037C79.5033 273.874 79.2914 273.793 79.047 273.793C78.6816 273.793 78.3892 273.975 78.17 274.341C77.9507 274.706 77.84 275.253 77.8379 275.982C77.8379 276.475 77.887 276.886 77.9851 277.216C78.0854 277.544 78.2263 277.791 78.408 277.956C78.5897 278.119 78.8027 278.2 79.047 278.2Z" fill="#767676"/>
<line opacity="0.5" x1="95.1309" y1="162.295" x2="386.638" y2="162.295" stroke="#B1B1B1" stroke-width="0.755199" stroke-dasharray="1.51 1.51"/>
<line opacity="0.5" x1="95.1309" y1="199.343" x2="386.638" y2="199.343" stroke="#B1B1B1" stroke-width="0.755199" stroke-dasharray="1.51 1.51"/>
<line opacity="0.5" x1="95.1309" y1="236.391" x2="386.638" y2="236.391" stroke="#B1B1B1" stroke-width="0.755199" stroke-dasharray="1.51 1.51"/>
<line opacity="0.5" x1="95.1309" y1="273.438" x2="386.638" y2="273.438" stroke="#B1B1B1" stroke-width="0.755199" stroke-dasharray="1.51 1.51"/>
<line opacity="0.5" x1="95.1309" y1="310.577" x2="382.691" y2="310.577" stroke="#B1B1B1" stroke-width="0.573207"/>
<rect x="107.92" y="123.861" width="35.2835" height="187.002" rx="4.1677" fill="#6666FF"/>
<rect x="280.809" y="268.523" width="35.2835" height="42.3402" rx="4.1677" fill="#CCCCFF"/>
<rect x="166.139" y="179.433" width="35.2835" height="131.431" rx="4.1677" fill="#CCCCFF"/>
<rect x="338.145" y="290.575" width="35.2835" height="20.288" rx="4.1677" fill="#CCCCFF"/>
<rect x="223.473" y="239.415" width="35.2835" height="71.4491" rx="4.1677" fill="#CCCCFF"/>
<path d="M125.233 322.27H126.589V326.436C126.589 326.904 126.478 327.314 126.254 327.664C126.033 328.015 125.723 328.289 125.324 328.485C124.925 328.679 124.46 328.776 123.93 328.776C123.397 328.776 122.932 328.679 122.533 328.485C122.134 328.289 121.824 328.015 121.602 327.664C121.381 327.314 121.27 326.904 121.27 326.436V322.27H122.627V326.321C122.627 326.565 122.68 326.782 122.787 326.972C122.895 327.162 123.048 327.311 123.244 327.42C123.44 327.529 123.669 327.583 123.93 327.583C124.193 327.583 124.422 327.529 124.616 327.42C124.812 327.311 124.964 327.162 125.07 326.972C125.179 326.782 125.233 326.565 125.233 326.321V322.27ZM131.185 324.115C131.16 323.863 131.053 323.666 130.863 323.526C130.673 323.387 130.415 323.317 130.089 323.317C129.868 323.317 129.681 323.348 129.528 323.411C129.376 323.471 129.259 323.556 129.177 323.664C129.098 323.773 129.058 323.896 129.058 324.034C129.054 324.149 129.078 324.249 129.13 324.335C129.185 324.42 129.259 324.494 129.353 324.557C129.447 324.618 129.555 324.671 129.679 324.717C129.802 324.761 129.933 324.798 130.073 324.83L130.65 324.967C130.93 325.03 131.186 325.114 131.42 325.218C131.654 325.322 131.857 325.451 132.028 325.603C132.199 325.756 132.332 325.935 132.426 326.142C132.522 326.349 132.571 326.586 132.573 326.853C132.571 327.246 132.471 327.586 132.272 327.874C132.076 328.16 131.792 328.383 131.42 328.541C131.051 328.698 130.605 328.776 130.083 328.776C129.565 328.776 129.114 328.697 128.73 328.538C128.347 328.38 128.049 328.145 127.834 327.834C127.621 327.52 127.509 327.133 127.498 326.671H128.811C128.826 326.886 128.887 327.066 128.996 327.21C129.106 327.352 129.254 327.46 129.437 327.533C129.623 327.604 129.833 327.639 130.067 327.639C130.297 327.639 130.496 327.606 130.665 327.539C130.837 327.472 130.969 327.379 131.063 327.26C131.157 327.141 131.204 327.004 131.204 326.85C131.204 326.706 131.161 326.585 131.076 326.487C130.992 326.388 130.869 326.305 130.706 326.236C130.545 326.167 130.348 326.104 130.114 326.048L129.416 325.873C128.875 325.741 128.448 325.535 128.134 325.256C127.821 324.976 127.666 324.599 127.668 324.125C127.666 323.736 127.769 323.397 127.978 323.107C128.189 322.816 128.478 322.59 128.845 322.427C129.213 322.264 129.631 322.183 130.098 322.183C130.575 322.183 130.99 322.264 131.345 322.427C131.702 322.59 131.98 322.816 132.178 323.107C132.377 323.397 132.479 323.733 132.485 324.115H131.185ZM134.445 328.686H132.991L135.206 322.27H136.954L139.165 328.686H137.712L136.105 323.736H136.055L134.445 328.686ZM134.354 326.164H137.787V327.223H134.354V326.164Z" fill="#767676"/>
<path d="M175.551 322.27V328.686H174.194V322.27H175.551ZM177.976 325.904V328.686H176.641V323.874H177.913V324.723H177.97C178.076 324.443 178.255 324.222 178.505 324.059C178.756 323.894 179.06 323.812 179.417 323.812C179.751 323.812 180.042 323.885 180.291 324.031C180.539 324.177 180.732 324.386 180.87 324.657C181.008 324.927 181.077 325.248 181.077 325.622V328.686H179.743V325.86C179.745 325.566 179.669 325.336 179.517 325.171C179.365 325.004 179.155 324.92 178.887 324.92C178.708 324.92 178.549 324.959 178.411 325.036C178.276 325.114 178.169 325.226 178.092 325.375C178.017 325.521 177.978 325.697 177.976 325.904ZM183.902 328.764C183.536 328.764 183.205 328.67 182.909 328.482C182.614 328.292 182.38 328.013 182.207 327.646C182.036 327.276 181.95 326.823 181.95 326.286C181.95 325.735 182.039 325.276 182.216 324.911C182.394 324.543 182.63 324.269 182.924 324.087C183.221 323.903 183.546 323.812 183.899 323.812C184.168 323.812 184.392 323.857 184.572 323.949C184.754 324.039 184.9 324.152 185.011 324.288C185.123 324.421 185.209 324.553 185.267 324.682H185.308V322.27H186.639V328.686H185.324V327.915H185.267C185.205 328.049 185.116 328.181 185.001 328.313C184.888 328.442 184.741 328.55 184.559 328.635C184.38 328.721 184.161 328.764 183.902 328.764ZM184.325 327.702C184.54 327.702 184.721 327.643 184.87 327.527C185.02 327.408 185.135 327.242 185.214 327.029C185.296 326.815 185.336 326.566 185.336 326.28C185.336 325.994 185.297 325.745 185.217 325.534C185.138 325.323 185.023 325.161 184.873 325.046C184.722 324.931 184.54 324.873 184.325 324.873C184.105 324.873 183.92 324.933 183.77 325.052C183.62 325.171 183.506 325.336 183.429 325.547C183.351 325.758 183.313 326.002 183.313 326.28C183.313 326.56 183.351 326.807 183.429 327.022C183.508 327.235 183.622 327.402 183.77 327.523C183.92 327.642 184.105 327.702 184.325 327.702ZM187.736 328.686V323.874H189.071V328.686H187.736ZM188.407 323.254C188.208 323.254 188.038 323.188 187.896 323.057C187.756 322.923 187.686 322.763 187.686 322.577C187.686 322.394 187.756 322.236 187.896 322.104C188.038 321.971 188.208 321.904 188.407 321.904C188.605 321.904 188.774 321.971 188.914 322.104C189.056 322.236 189.127 322.394 189.127 322.577C189.127 322.763 189.056 322.923 188.914 323.057C188.774 323.188 188.605 323.254 188.407 323.254ZM191.512 328.776C191.205 328.776 190.931 328.723 190.691 328.617C190.451 328.508 190.261 328.348 190.121 328.137C189.983 327.924 189.914 327.659 189.914 327.342C189.914 327.074 189.963 326.85 190.062 326.668C190.16 326.487 190.293 326.34 190.462 326.23C190.632 326.119 190.824 326.036 191.039 325.979C191.256 325.923 191.484 325.883 191.722 325.86C192.002 325.831 192.227 325.804 192.398 325.779C192.57 325.752 192.694 325.712 192.771 325.66C192.848 325.607 192.887 325.53 192.887 325.428V325.409C192.887 325.211 192.824 325.057 192.699 324.949C192.576 324.84 192.4 324.786 192.173 324.786C191.933 324.786 191.742 324.839 191.6 324.945C191.458 325.05 191.364 325.181 191.318 325.34L190.083 325.24C190.146 324.948 190.269 324.695 190.453 324.482C190.637 324.267 190.874 324.102 191.164 323.987C191.456 323.87 191.795 323.812 192.179 323.812C192.446 323.812 192.702 323.843 192.946 323.905C193.193 323.968 193.411 324.065 193.601 324.197C193.793 324.328 193.945 324.498 194.055 324.704C194.166 324.909 194.221 325.154 194.221 325.44V328.686H192.956V328.018H192.918C192.841 328.169 192.738 328.301 192.608 328.416C192.479 328.529 192.323 328.618 192.141 328.682C191.96 328.745 191.75 328.776 191.512 328.776ZM191.894 327.855C192.09 327.855 192.264 327.817 192.414 327.74C192.564 327.66 192.682 327.554 192.768 327.42C192.854 327.286 192.896 327.135 192.896 326.966V326.455C192.855 326.482 192.797 326.507 192.724 326.53C192.653 326.551 192.573 326.571 192.483 326.59C192.393 326.607 192.303 326.622 192.213 326.637C192.124 326.649 192.042 326.661 191.969 326.671C191.813 326.694 191.676 326.731 191.559 326.781C191.442 326.831 191.351 326.899 191.286 326.985C191.222 327.068 191.189 327.173 191.189 327.298C191.189 327.48 191.255 327.618 191.387 327.714C191.52 327.808 191.689 327.855 191.894 327.855Z" fill="#767676"/>
<path d="M239.02 322.27H240.376V326.436C240.376 326.904 240.265 327.314 240.041 327.664C239.82 328.015 239.51 328.289 239.111 328.485C238.712 328.679 238.247 328.776 237.717 328.776C237.184 328.776 236.719 328.679 236.32 328.485C235.921 328.289 235.611 328.015 235.39 327.664C235.168 327.314 235.058 326.904 235.058 326.436V322.27H236.414V326.321C236.414 326.565 236.467 326.782 236.574 326.972C236.682 327.162 236.835 327.311 237.031 327.42C237.227 327.529 237.456 327.583 237.717 327.583C237.98 327.583 238.209 327.529 238.403 327.42C238.599 327.311 238.751 327.162 238.857 326.972C238.966 326.782 239.02 326.565 239.02 326.321V322.27ZM241.492 328.686V322.27H242.849V325.099H242.933L245.242 322.27H246.868L244.487 325.143L246.896 328.686H245.273L243.516 326.048L242.849 326.862V328.686H241.492Z" fill="#767676"/>
<path d="M285.182 324.344C285.139 324.192 285.077 324.057 284.998 323.94C284.918 323.821 284.821 323.721 284.706 323.639C284.594 323.556 284.464 323.492 284.318 323.448C284.174 323.404 284.014 323.382 283.839 323.382C283.511 323.382 283.223 323.464 282.974 323.627C282.728 323.79 282.536 324.027 282.398 324.338C282.26 324.647 282.191 325.025 282.191 325.472C282.191 325.919 282.259 326.299 282.395 326.612C282.53 326.925 282.722 327.164 282.971 327.329C283.22 327.492 283.513 327.574 283.851 327.574C284.158 327.574 284.42 327.519 284.637 327.411C284.857 327.3 285.024 327.144 285.139 326.944C285.256 326.743 285.314 326.506 285.314 326.233L285.59 326.274H283.936V325.252H286.62V326.061C286.62 326.624 286.501 327.109 286.263 327.514C286.025 327.917 285.697 328.228 285.28 328.447C284.862 328.665 284.384 328.773 283.845 328.773C283.244 328.773 282.715 328.641 282.26 328.375C281.805 328.108 281.45 327.729 281.195 327.238C280.942 326.746 280.816 326.161 280.816 325.484C280.816 324.964 280.891 324.501 281.041 324.093C281.194 323.684 281.407 323.337 281.68 323.053C281.954 322.769 282.272 322.553 282.636 322.405C282.999 322.257 283.393 322.183 283.817 322.183C284.18 322.183 284.518 322.236 284.832 322.342C285.145 322.447 285.423 322.595 285.665 322.787C285.909 322.979 286.109 323.208 286.263 323.473C286.418 323.736 286.517 324.027 286.561 324.344H285.182ZM289.807 328.78C289.312 328.78 288.886 328.679 288.529 328.479C288.174 328.276 287.9 327.99 287.708 327.621C287.516 327.249 287.42 326.809 287.42 326.302C287.42 325.807 287.516 325.372 287.708 324.999C287.9 324.625 288.171 324.334 288.519 324.125C288.87 323.916 289.282 323.812 289.753 323.812C290.071 323.812 290.366 323.863 290.64 323.965C290.916 324.065 291.156 324.217 291.36 324.419C291.567 324.622 291.728 324.877 291.843 325.184C291.958 325.488 292.015 325.845 292.015 326.255V326.621H287.952V325.794H290.759C290.759 325.602 290.717 325.432 290.634 325.284C290.55 325.135 290.434 325.02 290.286 324.936C290.14 324.85 289.97 324.808 289.775 324.808C289.573 324.808 289.393 324.855 289.237 324.949C289.082 325.04 288.961 325.165 288.873 325.321C288.786 325.476 288.741 325.648 288.739 325.838V326.624C288.739 326.862 288.782 327.068 288.87 327.242C288.96 327.415 289.086 327.548 289.249 327.642C289.412 327.736 289.605 327.783 289.829 327.783C289.977 327.783 290.113 327.763 290.236 327.721C290.359 327.679 290.465 327.616 290.552 327.533C290.64 327.449 290.707 327.347 290.753 327.226L291.987 327.307C291.924 327.604 291.796 327.863 291.602 328.084C291.409 328.303 291.161 328.475 290.856 328.598C290.553 328.719 290.203 328.78 289.807 328.78ZM292.886 328.686V323.874H294.18V324.714H294.23C294.317 324.415 294.465 324.189 294.671 324.037C294.878 323.883 295.116 323.805 295.386 323.805C295.452 323.805 295.524 323.809 295.602 323.818C295.679 323.826 295.747 323.838 295.805 323.852V325.036C295.743 325.017 295.656 325.001 295.545 324.986C295.435 324.972 295.333 324.964 295.241 324.964C295.045 324.964 294.87 325.007 294.715 325.093C294.563 325.176 294.442 325.293 294.352 325.444C294.264 325.594 294.22 325.767 294.22 325.963V328.686H292.886ZM296.495 328.686V323.874H297.767V324.723H297.823C297.924 324.441 298.091 324.219 298.325 324.056C298.558 323.893 298.838 323.812 299.164 323.812C299.494 323.812 299.775 323.894 300.007 324.059C300.238 324.222 300.393 324.443 300.47 324.723H300.52C300.618 324.447 300.796 324.227 301.053 324.062C301.312 323.895 301.618 323.812 301.971 323.812C302.42 323.812 302.784 323.955 303.064 324.241C303.346 324.525 303.487 324.928 303.487 325.45V328.686H302.155V325.713C302.155 325.446 302.084 325.245 301.942 325.111C301.8 324.978 301.623 324.911 301.41 324.911C301.168 324.911 300.979 324.988 300.843 325.143C300.707 325.295 300.639 325.497 300.639 325.747V328.686H299.346V325.685C299.346 325.449 299.278 325.261 299.142 325.121C299.008 324.981 298.832 324.911 298.613 324.911C298.464 324.911 298.331 324.949 298.212 325.024C298.095 325.097 298.002 325.2 297.933 325.334C297.864 325.465 297.83 325.62 297.83 325.797V328.686H296.495ZM305.913 328.776C305.606 328.776 305.332 328.723 305.092 328.617C304.852 328.508 304.662 328.348 304.522 328.137C304.384 327.924 304.315 327.659 304.315 327.342C304.315 327.074 304.364 326.85 304.462 326.668C304.561 326.487 304.694 326.34 304.863 326.23C305.033 326.119 305.225 326.036 305.44 325.979C305.657 325.923 305.885 325.883 306.123 325.86C306.402 325.831 306.628 325.804 306.799 325.779C306.97 325.752 307.095 325.712 307.172 325.66C307.249 325.607 307.288 325.53 307.288 325.428V325.409C307.288 325.211 307.225 325.057 307.1 324.949C306.977 324.84 306.801 324.786 306.574 324.786C306.334 324.786 306.142 324.839 306 324.945C305.858 325.05 305.765 325.181 305.719 325.34L304.484 325.24C304.547 324.948 304.67 324.695 304.854 324.482C305.038 324.267 305.275 324.102 305.565 323.987C305.857 323.87 306.196 323.812 306.58 323.812C306.847 323.812 307.103 323.843 307.347 323.905C307.594 323.968 307.812 324.065 308.002 324.197C308.194 324.328 308.346 324.498 308.456 324.704C308.567 324.909 308.622 325.154 308.622 325.44V328.686H307.357V328.018H307.319C307.242 328.169 307.139 328.301 307.009 328.416C306.88 328.529 306.724 328.618 306.542 328.682C306.361 328.745 306.151 328.776 305.913 328.776ZM306.295 327.855C306.491 327.855 306.665 327.817 306.815 327.74C306.965 327.66 307.083 327.554 307.169 327.42C307.254 327.286 307.297 327.135 307.297 326.966V326.455C307.256 326.482 307.198 326.507 307.125 326.53C307.054 326.551 306.974 326.571 306.884 326.59C306.794 326.607 306.704 326.622 306.614 326.637C306.525 326.649 306.443 326.661 306.37 326.671C306.213 326.694 306.077 326.731 305.96 326.781C305.843 326.831 305.752 326.899 305.687 326.985C305.623 327.068 305.59 327.173 305.59 327.298C305.59 327.48 305.656 327.618 305.787 327.714C305.921 327.808 306.09 327.855 306.295 327.855ZM310.992 325.904V328.686H309.658V323.874H310.929V324.723H310.986C311.092 324.443 311.271 324.222 311.521 324.059C311.772 323.894 312.076 323.812 312.433 323.812C312.767 323.812 313.058 323.885 313.307 324.031C313.555 324.177 313.749 324.386 313.886 324.657C314.024 324.927 314.093 325.248 314.093 325.622V328.686H312.759V325.86C312.761 325.566 312.686 325.336 312.533 325.171C312.381 325.004 312.171 324.92 311.904 324.92C311.724 324.92 311.565 324.959 311.427 325.036C311.292 325.114 311.185 325.226 311.108 325.375C311.033 325.521 310.994 325.697 310.992 325.904ZM315.796 330.49C315.627 330.49 315.468 330.476 315.32 330.449C315.174 330.424 315.053 330.392 314.957 330.352L315.258 329.356C315.414 329.404 315.555 329.43 315.68 329.434C315.808 329.438 315.917 329.409 316.009 329.346C316.103 329.284 316.18 329.177 316.238 329.027L316.316 328.823L314.59 323.874H315.994L316.99 327.408H317.04L318.045 323.874H319.458L317.588 329.206C317.498 329.464 317.376 329.69 317.222 329.882C317.069 330.076 316.876 330.226 316.642 330.33C316.408 330.437 316.126 330.49 315.796 330.49Z" fill="#767676"/>
<path d="M341.132 328.686H339.679L341.893 322.27H343.641L345.853 328.686H344.399L342.792 323.736H342.742L341.132 328.686ZM341.041 326.164H344.474V327.223H341.041V326.164ZM349.685 326.637V323.874H351.02V328.686H349.738V327.812H349.688C349.58 328.094 349.399 328.32 349.146 328.491C348.896 328.663 348.59 328.748 348.229 328.748C347.907 328.748 347.624 328.675 347.38 328.529C347.135 328.383 346.944 328.175 346.806 327.906C346.671 327.636 346.602 327.314 346.6 326.938V323.874H347.934V326.7C347.936 326.984 348.012 327.208 348.163 327.373C348.313 327.538 348.515 327.621 348.767 327.621C348.928 327.621 349.078 327.584 349.218 327.511C349.358 327.436 349.471 327.325 349.557 327.179C349.644 327.033 349.687 326.852 349.685 326.637ZM356.09 325.246L354.868 325.321C354.848 325.217 354.803 325.123 354.734 325.039C354.665 324.954 354.574 324.886 354.461 324.836C354.351 324.784 354.218 324.758 354.063 324.758C353.857 324.758 353.682 324.801 353.54 324.889C353.398 324.975 353.327 325.09 353.327 325.234C353.327 325.348 353.373 325.446 353.465 325.525C353.557 325.604 353.715 325.668 353.938 325.716L354.809 325.891C355.277 325.987 355.625 326.142 355.855 326.355C356.085 326.568 356.2 326.848 356.2 327.195C356.2 327.51 356.107 327.787 355.921 328.025C355.737 328.263 355.485 328.449 355.163 328.582C354.843 328.714 354.475 328.78 354.057 328.78C353.42 328.78 352.913 328.647 352.535 328.382C352.159 328.114 351.939 327.751 351.874 327.292L353.186 327.223C353.226 327.417 353.322 327.565 353.475 327.668C353.627 327.768 353.822 327.818 354.06 327.818C354.294 327.818 354.482 327.773 354.624 327.683C354.768 327.591 354.841 327.473 354.843 327.329C354.841 327.208 354.79 327.109 354.69 327.032C354.59 326.952 354.435 326.892 354.226 326.85L353.393 326.684C352.923 326.59 352.573 326.427 352.344 326.195C352.116 325.963 352.002 325.668 352.002 325.309C352.002 325 352.086 324.733 352.253 324.51C352.422 324.287 352.659 324.114 352.964 323.993C353.271 323.872 353.63 323.812 354.042 323.812C354.649 323.812 355.127 323.94 355.476 324.197C355.827 324.454 356.032 324.803 356.09 325.246ZM359.599 323.874V324.877H356.702V323.874H359.599ZM357.36 322.721H358.694V327.207C358.694 327.33 358.713 327.426 358.75 327.495C358.788 327.562 358.84 327.609 358.907 327.636C358.976 327.663 359.055 327.677 359.145 327.677C359.208 327.677 359.27 327.672 359.333 327.661C359.396 327.649 359.444 327.639 359.477 327.633L359.687 328.626C359.62 328.647 359.526 328.671 359.405 328.698C359.284 328.727 359.137 328.745 358.963 328.751C358.642 328.764 358.36 328.721 358.118 328.623C357.877 328.525 357.691 328.372 357.557 328.166C357.423 327.959 357.357 327.698 357.36 327.382V322.721ZM360.468 328.686V323.874H361.762V324.714H361.812C361.9 324.415 362.047 324.189 362.254 324.037C362.461 323.883 362.699 323.805 362.968 323.805C363.035 323.805 363.107 323.809 363.184 323.818C363.262 323.826 363.329 323.838 363.388 323.852V325.036C363.325 325.017 363.239 325.001 363.128 324.986C363.017 324.972 362.916 324.964 362.824 324.964C362.628 324.964 362.452 325.007 362.298 325.093C362.145 325.176 362.024 325.293 361.934 325.444C361.847 325.594 361.803 325.767 361.803 325.963V328.686H360.468ZM365.312 328.776C365.005 328.776 364.731 328.723 364.491 328.617C364.251 328.508 364.061 328.348 363.921 328.137C363.783 327.924 363.714 327.659 363.714 327.342C363.714 327.074 363.763 326.85 363.862 326.668C363.96 326.487 364.093 326.34 364.263 326.23C364.432 326.119 364.624 326.036 364.839 325.979C365.056 325.923 365.284 325.883 365.522 325.86C365.802 325.831 366.027 325.804 366.198 325.779C366.37 325.752 366.494 325.712 366.571 325.66C366.648 325.607 366.687 325.53 366.687 325.428V325.409C366.687 325.211 366.624 325.057 366.499 324.949C366.376 324.84 366.2 324.786 365.973 324.786C365.733 324.786 365.542 324.839 365.4 324.945C365.258 325.05 365.164 325.181 365.118 325.34L363.884 325.24C363.946 324.948 364.069 324.695 364.253 324.482C364.437 324.267 364.674 324.102 364.964 323.987C365.257 323.87 365.595 323.812 365.979 323.812C366.246 323.812 366.502 323.843 366.747 323.905C366.993 323.968 367.211 324.065 367.401 324.197C367.593 324.328 367.745 324.498 367.855 324.704C367.966 324.909 368.021 325.154 368.021 325.44V328.686H366.756V328.018H366.718C366.641 328.169 366.538 328.301 366.408 328.416C366.279 328.529 366.123 328.618 365.942 328.682C365.76 328.745 365.55 328.776 365.312 328.776ZM365.694 327.855C365.89 327.855 366.064 327.817 366.214 327.74C366.364 327.66 366.482 327.554 366.568 327.42C366.654 327.286 366.696 327.135 366.696 326.966V326.455C366.655 326.482 366.597 326.507 366.524 326.53C366.453 326.551 366.373 326.571 366.283 326.59C366.193 326.607 366.103 326.622 366.014 326.637C365.924 326.649 365.842 326.661 365.769 326.671C365.613 326.694 365.476 326.731 365.359 326.781C365.242 326.831 365.151 326.899 365.086 326.985C365.022 327.068 364.989 327.173 364.989 327.298C364.989 327.48 365.055 327.618 365.187 327.714C365.32 327.808 365.489 327.855 365.694 327.855ZM370.391 322.27V328.686H369.057V322.27H370.391ZM371.46 328.686V323.874H372.794V328.686H371.46ZM372.13 323.254C371.932 323.254 371.762 323.188 371.62 323.057C371.48 322.923 371.41 322.763 371.41 322.577C371.41 322.394 371.48 322.236 371.62 322.104C371.762 321.971 371.932 321.904 372.13 321.904C372.329 321.904 372.498 321.971 372.638 322.104C372.78 322.236 372.851 322.394 372.851 322.577C372.851 322.763 372.78 322.923 372.638 323.057C372.498 323.188 372.329 323.254 372.13 323.254ZM375.235 328.776C374.928 328.776 374.655 328.723 374.415 328.617C374.175 328.508 373.985 328.348 373.845 328.137C373.707 327.924 373.638 327.659 373.638 327.342C373.638 327.074 373.687 326.85 373.785 326.668C373.883 326.487 374.017 326.34 374.186 326.23C374.355 326.119 374.547 326.036 374.762 325.979C374.98 325.923 375.207 325.883 375.445 325.86C375.725 325.831 375.951 325.804 376.122 325.779C376.293 325.752 376.417 325.712 376.495 325.66C376.572 325.607 376.611 325.53 376.611 325.428V325.409C376.611 325.211 376.548 325.057 376.423 324.949C376.299 324.84 376.124 324.786 375.896 324.786C375.656 324.786 375.465 324.839 375.323 324.945C375.181 325.05 375.087 325.181 375.041 325.34L373.807 325.24C373.87 324.948 373.993 324.695 374.177 324.482C374.36 324.267 374.597 324.102 374.888 323.987C375.18 323.87 375.518 323.812 375.903 323.812C376.17 323.812 376.426 323.843 376.67 323.905C376.916 323.968 377.135 324.065 377.325 324.197C377.517 324.328 377.668 324.498 377.779 324.704C377.89 324.909 377.945 325.154 377.945 325.44V328.686H376.679V328.018H376.642C376.565 328.169 376.461 328.301 376.332 328.416C376.202 328.529 376.047 328.618 375.865 328.682C375.683 328.745 375.473 328.776 375.235 328.776ZM375.618 327.855C375.814 327.855 375.987 327.817 376.138 327.74C376.288 327.66 376.406 327.554 376.492 327.42C376.577 327.286 376.62 327.135 376.62 326.966V326.455C376.578 326.482 376.521 326.507 376.448 326.53C376.377 326.551 376.296 326.571 376.206 326.59C376.117 326.607 376.027 326.622 375.937 326.637C375.847 326.649 375.766 326.661 375.693 326.671C375.536 326.694 375.399 326.731 375.282 326.781C375.165 326.831 375.075 326.899 375.01 326.985C374.945 327.068 374.913 327.173 374.913 327.298C374.913 327.48 374.979 327.618 375.11 327.714C375.244 327.808 375.413 327.855 375.618 327.855Z" fill="#767676"/>
<line opacity="0.5" x1="94.4028" y1="310.863" x2="94.4028" y2="123.861" stroke="#B1B1B1" stroke-width="0.573207"/>
</svg>
