<svg width="393" height="442" viewBox="0 0 393 442" fill="none" xmlns="http://www.w3.org/2000/svg">
<g filter="url(#filter0_d_505_3027)">
<g clip-path="url(#clip0_505_3027)">
<rect x="40" y="35" width="313" height="392" rx="20" fill="white"/>
<g clip-path="url(#clip1_505_3027)">
<path d="M300.669 360.659L305.17 367.096H303.322L299.65 361.843V361.843L299.111 361.072L294.82 354.935H296.667L300.13 359.887L300.669 360.659Z" fill="black"/>
<path d="M307.839 351H292.161C290.968 351 290 351.968 290 353.161V368.839C290 370.032 290.968 371 292.161 371H307.839C309.032 371 310 370.032 310 368.839V353.161C310 351.968 309.032 351 307.839 351ZM302.757 367.96L299.04 362.551L294.387 367.96H293.184L298.506 361.775L293.184 354.029H297.243L300.763 359.151L305.169 354.029H306.371L301.297 359.928H301.296L306.816 367.96H302.757Z" fill="black"/>
</g>
<g clip-path="url(#clip2_505_3027)">
<path d="M168.25 352.361C166.678 353.993 167 355.727 167 360.996C167 365.371 166.237 369.757 170.232 370.789C171.479 371.11 182.533 371.11 183.778 370.787C185.442 370.358 186.795 369.009 186.98 366.657C187.006 366.328 187.006 355.669 186.979 355.334C186.783 352.828 185.24 351.384 183.208 351.092C182.742 351.024 182.648 351.004 180.258 351C171.781 351.004 169.923 350.627 168.25 352.361Z" fill="url(#paint0_linear_505_3027)"/>
<path d="M176.998 353.616C173.973 353.616 171.099 353.347 170.002 356.163C169.548 357.327 169.614 358.837 169.614 361.001C169.614 362.899 169.553 364.683 170.002 365.837C171.097 368.656 173.993 368.386 176.997 368.386C179.894 368.386 182.882 368.687 183.993 365.837C184.447 364.662 184.38 363.174 184.38 361.001C184.38 358.116 184.539 356.253 183.14 354.855C181.723 353.438 179.808 353.616 176.995 353.616H176.998ZM176.337 354.947C182.648 354.937 183.452 354.235 183.008 363.982C182.851 367.43 180.226 367.052 176.999 367.052C171.116 367.052 170.947 366.883 170.947 360.997C170.947 355.043 171.413 354.95 176.337 354.945V354.947ZM180.94 356.172C180.451 356.172 180.054 356.569 180.054 357.058C180.054 357.547 180.451 357.944 180.94 357.944C181.429 357.944 181.826 357.547 181.826 357.058C181.826 356.569 181.429 356.172 180.94 356.172ZM176.998 357.208C174.904 357.208 173.207 358.907 173.207 361.001C173.207 363.095 174.904 364.792 176.998 364.792C179.093 364.792 180.789 363.095 180.789 361.001C180.789 358.907 179.093 357.208 176.998 357.208ZM176.998 358.539C180.253 358.539 180.257 363.462 176.998 363.462C173.745 363.462 173.74 358.539 176.998 358.539Z" fill="white"/>
</g>
<g clip-path="url(#clip3_505_3027)">
<path d="M244.273 351H229.727C228.221 351 227 352.221 227 353.727V368.273C227 369.779 228.221 371 229.727 371H244.273C245.779 371 247 369.779 247 368.273V353.727C247 352.221 245.779 351 244.273 351Z" fill="#0077B5"/>
<path d="M234.205 356.455C234.205 356.792 234.105 357.121 233.917 357.402C233.73 357.682 233.464 357.9 233.152 358.029C232.841 358.158 232.498 358.192 232.167 358.126C231.837 358.061 231.533 357.898 231.295 357.66C231.056 357.421 230.894 357.118 230.828 356.787C230.762 356.456 230.796 356.114 230.925 355.802C231.054 355.491 231.273 355.225 231.553 355.037C231.833 354.85 232.163 354.75 232.5 354.75C232.952 354.75 233.386 354.93 233.705 355.249C234.025 355.569 234.205 356.002 234.205 356.455Z" fill="white"/>
<path d="M233.818 359.295V366.826C233.818 366.882 233.808 366.937 233.787 366.988C233.766 367.04 233.735 367.086 233.695 367.126C233.656 367.165 233.61 367.196 233.558 367.218C233.507 367.239 233.452 367.25 233.397 367.25H231.6C231.544 367.25 231.489 367.239 231.438 367.218C231.387 367.197 231.34 367.166 231.301 367.126C231.261 367.087 231.23 367.041 231.209 366.989C231.188 366.938 231.177 366.883 231.177 366.827V359.295C231.177 359.183 231.222 359.076 231.301 358.996C231.38 358.917 231.488 358.873 231.6 358.873H233.397C233.508 358.873 233.616 358.918 233.695 358.997C233.774 359.076 233.818 359.183 233.818 359.295Z" fill="white"/>
<path d="M243.209 363.216V366.861C243.209 366.912 243.199 366.963 243.18 367.01C243.16 367.057 243.132 367.1 243.096 367.136C243.059 367.173 243.017 367.201 242.969 367.221C242.922 367.24 242.872 367.25 242.82 367.25H240.889C240.838 367.25 240.787 367.24 240.74 367.221C240.692 367.201 240.65 367.173 240.613 367.136C240.577 367.1 240.549 367.057 240.529 367.01C240.51 366.963 240.5 366.912 240.5 366.861V363.328C240.5 362.801 240.655 361.019 239.122 361.019C237.934 361.019 237.692 362.239 237.644 362.786V366.861C237.644 366.963 237.604 367.061 237.532 367.134C237.461 367.207 237.363 367.248 237.261 367.25H235.395C235.344 367.25 235.294 367.24 235.247 367.22C235.2 367.201 235.157 367.172 235.121 367.136C235.085 367.1 235.057 367.057 235.037 367.01C235.018 366.963 235.008 366.912 235.008 366.861V359.262C235.008 359.211 235.018 359.161 235.037 359.114C235.057 359.067 235.085 359.024 235.121 358.988C235.157 358.952 235.2 358.923 235.247 358.903C235.294 358.884 235.344 358.874 235.395 358.874H237.261C237.364 358.874 237.463 358.915 237.536 358.988C237.609 359.061 237.65 359.159 237.65 359.262V359.919C238.091 359.258 238.744 358.748 240.139 358.748C243.227 358.748 243.209 361.632 243.209 363.216Z" fill="white"/>
</g>
<path d="M115.816 351.433C114.275 350.542 112.306 351.071 111.416 352.614L103.432 366.469C102.543 368.012 103.071 369.986 104.611 370.877C106.151 371.768 108.121 371.239 109.011 369.696L116.995 355.841C117.884 354.298 117.356 352.324 115.816 351.433Z" fill="#FFC107"/>
<path d="M115.816 351.433C115.096 351.017 114.283 350.91 113.53 351.072C113.85 351.141 114.165 351.26 114.463 351.433C116.004 352.324 116.531 354.298 115.642 355.841L107.658 369.696C107.184 370.518 106.403 371.053 105.544 371.237C106.874 371.524 108.294 370.94 109.011 369.696L116.995 355.841C117.884 354.298 117.356 352.324 115.816 351.433Z" fill="#FFB300"/>
<path d="M106.217 371.31C107.994 371.31 109.435 369.867 109.435 368.086C109.435 366.306 107.994 364.863 106.217 364.863C104.441 364.863 103 366.306 103 368.086C103 369.867 104.441 371.31 106.217 371.31Z" fill="#4CAF50"/>
<path d="M105.544 371.238C105.544 371.238 105.544 371.238 105.544 371.239C105.761 371.285 105.986 371.31 106.218 371.31C107.994 371.31 109.435 369.867 109.435 368.086C109.435 367.691 109.364 367.312 109.233 366.962L107.658 369.696C107.184 370.518 106.403 371.053 105.544 371.238Z" fill="#43A047"/>
<path d="M124.979 366.469L116.995 352.614C116.106 351.071 114.136 350.542 112.595 351.433C111.055 352.324 110.527 354.298 111.416 355.841L119.4 369.696C120.29 371.239 122.26 371.768 123.8 370.877C125.341 369.986 125.868 368.012 124.979 366.469Z" fill="#2196F3"/>
<path d="M124.979 366.469L116.995 352.614C116.278 351.37 114.859 350.785 113.528 351.072C114.387 351.257 115.168 351.792 115.642 352.614L123.626 366.469C124.516 368.012 123.988 369.986 122.447 370.877C122.149 371.05 121.834 371.169 121.514 371.238C122.267 371.4 123.081 371.293 123.8 370.877C125.341 369.986 125.868 368.012 124.979 366.469Z" fill="#1E88E5"/>
<g clip-path="url(#clip4_505_3027)">
<path d="M66.346 341V333.344L64.72 334.322V333.332L66.346 332.36H67.24V341H66.346ZM69.5158 341V332.36H70.3978V336.44L74.3398 332.36H75.4678L71.4418 336.53L75.7978 341H74.6458L70.3978 336.68V341H69.5158Z" fill="#6B6B6B"/>
<path d="M64.6 294.994L64.606 294.19L68.512 290.662C68.848 290.358 69.07 290.07 69.178 289.798C69.29 289.522 69.346 289.234 69.346 288.934C69.346 288.578 69.262 288.256 69.094 287.968C68.926 287.68 68.7 287.452 68.416 287.284C68.132 287.112 67.814 287.026 67.462 287.026C67.094 287.026 66.766 287.114 66.478 287.29C66.19 287.466 65.962 287.698 65.794 287.986C65.63 288.274 65.55 288.588 65.554 288.928H64.654C64.654 288.404 64.778 287.934 65.026 287.518C65.274 287.102 65.61 286.776 66.034 286.54C66.458 286.3 66.938 286.18 67.474 286.18C67.998 286.18 68.468 286.304 68.884 286.552C69.304 286.796 69.634 287.128 69.874 287.548C70.118 287.964 70.24 288.428 70.24 288.94C70.24 289.3 70.196 289.618 70.108 289.894C70.024 290.166 69.89 290.42 69.706 290.656C69.526 290.888 69.296 291.128 69.016 291.376L65.548 294.508L65.41 294.148H70.24V294.994H64.6ZM71.6838 295V286.36H72.5658V290.44L76.5078 286.36H77.6358L73.6098 290.53L77.9658 295H76.8138L72.5658 290.68V295H71.6838Z" fill="#6B6B6B"/>
<path d="M67.162 249.174C66.734 249.174 66.34 249.098 65.98 248.946C65.62 248.794 65.31 248.578 65.05 248.298C64.79 248.014 64.6 247.676 64.48 247.284L65.32 247.032C65.464 247.46 65.7 247.784 66.028 248.004C66.36 248.224 66.734 248.33 67.15 248.322C67.534 248.314 67.864 248.228 68.14 248.064C68.42 247.9 68.634 247.672 68.782 247.38C68.93 247.088 69.004 246.75 69.004 246.366C69.004 245.778 68.832 245.306 68.488 244.95C68.148 244.59 67.698 244.41 67.138 244.41C66.982 244.41 66.818 244.432 66.646 244.476C66.474 244.516 66.314 244.574 66.166 244.65L65.722 243.948L69.082 240.846L69.226 241.206H64.822V240.36H69.814V241.218L66.886 244.014L66.874 243.666C67.474 243.59 68.002 243.658 68.458 243.87C68.914 244.082 69.27 244.406 69.526 244.842C69.786 245.274 69.916 245.782 69.916 246.366C69.916 246.918 69.796 247.406 69.556 247.83C69.32 248.25 68.994 248.58 68.578 248.82C68.162 249.056 67.69 249.174 67.162 249.174ZM71.4728 249V240.36H72.3548V244.44L76.2968 240.36H77.4248L73.3988 244.53L77.7548 249H76.6028L72.3548 244.68V249H71.4728Z" fill="#6B6B6B"/>
<path d="M68.644 203V201.326H64.6V200.486L67.492 194.36H68.482L65.59 200.486H68.644V197.966H69.532V200.486H70.474V201.326H69.532V203H68.644ZM71.9181 203V194.36H72.8001V198.44L76.7421 194.36H77.8701L73.8441 198.53L78.2001 203H77.0481L72.8001 198.68V203H71.9181Z" fill="#6B6B6B"/>
<path d="M67.39 157.18C66.942 157.18 66.528 157.088 66.148 156.904C65.768 156.72 65.444 156.466 65.176 156.142C64.908 155.818 64.716 155.446 64.6 155.026L65.446 154.798C65.522 155.11 65.66 155.38 65.86 155.608C66.06 155.832 66.294 156.006 66.562 156.13C66.834 156.254 67.118 156.316 67.414 156.316C67.798 156.316 68.142 156.224 68.446 156.04C68.754 155.852 68.998 155.604 69.178 155.296C69.358 154.988 69.448 154.65 69.448 154.282C69.448 153.902 69.354 153.56 69.166 153.256C68.978 152.948 68.73 152.704 68.422 152.524C68.114 152.344 67.778 152.254 67.414 152.254C67.006 152.254 66.654 152.344 66.358 152.524C66.062 152.7 65.826 152.922 65.65 153.19L64.846 152.854L65.11 148.36H69.724V149.206H65.5L65.938 148.792L65.704 152.626L65.482 152.332C65.73 152.048 66.03 151.826 66.382 151.666C66.734 151.506 67.104 151.426 67.492 151.426C68.024 151.426 68.504 151.554 68.932 151.81C69.36 152.062 69.7 152.404 69.952 152.836C70.204 153.268 70.33 153.75 70.33 154.282C70.33 154.81 70.196 155.294 69.928 155.734C69.66 156.17 69.304 156.52 68.86 156.784C68.416 157.048 67.926 157.18 67.39 157.18ZM71.7658 157V148.36H72.6478V152.44L76.5898 148.36H77.7178L73.6918 152.53L78.0478 157H76.8958L72.6478 152.68V157H71.7658Z" fill="#6B6B6B"/>
</g>
<g clip-path="url(#clip5_505_3027)">
<path d="M96 200.5H315" stroke="#DFDFDF" stroke-width="0.5" stroke-dasharray="7.17"/>
<path d="M96 154.5H315" stroke="#DFDFDF" stroke-width="0.5" stroke-dasharray="7.17"/>
<path d="M96 246.5H315" stroke="#DFDFDF" stroke-width="0.5" stroke-dasharray="7.17"/>
<path d="M96 292.5H315" stroke="#DFDFDF" stroke-width="0.5" stroke-dasharray="7.17"/>
<path d="M96 340H190.883H305" stroke="#DFDFDF" stroke-width="0.5" stroke-dasharray="7.17"/>
</g>
<path d="M122 167C126.418 167 130 170.582 130 175V333C130 337.418 126.418 341 122 341H108C103.582 341 100 337.418 100 333L100 175C100 170.582 103.582 167 108 167L122 167Z" fill="#FF72BF"/>
<path d="M184 230C188.418 230 192 233.582 192 238V333C192 337.418 188.418 341 184 341H170C165.582 341 162 337.418 162 333L162 238C162 233.582 165.582 230 170 230L184 230Z" fill="#E5E5FF"/>
<path d="M246 194C250.418 194 254 197.582 254 202L254 333C254 337.418 250.418 341 246 341H232C227.582 341 224 337.418 224 333L224 202C224 197.582 227.582 194 232 194L246 194Z" fill="#DDB2FF"/>
<path d="M307 258C311.418 258 315 261.582 315 266V333C315 337.418 311.418 341 307 341H293C288.582 341 285 337.418 285 333V266C285 261.582 288.582 258 293 258H307Z" fill="#FFD0EA"/>
<path fill-rule="evenodd" clip-rule="evenodd" d="M216.436 159.615C212.329 159.615 209 162.945 209 167.051V174.487C209 178.594 212.329 181.923 216.436 181.923H235.764L237.706 185.832C237.979 186.382 238.764 186.382 239.038 185.832L240.979 181.923H259.564C263.671 181.923 267 178.594 267 174.487V167.051C267 162.945 263.671 159.615 259.564 159.615H216.436Z" fill="#A533FF"/>
<path d="M223.043 176.058V174.753H224.208V176.058H223.043ZM223.043 167.119V165.808H224.208V167.119H223.043ZM223.684 175.116C223.126 175.116 222.628 175.016 222.189 174.815C221.751 174.614 221.39 174.33 221.107 173.961C220.829 173.59 220.646 173.151 220.561 172.645L221.715 172.461C221.827 172.937 222.065 173.316 222.429 173.599C222.794 173.878 223.23 174.017 223.74 174.017C224.245 174.017 224.656 173.896 224.972 173.655C225.292 173.413 225.452 173.105 225.452 172.729C225.452 172.461 225.37 172.244 225.207 172.076C225.047 171.909 224.785 171.768 224.42 171.653L222.535 171.073C221.42 170.727 220.862 170.058 220.862 169.065C220.862 168.596 220.974 168.189 221.197 167.844C221.424 167.498 221.741 167.23 222.15 167.041C222.559 166.851 223.037 166.756 223.584 166.756C224.108 166.764 224.573 166.86 224.978 167.046C225.387 167.232 225.725 167.5 225.993 167.849C226.264 168.199 226.452 168.619 226.556 169.11L225.368 169.321C225.316 169.035 225.207 168.782 225.039 168.563C224.876 168.344 224.667 168.173 224.415 168.05C224.166 167.927 223.885 167.864 223.572 167.86C223.279 167.853 223.015 167.899 222.781 168C222.55 168.096 222.366 168.234 222.228 168.412C222.095 168.587 222.028 168.786 222.028 169.009C222.028 169.255 222.122 169.463 222.312 169.634C222.502 169.805 222.801 169.952 223.21 170.074L224.688 170.504C225.365 170.705 225.853 170.974 226.155 171.312C226.456 171.651 226.606 172.101 226.606 172.662C226.606 173.153 226.484 173.582 226.238 173.95C225.997 174.315 225.656 174.601 225.218 174.809C224.779 175.014 224.268 175.116 223.684 175.116ZM231.199 174.949V173.549H227.574V172.445L230.184 166.918H231.517L228.907 172.445H231.199V170.27H232.381V172.445H233.179V173.549H232.381V174.949H231.199ZM234.294 174.943L234.3 173.906L237.797 170.771C238.079 170.522 238.271 170.284 238.371 170.058C238.475 169.831 238.527 169.604 238.527 169.377C238.527 169.091 238.464 168.834 238.338 168.608C238.211 168.377 238.037 168.195 237.813 168.061C237.59 167.927 237.334 167.86 237.044 167.86C236.746 167.86 236.481 167.931 236.246 168.072C236.016 168.21 235.835 168.394 235.705 168.624C235.575 168.855 235.512 169.104 235.516 169.372H234.322C234.322 168.851 234.439 168.396 234.674 168.005C234.912 167.611 235.237 167.305 235.65 167.085C236.062 166.862 236.534 166.751 237.066 166.751C237.572 166.751 238.025 166.866 238.427 167.096C238.828 167.323 239.144 167.635 239.375 168.033C239.609 168.431 239.726 168.885 239.726 169.394C239.726 169.762 239.678 170.074 239.581 170.331C239.485 170.587 239.34 170.825 239.146 171.045C238.953 171.264 238.711 171.502 238.421 171.759L235.722 174.168L235.594 173.833H239.726V174.943H234.294ZM243.824 175.116C243.304 175.116 242.835 174.993 242.419 174.748C242.003 174.499 241.672 174.159 241.426 173.727C241.185 173.296 241.064 172.805 241.064 172.255V169.695C241.064 169.111 241.185 168.598 241.426 168.156C241.672 167.713 242.01 167.37 242.441 167.124C242.876 166.879 243.376 166.756 243.942 166.756C244.365 166.756 244.763 166.836 245.135 166.996C245.507 167.156 245.828 167.394 246.1 167.71L245.247 168.507C245.094 168.31 244.903 168.154 244.672 168.039C244.445 167.92 244.202 167.86 243.942 167.86C243.607 167.86 243.313 167.94 243.06 168.1C242.808 168.256 242.609 168.463 242.464 168.719C242.322 168.976 242.252 169.251 242.252 169.545V171.017L242.023 170.76C242.254 170.459 242.54 170.221 242.882 170.046C243.224 169.872 243.59 169.784 243.981 169.784C244.479 169.784 244.923 169.901 245.313 170.136C245.708 170.366 246.016 170.68 246.239 171.078C246.466 171.476 246.579 171.924 246.579 172.422C246.579 172.924 246.453 173.38 246.2 173.789C245.951 174.194 245.616 174.517 245.196 174.759C244.78 174.997 244.323 175.116 243.824 175.116ZM243.824 173.995C244.114 173.995 244.378 173.924 244.616 173.783C244.854 173.642 245.044 173.452 245.185 173.214C245.326 172.976 245.397 172.712 245.397 172.422C245.397 172.132 245.326 171.868 245.185 171.63C245.048 171.392 244.86 171.203 244.622 171.061C244.384 170.92 244.12 170.85 243.83 170.85C243.54 170.85 243.274 170.92 243.032 171.061C242.795 171.203 242.605 171.392 242.464 171.63C242.322 171.868 242.252 172.132 242.252 172.422C242.252 172.709 242.322 172.971 242.464 173.209C242.605 173.447 242.795 173.638 243.032 173.783C243.27 173.924 243.534 173.995 243.824 173.995ZM250.791 175.116C250.244 175.116 249.761 174.997 249.341 174.759C248.921 174.517 248.59 174.186 248.348 173.766C248.11 173.346 247.991 172.863 247.991 172.316V169.55C247.991 169.004 248.11 168.52 248.348 168.1C248.59 167.68 248.921 167.351 249.341 167.113C249.761 166.871 250.244 166.751 250.791 166.751C251.338 166.751 251.821 166.871 252.241 167.113C252.661 167.351 252.99 167.68 253.228 168.1C253.47 168.52 253.591 169.004 253.591 169.55V172.316C253.591 172.863 253.47 173.346 253.228 173.766C252.99 174.186 252.661 174.517 252.241 174.759C251.821 174.997 251.338 175.116 250.791 175.116ZM250.791 174.001C251.088 174.001 251.358 173.93 251.6 173.789C251.845 173.644 252.04 173.45 252.185 173.209C252.33 172.963 252.403 172.69 252.403 172.389V169.466C252.403 169.169 252.33 168.9 252.185 168.658C252.04 168.412 251.845 168.219 251.6 168.078C251.358 167.933 251.088 167.86 250.791 167.86C250.494 167.86 250.222 167.933 249.977 168.078C249.735 168.219 249.542 168.412 249.397 168.658C249.252 168.9 249.179 169.169 249.179 169.466V172.389C249.179 172.69 249.252 172.963 249.397 173.209C249.542 173.45 249.735 173.644 249.977 173.789C250.222 173.93 250.494 174.001 250.791 174.001Z" fill="white"/>
<path fill-rule="evenodd" clip-rule="evenodd" d="M274.436 225C270.329 225 267 228.329 267 232.436V239.872C267 243.979 270.329 247.308 274.436 247.308H293.764L295.706 251.216C295.979 251.767 296.764 251.767 297.038 251.216L298.979 247.308H317.564C321.671 247.308 325 243.979 325 239.872V232.436C325 228.329 321.671 225 317.564 225H274.436Z" fill="#A533FF"/>
<path d="M281.043 241.443V240.138H282.208V241.443H281.043ZM281.043 232.503V231.193H282.208V232.503H281.043ZM281.684 240.501C281.126 240.501 280.628 240.4 280.189 240.199C279.751 239.999 279.39 239.714 279.107 239.346C278.829 238.974 278.646 238.536 278.561 238.03L279.715 237.846C279.827 238.322 280.065 238.701 280.429 238.984C280.794 239.262 281.23 239.402 281.74 239.402C282.245 239.402 282.656 239.281 282.972 239.039C283.292 238.798 283.452 238.489 283.452 238.114C283.452 237.846 283.37 237.628 283.207 237.461C283.047 237.294 282.785 237.153 282.42 237.037L280.535 236.457C279.42 236.112 278.862 235.442 278.862 234.45C278.862 233.981 278.974 233.574 279.197 233.228C279.424 232.882 279.741 232.615 280.15 232.425C280.559 232.236 281.037 232.141 281.584 232.141C282.108 232.148 282.573 232.245 282.978 232.431C283.387 232.617 283.725 232.884 283.993 233.234C284.264 233.583 284.452 234.003 284.556 234.494L283.368 234.706C283.316 234.42 283.207 234.167 283.039 233.948C282.876 233.728 282.667 233.557 282.415 233.435C282.166 233.312 281.885 233.249 281.572 233.245C281.279 233.238 281.015 233.284 280.781 233.384C280.55 233.481 280.366 233.619 280.228 233.797C280.095 233.972 280.028 234.171 280.028 234.394C280.028 234.639 280.122 234.847 280.312 235.018C280.502 235.189 280.801 235.336 281.21 235.459L282.688 235.888C283.365 236.089 283.853 236.359 284.155 236.697C284.456 237.035 284.606 237.485 284.606 238.047C284.606 238.537 284.484 238.967 284.238 239.335C283.997 239.699 283.656 239.986 283.218 240.194C282.779 240.398 282.268 240.501 281.684 240.501ZM289.199 240.333V238.933H285.574V237.829L288.184 232.302H289.517L286.907 237.829H289.199V235.654H290.381V237.829H291.179V238.933H290.381V240.333H289.199ZM292.294 240.328L292.3 239.29L295.797 236.156C296.079 235.907 296.271 235.669 296.371 235.442C296.475 235.215 296.527 234.989 296.527 234.762C296.527 234.476 296.464 234.219 296.338 233.992C296.211 233.762 296.037 233.58 295.813 233.446C295.59 233.312 295.334 233.245 295.044 233.245C294.746 233.245 294.481 233.316 294.246 233.457C294.016 233.594 293.835 233.779 293.705 234.009C293.575 234.24 293.512 234.489 293.516 234.756H292.322C292.322 234.236 292.439 233.78 292.674 233.39C292.912 232.996 293.237 232.689 293.65 232.47C294.062 232.247 294.534 232.135 295.066 232.135C295.572 232.135 296.025 232.25 296.427 232.481C296.828 232.708 297.144 233.02 297.375 233.418C297.609 233.816 297.726 234.269 297.726 234.779C297.726 235.147 297.678 235.459 297.581 235.716C297.485 235.972 297.34 236.21 297.146 236.429C296.953 236.649 296.711 236.887 296.421 237.143L293.722 239.552L293.594 239.218H297.726V240.328H292.294ZM301.824 240.501C301.304 240.501 300.835 240.378 300.419 240.132C300.003 239.883 299.672 239.543 299.426 239.112C299.185 238.681 299.064 238.19 299.064 237.64V235.08C299.064 234.496 299.185 233.983 299.426 233.541C299.672 233.098 300.01 232.754 300.441 232.509C300.876 232.263 301.376 232.141 301.942 232.141C302.365 232.141 302.763 232.221 303.135 232.381C303.507 232.54 303.828 232.778 304.1 233.094L303.247 233.892C303.094 233.695 302.903 233.539 302.672 233.423C302.445 233.304 302.202 233.245 301.942 233.245C301.607 233.245 301.313 233.325 301.06 233.485C300.808 233.641 300.609 233.847 300.464 234.104C300.322 234.36 300.252 234.635 300.252 234.929V236.402L300.023 236.145C300.254 235.844 300.54 235.606 300.882 235.431C301.224 235.256 301.59 235.169 301.981 235.169C302.479 235.169 302.923 235.286 303.313 235.52C303.708 235.751 304.016 236.065 304.239 236.463C304.466 236.861 304.579 237.309 304.579 237.807C304.579 238.309 304.453 238.764 304.2 239.173C303.951 239.579 303.616 239.902 303.196 240.144C302.78 240.382 302.323 240.501 301.824 240.501ZM301.824 239.38C302.114 239.38 302.378 239.309 302.616 239.168C302.854 239.026 303.044 238.837 303.185 238.599C303.326 238.361 303.397 238.097 303.397 237.807C303.397 237.517 303.326 237.253 303.185 237.015C303.048 236.777 302.86 236.587 302.622 236.446C302.384 236.305 302.12 236.234 301.83 236.234C301.54 236.234 301.274 236.305 301.032 236.446C300.795 236.587 300.605 236.777 300.464 237.015C300.322 237.253 300.252 237.517 300.252 237.807C300.252 238.093 300.322 238.355 300.464 238.593C300.605 238.831 300.795 239.023 301.032 239.168C301.27 239.309 301.534 239.38 301.824 239.38ZM308.791 240.501C308.244 240.501 307.761 240.382 307.341 240.144C306.921 239.902 306.59 239.571 306.348 239.151C306.11 238.731 305.991 238.247 305.991 237.701V234.935C305.991 234.388 306.11 233.905 306.348 233.485C306.59 233.065 306.921 232.736 307.341 232.498C307.761 232.256 308.244 232.135 308.791 232.135C309.338 232.135 309.821 232.256 310.241 232.498C310.661 232.736 310.99 233.065 311.228 233.485C311.47 233.905 311.591 234.388 311.591 234.935V237.701C311.591 238.247 311.47 238.731 311.228 239.151C310.99 239.571 310.661 239.902 310.241 240.144C309.821 240.382 309.338 240.501 308.791 240.501ZM308.791 239.385C309.088 239.385 309.358 239.315 309.6 239.173C309.845 239.028 310.04 238.835 310.185 238.593C310.33 238.348 310.403 238.075 310.403 237.773V234.851C310.403 234.554 310.33 234.284 310.185 234.042C310.04 233.797 309.845 233.604 309.6 233.462C309.358 233.317 309.088 233.245 308.791 233.245C308.494 233.245 308.222 233.317 307.977 233.462C307.735 233.604 307.542 233.797 307.397 234.042C307.252 234.284 307.179 234.554 307.179 234.851V237.773C307.179 238.075 307.252 238.348 307.397 238.593C307.542 238.835 307.735 239.028 307.977 239.173C308.222 239.315 308.494 239.385 308.791 239.385Z" fill="white"/>
<path fill-rule="evenodd" clip-rule="evenodd" d="M154.436 198C150.329 198 147 201.329 147 205.436V212.872C147 216.979 150.329 220.308 154.436 220.308H173.764L175.706 224.216C175.979 224.767 176.764 224.767 177.038 224.216L178.979 220.308H197.564C201.671 220.308 205 216.979 205 212.872V205.436C205 201.329 201.671 198 197.564 198H154.436Z" fill="#A533FF"/>
<path d="M161.043 214.443V213.138H162.208V214.443H161.043ZM161.043 205.503V204.193H162.208V205.503H161.043ZM161.684 213.501C161.126 213.501 160.628 213.4 160.189 213.199C159.751 212.999 159.39 212.714 159.107 212.346C158.829 211.974 158.646 211.536 158.561 211.03L159.715 210.846C159.827 211.322 160.065 211.701 160.429 211.984C160.794 212.262 161.23 212.402 161.74 212.402C162.245 212.402 162.656 212.281 162.972 212.039C163.292 211.798 163.452 211.489 163.452 211.114C163.452 210.846 163.37 210.628 163.207 210.461C163.047 210.294 162.785 210.153 162.42 210.037L160.535 209.457C159.42 209.112 158.862 208.442 158.862 207.45C158.862 206.981 158.974 206.574 159.197 206.228C159.424 205.882 159.741 205.615 160.15 205.425C160.559 205.236 161.037 205.141 161.584 205.141C162.108 205.148 162.573 205.245 162.978 205.431C163.387 205.617 163.725 205.884 163.993 206.234C164.264 206.583 164.452 207.003 164.556 207.494L163.368 207.706C163.316 207.42 163.207 207.167 163.039 206.948C162.876 206.728 162.667 206.557 162.415 206.435C162.166 206.312 161.885 206.249 161.572 206.245C161.279 206.238 161.015 206.284 160.781 206.384C160.55 206.481 160.366 206.619 160.228 206.797C160.095 206.972 160.028 207.171 160.028 207.394C160.028 207.639 160.122 207.847 160.312 208.018C160.502 208.189 160.801 208.336 161.21 208.459L162.688 208.888C163.365 209.089 163.853 209.359 164.155 209.697C164.456 210.035 164.606 210.485 164.606 211.047C164.606 211.537 164.484 211.967 164.238 212.335C163.997 212.699 163.656 212.986 163.218 213.194C162.779 213.398 162.268 213.501 161.684 213.501ZM169.199 213.333V211.933H165.574V210.829L168.184 205.302H169.517L166.907 210.829H169.199V208.654H170.381V210.829H171.179V211.933H170.381V213.333H169.199ZM172.294 213.328L172.3 212.29L175.797 209.156C176.079 208.907 176.271 208.669 176.371 208.442C176.475 208.215 176.527 207.989 176.527 207.762C176.527 207.476 176.464 207.219 176.338 206.992C176.211 206.762 176.037 206.58 175.813 206.446C175.59 206.312 175.334 206.245 175.044 206.245C174.746 206.245 174.481 206.316 174.246 206.457C174.016 206.594 173.835 206.779 173.705 207.009C173.575 207.24 173.512 207.489 173.516 207.756H172.322C172.322 207.236 172.439 206.78 172.674 206.39C172.912 205.996 173.237 205.689 173.65 205.47C174.062 205.247 174.534 205.135 175.066 205.135C175.572 205.135 176.025 205.25 176.427 205.481C176.828 205.708 177.144 206.02 177.375 206.418C177.609 206.816 177.726 207.269 177.726 207.779C177.726 208.147 177.678 208.459 177.581 208.716C177.485 208.972 177.34 209.21 177.146 209.429C176.953 209.649 176.711 209.887 176.421 210.143L173.722 212.552L173.594 212.218H177.726V213.328H172.294ZM181.824 213.501C181.304 213.501 180.835 213.378 180.419 213.132C180.003 212.883 179.672 212.543 179.426 212.112C179.185 211.681 179.064 211.19 179.064 210.64V208.08C179.064 207.496 179.185 206.983 179.426 206.541C179.672 206.098 180.01 205.754 180.441 205.509C180.876 205.263 181.376 205.141 181.942 205.141C182.365 205.141 182.763 205.221 183.135 205.381C183.507 205.54 183.828 205.778 184.1 206.094L183.247 206.892C183.094 206.695 182.903 206.539 182.672 206.423C182.445 206.304 182.202 206.245 181.942 206.245C181.607 206.245 181.313 206.325 181.06 206.485C180.808 206.641 180.609 206.847 180.464 207.104C180.322 207.36 180.252 207.635 180.252 207.929V209.402L180.023 209.145C180.254 208.844 180.54 208.606 180.882 208.431C181.224 208.256 181.59 208.169 181.981 208.169C182.479 208.169 182.923 208.286 183.313 208.52C183.708 208.751 184.016 209.065 184.239 209.463C184.466 209.861 184.579 210.309 184.579 210.807C184.579 211.309 184.453 211.764 184.2 212.173C183.951 212.579 183.616 212.902 183.196 213.144C182.78 213.382 182.323 213.501 181.824 213.501ZM181.824 212.38C182.114 212.38 182.378 212.309 182.616 212.168C182.854 212.026 183.044 211.837 183.185 211.599C183.326 211.361 183.397 211.097 183.397 210.807C183.397 210.517 183.326 210.253 183.185 210.015C183.048 209.777 182.86 209.587 182.622 209.446C182.384 209.305 182.12 209.234 181.83 209.234C181.54 209.234 181.274 209.305 181.032 209.446C180.795 209.587 180.605 209.777 180.464 210.015C180.322 210.253 180.252 210.517 180.252 210.807C180.252 211.093 180.322 211.355 180.464 211.593C180.605 211.831 180.795 212.023 181.032 212.168C181.27 212.309 181.534 212.38 181.824 212.38ZM188.791 213.501C188.244 213.501 187.761 213.382 187.341 213.144C186.921 212.902 186.59 212.571 186.348 212.151C186.11 211.731 185.991 211.247 185.991 210.701V207.935C185.991 207.388 186.11 206.905 186.348 206.485C186.59 206.065 186.921 205.736 187.341 205.498C187.761 205.256 188.244 205.135 188.791 205.135C189.338 205.135 189.821 205.256 190.241 205.498C190.661 205.736 190.99 206.065 191.228 206.485C191.47 206.905 191.591 207.388 191.591 207.935V210.701C191.591 211.247 191.47 211.731 191.228 212.151C190.99 212.571 190.661 212.902 190.241 213.144C189.821 213.382 189.338 213.501 188.791 213.501ZM188.791 212.385C189.088 212.385 189.358 212.315 189.6 212.173C189.845 212.028 190.04 211.835 190.185 211.593C190.33 211.348 190.403 211.075 190.403 210.773V207.851C190.403 207.554 190.33 207.284 190.185 207.042C190.04 206.797 189.845 206.604 189.6 206.462C189.358 206.317 189.088 206.245 188.791 206.245C188.494 206.245 188.222 206.317 187.977 206.462C187.735 206.604 187.542 206.797 187.397 207.042C187.252 207.284 187.179 207.554 187.179 207.851V210.773C187.179 211.075 187.252 211.348 187.397 211.593C187.542 211.835 187.735 212.028 187.977 212.173C188.222 212.315 188.494 212.385 188.791 212.385Z" fill="white"/>
<path fill-rule="evenodd" clip-rule="evenodd" d="M92.4359 135C88.3292 135 85 138.329 85 142.436V149.872C85 153.979 88.3292 157.308 92.4359 157.308H111.764L113.706 161.216C113.979 161.767 114.764 161.767 115.038 161.216L116.979 157.308H135.564C139.671 157.308 143 153.979 143 149.872V142.436C143 138.329 139.671 135 135.564 135H92.4359Z" fill="#A533FF"/>
<path d="M99.0427 151.443V150.138H100.208V151.443H99.0427ZM99.0427 142.503V141.193H100.208V142.503H99.0427ZM99.684 150.501C99.1263 150.501 98.6281 150.4 98.1894 150.199C97.7507 149.999 97.3901 149.714 97.1075 149.346C96.8286 148.974 96.6465 148.536 96.561 148.03L97.7154 147.846C97.8269 148.322 98.0649 148.701 98.4292 148.984C98.7936 149.262 99.2304 149.402 99.7398 149.402C100.245 149.402 100.656 149.281 100.972 149.039C101.292 148.798 101.452 148.489 101.452 148.114C101.452 147.846 101.37 147.628 101.207 147.461C101.047 147.294 100.785 147.153 100.42 147.037L98.5352 146.457C97.4198 146.112 96.8621 145.442 96.8621 144.45C96.8621 143.981 96.9736 143.574 97.1967 143.228C97.4235 142.882 97.7414 142.615 98.1504 142.425C98.5594 142.236 99.0371 142.141 99.5836 142.141C100.108 142.148 100.573 142.245 100.978 142.431C101.387 142.617 101.725 142.884 101.993 143.234C102.264 143.583 102.452 144.003 102.556 144.494L101.368 144.706C101.316 144.42 101.207 144.167 101.039 143.948C100.876 143.728 100.667 143.557 100.415 143.435C100.166 143.312 99.8848 143.249 99.5725 143.245C99.2788 143.238 99.0148 143.284 98.7806 143.384C98.5501 143.481 98.366 143.619 98.2285 143.797C98.0946 143.972 98.0277 144.171 98.0277 144.394C98.0277 144.639 98.1225 144.847 98.3121 145.018C98.5017 145.189 98.801 145.336 99.21 145.459L100.688 145.888C101.365 146.089 101.853 146.359 102.155 146.697C102.456 147.035 102.606 147.485 102.606 148.047C102.606 148.537 102.484 148.967 102.238 149.335C101.997 149.699 101.656 149.986 101.218 150.194C100.779 150.398 100.268 150.501 99.684 150.501ZM107.199 150.333V148.933H103.574V147.829L106.184 142.302H107.517L104.907 147.829H107.199V145.654H108.381V147.829H109.179V148.933H108.381V150.333H107.199ZM110.294 150.328L110.3 149.29L113.797 146.156C114.079 145.907 114.271 145.669 114.371 145.442C114.475 145.215 114.527 144.989 114.527 144.762C114.527 144.476 114.464 144.219 114.338 143.992C114.211 143.762 114.037 143.58 113.813 143.446C113.59 143.312 113.334 143.245 113.044 143.245C112.746 143.245 112.481 143.316 112.246 143.457C112.016 143.594 111.835 143.779 111.705 144.009C111.575 144.24 111.512 144.489 111.516 144.756H110.322C110.322 144.236 110.439 143.78 110.674 143.39C110.912 142.996 111.237 142.689 111.65 142.47C112.062 142.247 112.534 142.135 113.066 142.135C113.572 142.135 114.025 142.25 114.427 142.481C114.828 142.708 115.144 143.02 115.375 143.418C115.609 143.816 115.726 144.269 115.726 144.779C115.726 145.147 115.678 145.459 115.581 145.716C115.485 145.972 115.34 146.21 115.146 146.429C114.953 146.649 114.711 146.887 114.421 147.143L111.722 149.552L111.594 149.218H115.726V150.328H110.294ZM119.824 150.501C119.304 150.501 118.835 150.378 118.419 150.132C118.003 149.883 117.672 149.543 117.426 149.112C117.185 148.681 117.064 148.19 117.064 147.64V145.08C117.064 144.496 117.185 143.983 117.426 143.541C117.672 143.098 118.01 142.754 118.441 142.509C118.876 142.263 119.376 142.141 119.942 142.141C120.365 142.141 120.763 142.221 121.135 142.381C121.507 142.54 121.828 142.778 122.1 143.094L121.247 143.892C121.094 143.695 120.903 143.539 120.672 143.423C120.445 143.304 120.202 143.245 119.942 143.245C119.607 143.245 119.313 143.325 119.06 143.485C118.808 143.641 118.609 143.847 118.464 144.104C118.322 144.36 118.252 144.635 118.252 144.929V146.402L118.023 146.145C118.254 145.844 118.54 145.606 118.882 145.431C119.224 145.256 119.59 145.169 119.981 145.169C120.479 145.169 120.923 145.286 121.313 145.52C121.708 145.751 122.016 146.065 122.239 146.463C122.466 146.861 122.579 147.309 122.579 147.807C122.579 148.309 122.453 148.764 122.2 149.173C121.951 149.579 121.616 149.902 121.196 150.144C120.78 150.382 120.323 150.501 119.824 150.501ZM119.824 149.38C120.114 149.38 120.378 149.309 120.616 149.168C120.854 149.026 121.044 148.837 121.185 148.599C121.326 148.361 121.397 148.097 121.397 147.807C121.397 147.517 121.326 147.253 121.185 147.015C121.048 146.777 120.86 146.587 120.622 146.446C120.384 146.305 120.12 146.234 119.83 146.234C119.54 146.234 119.274 146.305 119.032 146.446C118.795 146.587 118.605 146.777 118.464 147.015C118.322 147.253 118.252 147.517 118.252 147.807C118.252 148.093 118.322 148.355 118.464 148.593C118.605 148.831 118.795 149.023 119.032 149.168C119.27 149.309 119.534 149.38 119.824 149.38ZM126.791 150.501C126.244 150.501 125.761 150.382 125.341 150.144C124.921 149.902 124.59 149.571 124.348 149.151C124.11 148.731 123.991 148.247 123.991 147.701V144.935C123.991 144.388 124.11 143.905 124.348 143.485C124.59 143.065 124.921 142.736 125.341 142.498C125.761 142.256 126.244 142.135 126.791 142.135C127.338 142.135 127.821 142.256 128.241 142.498C128.661 142.736 128.99 143.065 129.228 143.485C129.47 143.905 129.591 144.388 129.591 144.935V147.701C129.591 148.247 129.47 148.731 129.228 149.151C128.99 149.571 128.661 149.902 128.241 150.144C127.821 150.382 127.338 150.501 126.791 150.501ZM126.791 149.385C127.088 149.385 127.358 149.315 127.6 149.173C127.845 149.028 128.04 148.835 128.185 148.593C128.33 148.348 128.403 148.075 128.403 147.773V144.851C128.403 144.554 128.33 144.284 128.185 144.042C128.04 143.797 127.845 143.604 127.6 143.462C127.358 143.317 127.088 143.245 126.791 143.245C126.494 143.245 126.222 143.317 125.977 143.462C125.735 143.604 125.542 143.797 125.397 144.042C125.252 144.284 125.179 144.554 125.179 144.851V147.773C125.179 148.075 125.252 148.348 125.397 148.593C125.542 148.835 125.735 149.028 125.977 149.173C126.222 149.315 126.494 149.385 126.791 149.385Z" fill="white"/>
<path d="M66.2 93.28V94.64C67.7 94.68 69.44 95.16 70.68 96.16C70.04 96.9 69.4 97.62 68.74 98.34C68.08 97.68 67.04 97.28 66.2 97.26V100.46C68.26 101.08 70.74 101.96 70.74 104.82C70.74 107.74 68.46 109.12 66.12 109.2V110.66H64.64V109.2C62.92 109.14 61.02 108.54 59.7 107.36C60.4 106.64 61.12 105.9 61.8 105.16C62.52 105.94 63.76 106.52 64.64 106.54V103.04C62.34 102.42 60.28 101.54 60.28 98.86C60.28 96.24 62.64 94.76 64.74 94.66V93.28H66.2ZM64.74 100.12V97.22C64.02 97.3 63.34 97.76 63.34 98.64C63.34 99.48 63.9 99.9 64.74 100.12ZM66.12 103.4V106.56C67.02 106.52 67.58 105.92 67.58 105C67.58 104.08 66.96 103.66 66.12 103.4ZM80.9497 109H77.5897V98.6L74.9497 100.64L73.2097 98.26L77.8697 94.84H80.9497V109ZM96.6394 104.96C96.6394 107.94 94.1194 109.38 91.3194 109.38C88.5194 109.38 85.9994 107.96 85.9994 104.98C85.9994 103.26 87.1594 102.04 88.5394 101.6V101.56C87.3194 101.1 86.3794 100.06 86.3794 98.5C86.3794 95.88 88.6994 94.46 91.3194 94.46C93.9194 94.46 96.2594 95.82 96.2594 98.44C96.2594 100 95.3594 101.12 94.0994 101.54V101.6C95.5194 102 96.6394 103.3 96.6394 104.96ZM93.0194 98.68C93.0194 97.76 92.2594 97.06 91.3194 97.06C90.3194 97.06 89.6394 97.76 89.6394 98.68C89.6394 99.58 90.2794 100.36 91.3194 100.36C92.2994 100.36 93.0194 99.58 93.0194 98.68ZM93.2794 104.84C93.2794 103.76 92.4594 102.92 91.3194 102.92C90.1594 102.92 89.3394 103.74 89.3394 104.84C89.3394 105.98 90.1594 106.72 91.3194 106.72C92.4794 106.72 93.2794 105.98 93.2794 104.84ZM102.829 105.8L100.889 111.48H98.1891L99.6891 105.8H102.829ZM115.445 104.88C115.445 107.98 112.705 109.38 110.105 109.38C107.525 109.38 105.185 108.26 104.425 105.62L107.545 104.8C107.805 105.74 108.665 106.56 109.945 106.56C110.905 106.56 112.005 106.08 112.005 104.76C112.005 103.32 110.525 102.9 109.125 102.9H108.225V100.44H109.205C110.465 100.44 111.685 100.12 111.685 98.76C111.685 97.74 110.825 97.2 109.905 97.2C108.945 97.2 108.185 97.82 107.965 98.78L104.845 98.06C105.525 95.68 107.765 94.46 110.125 94.46C112.625 94.46 115.105 95.74 115.105 98.46C115.105 100.02 114.105 101.18 112.725 101.54V101.6C114.325 101.98 115.445 103.3 115.445 104.88ZM128.955 106.24H127.015V109H123.875V106.24H117.215V103.42L122.975 94.84H126.995V103.52H128.955V106.24ZM123.895 103.52V98.28H123.835L120.475 103.52H123.895ZM141.285 104.32C141.285 107.76 138.605 109.38 135.825 109.38C133.245 109.38 131.105 108.02 130.445 105.78L133.505 104.84C133.805 105.82 134.685 106.54 135.785 106.54C136.925 106.54 137.905 105.84 137.905 104.48C137.905 102.8 136.385 102.32 135.005 102.32C134.005 102.32 132.545 102.58 131.545 102.94L131.885 94.84H140.565V97.72H134.865L134.745 99.96C135.165 99.86 135.745 99.82 136.165 99.82C139.005 99.82 141.285 101.34 141.285 104.32Z" fill="#18120F"/>
<path d="M61.988 76.652L60.602 80H59.18L64.688 67.256H65.948L71.42 80H69.98L68.576 76.652H61.988ZM65.282 68.696L62.474 75.464H68.09L65.282 68.696ZM80.1535 78.578C79.4335 79.64 78.1735 80.216 76.9675 80.216C74.3395 80.216 72.6115 78.272 72.6115 75.788C72.6115 73.304 74.3395 71.36 76.9675 71.36C78.1735 71.36 79.4335 71.936 80.1535 73.034H80.1895V66.392H81.4135V80H80.1895V78.578H80.1535ZM73.9075 75.788C73.9075 77.66 75.0595 79.172 77.0935 79.172C78.9835 79.172 80.3335 77.714 80.3335 75.788C80.3335 73.862 78.9835 72.386 77.0935 72.386C75.0595 72.386 73.9075 73.916 73.9075 75.788ZM96.4565 68.48L95.4305 69.308C94.8905 68.534 94.0085 68.03 92.8025 68.03C91.5425 68.03 90.0845 68.786 90.0845 70.424C90.0845 72.044 91.4345 72.458 92.8565 72.926C94.6565 73.52 96.6365 74.096 96.6365 76.652C96.6365 79.208 94.4945 80.324 92.4785 80.324C90.9305 80.324 89.3825 79.694 88.4645 78.434L89.5805 77.606C90.1385 78.506 91.1645 79.208 92.4965 79.208C93.8105 79.208 95.3225 78.38 95.3225 76.742C95.3225 74.96 93.8285 74.51 92.2085 74.006C90.5165 73.484 88.7885 72.746 88.7885 70.442C88.7885 67.976 90.9845 66.932 92.8565 66.932C94.5665 66.932 95.8445 67.652 96.4565 68.48ZM100.569 78.578V84.32H99.3446V71.576H100.569V73.034H100.623C101.325 71.936 102.585 71.36 103.791 71.36C106.419 71.36 108.147 73.304 108.147 75.788C108.147 78.272 106.419 80.216 103.791 80.216C102.585 80.216 101.325 79.622 100.623 78.578H100.569ZM106.851 75.788C106.851 73.916 105.699 72.386 103.665 72.386C101.775 72.386 100.425 73.862 100.425 75.788C100.425 77.714 101.775 79.172 103.665 79.172C105.699 79.172 106.851 77.66 106.851 75.788ZM111.454 75.14H117.196C117.124 73.556 116.152 72.386 114.406 72.386C112.768 72.386 111.562 73.7 111.454 75.14ZM118.438 75.536C118.438 75.698 118.438 75.896 118.42 76.112H111.436C111.472 77.804 112.786 79.172 114.514 79.172C115.774 79.172 116.746 78.47 117.214 77.714L118.132 78.434C117.142 79.694 115.9 80.216 114.514 80.216C112.012 80.216 110.158 78.326 110.158 75.788C110.158 73.25 112.012 71.36 114.406 71.36C117.052 71.36 118.438 73.232 118.438 75.536ZM120.999 71.576H122.169C122.205 72.026 122.241 72.656 122.241 73.016H122.277C122.745 72.044 123.969 71.36 125.157 71.36C127.299 71.36 128.361 72.746 128.361 74.834V80H127.137V75.338C127.137 73.574 126.615 72.386 124.851 72.386C123.555 72.386 122.295 73.43 122.295 75.68V80H121.071V73.43C121.071 72.98 121.053 72.152 120.999 71.576ZM138.46 78.578C137.74 79.64 136.48 80.216 135.274 80.216C132.646 80.216 130.918 78.272 130.918 75.788C130.918 73.304 132.646 71.36 135.274 71.36C136.48 71.36 137.74 71.936 138.46 73.034H138.496V66.392H139.72V80H138.496V78.578H138.46ZM132.214 75.788C132.214 77.66 133.366 79.172 135.4 79.172C137.29 79.172 138.64 77.714 138.64 75.788C138.64 73.862 137.29 72.386 135.4 72.386C133.366 72.386 132.214 73.916 132.214 75.788ZM148.715 78.578V84.32H147.491V71.576H148.715V73.034H148.769C149.471 71.936 150.731 71.36 151.937 71.36C154.565 71.36 156.293 73.304 156.293 75.788C156.293 78.272 154.565 80.216 151.937 80.216C150.731 80.216 149.471 79.622 148.769 78.578H148.715ZM154.997 75.788C154.997 73.916 153.845 72.386 151.811 72.386C149.921 72.386 148.571 73.862 148.571 75.788C148.571 77.714 149.921 79.172 151.811 79.172C153.845 79.172 154.997 77.66 154.997 75.788ZM159.601 75.14H165.343C165.271 73.556 164.299 72.386 162.553 72.386C160.915 72.386 159.709 73.7 159.601 75.14ZM166.585 75.536C166.585 75.698 166.585 75.896 166.567 76.112H159.583C159.619 77.804 160.933 79.172 162.661 79.172C163.921 79.172 164.893 78.47 165.361 77.714L166.279 78.434C165.289 79.694 164.047 80.216 162.661 80.216C160.159 80.216 158.305 78.326 158.305 75.788C158.305 73.25 160.159 71.36 162.553 71.36C165.199 71.36 166.585 73.232 166.585 75.536ZM169.218 73.43C169.218 72.98 169.2 72.152 169.146 71.576H170.316C170.352 72.026 170.388 72.656 170.388 73.016H170.424C170.892 72.044 171.936 71.36 173.124 71.36C173.43 71.36 173.682 71.378 173.934 71.45L173.772 72.602C173.628 72.548 173.232 72.494 172.908 72.494C171.612 72.494 170.442 73.43 170.442 75.68V80H169.218V73.43ZM180.276 80V67.256H183.876C186.468 67.256 188.178 68.372 188.178 70.658C188.178 72.944 186.432 74.078 183.84 74.078H181.572V80H180.276ZM181.572 68.372V72.98H183.768C185.784 72.98 186.882 72.17 186.882 70.658C186.882 69.092 185.73 68.372 183.768 68.372H181.572ZM191.905 66.392V80H190.681V66.392H191.905ZM200.491 74.834V74.564C200.491 73.106 199.699 72.386 198.241 72.386C197.251 72.386 196.333 72.782 195.739 73.376L195.055 72.566C195.739 71.882 196.927 71.36 198.367 71.36C200.185 71.36 201.643 72.368 201.643 74.42V78.11C201.643 78.758 201.697 79.532 201.787 80H200.689C200.617 79.586 200.563 79.082 200.563 78.632H200.527C199.753 79.748 198.817 80.216 197.467 80.216C196.189 80.216 194.551 79.532 194.551 77.66C194.551 75.068 197.413 74.834 200.491 74.834ZM200.491 75.788H200.131C198.133 75.788 195.811 76.004 195.811 77.606C195.811 78.812 196.837 79.208 197.791 79.208C199.519 79.208 200.491 77.912 200.491 76.418V75.788ZM208.418 71.576V72.602H206.042V77.516C206.042 78.776 206.564 79.064 207.302 79.064C207.644 79.064 208.04 78.956 208.364 78.794L208.418 79.856C207.986 80.018 207.536 80.108 206.978 80.108C206.078 80.108 204.818 79.712 204.818 77.858V72.602H203.072V71.576H204.818V69.2H206.042V71.576H208.418ZM213.897 71.576V72.602H211.917V80H210.693V72.602H208.929V71.576H210.693V69.272C210.693 67.364 211.629 66.176 213.555 66.176C213.861 66.176 214.257 66.212 214.563 66.302L214.347 67.382C214.095 67.31 213.825 67.256 213.501 67.256C212.187 67.256 211.917 68.192 211.917 69.416V71.576H213.897ZM224.011 75.788C224.011 78.326 222.139 80.216 219.511 80.216C216.901 80.216 215.029 78.326 215.029 75.788C215.029 73.25 216.901 71.36 219.511 71.36C222.139 71.36 224.011 73.25 224.011 75.788ZM222.715 75.788C222.715 73.898 221.473 72.386 219.511 72.386C217.567 72.386 216.325 73.898 216.325 75.788C216.325 77.678 217.567 79.172 219.511 79.172C221.473 79.172 222.715 77.678 222.715 75.788ZM226.645 73.43C226.645 72.98 226.627 72.152 226.573 71.576H227.743C227.779 72.026 227.815 72.656 227.815 73.016H227.851C228.319 72.044 229.363 71.36 230.551 71.36C230.857 71.36 231.109 71.378 231.361 71.45L231.199 72.602C231.055 72.548 230.659 72.494 230.335 72.494C229.039 72.494 227.869 73.43 227.869 75.68V80H226.645V73.43ZM234.338 73.016C234.824 72.044 235.904 71.36 237.11 71.36C238.028 71.36 239.144 71.702 239.702 73.142C240.278 71.99 241.304 71.36 242.654 71.36C244.796 71.36 245.858 72.746 245.858 74.834V80H244.634V75.338C244.634 73.574 244.04 72.386 242.456 72.386C240.692 72.386 240.062 73.952 240.062 75.518V80H238.838V75.086C238.838 73.448 238.442 72.386 236.804 72.386C235.634 72.386 234.356 73.43 234.356 75.68V80H233.132V73.43C233.132 72.98 233.114 72.152 233.06 71.576H234.23C234.266 72.026 234.302 72.656 234.302 73.016H234.338Z" fill="black"/>
</g>
</g>
<defs>
<filter id="filter0_d_505_3027" x="0" y="0" width="393" height="442" filterUnits="userSpaceOnUse" color-interpolation-filters="sRGB">
<feFlood flood-opacity="0" result="BackgroundImageFix"/>
<feColorMatrix in="SourceAlpha" type="matrix" values="0 0 0 0 0 0 0 0 0 0 0 0 0 0 0 0 0 0 127 0" result="hardAlpha"/>
<feOffset dy="5"/>
<feGaussianBlur stdDeviation="20"/>
<feComposite in2="hardAlpha" operator="out"/>
<feColorMatrix type="matrix" values="0 0 0 0 0 0 0 0 0 0.105882 0 0 0 0 0.419608 0 0 0 0.08 0"/>
<feBlend mode="normal" in2="BackgroundImageFix" result="effect1_dropShadow_505_3027"/>
<feBlend mode="normal" in="SourceGraphic" in2="effect1_dropShadow_505_3027" result="shape"/>
</filter>
<linearGradient id="paint0_linear_505_3027" x1="168.288" y1="369.723" x2="186.876" y2="353.635" gradientUnits="userSpaceOnUse">
<stop stop-color="#FFDD55"/>
<stop offset="0.5" stop-color="#FF543E"/>
<stop offset="1" stop-color="#C837AB"/>
</linearGradient>
<clipPath id="clip0_505_3027">
<rect x="40" y="35" width="313" height="362" rx="16.76" fill="white"/>
</clipPath>
<clipPath id="clip1_505_3027">
<rect width="20" height="20" fill="white" transform="translate(290 351)"/>
</clipPath>
<clipPath id="clip2_505_3027">
<rect width="20" height="20" fill="white" transform="translate(167 351)"/>
</clipPath>
<clipPath id="clip3_505_3027">
<rect width="20" height="20" fill="white" transform="translate(227 351)"/>
</clipPath>
<clipPath id="clip4_505_3027">
<rect width="15" height="200" fill="white" transform="translate(64 144)"/>
</clipPath>
<clipPath id="clip5_505_3027">
<rect width="420" height="186.5" fill="white" transform="translate(96 154)"/>
</clipPath>
</defs>
</svg>
