<svg width="486" height="444" viewBox="0 0 486 444" fill="none" xmlns="http://www.w3.org/2000/svg">
<rect x="0.5" y="0.5" width="485" height="443" rx="9.5" fill="white" stroke="#EAEAEA"/>
<path d="M183.88 50.06C185.4 50.06 186.713 50.3467 187.82 50.92C188.94 51.48 189.793 52.2867 190.38 53.34C190.98 54.3933 191.28 55.6333 191.28 57.06C191.28 58.4867 190.98 59.7267 190.38 60.78C189.793 61.82 188.94 62.62 187.82 63.18C186.713 63.7267 185.4 64 183.88 64H179.54V50.06H183.88ZM183.88 62.5C185.68 62.5 187.053 62.0267 188 61.08C188.947 60.12 189.42 58.78 189.42 57.06C189.42 55.3267 188.94 53.9733 187.98 53C187.033 52.0267 185.667 51.54 183.88 51.54H181.36V62.5H183.88ZM204.681 58.1C204.681 58.4467 204.661 58.8133 204.621 59.2H195.861C195.927 60.28 196.294 61.1267 196.961 61.74C197.641 62.34 198.461 62.64 199.421 62.64C200.207 62.64 200.861 62.46 201.381 62.1C201.914 61.7267 202.287 61.2333 202.501 60.62H204.461C204.167 61.6733 203.581 62.5333 202.701 63.2C201.821 63.8533 200.727 64.18 199.421 64.18C198.381 64.18 197.447 63.9467 196.621 63.48C195.807 63.0133 195.167 62.3533 194.701 61.5C194.234 60.6333 194.001 59.6333 194.001 58.5C194.001 57.3667 194.227 56.3733 194.681 55.52C195.134 54.6667 195.767 54.0133 196.581 53.56C197.407 53.0933 198.354 52.86 199.421 52.86C200.461 52.86 201.381 53.0867 202.181 53.54C202.981 53.9933 203.594 54.62 204.021 55.42C204.461 56.2067 204.681 57.1 204.681 58.1ZM202.801 57.72C202.801 57.0267 202.647 56.4333 202.341 55.94C202.034 55.4333 201.614 55.0533 201.081 54.8C200.561 54.5333 199.981 54.4 199.341 54.4C198.421 54.4 197.634 54.6933 196.981 55.28C196.341 55.8667 195.974 56.68 195.881 57.72H202.801ZM212.163 62.32L215.563 53.04H217.503L213.203 64H211.083L206.783 53.04H208.743L212.163 62.32ZM221.234 51.26C220.887 51.26 220.594 51.14 220.354 50.9C220.114 50.66 219.994 50.3667 219.994 50.02C219.994 49.6733 220.114 49.38 220.354 49.14C220.594 48.9 220.887 48.78 221.234 48.78C221.567 48.78 221.847 48.9 222.074 49.14C222.314 49.38 222.434 49.6733 222.434 50.02C222.434 50.3667 222.314 50.66 222.074 50.9C221.847 51.14 221.567 51.26 221.234 51.26ZM222.114 53.04V64H220.294V53.04H222.114ZM225.536 58.5C225.536 57.3667 225.762 56.38 226.216 55.54C226.669 54.6867 227.296 54.0267 228.096 53.56C228.909 53.0933 229.836 52.86 230.876 52.86C232.222 52.86 233.329 53.1867 234.196 53.84C235.076 54.4933 235.656 55.4 235.936 56.56H233.976C233.789 55.8933 233.422 55.3667 232.876 54.98C232.342 54.5933 231.676 54.4 230.876 54.4C229.836 54.4 228.996 54.76 228.356 55.48C227.716 56.1867 227.396 57.1933 227.396 58.5C227.396 59.82 227.716 60.84 228.356 61.56C228.996 62.28 229.836 62.64 230.876 62.64C231.676 62.64 232.342 62.4533 232.876 62.08C233.409 61.7067 233.776 61.1733 233.976 60.48H235.936C235.642 61.6 235.056 62.5 234.176 63.18C233.296 63.8467 232.196 64.18 230.876 64.18C229.836 64.18 228.909 63.9467 228.096 63.48C227.296 63.0133 226.669 62.3533 226.216 61.5C225.762 60.6467 225.536 59.6467 225.536 58.5ZM249.364 58.1C249.364 58.4467 249.344 58.8133 249.304 59.2H240.544C240.611 60.28 240.978 61.1267 241.644 61.74C242.324 62.34 243.144 62.64 244.104 62.64C244.891 62.64 245.544 62.46 246.064 62.1C246.598 61.7267 246.971 61.2333 247.184 60.62H249.144C248.851 61.6733 248.264 62.5333 247.384 63.2C246.504 63.8533 245.411 64.18 244.104 64.18C243.064 64.18 242.131 63.9467 241.304 63.48C240.491 63.0133 239.851 62.3533 239.384 61.5C238.918 60.6333 238.684 59.6333 238.684 58.5C238.684 57.3667 238.911 56.3733 239.364 55.52C239.818 54.6667 240.451 54.0133 241.264 53.56C242.091 53.0933 243.038 52.86 244.104 52.86C245.144 52.86 246.064 53.0867 246.864 53.54C247.664 53.9933 248.278 54.62 248.704 55.42C249.144 56.2067 249.364 57.1 249.364 58.1ZM247.484 57.72C247.484 57.0267 247.331 56.4333 247.024 55.94C246.718 55.4333 246.298 55.0533 245.764 54.8C245.244 54.5333 244.664 54.4 244.024 54.4C243.104 54.4 242.318 54.6933 241.664 55.28C241.024 55.8667 240.658 56.68 240.564 57.72H247.484ZM267.679 50.06V51.54H263.879V64H262.059V51.54H258.239V50.06H267.679ZM280.359 53.04L273.759 69.16H271.879L274.039 63.88L269.619 53.04H271.639L275.079 61.92L278.479 53.04H280.359ZM285.008 55.06C285.368 54.4333 285.902 53.9133 286.608 53.5C287.328 53.0733 288.162 52.86 289.108 52.86C290.082 52.86 290.962 53.0933 291.748 53.56C292.548 54.0267 293.175 54.6867 293.628 55.54C294.082 56.38 294.308 57.36 294.308 58.48C294.308 59.5867 294.082 60.5733 293.628 61.44C293.175 62.3067 292.548 62.98 291.748 63.46C290.962 63.94 290.082 64.18 289.108 64.18C288.175 64.18 287.348 63.9733 286.628 63.56C285.922 63.1333 285.382 62.6067 285.008 61.98V69.2H283.188V53.04H285.008V55.06ZM292.448 58.48C292.448 57.6533 292.282 56.9333 291.948 56.32C291.615 55.7067 291.162 55.24 290.588 54.92C290.028 54.6 289.408 54.44 288.728 54.44C288.062 54.44 287.442 54.6067 286.868 54.94C286.308 55.26 285.855 55.7333 285.508 56.36C285.175 56.9733 285.008 57.6867 285.008 58.5C285.008 59.3267 285.175 60.0533 285.508 60.68C285.855 61.2933 286.308 61.7667 286.868 62.1C287.442 62.42 288.062 62.58 288.728 62.58C289.408 62.58 290.028 62.42 290.588 62.1C291.162 61.7667 291.615 61.2933 291.948 60.68C292.282 60.0533 292.448 59.32 292.448 58.48ZM307.704 58.1C307.704 58.4467 307.684 58.8133 307.644 59.2H298.884C298.951 60.28 299.317 61.1267 299.984 61.74C300.664 62.34 301.484 62.64 302.444 62.64C303.231 62.64 303.884 62.46 304.404 62.1C304.937 61.7267 305.311 61.2333 305.524 60.62H307.484C307.191 61.6733 306.604 62.5333 305.724 63.2C304.844 63.8533 303.751 64.18 302.444 64.18C301.404 64.18 300.471 63.9467 299.644 63.48C298.831 63.0133 298.191 62.3533 297.724 61.5C297.257 60.6333 297.024 59.6333 297.024 58.5C297.024 57.3667 297.251 56.3733 297.704 55.52C298.157 54.6667 298.791 54.0133 299.604 53.56C300.431 53.0933 301.377 52.86 302.444 52.86C303.484 52.86 304.404 53.0867 305.204 53.54C306.004 53.9933 306.617 54.62 307.044 55.42C307.484 56.2067 307.704 57.1 307.704 58.1ZM305.824 57.72C305.824 57.0267 305.671 56.4333 305.364 55.94C305.057 55.4333 304.637 55.0533 304.104 54.8C303.584 54.5333 303.004 54.4 302.364 54.4C301.444 54.4 300.657 54.6933 300.004 55.28C299.364 55.8667 298.997 56.68 298.904 57.72H305.824Z" fill="#282636"/>
<path d="M59.112 262.312C60.04 262.312 60.8133 262.632 61.432 263.272C62.04 263.901 62.344 264.867 62.344 266.168L62.344 268.312L67 268.312L67 269.768L55.848 269.768L55.848 266.168C55.848 264.909 56.152 263.955 56.76 263.304C57.368 262.643 58.152 262.312 59.112 262.312ZM61.144 266.168C61.144 265.357 60.968 264.76 60.616 264.376C60.264 263.992 59.7627 263.8 59.112 263.8C57.736 263.8 57.048 264.589 57.048 266.168L57.048 268.312L61.144 268.312L61.144 266.168ZM62.28 252.502C62.5573 252.502 62.8507 252.518 63.16 252.55L63.16 259.558C64.024 259.505 64.7013 259.212 65.192 258.678C65.672 258.134 65.912 257.478 65.912 256.71C65.912 256.081 65.768 255.558 65.48 255.142C65.1813 254.716 64.7867 254.417 64.296 254.246L64.296 252.678C65.1387 252.913 65.8267 253.382 66.36 254.086C66.8827 254.79 67.144 255.665 67.144 256.71C67.144 257.542 66.9573 258.289 66.584 258.95C66.2107 259.601 65.6827 260.113 65 260.486C64.3067 260.86 63.5067 261.046 62.6 261.046C61.6933 261.046 60.8987 260.865 60.216 260.502C59.5333 260.14 59.0107 259.633 58.648 258.982C58.2747 258.321 58.088 257.564 58.088 256.71C58.088 255.878 58.2693 255.142 58.632 254.502C58.9947 253.862 59.496 253.372 60.136 253.03C60.7653 252.678 61.48 252.502 62.28 252.502ZM61.976 254.006C61.4213 254.006 60.9467 254.129 60.552 254.374C60.1467 254.62 59.8427 254.956 59.64 255.382C59.4267 255.798 59.32 256.262 59.32 256.774C59.32 257.51 59.5547 258.14 60.024 258.662C60.4933 259.174 61.144 259.468 61.976 259.542L61.976 254.006ZM59.656 249.124C59.1547 248.868 58.7653 248.506 58.488 248.036C58.2107 247.556 58.072 246.975 58.072 246.292L59.576 246.292L59.576 246.676C59.576 248.308 60.4613 249.124 62.232 249.124L67 249.124L67 250.58L58.232 250.58L58.232 249.124L59.656 249.124ZM62.6 245.156C61.6933 245.156 60.904 244.974 60.232 244.612C59.5493 244.249 59.0213 243.748 58.648 243.108C58.2747 242.457 58.088 241.716 58.088 240.884C58.088 239.806 58.3493 238.921 58.872 238.228C59.3947 237.524 60.12 237.06 61.048 236.836L61.048 238.404C60.5147 238.553 60.0933 238.846 59.784 239.284C59.4747 239.71 59.32 240.244 59.32 240.884C59.32 241.716 59.608 242.388 60.184 242.9C60.7493 243.412 61.5547 243.668 62.6 243.668C63.656 243.668 64.472 243.412 65.048 242.9C65.624 242.388 65.912 241.716 65.912 240.884C65.912 240.244 65.7627 239.71 65.464 239.284C65.1653 238.857 64.7387 238.564 64.184 238.404L64.184 236.836C65.08 237.07 65.8 237.54 66.344 238.244C66.8773 238.948 67.144 239.828 67.144 240.884C67.144 241.716 66.9573 242.457 66.584 243.108C66.2107 243.748 65.6827 244.249 65 244.612C64.3173 244.974 63.5173 245.156 62.6 245.156ZM62.28 226.893C62.5573 226.893 62.8507 226.909 63.16 226.941L63.16 233.949C64.024 233.896 64.7013 233.602 65.192 233.069C65.672 232.525 65.912 231.869 65.912 231.101C65.912 230.472 65.768 229.949 65.48 229.533C65.1813 229.106 64.7867 228.808 64.296 228.637L64.296 227.069C65.1387 227.304 65.8267 227.773 66.36 228.477C66.8827 229.181 67.144 230.056 67.144 231.101C67.144 231.933 66.9573 232.68 66.584 233.341C66.2107 233.992 65.6827 234.504 65 234.877C64.3067 235.25 63.5067 235.437 62.6 235.437C61.6933 235.437 60.8987 235.256 60.216 234.893C59.5333 234.53 59.0107 234.024 58.648 233.373C58.2747 232.712 58.088 231.954 58.088 231.101C58.088 230.269 58.2693 229.533 58.632 228.893C58.9947 228.253 59.496 227.762 60.136 227.421C60.7653 227.069 61.48 226.893 62.28 226.893ZM61.976 228.397C61.4213 228.397 60.9467 228.52 60.552 228.765C60.1467 229.01 59.8427 229.346 59.64 229.773C59.4267 230.189 59.32 230.653 59.32 231.165C59.32 231.901 59.5547 232.53 60.024 233.053C60.4933 233.565 61.144 233.858 61.976 233.933L61.976 228.397ZM58.072 220.699C58.072 219.632 58.3973 218.768 59.048 218.107C59.688 217.446 60.616 217.115 61.832 217.115L67 217.115L67 218.555L62.04 218.555C61.1653 218.555 60.4987 218.774 60.04 219.211C59.5707 219.648 59.336 220.246 59.336 221.003C59.336 221.771 59.576 222.384 60.056 222.843C60.536 223.291 61.2347 223.515 62.152 223.515L67 223.515L67 224.971L58.232 224.971L58.232 223.515L59.48 223.515C59.032 223.227 58.6853 222.838 58.44 222.347C58.1947 221.846 58.072 221.296 58.072 220.699ZM59.432 212.961L64.6 212.961C65.0267 212.961 65.3307 212.87 65.512 212.689C65.6827 212.507 65.768 212.193 65.768 211.745L65.768 210.673L67 210.673L67 211.985C67 212.795 66.8133 213.403 66.44 213.809C66.0667 214.214 65.4533 214.417 64.6 214.417L59.432 214.417L59.432 215.553L58.232 215.553L58.232 214.417L56.024 214.417L56.024 212.961L58.232 212.961L58.232 210.673L59.432 210.673L59.432 212.961ZM62.584 209.453C61.688 209.453 60.904 209.271 60.232 208.909C59.5493 208.546 59.0213 208.05 58.648 207.421C58.2747 206.781 58.088 206.071 58.088 205.293C58.088 204.525 58.2533 203.858 58.584 203.293C58.9147 202.727 59.3307 202.306 59.832 202.029L58.232 202.029L58.232 200.557L67 200.557L67 202.029L65.368 202.029C65.88 202.317 66.3067 202.749 66.648 203.325C66.9787 203.89 67.144 204.551 67.144 205.309C67.144 206.087 66.952 206.791 66.568 207.421C66.184 208.05 65.6453 208.546 64.952 208.909C64.2587 209.271 63.4693 209.453 62.584 209.453ZM62.6 202.029C61.9387 202.029 61.3627 202.162 60.872 202.429C60.3813 202.695 60.008 203.058 59.752 203.517C59.4853 203.965 59.352 204.461 59.352 205.005C59.352 205.549 59.48 206.045 59.736 206.493C59.992 206.941 60.3653 207.298 60.856 207.565C61.3467 207.831 61.9227 207.965 62.584 207.965C63.256 207.965 63.8427 207.831 64.344 207.565C64.8347 207.298 65.2133 206.941 65.48 206.493C65.736 206.045 65.864 205.549 65.864 205.005C65.864 204.461 65.736 203.965 65.48 203.517C65.2133 203.058 64.8347 202.695 64.344 202.429C63.8427 202.162 63.2613 202.029 62.6 202.029ZM58.088 194.48C58.088 193.723 58.2533 193.061 58.584 192.496C58.9147 191.92 59.3307 191.493 59.832 191.216L58.232 191.216L58.232 189.744L67.192 189.744C67.992 189.744 68.7013 189.915 69.32 190.256C69.9493 190.597 70.44 191.088 70.792 191.728C71.144 192.357 71.32 193.093 71.32 193.936C71.32 195.088 71.048 196.048 70.504 196.816C69.96 197.584 69.2187 198.037 68.28 198.176L68.28 196.736C68.8133 196.576 69.24 196.245 69.56 195.744C69.8907 195.243 70.056 194.64 70.056 193.936C70.056 193.136 69.8053 192.485 69.304 191.984C68.8027 191.472 68.0987 191.216 67.192 191.216L65.352 191.216C65.864 191.504 66.2907 191.931 66.632 192.496C66.9733 193.061 67.144 193.723 67.144 194.48C67.144 195.259 66.952 195.968 66.568 196.608C66.184 197.237 65.6453 197.733 64.952 198.096C64.2587 198.459 63.4693 198.64 62.584 198.64C61.688 198.64 60.904 198.459 60.232 198.096C59.5493 197.733 59.0213 197.237 58.648 196.608C58.2747 195.968 58.088 195.259 58.088 194.48ZM62.6 191.216C61.9387 191.216 61.3627 191.349 60.872 191.616C60.3813 191.883 60.008 192.245 59.752 192.704C59.4853 193.152 59.352 193.648 59.352 194.192C59.352 194.736 59.48 195.232 59.736 195.68C59.992 196.128 60.3653 196.485 60.856 196.752C61.3467 197.019 61.9227 197.152 62.584 197.152C63.256 197.152 63.8427 197.019 64.344 196.752C64.8347 196.485 65.2133 196.128 65.48 195.68C65.736 195.232 65.864 194.736 65.864 194.192C65.864 193.648 65.736 193.152 65.48 192.704C65.2133 192.245 64.8347 191.883 64.344 191.616C63.8427 191.349 63.2613 191.216 62.6 191.216ZM62.28 179.284C62.5573 179.284 62.8507 179.3 63.16 179.332L63.16 186.34C64.024 186.286 64.7013 185.993 65.192 185.46C65.672 184.916 65.912 184.26 65.912 183.492C65.912 182.862 65.768 182.34 65.48 181.924C65.1813 181.497 64.7867 181.198 64.296 181.028L64.296 179.46C65.1387 179.694 65.8267 180.164 66.36 180.868C66.8827 181.572 67.144 182.446 67.144 183.492C67.144 184.324 66.9573 185.07 66.584 185.732C66.2107 186.382 65.6827 186.894 65 187.268C64.3067 187.641 63.5067 187.828 62.6 187.828C61.6933 187.828 60.8987 187.646 60.216 187.284C59.5333 186.921 59.0107 186.414 58.648 185.764C58.2747 185.102 58.088 184.345 58.088 183.492C58.088 182.66 58.2693 181.924 58.632 181.284C58.9947 180.644 59.496 180.153 60.136 179.812C60.7653 179.46 61.48 179.284 62.28 179.284ZM61.976 180.788C61.4213 180.788 60.9467 180.91 60.552 181.156C60.1467 181.401 59.8427 181.737 59.64 182.164C59.4267 182.58 59.32 183.044 59.32 183.556C59.32 184.292 59.5547 184.921 60.024 185.444C60.4933 185.956 61.144 186.249 61.976 186.324L61.976 180.788Z" fill="black"/>
<path d="M228.704 390.848C229.92 390.848 230.971 391.077 231.856 391.536C232.752 391.984 233.435 392.629 233.904 393.472C234.384 394.315 234.624 395.307 234.624 396.448C234.624 397.589 234.384 398.581 233.904 399.424C233.435 400.256 232.752 400.896 231.856 401.344C230.971 401.781 229.92 402 228.704 402H225.232V390.848H228.704ZM228.704 400.8C230.144 400.8 231.243 400.421 232 399.664C232.757 398.896 233.136 397.824 233.136 396.448C233.136 395.061 232.752 393.979 231.984 393.2C231.227 392.421 230.133 392.032 228.704 392.032H226.688V400.8H228.704ZM244.545 397.28C244.545 397.557 244.529 397.851 244.497 398.16H237.489C237.542 399.024 237.835 399.701 238.369 400.192C238.913 400.672 239.569 400.912 240.337 400.912C240.966 400.912 241.489 400.768 241.905 400.48C242.331 400.181 242.63 399.787 242.801 399.296H244.369C244.134 400.139 243.665 400.827 242.961 401.36C242.257 401.883 241.382 402.144 240.337 402.144C239.505 402.144 238.758 401.957 238.097 401.584C237.446 401.211 236.934 400.683 236.561 400C236.187 399.307 236.001 398.507 236.001 397.6C236.001 396.693 236.182 395.899 236.545 395.216C236.907 394.533 237.414 394.011 238.065 393.648C238.726 393.275 239.483 393.088 240.337 393.088C241.169 393.088 241.905 393.269 242.545 393.632C243.185 393.995 243.675 394.496 244.017 395.136C244.369 395.765 244.545 396.48 244.545 397.28ZM243.041 396.976C243.041 396.421 242.918 395.947 242.673 395.552C242.427 395.147 242.091 394.843 241.665 394.64C241.249 394.427 240.785 394.32 240.273 394.32C239.537 394.32 238.907 394.555 238.385 395.024C237.873 395.493 237.579 396.144 237.505 396.976H243.041ZM249.73 400.656L252.45 393.232H254.002L250.562 402H248.866L245.426 393.232H246.994L249.73 400.656ZM256.187 391.808C255.91 391.808 255.675 391.712 255.483 391.52C255.291 391.328 255.195 391.093 255.195 390.816C255.195 390.539 255.291 390.304 255.483 390.112C255.675 389.92 255.91 389.824 256.187 389.824C256.454 389.824 256.678 389.92 256.859 390.112C257.051 390.304 257.147 390.539 257.147 390.816C257.147 391.093 257.051 391.328 256.859 391.52C256.678 391.712 256.454 391.808 256.187 391.808ZM256.891 393.232V402H255.435V393.232H256.891ZM258.829 397.6C258.829 396.693 259.01 395.904 259.373 395.232C259.735 394.549 260.237 394.021 260.877 393.648C261.527 393.275 262.269 393.088 263.101 393.088C264.178 393.088 265.063 393.349 265.757 393.872C266.461 394.395 266.925 395.12 267.149 396.048H265.581C265.431 395.515 265.138 395.093 264.701 394.784C264.274 394.475 263.741 394.32 263.101 394.32C262.269 394.32 261.597 394.608 261.085 395.184C260.573 395.749 260.317 396.555 260.317 397.6C260.317 398.656 260.573 399.472 261.085 400.048C261.597 400.624 262.269 400.912 263.101 400.912C263.741 400.912 264.274 400.763 264.701 400.464C265.127 400.165 265.421 399.739 265.581 399.184H267.149C266.914 400.08 266.445 400.8 265.741 401.344C265.037 401.877 264.157 402.144 263.101 402.144C262.269 402.144 261.527 401.957 260.877 401.584C260.237 401.211 259.735 400.683 259.373 400C259.01 399.317 258.829 398.517 258.829 397.6ZM277.091 397.28C277.091 397.557 277.075 397.851 277.043 398.16H270.035C270.089 399.024 270.382 399.701 270.915 400.192C271.459 400.672 272.115 400.912 272.883 400.912C273.513 400.912 274.035 400.768 274.451 400.48C274.878 400.181 275.177 399.787 275.347 399.296H276.915C276.681 400.139 276.211 400.827 275.507 401.36C274.803 401.883 273.929 402.144 272.883 402.144C272.051 402.144 271.305 401.957 270.643 401.584C269.993 401.211 269.481 400.683 269.107 400C268.734 399.307 268.547 398.507 268.547 397.6C268.547 396.693 268.729 395.899 269.091 395.216C269.454 394.533 269.961 394.011 270.611 393.648C271.273 393.275 272.03 393.088 272.883 393.088C273.715 393.088 274.451 393.269 275.091 393.632C275.731 393.995 276.222 394.496 276.563 395.136C276.915 395.765 277.091 396.48 277.091 397.28ZM275.587 396.976C275.587 396.421 275.465 395.947 275.219 395.552C274.974 395.147 274.638 394.843 274.211 394.64C273.795 394.427 273.331 394.32 272.819 394.32C272.083 394.32 271.454 394.555 270.931 395.024C270.419 395.493 270.126 396.144 270.051 396.976H275.587ZM290.143 390.848V392.032H287.103V402H285.647V392.032H282.591V390.848H290.143ZM299.487 393.232L294.207 406.128H292.703L294.431 401.904L290.895 393.232H292.511L295.263 400.336L297.983 393.232H299.487ZM302.407 394.848C302.695 394.347 303.121 393.931 303.687 393.6C304.263 393.259 304.929 393.088 305.687 393.088C306.465 393.088 307.169 393.275 307.799 393.648C308.439 394.021 308.94 394.549 309.303 395.232C309.665 395.904 309.847 396.688 309.847 397.584C309.847 398.469 309.665 399.259 309.303 399.952C308.94 400.645 308.439 401.184 307.799 401.568C307.169 401.952 306.465 402.144 305.687 402.144C304.94 402.144 304.279 401.979 303.703 401.648C303.137 401.307 302.705 400.885 302.407 400.384V406.16H300.951V393.232H302.407V394.848ZM308.359 397.584C308.359 396.923 308.225 396.347 307.959 395.856C307.692 395.365 307.329 394.992 306.871 394.736C306.423 394.48 305.927 394.352 305.383 394.352C304.849 394.352 304.353 394.485 303.895 394.752C303.447 395.008 303.084 395.387 302.807 395.888C302.54 396.379 302.407 396.949 302.407 397.6C302.407 398.261 302.54 398.843 302.807 399.344C303.084 399.835 303.447 400.213 303.895 400.48C304.353 400.736 304.849 400.864 305.383 400.864C305.927 400.864 306.423 400.736 306.871 400.48C307.329 400.213 307.692 399.835 307.959 399.344C308.225 398.843 308.359 398.256 308.359 397.584ZM319.763 397.28C319.763 397.557 319.747 397.851 319.715 398.16H312.707C312.761 399.024 313.054 399.701 313.587 400.192C314.131 400.672 314.787 400.912 315.555 400.912C316.185 400.912 316.707 400.768 317.123 400.48C317.55 400.181 317.849 399.787 318.019 399.296H319.587C319.353 400.139 318.883 400.827 318.179 401.36C317.475 401.883 316.601 402.144 315.555 402.144C314.723 402.144 313.977 401.957 313.315 401.584C312.665 401.211 312.153 400.683 311.779 400C311.406 399.307 311.219 398.507 311.219 397.6C311.219 396.693 311.401 395.899 311.763 395.216C312.126 394.533 312.633 394.011 313.283 393.648C313.945 393.275 314.702 393.088 315.555 393.088C316.387 393.088 317.123 393.269 317.763 393.632C318.403 393.995 318.894 394.496 319.235 395.136C319.587 395.765 319.763 396.48 319.763 397.28ZM318.259 396.976C318.259 396.421 318.137 395.947 317.891 395.552C317.646 395.147 317.31 394.843 316.883 394.64C316.467 394.427 316.003 394.32 315.491 394.32C314.755 394.32 314.126 394.555 313.603 395.024C313.091 395.493 312.798 396.144 312.723 396.976H318.259Z" fill="black"/>
<path d="M84.611 140.19H81.491V141.57C81.6243 141.423 81.811 141.303 82.051 141.21C82.291 141.117 82.551 141.07 82.831 141.07C83.331 141.07 83.7443 141.183 84.071 141.41C84.4043 141.637 84.6477 141.93 84.801 142.29C84.9543 142.65 85.031 143.04 85.031 143.46C85.031 144.24 84.811 144.86 84.371 145.32C83.931 145.773 83.311 146 82.511 146C81.9777 146 81.5143 145.91 81.121 145.73C80.7277 145.543 80.4243 145.287 80.211 144.96C79.9977 144.633 79.881 144.257 79.861 143.83H81.531C81.571 144.037 81.6677 144.21 81.821 144.35C81.9743 144.483 82.1843 144.55 82.451 144.55C82.7643 144.55 82.9977 144.45 83.151 144.25C83.3043 144.05 83.381 143.783 83.381 143.45C83.381 143.123 83.301 142.873 83.141 142.7C82.981 142.527 82.7477 142.44 82.441 142.44C82.2143 142.44 82.0277 142.497 81.881 142.61C81.7343 142.717 81.6377 142.86 81.591 143.04H79.941V138.69H84.611V140.19ZM85.9749 142.25C85.9749 141.103 86.1949 140.2 86.6349 139.54C87.0816 138.88 87.7982 138.55 88.7849 138.55C89.7716 138.55 90.4849 138.88 90.9249 139.54C91.3716 140.2 91.5949 141.103 91.5949 142.25C91.5949 143.41 91.3716 144.32 90.9249 144.98C90.4849 145.64 89.7716 145.97 88.7849 145.97C87.7982 145.97 87.0816 145.64 86.6349 144.98C86.1949 144.32 85.9749 143.41 85.9749 142.25ZM89.9149 142.25C89.9149 141.577 89.8416 141.06 89.6949 140.7C89.5482 140.333 89.2449 140.15 88.7849 140.15C88.3249 140.15 88.0216 140.333 87.8749 140.7C87.7282 141.06 87.6549 141.577 87.6549 142.25C87.6549 142.703 87.6816 143.08 87.7349 143.38C87.7882 143.673 87.8949 143.913 88.0549 144.1C88.2216 144.28 88.4649 144.37 88.7849 144.37C89.1049 144.37 89.3449 144.28 89.5049 144.1C89.6716 143.913 89.7816 143.673 89.8349 143.38C89.8882 143.08 89.9149 142.703 89.9149 142.25Z" fill="#767676"/>
<path d="M79.511 189.7V188.32L82.671 183.8H84.581V188.22H85.401V189.7H84.581V191H82.871V189.7H79.511ZM82.991 185.68L81.311 188.22H82.991V185.68ZM86.2386 187.25C86.2386 186.103 86.4586 185.2 86.8986 184.54C87.3452 183.88 88.0619 183.55 89.0486 183.55C90.0352 183.55 90.7486 183.88 91.1886 184.54C91.6352 185.2 91.8586 186.103 91.8586 187.25C91.8586 188.41 91.6352 189.32 91.1886 189.98C90.7486 190.64 90.0352 190.97 89.0486 190.97C88.0619 190.97 87.3452 190.64 86.8986 189.98C86.4586 189.32 86.2386 188.41 86.2386 187.25ZM90.1786 187.25C90.1786 186.577 90.1052 186.06 89.9586 185.7C89.8119 185.333 89.5086 185.15 89.0486 185.15C88.5886 185.15 88.2852 185.333 88.1386 185.7C87.9919 186.06 87.9186 186.577 87.9186 187.25C87.9186 187.703 87.9452 188.08 87.9986 188.38C88.0519 188.673 88.1586 188.913 88.3186 189.1C88.4852 189.28 88.7286 189.37 89.0486 189.37C89.3686 189.37 89.6086 189.28 89.7686 189.1C89.9352 188.913 90.0452 188.673 90.0986 188.38C90.1519 188.08 90.1786 187.703 90.1786 187.25Z" fill="#767676"/>
<path d="M80.531 230.76C80.5577 230.047 80.791 229.497 81.231 229.11C81.671 228.723 82.2677 228.53 83.021 228.53C83.521 228.53 83.9477 228.617 84.301 228.79C84.661 228.963 84.931 229.2 85.111 229.5C85.2977 229.8 85.391 230.137 85.391 230.51C85.391 230.95 85.281 231.31 85.061 231.59C84.841 231.863 84.5843 232.05 84.291 232.15V232.19C84.671 232.317 84.971 232.527 85.191 232.82C85.411 233.113 85.521 233.49 85.521 233.95C85.521 234.363 85.4243 234.73 85.231 235.05C85.0443 235.363 84.7677 235.61 84.401 235.79C84.041 235.97 83.611 236.06 83.111 236.06C82.311 236.06 81.671 235.863 81.191 235.47C80.7177 235.077 80.4677 234.483 80.441 233.69H82.101C82.1077 233.983 82.191 234.217 82.351 234.39C82.511 234.557 82.7443 234.64 83.051 234.64C83.311 234.64 83.511 234.567 83.651 234.42C83.7977 234.267 83.871 234.067 83.871 233.82C83.871 233.5 83.7677 233.27 83.561 233.13C83.361 232.983 83.0377 232.91 82.591 232.91H82.271V231.52H82.591C82.931 231.52 83.2043 231.463 83.411 231.35C83.6243 231.23 83.731 231.02 83.731 230.72C83.731 230.48 83.6643 230.293 83.531 230.16C83.3977 230.027 83.2143 229.96 82.981 229.96C82.7277 229.96 82.5377 230.037 82.411 230.19C82.291 230.343 82.221 230.533 82.201 230.76H80.531ZM86.5257 232.25C86.5257 231.103 86.7457 230.2 87.1857 229.54C87.6324 228.88 88.349 228.55 89.3357 228.55C90.3224 228.55 91.0357 228.88 91.4757 229.54C91.9224 230.2 92.1457 231.103 92.1457 232.25C92.1457 233.41 91.9224 234.32 91.4757 234.98C91.0357 235.64 90.3224 235.97 89.3357 235.97C88.349 235.97 87.6324 235.64 87.1857 234.98C86.7457 234.32 86.5257 233.41 86.5257 232.25ZM90.4657 232.25C90.4657 231.577 90.3924 231.06 90.2457 230.7C90.099 230.333 89.7957 230.15 89.3357 230.15C88.8757 230.15 88.5724 230.333 88.4257 230.7C88.279 231.06 88.2057 231.577 88.2057 232.25C88.2057 232.703 88.2324 233.08 88.2857 233.38C88.339 233.673 88.4457 233.913 88.6057 234.1C88.7724 234.28 89.0157 234.37 89.3357 234.37C89.6557 234.37 89.8957 234.28 90.0557 234.1C90.2224 233.913 90.3324 233.673 90.3857 233.38C90.439 233.08 90.4657 232.703 90.4657 232.25Z" fill="#767676"/>
<path d="M80.411 279.63C80.6377 279.45 80.741 279.367 80.721 279.38C81.3743 278.84 81.8877 278.397 82.261 278.05C82.641 277.703 82.961 277.34 83.221 276.96C83.481 276.58 83.611 276.21 83.611 275.85C83.611 275.577 83.5477 275.363 83.421 275.21C83.2943 275.057 83.1043 274.98 82.851 274.98C82.5977 274.98 82.3977 275.077 82.251 275.27C82.111 275.457 82.041 275.723 82.041 276.07H80.391C80.4043 275.503 80.5243 275.03 80.751 274.65C80.9843 274.27 81.2877 273.99 81.661 273.81C82.041 273.63 82.461 273.54 82.921 273.54C83.7143 273.54 84.311 273.743 84.711 274.15C85.1177 274.557 85.321 275.087 85.321 275.74C85.321 276.453 85.0777 277.117 84.591 277.73C84.1043 278.337 83.4843 278.93 82.731 279.51H85.431V280.9H80.411V279.63ZM86.1839 277.25C86.1839 276.103 86.4039 275.2 86.8439 274.54C87.2906 273.88 88.0072 273.55 88.9939 273.55C89.9806 273.55 90.6939 273.88 91.1339 274.54C91.5806 275.2 91.8039 276.103 91.8039 277.25C91.8039 278.41 91.5806 279.32 91.1339 279.98C90.6939 280.64 89.9806 280.97 88.9939 280.97C88.0072 280.97 87.2906 280.64 86.8439 279.98C86.4039 279.32 86.1839 278.41 86.1839 277.25ZM90.1239 277.25C90.1239 276.577 90.0506 276.06 89.9039 275.7C89.7572 275.333 89.4539 275.15 88.9939 275.15C88.5339 275.15 88.2306 275.333 88.0839 275.7C87.9372 276.06 87.8639 276.577 87.8639 277.25C87.8639 277.703 87.8906 278.08 87.9439 278.38C87.9972 278.673 88.1039 278.913 88.2639 279.1C88.4306 279.28 88.6739 279.37 88.9939 279.37C89.3139 279.37 89.5539 279.28 89.7139 279.1C89.8806 278.913 89.9906 278.673 90.0439 278.38C90.0972 278.08 90.1239 277.703 90.1239 277.25Z" fill="#767676"/>
<path d="M82.291 320.29V318.7H85.061V326H83.281V320.29H82.291ZM86.2308 322.25C86.2308 321.103 86.4508 320.2 86.8908 319.54C87.3374 318.88 88.0541 318.55 89.0408 318.55C90.0274 318.55 90.7408 318.88 91.1808 319.54C91.6274 320.2 91.8508 321.103 91.8508 322.25C91.8508 323.41 91.6274 324.32 91.1808 324.98C90.7408 325.64 90.0274 325.97 89.0408 325.97C88.0541 325.97 87.3374 325.64 86.8908 324.98C86.4508 324.32 86.2308 323.41 86.2308 322.25ZM90.1708 322.25C90.1708 321.577 90.0974 321.06 89.9508 320.7C89.8041 320.333 89.5008 320.15 89.0408 320.15C88.5808 320.15 88.2774 320.333 88.1308 320.7C87.9841 321.06 87.9108 321.577 87.9108 322.25C87.9108 322.703 87.9374 323.08 87.9908 323.38C88.0441 323.673 88.1508 323.913 88.3108 324.1C88.4774 324.28 88.7208 324.37 89.0408 324.37C89.3608 324.37 89.6008 324.28 89.7608 324.1C89.9274 323.913 90.0374 323.673 90.0908 323.38C90.1441 323.08 90.1708 322.703 90.1708 322.25Z" fill="#767676"/>
<path d="M86.471 367.25C86.471 366.103 86.691 365.2 87.131 364.54C87.5777 363.88 88.2943 363.55 89.281 363.55C90.2677 363.55 90.981 363.88 91.421 364.54C91.8677 365.2 92.091 366.103 92.091 367.25C92.091 368.41 91.8677 369.32 91.421 369.98C90.981 370.64 90.2677 370.97 89.281 370.97C88.2943 370.97 87.5777 370.64 87.131 369.98C86.691 369.32 86.471 368.41 86.471 367.25ZM90.411 367.25C90.411 366.577 90.3377 366.06 90.191 365.7C90.0443 365.333 89.741 365.15 89.281 365.15C88.821 365.15 88.5177 365.333 88.371 365.7C88.2243 366.06 88.151 366.577 88.151 367.25C88.151 367.703 88.1777 368.08 88.231 368.38C88.2843 368.673 88.391 368.913 88.551 369.1C88.7177 369.28 88.961 369.37 89.281 369.37C89.601 369.37 89.841 369.28 90.001 369.1C90.1677 368.913 90.2777 368.673 90.331 368.38C90.3843 368.08 90.411 367.703 90.411 367.25Z" fill="#767676"/>
<line opacity="0.5" x1="107.5" y1="142.572" x2="437.974" y2="142.572" stroke="#B1B1B1" stroke-width="0.85615" stroke-dasharray="1.71 1.71"/>
<line opacity="0.5" x1="107.5" y1="184.572" x2="437.974" y2="184.572" stroke="#B1B1B1" stroke-width="0.85615" stroke-dasharray="1.71 1.71"/>
<line opacity="0.5" x1="107.5" y1="226.572" x2="437.974" y2="226.572" stroke="#B1B1B1" stroke-width="0.85615" stroke-dasharray="1.71 1.71"/>
<line opacity="0.5" x1="107.5" y1="268.572" x2="437.974" y2="268.572" stroke="#B1B1B1" stroke-width="0.85615" stroke-dasharray="1.71 1.71"/>
<line opacity="0.5" x1="107.5" y1="310.572" x2="437.974" y2="310.572" stroke="#B1B1B1" stroke-width="0.85615" stroke-dasharray="1.71 1.71"/>
<line opacity="0.5" x1="107.5" y1="352.675" x2="433.5" y2="352.675" stroke="#B1B1B1" stroke-width="0.649831"/>
<rect x="122" y="140" width="80" height="213" rx="4.72481" fill="#D299FF"/>
<rect x="231" y="226" width="80" height="127" rx="4.72481" fill="#D299FF"/>
<rect x="340" y="269" width="80" height="84" rx="4.72481" fill="#D299FF"/>
<path d="M154.07 363.98V371H152.36V366.79L150.79 371H149.41L147.83 366.78V371H146.12V363.98H148.14L150.11 368.84L152.06 363.98H154.07ZM157.84 371.08C157.293 371.08 156.8 370.963 156.36 370.73C155.926 370.497 155.583 370.163 155.33 369.73C155.083 369.297 154.96 368.79 154.96 368.21C154.96 367.637 155.086 367.133 155.34 366.7C155.593 366.26 155.94 365.923 156.38 365.69C156.82 365.457 157.313 365.34 157.86 365.34C158.406 365.34 158.9 365.457 159.34 365.69C159.78 365.923 160.126 366.26 160.38 366.7C160.633 367.133 160.76 367.637 160.76 368.21C160.76 368.783 160.63 369.29 160.37 369.73C160.116 370.163 159.766 370.497 159.32 370.73C158.88 370.963 158.386 371.08 157.84 371.08ZM157.84 369.6C158.166 369.6 158.443 369.48 158.67 369.24C158.903 369 159.02 368.657 159.02 368.21C159.02 367.763 158.906 367.42 158.68 367.18C158.46 366.94 158.186 366.82 157.86 366.82C157.526 366.82 157.25 366.94 157.03 367.18C156.81 367.413 156.7 367.757 156.7 368.21C156.7 368.657 156.806 369 157.02 369.24C157.24 369.48 157.513 369.6 157.84 369.6ZM163.377 366.21C163.537 365.95 163.767 365.74 164.067 365.58C164.367 365.42 164.71 365.34 165.097 365.34C165.557 365.34 165.974 365.457 166.347 365.69C166.72 365.923 167.014 366.257 167.227 366.69C167.447 367.123 167.557 367.627 167.557 368.2C167.557 368.773 167.447 369.28 167.227 369.72C167.014 370.153 166.72 370.49 166.347 370.73C165.974 370.963 165.557 371.08 165.097 371.08C164.704 371.08 164.36 371.003 164.067 370.85C163.774 370.69 163.544 370.48 163.377 370.22V371H161.667V363.6H163.377V366.21ZM165.817 368.2C165.817 367.773 165.697 367.44 165.457 367.2C165.224 366.953 164.934 366.83 164.587 366.83C164.247 366.83 163.957 366.953 163.717 367.2C163.484 367.447 163.367 367.783 163.367 368.21C163.367 368.637 163.484 368.973 163.717 369.22C163.957 369.467 164.247 369.59 164.587 369.59C164.927 369.59 165.217 369.467 165.457 369.22C165.697 368.967 165.817 368.627 165.817 368.2ZM169.314 364.84C169.014 364.84 168.767 364.753 168.574 364.58C168.387 364.4 168.294 364.18 168.294 363.92C168.294 363.653 168.387 363.433 168.574 363.26C168.767 363.08 169.014 362.99 169.314 362.99C169.607 362.99 169.847 363.08 170.034 363.26C170.227 363.433 170.324 363.653 170.324 363.92C170.324 364.18 170.227 364.4 170.034 364.58C169.847 364.753 169.607 364.84 169.314 364.84ZM170.164 365.42V371H168.454V365.42H170.164ZM173.113 363.6V371H171.403V363.6H173.113ZM179.612 368.12C179.612 368.28 179.602 368.447 179.582 368.62H175.712C175.739 368.967 175.849 369.233 176.042 369.42C176.242 369.6 176.486 369.69 176.772 369.69C177.199 369.69 177.496 369.51 177.662 369.15H179.482C179.389 369.517 179.219 369.847 178.972 370.14C178.732 370.433 178.429 370.663 178.062 370.83C177.696 370.997 177.286 371.08 176.832 371.08C176.286 371.08 175.799 370.963 175.372 370.73C174.946 370.497 174.612 370.163 174.372 369.73C174.132 369.297 174.012 368.79 174.012 368.21C174.012 367.63 174.129 367.123 174.362 366.69C174.602 366.257 174.936 365.923 175.362 365.69C175.789 365.457 176.279 365.34 176.832 365.34C177.372 365.34 177.852 365.453 178.272 365.68C178.692 365.907 179.019 366.23 179.252 366.65C179.492 367.07 179.612 367.56 179.612 368.12ZM177.862 367.67C177.862 367.377 177.762 367.143 177.562 366.97C177.362 366.797 177.112 366.71 176.812 366.71C176.526 366.71 176.282 366.793 176.082 366.96C175.889 367.127 175.769 367.363 175.722 367.67H177.862Z" fill="#767676"/>
<path d="M253.75 363.98C254.49 363.98 255.137 364.127 255.69 364.42C256.243 364.713 256.67 365.127 256.97 365.66C257.277 366.187 257.43 366.797 257.43 367.49C257.43 368.177 257.277 368.787 256.97 369.32C256.67 369.853 256.24 370.267 255.68 370.56C255.127 370.853 254.483 371 253.75 371H251.12V363.98H253.75ZM253.64 369.52C254.287 369.52 254.79 369.343 255.15 368.99C255.51 368.637 255.69 368.137 255.69 367.49C255.69 366.843 255.51 366.34 255.15 365.98C254.79 365.62 254.287 365.44 253.64 365.44H252.83V369.52H253.64ZM263.646 368.12C263.646 368.28 263.636 368.447 263.616 368.62H259.746C259.772 368.967 259.882 369.233 260.076 369.42C260.276 369.6 260.519 369.69 260.806 369.69C261.232 369.69 261.529 369.51 261.696 369.15H263.516C263.422 369.517 263.252 369.847 263.006 370.14C262.766 370.433 262.462 370.663 262.096 370.83C261.729 370.997 261.319 371.08 260.866 371.08C260.319 371.08 259.832 370.963 259.406 370.73C258.979 370.497 258.646 370.163 258.406 369.73C258.166 369.297 258.046 368.79 258.046 368.21C258.046 367.63 258.162 367.123 258.396 366.69C258.636 366.257 258.969 365.923 259.396 365.69C259.822 365.457 260.312 365.34 260.866 365.34C261.406 365.34 261.886 365.453 262.306 365.68C262.726 365.907 263.052 366.23 263.286 366.65C263.526 367.07 263.646 367.56 263.646 368.12ZM261.896 367.67C261.896 367.377 261.796 367.143 261.596 366.97C261.396 366.797 261.146 366.71 260.846 366.71C260.559 366.71 260.316 366.793 260.116 366.96C259.922 367.127 259.802 367.363 259.756 367.67H261.896ZM266.818 371.08C266.331 371.08 265.898 370.997 265.518 370.83C265.138 370.663 264.838 370.437 264.618 370.15C264.398 369.857 264.274 369.53 264.248 369.17H265.938C265.958 369.363 266.048 369.52 266.208 369.64C266.368 369.76 266.564 369.82 266.798 369.82C267.011 369.82 267.174 369.78 267.288 369.7C267.408 369.613 267.468 369.503 267.468 369.37C267.468 369.21 267.384 369.093 267.218 369.02C267.051 368.94 266.781 368.853 266.408 368.76C266.008 368.667 265.674 368.57 265.408 368.47C265.141 368.363 264.911 368.2 264.718 367.98C264.524 367.753 264.428 367.45 264.428 367.07C264.428 366.75 264.514 366.46 264.688 366.2C264.868 365.933 265.128 365.723 265.468 365.57C265.814 365.417 266.224 365.34 266.698 365.34C267.398 365.34 267.948 365.513 268.348 365.86C268.754 366.207 268.988 366.667 269.048 367.24H267.468C267.441 367.047 267.354 366.893 267.208 366.78C267.068 366.667 266.881 366.61 266.648 366.61C266.448 366.61 266.294 366.65 266.188 366.73C266.081 366.803 266.028 366.907 266.028 367.04C266.028 367.2 266.111 367.32 266.278 367.4C266.451 367.48 266.718 367.56 267.078 367.64C267.491 367.747 267.828 367.853 268.088 367.96C268.348 368.06 268.574 368.227 268.768 368.46C268.968 368.687 269.071 368.993 269.078 369.38C269.078 369.707 268.984 370 268.798 370.26C268.618 370.513 268.354 370.713 268.008 370.86C267.668 371.007 267.271 371.08 266.818 371.08ZM273.534 371L271.834 368.66V371H270.124V363.6H271.834V367.69L273.524 365.42H275.634L273.314 368.22L275.654 371H273.534ZM279.416 369.55V371H278.546C277.926 371 277.442 370.85 277.096 370.55C276.749 370.243 276.576 369.747 276.576 369.06V366.84H275.896V365.42H276.576V364.06H278.286V365.42H279.406V366.84H278.286V369.08C278.286 369.247 278.326 369.367 278.406 369.44C278.486 369.513 278.619 369.55 278.806 369.55H279.416ZM282.908 371.08C282.361 371.08 281.868 370.963 281.428 370.73C280.995 370.497 280.651 370.163 280.398 369.73C280.151 369.297 280.028 368.79 280.028 368.21C280.028 367.637 280.155 367.133 280.408 366.7C280.661 366.26 281.008 365.923 281.448 365.69C281.888 365.457 282.381 365.34 282.928 365.34C283.475 365.34 283.968 365.457 284.408 365.69C284.848 365.923 285.195 366.26 285.448 366.7C285.701 367.133 285.828 367.637 285.828 368.21C285.828 368.783 285.698 369.29 285.438 369.73C285.185 370.163 284.835 370.497 284.388 370.73C283.948 370.963 283.455 371.08 282.908 371.08ZM282.908 369.6C283.235 369.6 283.511 369.48 283.738 369.24C283.971 369 284.088 368.657 284.088 368.21C284.088 367.763 283.975 367.42 283.748 367.18C283.528 366.94 283.255 366.82 282.928 366.82C282.595 366.82 282.318 366.94 282.098 367.18C281.878 367.413 281.768 367.757 281.768 368.21C281.768 368.657 281.875 369 282.088 369.24C282.308 369.48 282.581 369.6 282.908 369.6ZM288.445 366.21C288.612 365.95 288.842 365.74 289.135 365.58C289.429 365.42 289.772 365.34 290.165 365.34C290.625 365.34 291.042 365.457 291.415 365.69C291.789 365.923 292.082 366.257 292.295 366.69C292.515 367.123 292.625 367.627 292.625 368.2C292.625 368.773 292.515 369.28 292.295 369.72C292.082 370.153 291.789 370.49 291.415 370.73C291.042 370.963 290.625 371.08 290.165 371.08C289.779 371.08 289.435 371 289.135 370.84C288.842 370.68 288.612 370.473 288.445 370.22V373.66H286.735V365.42H288.445V366.21ZM290.885 368.2C290.885 367.773 290.765 367.44 290.525 367.2C290.292 366.953 290.002 366.83 289.655 366.83C289.315 366.83 289.025 366.953 288.785 367.2C288.552 367.447 288.435 367.783 288.435 368.21C288.435 368.637 288.552 368.973 288.785 369.22C289.025 369.467 289.315 369.59 289.655 369.59C289.995 369.59 290.285 369.467 290.525 369.22C290.765 368.967 290.885 368.627 290.885 368.2Z" fill="#767676"/>
<path d="M369.17 363.98V365.35H367.31V371H365.6V365.35H363.74V363.98H369.17ZM369.688 368.2C369.688 367.627 369.795 367.123 370.008 366.69C370.228 366.257 370.525 365.923 370.898 365.69C371.272 365.457 371.688 365.34 372.148 365.34C372.542 365.34 372.885 365.42 373.178 365.58C373.478 365.74 373.708 365.95 373.868 366.21V365.42H375.578V371H373.868V370.21C373.702 370.47 373.468 370.68 373.168 370.84C372.875 371 372.532 371.08 372.138 371.08C371.685 371.08 371.272 370.963 370.898 370.73C370.525 370.49 370.228 370.153 370.008 369.72C369.795 369.28 369.688 368.773 369.688 368.2ZM373.868 368.21C373.868 367.783 373.748 367.447 373.508 367.2C373.275 366.953 372.988 366.83 372.648 366.83C372.308 366.83 372.018 366.953 371.778 367.2C371.545 367.44 371.428 367.773 371.428 368.2C371.428 368.627 371.545 368.967 371.778 369.22C372.018 369.467 372.308 369.59 372.648 369.59C372.988 369.59 373.275 369.467 373.508 369.22C373.748 368.973 373.868 368.637 373.868 368.21ZM378.525 366.21C378.685 365.95 378.915 365.74 379.215 365.58C379.515 365.42 379.859 365.34 380.245 365.34C380.705 365.34 381.122 365.457 381.495 365.69C381.869 365.923 382.162 366.257 382.375 366.69C382.595 367.123 382.705 367.627 382.705 368.2C382.705 368.773 382.595 369.28 382.375 369.72C382.162 370.153 381.869 370.49 381.495 370.73C381.122 370.963 380.705 371.08 380.245 371.08C379.852 371.08 379.509 371.003 379.215 370.85C378.922 370.69 378.692 370.48 378.525 370.22V371H376.815V363.6H378.525V366.21ZM380.965 368.2C380.965 367.773 380.845 367.44 380.605 367.2C380.372 366.953 380.082 366.83 379.735 366.83C379.395 366.83 379.105 366.953 378.865 367.2C378.632 367.447 378.515 367.783 378.515 368.21C378.515 368.637 378.632 368.973 378.865 369.22C379.105 369.467 379.395 369.59 379.735 369.59C380.075 369.59 380.365 369.467 380.605 369.22C380.845 368.967 380.965 368.627 380.965 368.2ZM385.312 363.6V371H383.602V363.6H385.312ZM391.812 368.12C391.812 368.28 391.802 368.447 391.782 368.62H387.912C387.938 368.967 388.048 369.233 388.242 369.42C388.442 369.6 388.685 369.69 388.972 369.69C389.398 369.69 389.695 369.51 389.862 369.15H391.682C391.588 369.517 391.418 369.847 391.172 370.14C390.932 370.433 390.628 370.663 390.262 370.83C389.895 370.997 389.485 371.08 389.032 371.08C388.485 371.08 387.998 370.963 387.572 370.73C387.145 370.497 386.812 370.163 386.572 369.73C386.332 369.297 386.212 368.79 386.212 368.21C386.212 367.63 386.328 367.123 386.562 366.69C386.802 366.257 387.135 365.923 387.562 365.69C387.988 365.457 388.478 365.34 389.032 365.34C389.572 365.34 390.052 365.453 390.472 365.68C390.892 365.907 391.218 366.23 391.452 366.65C391.692 367.07 391.812 367.56 391.812 368.12ZM390.062 367.67C390.062 367.377 389.962 367.143 389.762 366.97C389.562 366.797 389.312 366.71 389.012 366.71C388.725 366.71 388.482 366.793 388.282 366.96C388.088 367.127 387.968 367.363 387.922 367.67H390.062ZM395.824 369.55V371H394.954C394.334 371 393.85 370.85 393.504 370.55C393.157 370.243 392.984 369.747 392.984 369.06V366.84H392.304V365.42H392.984V364.06H394.694V365.42H395.814V366.84H394.694V369.08C394.694 369.247 394.734 369.367 394.814 369.44C394.894 369.513 395.027 369.55 395.214 369.55H395.824Z" fill="#767676"/>
<line opacity="0.5" x1="106.675" y1="352" x2="106.675" y2="137" stroke="#B1B1B1" stroke-width="0.649831"/>
</svg>
