<svg width="1238" height="529" viewBox="0 0 1238 529" fill="none" xmlns="http://www.w3.org/2000/svg">
<line y1="144.5" x2="1236" y2="144.5" stroke="#E1DFEC"/>
<line y1="208.5" x2="1236" y2="208.5" stroke="#E1DFEC"/>
<line y1="272.5" x2="1236" y2="272.5" stroke="#E1DFEC"/>
<line y1="336.5" x2="1236" y2="336.5" stroke="#E1DFEC"/>
<line y1="400.5" x2="1236" y2="400.5" stroke="#E1DFEC"/>
<line y1="464.5" x2="1236" y2="464.5" stroke="#E1DFEC"/>
<rect width="1237" height="73" rx="10" fill="#F6F5FF"/>
<rect x="0.5" y="0.5" width="1236" height="528" rx="9.5" stroke="#E1DFEC"/>
<line x1="8" y1="72.5" x2="1238" y2="72.5001" stroke="#E1DFEC"/>
<path d="M53.8 45V28.32H63.616V30.552H56.536V35.472H62.056V37.704H56.536V45H53.8ZM71.7196 33.864C69.8716 33.864 68.3836 35.112 68.0956 37.2H75.4156C75.3676 35.16 73.7596 33.864 71.7196 33.864ZM77.9116 41.064C77.1676 43.368 75.0796 45.216 71.8396 45.216C68.0476 45.216 65.2396 42.528 65.2396 38.376C65.2396 34.224 67.9276 31.56 71.8396 31.56C75.6076 31.56 78.2716 34.176 78.2716 38.064C78.2716 38.52 78.2476 38.952 78.1756 39.408H68.0716C68.2636 41.592 69.8236 42.912 71.8396 42.912C73.5196 42.912 74.4556 42.096 74.9596 41.064H77.9116ZM80.0521 38.328C80.0521 34.248 82.8121 31.56 86.2921 31.56C88.5241 31.56 90.0601 32.616 90.8761 33.696V31.776H93.6361V45H90.8761V43.032C90.0361 44.16 88.4521 45.216 86.2441 45.216C82.8121 45.216 80.0521 42.408 80.0521 38.328ZM90.8761 38.376C90.8761 35.544 88.9321 33.936 86.8681 33.936C84.8281 33.936 82.8601 35.472 82.8601 38.328C82.8601 41.184 84.8281 42.84 86.8681 42.84C88.9321 42.84 90.8761 41.232 90.8761 38.376ZM97.6617 41.328V34.008H96.1017V31.776H97.6617V28.488H100.422V31.776H103.638V34.008H100.422V41.328C100.422 42.312 100.806 42.72 101.958 42.72H103.638V45H101.478C99.1257 45 97.6617 44.016 97.6617 41.328ZM118.135 31.776V45H115.399V43.416C114.535 44.544 113.047 45.192 111.487 45.192C108.391 45.192 106.039 43.248 106.039 39.552V31.776H108.751V39.144C108.751 41.568 110.071 42.816 112.063 42.816C114.079 42.816 115.399 41.568 115.399 39.144V31.776H118.135ZM124.481 38.04V45H121.745V31.776H124.481V33.696C125.249 32.376 126.569 31.56 128.441 31.56V34.392H127.745C125.729 34.392 124.481 35.232 124.481 38.04ZM136.524 33.864C134.676 33.864 133.188 35.112 132.9 37.2H140.22C140.172 35.16 138.564 33.864 136.524 33.864ZM142.716 41.064C141.972 43.368 139.884 45.216 136.644 45.216C132.852 45.216 130.044 42.528 130.044 38.376C130.044 34.224 132.732 31.56 136.644 31.56C140.412 31.56 143.076 34.176 143.076 38.064C143.076 38.52 143.052 38.952 142.98 39.408H132.876C133.068 41.592 134.628 42.912 136.644 42.912C138.324 42.912 139.26 42.096 139.764 41.064H142.716Z" fill="black"/>
<path d="M60.736 116L59.76 113.344H54.672L53.696 116H52.512L56.592 104.96H57.856L61.92 116H60.736ZM59.424 112.416L57.216 106.368L55.008 112.416H59.424ZM63.7175 116V104.816H64.8375V116H63.7175ZM66.5738 110.544V109.6H72.7978V110.544H66.5738ZM76.7906 110.272H79.0466C80.9346 110.272 81.6706 109.408 81.6706 108.032C81.6706 106.592 80.9346 105.76 79.0466 105.76H76.7906V110.272ZM82.8226 108.032C82.8226 109.84 81.6706 111.232 79.0466 111.232H76.7906V116H75.6706V104.816H79.0466C81.6386 104.816 82.8226 106.192 82.8226 108.032ZM92.9259 111.632C92.9259 114.4 90.9899 116.128 88.5259 116.128C86.0619 116.128 84.1899 114.4 84.1899 111.632C84.1899 108.848 86.1099 107.136 88.5579 107.136C91.0219 107.136 92.9259 108.848 92.9259 111.632ZM85.3259 111.632C85.3259 114.032 86.8619 115.152 88.5259 115.152C90.1739 115.152 91.7739 114.032 91.7739 111.632C91.7739 109.232 90.2059 108.112 88.5419 108.112C86.8779 108.112 85.3259 109.232 85.3259 111.632ZM96.6635 116L93.9275 107.264H95.0635L97.2395 114.864L99.6875 107.264H100.808L103.224 114.88L105.384 107.264H106.488L103.752 116H102.632L100.216 108.672L97.7995 116H96.6635ZM111.742 108.096C110.158 108.096 108.766 109.12 108.638 111.152H114.782C114.83 109.12 113.358 108.096 111.742 108.096ZM115.79 113.232C115.39 114.88 113.982 116.128 111.79 116.128C109.31 116.128 107.502 114.4 107.502 111.632C107.502 108.848 109.278 107.136 111.79 107.136C114.35 107.136 115.918 108.96 115.918 111.184C115.918 111.536 115.918 111.76 115.886 112.064H108.638C108.734 114.112 110.158 115.184 111.79 115.184C113.278 115.184 114.286 114.4 114.606 113.232H115.79ZM119.088 111.12V116H117.968V107.264H119.088V108.816C119.568 107.744 120.576 107.104 122.08 107.104V108.272H121.776C120.32 108.272 119.088 108.928 119.088 111.12ZM127.492 108.096C125.908 108.096 124.516 109.12 124.388 111.152H130.532C130.58 109.12 129.108 108.096 127.492 108.096ZM131.54 113.232C131.14 114.88 129.732 116.128 127.54 116.128C125.06 116.128 123.252 114.4 123.252 111.632C123.252 108.848 125.028 107.136 127.54 107.136C130.1 107.136 131.668 108.96 131.668 111.184C131.668 111.536 131.668 111.76 131.636 112.064H124.388C124.484 114.112 125.908 115.184 127.54 115.184C129.028 115.184 130.036 114.4 130.356 113.232H131.54ZM133.206 111.616C133.206 108.88 134.982 107.136 137.398 107.136C138.966 107.136 140.278 108 140.838 109.152V104.16H141.958V116H140.838V114.048C140.326 115.2 139.11 116.128 137.382 116.128C134.982 116.128 133.206 114.352 133.206 111.616ZM140.838 111.632C140.838 109.456 139.382 108.112 137.59 108.112C135.75 108.112 134.342 109.392 134.342 111.616C134.342 113.824 135.75 115.152 137.59 115.152C139.382 115.152 140.838 113.808 140.838 111.632ZM148.905 104.816H150.025V115.088H154.041V116H148.905V104.816ZM159.367 108.096C157.783 108.096 156.391 109.12 156.263 111.152H162.407C162.455 109.12 160.983 108.096 159.367 108.096ZM163.415 113.232C163.015 114.88 161.607 116.128 159.415 116.128C156.935 116.128 155.127 114.4 155.127 111.632C155.127 108.848 156.903 107.136 159.415 107.136C161.975 107.136 163.543 108.96 163.543 111.184C163.543 111.536 163.543 111.76 163.511 112.064H156.263C156.359 114.112 157.783 115.184 159.415 115.184C160.903 115.184 161.911 114.4 162.231 113.232H163.415ZM165.081 111.616C165.081 108.88 166.857 107.136 169.257 107.136C171.017 107.136 172.217 108.08 172.713 109.184V107.264H173.833V116H172.713V114.064C172.201 115.184 170.985 116.128 169.241 116.128C166.857 116.128 165.081 114.352 165.081 111.616ZM172.713 111.632C172.713 109.456 171.257 108.112 169.465 108.112C167.625 108.112 166.217 109.392 166.217 111.616C166.217 113.824 167.625 115.152 169.465 115.152C171.257 115.152 172.713 113.808 172.713 111.632ZM175.877 111.616C175.877 108.88 177.653 107.136 180.069 107.136C181.637 107.136 182.949 108 183.509 109.152V104.16H184.629V116H183.509V114.048C182.997 115.2 181.781 116.128 180.053 116.128C177.653 116.128 175.877 114.352 175.877 111.616ZM183.509 111.632C183.509 109.456 182.053 108.112 180.261 108.112C178.421 108.112 177.013 109.392 177.013 111.616C177.013 113.824 178.421 115.152 180.261 115.152C182.053 115.152 183.509 113.808 183.509 111.632ZM196.601 104.688C199.001 104.688 200.889 105.952 201.689 108.08H200.377C199.753 106.64 198.393 105.712 196.601 105.712C194.121 105.712 192.217 107.504 192.217 110.4C192.217 113.296 194.121 115.104 196.601 115.104C198.953 115.104 200.681 113.52 200.857 110.976H196.153V110.064H202.041V110.88C201.865 113.84 199.657 116.112 196.601 116.112C193.465 116.112 191.065 113.76 191.065 110.4C191.065 107.056 193.465 104.688 196.601 104.688ZM207.821 108.096C206.237 108.096 204.845 109.12 204.717 111.152H210.861C210.909 109.12 209.437 108.096 207.821 108.096ZM211.869 113.232C211.469 114.88 210.061 116.128 207.869 116.128C205.389 116.128 203.581 114.4 203.581 111.632C203.581 108.848 205.357 107.136 207.869 107.136C210.429 107.136 211.997 108.96 211.997 111.184C211.997 111.536 211.997 111.76 211.965 112.064H204.717C204.812 114.112 206.237 115.184 207.869 115.184C209.357 115.184 210.365 114.4 210.685 113.232H211.869ZM220.59 116V111.008C220.59 109.072 219.534 108.08 217.934 108.08C216.302 108.08 215.166 109.104 215.166 111.232V116H214.046V107.264H215.166V108.752C215.726 107.664 216.846 107.104 218.142 107.104C220.126 107.104 221.694 108.32 221.694 110.88V116H220.59ZM227.899 108.096C226.315 108.096 224.923 109.12 224.795 111.152H230.939C230.987 109.12 229.515 108.096 227.899 108.096ZM231.947 113.232C231.547 114.88 230.139 116.128 227.947 116.128C225.467 116.128 223.659 114.4 223.659 111.632C223.659 108.848 225.435 107.136 227.947 107.136C230.507 107.136 232.075 108.96 232.075 111.184C232.075 111.536 232.075 111.76 232.043 112.064H224.795C224.891 114.112 226.315 115.184 227.947 115.184C229.435 115.184 230.443 114.4 230.763 113.232H231.947ZM235.244 111.12V116H234.124V107.264H235.244V108.816C235.724 107.744 236.732 107.104 238.236 107.104V108.272H237.932C236.476 108.272 235.244 108.928 235.244 111.12ZM239.409 111.616C239.409 108.88 241.185 107.136 243.585 107.136C245.345 107.136 246.545 108.08 247.041 109.184V107.264H248.161V116H247.041V114.064C246.529 115.184 245.313 116.128 243.569 116.128C241.185 116.128 239.409 114.352 239.409 111.616ZM247.041 111.632C247.041 109.456 245.585 108.112 243.793 108.112C241.953 108.112 240.545 109.392 240.545 111.616C240.545 113.824 241.953 115.152 243.793 115.152C245.585 115.152 247.041 113.808 247.041 111.632ZM251.038 113.632V108.208H249.822V107.264H251.038V105.072H252.174V107.264H254.574V108.208H252.174V113.632C252.174 114.704 252.542 115.04 253.549 115.04H254.574V116H253.374C251.854 116 251.038 115.376 251.038 113.632ZM256.421 116V107.264H257.541V116H256.421ZM256.981 105.616C256.533 105.616 256.165 105.264 256.165 104.784C256.165 104.304 256.533 103.968 256.981 103.968C257.429 103.968 257.797 104.304 257.797 104.784C257.797 105.264 257.429 105.616 256.981 105.616ZM268.301 111.632C268.301 114.4 266.365 116.128 263.901 116.128C261.437 116.128 259.565 114.4 259.565 111.632C259.565 108.848 261.485 107.136 263.933 107.136C266.397 107.136 268.301 108.848 268.301 111.632ZM260.701 111.632C260.701 114.032 262.237 115.152 263.901 115.152C265.549 115.152 267.149 114.032 267.149 111.632C267.149 109.232 265.581 108.112 263.917 108.112C262.253 108.112 260.701 109.232 260.701 111.632ZM276.887 116V111.008C276.887 109.072 275.831 108.08 274.231 108.08C272.599 108.08 271.463 109.104 271.463 111.232V116H270.343V107.264H271.463V108.752C272.023 107.664 273.143 107.104 274.439 107.104C276.423 107.104 277.991 108.32 277.991 110.88V116H276.887Z" fill="black"/>
<path d="M53.28 182V170.96H54.464L58.736 180.528L63.008 170.96H64.208V182H63.088V173.184L59.152 182H58.336L54.4 173.216V182H53.28ZM74.3168 173.264V182H73.1968V180.464C72.6688 181.568 71.5168 182.144 70.2208 182.144C68.2368 182.144 66.6688 180.928 66.6688 178.368V173.264H67.7728V178.24C67.7728 180.176 68.8288 181.168 70.4288 181.168C72.0608 181.168 73.1968 180.144 73.1968 178.016V173.264H74.3168ZM76.8738 182V170.16H77.9938V182H76.8738ZM80.85 179.632V174.208H79.634V173.264H80.85V171.072H81.986V173.264H84.386V174.208H81.986V179.632C81.986 180.704 82.354 181.04 83.362 181.04H84.386V182H83.186C81.666 182 80.85 181.376 80.85 179.632ZM86.2331 182V173.264H87.3531V182H86.2331ZM86.7931 171.616C86.3451 171.616 85.9771 171.264 85.9771 170.784C85.9771 170.304 86.3451 169.968 86.7931 169.968C87.2411 169.968 87.6091 170.304 87.6091 170.784C87.6091 171.264 87.2411 171.616 86.7931 171.616ZM89.0894 176.544V175.6H95.3134V176.544H89.0894ZM97.6743 176.4C97.6743 173.04 100.042 170.688 103.146 170.688C105.642 170.688 107.498 171.936 108.298 174.08H106.986C106.362 172.592 105.05 171.664 103.146 171.664C100.698 171.664 98.8263 173.472 98.8263 176.4C98.8263 179.312 100.698 181.12 103.146 181.12C105.05 181.12 106.362 180.192 106.986 178.736H108.298C107.498 180.848 105.642 182.096 103.146 182.096C100.042 182.096 97.6743 179.76 97.6743 176.4ZM110.53 182V170.16H111.65V174.752C112.21 173.68 113.362 173.104 114.69 173.104C116.626 173.104 118.178 174.32 118.178 176.88V182H117.074V177.008C117.074 175.072 116.018 174.08 114.418 174.08C112.786 174.08 111.65 175.104 111.65 177.232V182H110.53ZM120.143 177.616C120.143 174.88 121.919 173.136 124.319 173.136C126.079 173.136 127.279 174.08 127.775 175.184V173.264H128.895V182H127.775V180.064C127.263 181.184 126.047 182.128 124.303 182.128C121.919 182.128 120.143 180.352 120.143 177.616ZM127.775 177.632C127.775 175.456 126.319 174.112 124.527 174.112C122.687 174.112 121.279 175.392 121.279 177.616C121.279 179.824 122.687 181.152 124.527 181.152C126.319 181.152 127.775 179.808 127.775 177.632ZM137.996 182V177.008C137.996 175.072 136.94 174.08 135.34 174.08C133.708 174.08 132.572 175.104 132.572 177.232V182H131.452V173.264H132.572V174.752C133.132 173.664 134.252 173.104 135.548 173.104C137.532 173.104 139.1 174.32 139.1 176.88V182H137.996ZM148.121 182V177.008C148.121 175.072 147.065 174.08 145.465 174.08C143.833 174.08 142.697 175.104 142.697 177.232V182H141.577V173.264H142.697V174.752C143.257 173.664 144.377 173.104 145.673 173.104C147.657 173.104 149.225 174.32 149.225 176.88V182H148.121ZM155.43 174.096C153.846 174.096 152.454 175.12 152.326 177.152H158.47C158.518 175.12 157.046 174.096 155.43 174.096ZM159.478 179.232C159.078 180.88 157.67 182.128 155.478 182.128C152.998 182.128 151.19 180.4 151.19 177.632C151.19 174.848 152.966 173.136 155.478 173.136C158.038 173.136 159.606 174.96 159.606 177.184C159.606 177.536 159.606 177.76 159.574 178.064H152.326C152.422 180.112 153.846 181.184 155.478 181.184C156.966 181.184 157.974 180.4 158.294 179.232H159.478ZM161.655 182V170.16H162.775V182H161.655ZM177.158 182L176.182 179.344H171.094L170.118 182H168.934L173.014 170.96H174.278L178.342 182H177.158ZM175.846 178.416L173.638 172.368L171.43 178.416H175.846ZM179.627 177.616C179.627 174.88 181.403 173.136 183.819 173.136C185.387 173.136 186.699 174 187.259 175.152V170.16H188.379V182H187.259V180.048C186.747 181.2 185.531 182.128 183.803 182.128C181.403 182.128 179.627 180.352 179.627 177.616ZM187.259 177.632C187.259 175.456 185.803 174.112 184.011 174.112C182.171 174.112 180.763 175.392 180.763 177.616C180.763 179.824 182.171 181.152 184.011 181.152C185.803 181.152 187.259 179.808 187.259 177.632ZM205.887 176.4C205.887 179.76 203.503 182.112 200.351 182.112C197.215 182.112 194.815 179.76 194.815 176.4C194.815 173.056 197.215 170.688 200.351 170.688C203.503 170.688 205.887 173.056 205.887 176.4ZM195.967 176.4C195.967 179.328 197.871 181.136 200.351 181.136C202.831 181.136 204.735 179.328 204.735 176.4C204.735 173.472 202.831 171.68 200.351 171.68C197.871 171.68 195.967 173.472 195.967 176.4ZM209.04 175.184C209.552 174.08 210.768 173.136 212.512 173.136C214.896 173.136 216.672 174.88 216.672 177.616C216.672 180.352 214.896 182.128 212.512 182.128C210.768 182.128 209.552 181.168 209.04 180.08V186.128H207.936V173.264H209.04V175.184ZM215.536 177.616C215.536 175.392 214.128 174.112 212.288 174.112C210.512 174.112 209.04 175.456 209.04 177.632C209.04 179.808 210.512 181.152 212.288 181.152C214.128 181.152 215.536 179.824 215.536 177.616ZM219.053 179.632V174.208H217.837V173.264H219.053V171.072H220.189V173.264H222.589V174.208H220.189V179.632C220.189 180.704 220.557 181.04 221.565 181.04H222.589V182H221.389C219.869 182 219.053 181.376 219.053 179.632ZM224.436 182V173.264H225.556V182H224.436ZM224.996 171.616C224.548 171.616 224.18 171.264 224.18 170.784C224.18 170.304 224.548 169.968 224.996 169.968C225.444 169.968 225.812 170.304 225.812 170.784C225.812 171.264 225.444 171.616 224.996 171.616ZM240.861 182V177.008C240.861 175.072 239.853 174.08 238.301 174.08C236.717 174.08 235.597 175.136 235.597 177.264V182H234.493V177.008C234.493 175.072 233.469 174.08 231.917 174.08C230.317 174.08 229.213 175.136 229.213 177.264V182H228.093V173.264H229.213V174.768C229.773 173.664 230.877 173.104 232.109 173.104C233.565 173.104 234.812 173.792 235.341 175.248C235.821 173.824 237.101 173.104 238.493 173.104C240.429 173.104 241.965 174.32 241.965 176.88V182H240.861ZM244.452 182V173.264H245.572V182H244.452ZM245.012 171.616C244.564 171.616 244.196 171.264 244.196 170.784C244.196 170.304 244.564 169.968 245.012 169.968C245.46 169.968 245.828 170.304 245.828 170.784C245.828 171.264 245.46 171.616 245.012 171.616ZM253.196 173.264V174.192L248.7 181.072H253.276V182H247.42V181.072L251.916 174.192H247.5V173.264H253.196ZM254.659 177.616C254.659 174.88 256.435 173.136 258.835 173.136C260.595 173.136 261.795 174.08 262.291 175.184V173.264H263.411V182H262.291V180.064C261.779 181.184 260.563 182.128 258.819 182.128C256.435 182.128 254.659 180.352 254.659 177.616ZM262.291 177.632C262.291 175.456 260.835 174.112 259.043 174.112C257.203 174.112 255.795 175.392 255.795 177.616C255.795 179.824 257.203 181.152 259.043 181.152C260.835 181.152 262.291 179.808 262.291 177.632ZM266.288 179.632V174.208H265.072V173.264H266.288V171.072H267.424V173.264H269.824V174.208H267.424V179.632C267.424 180.704 267.792 181.04 268.799 181.04H269.824V182H268.624C267.104 182 266.288 181.376 266.288 179.632ZM271.671 182V173.264H272.791V182H271.671ZM272.231 171.616C271.783 171.616 271.415 171.264 271.415 170.784C271.415 170.304 271.783 169.968 272.231 169.968C272.679 169.968 273.047 170.304 273.047 170.784C273.047 171.264 272.679 171.616 272.231 171.616ZM283.551 177.632C283.551 180.4 281.615 182.128 279.151 182.128C276.687 182.128 274.815 180.4 274.815 177.632C274.815 174.848 276.735 173.136 279.183 173.136C281.647 173.136 283.551 174.848 283.551 177.632ZM275.951 177.632C275.951 180.032 277.487 181.152 279.151 181.152C280.799 181.152 282.399 180.032 282.399 177.632C282.399 175.232 280.831 174.112 279.167 174.112C277.503 174.112 275.951 175.232 275.951 177.632ZM292.137 182V177.008C292.137 175.072 291.081 174.08 289.481 174.08C287.849 174.08 286.713 175.104 286.713 177.232V182H285.593V173.264H286.713V174.752C287.273 173.664 288.393 173.104 289.689 173.104C291.673 173.104 293.241 174.32 293.241 176.88V182H292.137Z" fill="black"/>
<path d="M60.736 246L59.76 243.344H54.672L53.696 246H52.512L56.592 234.96H57.856L61.92 246H60.736ZM59.424 242.416L57.216 236.368L55.008 242.416H59.424ZM63.2055 241.616C63.2055 238.88 64.9815 237.136 67.3975 237.136C68.9655 237.136 70.2775 238 70.8375 239.152V234.16H71.9575V246H70.8375V244.048C70.3255 245.2 69.1095 246.128 67.3815 246.128C64.9815 246.128 63.2055 244.352 63.2055 241.616ZM70.8375 241.632C70.8375 239.456 69.3815 238.112 67.5895 238.112C65.7495 238.112 64.3415 239.392 64.3415 241.616C64.3415 243.824 65.7495 245.152 67.5895 245.152C69.3815 245.152 70.8375 243.808 70.8375 241.632ZM73.4744 237.264H74.6744L77.6184 244.912L80.5624 237.264H81.7464L78.2424 246H76.9784L73.4744 237.264ZM82.7524 241.616C82.7524 238.88 84.5284 237.136 86.9284 237.136C88.6884 237.136 89.8884 238.08 90.3844 239.184V237.264H91.5044V246H90.3844V244.064C89.8724 245.184 88.6564 246.128 86.9124 246.128C84.5284 246.128 82.7524 244.352 82.7524 241.616ZM90.3844 241.632C90.3844 239.456 88.9284 238.112 87.1364 238.112C85.2964 238.112 83.8884 239.392 83.8884 241.616C83.8884 243.824 85.2964 245.152 87.1364 245.152C88.9284 245.152 90.3844 243.808 90.3844 241.632ZM100.605 246V241.008C100.605 239.072 99.5493 238.08 97.9493 238.08C96.3173 238.08 95.1813 239.104 95.1813 241.232V246H94.0613V237.264H95.1813V238.752C95.7413 237.664 96.8613 237.104 98.1573 237.104C100.141 237.104 101.709 238.32 101.709 240.88V246H100.605ZM103.674 241.632C103.674 238.864 105.45 237.136 107.914 237.136C110.106 237.136 111.53 238.304 111.93 240.112H110.73C110.442 238.864 109.386 238.096 107.914 238.096C106.202 238.096 104.81 239.264 104.81 241.632C104.81 244 106.202 245.184 107.914 245.184C109.386 245.184 110.426 244.432 110.73 243.152H111.93C111.53 244.896 110.106 246.128 107.914 246.128C105.45 246.128 103.674 244.4 103.674 241.632ZM117.727 238.096C116.143 238.096 114.751 239.12 114.623 241.152H120.767C120.815 239.12 119.343 238.096 117.727 238.096ZM121.775 243.232C121.375 244.88 119.967 246.128 117.775 246.128C115.295 246.128 113.487 244.4 113.487 241.632C113.487 238.848 115.263 237.136 117.775 237.136C120.335 237.136 121.903 238.96 121.903 241.184C121.903 241.536 121.903 241.76 121.871 242.064H114.623C114.719 244.112 116.143 245.184 117.775 245.184C119.263 245.184 120.271 244.4 120.591 243.232H121.775ZM123.44 241.616C123.44 238.88 125.216 237.136 127.632 237.136C129.2 237.136 130.512 238 131.072 239.152V234.16H132.192V246H131.072V244.048C130.56 245.2 129.344 246.128 127.616 246.128C125.216 246.128 123.44 244.352 123.44 241.616ZM131.072 241.632C131.072 239.456 129.616 238.112 127.824 238.112C125.984 238.112 124.576 239.392 124.576 241.616C124.576 243.824 125.984 245.152 127.824 245.152C129.616 245.152 131.072 243.808 131.072 241.632ZM146.595 246L145.619 243.344H140.531L139.555 246H138.371L142.451 234.96H143.715L147.779 246H146.595ZM145.283 242.416L143.075 236.368L140.867 242.416H145.283ZM156.121 246V241.008C156.121 239.072 155.065 238.08 153.465 238.08C151.833 238.08 150.697 239.104 150.697 241.232V246H149.577V237.264H150.697V238.752C151.257 237.664 152.377 237.104 153.673 237.104C155.657 237.104 157.225 238.32 157.225 240.88V246H156.121ZM159.19 241.616C159.19 238.88 160.966 237.136 163.366 237.136C165.126 237.136 166.326 238.08 166.822 239.184V237.264H167.942V246H166.822V244.064C166.31 245.184 165.094 246.128 163.35 246.128C160.966 246.128 159.19 244.352 159.19 241.616ZM166.822 241.632C166.822 239.456 165.366 238.112 163.574 238.112C161.734 238.112 160.326 239.392 160.326 241.616C160.326 243.824 161.734 245.152 163.574 245.152C165.366 245.152 166.822 243.808 166.822 241.632ZM170.499 246V234.16H171.619V246H170.499ZM177.323 244.72L180.203 237.264H181.355L176.171 250.112H175.003L176.699 245.952L173.115 237.264H174.347L177.323 244.72ZM183.194 243.632V238.208H181.978V237.264H183.194V235.072H184.33V237.264H186.73V238.208H184.33V243.632C184.33 244.704 184.698 245.04 185.706 245.04H186.73V246H185.53C184.01 246 183.194 245.376 183.194 243.632ZM188.577 246V237.264H189.697V246H188.577ZM189.137 235.616C188.689 235.616 188.321 235.264 188.321 234.784C188.321 234.304 188.689 233.968 189.137 233.968C189.585 233.968 189.953 234.304 189.953 234.784C189.953 235.264 189.585 235.616 189.137 235.616ZM191.721 241.632C191.721 238.864 193.497 237.136 195.961 237.136C198.153 237.136 199.577 238.304 199.977 240.112H198.777C198.489 238.864 197.433 238.096 195.961 238.096C194.249 238.096 192.857 239.264 192.857 241.632C192.857 244 194.249 245.184 195.961 245.184C197.433 245.184 198.473 244.432 198.777 243.152H199.977C199.577 244.896 198.153 246.128 195.961 246.128C193.497 246.128 191.721 244.4 191.721 241.632ZM208.094 243.68C208.094 245.088 206.862 246.128 205.054 246.128C203.07 246.128 201.678 245.136 201.534 243.536H202.686C202.782 244.496 203.614 245.184 205.038 245.184C206.286 245.184 206.99 244.512 206.99 243.68C206.99 241.52 201.742 242.784 201.742 239.504C201.742 238.208 202.974 237.136 204.814 237.136C206.686 237.136 207.918 238.128 208.014 239.808H206.894C206.83 238.832 206.11 238.096 204.782 238.096C203.614 238.096 202.878 238.72 202.878 239.488C202.878 241.856 208.046 240.592 208.094 243.68Z" fill="black"/>
<path d="M59.12 298.8V299.728H54.4V303.904H58.64V304.832H54.4V309.072H59.12V310H53.28V298.8H59.12ZM74.0949 310V305.008C74.0949 303.072 73.0869 302.08 71.5349 302.08C69.9509 302.08 68.8309 303.136 68.8309 305.264V310H67.7269V305.008C67.7269 303.072 66.7029 302.08 65.1509 302.08C63.5509 302.08 62.4469 303.136 62.4469 305.264V310H61.3269V301.264H62.4469V302.768C63.0069 301.664 64.1109 301.104 65.3429 301.104C66.7989 301.104 68.0469 301.792 68.5749 303.248C69.0549 301.824 70.3349 301.104 71.7269 301.104C73.6629 301.104 75.1989 302.32 75.1989 304.88V310H74.0949ZM77.1743 305.616C77.1743 302.88 78.9503 301.136 81.3503 301.136C83.1103 301.136 84.3103 302.08 84.8063 303.184V301.264H85.9263V310H84.8063V308.064C84.2943 309.184 83.0783 310.128 81.3343 310.128C78.9503 310.128 77.1743 308.352 77.1743 305.616ZM84.8063 305.632C84.8063 303.456 83.3503 302.112 81.5583 302.112C79.7183 302.112 78.3103 303.392 78.3103 305.616C78.3103 307.824 79.7183 309.152 81.5583 309.152C83.3503 309.152 84.8063 307.808 84.8063 305.632ZM88.4831 310V301.264H89.6031V310H88.4831ZM89.0431 299.616C88.5951 299.616 88.2271 299.264 88.2271 298.784C88.2271 298.304 88.5951 297.968 89.0431 297.968C89.4911 297.968 89.8591 298.304 89.8591 298.784C89.8591 299.264 89.4911 299.616 89.0431 299.616ZM92.1394 310V298.16H93.2594V310H92.1394ZM107.178 307.056C107.178 308.576 105.946 310.112 103.578 310.112C101.338 310.112 99.8663 308.832 99.8023 307.12H100.986C101.082 308.048 101.77 309.168 103.578 309.168C105.13 309.168 106.042 308.256 106.042 307.104C106.042 303.808 99.8983 305.888 99.8983 301.68C99.8983 299.952 101.322 298.688 103.482 298.688C105.61 298.688 106.89 299.872 107.082 301.408H105.866C105.738 300.624 104.986 299.664 103.434 299.648C102.122 299.632 101.034 300.352 101.034 301.648C101.034 304.88 107.178 302.896 107.178 307.056ZM116.911 301.264V310H115.791V308.464C115.263 309.568 114.111 310.144 112.815 310.144C110.831 310.144 109.263 308.928 109.263 306.368V301.264H110.367V306.24C110.367 308.176 111.423 309.168 113.023 309.168C114.655 309.168 115.791 308.144 115.791 306.016V301.264H116.911ZM120.572 303.184C121.084 302.08 122.299 301.136 124.044 301.136C126.428 301.136 128.204 302.88 128.204 305.616C128.204 308.352 126.428 310.128 124.044 310.128C122.299 310.128 121.084 309.168 120.572 308.08V314.128H119.468V301.264H120.572V303.184ZM127.068 305.616C127.068 303.392 125.66 302.112 123.82 302.112C122.044 302.112 120.572 303.456 120.572 305.632C120.572 307.808 122.044 309.152 123.82 309.152C125.66 309.152 127.068 307.824 127.068 305.616ZM131.368 303.184C131.88 302.08 133.096 301.136 134.84 301.136C137.224 301.136 139 302.88 139 305.616C139 308.352 137.224 310.128 134.84 310.128C133.096 310.128 131.88 309.168 131.368 308.08V314.128H130.264V301.264H131.368V303.184ZM137.864 305.616C137.864 303.392 136.456 302.112 134.616 302.112C132.84 302.112 131.368 303.456 131.368 305.632C131.368 307.808 132.84 309.152 134.616 309.152C136.456 309.152 137.864 307.824 137.864 305.616ZM149.285 305.632C149.285 308.4 147.349 310.128 144.885 310.128C142.421 310.128 140.549 308.4 140.549 305.632C140.549 302.848 142.469 301.136 144.917 301.136C147.381 301.136 149.285 302.848 149.285 305.632ZM141.685 305.632C141.685 308.032 143.221 309.152 144.885 309.152C146.533 309.152 148.133 308.032 148.133 305.632C148.133 303.232 146.565 302.112 144.901 302.112C143.237 302.112 141.685 303.232 141.685 305.632ZM152.447 305.12V310H151.327V301.264H152.447V302.816C152.927 301.744 153.935 301.104 155.439 301.104V302.272H155.135C153.679 302.272 152.447 302.928 152.447 305.12ZM157.444 307.632V302.208H156.228V301.264H157.444V299.072H158.58V301.264H160.98V302.208H158.58V307.632C158.58 308.704 158.948 309.04 159.956 309.04H160.98V310H159.78C158.26 310 157.444 309.376 157.444 307.632Z" fill="black"/>
<path d="M54.4 370.272H56.656C58.544 370.272 59.28 369.408 59.28 368.032C59.28 366.592 58.544 365.76 56.656 365.76H54.4V370.272ZM60.432 368.032C60.432 369.84 59.28 371.232 56.656 371.232H54.4V376H53.28V364.816H56.656C59.248 364.816 60.432 366.192 60.432 368.032ZM63.4313 371.12V376H62.3113V367.264H63.4313V368.816C63.9113 367.744 64.9193 367.104 66.4233 367.104V368.272H66.1193C64.6633 368.272 63.4313 368.928 63.4313 371.12ZM68.1081 376V367.264H69.2281V376H68.1081ZM68.6681 365.616C68.2201 365.616 67.8521 365.264 67.8521 364.784C67.8521 364.304 68.2201 363.968 68.6681 363.968C69.1161 363.968 69.4841 364.304 69.4841 364.784C69.4841 365.264 69.1161 365.616 68.6681 365.616ZM79.9884 371.632C79.9884 374.4 78.0524 376.128 75.5884 376.128C73.1244 376.128 71.2524 374.4 71.2524 371.632C71.2524 368.848 73.1724 367.136 75.6204 367.136C78.0844 367.136 79.9884 368.848 79.9884 371.632ZM72.3884 371.632C72.3884 374.032 73.9244 375.152 75.5884 375.152C77.2364 375.152 78.8364 374.032 78.8364 371.632C78.8364 369.232 77.2684 368.112 75.6044 368.112C73.9404 368.112 72.3884 369.232 72.3884 371.632ZM83.15 371.12V376H82.03V367.264H83.15V368.816C83.63 367.744 84.638 367.104 86.142 367.104V368.272H85.838C84.382 368.272 83.15 368.928 83.15 371.12ZM87.8269 376V367.264H88.9469V376H87.8269ZM88.3869 365.616C87.9389 365.616 87.5709 365.264 87.5709 364.784C87.5709 364.304 87.9389 363.968 88.3869 363.968C88.8349 363.968 89.2029 364.304 89.2029 364.784C89.2029 365.264 88.8349 365.616 88.3869 365.616ZM91.8031 373.632V368.208H90.5871V367.264H91.8031V365.072H92.9391V367.264H95.3391V368.208H92.9391V373.632C92.9391 374.704 93.3071 375.04 94.3151 375.04H95.3391V376H94.1391C92.6191 376 91.8031 375.376 91.8031 373.632ZM100.354 374.72L103.234 367.264H104.386L99.2023 380.112H98.0343L99.7303 375.952L96.1463 367.264H97.3783L100.354 374.72ZM117.288 373.056C117.288 374.576 116.056 376.112 113.688 376.112C111.448 376.112 109.976 374.832 109.912 373.12H111.096C111.192 374.048 111.88 375.168 113.688 375.168C115.24 375.168 116.152 374.256 116.152 373.104C116.152 369.808 110.008 371.888 110.008 367.68C110.008 365.952 111.432 364.688 113.592 364.688C115.72 364.688 117 365.872 117.192 367.408H115.976C115.848 366.624 115.096 365.664 113.544 365.648C112.232 365.632 111.144 366.352 111.144 367.648C111.144 370.88 117.288 368.896 117.288 373.056ZM127.02 367.264V376H125.9V374.464C125.372 375.568 124.22 376.144 122.924 376.144C120.94 376.144 119.372 374.928 119.372 372.368V367.264H120.476V372.24C120.476 374.176 121.532 375.168 123.132 375.168C124.764 375.168 125.9 374.144 125.9 372.016V367.264H127.02ZM130.681 369.184C131.193 368.08 132.409 367.136 134.153 367.136C136.537 367.136 138.313 368.88 138.313 371.616C138.313 374.352 136.537 376.128 134.153 376.128C132.409 376.128 131.193 375.168 130.681 374.08V380.128H129.577V367.264H130.681V369.184ZM137.177 371.616C137.177 369.392 135.769 368.112 133.929 368.112C132.153 368.112 130.681 369.456 130.681 371.632C130.681 373.808 132.153 375.152 133.929 375.152C135.769 375.152 137.177 373.824 137.177 371.616ZM141.478 369.184C141.99 368.08 143.206 367.136 144.95 367.136C147.334 367.136 149.11 368.88 149.11 371.616C149.11 374.352 147.334 376.128 144.95 376.128C143.206 376.128 141.99 375.168 141.478 374.08V380.128H140.374V367.264H141.478V369.184ZM147.974 371.616C147.974 369.392 146.566 368.112 144.726 368.112C142.95 368.112 141.478 369.456 141.478 371.632C141.478 373.808 142.95 375.152 144.726 375.152C146.566 375.152 147.974 373.824 147.974 371.616ZM159.395 371.632C159.395 374.4 157.459 376.128 154.995 376.128C152.531 376.128 150.659 374.4 150.659 371.632C150.659 368.848 152.579 367.136 155.027 367.136C157.491 367.136 159.395 368.848 159.395 371.632ZM151.795 371.632C151.795 374.032 153.331 375.152 154.995 375.152C156.643 375.152 158.243 374.032 158.243 371.632C158.243 369.232 156.675 368.112 155.011 368.112C153.347 368.112 151.795 369.232 151.795 371.632ZM162.556 371.12V376H161.436V367.264H162.556V368.816C163.036 367.744 164.044 367.104 165.548 367.104V368.272H165.244C163.788 368.272 162.556 368.928 162.556 371.12ZM167.553 373.632V368.208H166.337V367.264H167.553V365.072H168.689V367.264H171.089V368.208H168.689V373.632C168.689 374.704 169.057 375.04 170.065 375.04H171.089V376H169.889C168.369 376 167.553 375.376 167.553 373.632Z" fill="black"/>
<path d="M52.768 435.4C52.768 432.04 55.136 429.688 58.24 429.688C60.736 429.688 62.592 430.936 63.392 433.08H62.08C61.456 431.592 60.144 430.664 58.24 430.664C55.792 430.664 53.92 432.472 53.92 435.4C53.92 438.312 55.792 440.12 58.24 440.12C60.144 440.12 61.456 439.192 62.08 437.736H63.392C62.592 439.848 60.736 441.096 58.24 441.096C55.136 441.096 52.768 438.76 52.768 435.4ZM73.1918 432.264V441H72.0718V439.464C71.5438 440.568 70.3918 441.144 69.0958 441.144C67.1118 441.144 65.5438 439.928 65.5438 437.368V432.264H66.6478V437.24C66.6478 439.176 67.7038 440.168 69.3038 440.168C70.9358 440.168 72.0718 439.144 72.0718 437.016V432.264H73.1918ZM81.7968 438.68C81.7968 440.088 80.5648 441.128 78.7568 441.128C76.7728 441.128 75.3808 440.136 75.2368 438.536H76.3888C76.4848 439.496 77.3168 440.184 78.7408 440.184C79.9888 440.184 80.6928 439.512 80.6928 438.68C80.6928 436.52 75.4448 437.784 75.4448 434.504C75.4448 433.208 76.6768 432.136 78.5168 432.136C80.3888 432.136 81.6208 433.128 81.7168 434.808H80.5968C80.5328 433.832 79.8128 433.096 78.4848 433.096C77.3168 433.096 76.5807 433.72 76.5807 434.488C76.5807 436.856 81.7488 435.592 81.7968 438.68ZM84.225 438.632V433.208H83.009V432.264H84.225V430.072H85.361V432.264H87.761V433.208H85.361V438.632C85.361 439.704 85.729 440.04 86.737 440.04H87.761V441H86.561C85.041 441 84.225 440.376 84.225 438.632ZM97.8321 436.632C97.8321 439.4 95.8961 441.128 93.4321 441.128C90.9681 441.128 89.0961 439.4 89.0961 436.632C89.0961 433.848 91.0161 432.136 93.4641 432.136C95.9281 432.136 97.8321 433.848 97.8321 436.632ZM90.2321 436.632C90.2321 439.032 91.7681 440.152 93.4321 440.152C95.0801 440.152 96.6801 439.032 96.6801 436.632C96.6801 434.232 95.1121 433.112 93.4481 433.112C91.7841 433.112 90.2321 434.232 90.2321 436.632ZM112.642 441V436.008C112.642 434.072 111.634 433.08 110.082 433.08C108.498 433.08 107.378 434.136 107.378 436.264V441H106.274V436.008C106.274 434.072 105.25 433.08 103.698 433.08C102.098 433.08 100.994 434.136 100.994 436.264V441H99.8738V432.264H100.994V433.768C101.554 432.664 102.658 432.104 103.89 432.104C105.346 432.104 106.594 432.792 107.122 434.248C107.602 432.824 108.882 432.104 110.274 432.104C112.21 432.104 113.746 433.32 113.746 435.88V441H112.642ZM120.624 441V429.816H121.744V441H120.624ZM130.824 441V436.008C130.824 434.072 129.768 433.08 128.168 433.08C126.536 433.08 125.4 434.104 125.4 436.232V441H124.28V432.264H125.4V433.752C125.96 432.664 127.08 432.104 128.376 432.104C130.36 432.104 131.928 433.32 131.928 435.88V441H130.824ZM134.725 438.632V433.208H133.509V432.264H134.725V430.072H135.861V432.264H138.261V433.208H135.861V438.632C135.861 439.704 136.229 440.04 137.237 440.04H138.261V441H137.061C135.541 441 134.725 440.376 134.725 438.632ZM143.836 433.096C142.252 433.096 140.86 434.12 140.732 436.152H146.876C146.924 434.12 145.452 433.096 143.836 433.096ZM147.884 438.232C147.484 439.88 146.076 441.128 143.884 441.128C141.404 441.128 139.596 439.4 139.596 436.632C139.596 433.848 141.372 432.136 143.884 432.136C146.444 432.136 148.012 433.96 148.012 436.184C148.012 436.536 148.012 436.76 147.98 437.064H140.732C140.828 439.112 142.252 440.184 143.884 440.184C145.372 440.184 146.38 439.4 146.7 438.232H147.884ZM149.549 436.616C149.549 433.88 151.325 432.136 153.725 432.136C155.453 432.136 156.685 433.064 157.181 434.168V432.264H158.301V441.224C158.301 443.672 156.621 445.288 154.221 445.288C151.965 445.288 150.397 444.136 150.045 442.312H151.149C151.517 443.496 152.621 444.312 154.221 444.312C155.885 444.312 157.181 443.208 157.181 441.224V439.064C156.669 440.184 155.453 441.128 153.725 441.128C151.325 441.128 149.549 439.352 149.549 436.616ZM157.181 436.632C157.181 434.456 155.725 433.112 153.933 433.112C152.093 433.112 150.685 434.392 150.685 436.616C150.685 438.824 152.093 440.152 153.933 440.152C155.725 440.152 157.181 438.808 157.181 436.632ZM161.978 436.12V441H160.858V432.264H161.978V433.816C162.458 432.744 163.466 432.104 164.97 432.104V433.272H164.666C163.21 433.272 161.978 433.928 161.978 436.12ZM166.143 436.616C166.143 433.88 167.919 432.136 170.319 432.136C172.079 432.136 173.279 433.08 173.775 434.184V432.264H174.895V441H173.775V439.064C173.263 440.184 172.047 441.128 170.303 441.128C167.919 441.128 166.143 439.352 166.143 436.616ZM173.775 436.632C173.775 434.456 172.319 433.112 170.527 433.112C168.687 433.112 167.279 434.392 167.279 436.616C167.279 438.824 168.687 440.152 170.527 440.152C172.319 440.152 173.775 438.808 173.775 436.632ZM177.772 438.632V433.208H176.556V432.264H177.772V430.072H178.908V432.264H181.308V433.208H178.908V438.632C178.908 439.704 179.276 440.04 180.284 440.04H181.308V441H180.108C178.588 441 177.772 440.376 177.772 438.632ZM183.155 441V432.264H184.275V441H183.155ZM183.715 430.616C183.267 430.616 182.899 430.264 182.899 429.784C182.899 429.304 183.267 428.968 183.715 428.968C184.163 428.968 184.531 429.304 184.531 429.784C184.531 430.264 184.163 430.616 183.715 430.616ZM195.035 436.632C195.035 439.4 193.099 441.128 190.635 441.128C188.171 441.128 186.299 439.4 186.299 436.632C186.299 433.848 188.219 432.136 190.667 432.136C193.131 432.136 195.035 433.848 195.035 436.632ZM187.435 436.632C187.435 439.032 188.971 440.152 190.635 440.152C192.283 440.152 193.883 439.032 193.883 436.632C193.883 434.232 192.315 433.112 190.651 433.112C188.987 433.112 187.435 434.232 187.435 436.632ZM203.621 441V436.008C203.621 434.072 202.565 433.08 200.965 433.08C199.333 433.08 198.197 434.104 198.197 436.232V441H197.077V432.264H198.197V433.752C198.757 432.664 199.877 432.104 201.173 432.104C203.157 432.104 204.725 433.32 204.725 435.88V441H203.621ZM213.25 438.68C213.25 440.088 212.018 441.128 210.21 441.128C208.226 441.128 206.834 440.136 206.69 438.536H207.842C207.938 439.496 208.77 440.184 210.194 440.184C211.442 440.184 212.146 439.512 212.146 438.68C212.146 436.52 206.898 437.784 206.898 434.504C206.898 433.208 208.13 432.136 209.97 432.136C211.842 432.136 213.074 433.128 213.17 434.808H212.05C211.986 433.832 211.266 433.096 209.938 433.096C208.77 433.096 208.034 433.72 208.034 434.488C208.034 436.856 213.202 435.592 213.25 438.68Z" fill="black"/>
<path d="M56.592 492.816C60.32 492.816 62.512 494.928 62.512 498.432C62.512 501.904 60.32 504 56.592 504H53.28V492.816H56.592ZM54.4 503.072H56.592C59.76 503.072 61.376 501.312 61.376 498.432C61.376 495.536 59.76 493.744 56.592 493.744H54.4V503.072ZM68.3049 496.096C66.7209 496.096 65.3289 497.12 65.2009 499.152H71.3449C71.3929 497.12 69.9209 496.096 68.3049 496.096ZM72.3529 501.232C71.9529 502.88 70.5449 504.128 68.3529 504.128C65.8729 504.128 64.0649 502.4 64.0649 499.632C64.0649 496.848 65.8409 495.136 68.3529 495.136C70.9129 495.136 72.4809 496.96 72.4809 499.184C72.4809 499.536 72.4809 499.76 72.4489 500.064H65.2009C65.2969 502.112 66.7209 503.184 68.3529 503.184C69.8409 503.184 70.8489 502.4 71.1689 501.232H72.3529ZM74.018 499.616C74.018 496.88 75.794 495.136 78.21 495.136C79.778 495.136 81.09 496 81.65 497.152V492.16H82.77V504H81.65V502.048C81.138 503.2 79.922 504.128 78.194 504.128C75.794 504.128 74.018 502.352 74.018 499.616ZM81.65 499.632C81.65 497.456 80.194 496.112 78.402 496.112C76.562 496.112 75.154 497.392 75.154 499.616C75.154 501.824 76.562 503.152 78.402 503.152C80.194 503.152 81.65 501.808 81.65 499.632ZM85.3269 504V495.264H86.4469V504H85.3269ZM85.8869 493.616C85.4389 493.616 85.0709 493.264 85.0709 492.784C85.0709 492.304 85.4389 491.968 85.8869 491.968C86.3349 491.968 86.7029 492.304 86.7029 492.784C86.7029 493.264 86.3349 493.616 85.8869 493.616ZM88.4711 499.632C88.4711 496.864 90.2471 495.136 92.7111 495.136C94.9031 495.136 96.3271 496.304 96.7271 498.112H95.5271C95.2391 496.864 94.1831 496.096 92.7111 496.096C90.9991 496.096 89.6071 497.264 89.6071 499.632C89.6071 502 90.9991 503.184 92.7111 503.184C94.1831 503.184 95.2231 502.432 95.5271 501.152H96.7271C96.3271 502.896 94.9031 504.128 92.7111 504.128C90.2471 504.128 88.4711 502.4 88.4711 499.632ZM98.2836 499.616C98.2836 496.88 100.06 495.136 102.46 495.136C104.22 495.136 105.42 496.08 105.916 497.184V495.264H107.036V504H105.916V502.064C105.404 503.184 104.188 504.128 102.444 504.128C100.06 504.128 98.2836 502.352 98.2836 499.616ZM105.916 499.632C105.916 497.456 104.46 496.112 102.668 496.112C100.828 496.112 99.4196 497.392 99.4196 499.616C99.4196 501.824 100.828 503.152 102.668 503.152C104.46 503.152 105.916 501.808 105.916 499.632ZM109.913 501.632V496.208H108.697V495.264H109.913V493.072H111.049V495.264H113.449V496.208H111.049V501.632C111.049 502.704 111.417 503.04 112.424 503.04H113.449V504H112.249C110.729 504 109.913 503.376 109.913 501.632ZM119.024 496.096C117.44 496.096 116.048 497.12 115.92 499.152H122.064C122.112 497.12 120.64 496.096 119.024 496.096ZM123.072 501.232C122.672 502.88 121.264 504.128 119.072 504.128C116.592 504.128 114.784 502.4 114.784 499.632C114.784 496.848 116.56 495.136 119.072 495.136C121.632 495.136 123.2 496.96 123.2 499.184C123.2 499.536 123.2 499.76 123.168 500.064H115.92C116.016 502.112 117.44 503.184 119.072 503.184C120.56 503.184 121.568 502.4 121.888 501.232H123.072ZM124.737 499.616C124.737 496.88 126.513 495.136 128.929 495.136C130.497 495.136 131.809 496 132.369 497.152V492.16H133.489V504H132.369V502.048C131.857 503.2 130.641 504.128 128.913 504.128C126.513 504.128 124.737 502.352 124.737 499.616ZM132.369 499.632C132.369 497.456 130.913 496.112 129.121 496.112C127.281 496.112 125.873 497.392 125.873 499.616C125.873 501.824 127.281 503.152 129.121 503.152C130.913 503.152 132.369 501.808 132.369 499.632ZM147.892 504L146.916 501.344H141.828L140.852 504H139.668L143.748 492.96H145.012L149.076 504H147.892ZM146.58 500.416L144.372 494.368L142.164 500.416H146.58ZM150.362 499.632C150.362 496.864 152.138 495.136 154.602 495.136C156.794 495.136 158.218 496.304 158.618 498.112H157.418C157.13 496.864 156.074 496.096 154.602 496.096C152.89 496.096 151.498 497.264 151.498 499.632C151.498 502 152.89 503.184 154.602 503.184C156.074 503.184 157.114 502.432 157.418 501.152H158.618C158.218 502.896 156.794 504.128 154.602 504.128C152.138 504.128 150.362 502.4 150.362 499.632ZM160.174 499.632C160.174 496.864 161.95 495.136 164.414 495.136C166.606 495.136 168.03 496.304 168.43 498.112H167.23C166.942 496.864 165.886 496.096 164.414 496.096C162.702 496.096 161.31 497.264 161.31 499.632C161.31 502 162.702 503.184 164.414 503.184C165.886 503.184 166.926 502.432 167.23 501.152H168.43C168.03 502.896 166.606 504.128 164.414 504.128C161.95 504.128 160.174 502.4 160.174 499.632ZM178.723 499.632C178.723 502.4 176.787 504.128 174.323 504.128C171.859 504.128 169.987 502.4 169.987 499.632C169.987 496.848 171.907 495.136 174.355 495.136C176.819 495.136 178.723 496.848 178.723 499.632ZM171.123 499.632C171.123 502.032 172.659 503.152 174.323 503.152C175.971 503.152 177.571 502.032 177.571 499.632C177.571 497.232 176.003 496.112 174.339 496.112C172.675 496.112 171.123 497.232 171.123 499.632ZM188.332 495.264V504H187.212V502.464C186.684 503.568 185.532 504.144 184.236 504.144C182.252 504.144 180.684 502.928 180.684 500.368V495.264H181.788V500.24C181.788 502.176 182.844 503.168 184.444 503.168C186.076 503.168 187.212 502.144 187.212 500.016V495.264H188.332ZM197.433 504V499.008C197.433 497.072 196.377 496.08 194.777 496.08C193.145 496.08 192.009 497.104 192.009 499.232V504H190.889V495.264H192.009V496.752C192.569 495.664 193.689 495.104 194.985 495.104C196.969 495.104 198.537 496.32 198.537 498.88V504H197.433ZM201.334 501.632V496.208H200.118V495.264H201.334V493.072H202.47V495.264H204.87V496.208H202.47V501.632C202.47 502.704 202.838 503.04 203.846 503.04H204.87V504H203.67C202.15 504 201.334 503.376 201.334 501.632ZM211.108 504V492.96H212.292L216.564 502.528L220.836 492.96H222.036V504H220.916V495.184L216.98 504H216.164L212.228 495.216V504H211.108ZM224.065 499.616C224.065 496.88 225.841 495.136 228.241 495.136C230.001 495.136 231.201 496.08 231.697 497.184V495.264H232.817V504H231.697V502.064C231.185 503.184 229.969 504.128 228.225 504.128C225.841 504.128 224.065 502.352 224.065 499.616ZM231.697 499.632C231.697 497.456 230.241 496.112 228.449 496.112C226.609 496.112 225.201 497.392 225.201 499.616C225.201 501.824 226.609 503.152 228.449 503.152C230.241 503.152 231.697 501.808 231.697 499.632ZM241.918 504V499.008C241.918 497.072 240.862 496.08 239.262 496.08C237.63 496.08 236.494 497.104 236.494 499.232V504H235.374V495.264H236.494V496.752C237.054 495.664 238.174 495.104 239.47 495.104C241.454 495.104 243.022 496.32 243.022 498.88V504H241.918ZM244.987 499.616C244.987 496.88 246.763 495.136 249.163 495.136C250.923 495.136 252.123 496.08 252.619 497.184V495.264H253.739V504H252.619V502.064C252.107 503.184 250.891 504.128 249.147 504.128C246.763 504.128 244.987 502.352 244.987 499.616ZM252.619 499.632C252.619 497.456 251.163 496.112 249.371 496.112C247.531 496.112 246.123 497.392 246.123 499.616C246.123 501.824 247.531 503.152 249.371 503.152C251.163 503.152 252.619 501.808 252.619 499.632ZM255.784 499.616C255.784 496.88 257.56 495.136 259.96 495.136C261.688 495.136 262.92 496.064 263.416 497.168V495.264H264.536V504.224C264.536 506.672 262.856 508.288 260.456 508.288C258.2 508.288 256.632 507.136 256.28 505.312H257.384C257.752 506.496 258.856 507.312 260.456 507.312C262.12 507.312 263.416 506.208 263.416 504.224V502.064C262.904 503.184 261.688 504.128 259.96 504.128C257.56 504.128 255.784 502.352 255.784 499.616ZM263.416 499.632C263.416 497.456 261.96 496.112 260.168 496.112C258.328 496.112 256.92 497.392 256.92 499.616C256.92 501.824 258.328 503.152 260.168 503.152C261.96 503.152 263.416 501.808 263.416 499.632ZM270.821 496.096C269.237 496.096 267.845 497.12 267.717 499.152H273.861C273.909 497.12 272.437 496.096 270.821 496.096ZM274.869 501.232C274.469 502.88 273.061 504.128 270.869 504.128C268.389 504.128 266.581 502.4 266.581 499.632C266.581 496.848 268.357 495.136 270.869 495.136C273.429 495.136 274.997 496.96 274.997 499.184C274.997 499.536 274.997 499.76 274.965 500.064H267.717C267.812 502.112 269.237 503.184 270.869 503.184C272.357 503.184 273.365 502.4 273.685 501.232H274.869ZM278.166 499.12V504H277.046V495.264H278.166V496.816C278.646 495.744 279.654 495.104 281.158 495.104V496.272H280.854C279.398 496.272 278.166 496.928 278.166 499.12Z" fill="black"/>
<line y1="144.5" x2="1236" y2="144.5" stroke="#E1DFEC"/>
<path d="M501.208 40.224C501.208 38.568 499.96 37.56 498.136 37.56H494.536V42.768H498.232C500.08 42.768 501.208 41.832 501.208 40.224ZM500.776 32.952C500.776 31.44 499.696 30.552 497.92 30.552H494.536V35.328H497.92C499.696 35.328 500.776 34.488 500.776 32.952ZM503.944 40.512C503.944 43.056 501.88 45 498.472 45H491.8V28.32H498.16C501.688 28.32 503.56 30.264 503.56 32.616C503.56 34.632 502.336 35.856 500.728 36.432C502.504 36.744 503.944 38.52 503.944 40.512ZM506.005 38.328C506.005 34.248 508.765 31.56 512.245 31.56C514.477 31.56 516.013 32.616 516.829 33.696V31.776H519.589V45H516.829V43.032C515.989 44.16 514.405 45.216 512.197 45.216C508.765 45.216 506.005 42.408 506.005 38.328ZM516.829 38.376C516.829 35.544 514.885 33.936 512.821 33.936C510.781 33.936 508.813 35.472 508.813 38.328C508.813 41.184 510.781 42.84 512.821 42.84C514.885 42.84 516.829 41.232 516.829 38.376ZM533.047 41.304C533.047 43.536 531.103 45.216 527.983 45.216C524.815 45.216 522.583 43.344 522.463 40.944H525.295C525.391 42.024 526.423 42.912 527.935 42.912C529.519 42.912 530.359 42.24 530.359 41.328C530.359 38.736 522.679 40.224 522.679 35.376C522.679 33.264 524.647 31.56 527.767 31.56C530.767 31.56 532.735 33.168 532.879 35.808H530.143C530.047 34.656 529.159 33.864 527.671 33.864C526.207 33.864 525.439 34.464 525.439 35.352C525.439 38.016 532.903 36.528 533.047 41.304ZM536.003 45V31.776H538.739V45H536.003ZM537.395 30.024C536.411 30.024 535.643 29.256 535.643 28.272C535.643 27.288 536.411 26.52 537.395 26.52C538.355 26.52 539.123 27.288 539.123 28.272C539.123 29.256 538.355 30.024 537.395 30.024ZM541.419 38.376C541.419 34.248 544.107 31.56 547.899 31.56C551.139 31.56 553.251 33.168 553.995 35.952H551.043C550.587 34.68 549.531 33.864 547.899 33.864C545.691 33.864 544.227 35.496 544.227 38.376C544.227 41.28 545.691 42.912 547.899 42.912C549.531 42.912 550.539 42.192 551.043 40.824H553.995C553.251 43.416 551.139 45.216 547.899 45.216C544.107 45.216 541.419 42.528 541.419 38.376ZM565.692 36H568.716C570.852 36 571.812 34.968 571.812 33.288C571.812 31.56 570.852 30.552 568.716 30.552H565.692V36ZM574.62 33.288C574.62 35.664 573.06 38.232 568.716 38.232H565.692V45H562.956V28.32H568.716C572.676 28.32 574.62 30.576 574.62 33.288ZM577.23 45V27.24H579.966V45H577.23ZM582.646 38.328C582.646 34.248 585.406 31.56 588.886 31.56C591.118 31.56 592.654 32.616 593.47 33.696V31.776H596.23V45H593.47V43.032C592.63 44.16 591.046 45.216 588.838 45.216C585.406 45.216 582.646 42.408 582.646 38.328ZM593.47 38.376C593.47 35.544 591.526 33.936 589.462 33.936C587.422 33.936 585.454 35.472 585.454 38.328C585.454 41.184 587.422 42.84 589.462 42.84C591.526 42.84 593.47 41.232 593.47 38.376ZM609.207 45V37.608C609.207 35.184 607.887 33.936 605.895 33.936C603.879 33.936 602.559 35.184 602.559 37.608V45H599.823V31.776H602.559V33.288C603.447 32.208 604.911 31.56 606.495 31.56C609.591 31.56 611.919 33.504 611.919 37.2V45H609.207Z" fill="black"/>
<path d="M718.536 36H721.56C723.696 36 724.656 34.968 724.656 33.288C724.656 31.56 723.696 30.552 721.56 30.552H718.536V36ZM727.464 33.288C727.464 35.664 725.904 38.232 721.56 38.232H718.536V45H715.8V28.32H721.56C725.52 28.32 727.464 30.576 727.464 33.288ZM732.809 38.04V45H730.073V31.776H732.809V33.696C733.577 32.376 734.897 31.56 736.769 31.56V34.392H736.073C734.057 34.392 732.809 35.232 732.809 38.04ZM751.884 38.376C751.884 42.528 748.812 45.216 745.02 45.216C741.252 45.216 738.396 42.528 738.396 38.376C738.396 34.224 741.372 31.56 745.14 31.56C748.908 31.56 751.884 34.224 751.884 38.376ZM741.18 38.376C741.18 41.376 742.956 42.84 745.02 42.84C747.06 42.84 749.076 41.376 749.076 38.376C749.076 35.376 747.132 33.936 745.092 33.936C743.028 33.936 741.18 35.376 741.18 38.376ZM754.925 45V34.008H753.365V31.776H754.925V30.84C754.925 27.792 756.485 26.472 759.941 26.472V28.752C758.261 28.752 757.685 29.328 757.685 30.84V31.776H760.133V34.008H757.685V45H754.925ZM768.126 33.864C766.278 33.864 764.79 35.112 764.502 37.2H771.822C771.774 35.16 770.166 33.864 768.126 33.864ZM774.318 41.064C773.574 43.368 771.486 45.216 768.246 45.216C764.454 45.216 761.646 42.528 761.646 38.376C761.646 34.224 764.334 31.56 768.246 31.56C772.014 31.56 774.678 34.176 774.678 38.064C774.678 38.52 774.654 38.952 774.582 39.408H764.478C764.67 41.592 766.23 42.912 768.246 42.912C769.926 42.912 770.862 42.096 771.366 41.064H774.318ZM787.234 41.304C787.234 43.536 785.29 45.216 782.17 45.216C779.002 45.216 776.77 43.344 776.65 40.944H779.482C779.578 42.024 780.61 42.912 782.122 42.912C783.706 42.912 784.546 42.24 784.546 41.328C784.546 38.736 776.866 40.224 776.866 35.376C776.866 33.264 778.834 31.56 781.954 31.56C784.954 31.56 786.922 33.168 787.066 35.808H784.33C784.234 34.656 783.346 33.864 781.858 33.864C780.394 33.864 779.626 34.464 779.626 35.352C779.626 38.016 787.09 36.528 787.234 41.304ZM800.055 41.304C800.055 43.536 798.111 45.216 794.991 45.216C791.823 45.216 789.591 43.344 789.471 40.944H792.303C792.399 42.024 793.431 42.912 794.943 42.912C796.527 42.912 797.367 42.24 797.367 41.328C797.367 38.736 789.687 40.224 789.687 35.376C789.687 33.264 791.655 31.56 794.775 31.56C797.775 31.56 799.743 33.168 799.887 35.808H797.151C797.055 34.656 796.167 33.864 794.679 33.864C793.215 33.864 792.447 34.464 792.447 35.352C792.447 38.016 799.911 36.528 800.055 41.304ZM803.011 45V31.776H805.747V45H803.011ZM804.403 30.024C803.419 30.024 802.651 29.256 802.651 28.272C802.651 27.288 803.419 26.52 804.403 26.52C805.363 26.52 806.131 27.288 806.131 28.272C806.131 29.256 805.363 30.024 804.403 30.024ZM821.939 38.376C821.939 42.528 818.867 45.216 815.075 45.216C811.307 45.216 808.451 42.528 808.451 38.376C808.451 34.224 811.427 31.56 815.195 31.56C818.963 31.56 821.939 34.224 821.939 38.376ZM811.235 38.376C811.235 41.376 813.011 42.84 815.075 42.84C817.115 42.84 819.131 41.376 819.131 38.376C819.131 35.376 817.187 33.936 815.147 33.936C813.083 33.936 811.235 35.376 811.235 38.376ZM834.028 45V37.608C834.028 35.184 832.708 33.936 830.716 33.936C828.7 33.936 827.38 35.184 827.38 37.608V45H824.644V31.776H827.38V33.288C828.268 32.208 829.732 31.56 831.316 31.56C834.412 31.56 836.74 33.504 836.74 37.2V45H834.028ZM839.318 38.328C839.318 34.248 842.078 31.56 845.558 31.56C847.79 31.56 849.326 32.616 850.142 33.696V31.776H852.902V45H850.142V43.032C849.302 44.16 847.718 45.216 845.51 45.216C842.078 45.216 839.318 42.408 839.318 38.328ZM850.142 38.376C850.142 35.544 848.198 33.936 846.134 33.936C844.094 33.936 842.126 35.472 842.126 38.328C842.126 41.184 844.094 42.84 846.134 42.84C848.198 42.84 850.142 41.232 850.142 38.376ZM856.495 45V27.24H859.231V45H856.495ZM871.794 36H874.818C876.954 36 877.914 34.968 877.914 33.288C877.914 31.56 876.954 30.552 874.818 30.552H871.794V36ZM880.722 33.288C880.722 35.664 879.162 38.232 874.818 38.232H871.794V45H869.058V28.32H874.818C878.778 28.32 880.722 30.576 880.722 33.288ZM883.331 45V27.24H886.067V45H883.331ZM888.747 38.328C888.747 34.248 891.507 31.56 894.987 31.56C897.219 31.56 898.755 32.616 899.571 33.696V31.776H902.331V45H899.571V43.032C898.731 44.16 897.147 45.216 894.939 45.216C891.507 45.216 888.747 42.408 888.747 38.328ZM899.571 38.376C899.571 35.544 897.627 33.936 895.563 33.936C893.523 33.936 891.555 35.472 891.555 38.328C891.555 41.184 893.523 42.84 895.563 42.84C897.627 42.84 899.571 41.232 899.571 38.376ZM915.309 45V37.608C915.309 35.184 913.989 33.936 911.997 33.936C909.981 33.936 908.661 35.184 908.661 37.608V45H905.925V31.776H908.661V33.288C909.549 32.208 911.013 31.56 912.597 31.56C915.693 31.56 918.021 33.504 918.021 37.2V45H915.309Z" fill="black"/>
<path d="M1005.02 28.296V30.528H998.536V35.424H1004.3V37.656H998.536V42.768H1005.02V45H995.8V28.296H1005.02ZM1017.77 45V37.608C1017.77 35.184 1016.45 33.936 1014.46 33.936C1012.44 33.936 1011.12 35.184 1011.12 37.608V45H1008.39V31.776H1011.12V33.288C1012.01 32.208 1013.47 31.56 1015.06 31.56C1018.15 31.56 1020.48 33.504 1020.48 37.2V45H1017.77ZM1024.4 41.328V34.008H1022.84V31.776H1024.4V28.488H1027.16V31.776H1030.38V34.008H1027.16V41.328C1027.16 42.312 1027.55 42.72 1028.7 42.72H1030.38V45H1028.22C1025.87 45 1024.4 44.016 1024.4 41.328ZM1038.47 33.864C1036.62 33.864 1035.13 35.112 1034.85 37.2H1042.17C1042.12 35.16 1040.51 33.864 1038.47 33.864ZM1044.66 41.064C1043.92 43.368 1041.83 45.216 1038.59 45.216C1034.8 45.216 1031.99 42.528 1031.99 38.376C1031.99 34.224 1034.68 31.56 1038.59 31.56C1042.36 31.56 1045.02 34.176 1045.02 38.064C1045.02 38.52 1045 38.952 1044.93 39.408H1034.82C1035.01 41.592 1036.57 42.912 1038.59 42.912C1040.27 42.912 1041.21 42.096 1041.71 41.064H1044.66ZM1050.45 38.04V45H1047.71V31.776H1050.45V33.696C1051.22 32.376 1052.54 31.56 1054.41 31.56V34.392H1053.71C1051.7 34.392 1050.45 35.232 1050.45 38.04ZM1059.66 33.72C1060.5 32.616 1062.11 31.56 1064.27 31.56C1067.75 31.56 1070.49 34.248 1070.49 38.328C1070.49 42.408 1067.75 45.216 1064.27 45.216C1062.09 45.216 1060.53 44.112 1059.66 43.08V51.288H1056.93V31.776H1059.66V33.72ZM1067.7 38.328C1067.7 35.472 1065.73 33.936 1063.67 33.936C1061.63 33.936 1059.66 35.544 1059.66 38.376C1059.66 41.232 1061.63 42.84 1063.67 42.84C1065.73 42.84 1067.7 41.184 1067.7 38.328ZM1075.93 38.04V45H1073.19V31.776H1075.93V33.696C1076.69 32.376 1078.01 31.56 1079.89 31.56V34.392H1079.19C1077.17 34.392 1075.93 35.232 1075.93 38.04ZM1082.4 45V31.776H1085.14V45H1082.4ZM1083.79 30.024C1082.81 30.024 1082.04 29.256 1082.04 28.272C1082.04 27.288 1082.81 26.52 1083.79 26.52C1084.75 26.52 1085.52 27.288 1085.52 28.272C1085.52 29.256 1084.75 30.024 1083.79 30.024ZM1098.59 41.304C1098.59 43.536 1096.65 45.216 1093.53 45.216C1090.36 45.216 1088.13 43.344 1088.01 40.944H1090.84C1090.94 42.024 1091.97 42.912 1093.48 42.912C1095.07 42.912 1095.91 42.24 1095.91 41.328C1095.91 38.736 1088.23 40.224 1088.23 35.376C1088.23 33.264 1090.19 31.56 1093.31 31.56C1096.31 31.56 1098.28 33.168 1098.43 35.808H1095.69C1095.59 34.656 1094.71 33.864 1093.22 33.864C1091.75 33.864 1090.99 34.464 1090.99 35.352C1090.99 38.016 1098.45 36.528 1098.59 41.304ZM1107.12 33.864C1105.27 33.864 1103.78 35.112 1103.49 37.2H1110.81C1110.77 35.16 1109.16 33.864 1107.12 33.864ZM1113.31 41.064C1112.57 43.368 1110.48 45.216 1107.24 45.216C1103.45 45.216 1100.64 42.528 1100.64 38.376C1100.64 34.224 1103.33 31.56 1107.24 31.56C1111.01 31.56 1113.67 34.176 1113.67 38.064C1113.67 38.52 1113.65 38.952 1113.57 39.408H1103.47C1103.66 41.592 1105.22 42.912 1107.24 42.912C1108.92 42.912 1109.85 42.096 1110.36 41.064H1113.31ZM1125.33 36H1128.36C1130.49 36 1131.45 34.968 1131.45 33.288C1131.45 31.56 1130.49 30.552 1128.36 30.552H1125.33V36ZM1134.26 33.288C1134.26 35.664 1132.7 38.232 1128.36 38.232H1125.33V45H1122.6V28.32H1128.36C1132.32 28.32 1134.26 30.576 1134.26 33.288ZM1136.87 45V27.24H1139.61V45H1136.87ZM1142.29 38.328C1142.29 34.248 1145.05 31.56 1148.53 31.56C1150.76 31.56 1152.29 32.616 1153.11 33.696V31.776H1155.87V45H1153.11V43.032C1152.27 44.16 1150.69 45.216 1148.48 45.216C1145.05 45.216 1142.29 42.408 1142.29 38.328ZM1153.11 38.376C1153.11 35.544 1151.17 33.936 1149.1 33.936C1147.06 33.936 1145.09 35.472 1145.09 38.328C1145.09 41.184 1147.06 42.84 1149.1 42.84C1151.17 42.84 1153.11 41.232 1153.11 38.376ZM1168.85 45V37.608C1168.85 35.184 1167.53 33.936 1165.54 33.936C1163.52 33.936 1162.2 35.184 1162.2 37.608V45H1159.46V31.776H1162.2V33.288C1163.09 32.208 1164.55 31.56 1166.14 31.56C1169.23 31.56 1171.56 33.504 1171.56 37.2V45H1168.85Z" fill="black"/>
<path d="M562.067 101.815C561.927 101.674 561.761 101.563 561.579 101.487C561.396 101.41 561.2 101.371 561.002 101.371C560.804 101.371 560.608 101.41 560.425 101.487C560.242 101.563 560.076 101.674 559.937 101.815L548.762 113.005L544.067 108.295C543.922 108.155 543.751 108.045 543.564 107.971C543.376 107.897 543.176 107.861 542.975 107.865C542.774 107.868 542.575 107.911 542.391 107.991C542.206 108.072 542.039 108.188 541.899 108.332C541.759 108.477 541.649 108.648 541.575 108.835C541.502 109.023 541.466 109.223 541.469 109.424C541.472 109.625 541.516 109.824 541.596 110.008C541.676 110.193 541.792 110.36 541.937 110.5L547.697 116.26C547.836 116.4 548.002 116.512 548.185 116.588C548.368 116.664 548.564 116.703 548.762 116.703C548.96 116.703 549.156 116.664 549.339 116.588C549.521 116.512 549.687 116.4 549.827 116.26L562.067 104.02C562.219 103.879 562.34 103.709 562.424 103.519C562.507 103.329 562.549 103.125 562.549 102.917C562.549 102.71 562.507 102.505 562.424 102.316C562.34 102.126 562.219 101.955 562.067 101.815Z" fill="#4ECF4C"/>
<path d="M562.067 293.815C561.927 293.674 561.761 293.563 561.579 293.487C561.396 293.41 561.2 293.371 561.002 293.371C560.804 293.371 560.608 293.41 560.425 293.487C560.242 293.563 560.076 293.674 559.937 293.815L548.762 305.005L544.067 300.295C543.922 300.155 543.751 300.045 543.564 299.971C543.376 299.897 543.176 299.861 542.975 299.865C542.774 299.868 542.575 299.911 542.391 299.991C542.206 300.072 542.039 300.188 541.899 300.332C541.759 300.477 541.649 300.648 541.575 300.835C541.502 301.023 541.466 301.223 541.469 301.424C541.472 301.625 541.516 301.824 541.596 302.008C541.676 302.193 541.792 302.36 541.937 302.5L547.697 308.26C547.836 308.4 548.002 308.512 548.185 308.588C548.368 308.664 548.564 308.703 548.762 308.703C548.96 308.703 549.156 308.664 549.339 308.588C549.521 308.512 549.687 308.4 549.827 308.26L562.067 296.02C562.219 295.879 562.34 295.709 562.424 295.519C562.507 295.329 562.549 295.125 562.549 294.917C562.549 294.71 562.507 294.505 562.424 294.316C562.34 294.126 562.219 293.955 562.067 293.815Z" fill="#4ECF4C"/>
<path d="M822.067 101.815C821.927 101.674 821.761 101.563 821.579 101.487C821.396 101.41 821.2 101.371 821.002 101.371C820.804 101.371 820.608 101.41 820.425 101.487C820.242 101.563 820.076 101.674 819.937 101.815L808.762 113.005L804.067 108.295C803.922 108.155 803.751 108.045 803.564 107.971C803.376 107.897 803.176 107.861 802.975 107.865C802.774 107.868 802.575 107.911 802.391 107.991C802.206 108.072 802.039 108.188 801.899 108.332C801.759 108.477 801.649 108.648 801.575 108.835C801.502 109.023 801.466 109.223 801.469 109.424C801.472 109.625 801.516 109.824 801.596 110.008C801.676 110.193 801.792 110.36 801.937 110.5L807.697 116.26C807.836 116.4 808.002 116.512 808.185 116.588C808.368 116.664 808.564 116.703 808.762 116.703C808.96 116.703 809.156 116.664 809.339 116.588C809.521 116.512 809.687 116.4 809.827 116.26L822.067 104.02C822.219 103.879 822.34 103.709 822.424 103.519C822.507 103.329 822.549 103.125 822.549 102.917C822.549 102.71 822.507 102.505 822.424 102.316C822.34 102.126 822.219 101.955 822.067 101.815Z" fill="#4ECF4C"/>
<path d="M822.067 165.815C821.927 165.674 821.761 165.563 821.579 165.487C821.396 165.41 821.2 165.371 821.002 165.371C820.804 165.371 820.608 165.41 820.425 165.487C820.242 165.563 820.076 165.674 819.937 165.815L808.762 177.005L804.067 172.295C803.922 172.155 803.751 172.045 803.564 171.971C803.376 171.897 803.176 171.861 802.975 171.865C802.774 171.868 802.575 171.911 802.391 171.991C802.206 172.072 802.039 172.188 801.899 172.332C801.759 172.477 801.649 172.648 801.575 172.835C801.502 173.023 801.466 173.223 801.469 173.424C801.472 173.625 801.516 173.824 801.596 174.008C801.676 174.193 801.792 174.36 801.937 174.5L807.697 180.26C807.836 180.4 808.002 180.512 808.185 180.588C808.368 180.664 808.564 180.703 808.762 180.703C808.96 180.703 809.156 180.664 809.339 180.588C809.521 180.512 809.687 180.4 809.827 180.26L822.067 168.02C822.219 167.879 822.34 167.709 822.424 167.519C822.507 167.329 822.549 167.125 822.549 166.917C822.549 166.71 822.507 166.505 822.424 166.316C822.34 166.126 822.219 165.955 822.067 165.815Z" fill="#4ECF4C"/>
<path d="M822.067 229.815C821.927 229.674 821.761 229.563 821.579 229.487C821.396 229.41 821.2 229.371 821.002 229.371C820.804 229.371 820.608 229.41 820.425 229.487C820.242 229.563 820.076 229.674 819.937 229.815L808.762 241.005L804.067 236.295C803.922 236.155 803.751 236.045 803.564 235.971C803.376 235.897 803.176 235.861 802.975 235.865C802.774 235.868 802.575 235.911 802.391 235.991C802.206 236.072 802.039 236.188 801.899 236.332C801.759 236.477 801.649 236.648 801.575 236.835C801.502 237.023 801.466 237.223 801.469 237.424C801.472 237.625 801.516 237.824 801.596 238.008C801.676 238.193 801.792 238.36 801.937 238.5L807.697 244.26C807.836 244.4 808.002 244.512 808.185 244.588C808.368 244.664 808.564 244.703 808.762 244.703C808.96 244.703 809.156 244.664 809.339 244.588C809.521 244.512 809.687 244.4 809.827 244.26L822.067 232.02C822.219 231.879 822.34 231.709 822.424 231.519C822.507 231.329 822.549 231.125 822.549 230.917C822.549 230.71 822.507 230.505 822.424 230.316C822.34 230.126 822.219 229.955 822.067 229.815Z" fill="#4ECF4C"/>
<path d="M822.067 293.815C821.927 293.674 821.761 293.563 821.579 293.487C821.396 293.41 821.2 293.371 821.002 293.371C820.804 293.371 820.608 293.41 820.425 293.487C820.242 293.563 820.076 293.674 819.937 293.815L808.762 305.005L804.067 300.295C803.922 300.155 803.751 300.045 803.564 299.971C803.376 299.897 803.176 299.861 802.975 299.865C802.774 299.868 802.575 299.911 802.391 299.991C802.206 300.072 802.039 300.188 801.899 300.332C801.759 300.477 801.649 300.648 801.575 300.835C801.502 301.023 801.466 301.223 801.469 301.424C801.472 301.625 801.516 301.824 801.596 302.008C801.676 302.193 801.792 302.36 801.937 302.5L807.697 308.26C807.836 308.4 808.002 308.512 808.185 308.588C808.368 308.664 808.564 308.703 808.762 308.703C808.96 308.703 809.156 308.664 809.339 308.588C809.521 308.512 809.687 308.4 809.827 308.26L822.067 296.02C822.219 295.879 822.34 295.709 822.424 295.519C822.507 295.329 822.549 295.125 822.549 294.917C822.549 294.71 822.507 294.505 822.424 294.316C822.34 294.126 822.219 293.955 822.067 293.815Z" fill="#4ECF4C"/>
<path d="M822.067 357.815C821.927 357.674 821.761 357.563 821.579 357.487C821.396 357.41 821.2 357.371 821.002 357.371C820.804 357.371 820.608 357.41 820.425 357.487C820.242 357.563 820.076 357.674 819.937 357.815L808.762 369.005L804.067 364.295C803.922 364.155 803.751 364.045 803.564 363.971C803.376 363.897 803.176 363.861 802.975 363.865C802.774 363.868 802.575 363.911 802.391 363.991C802.206 364.072 802.039 364.188 801.899 364.332C801.759 364.477 801.649 364.648 801.575 364.835C801.502 365.023 801.466 365.223 801.469 365.424C801.472 365.625 801.516 365.824 801.596 366.008C801.676 366.193 801.792 366.36 801.937 366.5L807.697 372.26C807.836 372.4 808.002 372.512 808.185 372.588C808.368 372.664 808.564 372.703 808.762 372.703C808.96 372.703 809.156 372.664 809.339 372.588C809.521 372.512 809.687 372.4 809.827 372.26L822.067 360.02C822.219 359.879 822.34 359.709 822.424 359.519C822.507 359.329 822.549 359.125 822.549 358.917C822.549 358.71 822.507 358.505 822.424 358.316C822.34 358.126 822.219 357.955 822.067 357.815Z" fill="#4ECF4C"/>
<path d="M1092.07 101.815C1091.93 101.674 1091.76 101.563 1091.58 101.487C1091.4 101.41 1091.2 101.371 1091 101.371C1090.8 101.371 1090.61 101.41 1090.42 101.487C1090.24 101.563 1090.08 101.674 1089.94 101.815L1078.76 113.005L1074.07 108.295C1073.92 108.155 1073.75 108.045 1073.56 107.971C1073.38 107.897 1073.18 107.861 1072.98 107.865C1072.77 107.868 1072.58 107.911 1072.39 107.991C1072.21 108.072 1072.04 108.188 1071.9 108.332C1071.76 108.477 1071.65 108.648 1071.58 108.835C1071.5 109.023 1071.47 109.223 1071.47 109.424C1071.47 109.625 1071.52 109.824 1071.6 110.008C1071.68 110.193 1071.79 110.36 1071.94 110.5L1077.7 116.26C1077.84 116.4 1078 116.512 1078.18 116.588C1078.37 116.664 1078.56 116.703 1078.76 116.703C1078.96 116.703 1079.16 116.664 1079.34 116.588C1079.52 116.512 1079.69 116.4 1079.83 116.26L1092.07 104.02C1092.22 103.879 1092.34 103.709 1092.42 103.519C1092.51 103.329 1092.55 103.125 1092.55 102.917C1092.55 102.71 1092.51 102.505 1092.42 102.316C1092.34 102.126 1092.22 101.955 1092.07 101.815Z" fill="#4ECF4C"/>
<path d="M1092.07 165.815C1091.93 165.674 1091.76 165.563 1091.58 165.487C1091.4 165.41 1091.2 165.371 1091 165.371C1090.8 165.371 1090.61 165.41 1090.42 165.487C1090.24 165.563 1090.08 165.674 1089.94 165.815L1078.76 177.005L1074.07 172.295C1073.92 172.155 1073.75 172.045 1073.56 171.971C1073.38 171.897 1073.18 171.861 1072.98 171.865C1072.77 171.868 1072.58 171.911 1072.39 171.991C1072.21 172.072 1072.04 172.188 1071.9 172.332C1071.76 172.477 1071.65 172.648 1071.58 172.835C1071.5 173.023 1071.47 173.223 1071.47 173.424C1071.47 173.625 1071.52 173.824 1071.6 174.008C1071.68 174.193 1071.79 174.36 1071.94 174.5L1077.7 180.26C1077.84 180.4 1078 180.512 1078.18 180.588C1078.37 180.664 1078.56 180.703 1078.76 180.703C1078.96 180.703 1079.16 180.664 1079.34 180.588C1079.52 180.512 1079.69 180.4 1079.83 180.26L1092.07 168.02C1092.22 167.879 1092.34 167.709 1092.42 167.519C1092.51 167.329 1092.55 167.125 1092.55 166.917C1092.55 166.71 1092.51 166.505 1092.42 166.316C1092.34 166.126 1092.22 165.955 1092.07 165.815Z" fill="#4ECF4C"/>
<path d="M1092.07 229.815C1091.93 229.674 1091.76 229.563 1091.58 229.487C1091.4 229.41 1091.2 229.371 1091 229.371C1090.8 229.371 1090.61 229.41 1090.42 229.487C1090.24 229.563 1090.08 229.674 1089.94 229.815L1078.76 241.005L1074.07 236.295C1073.92 236.155 1073.75 236.045 1073.56 235.971C1073.38 235.897 1073.18 235.861 1072.98 235.865C1072.77 235.868 1072.58 235.911 1072.39 235.991C1072.21 236.072 1072.04 236.188 1071.9 236.332C1071.76 236.477 1071.65 236.648 1071.58 236.835C1071.5 237.023 1071.47 237.223 1071.47 237.424C1071.47 237.625 1071.52 237.824 1071.6 238.008C1071.68 238.193 1071.79 238.36 1071.94 238.5L1077.7 244.26C1077.84 244.4 1078 244.512 1078.18 244.588C1078.37 244.664 1078.56 244.703 1078.76 244.703C1078.96 244.703 1079.16 244.664 1079.34 244.588C1079.52 244.512 1079.69 244.4 1079.83 244.26L1092.07 232.02C1092.22 231.879 1092.34 231.709 1092.42 231.519C1092.51 231.329 1092.55 231.125 1092.55 230.917C1092.55 230.71 1092.51 230.505 1092.42 230.316C1092.34 230.126 1092.22 229.955 1092.07 229.815Z" fill="#4ECF4C"/>
<path d="M1092.07 357.815C1091.93 357.674 1091.76 357.563 1091.58 357.487C1091.4 357.41 1091.2 357.371 1091 357.371C1090.8 357.371 1090.61 357.41 1090.42 357.487C1090.24 357.563 1090.08 357.674 1089.94 357.815L1078.76 369.005L1074.07 364.295C1073.92 364.155 1073.75 364.045 1073.56 363.971C1073.38 363.897 1073.18 363.861 1072.98 363.865C1072.77 363.868 1072.58 363.911 1072.39 363.991C1072.21 364.072 1072.04 364.188 1071.9 364.332C1071.76 364.477 1071.65 364.648 1071.58 364.835C1071.5 365.023 1071.47 365.223 1071.47 365.424C1071.47 365.625 1071.52 365.824 1071.6 366.008C1071.68 366.193 1071.79 366.36 1071.94 366.5L1077.7 372.26C1077.84 372.4 1078 372.512 1078.18 372.588C1078.37 372.664 1078.56 372.703 1078.76 372.703C1078.96 372.703 1079.16 372.664 1079.34 372.588C1079.52 372.512 1079.69 372.4 1079.83 372.26L1092.07 360.02C1092.22 359.879 1092.34 359.709 1092.42 359.519C1092.51 359.329 1092.55 359.125 1092.55 358.917C1092.55 358.71 1092.51 358.505 1092.42 358.316C1092.34 358.126 1092.22 357.955 1092.07 357.815Z" fill="#4ECF4C"/>
<path d="M1092.07 421.815C1091.93 421.674 1091.76 421.563 1091.58 421.487C1091.4 421.41 1091.2 421.371 1091 421.371C1090.8 421.371 1090.61 421.41 1090.42 421.487C1090.24 421.563 1090.08 421.674 1089.94 421.815L1078.76 433.005L1074.07 428.295C1073.92 428.155 1073.75 428.045 1073.56 427.971C1073.38 427.897 1073.18 427.861 1072.98 427.865C1072.77 427.868 1072.58 427.911 1072.39 427.991C1072.21 428.072 1072.04 428.188 1071.9 428.332C1071.76 428.477 1071.65 428.648 1071.58 428.835C1071.5 429.023 1071.47 429.223 1071.47 429.424C1071.47 429.625 1071.52 429.824 1071.6 430.008C1071.68 430.193 1071.79 430.36 1071.94 430.5L1077.7 436.26C1077.84 436.4 1078 436.512 1078.18 436.588C1078.37 436.664 1078.56 436.703 1078.76 436.703C1078.96 436.703 1079.16 436.664 1079.34 436.588C1079.52 436.512 1079.69 436.4 1079.83 436.26L1092.07 424.02C1092.22 423.879 1092.34 423.709 1092.42 423.519C1092.51 423.329 1092.55 423.125 1092.55 422.917C1092.55 422.71 1092.51 422.505 1092.42 422.316C1092.34 422.126 1092.22 421.955 1092.07 421.815Z" fill="#4ECF4C"/>
<path d="M1092.07 485.815C1091.93 485.674 1091.76 485.563 1091.58 485.487C1091.4 485.41 1091.2 485.371 1091 485.371C1090.8 485.371 1090.61 485.41 1090.42 485.487C1090.24 485.563 1090.08 485.674 1089.94 485.815L1078.76 497.005L1074.07 492.295C1073.92 492.155 1073.75 492.045 1073.56 491.971C1073.38 491.897 1073.18 491.861 1072.98 491.865C1072.77 491.868 1072.58 491.911 1072.39 491.991C1072.21 492.072 1072.04 492.188 1071.9 492.332C1071.76 492.477 1071.65 492.648 1071.58 492.835C1071.5 493.023 1071.47 493.223 1071.47 493.424C1071.47 493.625 1071.52 493.824 1071.6 494.008C1071.68 494.193 1071.79 494.36 1071.94 494.5L1077.7 500.26C1077.84 500.4 1078 500.512 1078.18 500.588C1078.37 500.664 1078.56 500.703 1078.76 500.703C1078.96 500.703 1079.16 500.664 1079.34 500.588C1079.52 500.512 1079.69 500.4 1079.83 500.26L1092.07 488.02C1092.22 487.879 1092.34 487.709 1092.42 487.519C1092.51 487.329 1092.55 487.125 1092.55 486.917C1092.55 486.71 1092.51 486.505 1092.42 486.316C1092.34 486.126 1092.22 485.955 1092.07 485.815Z" fill="#4ECF4C"/>
</svg>
