<svg width="27" height="27" viewBox="0 0 27 27" fill="none" xmlns="http://www.w3.org/2000/svg">
<path d="M10.9493 21.9374C8.31339 21.9374 6.16797 19.792 6.16797 17.1561V5.625H4.19929C2.49263 5.625 1.10547 7.01196 1.10547 8.71861V23.9061C1.10547 25.6128 2.49263 26.9999 4.19929 26.9999H18.2617C19.9683 26.9999 21.3555 25.6128 21.3555 23.9061V21.9374H10.9493Z" fill="#BC66FF"/>
<path d="M25.8554 3.09382C25.8554 1.3849 24.4705 0 22.7618 0H10.9493C9.24036 0 7.85547 1.3849 7.85547 3.09382V17.1562C7.85547 18.8651 9.24036 20.25 10.9493 20.25H22.7618C24.4705 20.25 25.8554 18.8651 25.8554 17.1562V3.09382Z" fill="#BC66FF"/>
</svg>
