<svg width="30" height="30" viewBox="0 0 30 30" fill="none" xmlns="http://www.w3.org/2000/svg">
<g clip-path="url(#clip0_1930_1457)">
<path d="M1.87659 2.04235C-0.480908 4.4911 0.00159185 7.09235 0.00159185 14.9948C0.00159185 21.5573 -1.14341 28.1361 4.84909 29.6848C6.72034 30.1661 23.3003 30.1661 25.1691 29.6823C27.6641 29.0386 29.6941 27.0148 29.9716 23.4861C30.0103 22.9936 30.0103 7.00485 29.9703 6.50235C29.6753 2.7436 27.3616 0.577346 24.3128 0.138596C23.6141 0.0373456 23.4741 0.00734559 19.8891 0.00109559C7.17284 0.00734559 4.38534 -0.558905 1.87659 2.04235Z" fill="url(#paint0_linear_1930_1457)"/>
<path d="M14.9953 3.92475C10.4566 3.92475 6.14656 3.521 4.50031 7.746C3.82031 9.491 3.91906 11.7573 3.91906 15.0023C3.91906 17.8498 3.82781 20.526 4.50031 22.2573C6.14281 26.4848 10.4878 26.0798 14.9928 26.0798C19.3391 26.0798 23.8203 26.5323 25.4866 22.2573C26.1678 20.4948 26.0678 18.2623 26.0678 15.0023C26.0678 10.6748 26.3066 7.881 24.2078 5.7835C22.0828 3.6585 19.2091 3.92475 14.9903 3.92475H14.9953ZM14.0028 5.921C23.4703 5.906 24.6753 4.8535 24.0103 19.4748C23.7741 24.646 19.8366 24.0785 14.9966 24.0785C6.17156 24.0785 5.91781 23.826 5.91781 14.9973C5.91781 6.066 6.61782 5.926 14.0028 5.9185V5.921ZM20.9078 7.75975C20.1741 7.75975 19.5791 8.35475 19.5791 9.0885C19.5791 9.82225 20.1741 10.4173 20.9078 10.4173C21.6416 10.4173 22.2366 9.82225 22.2366 9.0885C22.2366 8.35475 21.6416 7.75975 20.9078 7.75975ZM14.9953 9.3135C11.8541 9.3135 9.30782 11.861 9.30782 15.0023C9.30782 18.1435 11.8541 20.6898 14.9953 20.6898C18.1366 20.6898 20.6816 18.1435 20.6816 15.0023C20.6816 11.861 18.1366 9.3135 14.9953 9.3135ZM14.9953 11.3098C19.8766 11.3098 19.8828 18.6948 14.9953 18.6948C10.1153 18.6948 10.1078 11.3098 14.9953 11.3098Z" fill="white"/>
</g>
<defs>
<linearGradient id="paint0_linear_1930_1457" x1="1.93412" y1="28.085" x2="29.8159" y2="3.95356" gradientUnits="userSpaceOnUse">
<stop stop-color="#FFDD55"/>
<stop offset="0.5" stop-color="#FF543E"/>
<stop offset="1" stop-color="#C837AB"/>
</linearGradient>
<clipPath id="clip0_1930_1457">
<rect width="30" height="30" fill="white"/>
</clipPath>
</defs>
</svg>
