<svg width="30" height="30" viewBox="0 0 30 30" fill="none" xmlns="http://www.w3.org/2000/svg">
<g clip-path="url(#clip0_1930_1463)">
<path d="M27.6316 0H2.36842C1.06038 0 0 1.06038 0 2.36842V27.6316C0 28.9396 1.06038 30 2.36842 30H27.6316C28.9396 30 30 28.9396 30 27.6316V2.36842C30 1.06038 28.9396 0 27.6316 0Z" fill="#03A9F4"/>
<path d="M24.716 8.97598C23.9852 9.29517 23.2121 9.50723 22.4206 9.60558C23.2549 9.11084 23.8786 8.32706 24.1733 7.40295C23.3924 7.86644 22.538 8.19287 21.647 8.36808C21.101 7.78417 20.3919 7.37807 19.612 7.2026C18.8321 7.02713 18.0174 7.09042 17.2739 7.38423C16.5304 7.67804 15.8926 8.18877 15.4433 8.85C14.9941 9.51123 14.7542 10.2924 14.7549 11.0918C14.752 11.3969 14.7832 11.7014 14.8476 11.9997C13.2627 11.9218 11.712 11.5105 10.2969 10.7925C8.88176 10.0746 7.634 9.06621 6.63512 7.83321C6.12168 8.71034 5.96261 9.75043 6.19042 10.7409C6.41824 11.7314 7.01573 12.5975 7.86077 13.1622C7.23003 13.1452 6.61264 12.9766 6.06077 12.6707V12.7141C6.06255 13.6335 6.38078 14.5243 6.96198 15.2367C7.54318 15.9491 8.3519 16.4397 9.25222 16.626C8.91151 16.7155 8.5604 16.7593 8.20814 16.7562C7.95449 16.7609 7.70108 16.7384 7.45222 16.6891C7.71016 17.4798 8.20674 18.1712 8.87367 18.6681C9.5406 19.1651 10.3451 19.4431 11.1766 19.4641C9.7676 20.5654 8.03066 21.1636 6.24235 21.1635C5.92372 21.1662 5.60525 21.1477 5.28906 21.1082C7.11249 22.2839 9.23793 22.905 11.4075 22.8964C18.7397 22.8964 22.7483 16.8233 22.7483 11.5595C22.7483 11.3839 22.7483 11.2141 22.7345 11.0444C23.5151 10.481 24.1866 9.78007 24.716 8.97598Z" fill="white"/>
</g>
<defs>
<clipPath id="clip0_1930_1463">
<rect width="30" height="30" fill="white"/>
</clipPath>
</defs>
</svg>
