<svg width="18" height="18" viewBox="0 0 18 18" fill="none" xmlns="http://www.w3.org/2000/svg">
<path d="M11.484 6.52148C11.2512 6.52148 11.0625 6.71019 11.0625 6.94303V14.9102C11.0625 15.1429 11.2512 15.3318 11.484 15.3318C11.7169 15.3318 11.9056 15.1429 11.9056 14.9102V6.94303C11.9056 6.71019 11.7169 6.52148 11.484 6.52148Z" fill="#757575"/>
<path d="M6.50748 6.52148C6.27464 6.52148 6.08594 6.71019 6.08594 6.94303V14.9102C6.08594 15.1429 6.27464 15.3318 6.50748 15.3318C6.74032 15.3318 6.92903 15.1429 6.92903 14.9102V6.94303C6.92903 6.71019 6.74032 6.52148 6.50748 6.52148Z" fill="#757575"/>
<path d="M2.88475 5.35877V15.7447C2.88475 16.3586 3.10985 16.9351 3.50307 17.3487C3.89449 17.7635 4.4392 17.999 5.00927 18H12.985C13.5553 17.999 14.1 17.7635 14.4912 17.3487C14.8844 16.9351 15.1095 16.3586 15.1095 15.7447V5.35877C15.8912 5.15129 16.3977 4.39614 16.2932 3.59405C16.1884 2.79213 15.5052 2.19225 14.6964 2.19209H12.5381V1.66516C12.5406 1.22204 12.3654 0.796544 12.0517 0.483514C11.738 0.170649 11.3119 -0.00356726 10.8687 5.53875e-05H7.12556C6.68244 -0.00356726 6.25629 0.170649 5.9426 0.483514C5.62891 0.796544 5.45371 1.22204 5.45618 1.66516V2.19209H3.2979C2.48906 2.19225 1.80586 2.79213 1.70114 3.59405C1.59657 4.39614 2.10309 5.15129 2.88475 5.35877ZM12.985 17.1569H5.00927C4.28853 17.1569 3.72784 16.5378 3.72784 15.7447V5.39582H14.2665V15.7447C14.2665 16.5378 13.7058 17.1569 12.985 17.1569ZM6.29926 1.66516C6.29646 1.44566 6.38275 1.23439 6.53852 1.07944C6.69413 0.924489 6.90589 0.839357 7.12556 0.843144H10.8687C11.0884 0.839357 11.3002 0.924489 11.4558 1.07944C11.6115 1.23423 11.6978 1.44566 11.695 1.66516V2.19209H6.29926V1.66516ZM3.2979 3.03517H14.6964C15.1155 3.03517 15.4552 3.37488 15.4552 3.79395C15.4552 4.21303 15.1155 4.55273 14.6964 4.55273H3.2979C2.87883 4.55273 2.53912 4.21303 2.53912 3.79395C2.53912 3.37488 2.87883 3.03517 3.2979 3.03517Z" fill="#757575"/>
<path d="M8.99576 6.52148C8.76293 6.52148 8.57422 6.71019 8.57422 6.94303V14.9102C8.57422 15.1429 8.76293 15.3318 8.99576 15.3318C9.2286 15.3318 9.41731 15.1429 9.41731 14.9102V6.94303C9.41731 6.71019 9.2286 6.52148 8.99576 6.52148Z" fill="#757575"/>
</svg>
