<svg width="45" height="45" viewBox="0 0 45 45" fill="none" xmlns="http://www.w3.org/2000/svg">
<circle cx="22.5" cy="22.5" r="22.5" fill="#F8EFFF"/>
<path fill-rule="evenodd" clip-rule="evenodd" d="M21.5833 29.6982L13.9531 29.5487L13.9154 19.0513L13.8577 15.6283L11.4097 13.6406L11.5098 32.0415L21.5574 32.1392L21.5833 29.6982Z" fill="url(#paint0_linear_797_204)"/>
<path fill-rule="evenodd" clip-rule="evenodd" d="M16.2339 20.9092L22.7796 26.1573L31.5073 19.1253L31.4072 32.1414L33.9012 32.1909L34.0001 13.5898L22.8303 22.9157L16.2645 17.5828L16.2339 20.9092Z" fill="url(#paint1_linear_797_204)"/>
<path d="M23.0834 21.0142C22.762 18.3048 22.6501 17.9185 22.5018 17.5947C22.3063 17.3474 22.0731 17.1626 20.4399 16.6292C22.0731 16.0958 22.3063 15.9109 22.5018 15.6636C22.6513 15.3398 22.762 14.9536 23.0834 12.2441C23.4049 14.9536 23.5168 15.3386 23.6663 15.6636C23.8618 15.9109 24.0949 16.0958 25.7281 16.6292C24.0949 17.1626 23.8618 17.3474 23.6663 17.5947C23.5168 17.9185 23.4061 18.3048 23.0834 21.0142Z" fill="url(#paint2_linear_797_204)"/>
<defs>
<linearGradient id="paint0_linear_797_204" x1="11.4097" y1="22.8899" x2="21.5833" y2="22.8899" gradientUnits="userSpaceOnUse">
<stop stop-color="#0000FF"/>
<stop offset="0.54" stop-color="#8F00FF"/>
<stop offset="1" stop-color="#FF1494"/>
</linearGradient>
<linearGradient id="paint1_linear_797_204" x1="16.2339" y1="22.8909" x2="34.0001" y2="22.8909" gradientUnits="userSpaceOnUse">
<stop stop-color="#0000FF"/>
<stop offset="0.54" stop-color="#8F00FF"/>
<stop offset="1" stop-color="#FF1494"/>
</linearGradient>
<linearGradient id="paint2_linear_797_204" x1="20.4399" y1="16.6292" x2="25.7269" y2="16.6292" gradientUnits="userSpaceOnUse">
<stop stop-color="#0000FF"/>
<stop offset="0.54" stop-color="#8F00FF"/>
<stop offset="1" stop-color="#FF1494"/>
</linearGradient>
</defs>
</svg>
