<svg width="20" height="20" viewBox="0 0 20 20" fill="none" xmlns="http://www.w3.org/2000/svg">
<g clip-path="url(#clip0_797_215)">
<path d="M19.746 1.31716C19.7449 1.30537 19.7427 1.29395 19.741 1.28234C19.739 1.26827 19.7373 1.25417 19.7346 1.24017C19.7319 1.22681 19.7283 1.21386 19.7249 1.20077C19.7219 1.18871 19.7193 1.17658 19.7156 1.16464C19.7118 1.15177 19.7069 1.13934 19.7024 1.12676C19.6981 1.11486 19.6942 1.10284 19.6893 1.09109C19.6845 1.07933 19.6787 1.0681 19.6734 1.05664C19.6676 1.04455 19.6623 1.03235 19.6559 1.02048C19.65 1.00951 19.6434 0.999062 19.637 0.988389C19.63 0.976783 19.6235 0.965028 19.6159 0.953683C19.608 0.941891 19.5992 0.930807 19.5907 0.919463C19.5836 0.910021 19.5771 0.900318 19.5695 0.891101C19.553 0.870986 19.5356 0.851618 19.5172 0.833221C19.5171 0.833071 19.517 0.832922 19.5168 0.832773C19.5167 0.832623 19.5165 0.832549 19.5164 0.8324C19.498 0.814002 19.4786 0.796574 19.4585 0.780042C19.4493 0.772467 19.4396 0.765899 19.4301 0.758808C19.4188 0.750337 19.4077 0.741567 19.3959 0.733693C19.3846 0.726118 19.3728 0.71955 19.3612 0.712609C19.3505 0.706227 19.3401 0.699547 19.3291 0.693651C19.3172 0.687307 19.3051 0.681933 19.2929 0.676223C19.2815 0.670812 19.2702 0.665103 19.2585 0.660214C19.2467 0.655363 19.2347 0.651407 19.2228 0.647153C19.2102 0.642637 19.1978 0.637823 19.185 0.633942C19.173 0.630322 19.1609 0.627673 19.1488 0.62465C19.1357 0.621328 19.1228 0.617671 19.1094 0.615022C19.0954 0.61226 19.0813 0.610581 19.0673 0.608566C19.0557 0.606924 19.0442 0.604685 19.0325 0.603528C19.0063 0.60099 18.9801 0.599609 18.9539 0.599609H13.381C12.9413 0.599609 12.5849 0.956034 12.5849 1.39572C12.5849 1.8354 12.9413 2.19182 13.381 2.19182H17.0318L11.2258 7.99784C10.915 8.30874 10.915 8.81283 11.2258 9.12373C11.5367 9.43463 12.0408 9.43463 12.3517 9.12373L18.1577 3.31775V6.96857C18.1577 7.40826 18.5141 7.76468 18.9538 7.76468C19.3935 7.76468 19.75 7.40826 19.75 6.96857V1.39579C19.75 1.36952 19.7486 1.34328 19.746 1.31716Z" fill="#4E4E4E"/>
<path d="M8.0413 11.1824L2.23532 16.9884V13.3376C2.23532 12.8979 1.87889 12.5415 1.43921 12.5415C0.999491 12.5415 0.643066 12.8979 0.643066 13.3376V18.9104C0.643066 18.9366 0.644447 18.9628 0.647022 18.989C0.648179 19.0007 0.650381 19.0121 0.65206 19.0238C0.654075 19.0378 0.655717 19.052 0.658516 19.0659C0.661166 19.0793 0.664823 19.0922 0.668144 19.1053C0.671167 19.1174 0.673817 19.1295 0.677436 19.1415C0.681317 19.1543 0.686131 19.1667 0.690647 19.1793C0.694939 19.1912 0.698857 19.2032 0.703708 19.215C0.70856 19.2268 0.714307 19.238 0.719718 19.2494C0.725427 19.2615 0.730801 19.2737 0.737145 19.2856C0.743042 19.2966 0.749721 19.307 0.756103 19.3177C0.763044 19.3293 0.769612 19.3411 0.777188 19.3524C0.785062 19.3642 0.793831 19.3752 0.802303 19.3866C0.809393 19.3961 0.815961 19.4058 0.823537 19.415C0.840069 19.4351 0.857496 19.4545 0.875894 19.4729C0.876043 19.4731 0.876118 19.4732 0.876267 19.4733C0.876416 19.4735 0.876566 19.4736 0.876715 19.4737C0.895113 19.4921 0.914481 19.5095 0.934595 19.526C0.943813 19.5336 0.953515 19.5402 0.962957 19.5472C0.974302 19.5557 0.985385 19.5645 0.997178 19.5724C1.00849 19.58 1.02024 19.5865 1.03188 19.5935C1.04256 19.5999 1.05297 19.6065 1.06398 19.6124C1.07584 19.6188 1.08805 19.6242 1.10014 19.6299C1.11159 19.6353 1.12286 19.641 1.13458 19.6458C1.14634 19.6507 1.15832 19.6546 1.17026 19.6589C1.18284 19.6634 1.19526 19.6682 1.20814 19.6721C1.22008 19.6758 1.23221 19.6784 1.24426 19.6814C1.25736 19.6848 1.27031 19.6884 1.28367 19.6911C1.29766 19.6938 1.31177 19.6955 1.32584 19.6975C1.33744 19.6991 1.3489 19.7014 1.36066 19.7025C1.38678 19.7051 1.41298 19.7065 1.43917 19.7065H7.01203C7.45171 19.7065 7.80814 19.3501 7.80814 18.9104C7.80814 18.4707 7.45171 18.1143 7.01203 18.1143H3.3612L9.16722 12.3082C9.47812 11.9973 9.47812 11.4933 9.16722 11.1824C8.85633 10.8715 8.35224 10.8715 8.0413 11.1824Z" fill="#4E4E4E"/>
</g>
<defs>
<clipPath id="clip0_797_215">
<rect width="19.1069" height="19.1069" fill="white" transform="translate(0.642578 0.597656)"/>
</clipPath>
</defs>
</svg>
