<svg width="18" height="18" viewBox="0 0 18 18" fill="none" xmlns="http://www.w3.org/2000/svg">
<path d="M16.1628 10.8564C16.0136 10.8564 15.8706 10.9157 15.7651 11.0212C15.6596 11.1267 15.6003 11.2698 15.6003 11.4189V13.3399C15.6003 13.7927 15.4204 14.2269 15.1003 14.547C14.7801 14.8672 14.3459 15.0471 13.8931 15.0471H4.10562C3.65285 15.0471 3.21862 14.8672 2.89846 14.547C2.5783 14.2269 2.39844 13.7927 2.39844 13.3399V11.4189C2.39844 11.2698 2.33917 11.1267 2.23368 11.0212C2.1282 10.9157 1.98512 10.8564 1.83594 10.8564C1.68675 10.8564 1.54368 10.9157 1.43819 11.0212C1.3327 11.1267 1.27344 11.2698 1.27344 11.4189V13.3399C1.27418 14.0908 1.57281 14.8107 2.10379 15.3417C2.63477 15.8727 3.35471 16.1713 4.10562 16.1721H13.8931C14.644 16.1713 15.364 15.8727 15.895 15.3417C16.4259 14.8107 16.7246 14.0908 16.7253 13.3399V11.4189C16.7253 11.2698 16.666 11.1267 16.5606 11.0212C16.4551 10.9157 16.312 10.8564 16.1628 10.8564Z" fill="black"/>
<path d="M6.18692 5.9909L8.43692 3.7409V12.094C8.43692 12.2432 8.49619 12.3863 8.60168 12.4918C8.70717 12.5973 8.85024 12.6565 8.99942 12.6565C9.14861 12.6565 9.29168 12.5973 9.39717 12.4918C9.50266 12.3863 9.56192 12.2432 9.56192 12.094V3.74934L11.8119 5.99934C11.8642 6.0516 11.9262 6.09306 11.9945 6.12134C12.0628 6.14963 12.136 6.16418 12.2099 6.16418C12.2838 6.16418 12.357 6.14963 12.4253 6.12134C12.4936 6.09306 12.5556 6.0516 12.6079 5.99934C12.6601 5.94708 12.7016 5.88503 12.7299 5.81675C12.7581 5.74847 12.7727 5.67528 12.7727 5.60137C12.7727 5.52746 12.7581 5.45428 12.7299 5.38599C12.7016 5.31771 12.6601 5.25566 12.6079 5.2034L9.3988 1.99434C9.32061 1.91849 9.22347 1.86507 9.11755 1.83965C9.02651 1.82289 8.93278 1.82819 8.84421 1.85511C8.75564 1.88202 8.67481 1.92976 8.60849 1.99434L5.39942 5.19496C5.31012 5.30242 5.26401 5.43927 5.27006 5.57886C5.27611 5.71845 5.3339 5.85079 5.43217 5.95011C5.53044 6.04943 5.66216 6.10863 5.80167 6.11617C5.94119 6.12371 6.07852 6.07905 6.18692 5.9909Z" fill="black"/>
</svg>
