<svg width="20" height="20" viewBox="0 0 20 20" fill="none" xmlns="http://www.w3.org/2000/svg">
<g clip-path="url(#clip0_800_253)">
<path d="M18.9688 3.52565L16.4539 1.01044C16.0574 0.613912 15.5276 0.395508 14.962 0.395508C14.3963 0.395508 13.8665 0.613912 13.47 1.01044L10.3471 4.13371L2.44473 12.0094C2.29942 12.1543 2.19194 12.3327 2.13187 12.5289L0.473702 17.9463C0.338001 18.3897 0.458901 18.8718 0.78783 19.1987C1.02561 19.435 1.34386 19.5621 1.66913 19.5621C1.79384 19.5621 1.91952 19.5435 2.0422 19.5051L7.43125 17.8191C7.62326 17.759 7.79792 17.6535 7.94039 17.5115L15.8443 9.63425L18.9688 6.50945C19.7913 5.6868 19.7913 4.3483 18.9688 3.52565ZM11.2242 5.02441L12.5539 6.35417L5.11207 13.796L3.76996 12.4535L11.2242 5.02441ZM1.66897 18.3121L3.12008 13.5713L6.3847 16.8368L1.66897 18.3121ZM7.50053 16.1851L5.99576 14.6799L13.4377 7.23796L14.9553 8.75554L7.50053 16.1851ZM18.0848 5.62561L15.839 7.87171L12.1079 4.14057L14.354 1.89428C14.5198 1.72841 14.7409 1.64551 14.962 1.64551C15.183 1.64551 15.4041 1.72841 15.5699 1.89428L18.0848 4.40949C18.4165 4.74116 18.4165 5.29394 18.0848 5.62561Z" fill="#6A6A6A"/>
</g>
<defs>
<clipPath id="clip0_800_253">
<rect width="20" height="20" fill="white"/>
</clipPath>
</defs>
</svg>
