<svg width="46" height="46" viewBox="0 0 46 46" fill="none" xmlns="http://www.w3.org/2000/svg">
<path d="M39.7273 0H6.27273C2.8084 0 0 2.8084 0 6.27273V39.7273C0 43.1916 2.8084 46 6.27273 46H39.7273C43.1916 46 46 43.1916 46 39.7273V6.27273C46 2.8084 43.1916 0 39.7273 0Z" fill="#0077B5"/>
<path d="M16.5705 12.5455C16.5705 13.3208 16.3405 14.0788 15.9097 14.7235C15.479 15.3683 14.8667 15.8708 14.1503 16.1675C13.4339 16.4642 12.6457 16.5419 11.8852 16.3906C11.1247 16.2393 10.4261 15.8659 9.87783 15.3176C9.32954 14.7693 8.95616 14.0708 8.80489 13.3103C8.65361 12.5498 8.73125 11.7615 9.02798 11.0452C9.32471 10.3288 9.82721 9.7165 10.4719 9.28572C11.1166 8.85493 11.8746 8.625 12.65 8.625C13.6898 8.625 14.687 9.03805 15.4222 9.77327C16.1574 10.5085 16.5705 11.5057 16.5705 12.5455Z" fill="white"/>
<path d="M15.6818 19.0796V36.4001C15.6825 36.5279 15.6579 36.6546 15.6095 36.7728C15.5611 36.8911 15.4898 36.9986 15.3997 37.0892C15.3096 37.1798 15.2024 37.2517 15.0844 37.3007C14.9665 37.3498 14.8399 37.375 14.7122 37.375H10.58C10.4522 37.3754 10.3256 37.3505 10.2075 37.3017C10.0894 37.253 9.98209 37.1814 9.89173 37.091C9.80138 37.0007 9.72978 36.8934 9.68104 36.7752C9.6323 36.6571 9.60739 36.5305 9.60773 36.4028V19.0796C9.60773 18.8217 9.71017 18.5744 9.8925 18.3921C10.0748 18.2097 10.3221 18.1073 10.58 18.1073H14.7122C14.9696 18.108 15.2162 18.2107 15.398 18.393C15.5797 18.5753 15.6818 18.8222 15.6818 19.0796Z" fill="white"/>
<path d="M37.2809 28.0966V36.4812C37.2812 36.5987 37.2584 36.7151 37.2136 36.8237C37.1688 36.9323 37.1029 37.0309 37.0199 37.114C36.9368 37.1971 36.8381 37.2629 36.7295 37.3077C36.6209 37.3525 36.5045 37.3754 36.387 37.3751H31.9438C31.8264 37.3754 31.71 37.3525 31.6014 37.3077C31.4928 37.2629 31.3941 37.1971 31.311 37.114C31.2279 37.0309 31.1621 36.9323 31.1173 36.8237C31.0725 36.7151 31.0496 36.5987 31.05 36.4812V28.3554C31.05 27.1427 31.4054 23.0445 27.8796 23.0445C25.1484 23.0445 24.5917 25.8489 24.4819 27.1087V36.4812C24.4819 36.716 24.3896 36.9414 24.2247 37.1087C24.0599 37.2759 23.8359 37.3716 23.6011 37.3751H19.3095C19.1923 37.3751 19.0762 37.3519 18.9679 37.307C18.8596 37.262 18.7612 37.1961 18.6784 37.1131C18.5956 37.03 18.53 36.9315 18.4854 36.8231C18.4407 36.7146 18.4179 36.5984 18.4183 36.4812V19.0038C18.4179 18.8865 18.4407 18.7704 18.4854 18.6619C18.53 18.5535 18.5956 18.4549 18.6784 18.3719C18.7612 18.2889 18.8596 18.223 18.9679 18.178C19.0762 18.1331 19.1923 18.1099 19.3095 18.1099H23.6011C23.8382 18.1099 24.0655 18.2041 24.2332 18.3717C24.4008 18.5394 24.495 18.7667 24.495 19.0038V20.5145C25.5091 18.9933 27.0119 17.8198 30.2188 17.8198C37.3227 17.8198 37.2809 24.4532 37.2809 28.0966Z" fill="white"/>
</svg>
