<svg width="46" height="46" viewBox="0 0 46 46" fill="none" xmlns="http://www.w3.org/2000/svg">
<path d="M26.3053 3.04475C23.1433 1.21571 19.1001 2.30111 17.2745 5.46909L0.886792 33.9073C-0.938743 37.0753 0.144593 41.1262 3.30655 42.9552C6.46852 44.7843 10.5118 43.6989 12.3374 40.5309L28.7251 12.0926C30.5507 8.92466 29.4673 4.87379 26.3053 3.04475Z" fill="#FFC107"/>
<path d="M26.3053 3.0447C24.8283 2.19038 23.1592 1.97224 21.6134 2.30493C22.2698 2.44652 22.9159 2.69027 23.5286 3.0447C26.6906 4.87374 27.774 8.92461 25.9484 12.0926L9.56072 40.5308C8.58789 42.219 6.98525 43.3155 5.2218 43.695C7.95251 44.284 10.8656 43.0848 12.3373 40.5308L28.725 12.0926C30.5507 8.92461 29.4673 4.87374 26.3053 3.0447Z" fill="#FFB300"/>
<path d="M6.60405 43.8438C10.2514 43.8438 13.2081 40.8815 13.2081 37.2273C13.2081 33.573 10.2514 30.6107 6.60405 30.6107C2.95674 30.6107 0 33.573 0 37.2273C0 40.8815 2.95674 43.8438 6.60405 43.8438Z" fill="#4CAF50"/>
<path d="M5.22176 43.6951C5.2214 43.6959 5.22122 43.6966 5.22095 43.6973C5.66711 43.7926 6.12945 43.8438 6.604 43.8438C10.2513 43.8438 13.2081 40.8815 13.2081 37.2273C13.2081 36.4154 13.0614 35.6381 12.7944 34.9194L9.56076 40.531C8.58784 42.2192 6.98521 43.3155 5.22176 43.6951Z" fill="#43A047"/>
<path d="M45.1132 33.9074L28.7255 5.46922C26.8999 2.30124 22.8567 1.21583 19.6947 3.04487C16.5327 4.87391 15.4493 8.92479 17.2749 12.0928L33.6627 40.531C35.4882 43.699 39.5314 44.7844 42.6935 42.9554C45.8554 41.1263 46.9388 37.0754 45.1132 33.9074Z" fill="#2196F3"/>
<path d="M45.1132 33.9073L28.7255 5.46913C27.2537 2.91514 24.3407 1.71591 21.61 2.30501C23.3733 2.68451 24.9761 3.78097 25.9489 5.46913L42.3367 33.9074C44.1623 37.0754 43.0789 41.1262 39.9169 42.9553C39.3041 43.3097 38.6581 43.5534 38.0017 43.695C39.5474 44.0277 41.2166 43.8096 42.6936 42.9553C45.8554 41.1262 46.9388 37.0753 45.1132 33.9073Z" fill="#1E88E5"/>
</svg>
