<svg width="24" height="24" viewBox="0 0 24 24" fill="none" xmlns="http://www.w3.org/2000/svg">
<g clip-path="url(#clip0_839_2344)">
<path d="M21.1875 24H2.8125C1.26169 24 0 22.7383 0 21.1875V18.375H1.875V5.8807H3.75V18.375H20.25V5.8807H22.125V18.375H24V21.1875C24 22.7383 22.7383 24 21.1875 24ZM1.875 20.25V21.1875C1.875 21.7044 2.29556 22.125 2.8125 22.125H21.1875C21.7044 22.125 22.125 21.7044 22.125 21.1875V20.25H1.875ZM16.6875 16.5H14.8125V14.625H16.6875V16.5ZM12.9375 16.5H11.0625V14.625H12.9375V16.5ZM9.1875 16.5H7.3125V14.625H9.1875V16.5ZM13.483 11.7614C12.9618 11.7614 12.4587 11.6457 12 11.4233C11.5413 11.6458 11.0382 11.7614 10.517 11.7614C8.75681 11.7614 7.30387 10.4203 7.12622 8.70628C6.19823 8.08008 5.625 7.02741 5.625 5.8807C5.625 4.734 6.19823 3.68138 7.12622 3.05508C7.30387 1.34105 8.75681 0 10.517 0C11.0382 0 11.5413 0.115641 12 0.338109C12.4587 0.115641 12.9618 0 13.483 0C15.2432 0 16.6961 1.34105 16.8738 3.05508C17.8018 3.68133 18.375 4.73395 18.375 5.8807C18.375 7.02745 17.8018 8.08008 16.8738 8.70633C16.6961 10.4203 15.2432 11.7614 13.483 11.7614ZM12.9375 9.78698C13.1098 9.85256 13.2937 9.88641 13.483 9.88641C14.3289 9.88641 15.0171 9.19819 15.0171 8.35228C15.0171 8.31553 15.0151 8.27414 15.0112 8.22567L14.9571 7.55611L15.5737 7.28953C16.1364 7.04625 16.5 6.49322 16.5 5.8807C16.5 5.26819 16.1363 4.71511 15.5736 4.47183L14.957 4.20525L15.0112 3.53569C15.0151 3.48727 15.017 3.44583 15.017 3.40908C15.017 2.56317 14.3288 1.875 13.4829 1.875C13.2937 1.875 13.1098 1.90884 12.9375 1.97442V9.78698H12.9375ZM10.517 1.875C9.67111 1.875 8.98294 2.56317 8.98294 3.40908C8.98294 3.44583 8.98486 3.48722 8.98875 3.53569L9.04294 4.20525L8.42634 4.47188C7.86366 4.71511 7.5 5.26814 7.5 5.8807C7.5 6.49327 7.86366 7.04625 8.42639 7.28953L9.04298 7.55611L8.9888 8.22567C8.98491 8.27414 8.98298 8.31553 8.98298 8.35228C8.98298 9.19819 9.67116 9.88641 10.5171 9.88641C10.7063 9.88641 10.8902 9.85261 11.0625 9.78698V1.97442C10.8902 1.90884 10.7063 1.875 10.517 1.875Z" fill="#8C8C8C"/>
</g>
<defs>
<clipPath id="clip0_839_2344">
<rect width="24" height="24" fill="white"/>
</clipPath>
</defs>
</svg>
