<svg width="24" height="24" viewBox="0 0 24 24" fill="none" xmlns="http://www.w3.org/2000/svg">
<path d="M18.5363 12.9375C18.9233 14.0287 19.9653 14.8125 21.1875 14.8125C22.7383 14.8125 24 13.5508 24 12C24 10.4492 22.7383 9.1875 21.1875 9.1875C19.9653 9.1875 18.9233 9.97134 18.5363 11.0625H16.5932C16.4715 10.4649 16.2354 9.90839 15.9093 9.41658L19.9757 5.35017C20.3429 5.52619 20.7538 5.625 21.1875 5.625C22.7383 5.625 24 4.36331 24 2.8125C24 1.26169 22.7383 0 21.1875 0C19.6367 0 18.375 1.26169 18.375 2.8125C18.375 3.24614 18.4738 3.65714 18.6499 4.02431L14.5835 8.09072C14.0916 7.76461 13.5352 7.52855 12.9375 7.40677V5.46375C14.0287 5.07675 14.8125 4.03467 14.8125 2.8125C14.8125 1.26169 13.5508 0 12 0C10.4492 0 9.1875 1.26169 9.1875 2.8125C9.1875 4.03467 9.97134 5.07675 11.0625 5.46375V7.40677C10.4649 7.52855 9.90839 7.76461 9.41653 8.09072L5.35013 4.02431C5.52619 3.65714 5.625 3.24614 5.625 2.8125C5.625 1.26169 4.36331 0 2.8125 0C1.26169 0 0 1.26169 0 2.8125C0 4.36331 1.26169 5.625 2.8125 5.625C3.24614 5.625 3.65714 5.52619 4.02431 5.35013L8.09072 9.41653C7.76461 9.90839 7.52855 10.4648 7.40677 11.0625H5.46375C5.07675 9.97134 4.03467 9.1875 2.8125 9.1875C1.26169 9.1875 0 10.4492 0 12C0 13.5508 1.26169 14.8125 2.8125 14.8125C4.03467 14.8125 5.0767 14.0287 5.46375 12.9375H7.40677C7.52855 13.5352 7.76461 14.0916 8.09072 14.5835L4.02431 18.6499C3.65714 18.4738 3.24614 18.375 2.8125 18.375C1.26169 18.375 0 19.6367 0 21.1875C0 22.7383 1.26169 24 2.8125 24C4.36331 24 5.625 22.7383 5.625 21.1875C5.625 20.7539 5.52619 20.3429 5.35013 19.9757L9.41653 15.9093C9.90839 16.2354 10.4648 16.4715 11.0625 16.5932V18.5363C9.97134 18.9233 9.1875 19.9653 9.1875 21.1875C9.1875 22.7383 10.4492 24 12 24C13.5508 24 14.8125 22.7383 14.8125 21.1875C14.8125 19.9653 14.0287 18.9233 12.9375 18.5363V16.5932C13.5351 16.4715 14.0916 16.2354 14.5835 15.9093L18.6499 19.9757C18.4738 20.3429 18.375 20.7539 18.375 21.1875C18.375 22.7383 19.6367 24 21.1875 24C22.7383 24 24 22.7383 24 21.1875C24 19.6367 22.7383 18.375 21.1875 18.375C20.7539 18.375 20.3429 18.4738 19.9757 18.6498L15.9093 14.5834C16.2354 14.0916 16.4715 13.5351 16.5932 12.9375H18.5363ZM21.1875 11.0625C21.7044 11.0625 22.125 11.4831 22.125 12C22.125 12.5169 21.7044 12.9375 21.1875 12.9375C20.6706 12.9375 20.25 12.5169 20.25 12C20.25 11.4831 20.6706 11.0625 21.1875 11.0625ZM21.1875 1.875C21.7044 1.875 22.125 2.29556 22.125 2.8125C22.125 3.32944 21.7044 3.75 21.1875 3.75C20.6706 3.75 20.25 3.32944 20.25 2.8125C20.25 2.29556 20.6706 1.875 21.1875 1.875ZM12 1.875C12.5169 1.875 12.9375 2.29556 12.9375 2.8125C12.9375 3.32944 12.5169 3.75 12 3.75C11.4831 3.75 11.0625 3.32944 11.0625 2.8125C11.0625 2.29556 11.4831 1.875 12 1.875ZM2.8125 3.75C2.29556 3.75 1.875 3.32944 1.875 2.8125C1.875 2.29556 2.29556 1.875 2.8125 1.875C3.32944 1.875 3.75 2.29556 3.75 2.8125C3.75 3.32944 3.32944 3.75 2.8125 3.75ZM2.8125 12.9375C2.29556 12.9375 1.875 12.5169 1.875 12C1.875 11.4831 2.29556 11.0625 2.8125 11.0625C3.32944 11.0625 3.75 11.4831 3.75 12C3.75 12.5169 3.32944 12.9375 2.8125 12.9375ZM2.8125 22.125C2.29556 22.125 1.875 21.7044 1.875 21.1875C1.875 20.6706 2.29556 20.25 2.8125 20.25C3.32944 20.25 3.75 20.6706 3.75 21.1875C3.75 21.7044 3.32944 22.125 2.8125 22.125ZM12 22.125C11.4831 22.125 11.0625 21.7044 11.0625 21.1875C11.0625 20.6706 11.4831 20.25 12 20.25C12.5169 20.25 12.9375 20.6706 12.9375 21.1875C12.9375 21.7044 12.5169 22.125 12 22.125ZM12 14.8125C10.4492 14.8125 9.1875 13.5508 9.1875 12C9.1875 10.4492 10.4492 9.1875 12 9.1875C13.5508 9.1875 14.8125 10.4492 14.8125 12C14.8125 13.5508 13.5508 14.8125 12 14.8125ZM21.1875 20.25C21.7044 20.25 22.125 20.6706 22.125 21.1875C22.125 21.7044 21.7044 22.125 21.1875 22.125C20.6706 22.125 20.25 21.7044 20.25 21.1875C20.25 20.6706 20.6706 20.25 21.1875 20.25Z" fill="#8C8C8C"/>
</svg>
