<svg width="24" height="24" viewBox="0 0 24 24" fill="none" xmlns="http://www.w3.org/2000/svg">
<path d="M11.8125 0C9.10139 0 6.48319 0.908015 4.36523 2.54142V0H2.49023V5.625H8.11523V3.75H5.88637C7.60814 2.54198 9.67613 1.875 11.8125 1.875C17.4989 1.875 22.125 6.50114 22.125 12.1875C22.125 13.3673 21.9277 14.5239 21.5385 15.6251L23.3063 16.2499C23.7666 14.9475 24 13.5807 24 12.1875C24 5.45184 18.5491 0 11.8125 0Z" fill="#8C8C8C"/>
<path d="M5.4375 11.0625V12.9375H7.40677C7.52855 13.5352 7.76461 14.0916 8.09072 14.5835L6.6967 15.9775L8.02252 17.3033L9.41653 15.9093C9.90839 16.2354 10.4648 16.4715 11.0625 16.5932V18.5625H12.9375V16.5932C13.5351 16.4715 14.0916 16.2354 14.5835 15.9093L15.9775 17.3033L17.3033 15.9775L15.9093 14.5835C16.2354 14.0916 16.4715 13.5352 16.5932 12.9375H18.5625V11.0625H16.5932C16.4715 10.4648 16.2354 9.90839 15.9093 9.41653L17.3033 8.02252L15.9775 6.6967L14.5835 8.09072C14.0916 7.76461 13.5352 7.52855 12.9375 7.40677V5.4375H11.0625V7.40677C10.4649 7.52855 9.90839 7.76461 9.41653 8.09072L8.02252 6.6967L6.6967 8.02252L8.09072 9.41653C7.76461 9.90839 7.52855 10.4648 7.40677 11.0625H5.4375ZM12 9.1875C13.5508 9.1875 14.8125 10.4492 14.8125 12C14.8125 13.5508 13.5508 14.8125 12 14.8125C10.4492 14.8125 9.1875 13.5508 9.1875 12C9.1875 10.4492 10.4492 9.1875 12 9.1875Z" fill="#8C8C8C"/>
<path d="M15.8867 20.2499H18.1136C16.3919 21.4579 14.324 22.1249 12.1875 22.1249C6.50119 22.1249 1.87505 17.4987 1.87505 11.8124C1.87505 10.6326 2.07239 9.47598 2.46159 8.3748L0.69375 7.75C0.233391 9.05242 0 10.4192 0 11.8124C0 18.548 5.45091 23.9999 12.1875 23.9999C14.8995 23.9999 17.5184 23.0913 19.6367 21.4569V23.9999H21.5117V18.3749H15.8867V20.2499Z" fill="#8C8C8C"/>
<path d="M12 12.9375C12.5178 12.9375 12.9375 12.5178 12.9375 12C12.9375 11.4822 12.5178 11.0625 12 11.0625C11.4822 11.0625 11.0625 11.4822 11.0625 12C11.0625 12.5178 11.4822 12.9375 12 12.9375Z" fill="#8C8C8C"/>
</svg>
