<svg width="24" height="24" viewBox="0 0 24 24" fill="none" xmlns="http://www.w3.org/2000/svg">
<path d="M11.1557 18.375H13.125V16.5H11.1557C11.034 15.9024 10.7979 15.3459 10.4718 14.854L11.8658 13.46L10.54 12.1342L9.14597 13.5282C8.65411 13.2021 8.09766 12.966 7.5 12.8443V10.875H5.625V12.8443C5.02739 12.966 4.47089 13.2021 3.97903 13.5282L2.58502 12.1342L1.2592 13.46L2.65322 14.854C2.32711 15.3459 2.09105 15.9024 1.96927 16.5H0V18.375H1.96927C2.09105 18.9726 2.32711 19.5291 2.65322 20.021L1.2592 21.415L2.58502 22.7408L3.97903 21.3468C4.47089 21.6729 5.02734 21.909 5.625 22.0307V24H7.5V22.0307C8.09761 21.909 8.65411 21.6729 9.14597 21.3468L10.54 22.7408L11.8658 21.415L10.4718 20.021C10.7979 19.5291 11.034 18.9726 11.1557 18.375ZM6.5625 20.25C5.01169 20.25 3.75 18.9883 3.75 17.4375C3.75 15.8867 5.01169 14.625 6.5625 14.625C8.11331 14.625 9.375 15.8867 9.375 17.4375C9.375 18.9883 8.11331 20.25 6.5625 20.25Z" fill="#8C8C8C"/>
<path d="M22.0307 5.625C21.909 5.02739 21.6729 4.47089 21.3468 3.97903L22.7408 2.58502L21.415 1.2592L20.021 2.65322C19.5291 2.32711 18.9726 2.09105 18.375 1.96927V0H16.5V1.96927C15.9024 2.09105 15.3459 2.32711 14.854 2.65322L13.46 1.2592L12.1342 2.58502L13.5282 3.97903C13.2021 4.47089 12.966 5.02734 12.8443 5.625H10.875V7.5H12.8443C12.966 8.09761 13.2021 8.65411 13.5282 9.14597L12.1342 10.54L13.46 11.8658L14.854 10.4718C15.3459 10.7979 15.9023 11.034 16.5 11.1557V13.125H18.375V11.1557C18.9726 11.034 19.5291 10.7979 20.021 10.4718L21.415 11.8658L22.7408 10.54L21.3468 9.14597C21.6729 8.65411 21.909 8.09766 22.0307 7.5H24V5.625H22.0307ZM17.4375 9.375C15.8867 9.375 14.625 8.11331 14.625 6.5625C14.625 5.01169 15.8867 3.75 17.4375 3.75C18.9883 3.75 20.25 5.01169 20.25 6.5625C20.25 8.11331 18.9883 9.375 17.4375 9.375Z" fill="#8C8C8C"/>
<path d="M10.3125 1.875H11.25V0H10.3125C7.12725 0 4.12073 1.23436 1.875 3.39084V1.875H0V9.06984L1.7182 6.48567C3.63778 3.59864 6.85059 1.875 10.3125 1.875Z" fill="#8C8C8C"/>
<path d="M13.6875 22.125H12.75V24H13.6875C16.8728 24 19.8793 22.7657 22.125 20.6092V22.125H24V14.9302L22.2818 17.5143C20.3622 20.4014 17.1494 22.125 13.6875 22.125Z" fill="#8C8C8C"/>
<path d="M6.5625 18.375C7.08027 18.375 7.5 17.9553 7.5 17.4375C7.5 16.9197 7.08027 16.5 6.5625 16.5C6.04473 16.5 5.625 16.9197 5.625 17.4375C5.625 17.9553 6.04473 18.375 6.5625 18.375Z" fill="#8C8C8C"/>
<path d="M17.4375 7.5C17.9553 7.5 18.375 7.08027 18.375 6.5625C18.375 6.04473 17.9553 5.625 17.4375 5.625C16.9197 5.625 16.5 6.04473 16.5 6.5625C16.5 7.08027 16.9197 7.5 17.4375 7.5Z" fill="#8C8C8C"/>
</svg>
