<svg width="24" height="24" viewBox="0 0 24 24" fill="none" xmlns="http://www.w3.org/2000/svg">
<path d="M21.1875 9H20.25V6.54609C20.25 4.43203 19.4976 2.60606 17.7401 1.41567C16.3532 0.476297 14.4274 0 12.0164 0C9.59639 0 7.66261 0.479719 6.26873 1.4258C4.50225 2.62486 3.75 4.46128 3.75 6.57891V9H2.8125C1.26169 9 0 10.2617 0 11.8125V13.6875C0 15.2383 1.26169 16.5 2.8125 16.5H5.625C5.625 14.1994 5.625 8.87255 5.625 6.57891C5.625 4.93031 6.18 3.7522 7.32178 2.97722C8.39925 2.24583 9.9787 1.875 12.0164 1.875C14.0458 1.875 15.6177 2.24278 16.6886 2.96812C17.8234 3.73669 18.375 4.90706 18.375 6.54609V16.5H20.25V17.4375C20.25 18.9883 18.9883 20.25 17.4375 20.25H16.3387C15.9517 19.1588 14.9097 18.375 13.6875 18.375H11.8125C10.2617 18.375 9 19.6367 9 21.1875C9 22.7383 10.2617 24 11.8125 24H13.6875C14.9097 24 15.9517 23.2162 16.3387 22.125H17.4375C20.0222 22.125 22.125 20.0222 22.125 17.4375V16.3387C23.2162 15.9517 24 14.9097 24 13.6875V11.8125C24 10.2617 22.7383 9 21.1875 9ZM3.75 14.625H2.8125C2.29556 14.625 1.875 14.2044 1.875 13.6875V11.8125C1.875 11.2956 2.29556 10.875 2.8125 10.875H3.75V14.625ZM13.6875 22.125H11.8125C11.2956 22.125 10.875 21.7044 10.875 21.1875C10.875 20.6706 11.2956 20.25 11.8125 20.25H13.6875C14.2044 20.25 14.625 20.6706 14.625 21.1875C14.625 21.7044 14.2044 22.125 13.6875 22.125ZM22.125 13.6875C22.125 14.2044 21.7044 14.625 21.1875 14.625H20.25V10.875H21.1875C21.7044 10.875 22.125 11.2956 22.125 11.8125V13.6875Z" fill="#8C8C8C"/>
<path d="M7.3125 10.875H9.1875V14.625H7.3125V10.875Z" fill="#8C8C8C"/>
<path d="M11.0625 9H12.9375V16.5H11.0625V9Z" fill="#8C8C8C"/>
<path d="M14.8125 10.875H16.6875V14.625H14.8125V10.875Z" fill="#8C8C8C"/>
</svg>
