<svg width="24" height="24" viewBox="0 0 24 24" fill="none" xmlns="http://www.w3.org/2000/svg">
<path d="M18.0938 24H5.90625V22.125H8.71875V20.25H0V4.6875H3.75V6.5625H1.875V18.375H22.125V6.5625H20.25V4.6875H24V20.25H15.2812V22.125H18.0938V24ZM10.5938 22.125H13.4062V20.25H10.5938V22.125ZM18.5625 16.5H16.6875V14.625H18.5625V16.5ZM14.8125 16.5H12.9375V14.625H14.8125V16.5ZM11.0625 16.5H9.1875V14.625H11.0625V16.5ZM7.3125 16.5H5.4375V14.625H7.3125V16.5ZM12.4688 12.1875H10.5938V8.90625H8.90625C7.09697 8.90625 5.625 7.43428 5.625 5.625C5.625 3.81572 7.09697 2.34375 8.90625 2.34375H11.3378L16.7753 0H18.375V11.25H16.7753L12.4688 9.3937V12.1875ZM12.4688 7.35197L16.5 9.08958V2.16042L12.4688 3.89803V7.35197ZM8.90625 4.21875C8.13084 4.21875 7.5 4.84959 7.5 5.625C7.5 6.40041 8.13084 7.03125 8.90625 7.03125H10.5938V4.21875H8.90625Z" fill="#8C8C8C"/>
</svg>
