<svg width="24" height="24" viewBox="0 0 24 24" fill="none" xmlns="http://www.w3.org/2000/svg">
<path d="M24 11.25H12.75V0H13.6875C19.3739 0 24 4.62614 24 10.3125V11.25ZM14.625 9.375H22.0732C21.6396 5.47013 18.5299 2.36044 14.625 1.92675V9.375Z" fill="#8C8C8C"/>
<path d="M10.3125 24C4.62614 24 0 19.3739 0 13.6875C0 8.00114 4.62614 3.375 10.3125 3.375H11.25V12.75H20.625V13.6875C20.625 19.3739 15.9989 24 10.3125 24ZM9.375 5.30175C5.1622 5.76961 1.875 9.35194 1.875 13.6875C1.875 18.3399 5.66006 22.125 10.3125 22.125C14.6481 22.125 18.2303 18.8378 18.6982 14.625H9.375V5.30175Z" fill="#8C8C8C"/>
</svg>
