<svg width="24" height="24" viewBox="0 0 24 24" fill="none" xmlns="http://www.w3.org/2000/svg">
<path d="M23.1038 9.37303C22.328 9.33877 21.6614 8.87194 21.3644 8.15545L21.3613 8.14795C21.0589 7.41389 21.1971 6.58936 21.7219 5.99606L22.3061 5.33555L18.6555 1.68492L17.9938 2.29097C17.4246 2.81231 16.6016 2.95336 15.8914 2.65509L15.8866 2.65312C15.1594 2.34633 14.6775 1.66683 14.6289 0.87975L14.5747 0H9.40519L9.37383 0.905016C9.34758 1.66247 8.87705 2.33855 8.17355 2.62809L8.15231 2.63686C7.46794 2.92045 6.62452 2.8335 5.99602 2.27784L5.33555 1.69388L1.66481 5.36461L2.31506 6.02747C2.83655 6.55903 2.98322 7.34489 2.68889 8.02927C2.31113 8.90644 1.63313 9.32447 0.879844 9.37097L0 9.4253V14.5874L0.896156 14.627C1.67203 14.6612 2.33831 15.1273 2.63503 15.8433L2.63911 15.8531C2.94089 16.5867 2.80266 17.4104 2.27784 18.0041L1.69402 18.6646L5.34441 22.3149L6.00605 21.709C6.58092 21.1825 7.4048 21.0502 8.1068 21.3442L8.11139 21.3461C8.83969 21.6526 9.32231 22.3324 9.37097 23.1203L9.4253 24H14.5874L14.627 23.1039C14.6611 22.3334 15.1245 21.6682 15.8342 21.3688C15.8389 21.3682 16.9916 20.8262 18.0039 21.7218L18.6644 22.3061L22.3061 18.6645L21.7219 18.004C21.1958 17.4092 21.0583 16.5831 21.3616 15.8512L21.3645 15.8442C21.6631 15.1276 22.3296 14.6611 23.1038 14.627L24 14.5874V9.41259L23.1038 9.37303ZM22.125 12.9016C21.0183 13.2229 20.0879 14.0332 19.6344 15.1215L19.6309 15.1301C19.166 16.2518 19.2411 17.4851 19.8037 18.5153L18.5137 19.8052C17.482 19.2466 16.2389 19.1713 15.127 19.6322C15.11 19.6446 13.4375 20.221 12.8979 22.125H11.0885C10.7595 21.0067 9.94856 20.085 8.83809 19.6177L8.83195 19.6151C7.73527 19.1558 6.49683 19.232 5.47711 19.7959L4.1962 18.5151C4.75875 17.4848 4.83389 16.2514 4.36908 15.1299L4.36462 15.1193C3.91139 14.0312 2.98186 13.2222 1.875 12.9014V11.0885C2.99447 10.7592 3.91673 9.94706 4.38342 8.83561C4.90078 7.60378 4.78087 6.4297 4.22081 5.46023L5.48644 4.19461C6.54338 4.76672 7.78856 4.81725 8.86959 4.36922L8.88872 4.3613C9.98255 3.91116 10.7909 2.98266 11.1056 1.875H12.9116C13.2403 2.99213 14.0503 3.91341 15.1598 4.3815L15.166 4.38408C16.2688 4.8472 17.5091 4.7648 18.523 4.20403L19.8038 5.4848C19.2428 6.5123 19.1666 7.74277 19.6281 8.86312L19.632 8.8725C20.0846 9.96469 21.0159 10.7769 22.125 11.0985V12.9016ZM12 5.4375C8.38144 5.4375 5.4375 8.38144 5.4375 12C5.4375 15.6186 8.38144 18.5625 12 18.5625C15.6186 18.5625 18.5625 15.6186 18.5625 12C18.5625 8.38144 15.6186 5.4375 12 5.4375ZM12 16.6875C9.41531 16.6875 7.3125 14.5847 7.3125 12C7.3125 9.41531 9.41531 7.3125 12 7.3125C14.5847 7.3125 16.6875 9.41531 16.6875 12C16.6875 14.5847 14.5847 16.6875 12 16.6875Z" fill="#8C8C8C"/>
</svg>
